<svg xmlns="http://www.w3.org/2000/svg" viewBox="0 0 120 40" width="120" height="40">
    <defs>
      <linearGradient id="color_grad" x1="0%" x2="0%" y1="0%" y2="100%">
        <stop offset="0%" style="stop-color:#16C784;stop-opacity:0.4;"></stop>
        <stop offset="100%" style="stop-color:#16C784;stop-opacity:0.0;"></stop>
      </linearGradient>
    </defs>
    <g>
      <path stroke="#16C784" stroke-width="2" stroke-linecap="round" stroke-linejoin="round" fill="none" d="M 0.000000 15.022222 L 0.839161 8.800000 L 1.678322 8.800000 L 2.517483 8.800000 L 3.356643 8.800000 L 4.195804 8.800000 L 5.034965 8.800000 L 5.874126 8.800000 L 6.713287 8.800000 L 7.552448 8.800000 L 8.391608 8.800000 L 9.230769 8.800000 L 10.069930 8.800000 L 10.909091 8.800000 L 11.748252 8.800000 L 12.587413 8.995804 L 13.426573 16.577778 L 14.265734 16.577778 L 15.104895 16.577778 L 15.944056 9.536985 L 16.783217 9.111111 L 17.622378 9.111111 L 18.461538 16.577778 L 19.300699 18.133333 L 20.139860 18.133333 L 20.979021 18.133333 L 21.818182 18.133333 L 22.657343 18.133333 L 23.496503 18.133333 L 24.335664 18.470552 L 25.174825 18.133333 L 26.013986 18.133333 L 26.853147 18.133333 L 27.692308 18.133333 L 28.531469 18.133333 L 29.370629 16.577778 L 30.209790 24.355556 L 31.048951 16.577778 L 31.888112 16.577778 L 32.727273 16.577778 L 33.566434 16.577778 L 34.405594 16.577778 L 35.244755 16.577778 L 36.083916 16.577778 L 36.923077 16.577778 L 37.762238 16.577778 L 38.601399 16.577778 L 39.440559 16.577778 L 40.279720 16.577778 L 41.118881 16.577778 L 41.958042 21.244444 L 42.797203 21.244444 L 43.636364 16.577778 L 44.475524 16.577778 L 45.314685 19.688889 L 46.153846 25.911111 L 46.993007 25.911111 L 47.832168 25.911111 L 48.671329 25.911111 L 49.510490 25.911111 L 50.349650 25.911111 L 51.188811 25.911111 L 52.027972 25.911111 L 52.867133 25.911111 L 53.706294 32.133333 L 54.545455 36.800000 L 55.384615 36.800000 L 56.223776 36.800000 L 57.062937 36.800000 L 57.902098 21.483761 L 58.741259 25.911111 L 59.580420 32.133333 L 60.419580 19.688889 L 61.258741 19.688889 L 62.097902 36.800000 L 62.937063 36.800000 L 63.776224 36.800000 L 64.615385 21.244444 L 65.454545 21.244444 L 66.293706 21.244444 L 67.132867 21.244444 L 67.972028 21.244444 L 68.811189 21.244444 L 69.650350 21.244444 L 70.489510 21.244444 L 71.328671 21.244444 L 72.167832 21.244444 L 73.006993 21.244444 L 73.846154 21.244444 L 74.685315 21.244444 L 75.524476 21.244444 L 76.363636 25.062626 L 77.202797 25.911111 L 78.041958 25.911111 L 78.881119 27.466667 L 79.720280 21.244444 L 80.559441 21.244444 L 81.398601 21.244444 L 82.237762 21.244444 L 83.076923 21.244444 L 83.916084 21.244444 L 84.755245 21.244444 L 85.594406 24.355556 L 86.433566 24.355556 L 87.272727 32.133333 L 88.111888 24.355556 L 88.951049 24.355556 L 89.790210 24.355556 L 90.629371 24.355556 L 91.468531 24.355556 L 92.307692 29.740171 L 93.146853 32.133333 L 93.986014 26.694328 L 94.825175 28.967832 L 95.664336 28.010567 L 96.503497 29.022222 L 97.342657 29.022222 L 98.181818 29.022222 L 99.020979 29.022222 L 99.860140 29.022222 L 100.699301 29.022222 L 101.538462 29.800000 L 102.377622 29.800000 L 103.216783 29.022222 L 104.055944 29.022222 L 104.895105 29.022222 L 105.734266 29.022222 L 106.573427 29.022222 L 107.412587 29.022222 L 108.251748 29.022222 L 109.090909 29.022222 L 109.930070 29.955556 L 110.769231 24.355556 L 111.608392 31.382751 L 112.447552 32.133333 L 113.286713 32.133333 L 114.125874 32.133333 L 114.965035 32.133333 L 115.804196 32.133333 L 116.643357 34.722300 L 117.482517 35.244444 L 118.321678 35.244444 L 119.160839 32.263869 L 120.000000 24.355556"></path>
      <path stroke="none" fill-opacity="0.6" fill="url(#color_grad)" d="M 0 40 L 0.000000 15.022222 L 0.839161 8.800000 L 1.678322 8.800000 L 2.517483 8.800000 L 3.356643 8.800000 L 4.195804 8.800000 L 5.034965 8.800000 L 5.874126 8.800000 L 6.713287 8.800000 L 7.552448 8.800000 L 8.391608 8.800000 L 9.230769 8.800000 L 10.069930 8.800000 L 10.909091 8.800000 L 11.748252 8.800000 L 12.587413 8.995804 L 13.426573 16.577778 L 14.265734 16.577778 L 15.104895 16.577778 L 15.944056 9.536985 L 16.783217 9.111111 L 17.622378 9.111111 L 18.461538 16.577778 L 19.300699 18.133333 L 20.139860 18.133333 L 20.979021 18.133333 L 21.818182 18.133333 L 22.657343 18.133333 L 23.496503 18.133333 L 24.335664 18.470552 L 25.174825 18.133333 L 26.013986 18.133333 L 26.853147 18.133333 L 27.692308 18.133333 L 28.531469 18.133333 L 29.370629 16.577778 L 30.209790 24.355556 L 31.048951 16.577778 L 31.888112 16.577778 L 32.727273 16.577778 L 33.566434 16.577778 L 34.405594 16.577778 L 35.244755 16.577778 L 36.083916 16.577778 L 36.923077 16.577778 L 37.762238 16.577778 L 38.601399 16.577778 L 39.440559 16.577778 L 40.279720 16.577778 L 41.118881 16.577778 L 41.958042 21.244444 L 42.797203 21.244444 L 43.636364 16.577778 L 44.475524 16.577778 L 45.314685 19.688889 L 46.153846 25.911111 L 46.993007 25.911111 L 47.832168 25.911111 L 48.671329 25.911111 L 49.510490 25.911111 L 50.349650 25.911111 L 51.188811 25.911111 L 52.027972 25.911111 L 52.867133 25.911111 L 53.706294 32.133333 L 54.545455 36.800000 L 55.384615 36.800000 L 56.223776 36.800000 L 57.062937 36.800000 L 57.902098 21.483761 L 58.741259 25.911111 L 59.580420 32.133333 L 60.419580 19.688889 L 61.258741 19.688889 L 62.097902 36.800000 L 62.937063 36.800000 L 63.776224 36.800000 L 64.615385 21.244444 L 65.454545 21.244444 L 66.293706 21.244444 L 67.132867 21.244444 L 67.972028 21.244444 L 68.811189 21.244444 L 69.650350 21.244444 L 70.489510 21.244444 L 71.328671 21.244444 L 72.167832 21.244444 L 73.006993 21.244444 L 73.846154 21.244444 L 74.685315 21.244444 L 75.524476 21.244444 L 76.363636 25.062626 L 77.202797 25.911111 L 78.041958 25.911111 L 78.881119 27.466667 L 79.720280 21.244444 L 80.559441 21.244444 L 81.398601 21.244444 L 82.237762 21.244444 L 83.076923 21.244444 L 83.916084 21.244444 L 84.755245 21.244444 L 85.594406 24.355556 L 86.433566 24.355556 L 87.272727 32.133333 L 88.111888 24.355556 L 88.951049 24.355556 L 89.790210 24.355556 L 90.629371 24.355556 L 91.468531 24.355556 L 92.307692 29.740171 L 93.146853 32.133333 L 93.986014 26.694328 L 94.825175 28.967832 L 95.664336 28.010567 L 96.503497 29.022222 L 97.342657 29.022222 L 98.181818 29.022222 L 99.020979 29.022222 L 99.860140 29.022222 L 100.699301 29.022222 L 101.538462 29.800000 L 102.377622 29.800000 L 103.216783 29.022222 L 104.055944 29.022222 L 104.895105 29.022222 L 105.734266 29.022222 L 106.573427 29.022222 L 107.412587 29.022222 L 108.251748 29.022222 L 109.090909 29.022222 L 109.930070 29.955556 L 110.769231 24.355556 L 111.608392 31.382751 L 112.447552 32.133333 L 113.286713 32.133333 L 114.125874 32.133333 L 114.965035 32.133333 L 115.804196 32.133333 L 116.643357 34.722300 L 117.482517 35.244444 L 118.321678 35.244444 L 119.160839 32.263869 L 120.000000 24.355556 L 120 40 Z"></path>
    </g>
  </svg>