<svg xmlns="http://www.w3.org/2000/svg" viewBox="0 0 120 40" width="120" height="40">
    <defs>
      <linearGradient id="color_grad" x1="0%" x2="0%" y1="0%" y2="100%">
        <stop offset="0%" style="stop-color:#16C784;stop-opacity:0.4;"></stop>
        <stop offset="100%" style="stop-color:#16C784;stop-opacity:0.0;"></stop>
      </linearGradient>
    </defs>
    <g>
      <path stroke="#16C784" stroke-width="2" stroke-linecap="round" stroke-linejoin="round" fill="none" d="M 0.000000 17.420246 L 0.839161 10.068074 L 1.678322 11.867249 L 2.517483 12.482985 L 3.356643 12.203420 L 4.195804 14.201024 L 5.034965 13.272610 L 5.874126 13.441164 L 6.713287 12.916476 L 7.552448 12.632630 L 8.391608 12.162583 L 9.230769 10.751755 L 10.069930 10.277275 L 10.909091 10.323198 L 11.748252 10.754193 L 12.587413 12.508419 L 13.426573 20.783412 L 14.265734 20.244598 L 15.104895 20.409133 L 15.944056 11.550947 L 16.783217 10.051070 L 17.622378 9.132132 L 18.461538 17.412120 L 19.300699 19.191566 L 20.139860 19.066346 L 20.979021 18.188627 L 21.818182 11.778836 L 22.657343 13.736961 L 23.496503 12.981980 L 24.335664 13.633423 L 25.174825 12.683568 L 26.013986 13.050427 L 26.853147 13.411572 L 27.692308 13.617084 L 28.531469 14.770038 L 29.370629 12.827911 L 30.209790 21.590829 L 31.048951 11.669675 L 31.888112 11.723999 L 32.727273 11.500908 L 33.566434 11.115080 L 34.405594 11.577621 L 35.244755 11.227405 L 36.083916 12.127250 L 36.923077 12.096948 L 37.762238 10.758856 L 38.601399 10.340707 L 39.440559 10.527532 L 40.279720 10.103633 L 41.118881 8.800000 L 41.958042 16.794840 L 42.797203 18.242274 L 43.636364 12.645645 L 44.475524 11.548046 L 45.314685 14.090485 L 46.153846 21.903453 L 46.993007 21.192761 L 47.832168 20.687372 L 48.671329 21.437724 L 49.510490 20.811805 L 50.349650 20.785718 L 51.188811 20.933266 L 52.027972 20.097817 L 52.867133 20.141105 L 53.706294 28.022200 L 54.545455 33.862145 L 55.384615 33.205490 L 56.223776 32.817117 L 57.062937 31.147882 L 57.902098 11.329449 L 58.741259 17.867564 L 59.580420 26.547313 L 60.419580 10.704975 L 61.258741 11.269568 L 62.097902 33.220524 L 62.937063 34.795049 L 63.776224 36.800000 L 64.615385 17.289140 L 65.454545 17.408081 L 66.293706 19.824175 L 67.132867 19.494320 L 67.972028 21.680330 L 68.811189 21.097502 L 69.650350 22.389799 L 70.489510 22.216123 L 71.328671 21.944188 L 72.167832 22.232397 L 73.006993 21.667808 L 73.846154 20.824085 L 74.685315 18.983304 L 75.524476 18.876052 L 76.363636 23.260725 L 77.202797 24.687986 L 78.041958 25.754947 L 78.881119 27.423259 L 79.720280 19.151587 L 80.559441 21.518430 L 81.398601 20.592343 L 82.237762 19.903420 L 83.076923 17.482007 L 83.916084 14.493128 L 84.755245 16.084756 L 85.594406 18.868041 L 86.433566 18.372649 L 87.272727 27.452633 L 88.111888 17.839889 L 88.951049 17.907330 L 89.790210 16.452172 L 90.629371 17.103217 L 91.468531 15.922150 L 92.307692 23.692619 L 93.146853 28.206748 L 93.986014 17.422741 L 94.825175 21.267069 L 95.664336 22.785777 L 96.503497 23.451047 L 97.342657 23.680204 L 98.181818 24.997971 L 99.020979 26.296035 L 99.860140 25.359761 L 100.699301 22.661414 L 101.538462 27.501695 L 102.377622 25.712357 L 103.216783 23.907489 L 104.055944 24.551663 L 104.895105 21.306626 L 105.734266 21.868292 L 106.573427 21.515688 L 107.412587 20.919845 L 108.251748 20.330693 L 109.090909 20.180846 L 109.930070 20.374083 L 110.769231 11.793426 L 111.608392 21.796386 L 112.447552 22.653505 L 113.286713 21.759226 L 114.125874 21.750065 L 114.965035 22.367024 L 115.804196 19.770766 L 116.643357 20.169535 L 117.482517 22.659518 L 118.321678 24.110136 L 119.160839 20.384220 L 120.000000 10.180152"></path>
      <path stroke="none" fill-opacity="0.6" fill="url(#color_grad)" d="M 0 40 L 0.000000 17.420246 L 0.839161 10.068074 L 1.678322 11.867249 L 2.517483 12.482985 L 3.356643 12.203420 L 4.195804 14.201024 L 5.034965 13.272610 L 5.874126 13.441164 L 6.713287 12.916476 L 7.552448 12.632630 L 8.391608 12.162583 L 9.230769 10.751755 L 10.069930 10.277275 L 10.909091 10.323198 L 11.748252 10.754193 L 12.587413 12.508419 L 13.426573 20.783412 L 14.265734 20.244598 L 15.104895 20.409133 L 15.944056 11.550947 L 16.783217 10.051070 L 17.622378 9.132132 L 18.461538 17.412120 L 19.300699 19.191566 L 20.139860 19.066346 L 20.979021 18.188627 L 21.818182 11.778836 L 22.657343 13.736961 L 23.496503 12.981980 L 24.335664 13.633423 L 25.174825 12.683568 L 26.013986 13.050427 L 26.853147 13.411572 L 27.692308 13.617084 L 28.531469 14.770038 L 29.370629 12.827911 L 30.209790 21.590829 L 31.048951 11.669675 L 31.888112 11.723999 L 32.727273 11.500908 L 33.566434 11.115080 L 34.405594 11.577621 L 35.244755 11.227405 L 36.083916 12.127250 L 36.923077 12.096948 L 37.762238 10.758856 L 38.601399 10.340707 L 39.440559 10.527532 L 40.279720 10.103633 L 41.118881 8.800000 L 41.958042 16.794840 L 42.797203 18.242274 L 43.636364 12.645645 L 44.475524 11.548046 L 45.314685 14.090485 L 46.153846 21.903453 L 46.993007 21.192761 L 47.832168 20.687372 L 48.671329 21.437724 L 49.510490 20.811805 L 50.349650 20.785718 L 51.188811 20.933266 L 52.027972 20.097817 L 52.867133 20.141105 L 53.706294 28.022200 L 54.545455 33.862145 L 55.384615 33.205490 L 56.223776 32.817117 L 57.062937 31.147882 L 57.902098 11.329449 L 58.741259 17.867564 L 59.580420 26.547313 L 60.419580 10.704975 L 61.258741 11.269568 L 62.097902 33.220524 L 62.937063 34.795049 L 63.776224 36.800000 L 64.615385 17.289140 L 65.454545 17.408081 L 66.293706 19.824175 L 67.132867 19.494320 L 67.972028 21.680330 L 68.811189 21.097502 L 69.650350 22.389799 L 70.489510 22.216123 L 71.328671 21.944188 L 72.167832 22.232397 L 73.006993 21.667808 L 73.846154 20.824085 L 74.685315 18.983304 L 75.524476 18.876052 L 76.363636 23.260725 L 77.202797 24.687986 L 78.041958 25.754947 L 78.881119 27.423259 L 79.720280 19.151587 L 80.559441 21.518430 L 81.398601 20.592343 L 82.237762 19.903420 L 83.076923 17.482007 L 83.916084 14.493128 L 84.755245 16.084756 L 85.594406 18.868041 L 86.433566 18.372649 L 87.272727 27.452633 L 88.111888 17.839889 L 88.951049 17.907330 L 89.790210 16.452172 L 90.629371 17.103217 L 91.468531 15.922150 L 92.307692 23.692619 L 93.146853 28.206748 L 93.986014 17.422741 L 94.825175 21.267069 L 95.664336 22.785777 L 96.503497 23.451047 L 97.342657 23.680204 L 98.181818 24.997971 L 99.020979 26.296035 L 99.860140 25.359761 L 100.699301 22.661414 L 101.538462 27.501695 L 102.377622 25.712357 L 103.216783 23.907489 L 104.055944 24.551663 L 104.895105 21.306626 L 105.734266 21.868292 L 106.573427 21.515688 L 107.412587 20.919845 L 108.251748 20.330693 L 109.090909 20.180846 L 109.930070 20.374083 L 110.769231 11.793426 L 111.608392 21.796386 L 112.447552 22.653505 L 113.286713 21.759226 L 114.125874 21.750065 L 114.965035 22.367024 L 115.804196 19.770766 L 116.643357 20.169535 L 117.482517 22.659518 L 118.321678 24.110136 L 119.160839 20.384220 L 120.000000 10.180152 L 120 40 Z"></path>
    </g>
  </svg>