<svg xmlns="http://www.w3.org/2000/svg" viewBox="0 0 120 40" width="120" height="40">
    <defs>
      <linearGradient id="color_grad" x1="0%" x2="0%" y1="0%" y2="100%">
        <stop offset="0%" style="stop-color:#16C784;stop-opacity:0.4;"></stop>
        <stop offset="100%" style="stop-color:#16C784;stop-opacity:0.0;"></stop>
      </linearGradient>
    </defs>
    <g>
      <path stroke="#16C784" stroke-width="2" stroke-linecap="round" stroke-linejoin="round" fill="none" d="M 0.000000 18.760657 L 0.839161 18.799438 L 1.678322 20.174808 L 2.517483 20.640535 L 3.356643 20.425112 L 4.195804 21.688691 L 5.034965 22.202153 L 5.874126 20.562324 L 6.713287 17.769842 L 7.552448 17.547847 L 8.391608 18.789544 L 9.230769 25.805269 L 10.069930 15.705233 L 10.909091 19.285457 L 11.748252 19.324743 L 12.587413 22.091083 L 13.426573 23.204667 L 14.265734 16.263470 L 15.104895 16.438740 L 15.944056 16.345942 L 16.783217 17.196512 L 17.622378 16.490448 L 18.461538 15.935028 L 19.300699 16.524606 L 20.139860 16.418664 L 20.979021 15.694545 L 21.818182 10.434268 L 22.657343 12.044777 L 23.496503 11.837514 L 24.335664 8.800000 L 25.174825 11.174635 L 26.013986 17.303610 L 26.853147 17.587783 L 27.692308 17.749404 L 28.531469 16.959352 L 29.370629 20.541092 L 30.209790 16.219995 L 31.048951 16.038153 L 31.888112 22.562948 L 32.727273 19.319255 L 33.566434 21.230113 L 34.405594 19.382733 L 35.244755 19.108237 L 36.083916 19.799425 L 36.923077 19.781443 L 37.762238 18.756324 L 38.601399 18.430915 L 39.440559 20.295338 L 40.279720 26.871624 L 41.118881 23.162709 L 41.958042 24.733499 L 42.797203 21.742276 L 43.636364 17.113968 L 44.475524 17.647795 L 45.314685 23.477286 L 46.153846 28.630899 L 46.993007 28.093822 L 47.832168 27.709701 L 48.671329 28.276025 L 49.510490 27.802427 L 50.349650 22.921360 L 51.188811 24.427516 L 52.027972 22.381106 L 52.867133 22.414976 L 53.706294 22.375329 L 54.545455 22.290618 L 55.384615 21.718949 L 56.223776 21.378664 L 57.062937 17.802267 L 57.902098 17.867046 L 58.741259 25.127297 L 59.580420 22.484809 L 60.419580 22.681745 L 61.258741 19.598662 L 62.097902 19.628054 L 62.937063 21.011585 L 63.776224 22.772016 L 64.615385 26.130967 L 65.454545 24.168257 L 66.293706 28.704271 L 67.132867 28.460539 L 67.972028 30.093219 L 68.811189 29.658473 L 69.650350 30.290298 L 70.489510 30.160380 L 71.328671 29.768026 L 72.167832 29.841615 L 73.006993 28.747457 L 73.846154 28.579264 L 74.685315 27.406173 L 75.524476 27.321607 L 76.363636 27.059821 L 77.202797 27.347966 L 78.041958 28.188210 L 78.881119 27.991274 L 79.720280 27.526125 L 80.559441 31.635193 L 81.398601 30.952455 L 82.237762 30.787295 L 83.076923 28.294874 L 83.916084 24.728010 L 84.755245 25.912728 L 85.594406 24.352771 L 86.433566 26.559069 L 87.272727 24.004902 L 88.111888 24.261706 L 88.951049 24.313846 L 89.790210 24.250512 L 90.629371 24.746209 L 91.468531 23.852814 L 92.307692 24.497710 L 93.146853 25.665602 L 93.986014 22.678856 L 94.825175 23.373944 L 95.664336 25.532723 L 96.503497 25.039626 L 97.342657 26.966444 L 98.181818 26.410158 L 99.020979 28.307295 L 99.860140 35.128252 L 100.699301 29.694798 L 101.538462 32.946002 L 102.377622 33.333590 L 103.216783 30.981919 L 104.055944 31.462451 L 104.895105 29.021737 L 105.734266 32.630414 L 106.573427 32.371950 L 107.412587 31.934388 L 108.251748 31.503686 L 109.090909 31.396228 L 109.930070 30.640117 L 110.769231 30.142615 L 111.608392 30.304597 L 112.447552 30.200244 L 113.286713 36.800000 L 114.125874 29.521983 L 114.965035 29.986482 L 115.804196 28.033665 L 116.643357 25.671451 L 117.482517 27.034401 L 118.321678 28.153618 L 119.160839 31.881236 L 120.000000 25.349292"></path>
      <path stroke="none" fill-opacity="0.6" fill="url(#color_grad)" d="M 0 40 L 0.000000 18.760657 L 0.839161 18.799438 L 1.678322 20.174808 L 2.517483 20.640535 L 3.356643 20.425112 L 4.195804 21.688691 L 5.034965 22.202153 L 5.874126 20.562324 L 6.713287 17.769842 L 7.552448 17.547847 L 8.391608 18.789544 L 9.230769 25.805269 L 10.069930 15.705233 L 10.909091 19.285457 L 11.748252 19.324743 L 12.587413 22.091083 L 13.426573 23.204667 L 14.265734 16.263470 L 15.104895 16.438740 L 15.944056 16.345942 L 16.783217 17.196512 L 17.622378 16.490448 L 18.461538 15.935028 L 19.300699 16.524606 L 20.139860 16.418664 L 20.979021 15.694545 L 21.818182 10.434268 L 22.657343 12.044777 L 23.496503 11.837514 L 24.335664 8.800000 L 25.174825 11.174635 L 26.013986 17.303610 L 26.853147 17.587783 L 27.692308 17.749404 L 28.531469 16.959352 L 29.370629 20.541092 L 30.209790 16.219995 L 31.048951 16.038153 L 31.888112 22.562948 L 32.727273 19.319255 L 33.566434 21.230113 L 34.405594 19.382733 L 35.244755 19.108237 L 36.083916 19.799425 L 36.923077 19.781443 L 37.762238 18.756324 L 38.601399 18.430915 L 39.440559 20.295338 L 40.279720 26.871624 L 41.118881 23.162709 L 41.958042 24.733499 L 42.797203 21.742276 L 43.636364 17.113968 L 44.475524 17.647795 L 45.314685 23.477286 L 46.153846 28.630899 L 46.993007 28.093822 L 47.832168 27.709701 L 48.671329 28.276025 L 49.510490 27.802427 L 50.349650 22.921360 L 51.188811 24.427516 L 52.027972 22.381106 L 52.867133 22.414976 L 53.706294 22.375329 L 54.545455 22.290618 L 55.384615 21.718949 L 56.223776 21.378664 L 57.062937 17.802267 L 57.902098 17.867046 L 58.741259 25.127297 L 59.580420 22.484809 L 60.419580 22.681745 L 61.258741 19.598662 L 62.097902 19.628054 L 62.937063 21.011585 L 63.776224 22.772016 L 64.615385 26.130967 L 65.454545 24.168257 L 66.293706 28.704271 L 67.132867 28.460539 L 67.972028 30.093219 L 68.811189 29.658473 L 69.650350 30.290298 L 70.489510 30.160380 L 71.328671 29.768026 L 72.167832 29.841615 L 73.006993 28.747457 L 73.846154 28.579264 L 74.685315 27.406173 L 75.524476 27.321607 L 76.363636 27.059821 L 77.202797 27.347966 L 78.041958 28.188210 L 78.881119 27.991274 L 79.720280 27.526125 L 80.559441 31.635193 L 81.398601 30.952455 L 82.237762 30.787295 L 83.076923 28.294874 L 83.916084 24.728010 L 84.755245 25.912728 L 85.594406 24.352771 L 86.433566 26.559069 L 87.272727 24.004902 L 88.111888 24.261706 L 88.951049 24.313846 L 89.790210 24.250512 L 90.629371 24.746209 L 91.468531 23.852814 L 92.307692 24.497710 L 93.146853 25.665602 L 93.986014 22.678856 L 94.825175 23.373944 L 95.664336 25.532723 L 96.503497 25.039626 L 97.342657 26.966444 L 98.181818 26.410158 L 99.020979 28.307295 L 99.860140 35.128252 L 100.699301 29.694798 L 101.538462 32.946002 L 102.377622 33.333590 L 103.216783 30.981919 L 104.055944 31.462451 L 104.895105 29.021737 L 105.734266 32.630414 L 106.573427 32.371950 L 107.412587 31.934388 L 108.251748 31.503686 L 109.090909 31.396228 L 109.930070 30.640117 L 110.769231 30.142615 L 111.608392 30.304597 L 112.447552 30.200244 L 113.286713 36.800000 L 114.125874 29.521983 L 114.965035 29.986482 L 115.804196 28.033665 L 116.643357 25.671451 L 117.482517 27.034401 L 118.321678 28.153618 L 119.160839 31.881236 L 120.000000 25.349292 L 120 40 Z"></path>
    </g>
  </svg>