<svg xmlns="http://www.w3.org/2000/svg" viewBox="0 0 120 40" width="120" height="40">
    <defs>
      <linearGradient id="color_grad" x1="0%" x2="0%" y1="0%" y2="100%">
        <stop offset="0%" style="stop-color:#EA3943;stop-opacity:0.4;"></stop>
        <stop offset="100%" style="stop-color:#EA3943;stop-opacity:0.0;"></stop>
      </linearGradient>
    </defs>
    <g>
      <path stroke="#EA3943" stroke-width="2" stroke-linecap="round" stroke-linejoin="round" fill="none" d="M 0.000000 11.654511 L 0.839161 11.654511 L 1.678322 11.654511 L 2.517483 11.654511 L 3.356643 11.654511 L 4.195804 11.420054 L 5.034965 12.492694 L 5.874126 10.947233 L 6.713287 8.860568 L 7.552448 8.860568 L 8.391608 10.257540 L 9.230769 17.242398 L 10.069930 8.860568 L 10.909091 11.908506 L 11.748252 11.654511 L 12.587413 13.051483 L 13.426573 14.448454 L 14.265734 8.821492 L 15.104895 8.860568 L 15.944056 9.143870 L 16.783217 10.536934 L 17.622378 10.536934 L 18.461538 10.536934 L 19.300699 11.095723 L 20.139860 11.095723 L 20.979021 11.095723 L 21.818182 11.095723 L 22.657343 11.095723 L 23.496503 11.437639 L 24.335664 8.800000 L 25.174825 11.095723 L 26.013986 15.845426 L 26.853147 15.845426 L 27.692308 15.845426 L 28.531469 14.448454 L 29.370629 17.418240 L 30.209790 14.448454 L 31.048951 14.448454 L 31.888112 19.756946 L 32.727273 17.242398 L 33.566434 19.039900 L 34.405594 17.242398 L 35.244755 17.242398 L 36.083916 17.242398 L 36.923077 17.242398 L 37.762238 17.242398 L 38.601399 17.242398 L 39.440559 18.639369 L 40.279720 24.227256 L 41.118881 21.992101 L 41.958042 21.992101 L 42.797203 18.639369 L 43.636364 14.702449 L 44.475524 15.845426 L 45.314685 21.433312 L 46.153846 25.624227 L 46.993007 25.624227 L 47.832168 25.624227 L 48.671329 25.624227 L 49.510490 25.624227 L 50.349650 21.712707 L 51.188811 22.830284 L 52.027972 21.712707 L 52.867133 21.712707 L 53.706294 21.712707 L 54.545455 21.712707 L 55.384615 21.712707 L 56.223776 21.712707 L 57.062937 20.036341 L 57.902098 20.036341 L 58.741259 25.272542 L 59.580420 22.771670 L 60.419580 22.830284 L 61.258741 20.036341 L 62.097902 20.036341 L 62.937063 20.036341 L 63.776224 20.036341 L 64.615385 22.830284 L 65.454545 21.153918 L 66.293706 23.389073 L 67.132867 23.389073 L 67.972028 23.389073 L 68.811189 23.389073 L 69.650350 23.109678 L 70.489510 23.109678 L 71.328671 22.951420 L 72.167832 22.830284 L 73.006993 22.271495 L 73.846154 22.658349 L 74.685315 22.830284 L 75.524476 22.830284 L 76.363636 22.830284 L 77.202797 22.830284 L 78.041958 22.830284 L 78.881119 22.830284 L 79.720280 22.830284 L 80.559441 24.786044 L 81.398601 24.786044 L 82.237762 25.065439 L 83.076923 24.485158 L 83.916084 23.389073 L 84.755245 23.389073 L 85.594406 22.830284 L 86.433566 24.905226 L 87.272727 23.389073 L 88.111888 23.389073 L 88.951049 23.389073 L 89.790210 24.227256 L 90.629371 24.227256 L 91.468531 24.227256 L 92.307692 24.227256 L 93.146853 24.227256 L 93.986014 24.227256 L 94.825175 24.227256 L 95.664336 24.227256 L 96.503497 24.227256 L 97.342657 25.624227 L 98.181818 24.354253 L 99.020979 25.065439 L 99.860140 31.169130 L 100.699301 28.418170 L 101.538462 28.697565 L 102.377622 30.094536 L 103.216783 28.697565 L 104.055944 28.697565 L 104.895105 28.697565 L 105.734266 31.212114 L 106.573427 31.212114 L 107.412587 31.212114 L 108.251748 31.212114 L 109.090909 31.212114 L 109.930070 31.212114 L 110.769231 31.491508 L 111.608392 31.212114 L 112.447552 31.212114 L 113.286713 36.800000 L 114.125874 31.212114 L 114.965035 31.212114 L 115.804196 31.212114 L 116.643357 31.212114 L 117.482517 31.212114 L 118.321678 31.212114 L 119.160839 33.888828 L 120.000000 28.697565"></path>
      <path stroke="none" fill-opacity="0.6" fill="url(#color_grad)" d="M 0 40 L 0.000000 11.654511 L 0.839161 11.654511 L 1.678322 11.654511 L 2.517483 11.654511 L 3.356643 11.654511 L 4.195804 11.420054 L 5.034965 12.492694 L 5.874126 10.947233 L 6.713287 8.860568 L 7.552448 8.860568 L 8.391608 10.257540 L 9.230769 17.242398 L 10.069930 8.860568 L 10.909091 11.908506 L 11.748252 11.654511 L 12.587413 13.051483 L 13.426573 14.448454 L 14.265734 8.821492 L 15.104895 8.860568 L 15.944056 9.143870 L 16.783217 10.536934 L 17.622378 10.536934 L 18.461538 10.536934 L 19.300699 11.095723 L 20.139860 11.095723 L 20.979021 11.095723 L 21.818182 11.095723 L 22.657343 11.095723 L 23.496503 11.437639 L 24.335664 8.800000 L 25.174825 11.095723 L 26.013986 15.845426 L 26.853147 15.845426 L 27.692308 15.845426 L 28.531469 14.448454 L 29.370629 17.418240 L 30.209790 14.448454 L 31.048951 14.448454 L 31.888112 19.756946 L 32.727273 17.242398 L 33.566434 19.039900 L 34.405594 17.242398 L 35.244755 17.242398 L 36.083916 17.242398 L 36.923077 17.242398 L 37.762238 17.242398 L 38.601399 17.242398 L 39.440559 18.639369 L 40.279720 24.227256 L 41.118881 21.992101 L 41.958042 21.992101 L 42.797203 18.639369 L 43.636364 14.702449 L 44.475524 15.845426 L 45.314685 21.433312 L 46.153846 25.624227 L 46.993007 25.624227 L 47.832168 25.624227 L 48.671329 25.624227 L 49.510490 25.624227 L 50.349650 21.712707 L 51.188811 22.830284 L 52.027972 21.712707 L 52.867133 21.712707 L 53.706294 21.712707 L 54.545455 21.712707 L 55.384615 21.712707 L 56.223776 21.712707 L 57.062937 20.036341 L 57.902098 20.036341 L 58.741259 25.272542 L 59.580420 22.771670 L 60.419580 22.830284 L 61.258741 20.036341 L 62.097902 20.036341 L 62.937063 20.036341 L 63.776224 20.036341 L 64.615385 22.830284 L 65.454545 21.153918 L 66.293706 23.389073 L 67.132867 23.389073 L 67.972028 23.389073 L 68.811189 23.389073 L 69.650350 23.109678 L 70.489510 23.109678 L 71.328671 22.951420 L 72.167832 22.830284 L 73.006993 22.271495 L 73.846154 22.658349 L 74.685315 22.830284 L 75.524476 22.830284 L 76.363636 22.830284 L 77.202797 22.830284 L 78.041958 22.830284 L 78.881119 22.830284 L 79.720280 22.830284 L 80.559441 24.786044 L 81.398601 24.786044 L 82.237762 25.065439 L 83.076923 24.485158 L 83.916084 23.389073 L 84.755245 23.389073 L 85.594406 22.830284 L 86.433566 24.905226 L 87.272727 23.389073 L 88.111888 23.389073 L 88.951049 23.389073 L 89.790210 24.227256 L 90.629371 24.227256 L 91.468531 24.227256 L 92.307692 24.227256 L 93.146853 24.227256 L 93.986014 24.227256 L 94.825175 24.227256 L 95.664336 24.227256 L 96.503497 24.227256 L 97.342657 25.624227 L 98.181818 24.354253 L 99.020979 25.065439 L 99.860140 31.169130 L 100.699301 28.418170 L 101.538462 28.697565 L 102.377622 30.094536 L 103.216783 28.697565 L 104.055944 28.697565 L 104.895105 28.697565 L 105.734266 31.212114 L 106.573427 31.212114 L 107.412587 31.212114 L 108.251748 31.212114 L 109.090909 31.212114 L 109.930070 31.212114 L 110.769231 31.491508 L 111.608392 31.212114 L 112.447552 31.212114 L 113.286713 36.800000 L 114.125874 31.212114 L 114.965035 31.212114 L 115.804196 31.212114 L 116.643357 31.212114 L 117.482517 31.212114 L 118.321678 31.212114 L 119.160839 33.888828 L 120.000000 28.697565 L 120 40 Z"></path>
    </g>
  </svg>