<svg xmlns="http://www.w3.org/2000/svg" viewBox="0 0 120 40" width="120" height="40">
    <defs>
      <linearGradient id="color_grad" x1="0%" x2="0%" y1="0%" y2="100%">
        <stop offset="0%" style="stop-color:#16C784;stop-opacity:0.4;"></stop>
        <stop offset="100%" style="stop-color:#16C784;stop-opacity:0.0;"></stop>
      </linearGradient>
    </defs>
    <g>
      <path stroke="#16C784" stroke-width="2" stroke-linecap="round" stroke-linejoin="round" fill="none" d="M 0.000000 32.843005 L 0.839161 32.877425 L 1.678322 34.579694 L 2.517483 35.179498 L 3.356643 34.904319 L 4.195804 36.800000 L 5.034965 35.922396 L 5.874126 36.077719 L 6.713287 35.575407 L 7.552448 35.318748 L 8.391608 34.871472 L 9.230769 33.532964 L 10.069930 33.082018 L 10.909091 33.126921 L 11.748252 33.537856 L 12.587413 34.969663 L 13.426573 34.342079 L 14.265734 33.813210 L 15.104895 33.972377 L 15.944056 33.456787 L 16.783217 32.512440 L 17.622378 31.656850 L 18.461538 30.973007 L 19.300699 30.887221 L 20.139860 30.747098 L 20.979021 29.871066 L 21.818182 23.360231 L 22.657343 25.354452 L 23.496503 24.586221 L 24.335664 24.811257 L 25.174825 24.278544 L 26.013986 24.650692 L 26.853147 25.015676 L 27.692308 25.228481 L 28.531469 26.396990 L 29.370629 26.370608 L 30.209790 25.459807 L 31.048951 25.214853 L 31.888112 25.277402 L 32.727273 25.056909 L 33.566434 24.667639 L 34.405594 25.125748 L 35.244755 24.787146 L 36.083916 25.677330 L 36.923077 25.645531 L 37.762238 24.298637 L 38.601399 23.898534 L 39.440559 24.068534 L 40.279720 23.640302 L 41.118881 22.349317 L 41.958042 24.492747 L 42.797203 25.993743 L 43.636364 26.206199 L 44.475524 25.100763 L 45.314685 23.727836 L 46.153846 23.696736 L 46.993007 22.940560 L 47.832168 22.394045 L 48.671329 23.200714 L 49.510490 22.522811 L 50.349650 22.485596 L 51.188811 22.641619 L 52.027972 21.754580 L 52.867133 21.798084 L 53.706294 21.738331 L 54.545455 13.186974 L 55.384615 12.371044 L 56.223776 11.879565 L 57.062937 9.813709 L 57.902098 18.497852 L 58.741259 19.355888 L 59.580420 20.086380 L 60.419580 20.235763 L 61.258741 20.819493 L 62.097902 20.876626 L 62.937063 22.729327 L 63.776224 25.093076 L 64.615385 25.015152 L 65.454545 25.127320 L 66.293706 27.637482 L 67.132867 27.305170 L 67.972028 29.564612 L 68.811189 28.968303 L 69.650350 30.300696 L 70.489510 30.128774 L 71.328671 29.839967 L 72.167832 30.146945 L 73.006993 29.557624 L 73.846154 28.684038 L 74.685315 26.771409 L 75.524476 26.649456 L 76.363636 26.285695 L 77.202797 26.696280 L 78.041958 27.846094 L 78.881119 27.593453 L 79.720280 26.943505 L 80.559441 29.401252 L 81.398601 28.445025 L 82.237762 27.724316 L 83.076923 25.211184 L 83.916084 22.113099 L 84.755245 23.767496 L 85.594406 22.562123 L 86.433566 22.024693 L 87.272727 21.100264 L 88.111888 21.462627 L 88.951049 21.535484 L 89.790210 19.979453 L 90.629371 20.666266 L 91.468531 19.421931 L 92.307692 20.319977 L 93.146853 21.957601 L 93.986014 17.777493 L 94.825175 18.753812 L 95.664336 21.780613 L 96.503497 21.082618 L 97.342657 21.326697 L 98.181818 22.792400 L 99.020979 24.225081 L 99.860140 23.200015 L 100.699301 20.198199 L 101.538462 24.480867 L 102.377622 22.479831 L 103.216783 21.584755 L 104.055944 22.303891 L 104.895105 18.716073 L 105.734266 19.327234 L 106.573427 18.943730 L 107.412587 18.273165 L 108.251748 17.634923 L 109.090909 17.454790 L 109.930070 16.313013 L 110.769231 15.023251 L 111.608392 15.814021 L 112.447552 15.650311 L 113.286713 14.648308 L 114.125874 14.633632 L 114.965035 15.329356 L 115.804196 12.377858 L 116.643357 8.800000 L 117.482517 10.864808 L 118.321678 12.561311 L 119.160839 12.880170 L 120.000000 13.305082"></path>
      <path stroke="none" fill-opacity="0.6" fill="url(#color_grad)" d="M 0 40 L 0.000000 32.843005 L 0.839161 32.877425 L 1.678322 34.579694 L 2.517483 35.179498 L 3.356643 34.904319 L 4.195804 36.800000 L 5.034965 35.922396 L 5.874126 36.077719 L 6.713287 35.575407 L 7.552448 35.318748 L 8.391608 34.871472 L 9.230769 33.532964 L 10.069930 33.082018 L 10.909091 33.126921 L 11.748252 33.537856 L 12.587413 34.969663 L 13.426573 34.342079 L 14.265734 33.813210 L 15.104895 33.972377 L 15.944056 33.456787 L 16.783217 32.512440 L 17.622378 31.656850 L 18.461538 30.973007 L 19.300699 30.887221 L 20.139860 30.747098 L 20.979021 29.871066 L 21.818182 23.360231 L 22.657343 25.354452 L 23.496503 24.586221 L 24.335664 24.811257 L 25.174825 24.278544 L 26.013986 24.650692 L 26.853147 25.015676 L 27.692308 25.228481 L 28.531469 26.396990 L 29.370629 26.370608 L 30.209790 25.459807 L 31.048951 25.214853 L 31.888112 25.277402 L 32.727273 25.056909 L 33.566434 24.667639 L 34.405594 25.125748 L 35.244755 24.787146 L 36.083916 25.677330 L 36.923077 25.645531 L 37.762238 24.298637 L 38.601399 23.898534 L 39.440559 24.068534 L 40.279720 23.640302 L 41.118881 22.349317 L 41.958042 24.492747 L 42.797203 25.993743 L 43.636364 26.206199 L 44.475524 25.100763 L 45.314685 23.727836 L 46.153846 23.696736 L 46.993007 22.940560 L 47.832168 22.394045 L 48.671329 23.200714 L 49.510490 22.522811 L 50.349650 22.485596 L 51.188811 22.641619 L 52.027972 21.754580 L 52.867133 21.798084 L 53.706294 21.738331 L 54.545455 13.186974 L 55.384615 12.371044 L 56.223776 11.879565 L 57.062937 9.813709 L 57.902098 18.497852 L 58.741259 19.355888 L 59.580420 20.086380 L 60.419580 20.235763 L 61.258741 20.819493 L 62.097902 20.876626 L 62.937063 22.729327 L 63.776224 25.093076 L 64.615385 25.015152 L 65.454545 25.127320 L 66.293706 27.637482 L 67.132867 27.305170 L 67.972028 29.564612 L 68.811189 28.968303 L 69.650350 30.300696 L 70.489510 30.128774 L 71.328671 29.839967 L 72.167832 30.146945 L 73.006993 29.557624 L 73.846154 28.684038 L 74.685315 26.771409 L 75.524476 26.649456 L 76.363636 26.285695 L 77.202797 26.696280 L 78.041958 27.846094 L 78.881119 27.593453 L 79.720280 26.943505 L 80.559441 29.401252 L 81.398601 28.445025 L 82.237762 27.724316 L 83.076923 25.211184 L 83.916084 22.113099 L 84.755245 23.767496 L 85.594406 22.562123 L 86.433566 22.024693 L 87.272727 21.100264 L 88.111888 21.462627 L 88.951049 21.535484 L 89.790210 19.979453 L 90.629371 20.666266 L 91.468531 19.421931 L 92.307692 20.319977 L 93.146853 21.957601 L 93.986014 17.777493 L 94.825175 18.753812 L 95.664336 21.780613 L 96.503497 21.082618 L 97.342657 21.326697 L 98.181818 22.792400 L 99.020979 24.225081 L 99.860140 23.200015 L 100.699301 20.198199 L 101.538462 24.480867 L 102.377622 22.479831 L 103.216783 21.584755 L 104.055944 22.303891 L 104.895105 18.716073 L 105.734266 19.327234 L 106.573427 18.943730 L 107.412587 18.273165 L 108.251748 17.634923 L 109.090909 17.454790 L 109.930070 16.313013 L 110.769231 15.023251 L 111.608392 15.814021 L 112.447552 15.650311 L 113.286713 14.648308 L 114.125874 14.633632 L 114.965035 15.329356 L 115.804196 12.377858 L 116.643357 8.800000 L 117.482517 10.864808 L 118.321678 12.561311 L 119.160839 12.880170 L 120.000000 13.305082 L 120 40 Z"></path>
    </g>
  </svg>