<svg xmlns="http://www.w3.org/2000/svg" viewBox="0 0 120 40" width="120" height="40">
    <defs>
      <linearGradient id="color_grad" x1="0%" x2="0%" y1="0%" y2="100%">
        <stop offset="0%" style="stop-color:#888888;stop-opacity:0.4;"></stop>
        <stop offset="100%" style="stop-color:#888888;stop-opacity:0.0;"></stop>
      </linearGradient>
    </defs>
    <g>
      <path stroke="#888888" stroke-width="2" stroke-linecap="round" stroke-linejoin="round" fill="none" d="M 0.000000 15.629845 L 0.839161 16.401774 L 1.678322 17.992196 L 2.517483 18.536683 L 3.356643 18.289413 L 4.195804 20.055159 L 5.034965 19.234390 L 5.874126 19.383613 L 6.713287 18.919564 L 7.552448 18.668984 L 8.391608 18.252939 L 9.230769 17.005874 L 10.069930 16.586447 L 10.909091 16.627034 L 11.748252 17.057626 L 12.587413 18.404642 L 13.426573 18.041020 L 14.265734 17.537468 L 15.104895 17.691297 L 15.944056 17.212745 L 16.783217 16.333758 L 17.622378 15.521204 L 18.461538 14.891230 L 19.300699 14.802877 L 20.139860 15.645888 L 20.979021 14.820496 L 21.818182 8.800000 L 22.657343 10.639690 L 23.496503 9.930480 L 24.335664 10.219555 L 25.174825 18.865154 L 26.013986 14.171132 L 26.853147 14.501148 L 27.692308 17.071332 L 28.531469 18.107990 L 29.370629 20.694288 L 30.209790 19.883993 L 31.048951 19.683731 L 31.888112 19.731072 L 32.727273 19.536058 L 33.566434 19.199134 L 34.405594 25.263588 L 35.244755 19.297402 L 36.083916 20.082892 L 36.923077 20.497946 L 37.762238 18.947402 L 38.601399 18.523386 L 39.440559 18.686255 L 40.279720 18.317047 L 41.118881 17.193984 L 41.958042 19.315282 L 42.797203 22.408514 L 43.636364 23.137508 L 44.475524 32.676033 L 45.314685 21.019084 L 46.153846 20.021896 L 46.993007 22.998598 L 47.832168 22.540998 L 48.671329 23.220055 L 49.510490 22.653918 L 50.349650 17.307564 L 51.188811 22.763728 L 52.027972 18.791348 L 52.867133 23.383173 L 53.706294 23.341861 L 54.545455 23.238472 L 55.384615 22.592678 L 56.223776 22.211098 L 57.062937 20.569256 L 57.902098 20.639597 L 58.741259 21.344771 L 59.580420 21.976466 L 60.419580 22.120286 L 61.258741 23.918449 L 62.097902 23.950594 L 62.937063 25.510792 L 63.776224 27.463735 L 64.615385 27.389535 L 65.454545 27.490970 L 66.293706 34.690471 L 67.132867 34.418950 L 67.972028 36.216420 L 68.811189 35.737154 L 69.650350 36.800000 L 70.489510 36.656943 L 71.328671 36.433538 L 72.167832 36.670716 L 73.006993 36.206246 L 73.846154 35.512718 L 74.685315 33.998372 L 75.524476 33.910605 L 76.363636 33.621265 L 77.202797 33.944278 L 78.041958 34.854995 L 78.881119 34.646087 L 79.720280 34.137166 L 80.559441 31.490336 L 81.398601 30.701031 L 82.237762 31.480698 L 83.076923 29.491392 L 83.916084 26.972018 L 84.755245 28.313593 L 85.594406 27.334683 L 86.433566 26.906621 L 87.272727 26.157715 L 88.111888 26.446496 L 88.951049 26.504316 L 89.790210 28.623393 L 90.629371 29.171849 L 91.468531 28.176626 L 92.307692 28.894776 L 93.146853 30.189946 L 93.986014 26.873739 L 94.825175 27.644538 L 95.664336 30.040296 L 96.503497 29.491918 L 97.342657 29.692229 L 98.181818 30.846091 L 99.020979 31.983004 L 99.860140 20.563194 L 100.699301 15.852709 L 101.538462 19.563382 L 102.377622 17.834913 L 103.216783 17.049157 L 104.055944 17.667489 L 104.895105 14.552678 L 105.734266 15.091309 L 106.573427 14.753399 L 107.412587 14.181284 L 108.251748 13.615618 L 109.090909 13.472113 L 109.930070 20.203812 L 110.769231 19.137262 L 111.608392 19.781949 L 112.447552 19.657769 L 113.286713 18.821678 L 114.125874 18.812887 L 114.965035 24.939174 L 115.804196 22.604303 L 116.643357 12.573624 L 117.482517 14.296126 L 118.321678 15.702926 L 119.160839 17.371600 L 120.000000 17.722811"></path>
      <path stroke="none" fill-opacity="0.6" fill="url(#color_grad)" d="M 0 40 L 0.000000 15.629845 L 0.839161 16.401774 L 1.678322 17.992196 L 2.517483 18.536683 L 3.356643 18.289413 L 4.195804 20.055159 L 5.034965 19.234390 L 5.874126 19.383613 L 6.713287 18.919564 L 7.552448 18.668984 L 8.391608 18.252939 L 9.230769 17.005874 L 10.069930 16.586447 L 10.909091 16.627034 L 11.748252 17.057626 L 12.587413 18.404642 L 13.426573 18.041020 L 14.265734 17.537468 L 15.104895 17.691297 L 15.944056 17.212745 L 16.783217 16.333758 L 17.622378 15.521204 L 18.461538 14.891230 L 19.300699 14.802877 L 20.139860 15.645888 L 20.979021 14.820496 L 21.818182 8.800000 L 22.657343 10.639690 L 23.496503 9.930480 L 24.335664 10.219555 L 25.174825 18.865154 L 26.013986 14.171132 L 26.853147 14.501148 L 27.692308 17.071332 L 28.531469 18.107990 L 29.370629 20.694288 L 30.209790 19.883993 L 31.048951 19.683731 L 31.888112 19.731072 L 32.727273 19.536058 L 33.566434 19.199134 L 34.405594 25.263588 L 35.244755 19.297402 L 36.083916 20.082892 L 36.923077 20.497946 L 37.762238 18.947402 L 38.601399 18.523386 L 39.440559 18.686255 L 40.279720 18.317047 L 41.118881 17.193984 L 41.958042 19.315282 L 42.797203 22.408514 L 43.636364 23.137508 L 44.475524 32.676033 L 45.314685 21.019084 L 46.153846 20.021896 L 46.993007 22.998598 L 47.832168 22.540998 L 48.671329 23.220055 L 49.510490 22.653918 L 50.349650 17.307564 L 51.188811 22.763728 L 52.027972 18.791348 L 52.867133 23.383173 L 53.706294 23.341861 L 54.545455 23.238472 L 55.384615 22.592678 L 56.223776 22.211098 L 57.062937 20.569256 L 57.902098 20.639597 L 58.741259 21.344771 L 59.580420 21.976466 L 60.419580 22.120286 L 61.258741 23.918449 L 62.097902 23.950594 L 62.937063 25.510792 L 63.776224 27.463735 L 64.615385 27.389535 L 65.454545 27.490970 L 66.293706 34.690471 L 67.132867 34.418950 L 67.972028 36.216420 L 68.811189 35.737154 L 69.650350 36.800000 L 70.489510 36.656943 L 71.328671 36.433538 L 72.167832 36.670716 L 73.006993 36.206246 L 73.846154 35.512718 L 74.685315 33.998372 L 75.524476 33.910605 L 76.363636 33.621265 L 77.202797 33.944278 L 78.041958 34.854995 L 78.881119 34.646087 L 79.720280 34.137166 L 80.559441 31.490336 L 81.398601 30.701031 L 82.237762 31.480698 L 83.076923 29.491392 L 83.916084 26.972018 L 84.755245 28.313593 L 85.594406 27.334683 L 86.433566 26.906621 L 87.272727 26.157715 L 88.111888 26.446496 L 88.951049 26.504316 L 89.790210 28.623393 L 90.629371 29.171849 L 91.468531 28.176626 L 92.307692 28.894776 L 93.146853 30.189946 L 93.986014 26.873739 L 94.825175 27.644538 L 95.664336 30.040296 L 96.503497 29.491918 L 97.342657 29.692229 L 98.181818 30.846091 L 99.020979 31.983004 L 99.860140 20.563194 L 100.699301 15.852709 L 101.538462 19.563382 L 102.377622 17.834913 L 103.216783 17.049157 L 104.055944 17.667489 L 104.895105 14.552678 L 105.734266 15.091309 L 106.573427 14.753399 L 107.412587 14.181284 L 108.251748 13.615618 L 109.090909 13.472113 L 109.930070 20.203812 L 110.769231 19.137262 L 111.608392 19.781949 L 112.447552 19.657769 L 113.286713 18.821678 L 114.125874 18.812887 L 114.965035 24.939174 L 115.804196 22.604303 L 116.643357 12.573624 L 117.482517 14.296126 L 118.321678 15.702926 L 119.160839 17.371600 L 120.000000 17.722811 L 120 40 Z"></path>
    </g>
  </svg>