<svg xmlns="http://www.w3.org/2000/svg" viewBox="0 0 120 40" width="120" height="40">
    <defs>
      <linearGradient id="color_grad" x1="0%" x2="0%" y1="0%" y2="100%">
        <stop offset="0%" style="stop-color:#EA3943;stop-opacity:0.4;"></stop>
        <stop offset="100%" style="stop-color:#EA3943;stop-opacity:0.0;"></stop>
      </linearGradient>
    </defs>
    <g>
      <path stroke="#EA3943" stroke-width="2" stroke-linecap="round" stroke-linejoin="round" fill="none" d="M 0.000000 8.800000 L 0.839161 9.675000 L 1.678322 9.675000 L 2.517483 9.675000 L 3.356643 9.675000 L 4.195804 9.675000 L 5.034965 9.675000 L 5.874126 9.675000 L 6.713287 9.675000 L 7.552448 9.675000 L 8.391608 9.675000 L 9.230769 9.675000 L 10.069930 9.675000 L 10.909091 9.675000 L 11.748252 9.735345 L 12.587413 9.735345 L 13.426573 10.006897 L 14.265734 10.006897 L 15.104895 10.006897 L 15.944056 10.006897 L 16.783217 10.006897 L 17.622378 10.006897 L 18.461538 10.006897 L 19.300699 10.006897 L 20.139860 11.153448 L 20.979021 11.153448 L 21.818182 11.153448 L 22.657343 11.153448 L 23.496503 11.153448 L 24.335664 11.238480 L 25.174825 21.713793 L 26.013986 15.950862 L 26.853147 15.950862 L 27.692308 18.696552 L 28.531469 18.696552 L 29.370629 21.713793 L 30.209790 21.713793 L 31.048951 21.713793 L 31.888112 21.713793 L 32.727273 21.713793 L 33.566434 21.713793 L 34.405594 28.233566 L 35.244755 21.713793 L 36.083916 21.713793 L 36.923077 22.224403 L 37.762238 21.781312 L 38.601399 21.713793 L 39.440559 21.713793 L 40.279720 21.713793 L 41.118881 21.730673 L 41.958042 22.015517 L 42.797203 24.083277 L 43.636364 24.731034 L 44.475524 36.800000 L 45.314685 24.731034 L 46.153846 23.612334 L 46.993007 27.748276 L 47.832168 27.748276 L 48.671329 27.748276 L 49.510490 27.748276 L 50.349650 21.713793 L 51.188811 27.748276 L 52.027972 24.119146 L 52.867133 29.256897 L 53.706294 29.256897 L 54.545455 29.256897 L 55.384615 29.256897 L 56.223776 29.256897 L 57.062937 29.256897 L 57.902098 29.256897 L 58.741259 29.256897 L 59.580420 29.286436 L 60.419580 29.287069 L 61.258741 30.765517 L 62.097902 30.765517 L 62.937063 30.795690 L 63.776224 30.795690 L 64.615385 30.795690 L 65.454545 30.795690 L 66.293706 36.800000 L 67.132867 36.800000 L 67.972028 36.800000 L 68.811189 36.800000 L 69.650350 36.800000 L 70.489510 36.800000 L 71.328671 36.800000 L 72.167832 36.800000 L 73.006993 36.800000 L 73.846154 36.800000 L 74.685315 36.800000 L 75.524476 36.800000 L 76.363636 36.800000 L 77.202797 36.800000 L 78.041958 36.800000 L 78.881119 36.800000 L 79.720280 36.800000 L 80.559441 31.368966 L 81.398601 31.368966 L 82.237762 32.968103 L 83.076923 33.028448 L 83.916084 33.028448 L 84.755245 33.028448 L 85.594406 33.028448 L 86.433566 33.028448 L 87.272727 33.028448 L 88.111888 33.028448 L 88.951049 33.028448 L 89.790210 36.800000 L 90.629371 36.800000 L 91.468531 36.800000 L 92.307692 36.800000 L 93.146853 36.800000 L 93.986014 36.800000 L 94.825175 36.800000 L 95.664336 36.800000 L 96.503497 36.800000 L 97.342657 36.800000 L 98.181818 36.800000 L 99.020979 36.800000 L 99.860140 24.731034 L 100.699301 22.317241 L 101.538462 22.317241 L 102.377622 22.317241 L 103.216783 22.317241 L 104.055944 22.317241 L 104.895105 22.317241 L 105.734266 22.317241 L 106.573427 22.317241 L 107.412587 22.317241 L 108.251748 22.317241 L 109.090909 22.317241 L 109.930070 30.765517 L 110.769231 30.765517 L 111.608392 30.765517 L 112.447552 30.765517 L 113.286713 30.765517 L 114.125874 30.765517 L 114.965035 36.800000 L 115.804196 36.800000 L 116.643357 29.256897 L 117.482517 29.256897 L 118.321678 29.256897 L 119.160839 30.765517 L 120.000000 30.765517"></path>
      <path stroke="none" fill-opacity="0.6" fill="url(#color_grad)" d="M 0 40 L 0.000000 8.800000 L 0.839161 9.675000 L 1.678322 9.675000 L 2.517483 9.675000 L 3.356643 9.675000 L 4.195804 9.675000 L 5.034965 9.675000 L 5.874126 9.675000 L 6.713287 9.675000 L 7.552448 9.675000 L 8.391608 9.675000 L 9.230769 9.675000 L 10.069930 9.675000 L 10.909091 9.675000 L 11.748252 9.735345 L 12.587413 9.735345 L 13.426573 10.006897 L 14.265734 10.006897 L 15.104895 10.006897 L 15.944056 10.006897 L 16.783217 10.006897 L 17.622378 10.006897 L 18.461538 10.006897 L 19.300699 10.006897 L 20.139860 11.153448 L 20.979021 11.153448 L 21.818182 11.153448 L 22.657343 11.153448 L 23.496503 11.153448 L 24.335664 11.238480 L 25.174825 21.713793 L 26.013986 15.950862 L 26.853147 15.950862 L 27.692308 18.696552 L 28.531469 18.696552 L 29.370629 21.713793 L 30.209790 21.713793 L 31.048951 21.713793 L 31.888112 21.713793 L 32.727273 21.713793 L 33.566434 21.713793 L 34.405594 28.233566 L 35.244755 21.713793 L 36.083916 21.713793 L 36.923077 22.224403 L 37.762238 21.781312 L 38.601399 21.713793 L 39.440559 21.713793 L 40.279720 21.713793 L 41.118881 21.730673 L 41.958042 22.015517 L 42.797203 24.083277 L 43.636364 24.731034 L 44.475524 36.800000 L 45.314685 24.731034 L 46.153846 23.612334 L 46.993007 27.748276 L 47.832168 27.748276 L 48.671329 27.748276 L 49.510490 27.748276 L 50.349650 21.713793 L 51.188811 27.748276 L 52.027972 24.119146 L 52.867133 29.256897 L 53.706294 29.256897 L 54.545455 29.256897 L 55.384615 29.256897 L 56.223776 29.256897 L 57.062937 29.256897 L 57.902098 29.256897 L 58.741259 29.256897 L 59.580420 29.286436 L 60.419580 29.287069 L 61.258741 30.765517 L 62.097902 30.765517 L 62.937063 30.795690 L 63.776224 30.795690 L 64.615385 30.795690 L 65.454545 30.795690 L 66.293706 36.800000 L 67.132867 36.800000 L 67.972028 36.800000 L 68.811189 36.800000 L 69.650350 36.800000 L 70.489510 36.800000 L 71.328671 36.800000 L 72.167832 36.800000 L 73.006993 36.800000 L 73.846154 36.800000 L 74.685315 36.800000 L 75.524476 36.800000 L 76.363636 36.800000 L 77.202797 36.800000 L 78.041958 36.800000 L 78.881119 36.800000 L 79.720280 36.800000 L 80.559441 31.368966 L 81.398601 31.368966 L 82.237762 32.968103 L 83.076923 33.028448 L 83.916084 33.028448 L 84.755245 33.028448 L 85.594406 33.028448 L 86.433566 33.028448 L 87.272727 33.028448 L 88.111888 33.028448 L 88.951049 33.028448 L 89.790210 36.800000 L 90.629371 36.800000 L 91.468531 36.800000 L 92.307692 36.800000 L 93.146853 36.800000 L 93.986014 36.800000 L 94.825175 36.800000 L 95.664336 36.800000 L 96.503497 36.800000 L 97.342657 36.800000 L 98.181818 36.800000 L 99.020979 36.800000 L 99.860140 24.731034 L 100.699301 22.317241 L 101.538462 22.317241 L 102.377622 22.317241 L 103.216783 22.317241 L 104.055944 22.317241 L 104.895105 22.317241 L 105.734266 22.317241 L 106.573427 22.317241 L 107.412587 22.317241 L 108.251748 22.317241 L 109.090909 22.317241 L 109.930070 30.765517 L 110.769231 30.765517 L 111.608392 30.765517 L 112.447552 30.765517 L 113.286713 30.765517 L 114.125874 30.765517 L 114.965035 36.800000 L 115.804196 36.800000 L 116.643357 29.256897 L 117.482517 29.256897 L 118.321678 29.256897 L 119.160839 30.765517 L 120.000000 30.765517 L 120 40 Z"></path>
    </g>
  </svg>