<svg xmlns="http://www.w3.org/2000/svg" viewBox="0 0 120 40" width="120" height="40">
    <defs>
      <linearGradient id="color_grad" x1="0%" x2="0%" y1="0%" y2="100%">
        <stop offset="0%" style="stop-color:#EA3943;stop-opacity:0.4;"></stop>
        <stop offset="100%" style="stop-color:#EA3943;stop-opacity:0.0;"></stop>
      </linearGradient>
    </defs>
    <g>
      <path stroke="#EA3943" stroke-width="2" stroke-linecap="round" stroke-linejoin="round" fill="none" d="M 0.000000 15.152941 L 0.839161 15.370136 L 1.678322 20.329412 L 2.517483 20.329412 L 3.356643 20.329412 L 4.195804 20.329412 L 5.034965 17.976471 L 5.874126 15.152941 L 6.713287 14.838667 L 7.552448 14.682353 L 8.391608 16.117153 L 9.230769 14.682353 L 10.069930 14.917647 L 10.909091 14.917647 L 11.748252 15.470506 L 12.587413 14.682353 L 13.426573 14.211765 L 14.265734 16.298149 L 15.104895 10.917647 L 15.944056 11.152941 L 16.783217 12.250432 L 17.622378 11.152941 L 18.461538 11.388235 L 19.300699 11.152941 L 20.139860 9.741176 L 20.979021 9.741176 L 21.818182 9.741176 L 22.657343 9.741176 L 23.496503 10.917647 L 24.335664 10.917647 L 25.174825 9.741176 L 26.013986 10.094940 L 26.853147 17.976471 L 27.692308 10.917647 L 28.531469 11.623529 L 29.370629 13.724722 L 30.209790 13.270588 L 31.048951 11.623529 L 31.888112 10.917647 L 32.727273 8.800000 L 33.566434 13.270588 L 34.405594 10.917647 L 35.244755 10.917647 L 36.083916 10.917647 L 36.923077 9.505882 L 37.762238 9.505882 L 38.601399 10.917647 L 39.440559 10.917647 L 40.279720 10.917647 L 41.118881 11.180913 L 41.958042 17.976471 L 42.797203 15.623529 L 43.636364 22.682353 L 44.475524 20.329412 L 45.314685 20.329412 L 46.153846 20.329412 L 46.993007 21.152118 L 47.832168 22.682353 L 48.671329 20.329412 L 49.510490 20.329412 L 50.349650 22.682353 L 51.188811 20.329412 L 52.027972 17.976471 L 52.867133 17.976471 L 53.706294 17.976471 L 54.545455 17.976471 L 55.384615 17.976471 L 56.223776 17.976471 L 57.062937 17.976471 L 57.902098 17.976471 L 58.741259 17.976471 L 59.580420 20.280049 L 60.419580 20.329412 L 61.258741 20.564706 L 62.097902 22.682353 L 62.937063 22.682353 L 63.776224 20.329412 L 64.615385 20.872398 L 65.454545 22.682353 L 66.293706 20.329412 L 67.132867 20.329412 L 67.972028 20.329412 L 68.811189 22.682353 L 69.650350 22.682353 L 70.489510 20.564706 L 71.328671 20.564706 L 72.167832 21.853065 L 73.006993 22.682353 L 73.846154 20.564706 L 74.685315 20.564706 L 75.524476 22.391115 L 76.363636 24.607487 L 77.202797 20.329412 L 78.041958 22.682353 L 78.881119 22.682353 L 79.720280 22.682353 L 80.559441 22.682353 L 81.398601 22.682353 L 82.237762 22.945619 L 83.076923 25.668778 L 83.916084 22.682353 L 84.755245 22.738297 L 85.594406 22.917647 L 86.433566 22.917647 L 87.272727 22.917647 L 88.111888 22.917647 L 88.951049 22.917647 L 89.790210 22.917647 L 90.629371 22.792596 L 91.468531 22.682353 L 92.307692 22.682353 L 93.146853 23.085479 L 93.986014 27.388235 L 94.825175 22.682353 L 95.664336 22.682353 L 96.503497 22.682353 L 97.342657 22.682353 L 98.181818 22.682353 L 99.020979 22.682353 L 99.860140 25.035294 L 100.699301 25.035294 L 101.538462 26.211765 L 102.377622 25.035294 L 103.216783 22.917647 L 104.055944 25.035294 L 104.895105 28.329412 L 105.734266 28.329412 L 106.573427 28.329412 L 107.412587 28.329412 L 108.251748 28.329412 L 109.090909 28.329412 L 109.930070 28.329412 L 110.769231 28.329412 L 111.608392 28.329412 L 112.447552 28.329412 L 113.286713 28.803291 L 114.125874 30.572110 L 114.965035 29.800411 L 115.804196 29.741176 L 116.643357 32.094118 L 117.482517 32.094118 L 118.321678 34.447059 L 119.160839 36.800000 L 120.000000 33.270588"></path>
      <path stroke="none" fill-opacity="0.6" fill="url(#color_grad)" d="M 0 40 L 0.000000 15.152941 L 0.839161 15.370136 L 1.678322 20.329412 L 2.517483 20.329412 L 3.356643 20.329412 L 4.195804 20.329412 L 5.034965 17.976471 L 5.874126 15.152941 L 6.713287 14.838667 L 7.552448 14.682353 L 8.391608 16.117153 L 9.230769 14.682353 L 10.069930 14.917647 L 10.909091 14.917647 L 11.748252 15.470506 L 12.587413 14.682353 L 13.426573 14.211765 L 14.265734 16.298149 L 15.104895 10.917647 L 15.944056 11.152941 L 16.783217 12.250432 L 17.622378 11.152941 L 18.461538 11.388235 L 19.300699 11.152941 L 20.139860 9.741176 L 20.979021 9.741176 L 21.818182 9.741176 L 22.657343 9.741176 L 23.496503 10.917647 L 24.335664 10.917647 L 25.174825 9.741176 L 26.013986 10.094940 L 26.853147 17.976471 L 27.692308 10.917647 L 28.531469 11.623529 L 29.370629 13.724722 L 30.209790 13.270588 L 31.048951 11.623529 L 31.888112 10.917647 L 32.727273 8.800000 L 33.566434 13.270588 L 34.405594 10.917647 L 35.244755 10.917647 L 36.083916 10.917647 L 36.923077 9.505882 L 37.762238 9.505882 L 38.601399 10.917647 L 39.440559 10.917647 L 40.279720 10.917647 L 41.118881 11.180913 L 41.958042 17.976471 L 42.797203 15.623529 L 43.636364 22.682353 L 44.475524 20.329412 L 45.314685 20.329412 L 46.153846 20.329412 L 46.993007 21.152118 L 47.832168 22.682353 L 48.671329 20.329412 L 49.510490 20.329412 L 50.349650 22.682353 L 51.188811 20.329412 L 52.027972 17.976471 L 52.867133 17.976471 L 53.706294 17.976471 L 54.545455 17.976471 L 55.384615 17.976471 L 56.223776 17.976471 L 57.062937 17.976471 L 57.902098 17.976471 L 58.741259 17.976471 L 59.580420 20.280049 L 60.419580 20.329412 L 61.258741 20.564706 L 62.097902 22.682353 L 62.937063 22.682353 L 63.776224 20.329412 L 64.615385 20.872398 L 65.454545 22.682353 L 66.293706 20.329412 L 67.132867 20.329412 L 67.972028 20.329412 L 68.811189 22.682353 L 69.650350 22.682353 L 70.489510 20.564706 L 71.328671 20.564706 L 72.167832 21.853065 L 73.006993 22.682353 L 73.846154 20.564706 L 74.685315 20.564706 L 75.524476 22.391115 L 76.363636 24.607487 L 77.202797 20.329412 L 78.041958 22.682353 L 78.881119 22.682353 L 79.720280 22.682353 L 80.559441 22.682353 L 81.398601 22.682353 L 82.237762 22.945619 L 83.076923 25.668778 L 83.916084 22.682353 L 84.755245 22.738297 L 85.594406 22.917647 L 86.433566 22.917647 L 87.272727 22.917647 L 88.111888 22.917647 L 88.951049 22.917647 L 89.790210 22.917647 L 90.629371 22.792596 L 91.468531 22.682353 L 92.307692 22.682353 L 93.146853 23.085479 L 93.986014 27.388235 L 94.825175 22.682353 L 95.664336 22.682353 L 96.503497 22.682353 L 97.342657 22.682353 L 98.181818 22.682353 L 99.020979 22.682353 L 99.860140 25.035294 L 100.699301 25.035294 L 101.538462 26.211765 L 102.377622 25.035294 L 103.216783 22.917647 L 104.055944 25.035294 L 104.895105 28.329412 L 105.734266 28.329412 L 106.573427 28.329412 L 107.412587 28.329412 L 108.251748 28.329412 L 109.090909 28.329412 L 109.930070 28.329412 L 110.769231 28.329412 L 111.608392 28.329412 L 112.447552 28.329412 L 113.286713 28.803291 L 114.125874 30.572110 L 114.965035 29.800411 L 115.804196 29.741176 L 116.643357 32.094118 L 117.482517 32.094118 L 118.321678 34.447059 L 119.160839 36.800000 L 120.000000 33.270588 L 120 40 Z"></path>
    </g>
  </svg>