<svg xmlns="http://www.w3.org/2000/svg" viewBox="0 0 120 40" width="120" height="40">
    <defs>
      <linearGradient id="color_grad" x1="0%" x2="0%" y1="0%" y2="100%">
        <stop offset="0%" style="stop-color:#EA3943;stop-opacity:0.4;"></stop>
        <stop offset="100%" style="stop-color:#EA3943;stop-opacity:0.0;"></stop>
      </linearGradient>
    </defs>
    <g>
      <path stroke="#EA3943" stroke-width="2" stroke-linecap="round" stroke-linejoin="round" fill="none" d="M 0.000000 20.572669 L 0.839161 20.845571 L 1.678322 27.275843 L 2.517483 27.573544 L 3.356643 27.438464 L 4.195804 28.416816 L 5.034965 25.383032 L 5.874126 22.372004 L 6.713287 21.751745 L 7.552448 21.432688 L 8.391608 22.768724 L 9.230769 20.439164 L 10.069930 20.452585 L 10.909091 20.476333 L 11.748252 21.321123 L 12.587413 21.244626 L 13.426573 20.372412 L 14.265734 22.390384 L 15.104895 16.506383 L 15.944056 16.466939 L 16.783217 17.146482 L 17.622378 15.410106 L 18.461538 15.285121 L 19.300699 14.961687 L 20.139860 13.289964 L 20.979021 12.755129 L 21.818182 8.911507 L 22.657343 10.083755 L 23.496503 11.016245 L 24.335664 11.149866 L 25.174825 9.451126 L 26.013986 10.088598 L 26.853147 19.555397 L 27.692308 11.391668 L 28.531469 12.896161 L 29.370629 15.344754 L 30.209790 14.281095 L 31.048951 12.215918 L 31.888112 11.420843 L 32.727273 8.800000 L 33.566434 13.829467 L 34.405594 11.335477 L 35.244755 11.128743 L 36.083916 11.656168 L 36.923077 9.984094 L 37.762238 9.186976 L 38.601399 10.609896 L 39.440559 10.723445 L 40.279720 10.471490 L 41.118881 10.026047 L 41.958042 19.281620 L 42.797203 17.332851 L 43.636364 25.675423 L 44.475524 22.364885 L 45.314685 21.650041 L 46.153846 21.635570 L 46.993007 22.218894 L 47.832168 23.764815 L 48.671329 21.378189 L 49.510490 21.028615 L 50.349650 23.821940 L 51.188811 21.098168 L 52.027972 17.812312 L 52.867133 17.837636 L 53.706294 17.813596 L 54.545455 17.742525 L 55.384615 17.332618 L 56.223776 17.087548 L 57.062937 16.029023 L 57.902098 16.077395 L 58.741259 16.531999 L 59.580420 19.701039 L 60.419580 19.851815 L 61.258741 20.436714 L 62.097902 23.005567 L 62.937063 23.937239 L 63.776224 22.361909 L 64.615385 22.953927 L 65.454545 25.144439 L 66.293706 23.680850 L 67.132867 23.503116 L 67.972028 24.679391 L 68.811189 27.060941 L 69.650350 27.735057 L 70.489510 25.232781 L 71.328671 25.084339 L 72.167832 26.711016 L 73.006993 27.357241 L 73.846154 24.487303 L 74.685315 23.502357 L 75.524476 25.562691 L 76.363636 27.964722 L 77.202797 23.194854 L 78.041958 26.504458 L 78.881119 26.370837 L 79.720280 26.044836 L 80.559441 27.280044 L 81.398601 26.797258 L 82.237762 26.743051 L 83.076923 28.684351 L 83.916084 23.621624 L 84.755245 24.521204 L 85.594406 24.129443 L 86.433566 23.868561 L 87.272727 23.404330 L 88.111888 23.584514 L 88.951049 23.618882 L 89.790210 22.846038 L 90.629371 23.041452 L 91.468531 22.281620 L 92.307692 22.735057 L 93.146853 24.031591 L 93.986014 27.224612 L 94.825175 21.939048 L 95.664336 23.458420 L 96.503497 23.114389 L 97.342657 23.238266 L 98.181818 23.969448 L 99.020979 24.683184 L 99.860140 26.964722 L 100.699301 25.518929 L 101.538462 28.968689 L 102.377622 26.617948 L 103.216783 23.642514 L 104.055944 26.524997 L 104.895105 28.802801 L 105.734266 29.092333 L 106.573427 28.911332 L 107.412587 28.612230 L 108.251748 28.308636 L 109.090909 28.234765 L 109.930070 27.705590 L 110.769231 27.111822 L 111.608392 27.471840 L 112.447552 27.399020 L 113.286713 27.520096 L 114.125874 29.726654 L 114.965035 29.075995 L 115.804196 27.676007 L 116.643357 29.094900 L 117.482517 29.994655 L 118.321678 33.701797 L 119.160839 36.800000 L 120.000000 32.529665"></path>
      <path stroke="none" fill-opacity="0.6" fill="url(#color_grad)" d="M 0 40 L 0.000000 20.572669 L 0.839161 20.845571 L 1.678322 27.275843 L 2.517483 27.573544 L 3.356643 27.438464 L 4.195804 28.416816 L 5.034965 25.383032 L 5.874126 22.372004 L 6.713287 21.751745 L 7.552448 21.432688 L 8.391608 22.768724 L 9.230769 20.439164 L 10.069930 20.452585 L 10.909091 20.476333 L 11.748252 21.321123 L 12.587413 21.244626 L 13.426573 20.372412 L 14.265734 22.390384 L 15.104895 16.506383 L 15.944056 16.466939 L 16.783217 17.146482 L 17.622378 15.410106 L 18.461538 15.285121 L 19.300699 14.961687 L 20.139860 13.289964 L 20.979021 12.755129 L 21.818182 8.911507 L 22.657343 10.083755 L 23.496503 11.016245 L 24.335664 11.149866 L 25.174825 9.451126 L 26.013986 10.088598 L 26.853147 19.555397 L 27.692308 11.391668 L 28.531469 12.896161 L 29.370629 15.344754 L 30.209790 14.281095 L 31.048951 12.215918 L 31.888112 11.420843 L 32.727273 8.800000 L 33.566434 13.829467 L 34.405594 11.335477 L 35.244755 11.128743 L 36.083916 11.656168 L 36.923077 9.984094 L 37.762238 9.186976 L 38.601399 10.609896 L 39.440559 10.723445 L 40.279720 10.471490 L 41.118881 10.026047 L 41.958042 19.281620 L 42.797203 17.332851 L 43.636364 25.675423 L 44.475524 22.364885 L 45.314685 21.650041 L 46.153846 21.635570 L 46.993007 22.218894 L 47.832168 23.764815 L 48.671329 21.378189 L 49.510490 21.028615 L 50.349650 23.821940 L 51.188811 21.098168 L 52.027972 17.812312 L 52.867133 17.837636 L 53.706294 17.813596 L 54.545455 17.742525 L 55.384615 17.332618 L 56.223776 17.087548 L 57.062937 16.029023 L 57.902098 16.077395 L 58.741259 16.531999 L 59.580420 19.701039 L 60.419580 19.851815 L 61.258741 20.436714 L 62.097902 23.005567 L 62.937063 23.937239 L 63.776224 22.361909 L 64.615385 22.953927 L 65.454545 25.144439 L 66.293706 23.680850 L 67.132867 23.503116 L 67.972028 24.679391 L 68.811189 27.060941 L 69.650350 27.735057 L 70.489510 25.232781 L 71.328671 25.084339 L 72.167832 26.711016 L 73.006993 27.357241 L 73.846154 24.487303 L 74.685315 23.502357 L 75.524476 25.562691 L 76.363636 27.964722 L 77.202797 23.194854 L 78.041958 26.504458 L 78.881119 26.370837 L 79.720280 26.044836 L 80.559441 27.280044 L 81.398601 26.797258 L 82.237762 26.743051 L 83.076923 28.684351 L 83.916084 23.621624 L 84.755245 24.521204 L 85.594406 24.129443 L 86.433566 23.868561 L 87.272727 23.404330 L 88.111888 23.584514 L 88.951049 23.618882 L 89.790210 22.846038 L 90.629371 23.041452 L 91.468531 22.281620 L 92.307692 22.735057 L 93.146853 24.031591 L 93.986014 27.224612 L 94.825175 21.939048 L 95.664336 23.458420 L 96.503497 23.114389 L 97.342657 23.238266 L 98.181818 23.969448 L 99.020979 24.683184 L 99.860140 26.964722 L 100.699301 25.518929 L 101.538462 28.968689 L 102.377622 26.617948 L 103.216783 23.642514 L 104.055944 26.524997 L 104.895105 28.802801 L 105.734266 29.092333 L 106.573427 28.911332 L 107.412587 28.612230 L 108.251748 28.308636 L 109.090909 28.234765 L 109.930070 27.705590 L 110.769231 27.111822 L 111.608392 27.471840 L 112.447552 27.399020 L 113.286713 27.520096 L 114.125874 29.726654 L 114.965035 29.075995 L 115.804196 27.676007 L 116.643357 29.094900 L 117.482517 29.994655 L 118.321678 33.701797 L 119.160839 36.800000 L 120.000000 32.529665 L 120 40 Z"></path>
    </g>
  </svg>