<svg xmlns="http://www.w3.org/2000/svg" viewBox="0 0 120 40" width="120" height="40">
    <defs>
      <linearGradient id="color_grad" x1="0%" x2="0%" y1="0%" y2="100%">
        <stop offset="0%" style="stop-color:#EA3943;stop-opacity:0.4;"></stop>
        <stop offset="100%" style="stop-color:#EA3943;stop-opacity:0.0;"></stop>
      </linearGradient>
    </defs>
    <g>
      <path stroke="#EA3943" stroke-width="2" stroke-linecap="round" stroke-linejoin="round" fill="none" d="M 0.000000 22.066596 L 0.839161 22.133222 L 1.678322 24.730461 L 2.517483 21.958021 L 3.356643 21.636450 L 4.195804 23.926405 L 5.034965 22.855976 L 5.874126 23.057412 L 6.713287 24.178493 L 7.552448 24.574481 L 8.391608 22.173094 L 9.230769 22.902341 L 10.069930 22.365698 L 10.909091 22.417778 L 11.748252 21.150718 L 12.587413 24.613963 L 13.426573 23.868092 L 14.265734 21.487484 L 15.104895 21.679958 L 15.944056 21.066429 L 16.783217 19.928855 L 17.622378 18.879725 L 18.461538 18.077877 L 19.300699 17.954366 L 20.139860 19.581309 L 20.979021 18.521140 L 21.818182 10.798386 L 22.657343 11.317236 L 23.496503 10.397722 L 24.335664 10.684615 L 25.174825 10.038358 L 26.013986 11.782059 L 26.853147 10.504868 L 27.692308 19.160774 L 28.531469 14.406961 L 29.370629 20.496278 L 30.209790 11.442955 L 31.048951 19.151293 L 31.888112 11.235025 L 32.727273 10.962158 L 33.566434 11.759201 L 34.405594 12.904568 L 35.244755 13.722261 L 36.083916 14.775027 L 36.923077 16.449245 L 37.762238 18.782448 L 38.601399 17.627860 L 39.440559 17.826439 L 40.279720 17.339668 L 41.118881 15.835456 L 41.958042 18.318275 L 42.797203 20.053015 L 43.636364 20.278608 L 44.475524 25.164244 L 45.314685 23.620160 L 46.153846 23.596653 L 46.993007 24.049917 L 47.832168 25.884400 L 48.671329 26.767290 L 49.510490 22.292579 L 50.349650 23.504312 L 51.188811 23.684189 L 52.027972 22.686619 L 52.867133 24.615002 L 53.706294 22.678827 L 54.545455 22.546094 L 55.384615 21.675153 L 56.223776 21.177602 L 57.062937 18.984014 L 57.902098 19.081291 L 58.741259 20.021196 L 59.580420 8.800000 L 60.419580 9.228328 L 61.258741 26.701833 L 62.097902 20.442900 L 62.937063 22.516613 L 63.776224 13.444978 L 64.615385 16.537820 L 65.454545 19.056225 L 66.293706 27.993569 L 67.132867 27.604854 L 67.972028 30.148714 L 68.811189 29.469338 L 69.650350 30.969784 L 70.489510 30.768477 L 71.328671 30.447686 L 72.167832 30.785101 L 73.006993 30.128843 L 73.846154 29.145430 L 74.685315 27.027430 L 75.524476 26.899243 L 76.363636 26.496890 L 77.202797 29.985721 L 78.041958 31.852284 L 78.881119 31.572403 L 79.720280 30.866403 L 80.559441 35.938280 L 81.398601 36.109585 L 82.237762 35.346050 L 83.076923 31.432658 L 83.916084 25.569324 L 84.755245 27.380689 L 85.594406 26.059342 L 86.433566 34.249905 L 87.272727 28.262930 L 88.111888 28.644373 L 88.951049 28.716843 L 89.790210 27.061067 L 90.629371 27.794471 L 91.468531 26.456759 L 92.307692 27.425366 L 93.146853 30.412231 L 93.986014 29.833638 L 94.825175 30.837701 L 95.664336 33.995091 L 96.503497 33.267272 L 97.342657 33.531697 L 98.181818 35.055260 L 99.020979 36.546874 L 99.860140 35.458262 L 100.699301 32.352302 L 101.538462 36.800000 L 102.377622 35.355011 L 103.216783 27.522123 L 104.055944 28.276437 L 104.895105 24.408631 L 105.734266 25.086838 L 106.573427 24.667212 L 107.412587 23.956666 L 108.251748 23.246640 L 109.090909 23.072867 L 109.930070 21.840874 L 110.769231 20.445107 L 111.608392 21.933604 L 112.447552 28.921786 L 113.286713 27.869799 L 114.125874 29.252577 L 114.965035 29.899744 L 115.804196 30.838350 L 116.643357 33.996519 L 117.482517 35.152926 L 118.321678 34.050937 L 119.160839 34.634335 L 120.000000 35.048506"></path>
      <path stroke="none" fill-opacity="0.6" fill="url(#color_grad)" d="M 0 40 L 0.000000 22.066596 L 0.839161 22.133222 L 1.678322 24.730461 L 2.517483 21.958021 L 3.356643 21.636450 L 4.195804 23.926405 L 5.034965 22.855976 L 5.874126 23.057412 L 6.713287 24.178493 L 7.552448 24.574481 L 8.391608 22.173094 L 9.230769 22.902341 L 10.069930 22.365698 L 10.909091 22.417778 L 11.748252 21.150718 L 12.587413 24.613963 L 13.426573 23.868092 L 14.265734 21.487484 L 15.104895 21.679958 L 15.944056 21.066429 L 16.783217 19.928855 L 17.622378 18.879725 L 18.461538 18.077877 L 19.300699 17.954366 L 20.139860 19.581309 L 20.979021 18.521140 L 21.818182 10.798386 L 22.657343 11.317236 L 23.496503 10.397722 L 24.335664 10.684615 L 25.174825 10.038358 L 26.013986 11.782059 L 26.853147 10.504868 L 27.692308 19.160774 L 28.531469 14.406961 L 29.370629 20.496278 L 30.209790 11.442955 L 31.048951 19.151293 L 31.888112 11.235025 L 32.727273 10.962158 L 33.566434 11.759201 L 34.405594 12.904568 L 35.244755 13.722261 L 36.083916 14.775027 L 36.923077 16.449245 L 37.762238 18.782448 L 38.601399 17.627860 L 39.440559 17.826439 L 40.279720 17.339668 L 41.118881 15.835456 L 41.958042 18.318275 L 42.797203 20.053015 L 43.636364 20.278608 L 44.475524 25.164244 L 45.314685 23.620160 L 46.153846 23.596653 L 46.993007 24.049917 L 47.832168 25.884400 L 48.671329 26.767290 L 49.510490 22.292579 L 50.349650 23.504312 L 51.188811 23.684189 L 52.027972 22.686619 L 52.867133 24.615002 L 53.706294 22.678827 L 54.545455 22.546094 L 55.384615 21.675153 L 56.223776 21.177602 L 57.062937 18.984014 L 57.902098 19.081291 L 58.741259 20.021196 L 59.580420 8.800000 L 60.419580 9.228328 L 61.258741 26.701833 L 62.097902 20.442900 L 62.937063 22.516613 L 63.776224 13.444978 L 64.615385 16.537820 L 65.454545 19.056225 L 66.293706 27.993569 L 67.132867 27.604854 L 67.972028 30.148714 L 68.811189 29.469338 L 69.650350 30.969784 L 70.489510 30.768477 L 71.328671 30.447686 L 72.167832 30.785101 L 73.006993 30.128843 L 73.846154 29.145430 L 74.685315 27.027430 L 75.524476 26.899243 L 76.363636 26.496890 L 77.202797 29.985721 L 78.041958 31.852284 L 78.881119 31.572403 L 79.720280 30.866403 L 80.559441 35.938280 L 81.398601 36.109585 L 82.237762 35.346050 L 83.076923 31.432658 L 83.916084 25.569324 L 84.755245 27.380689 L 85.594406 26.059342 L 86.433566 34.249905 L 87.272727 28.262930 L 88.111888 28.644373 L 88.951049 28.716843 L 89.790210 27.061067 L 90.629371 27.794471 L 91.468531 26.456759 L 92.307692 27.425366 L 93.146853 30.412231 L 93.986014 29.833638 L 94.825175 30.837701 L 95.664336 33.995091 L 96.503497 33.267272 L 97.342657 33.531697 L 98.181818 35.055260 L 99.020979 36.546874 L 99.860140 35.458262 L 100.699301 32.352302 L 101.538462 36.800000 L 102.377622 35.355011 L 103.216783 27.522123 L 104.055944 28.276437 L 104.895105 24.408631 L 105.734266 25.086838 L 106.573427 24.667212 L 107.412587 23.956666 L 108.251748 23.246640 L 109.090909 23.072867 L 109.930070 21.840874 L 110.769231 20.445107 L 111.608392 21.933604 L 112.447552 28.921786 L 113.286713 27.869799 L 114.125874 29.252577 L 114.965035 29.899744 L 115.804196 30.838350 L 116.643357 33.996519 L 117.482517 35.152926 L 118.321678 34.050937 L 119.160839 34.634335 L 120.000000 35.048506 L 120 40 Z"></path>
    </g>
  </svg>