<svg xmlns="http://www.w3.org/2000/svg" viewBox="0 0 120 40" width="120" height="40">
    <defs>
      <linearGradient id="color_grad" x1="0%" x2="0%" y1="0%" y2="100%">
        <stop offset="0%" style="stop-color:#EA3943;stop-opacity:0.4;"></stop>
        <stop offset="100%" style="stop-color:#EA3943;stop-opacity:0.0;"></stop>
      </linearGradient>
    </defs>
    <g>
      <path stroke="#EA3943" stroke-width="2" stroke-linecap="round" stroke-linejoin="round" fill="none" d="M 0.000000 10.953846 L 0.839161 10.953846 L 1.678322 11.384615 L 2.517483 8.800000 L 3.356643 8.800000 L 4.195804 8.800000 L 5.034965 8.800000 L 5.874126 8.800000 L 6.713287 10.092308 L 7.552448 10.628510 L 8.391608 9.230769 L 9.230769 10.953846 L 10.069930 10.953846 L 10.909091 10.953846 L 11.748252 9.661538 L 12.587413 10.953846 L 13.426573 10.953846 L 14.265734 9.661538 L 15.104895 9.661538 L 15.944056 9.661538 L 16.783217 9.661538 L 17.622378 9.661538 L 18.461538 9.661538 L 19.300699 9.661538 L 20.139860 10.953846 L 20.979021 10.953846 L 21.818182 10.953846 L 22.657343 9.661538 L 23.496503 9.661538 L 24.335664 9.661538 L 25.174825 9.661538 L 26.013986 10.565250 L 26.853147 9.366326 L 27.692308 15.261538 L 28.531469 10.953846 L 29.370629 15.261538 L 30.209790 9.661538 L 31.048951 15.261538 L 31.888112 9.661538 L 32.727273 9.661538 L 33.566434 10.538139 L 34.405594 10.953846 L 35.244755 11.815385 L 36.083916 11.815385 L 36.923077 13.008284 L 37.762238 15.743518 L 38.601399 15.261538 L 39.440559 15.261538 L 40.279720 15.261538 L 41.118881 15.261538 L 41.958042 15.261538 L 42.797203 15.261538 L 43.636364 15.261538 L 44.475524 19.569231 L 45.314685 19.569231 L 46.153846 19.569231 L 46.993007 20.472942 L 47.832168 22.153846 L 48.671329 22.153846 L 49.510490 19.569231 L 50.349650 20.430769 L 51.188811 20.430769 L 52.027972 20.430769 L 52.867133 21.723077 L 53.706294 20.430769 L 54.545455 20.430769 L 55.384615 20.430769 L 56.223776 20.430769 L 57.062937 20.430769 L 57.902098 20.430769 L 58.741259 20.430769 L 59.580420 12.246154 L 60.419580 12.399785 L 61.258741 23.876923 L 62.097902 19.569231 L 62.937063 19.569231 L 63.776224 11.360516 L 64.615385 13.604734 L 65.454545 15.261538 L 66.293706 19.569231 L 67.132867 19.569231 L 67.972028 19.569231 L 68.811189 19.569231 L 69.650350 19.569231 L 70.489510 19.569231 L 71.328671 19.569231 L 72.167832 19.569231 L 73.006993 19.569231 L 73.846154 19.569231 L 74.685315 19.569231 L 75.524476 19.569231 L 76.363636 19.569231 L 77.202797 21.723077 L 78.041958 22.153846 L 78.881119 22.153846 L 79.720280 22.153846 L 80.559441 23.876923 L 81.398601 24.738462 L 82.237762 24.738462 L 83.076923 23.876923 L 83.916084 22.153846 L 84.755245 22.153846 L 85.594406 22.153846 L 86.433566 28.184615 L 87.272727 24.738462 L 88.111888 24.738462 L 88.951049 24.738462 L 89.790210 24.738462 L 90.629371 24.738462 L 91.468531 24.738462 L 92.307692 24.738462 L 93.146853 25.587951 L 93.986014 28.184615 L 94.825175 28.184615 L 95.664336 28.184615 L 96.503497 28.184615 L 97.342657 28.184615 L 98.181818 28.184615 L 99.020979 28.184615 L 99.860140 28.184615 L 100.699301 28.184615 L 101.538462 28.184615 L 102.377622 28.615385 L 103.216783 23.876923 L 104.055944 23.876923 L 104.895105 23.876923 L 105.734266 23.876923 L 106.573427 23.876923 L 107.412587 23.876923 L 108.251748 23.876923 L 109.090909 23.876923 L 109.930070 23.876923 L 110.769231 23.876923 L 111.608392 24.307692 L 112.447552 29.046154 L 113.286713 29.046154 L 114.125874 29.958903 L 114.965035 29.913717 L 115.804196 32.492308 L 116.643357 36.800000 L 117.482517 36.257773 L 118.321678 34.465412 L 119.160839 34.646154 L 120.000000 34.646154"></path>
      <path stroke="none" fill-opacity="0.6" fill="url(#color_grad)" d="M 0 40 L 0.000000 10.953846 L 0.839161 10.953846 L 1.678322 11.384615 L 2.517483 8.800000 L 3.356643 8.800000 L 4.195804 8.800000 L 5.034965 8.800000 L 5.874126 8.800000 L 6.713287 10.092308 L 7.552448 10.628510 L 8.391608 9.230769 L 9.230769 10.953846 L 10.069930 10.953846 L 10.909091 10.953846 L 11.748252 9.661538 L 12.587413 10.953846 L 13.426573 10.953846 L 14.265734 9.661538 L 15.104895 9.661538 L 15.944056 9.661538 L 16.783217 9.661538 L 17.622378 9.661538 L 18.461538 9.661538 L 19.300699 9.661538 L 20.139860 10.953846 L 20.979021 10.953846 L 21.818182 10.953846 L 22.657343 9.661538 L 23.496503 9.661538 L 24.335664 9.661538 L 25.174825 9.661538 L 26.013986 10.565250 L 26.853147 9.366326 L 27.692308 15.261538 L 28.531469 10.953846 L 29.370629 15.261538 L 30.209790 9.661538 L 31.048951 15.261538 L 31.888112 9.661538 L 32.727273 9.661538 L 33.566434 10.538139 L 34.405594 10.953846 L 35.244755 11.815385 L 36.083916 11.815385 L 36.923077 13.008284 L 37.762238 15.743518 L 38.601399 15.261538 L 39.440559 15.261538 L 40.279720 15.261538 L 41.118881 15.261538 L 41.958042 15.261538 L 42.797203 15.261538 L 43.636364 15.261538 L 44.475524 19.569231 L 45.314685 19.569231 L 46.153846 19.569231 L 46.993007 20.472942 L 47.832168 22.153846 L 48.671329 22.153846 L 49.510490 19.569231 L 50.349650 20.430769 L 51.188811 20.430769 L 52.027972 20.430769 L 52.867133 21.723077 L 53.706294 20.430769 L 54.545455 20.430769 L 55.384615 20.430769 L 56.223776 20.430769 L 57.062937 20.430769 L 57.902098 20.430769 L 58.741259 20.430769 L 59.580420 12.246154 L 60.419580 12.399785 L 61.258741 23.876923 L 62.097902 19.569231 L 62.937063 19.569231 L 63.776224 11.360516 L 64.615385 13.604734 L 65.454545 15.261538 L 66.293706 19.569231 L 67.132867 19.569231 L 67.972028 19.569231 L 68.811189 19.569231 L 69.650350 19.569231 L 70.489510 19.569231 L 71.328671 19.569231 L 72.167832 19.569231 L 73.006993 19.569231 L 73.846154 19.569231 L 74.685315 19.569231 L 75.524476 19.569231 L 76.363636 19.569231 L 77.202797 21.723077 L 78.041958 22.153846 L 78.881119 22.153846 L 79.720280 22.153846 L 80.559441 23.876923 L 81.398601 24.738462 L 82.237762 24.738462 L 83.076923 23.876923 L 83.916084 22.153846 L 84.755245 22.153846 L 85.594406 22.153846 L 86.433566 28.184615 L 87.272727 24.738462 L 88.111888 24.738462 L 88.951049 24.738462 L 89.790210 24.738462 L 90.629371 24.738462 L 91.468531 24.738462 L 92.307692 24.738462 L 93.146853 25.587951 L 93.986014 28.184615 L 94.825175 28.184615 L 95.664336 28.184615 L 96.503497 28.184615 L 97.342657 28.184615 L 98.181818 28.184615 L 99.020979 28.184615 L 99.860140 28.184615 L 100.699301 28.184615 L 101.538462 28.184615 L 102.377622 28.615385 L 103.216783 23.876923 L 104.055944 23.876923 L 104.895105 23.876923 L 105.734266 23.876923 L 106.573427 23.876923 L 107.412587 23.876923 L 108.251748 23.876923 L 109.090909 23.876923 L 109.930070 23.876923 L 110.769231 23.876923 L 111.608392 24.307692 L 112.447552 29.046154 L 113.286713 29.046154 L 114.125874 29.958903 L 114.965035 29.913717 L 115.804196 32.492308 L 116.643357 36.800000 L 117.482517 36.257773 L 118.321678 34.465412 L 119.160839 34.646154 L 120.000000 34.646154 L 120 40 Z"></path>
    </g>
  </svg>