<svg xmlns="http://www.w3.org/2000/svg" viewBox="0 0 120 40" width="120" height="40">
    <defs>
      <linearGradient id="color_grad" x1="0%" x2="0%" y1="0%" y2="100%">
        <stop offset="0%" style="stop-color:#16C784;stop-opacity:0.4;"></stop>
        <stop offset="100%" style="stop-color:#16C784;stop-opacity:0.0;"></stop>
      </linearGradient>
    </defs>
    <g>
      <path stroke="#16C784" stroke-width="2" stroke-linecap="round" stroke-linejoin="round" fill="none" d="M 0.000000 27.665653 L 0.839161 21.737647 L 1.678322 22.982140 L 2.517483 23.410328 L 3.356643 23.216178 L 4.195804 24.598368 L 5.034965 23.956269 L 5.874126 24.074610 L 6.713287 23.711213 L 7.552448 22.861852 L 8.391608 22.533934 L 9.230769 21.552826 L 10.069930 21.222338 L 10.909091 23.057508 L 11.748252 27.756521 L 12.587413 22.011022 L 13.426573 23.794735 L 14.265734 22.581021 L 15.104895 22.698811 L 15.944056 19.848632 L 16.783217 22.135607 L 17.622378 18.497588 L 18.461538 14.638019 L 19.300699 14.566802 L 20.139860 14.468845 L 20.979021 13.784949 L 21.818182 8.800000 L 22.657343 10.322091 L 23.496503 9.737437 L 24.335664 9.912966 L 25.174825 9.503473 L 26.013986 11.533417 L 26.853147 9.832235 L 27.692308 15.440404 L 28.531469 16.302766 L 29.370629 18.222561 L 30.209790 13.872989 L 31.048951 11.960577 L 31.888112 12.050306 L 32.727273 13.572875 L 33.566434 16.662895 L 34.405594 24.230232 L 35.244755 23.992484 L 36.083916 24.607697 L 36.923077 16.019365 L 37.762238 13.016759 L 38.601399 14.104676 L 39.440559 16.694960 L 40.279720 10.773235 L 41.118881 13.418576 L 41.958042 20.478720 L 42.797203 26.380428 L 43.636364 28.240537 L 44.475524 27.512309 L 45.314685 26.603153 L 46.153846 29.011444 L 46.993007 26.080902 L 47.832168 25.720956 L 48.671329 26.253198 L 49.510490 25.983680 L 50.349650 25.965535 L 51.188811 27.660180 L 52.027972 27.071963 L 52.867133 27.104065 L 53.706294 27.072074 L 54.545455 26.990021 L 55.384615 26.483085 L 56.223776 26.182641 L 57.062937 24.899473 L 57.902098 24.952951 L 58.741259 25.504916 L 59.580420 25.981366 L 60.419580 26.091112 L 61.258741 26.470634 L 62.097902 26.496271 L 62.937063 27.706385 L 63.776224 29.252130 L 64.615385 20.497121 L 65.454545 22.795850 L 66.293706 25.431825 L 67.132867 25.196207 L 67.972028 26.752530 L 68.811189 26.339071 L 69.650350 27.257666 L 70.489510 27.134880 L 71.328671 26.942310 L 72.167832 27.148029 L 73.006993 25.390431 L 73.846154 24.781756 L 74.685315 23.456239 L 75.524476 23.382010 L 76.363636 23.125310 L 77.202797 23.410989 L 78.041958 24.208635 L 78.881119 22.858914 L 79.720280 22.033023 L 80.559441 23.760356 L 81.398601 23.152967 L 82.237762 27.543932 L 83.076923 32.796710 L 83.916084 22.172042 L 84.755245 23.299406 L 85.594406 24.946082 L 86.433566 30.790750 L 87.272727 23.620455 L 88.111888 23.862279 L 88.951049 23.909293 L 89.790210 22.870520 L 90.629371 23.335400 L 91.468531 22.493900 L 92.307692 23.099820 L 93.146853 24.197065 L 93.986014 23.025921 L 94.825175 23.667285 L 95.664336 24.926873 L 96.503497 24.851909 L 97.342657 25.019504 L 98.181818 28.630159 L 99.020979 32.178192 L 99.860140 36.800000 L 100.699301 28.745783 L 101.538462 32.340167 L 102.377622 31.083040 L 103.216783 30.509735 L 104.055944 30.078131 L 104.895105 27.795490 L 105.734266 28.189190 L 106.573427 27.940791 L 107.412587 30.236838 L 108.251748 29.835242 L 109.090909 29.912667 L 109.930070 29.021692 L 110.769231 28.219161 L 111.608392 28.703911 L 112.447552 30.450528 L 113.286713 28.594642 L 114.125874 28.246083 L 114.965035 27.718800 L 115.804196 26.579720 L 116.643357 26.111020 L 117.482517 26.590188 L 118.321678 27.627712 L 119.160839 26.888869 L 120.000000 30.880038"></path>
      <path stroke="none" fill-opacity="0.6" fill="url(#color_grad)" d="M 0 40 L 0.000000 27.665653 L 0.839161 21.737647 L 1.678322 22.982140 L 2.517483 23.410328 L 3.356643 23.216178 L 4.195804 24.598368 L 5.034965 23.956269 L 5.874126 24.074610 L 6.713287 23.711213 L 7.552448 22.861852 L 8.391608 22.533934 L 9.230769 21.552826 L 10.069930 21.222338 L 10.909091 23.057508 L 11.748252 27.756521 L 12.587413 22.011022 L 13.426573 23.794735 L 14.265734 22.581021 L 15.104895 22.698811 L 15.944056 19.848632 L 16.783217 22.135607 L 17.622378 18.497588 L 18.461538 14.638019 L 19.300699 14.566802 L 20.139860 14.468845 L 20.979021 13.784949 L 21.818182 8.800000 L 22.657343 10.322091 L 23.496503 9.737437 L 24.335664 9.912966 L 25.174825 9.503473 L 26.013986 11.533417 L 26.853147 9.832235 L 27.692308 15.440404 L 28.531469 16.302766 L 29.370629 18.222561 L 30.209790 13.872989 L 31.048951 11.960577 L 31.888112 12.050306 L 32.727273 13.572875 L 33.566434 16.662895 L 34.405594 24.230232 L 35.244755 23.992484 L 36.083916 24.607697 L 36.923077 16.019365 L 37.762238 13.016759 L 38.601399 14.104676 L 39.440559 16.694960 L 40.279720 10.773235 L 41.118881 13.418576 L 41.958042 20.478720 L 42.797203 26.380428 L 43.636364 28.240537 L 44.475524 27.512309 L 45.314685 26.603153 L 46.153846 29.011444 L 46.993007 26.080902 L 47.832168 25.720956 L 48.671329 26.253198 L 49.510490 25.983680 L 50.349650 25.965535 L 51.188811 27.660180 L 52.027972 27.071963 L 52.867133 27.104065 L 53.706294 27.072074 L 54.545455 26.990021 L 55.384615 26.483085 L 56.223776 26.182641 L 57.062937 24.899473 L 57.902098 24.952951 L 58.741259 25.504916 L 59.580420 25.981366 L 60.419580 26.091112 L 61.258741 26.470634 L 62.097902 26.496271 L 62.937063 27.706385 L 63.776224 29.252130 L 64.615385 20.497121 L 65.454545 22.795850 L 66.293706 25.431825 L 67.132867 25.196207 L 67.972028 26.752530 L 68.811189 26.339071 L 69.650350 27.257666 L 70.489510 27.134880 L 71.328671 26.942310 L 72.167832 27.148029 L 73.006993 25.390431 L 73.846154 24.781756 L 74.685315 23.456239 L 75.524476 23.382010 L 76.363636 23.125310 L 77.202797 23.410989 L 78.041958 24.208635 L 78.881119 22.858914 L 79.720280 22.033023 L 80.559441 23.760356 L 81.398601 23.152967 L 82.237762 27.543932 L 83.076923 32.796710 L 83.916084 22.172042 L 84.755245 23.299406 L 85.594406 24.946082 L 86.433566 30.790750 L 87.272727 23.620455 L 88.111888 23.862279 L 88.951049 23.909293 L 89.790210 22.870520 L 90.629371 23.335400 L 91.468531 22.493900 L 92.307692 23.099820 L 93.146853 24.197065 L 93.986014 23.025921 L 94.825175 23.667285 L 95.664336 24.926873 L 96.503497 24.851909 L 97.342657 25.019504 L 98.181818 28.630159 L 99.020979 32.178192 L 99.860140 36.800000 L 100.699301 28.745783 L 101.538462 32.340167 L 102.377622 31.083040 L 103.216783 30.509735 L 104.055944 30.078131 L 104.895105 27.795490 L 105.734266 28.189190 L 106.573427 27.940791 L 107.412587 30.236838 L 108.251748 29.835242 L 109.090909 29.912667 L 109.930070 29.021692 L 110.769231 28.219161 L 111.608392 28.703911 L 112.447552 30.450528 L 113.286713 28.594642 L 114.125874 28.246083 L 114.965035 27.718800 L 115.804196 26.579720 L 116.643357 26.111020 L 117.482517 26.590188 L 118.321678 27.627712 L 119.160839 26.888869 L 120.000000 30.880038 L 120 40 Z"></path>
    </g>
  </svg>