<svg xmlns="http://www.w3.org/2000/svg" viewBox="0 0 120 40" width="120" height="40">
    <defs>
      <linearGradient id="color_grad" x1="0%" x2="0%" y1="0%" y2="100%">
        <stop offset="0%" style="stop-color:#EA3943;stop-opacity:0.4;"></stop>
        <stop offset="100%" style="stop-color:#EA3943;stop-opacity:0.0;"></stop>
      </linearGradient>
    </defs>
    <g>
      <path stroke="#EA3943" stroke-width="2" stroke-linecap="round" stroke-linejoin="round" fill="none" d="M 0.000000 33.820429 L 0.839161 33.829617 L 1.678322 34.153081 L 2.517483 34.263442 L 3.356643 34.212933 L 4.195804 34.572310 L 5.034965 34.405214 L 5.874126 33.133498 L 6.713287 32.708264 L 7.552448 35.830093 L 8.391608 34.206213 L 9.230769 33.291332 L 10.069930 32.703563 L 10.909091 32.250101 L 11.748252 33.953314 L 12.587413 34.226903 L 13.426573 34.108076 L 14.265734 34.005606 L 15.104895 33.079489 L 15.944056 32.284039 L 16.783217 30.429777 L 17.622378 30.246287 L 18.461538 27.154122 L 19.300699 26.886929 L 20.139860 26.857470 L 20.979021 26.651676 L 21.818182 25.135734 L 22.657343 26.828344 L 23.496503 25.258908 L 24.335664 28.805043 L 25.174825 27.991703 L 26.013986 28.770818 L 26.853147 33.962105 L 27.692308 36.800000 L 28.531469 35.024630 L 29.370629 33.904014 L 30.209790 35.898706 L 31.048951 35.894801 L 31.888112 35.848035 L 32.727273 35.821892 L 33.566434 33.283920 L 34.405594 33.090283 L 35.244755 32.990076 L 36.083916 33.157017 L 36.923077 31.413478 L 37.762238 31.150654 L 38.601399 31.069338 L 39.440559 31.114999 L 40.279720 31.022380 L 41.118881 30.766379 L 41.958042 32.237442 L 42.797203 32.523403 L 43.636364 33.285268 L 44.475524 31.790273 L 45.314685 26.842579 L 46.153846 15.664593 L 46.993007 13.163866 L 47.832168 8.800000 L 48.671329 14.860839 L 49.510490 14.864331 L 50.349650 15.210387 L 51.188811 16.403160 L 52.027972 15.282801 L 52.867133 15.365465 L 53.706294 15.351348 L 54.545455 14.639233 L 55.384615 14.413743 L 56.223776 14.603335 L 57.062937 15.120944 L 57.902098 15.145001 L 58.741259 15.384409 L 59.580420 17.027070 L 60.419580 18.869535 L 61.258741 20.810513 L 62.097902 20.820033 L 62.937063 21.410647 L 63.776224 25.378671 L 64.615385 27.101844 L 65.454545 28.872661 L 66.293706 29.401669 L 67.132867 28.984643 L 67.972028 29.672370 L 68.811189 29.679716 L 69.650350 29.963274 L 70.489510 29.924878 L 71.328671 29.865314 L 72.167832 29.928710 L 73.006993 29.805182 L 73.846154 29.619915 L 74.685315 29.217501 L 75.524476 29.539042 L 76.363636 29.463186 L 77.202797 29.548215 L 78.041958 27.731053 L 78.881119 27.671886 L 79.720280 27.530475 L 80.559441 28.054731 L 81.398601 27.861426 L 82.237762 26.776251 L 83.076923 30.363066 L 83.916084 26.601130 L 84.755245 28.582729 L 85.594406 28.328312 L 86.433566 27.988314 L 87.272727 28.022554 L 88.111888 28.097953 L 88.951049 28.112306 L 89.790210 27.786351 L 90.629371 27.932271 L 91.468531 27.667377 L 92.307692 27.858449 L 93.146853 29.493057 L 93.986014 28.412796 L 94.825175 28.611915 L 95.664336 28.234346 L 96.503497 28.052904 L 97.342657 28.106375 L 98.181818 28.601489 L 99.020979 28.715792 L 99.860140 28.673565 L 100.699301 27.904552 L 101.538462 29.084092 L 102.377622 28.668400 L 103.216783 28.480090 L 104.055944 28.628943 L 104.895105 27.879250 L 105.734266 28.731309 L 106.573427 28.413378 L 107.412587 27.790219 L 108.251748 27.654107 L 109.090909 28.416812 L 109.930070 27.380989 L 110.769231 27.480512 L 111.608392 29.115355 L 112.447552 31.526801 L 113.286713 34.075118 L 114.125874 31.848600 L 114.965035 34.191403 L 115.804196 33.300668 L 116.643357 32.134066 L 117.482517 32.303093 L 118.321678 32.974875 L 119.160839 33.707386 L 120.000000 33.102890"></path>
      <path stroke="none" fill-opacity="0.6" fill="url(#color_grad)" d="M 0 40 L 0.000000 33.820429 L 0.839161 33.829617 L 1.678322 34.153081 L 2.517483 34.263442 L 3.356643 34.212933 L 4.195804 34.572310 L 5.034965 34.405214 L 5.874126 33.133498 L 6.713287 32.708264 L 7.552448 35.830093 L 8.391608 34.206213 L 9.230769 33.291332 L 10.069930 32.703563 L 10.909091 32.250101 L 11.748252 33.953314 L 12.587413 34.226903 L 13.426573 34.108076 L 14.265734 34.005606 L 15.104895 33.079489 L 15.944056 32.284039 L 16.783217 30.429777 L 17.622378 30.246287 L 18.461538 27.154122 L 19.300699 26.886929 L 20.139860 26.857470 L 20.979021 26.651676 L 21.818182 25.135734 L 22.657343 26.828344 L 23.496503 25.258908 L 24.335664 28.805043 L 25.174825 27.991703 L 26.013986 28.770818 L 26.853147 33.962105 L 27.692308 36.800000 L 28.531469 35.024630 L 29.370629 33.904014 L 30.209790 35.898706 L 31.048951 35.894801 L 31.888112 35.848035 L 32.727273 35.821892 L 33.566434 33.283920 L 34.405594 33.090283 L 35.244755 32.990076 L 36.083916 33.157017 L 36.923077 31.413478 L 37.762238 31.150654 L 38.601399 31.069338 L 39.440559 31.114999 L 40.279720 31.022380 L 41.118881 30.766379 L 41.958042 32.237442 L 42.797203 32.523403 L 43.636364 33.285268 L 44.475524 31.790273 L 45.314685 26.842579 L 46.153846 15.664593 L 46.993007 13.163866 L 47.832168 8.800000 L 48.671329 14.860839 L 49.510490 14.864331 L 50.349650 15.210387 L 51.188811 16.403160 L 52.027972 15.282801 L 52.867133 15.365465 L 53.706294 15.351348 L 54.545455 14.639233 L 55.384615 14.413743 L 56.223776 14.603335 L 57.062937 15.120944 L 57.902098 15.145001 L 58.741259 15.384409 L 59.580420 17.027070 L 60.419580 18.869535 L 61.258741 20.810513 L 62.097902 20.820033 L 62.937063 21.410647 L 63.776224 25.378671 L 64.615385 27.101844 L 65.454545 28.872661 L 66.293706 29.401669 L 67.132867 28.984643 L 67.972028 29.672370 L 68.811189 29.679716 L 69.650350 29.963274 L 70.489510 29.924878 L 71.328671 29.865314 L 72.167832 29.928710 L 73.006993 29.805182 L 73.846154 29.619915 L 74.685315 29.217501 L 75.524476 29.539042 L 76.363636 29.463186 L 77.202797 29.548215 L 78.041958 27.731053 L 78.881119 27.671886 L 79.720280 27.530475 L 80.559441 28.054731 L 81.398601 27.861426 L 82.237762 26.776251 L 83.076923 30.363066 L 83.916084 26.601130 L 84.755245 28.582729 L 85.594406 28.328312 L 86.433566 27.988314 L 87.272727 28.022554 L 88.111888 28.097953 L 88.951049 28.112306 L 89.790210 27.786351 L 90.629371 27.932271 L 91.468531 27.667377 L 92.307692 27.858449 L 93.146853 29.493057 L 93.986014 28.412796 L 94.825175 28.611915 L 95.664336 28.234346 L 96.503497 28.052904 L 97.342657 28.106375 L 98.181818 28.601489 L 99.020979 28.715792 L 99.860140 28.673565 L 100.699301 27.904552 L 101.538462 29.084092 L 102.377622 28.668400 L 103.216783 28.480090 L 104.055944 28.628943 L 104.895105 27.879250 L 105.734266 28.731309 L 106.573427 28.413378 L 107.412587 27.790219 L 108.251748 27.654107 L 109.090909 28.416812 L 109.930070 27.380989 L 110.769231 27.480512 L 111.608392 29.115355 L 112.447552 31.526801 L 113.286713 34.075118 L 114.125874 31.848600 L 114.965035 34.191403 L 115.804196 33.300668 L 116.643357 32.134066 L 117.482517 32.303093 L 118.321678 32.974875 L 119.160839 33.707386 L 120.000000 33.102890 L 120 40 Z"></path>
    </g>
  </svg>