<svg xmlns="http://www.w3.org/2000/svg" viewBox="0 0 120 40" width="120" height="40">
    <defs>
      <linearGradient id="color_grad" x1="0%" x2="0%" y1="0%" y2="100%">
        <stop offset="0%" style="stop-color:#EA3943;stop-opacity:0.4;"></stop>
        <stop offset="100%" style="stop-color:#EA3943;stop-opacity:0.0;"></stop>
      </linearGradient>
    </defs>
    <g>
      <path stroke="#EA3943" stroke-width="2" stroke-linecap="round" stroke-linejoin="round" fill="none" d="M 0.000000 32.225743 L 0.839161 32.225743 L 1.678322 32.225743 L 2.517483 32.225743 L 3.356643 32.225743 L 4.195804 32.225743 L 5.034965 32.225743 L 5.874126 30.784158 L 6.713287 30.423762 L 7.552448 33.924392 L 8.391608 32.225743 L 9.230769 31.504950 L 10.069930 30.960576 L 10.909091 30.459802 L 11.748252 32.225743 L 12.587413 32.225743 L 13.426573 32.225743 L 14.265734 32.225743 L 15.104895 31.180594 L 15.944056 30.423762 L 16.783217 28.621782 L 17.622378 28.621782 L 18.461538 25.461386 L 19.300699 25.198020 L 20.139860 25.198020 L 20.979021 25.198020 L 21.818182 25.181638 L 22.657343 26.459406 L 23.496503 25.017822 L 24.335664 28.621782 L 25.174825 27.900990 L 26.013986 28.621782 L 26.853147 33.904230 L 27.692308 36.800000 L 28.531469 34.753555 L 29.370629 33.588443 L 30.209790 35.829703 L 31.048951 35.865743 L 31.888112 35.808281 L 32.727273 35.819874 L 33.566434 33.270891 L 34.405594 32.982574 L 35.244755 32.946535 L 36.083916 32.946535 L 36.923077 31.144554 L 37.762238 31.144554 L 38.601399 31.144554 L 39.440559 31.154635 L 40.279720 31.144554 L 41.118881 31.144554 L 41.958042 32.225743 L 42.797203 32.225743 L 43.636364 32.979298 L 44.475524 31.644824 L 45.314685 26.846265 L 46.153846 15.395248 L 46.993007 13.071827 L 47.832168 8.800000 L 48.671329 14.722592 L 49.510490 14.926733 L 50.349650 15.287129 L 51.188811 16.454005 L 52.027972 15.576958 L 52.867133 15.647525 L 53.706294 15.647525 L 54.545455 14.962772 L 55.384615 14.962772 L 56.223776 15.287129 L 57.062937 16.368317 L 57.902098 16.368317 L 58.741259 16.368317 L 59.580420 17.809901 L 60.419580 19.611881 L 61.258741 21.413861 L 62.097902 21.413861 L 62.937063 21.535590 L 63.776224 25.017822 L 64.615385 26.819802 L 65.454545 28.621782 L 66.293706 28.621782 L 67.132867 28.261386 L 67.972028 28.478128 L 68.811189 28.621782 L 69.650350 28.621782 L 70.489510 28.621782 L 71.328671 28.621782 L 72.167832 28.621782 L 73.006993 28.621782 L 73.846154 28.621782 L 74.685315 28.621782 L 75.524476 28.982178 L 76.363636 28.982178 L 77.202797 28.982178 L 78.041958 26.819802 L 78.881119 26.819802 L 79.720280 26.819802 L 80.559441 26.799640 L 81.398601 26.819802 L 82.237762 25.846733 L 83.076923 30.146535 L 83.916084 26.963960 L 84.755245 28.621782 L 85.594406 28.621782 L 86.433566 28.389919 L 87.272727 28.621782 L 88.111888 28.621782 L 88.951049 28.621782 L 89.790210 28.621782 L 90.629371 28.621782 L 91.468531 28.621782 L 92.307692 28.621782 L 93.146853 29.929793 L 93.986014 29.702970 L 94.825175 29.702970 L 95.664336 28.693861 L 96.503497 28.657822 L 97.342657 28.657822 L 98.181818 28.851125 L 99.020979 28.657822 L 99.860140 28.838020 L 100.699301 28.693861 L 101.538462 28.982178 L 102.377622 28.982178 L 103.216783 28.982178 L 104.055944 28.982178 L 104.895105 28.982178 L 105.734266 29.702970 L 106.573427 29.466067 L 107.412587 28.982178 L 108.251748 28.982178 L 109.090909 29.768497 L 109.930070 28.982178 L 110.769231 29.342574 L 111.608392 30.784158 L 112.447552 33.170837 L 113.286713 35.829703 L 114.125874 33.667327 L 114.965035 35.829703 L 115.804196 35.451665 L 116.643357 34.929973 L 117.482517 34.748515 L 118.321678 35.108911 L 119.160839 35.761656 L 120.000000 35.108911"></path>
      <path stroke="none" fill-opacity="0.6" fill="url(#color_grad)" d="M 0 40 L 0.000000 32.225743 L 0.839161 32.225743 L 1.678322 32.225743 L 2.517483 32.225743 L 3.356643 32.225743 L 4.195804 32.225743 L 5.034965 32.225743 L 5.874126 30.784158 L 6.713287 30.423762 L 7.552448 33.924392 L 8.391608 32.225743 L 9.230769 31.504950 L 10.069930 30.960576 L 10.909091 30.459802 L 11.748252 32.225743 L 12.587413 32.225743 L 13.426573 32.225743 L 14.265734 32.225743 L 15.104895 31.180594 L 15.944056 30.423762 L 16.783217 28.621782 L 17.622378 28.621782 L 18.461538 25.461386 L 19.300699 25.198020 L 20.139860 25.198020 L 20.979021 25.198020 L 21.818182 25.181638 L 22.657343 26.459406 L 23.496503 25.017822 L 24.335664 28.621782 L 25.174825 27.900990 L 26.013986 28.621782 L 26.853147 33.904230 L 27.692308 36.800000 L 28.531469 34.753555 L 29.370629 33.588443 L 30.209790 35.829703 L 31.048951 35.865743 L 31.888112 35.808281 L 32.727273 35.819874 L 33.566434 33.270891 L 34.405594 32.982574 L 35.244755 32.946535 L 36.083916 32.946535 L 36.923077 31.144554 L 37.762238 31.144554 L 38.601399 31.144554 L 39.440559 31.154635 L 40.279720 31.144554 L 41.118881 31.144554 L 41.958042 32.225743 L 42.797203 32.225743 L 43.636364 32.979298 L 44.475524 31.644824 L 45.314685 26.846265 L 46.153846 15.395248 L 46.993007 13.071827 L 47.832168 8.800000 L 48.671329 14.722592 L 49.510490 14.926733 L 50.349650 15.287129 L 51.188811 16.454005 L 52.027972 15.576958 L 52.867133 15.647525 L 53.706294 15.647525 L 54.545455 14.962772 L 55.384615 14.962772 L 56.223776 15.287129 L 57.062937 16.368317 L 57.902098 16.368317 L 58.741259 16.368317 L 59.580420 17.809901 L 60.419580 19.611881 L 61.258741 21.413861 L 62.097902 21.413861 L 62.937063 21.535590 L 63.776224 25.017822 L 64.615385 26.819802 L 65.454545 28.621782 L 66.293706 28.621782 L 67.132867 28.261386 L 67.972028 28.478128 L 68.811189 28.621782 L 69.650350 28.621782 L 70.489510 28.621782 L 71.328671 28.621782 L 72.167832 28.621782 L 73.006993 28.621782 L 73.846154 28.621782 L 74.685315 28.621782 L 75.524476 28.982178 L 76.363636 28.982178 L 77.202797 28.982178 L 78.041958 26.819802 L 78.881119 26.819802 L 79.720280 26.819802 L 80.559441 26.799640 L 81.398601 26.819802 L 82.237762 25.846733 L 83.076923 30.146535 L 83.916084 26.963960 L 84.755245 28.621782 L 85.594406 28.621782 L 86.433566 28.389919 L 87.272727 28.621782 L 88.111888 28.621782 L 88.951049 28.621782 L 89.790210 28.621782 L 90.629371 28.621782 L 91.468531 28.621782 L 92.307692 28.621782 L 93.146853 29.929793 L 93.986014 29.702970 L 94.825175 29.702970 L 95.664336 28.693861 L 96.503497 28.657822 L 97.342657 28.657822 L 98.181818 28.851125 L 99.020979 28.657822 L 99.860140 28.838020 L 100.699301 28.693861 L 101.538462 28.982178 L 102.377622 28.982178 L 103.216783 28.982178 L 104.055944 28.982178 L 104.895105 28.982178 L 105.734266 29.702970 L 106.573427 29.466067 L 107.412587 28.982178 L 108.251748 28.982178 L 109.090909 29.768497 L 109.930070 28.982178 L 110.769231 29.342574 L 111.608392 30.784158 L 112.447552 33.170837 L 113.286713 35.829703 L 114.125874 33.667327 L 114.965035 35.829703 L 115.804196 35.451665 L 116.643357 34.929973 L 117.482517 34.748515 L 118.321678 35.108911 L 119.160839 35.761656 L 120.000000 35.108911 L 120 40 Z"></path>
    </g>
  </svg>