<svg xmlns="http://www.w3.org/2000/svg" viewBox="0 0 120 40" width="120" height="40">
    <defs>
      <linearGradient id="color_grad" x1="0%" x2="0%" y1="0%" y2="100%">
        <stop offset="0%" style="stop-color:#EA3943;stop-opacity:0.4;"></stop>
        <stop offset="100%" style="stop-color:#EA3943;stop-opacity:0.0;"></stop>
      </linearGradient>
    </defs>
    <g>
      <path stroke="#EA3943" stroke-width="2" stroke-linecap="round" stroke-linejoin="round" fill="none" d="M 0.000000 16.059259 L 0.839161 12.948148 L 1.678322 12.948148 L 2.517483 15.022222 L 3.356643 15.022222 L 4.195804 15.022222 L 5.034965 15.022222 L 5.874126 15.022222 L 6.713287 15.022222 L 7.552448 15.022222 L 8.391608 16.059259 L 9.230769 15.022222 L 10.069930 14.970008 L 10.909091 14.918519 L 11.748252 14.918519 L 12.587413 16.059259 L 13.426573 15.437037 L 14.265734 12.491997 L 15.104895 10.874074 L 15.944056 10.874074 L 16.783217 10.874074 L 17.622378 10.874074 L 18.461538 10.874074 L 19.300699 10.874074 L 20.139860 10.874074 L 20.979021 10.874074 L 21.818182 10.874074 L 22.657343 10.874074 L 23.496503 10.874074 L 24.335664 11.911111 L 25.174825 12.179435 L 26.013986 11.809583 L 26.853147 10.874074 L 27.692308 9.318519 L 28.531469 9.318519 L 29.370629 9.318519 L 30.209790 9.318519 L 31.048951 10.874074 L 31.888112 10.874074 L 32.727273 10.874074 L 33.566434 10.874074 L 34.405594 10.874074 L 35.244755 10.874074 L 36.083916 10.874074 L 36.923077 10.874074 L 37.762238 8.800000 L 38.601399 8.800000 L 39.440559 8.800000 L 40.279720 8.800000 L 41.118881 8.800000 L 41.958042 9.318519 L 42.797203 12.429630 L 43.636364 16.059259 L 44.475524 16.523388 L 45.314685 21.244444 L 46.153846 21.244444 L 46.993007 21.244444 L 47.832168 21.348148 L 48.671329 28.677752 L 49.510490 31.614815 L 50.349650 22.281481 L 51.188811 23.318519 L 52.027972 21.244444 L 52.867133 24.580368 L 53.706294 26.429630 L 54.545455 26.429630 L 55.384615 26.429630 L 56.223776 26.429630 L 57.062937 26.429630 L 57.902098 16.059259 L 58.741259 16.059259 L 59.580420 16.059259 L 60.419580 20.120383 L 61.258741 16.059259 L 62.097902 16.059259 L 62.937063 17.096296 L 63.776224 17.096296 L 64.615385 17.096296 L 65.454545 17.096296 L 66.293706 17.096296 L 67.132867 17.096296 L 67.972028 21.244444 L 68.811189 21.244444 L 69.650350 21.244444 L 70.489510 21.244444 L 71.328671 21.244444 L 72.167832 21.244444 L 73.006993 21.244444 L 73.846154 21.244444 L 74.685315 21.244444 L 75.524476 21.244444 L 76.363636 21.244444 L 77.202797 22.281481 L 78.041958 22.281481 L 78.881119 22.770992 L 79.720280 22.800000 L 80.559441 27.985185 L 81.398601 27.985185 L 82.237762 31.614815 L 83.076923 31.614815 L 83.916084 31.614815 L 84.755245 32.433566 L 85.594406 31.614815 L 86.433566 35.132038 L 87.272727 31.614815 L 88.111888 31.614815 L 88.951049 31.614815 L 89.790210 31.614815 L 90.629371 31.614815 L 91.468531 31.614815 L 92.307692 31.614815 L 93.146853 31.614815 L 93.986014 31.614815 L 94.825175 31.614815 L 95.664336 31.096296 L 96.503497 29.540741 L 97.342657 29.540741 L 98.181818 29.540741 L 99.020979 29.540741 L 99.860140 29.540741 L 100.699301 29.540741 L 101.538462 29.540741 L 102.377622 29.540741 L 103.216783 25.595649 L 104.055944 21.244444 L 104.895105 21.244444 L 105.734266 22.731106 L 106.573427 26.429630 L 107.412587 26.429630 L 108.251748 26.429630 L 109.090909 26.429630 L 109.930070 29.004092 L 110.769231 31.614815 L 111.608392 31.614815 L 112.447552 31.614815 L 113.286713 31.614815 L 114.125874 31.614815 L 114.965035 31.614815 L 115.804196 31.614815 L 116.643357 31.614815 L 117.482517 36.800000 L 118.321678 36.800000 L 119.160839 34.725926 L 120.000000 34.725926"></path>
      <path stroke="none" fill-opacity="0.6" fill="url(#color_grad)" d="M 0 40 L 0.000000 16.059259 L 0.839161 12.948148 L 1.678322 12.948148 L 2.517483 15.022222 L 3.356643 15.022222 L 4.195804 15.022222 L 5.034965 15.022222 L 5.874126 15.022222 L 6.713287 15.022222 L 7.552448 15.022222 L 8.391608 16.059259 L 9.230769 15.022222 L 10.069930 14.970008 L 10.909091 14.918519 L 11.748252 14.918519 L 12.587413 16.059259 L 13.426573 15.437037 L 14.265734 12.491997 L 15.104895 10.874074 L 15.944056 10.874074 L 16.783217 10.874074 L 17.622378 10.874074 L 18.461538 10.874074 L 19.300699 10.874074 L 20.139860 10.874074 L 20.979021 10.874074 L 21.818182 10.874074 L 22.657343 10.874074 L 23.496503 10.874074 L 24.335664 11.911111 L 25.174825 12.179435 L 26.013986 11.809583 L 26.853147 10.874074 L 27.692308 9.318519 L 28.531469 9.318519 L 29.370629 9.318519 L 30.209790 9.318519 L 31.048951 10.874074 L 31.888112 10.874074 L 32.727273 10.874074 L 33.566434 10.874074 L 34.405594 10.874074 L 35.244755 10.874074 L 36.083916 10.874074 L 36.923077 10.874074 L 37.762238 8.800000 L 38.601399 8.800000 L 39.440559 8.800000 L 40.279720 8.800000 L 41.118881 8.800000 L 41.958042 9.318519 L 42.797203 12.429630 L 43.636364 16.059259 L 44.475524 16.523388 L 45.314685 21.244444 L 46.153846 21.244444 L 46.993007 21.244444 L 47.832168 21.348148 L 48.671329 28.677752 L 49.510490 31.614815 L 50.349650 22.281481 L 51.188811 23.318519 L 52.027972 21.244444 L 52.867133 24.580368 L 53.706294 26.429630 L 54.545455 26.429630 L 55.384615 26.429630 L 56.223776 26.429630 L 57.062937 26.429630 L 57.902098 16.059259 L 58.741259 16.059259 L 59.580420 16.059259 L 60.419580 20.120383 L 61.258741 16.059259 L 62.097902 16.059259 L 62.937063 17.096296 L 63.776224 17.096296 L 64.615385 17.096296 L 65.454545 17.096296 L 66.293706 17.096296 L 67.132867 17.096296 L 67.972028 21.244444 L 68.811189 21.244444 L 69.650350 21.244444 L 70.489510 21.244444 L 71.328671 21.244444 L 72.167832 21.244444 L 73.006993 21.244444 L 73.846154 21.244444 L 74.685315 21.244444 L 75.524476 21.244444 L 76.363636 21.244444 L 77.202797 22.281481 L 78.041958 22.281481 L 78.881119 22.770992 L 79.720280 22.800000 L 80.559441 27.985185 L 81.398601 27.985185 L 82.237762 31.614815 L 83.076923 31.614815 L 83.916084 31.614815 L 84.755245 32.433566 L 85.594406 31.614815 L 86.433566 35.132038 L 87.272727 31.614815 L 88.111888 31.614815 L 88.951049 31.614815 L 89.790210 31.614815 L 90.629371 31.614815 L 91.468531 31.614815 L 92.307692 31.614815 L 93.146853 31.614815 L 93.986014 31.614815 L 94.825175 31.614815 L 95.664336 31.096296 L 96.503497 29.540741 L 97.342657 29.540741 L 98.181818 29.540741 L 99.020979 29.540741 L 99.860140 29.540741 L 100.699301 29.540741 L 101.538462 29.540741 L 102.377622 29.540741 L 103.216783 25.595649 L 104.055944 21.244444 L 104.895105 21.244444 L 105.734266 22.731106 L 106.573427 26.429630 L 107.412587 26.429630 L 108.251748 26.429630 L 109.090909 26.429630 L 109.930070 29.004092 L 110.769231 31.614815 L 111.608392 31.614815 L 112.447552 31.614815 L 113.286713 31.614815 L 114.125874 31.614815 L 114.965035 31.614815 L 115.804196 31.614815 L 116.643357 31.614815 L 117.482517 36.800000 L 118.321678 36.800000 L 119.160839 34.725926 L 120.000000 34.725926 L 120 40 Z"></path>
    </g>
  </svg>