<svg xmlns="http://www.w3.org/2000/svg" viewBox="0 0 120 40" width="120" height="40">
    <defs>
      <linearGradient id="color_grad" x1="0%" x2="0%" y1="0%" y2="100%">
        <stop offset="0%" style="stop-color:#16C784;stop-opacity:0.4;"></stop>
        <stop offset="100%" style="stop-color:#16C784;stop-opacity:0.0;"></stop>
      </linearGradient>
    </defs>
    <g>
      <path stroke="#16C784" stroke-width="2" stroke-linecap="round" stroke-linejoin="round" fill="none" d="M 0.000000 27.301396 L 0.839161 24.454656 L 1.678322 26.314298 L 2.517483 28.858515 L 3.356643 28.571466 L 4.195804 30.614677 L 5.034965 29.664405 L 5.874126 29.836879 L 6.713287 29.301987 L 7.552448 29.010968 L 8.391608 29.487037 L 9.230769 27.087997 L 10.069930 26.554071 L 10.909091 26.553170 L 11.748252 26.994174 L 12.587413 29.603651 L 13.426573 28.354998 L 14.265734 25.041052 L 15.104895 23.721967 L 15.944056 23.154563 L 16.783217 22.112828 L 17.622378 21.149078 L 18.461538 20.401346 L 19.300699 20.297372 L 20.139860 20.157281 L 20.979021 19.173681 L 21.818182 11.990101 L 22.657343 14.184541 L 23.496503 13.339015 L 24.335664 14.614107 L 25.174825 14.289888 L 26.013986 14.335276 L 26.853147 13.820622 L 27.692308 12.528963 L 28.531469 13.831631 L 29.370629 13.815600 L 30.209790 12.779573 L 31.048951 14.043055 L 31.888112 14.102950 L 32.727273 13.857318 L 33.566434 13.430413 L 34.405594 13.941828 L 35.244755 13.554259 L 36.083916 14.551658 L 36.923077 14.515884 L 37.762238 10.995943 L 38.601399 10.527620 L 39.440559 10.736212 L 40.279720 10.260185 L 41.118881 8.800000 L 41.958042 11.715477 L 42.797203 16.420034 L 43.636364 20.168418 L 44.475524 19.442876 L 45.314685 22.628105 L 46.153846 22.603555 L 46.993007 21.804619 L 47.832168 21.338893 L 48.671329 29.441413 L 49.510490 31.689976 L 50.349650 22.377559 L 51.188811 23.573012 L 52.027972 20.572490 L 52.867133 23.953349 L 53.706294 25.751808 L 54.545455 25.625280 L 55.384615 24.836215 L 56.223776 24.372571 L 57.062937 22.372602 L 57.902098 11.896814 L 58.741259 12.808136 L 59.580420 13.589304 L 60.419580 17.870476 L 61.258741 14.398433 L 62.097902 14.438714 L 62.937063 17.471448 L 63.776224 20.004335 L 64.615385 19.908451 L 65.454545 20.039808 L 66.293706 22.721006 L 67.132867 22.354747 L 67.972028 28.732244 L 68.811189 28.099667 L 69.650350 29.500643 L 70.489510 29.311730 L 71.328671 29.017770 L 72.167832 29.330100 L 73.006993 28.719111 L 73.846154 27.803496 L 74.685315 25.809386 L 75.524476 25.692815 L 76.363636 25.311148 L 77.202797 26.744143 L 78.041958 27.935433 L 78.881119 28.133509 L 79.720280 27.497691 L 80.559441 34.984909 L 81.398601 34.020924 L 82.237762 36.800000 L 83.076923 34.329626 L 83.916084 31.280690 L 84.755245 33.712693 L 85.594406 31.721565 L 86.433566 34.710456 L 87.272727 30.295695 L 88.111888 30.645880 L 88.951049 30.716355 L 89.790210 29.193636 L 90.629371 29.874778 L 91.468531 28.639065 L 92.307692 29.530279 L 93.146853 31.136865 L 93.986014 27.022308 L 94.825175 27.980177 L 95.664336 30.434155 L 96.503497 28.191108 L 97.342657 28.442899 L 98.181818 29.893126 L 99.020979 31.319704 L 99.860140 30.291489 L 100.699301 27.322727 L 101.538462 31.574564 L 102.377622 29.592964 L 103.216783 24.746555 L 104.055944 21.138005 L 104.895105 17.392647 L 105.734266 19.540884 L 106.573427 22.901184 L 107.412587 22.233090 L 108.251748 21.573215 L 109.090909 21.404861 L 109.930070 22.896248 L 110.769231 24.322312 L 111.608392 25.090689 L 112.447552 24.942807 L 113.286713 23.944464 L 114.125874 23.935795 L 114.965035 24.623632 L 115.804196 21.726225 L 116.643357 18.208000 L 117.482517 25.759362 L 118.321678 27.369467 L 119.160839 25.488472 L 120.000000 25.898960"></path>
      <path stroke="none" fill-opacity="0.6" fill="url(#color_grad)" d="M 0 40 L 0.000000 27.301396 L 0.839161 24.454656 L 1.678322 26.314298 L 2.517483 28.858515 L 3.356643 28.571466 L 4.195804 30.614677 L 5.034965 29.664405 L 5.874126 29.836879 L 6.713287 29.301987 L 7.552448 29.010968 L 8.391608 29.487037 L 9.230769 27.087997 L 10.069930 26.554071 L 10.909091 26.553170 L 11.748252 26.994174 L 12.587413 29.603651 L 13.426573 28.354998 L 14.265734 25.041052 L 15.104895 23.721967 L 15.944056 23.154563 L 16.783217 22.112828 L 17.622378 21.149078 L 18.461538 20.401346 L 19.300699 20.297372 L 20.139860 20.157281 L 20.979021 19.173681 L 21.818182 11.990101 L 22.657343 14.184541 L 23.496503 13.339015 L 24.335664 14.614107 L 25.174825 14.289888 L 26.013986 14.335276 L 26.853147 13.820622 L 27.692308 12.528963 L 28.531469 13.831631 L 29.370629 13.815600 L 30.209790 12.779573 L 31.048951 14.043055 L 31.888112 14.102950 L 32.727273 13.857318 L 33.566434 13.430413 L 34.405594 13.941828 L 35.244755 13.554259 L 36.083916 14.551658 L 36.923077 14.515884 L 37.762238 10.995943 L 38.601399 10.527620 L 39.440559 10.736212 L 40.279720 10.260185 L 41.118881 8.800000 L 41.958042 11.715477 L 42.797203 16.420034 L 43.636364 20.168418 L 44.475524 19.442876 L 45.314685 22.628105 L 46.153846 22.603555 L 46.993007 21.804619 L 47.832168 21.338893 L 48.671329 29.441413 L 49.510490 31.689976 L 50.349650 22.377559 L 51.188811 23.573012 L 52.027972 20.572490 L 52.867133 23.953349 L 53.706294 25.751808 L 54.545455 25.625280 L 55.384615 24.836215 L 56.223776 24.372571 L 57.062937 22.372602 L 57.902098 11.896814 L 58.741259 12.808136 L 59.580420 13.589304 L 60.419580 17.870476 L 61.258741 14.398433 L 62.097902 14.438714 L 62.937063 17.471448 L 63.776224 20.004335 L 64.615385 19.908451 L 65.454545 20.039808 L 66.293706 22.721006 L 67.132867 22.354747 L 67.972028 28.732244 L 68.811189 28.099667 L 69.650350 29.500643 L 70.489510 29.311730 L 71.328671 29.017770 L 72.167832 29.330100 L 73.006993 28.719111 L 73.846154 27.803496 L 74.685315 25.809386 L 75.524476 25.692815 L 76.363636 25.311148 L 77.202797 26.744143 L 78.041958 27.935433 L 78.881119 28.133509 L 79.720280 27.497691 L 80.559441 34.984909 L 81.398601 34.020924 L 82.237762 36.800000 L 83.076923 34.329626 L 83.916084 31.280690 L 84.755245 33.712693 L 85.594406 31.721565 L 86.433566 34.710456 L 87.272727 30.295695 L 88.111888 30.645880 L 88.951049 30.716355 L 89.790210 29.193636 L 90.629371 29.874778 L 91.468531 28.639065 L 92.307692 29.530279 L 93.146853 31.136865 L 93.986014 27.022308 L 94.825175 27.980177 L 95.664336 30.434155 L 96.503497 28.191108 L 97.342657 28.442899 L 98.181818 29.893126 L 99.020979 31.319704 L 99.860140 30.291489 L 100.699301 27.322727 L 101.538462 31.574564 L 102.377622 29.592964 L 103.216783 24.746555 L 104.055944 21.138005 L 104.895105 17.392647 L 105.734266 19.540884 L 106.573427 22.901184 L 107.412587 22.233090 L 108.251748 21.573215 L 109.090909 21.404861 L 109.930070 22.896248 L 110.769231 24.322312 L 111.608392 25.090689 L 112.447552 24.942807 L 113.286713 23.944464 L 114.125874 23.935795 L 114.965035 24.623632 L 115.804196 21.726225 L 116.643357 18.208000 L 117.482517 25.759362 L 118.321678 27.369467 L 119.160839 25.488472 L 120.000000 25.898960 L 120 40 Z"></path>
    </g>
  </svg>