<svg xmlns="http://www.w3.org/2000/svg" viewBox="0 0 120 40" width="120" height="40">
    <defs>
      <linearGradient id="color_grad" x1="0%" x2="0%" y1="0%" y2="100%">
        <stop offset="0%" style="stop-color:#16C784;stop-opacity:0.4;"></stop>
        <stop offset="100%" style="stop-color:#16C784;stop-opacity:0.0;"></stop>
      </linearGradient>
    </defs>
    <g>
      <path stroke="#16C784" stroke-width="2" stroke-linecap="round" stroke-linejoin="round" fill="none" d="M 0.000000 26.367962 L 0.839161 27.036570 L 1.678322 29.070183 L 2.517483 29.766386 L 3.356643 29.450215 L 4.195804 31.707910 L 5.034965 32.158243 L 5.874126 36.800000 L 6.713287 36.226104 L 7.552448 35.915780 L 8.391608 35.401318 L 9.230769 33.858143 L 10.069930 33.339049 L 10.909091 33.389628 L 11.748252 33.860904 L 12.587413 35.527680 L 13.426573 34.802439 L 14.265734 34.178151 L 15.104895 34.368932 L 15.944056 33.775795 L 16.783217 27.511070 L 17.622378 26.475124 L 18.461538 25.672669 L 19.300699 25.559504 L 20.139860 25.408421 L 20.979021 24.350217 L 21.818182 16.625570 L 22.657343 18.985496 L 23.496503 18.714989 L 24.335664 19.475382 L 25.174825 23.160835 L 26.013986 23.590381 L 26.853147 24.013771 L 27.692308 24.254609 L 28.531469 25.605825 L 29.370629 25.588530 L 30.209790 24.513489 L 31.048951 24.247240 L 31.888112 24.310055 L 32.727273 24.051521 L 33.566434 23.604664 L 34.405594 24.140142 L 35.244755 23.734904 L 36.083916 24.776888 L 36.923077 24.741895 L 37.762238 23.192399 L 38.601399 22.708037 L 39.440559 22.924004 L 40.279720 22.433553 L 41.118881 20.923444 L 41.958042 23.409746 L 42.797203 25.147389 L 43.636364 25.377454 L 44.475524 24.424881 L 45.314685 22.835540 L 46.153846 22.809163 L 46.993007 21.925097 L 47.832168 21.296049 L 48.671329 22.229609 L 49.510490 21.451015 L 50.349650 21.418299 L 51.188811 21.602024 L 52.027972 20.562874 L 52.867133 20.616816 L 53.706294 20.560038 L 54.545455 20.416519 L 55.384615 19.519756 L 56.223776 18.989909 L 57.062937 16.711411 L 57.902098 16.809506 L 58.741259 17.788121 L 59.580420 18.627468 L 60.419580 18.826552 L 61.258741 19.495228 L 62.097902 19.540389 L 62.937063 21.689411 L 63.776224 24.426373 L 64.615385 24.322008 L 65.454545 24.464368 L 66.293706 27.360206 L 67.132867 26.964873 L 67.972028 29.584827 L 68.811189 28.886345 L 69.650350 30.435274 L 70.489510 30.226872 L 71.328671 29.900884 L 72.167832 30.246349 L 73.006993 29.569709 L 73.846154 28.558707 L 74.685315 26.351979 L 75.524476 26.223942 L 76.363636 25.802171 L 77.202797 26.273443 L 78.041958 27.600358 L 78.881119 27.295846 L 79.720280 26.554291 L 80.559441 29.390523 L 81.398601 28.280454 L 82.237762 27.455069 L 83.076923 24.552785 L 83.916084 20.970640 L 84.755245 22.878261 L 85.594406 21.486438 L 86.433566 23.799485 L 87.272727 22.750932 L 88.111888 23.154939 L 88.951049 23.236276 L 89.790210 21.475596 L 90.629371 22.263043 L 91.468531 20.834363 L 92.307692 21.865153 L 93.146853 23.724546 L 93.986014 18.963616 L 94.825175 20.070363 L 95.664336 23.509697 L 96.503497 22.722182 L 97.342657 23.009995 L 98.181818 24.666580 L 99.020979 26.298433 L 99.860140 25.121517 L 100.699301 21.729268 L 101.538462 26.589079 L 102.377622 24.324542 L 103.216783 23.301249 L 104.055944 24.138113 L 104.895105 20.058980 L 105.734266 20.764886 L 106.573427 20.322067 L 107.412587 19.573115 L 108.251748 18.832510 L 109.090909 18.644010 L 109.930070 17.344239 L 110.769231 15.872269 L 111.608392 16.761614 L 112.447552 16.590091 L 113.286713 15.436402 L 114.125874 15.424525 L 114.965035 16.220738 L 115.804196 12.870247 L 116.643357 8.800000 L 117.482517 11.153842 L 118.321678 13.076999 L 119.160839 13.435590 L 120.000000 13.920278"></path>
      <path stroke="none" fill-opacity="0.6" fill="url(#color_grad)" d="M 0 40 L 0.000000 26.367962 L 0.839161 27.036570 L 1.678322 29.070183 L 2.517483 29.766386 L 3.356643 29.450215 L 4.195804 31.707910 L 5.034965 32.158243 L 5.874126 36.800000 L 6.713287 36.226104 L 7.552448 35.915780 L 8.391608 35.401318 L 9.230769 33.858143 L 10.069930 33.339049 L 10.909091 33.389628 L 11.748252 33.860904 L 12.587413 35.527680 L 13.426573 34.802439 L 14.265734 34.178151 L 15.104895 34.368932 L 15.944056 33.775795 L 16.783217 27.511070 L 17.622378 26.475124 L 18.461538 25.672669 L 19.300699 25.559504 L 20.139860 25.408421 L 20.979021 24.350217 L 21.818182 16.625570 L 22.657343 18.985496 L 23.496503 18.714989 L 24.335664 19.475382 L 25.174825 23.160835 L 26.013986 23.590381 L 26.853147 24.013771 L 27.692308 24.254609 L 28.531469 25.605825 L 29.370629 25.588530 L 30.209790 24.513489 L 31.048951 24.247240 L 31.888112 24.310055 L 32.727273 24.051521 L 33.566434 23.604664 L 34.405594 24.140142 L 35.244755 23.734904 L 36.083916 24.776888 L 36.923077 24.741895 L 37.762238 23.192399 L 38.601399 22.708037 L 39.440559 22.924004 L 40.279720 22.433553 L 41.118881 20.923444 L 41.958042 23.409746 L 42.797203 25.147389 L 43.636364 25.377454 L 44.475524 24.424881 L 45.314685 22.835540 L 46.153846 22.809163 L 46.993007 21.925097 L 47.832168 21.296049 L 48.671329 22.229609 L 49.510490 21.451015 L 50.349650 21.418299 L 51.188811 21.602024 L 52.027972 20.562874 L 52.867133 20.616816 L 53.706294 20.560038 L 54.545455 20.416519 L 55.384615 19.519756 L 56.223776 18.989909 L 57.062937 16.711411 L 57.902098 16.809506 L 58.741259 17.788121 L 59.580420 18.627468 L 60.419580 18.826552 L 61.258741 19.495228 L 62.097902 19.540389 L 62.937063 21.689411 L 63.776224 24.426373 L 64.615385 24.322008 L 65.454545 24.464368 L 66.293706 27.360206 L 67.132867 26.964873 L 67.972028 29.584827 L 68.811189 28.886345 L 69.650350 30.435274 L 70.489510 30.226872 L 71.328671 29.900884 L 72.167832 30.246349 L 73.006993 29.569709 L 73.846154 28.558707 L 74.685315 26.351979 L 75.524476 26.223942 L 76.363636 25.802171 L 77.202797 26.273443 L 78.041958 27.600358 L 78.881119 27.295846 L 79.720280 26.554291 L 80.559441 29.390523 L 81.398601 28.280454 L 82.237762 27.455069 L 83.076923 24.552785 L 83.916084 20.970640 L 84.755245 22.878261 L 85.594406 21.486438 L 86.433566 23.799485 L 87.272727 22.750932 L 88.111888 23.154939 L 88.951049 23.236276 L 89.790210 21.475596 L 90.629371 22.263043 L 91.468531 20.834363 L 92.307692 21.865153 L 93.146853 23.724546 L 93.986014 18.963616 L 94.825175 20.070363 L 95.664336 23.509697 L 96.503497 22.722182 L 97.342657 23.009995 L 98.181818 24.666580 L 99.020979 26.298433 L 99.860140 25.121517 L 100.699301 21.729268 L 101.538462 26.589079 L 102.377622 24.324542 L 103.216783 23.301249 L 104.055944 24.138113 L 104.895105 20.058980 L 105.734266 20.764886 L 106.573427 20.322067 L 107.412587 19.573115 L 108.251748 18.832510 L 109.090909 18.644010 L 109.930070 17.344239 L 110.769231 15.872269 L 111.608392 16.761614 L 112.447552 16.590091 L 113.286713 15.436402 L 114.125874 15.424525 L 114.965035 16.220738 L 115.804196 12.870247 L 116.643357 8.800000 L 117.482517 11.153842 L 118.321678 13.076999 L 119.160839 13.435590 L 120.000000 13.920278 L 120 40 Z"></path>
    </g>
  </svg>