<svg xmlns="http://www.w3.org/2000/svg" viewBox="0 0 120 40" width="120" height="40">
    <defs>
      <linearGradient id="color_grad" x1="0%" x2="0%" y1="0%" y2="100%">
        <stop offset="0%" style="stop-color:#888888;stop-opacity:0.4;"></stop>
        <stop offset="100%" style="stop-color:#888888;stop-opacity:0.0;"></stop>
      </linearGradient>
    </defs>
    <g>
      <path stroke="#888888" stroke-width="2" stroke-linecap="round" stroke-linejoin="round" fill="none" d="M 0.000000 8.800000 L 0.839161 10.544548 L 1.678322 10.544548 L 2.517483 10.544548 L 3.356643 10.544548 L 4.195804 10.544548 L 5.034965 14.936418 L 5.874126 27.990031 L 6.713287 27.990031 L 7.552448 27.990031 L 8.391608 27.990031 L 9.230769 27.990031 L 10.069930 27.990031 L 10.909091 27.990031 L 11.748252 27.990031 L 12.587413 27.990031 L 13.426573 27.990031 L 14.265734 27.990031 L 15.104895 27.990031 L 15.944056 27.990031 L 16.783217 13.161371 L 17.622378 13.161371 L 18.461538 13.161371 L 19.300699 13.161371 L 20.139860 13.161371 L 20.979021 13.161371 L 21.818182 13.161371 L 22.657343 13.161371 L 23.496503 14.905919 L 24.335664 16.229580 L 25.174825 27.990031 L 26.013986 27.990031 L 26.853147 27.990031 L 27.692308 27.990031 L 28.531469 27.990031 L 29.370629 27.990031 L 30.209790 27.990031 L 31.048951 27.990031 L 31.888112 27.990031 L 32.727273 27.990031 L 33.566434 27.990031 L 34.405594 27.990031 L 35.244755 27.990031 L 36.083916 27.990031 L 36.923077 27.990031 L 37.762238 27.990031 L 38.601399 27.990031 L 39.440559 27.990031 L 40.279720 27.990031 L 41.118881 27.990031 L 41.958042 27.990031 L 42.797203 27.990031 L 43.636364 27.990031 L 44.475524 28.862305 L 45.314685 28.862305 L 46.153846 28.862305 L 46.993007 28.862305 L 47.832168 28.862305 L 48.671329 28.862305 L 49.510490 28.862305 L 50.349650 28.862305 L 51.188811 28.862305 L 52.027972 28.862305 L 52.867133 28.862305 L 53.706294 28.862305 L 54.545455 28.862305 L 55.384615 28.862305 L 56.223776 28.862305 L 57.062937 28.862305 L 57.902098 28.862305 L 58.741259 28.862305 L 59.580420 28.862305 L 60.419580 28.862305 L 61.258741 28.862305 L 62.097902 28.862305 L 62.937063 28.862305 L 63.776224 28.862305 L 64.615385 28.862305 L 65.454545 28.862305 L 66.293706 28.862305 L 67.132867 28.862305 L 67.972028 28.862305 L 68.811189 28.862305 L 69.650350 28.862305 L 70.489510 28.862305 L 71.328671 28.862305 L 72.167832 28.862305 L 73.006993 28.862305 L 73.846154 28.862305 L 74.685315 28.862305 L 75.524476 28.862305 L 76.363636 28.862305 L 77.202797 28.862305 L 78.041958 28.862305 L 78.881119 28.862305 L 79.720280 28.862305 L 80.559441 28.862305 L 81.398601 28.862305 L 82.237762 28.862305 L 83.076923 28.862305 L 83.916084 28.862305 L 84.755245 28.862305 L 85.594406 28.862305 L 86.433566 36.712773 L 87.272727 36.712773 L 88.111888 36.712773 L 88.951049 36.712773 L 89.790210 36.712773 L 90.629371 36.712773 L 91.468531 36.712773 L 92.307692 36.712773 L 93.146853 36.712773 L 93.986014 36.712773 L 94.825175 36.712773 L 95.664336 36.712773 L 96.503497 36.712773 L 97.342657 36.712773 L 98.181818 36.712773 L 99.020979 36.712773 L 99.860140 36.712773 L 100.699301 36.712773 L 101.538462 36.712773 L 102.377622 36.712773 L 103.216783 36.726802 L 104.055944 36.800000 L 104.895105 36.800000 L 105.734266 36.800000 L 106.573427 36.800000 L 107.412587 36.800000 L 108.251748 36.800000 L 109.090909 36.800000 L 109.930070 36.800000 L 110.769231 36.800000 L 111.608392 36.800000 L 112.447552 36.800000 L 113.286713 36.800000 L 114.125874 36.800000 L 114.965035 36.800000 L 115.804196 36.800000 L 116.643357 36.800000 L 117.482517 36.800000 L 118.321678 36.800000 L 119.160839 36.800000 L 120.000000 36.800000"></path>
      <path stroke="none" fill-opacity="0.6" fill="url(#color_grad)" d="M 0 40 L 0.000000 8.800000 L 0.839161 10.544548 L 1.678322 10.544548 L 2.517483 10.544548 L 3.356643 10.544548 L 4.195804 10.544548 L 5.034965 14.936418 L 5.874126 27.990031 L 6.713287 27.990031 L 7.552448 27.990031 L 8.391608 27.990031 L 9.230769 27.990031 L 10.069930 27.990031 L 10.909091 27.990031 L 11.748252 27.990031 L 12.587413 27.990031 L 13.426573 27.990031 L 14.265734 27.990031 L 15.104895 27.990031 L 15.944056 27.990031 L 16.783217 13.161371 L 17.622378 13.161371 L 18.461538 13.161371 L 19.300699 13.161371 L 20.139860 13.161371 L 20.979021 13.161371 L 21.818182 13.161371 L 22.657343 13.161371 L 23.496503 14.905919 L 24.335664 16.229580 L 25.174825 27.990031 L 26.013986 27.990031 L 26.853147 27.990031 L 27.692308 27.990031 L 28.531469 27.990031 L 29.370629 27.990031 L 30.209790 27.990031 L 31.048951 27.990031 L 31.888112 27.990031 L 32.727273 27.990031 L 33.566434 27.990031 L 34.405594 27.990031 L 35.244755 27.990031 L 36.083916 27.990031 L 36.923077 27.990031 L 37.762238 27.990031 L 38.601399 27.990031 L 39.440559 27.990031 L 40.279720 27.990031 L 41.118881 27.990031 L 41.958042 27.990031 L 42.797203 27.990031 L 43.636364 27.990031 L 44.475524 28.862305 L 45.314685 28.862305 L 46.153846 28.862305 L 46.993007 28.862305 L 47.832168 28.862305 L 48.671329 28.862305 L 49.510490 28.862305 L 50.349650 28.862305 L 51.188811 28.862305 L 52.027972 28.862305 L 52.867133 28.862305 L 53.706294 28.862305 L 54.545455 28.862305 L 55.384615 28.862305 L 56.223776 28.862305 L 57.062937 28.862305 L 57.902098 28.862305 L 58.741259 28.862305 L 59.580420 28.862305 L 60.419580 28.862305 L 61.258741 28.862305 L 62.097902 28.862305 L 62.937063 28.862305 L 63.776224 28.862305 L 64.615385 28.862305 L 65.454545 28.862305 L 66.293706 28.862305 L 67.132867 28.862305 L 67.972028 28.862305 L 68.811189 28.862305 L 69.650350 28.862305 L 70.489510 28.862305 L 71.328671 28.862305 L 72.167832 28.862305 L 73.006993 28.862305 L 73.846154 28.862305 L 74.685315 28.862305 L 75.524476 28.862305 L 76.363636 28.862305 L 77.202797 28.862305 L 78.041958 28.862305 L 78.881119 28.862305 L 79.720280 28.862305 L 80.559441 28.862305 L 81.398601 28.862305 L 82.237762 28.862305 L 83.076923 28.862305 L 83.916084 28.862305 L 84.755245 28.862305 L 85.594406 28.862305 L 86.433566 36.712773 L 87.272727 36.712773 L 88.111888 36.712773 L 88.951049 36.712773 L 89.790210 36.712773 L 90.629371 36.712773 L 91.468531 36.712773 L 92.307692 36.712773 L 93.146853 36.712773 L 93.986014 36.712773 L 94.825175 36.712773 L 95.664336 36.712773 L 96.503497 36.712773 L 97.342657 36.712773 L 98.181818 36.712773 L 99.020979 36.712773 L 99.860140 36.712773 L 100.699301 36.712773 L 101.538462 36.712773 L 102.377622 36.712773 L 103.216783 36.726802 L 104.055944 36.800000 L 104.895105 36.800000 L 105.734266 36.800000 L 106.573427 36.800000 L 107.412587 36.800000 L 108.251748 36.800000 L 109.090909 36.800000 L 109.930070 36.800000 L 110.769231 36.800000 L 111.608392 36.800000 L 112.447552 36.800000 L 113.286713 36.800000 L 114.125874 36.800000 L 114.965035 36.800000 L 115.804196 36.800000 L 116.643357 36.800000 L 117.482517 36.800000 L 118.321678 36.800000 L 119.160839 36.800000 L 120.000000 36.800000 L 120 40 Z"></path>
    </g>
  </svg>