<svg xmlns="http://www.w3.org/2000/svg" viewBox="0 0 120 40" width="120" height="40">
    <defs>
      <linearGradient id="color_grad" x1="0%" x2="0%" y1="0%" y2="100%">
        <stop offset="0%" style="stop-color:#EA3943;stop-opacity:0.4;"></stop>
        <stop offset="100%" style="stop-color:#EA3943;stop-opacity:0.0;"></stop>
      </linearGradient>
    </defs>
    <g>
      <path stroke="#EA3943" stroke-width="2" stroke-linecap="round" stroke-linejoin="round" fill="none" d="M 0.000000 28.754320 L 0.839161 28.016255 L 1.678322 30.022695 L 2.517483 30.703798 L 3.356643 30.395222 L 4.195804 33.578653 L 5.034965 31.584094 L 5.874126 26.374654 L 6.713287 24.232622 L 7.552448 27.763244 L 8.391608 35.024205 L 9.230769 33.482551 L 10.069930 25.095795 L 10.909091 25.144895 L 11.748252 23.367003 L 12.587413 24.249571 L 13.426573 22.707567 L 14.265734 22.050053 L 15.104895 19.901382 L 15.944056 18.488853 L 16.783217 17.316755 L 17.622378 15.519644 L 18.461538 22.563414 L 19.300699 22.449838 L 20.139860 22.311102 L 20.979021 21.234582 L 21.818182 13.430730 L 22.657343 13.337773 L 23.496503 12.257060 L 24.335664 11.855003 L 25.174825 11.207798 L 26.013986 14.979374 L 26.853147 8.800000 L 27.692308 9.049516 L 28.531469 17.885157 L 29.370629 17.875197 L 30.209790 24.194007 L 31.048951 23.935230 L 31.888112 23.986601 L 32.727273 23.725203 L 33.566434 23.293791 L 34.405594 23.223025 L 35.244755 23.414181 L 36.083916 24.461520 L 36.923077 32.667604 L 37.762238 31.181164 L 38.601399 19.059526 L 39.440559 19.278115 L 40.279720 11.278564 L 41.118881 9.685189 L 41.958042 15.633394 L 42.797203 17.428409 L 43.636364 20.488304 L 44.475524 16.344550 L 45.314685 16.699779 L 46.153846 30.518757 L 46.993007 29.677775 L 47.832168 24.465015 L 48.671329 21.606585 L 49.510490 20.817673 L 50.349650 20.781853 L 51.188811 20.983842 L 52.027972 23.801036 L 52.867133 20.831826 L 53.706294 20.781329 L 54.545455 20.647310 L 55.384615 19.743774 L 56.223776 19.228316 L 57.062937 24.712959 L 57.902098 24.802421 L 58.741259 25.733914 L 59.580420 11.343914 L 60.419580 11.400177 L 61.258741 12.090191 L 62.097902 12.144708 L 62.937063 14.353137 L 63.776224 18.426300 L 64.615385 18.725090 L 65.454545 18.864176 L 66.293706 26.705945 L 67.132867 26.316119 L 67.972028 30.532911 L 68.811189 29.840625 L 69.650350 31.372844 L 70.489510 33.269553 L 71.328671 34.856987 L 72.167832 31.190075 L 73.006993 30.532212 L 73.846154 34.005347 L 74.685315 33.889500 L 75.524476 29.312762 L 76.363636 26.803095 L 77.202797 33.826072 L 78.041958 36.700054 L 78.881119 34.798278 L 79.720280 30.000155 L 80.559441 34.379621 L 81.398601 36.544193 L 82.237762 33.310615 L 83.076923 30.524524 L 83.916084 25.400002 L 84.755245 30.584107 L 85.594406 29.262788 L 86.433566 30.353462 L 87.272727 29.347184 L 88.111888 29.740679 L 88.951049 29.814241 L 89.790210 28.134723 L 90.629371 28.896552 L 91.468531 27.511281 L 92.307692 26.799601 L 93.146853 28.603702 L 93.986014 23.989571 L 94.825175 25.070459 L 95.664336 20.798103 L 96.503497 20.017578 L 97.342657 20.288761 L 98.181818 21.973870 L 99.020979 29.428259 L 99.860140 21.584394 L 100.699301 18.156514 L 101.538462 23.080444 L 102.377622 20.783076 L 103.216783 19.739930 L 104.055944 20.558022 L 104.895105 16.438032 L 105.734266 17.147266 L 106.573427 16.702924 L 107.412587 15.945289 L 108.251748 15.204428 L 109.090909 23.657057 L 109.930070 18.044512 L 110.769231 21.919529 L 111.608392 23.578079 L 112.447552 23.419423 L 113.286713 22.310403 L 114.125874 22.294502 L 114.965035 23.064194 L 115.804196 19.856301 L 116.643357 18.219767 L 117.482517 34.359527 L 118.321678 36.056169 L 119.160839 36.375053 L 120.000000 36.800000"></path>
      <path stroke="none" fill-opacity="0.6" fill="url(#color_grad)" d="M 0 40 L 0.000000 28.754320 L 0.839161 28.016255 L 1.678322 30.022695 L 2.517483 30.703798 L 3.356643 30.395222 L 4.195804 33.578653 L 5.034965 31.584094 L 5.874126 26.374654 L 6.713287 24.232622 L 7.552448 27.763244 L 8.391608 35.024205 L 9.230769 33.482551 L 10.069930 25.095795 L 10.909091 25.144895 L 11.748252 23.367003 L 12.587413 24.249571 L 13.426573 22.707567 L 14.265734 22.050053 L 15.104895 19.901382 L 15.944056 18.488853 L 16.783217 17.316755 L 17.622378 15.519644 L 18.461538 22.563414 L 19.300699 22.449838 L 20.139860 22.311102 L 20.979021 21.234582 L 21.818182 13.430730 L 22.657343 13.337773 L 23.496503 12.257060 L 24.335664 11.855003 L 25.174825 11.207798 L 26.013986 14.979374 L 26.853147 8.800000 L 27.692308 9.049516 L 28.531469 17.885157 L 29.370629 17.875197 L 30.209790 24.194007 L 31.048951 23.935230 L 31.888112 23.986601 L 32.727273 23.725203 L 33.566434 23.293791 L 34.405594 23.223025 L 35.244755 23.414181 L 36.083916 24.461520 L 36.923077 32.667604 L 37.762238 31.181164 L 38.601399 19.059526 L 39.440559 19.278115 L 40.279720 11.278564 L 41.118881 9.685189 L 41.958042 15.633394 L 42.797203 17.428409 L 43.636364 20.488304 L 44.475524 16.344550 L 45.314685 16.699779 L 46.153846 30.518757 L 46.993007 29.677775 L 47.832168 24.465015 L 48.671329 21.606585 L 49.510490 20.817673 L 50.349650 20.781853 L 51.188811 20.983842 L 52.027972 23.801036 L 52.867133 20.831826 L 53.706294 20.781329 L 54.545455 20.647310 L 55.384615 19.743774 L 56.223776 19.228316 L 57.062937 24.712959 L 57.902098 24.802421 L 58.741259 25.733914 L 59.580420 11.343914 L 60.419580 11.400177 L 61.258741 12.090191 L 62.097902 12.144708 L 62.937063 14.353137 L 63.776224 18.426300 L 64.615385 18.725090 L 65.454545 18.864176 L 66.293706 26.705945 L 67.132867 26.316119 L 67.972028 30.532911 L 68.811189 29.840625 L 69.650350 31.372844 L 70.489510 33.269553 L 71.328671 34.856987 L 72.167832 31.190075 L 73.006993 30.532212 L 73.846154 34.005347 L 74.685315 33.889500 L 75.524476 29.312762 L 76.363636 26.803095 L 77.202797 33.826072 L 78.041958 36.700054 L 78.881119 34.798278 L 79.720280 30.000155 L 80.559441 34.379621 L 81.398601 36.544193 L 82.237762 33.310615 L 83.076923 30.524524 L 83.916084 25.400002 L 84.755245 30.584107 L 85.594406 29.262788 L 86.433566 30.353462 L 87.272727 29.347184 L 88.111888 29.740679 L 88.951049 29.814241 L 89.790210 28.134723 L 90.629371 28.896552 L 91.468531 27.511281 L 92.307692 26.799601 L 93.146853 28.603702 L 93.986014 23.989571 L 94.825175 25.070459 L 95.664336 20.798103 L 96.503497 20.017578 L 97.342657 20.288761 L 98.181818 21.973870 L 99.020979 29.428259 L 99.860140 21.584394 L 100.699301 18.156514 L 101.538462 23.080444 L 102.377622 20.783076 L 103.216783 19.739930 L 104.055944 20.558022 L 104.895105 16.438032 L 105.734266 17.147266 L 106.573427 16.702924 L 107.412587 15.945289 L 108.251748 15.204428 L 109.090909 23.657057 L 109.930070 18.044512 L 110.769231 21.919529 L 111.608392 23.578079 L 112.447552 23.419423 L 113.286713 22.310403 L 114.125874 22.294502 L 114.965035 23.064194 L 115.804196 19.856301 L 116.643357 18.219767 L 117.482517 34.359527 L 118.321678 36.056169 L 119.160839 36.375053 L 120.000000 36.800000 L 120 40 Z"></path>
    </g>
  </svg>