<svg xmlns="http://www.w3.org/2000/svg" viewBox="0 0 120 40" width="120" height="40">
    <defs>
      <linearGradient id="color_grad" x1="0%" x2="0%" y1="0%" y2="100%">
        <stop offset="0%" style="stop-color:#EA3943;stop-opacity:0.4;"></stop>
        <stop offset="100%" style="stop-color:#EA3943;stop-opacity:0.0;"></stop>
      </linearGradient>
    </defs>
    <g>
      <path stroke="#EA3943" stroke-width="2" stroke-linecap="round" stroke-linejoin="round" fill="none" d="M 0.000000 17.153288 L 0.839161 16.591953 L 1.678322 16.591953 L 2.517483 16.591953 L 3.356643 16.591953 L 4.195804 17.298528 L 5.034965 16.591953 L 5.874126 12.662610 L 6.713287 11.539941 L 7.552448 14.346614 L 8.391608 19.959961 L 9.230769 19.959961 L 10.069930 14.346614 L 10.909091 14.346614 L 11.748252 12.725417 L 12.587413 12.101276 L 13.426573 11.539941 L 14.265734 11.539941 L 15.104895 9.855937 L 15.944056 9.294603 L 16.783217 9.294603 L 17.622378 8.800000 L 18.461538 14.346614 L 19.300699 14.346614 L 20.139860 14.346614 L 20.979021 14.346614 L 21.818182 14.346614 L 22.657343 12.662610 L 23.496503 12.564475 L 24.335664 12.101276 L 25.174825 12.101276 L 26.013986 14.346614 L 26.853147 9.855937 L 27.692308 9.855937 L 28.531469 14.907949 L 29.370629 14.907949 L 30.209790 19.959961 L 31.048951 19.959961 L 31.888112 19.959961 L 32.727273 19.959961 L 33.566434 19.959961 L 34.405594 19.555643 L 35.244755 19.959961 L 36.083916 19.959961 L 36.923077 25.573307 L 37.762238 25.573307 L 38.601399 17.714622 L 39.440559 17.714622 L 40.279720 12.662610 L 41.118881 12.662610 L 41.958042 14.907949 L 42.797203 14.907949 L 43.636364 16.847105 L 44.475524 14.907949 L 45.314685 16.250442 L 46.153846 25.573307 L 46.993007 25.573307 L 47.832168 22.495780 L 48.671329 19.959961 L 49.510490 19.959961 L 50.349650 19.959961 L 51.188811 19.959961 L 52.027972 22.535034 L 52.867133 20.521295 L 53.706294 20.521295 L 54.545455 20.521295 L 55.384615 20.521295 L 56.223776 20.521295 L 57.062937 25.573307 L 57.902098 25.573307 L 58.741259 25.573307 L 59.580420 15.563494 L 60.419580 15.469284 L 61.258741 15.469284 L 62.097902 15.469284 L 62.937063 15.469284 L 63.776224 16.317174 L 64.615385 16.591953 L 65.454545 16.591953 L 66.293706 19.959961 L 67.132867 19.959961 L 67.972028 21.082630 L 68.811189 21.082630 L 69.650350 21.082630 L 70.489510 22.554661 L 71.328671 23.889303 L 72.167832 21.082630 L 73.006993 21.082630 L 73.846154 24.191560 L 74.685315 25.573307 L 75.524476 22.523258 L 76.363636 21.082630 L 77.202797 25.573307 L 78.041958 26.695976 L 78.881119 25.573307 L 79.720280 22.766634 L 80.559441 23.889303 L 81.398601 26.134642 L 82.237762 24.450638 L 83.076923 24.450638 L 83.916084 23.327969 L 84.755245 25.573307 L 85.594406 25.573307 L 86.433566 26.695976 L 87.272727 26.695976 L 88.111888 26.695976 L 88.951049 26.695976 L 89.790210 26.695976 L 90.629371 26.695976 L 91.468531 26.695976 L 92.307692 25.573307 L 93.146853 25.573307 L 93.986014 25.573307 L 94.825175 25.573307 L 95.664336 20.521295 L 96.503497 20.521295 L 97.342657 20.521295 L 98.181818 20.521295 L 99.020979 24.450638 L 99.860140 19.959961 L 100.699301 19.959961 L 101.538462 19.959961 L 102.377622 19.959961 L 103.216783 19.959961 L 104.055944 19.959961 L 104.895105 19.959961 L 105.734266 19.959961 L 106.573427 19.959961 L 107.412587 19.959961 L 108.251748 19.959961 L 109.090909 25.573307 L 109.930070 22.766634 L 110.769231 26.177821 L 111.608392 26.695976 L 112.447552 26.695976 L 113.286713 26.695976 L 114.125874 26.695976 L 114.965035 26.695976 L 115.804196 26.695976 L 116.643357 28.097350 L 117.482517 36.800000 L 118.321678 36.800000 L 119.160839 36.800000 L 120.000000 36.800000"></path>
      <path stroke="none" fill-opacity="0.6" fill="url(#color_grad)" d="M 0 40 L 0.000000 17.153288 L 0.839161 16.591953 L 1.678322 16.591953 L 2.517483 16.591953 L 3.356643 16.591953 L 4.195804 17.298528 L 5.034965 16.591953 L 5.874126 12.662610 L 6.713287 11.539941 L 7.552448 14.346614 L 8.391608 19.959961 L 9.230769 19.959961 L 10.069930 14.346614 L 10.909091 14.346614 L 11.748252 12.725417 L 12.587413 12.101276 L 13.426573 11.539941 L 14.265734 11.539941 L 15.104895 9.855937 L 15.944056 9.294603 L 16.783217 9.294603 L 17.622378 8.800000 L 18.461538 14.346614 L 19.300699 14.346614 L 20.139860 14.346614 L 20.979021 14.346614 L 21.818182 14.346614 L 22.657343 12.662610 L 23.496503 12.564475 L 24.335664 12.101276 L 25.174825 12.101276 L 26.013986 14.346614 L 26.853147 9.855937 L 27.692308 9.855937 L 28.531469 14.907949 L 29.370629 14.907949 L 30.209790 19.959961 L 31.048951 19.959961 L 31.888112 19.959961 L 32.727273 19.959961 L 33.566434 19.959961 L 34.405594 19.555643 L 35.244755 19.959961 L 36.083916 19.959961 L 36.923077 25.573307 L 37.762238 25.573307 L 38.601399 17.714622 L 39.440559 17.714622 L 40.279720 12.662610 L 41.118881 12.662610 L 41.958042 14.907949 L 42.797203 14.907949 L 43.636364 16.847105 L 44.475524 14.907949 L 45.314685 16.250442 L 46.153846 25.573307 L 46.993007 25.573307 L 47.832168 22.495780 L 48.671329 19.959961 L 49.510490 19.959961 L 50.349650 19.959961 L 51.188811 19.959961 L 52.027972 22.535034 L 52.867133 20.521295 L 53.706294 20.521295 L 54.545455 20.521295 L 55.384615 20.521295 L 56.223776 20.521295 L 57.062937 25.573307 L 57.902098 25.573307 L 58.741259 25.573307 L 59.580420 15.563494 L 60.419580 15.469284 L 61.258741 15.469284 L 62.097902 15.469284 L 62.937063 15.469284 L 63.776224 16.317174 L 64.615385 16.591953 L 65.454545 16.591953 L 66.293706 19.959961 L 67.132867 19.959961 L 67.972028 21.082630 L 68.811189 21.082630 L 69.650350 21.082630 L 70.489510 22.554661 L 71.328671 23.889303 L 72.167832 21.082630 L 73.006993 21.082630 L 73.846154 24.191560 L 74.685315 25.573307 L 75.524476 22.523258 L 76.363636 21.082630 L 77.202797 25.573307 L 78.041958 26.695976 L 78.881119 25.573307 L 79.720280 22.766634 L 80.559441 23.889303 L 81.398601 26.134642 L 82.237762 24.450638 L 83.076923 24.450638 L 83.916084 23.327969 L 84.755245 25.573307 L 85.594406 25.573307 L 86.433566 26.695976 L 87.272727 26.695976 L 88.111888 26.695976 L 88.951049 26.695976 L 89.790210 26.695976 L 90.629371 26.695976 L 91.468531 26.695976 L 92.307692 25.573307 L 93.146853 25.573307 L 93.986014 25.573307 L 94.825175 25.573307 L 95.664336 20.521295 L 96.503497 20.521295 L 97.342657 20.521295 L 98.181818 20.521295 L 99.020979 24.450638 L 99.860140 19.959961 L 100.699301 19.959961 L 101.538462 19.959961 L 102.377622 19.959961 L 103.216783 19.959961 L 104.055944 19.959961 L 104.895105 19.959961 L 105.734266 19.959961 L 106.573427 19.959961 L 107.412587 19.959961 L 108.251748 19.959961 L 109.090909 25.573307 L 109.930070 22.766634 L 110.769231 26.177821 L 111.608392 26.695976 L 112.447552 26.695976 L 113.286713 26.695976 L 114.125874 26.695976 L 114.965035 26.695976 L 115.804196 26.695976 L 116.643357 28.097350 L 117.482517 36.800000 L 118.321678 36.800000 L 119.160839 36.800000 L 120.000000 36.800000 L 120 40 Z"></path>
    </g>
  </svg>