<svg xmlns="http://www.w3.org/2000/svg" viewBox="0 0 120 40" width="120" height="40">
    <defs>
      <linearGradient id="color_grad" x1="0%" x2="0%" y1="0%" y2="100%">
        <stop offset="0%" style="stop-color:#EA3943;stop-opacity:0.4;"></stop>
        <stop offset="100%" style="stop-color:#EA3943;stop-opacity:0.0;"></stop>
      </linearGradient>
    </defs>
    <g>
      <path stroke="#EA3943" stroke-width="2" stroke-linecap="round" stroke-linejoin="round" fill="none" d="M 0.000000 13.297604 L 0.839161 8.800000 L 1.678322 13.611493 L 2.517483 13.611493 L 3.356643 19.496901 L 4.195804 19.496901 L 5.034965 19.496901 L 5.874126 13.258368 L 6.713287 13.258368 L 7.552448 13.406532 L 8.391608 13.258368 L 9.230769 13.258368 L 10.069930 13.258368 L 10.909091 13.258368 L 11.748252 13.258368 L 12.587413 13.258368 L 13.426573 18.162875 L 14.265734 18.162875 L 15.104895 18.162875 L 15.944056 18.162875 L 16.783217 17.668994 L 17.622378 17.574334 L 18.461538 17.574334 L 19.300699 17.574334 L 20.139860 17.574334 L 20.979021 16.397252 L 21.818182 16.397252 L 22.657343 16.397252 L 23.496503 16.397252 L 24.335664 16.397252 L 25.174825 16.397252 L 26.013986 16.397252 L 26.853147 14.435450 L 27.692308 13.258368 L 28.531469 13.258368 L 29.370629 13.258368 L 30.209790 13.258368 L 31.048951 13.689965 L 31.888112 13.689965 L 32.727273 13.689965 L 33.566434 17.181973 L 34.405594 17.181973 L 35.244755 17.181973 L 36.083916 17.181973 L 36.923077 17.181973 L 37.762238 17.181973 L 38.601399 21.105579 L 39.440559 21.105579 L 40.279720 21.105579 L 41.118881 21.105579 L 41.958042 21.105579 L 42.797203 21.890300 L 43.636364 23.067381 L 44.475524 25.029184 L 45.314685 23.067381 L 46.153846 22.282660 L 46.993007 22.178397 L 47.832168 25.029184 L 48.671329 25.029184 L 49.510490 28.952789 L 50.349650 25.029184 L 51.188811 25.068420 L 52.027972 26.990987 L 52.867133 26.990987 L 53.706294 26.990987 L 54.545455 26.990987 L 55.384615 26.990987 L 56.223776 26.990987 L 57.062937 26.990987 L 57.902098 26.990987 L 58.741259 26.990987 L 59.580420 26.990987 L 60.419580 27.032143 L 61.258741 27.114457 L 62.097902 32.259044 L 62.937063 28.952789 L 63.776224 28.952789 L 64.615385 27.383347 L 65.454545 36.800000 L 66.293706 27.383347 L 67.132867 27.383347 L 67.972028 27.814944 L 68.811189 27.814944 L 69.650350 27.814944 L 70.489510 27.814944 L 71.328671 27.814944 L 72.167832 27.814944 L 73.006993 27.814944 L 73.846154 27.814944 L 74.685315 27.814944 L 75.524476 27.814944 L 76.363636 27.814944 L 77.202797 27.814944 L 78.041958 27.814944 L 78.881119 27.854180 L 79.720280 29.384386 L 80.559441 29.815983 L 81.398601 29.815983 L 82.237762 29.815983 L 83.076923 29.815983 L 83.916084 29.815983 L 84.755245 29.815983 L 85.594406 33.268755 L 86.433566 32.876395 L 87.272727 32.876395 L 88.111888 32.876395 L 88.951049 32.876395 L 89.790210 32.876395 L 90.629371 32.876395 L 91.468531 32.876395 L 92.307692 29.496058 L 93.146853 27.383347 L 93.986014 27.383347 L 94.825175 27.383347 L 95.664336 27.383347 L 96.503497 27.422583 L 97.342657 27.422583 L 98.181818 27.422583 L 99.020979 28.168068 L 99.860140 28.168068 L 100.699301 28.168068 L 101.538462 28.207304 L 102.377622 28.762371 L 103.216783 32.245325 L 104.055944 28.952789 L 104.895105 28.952789 L 105.734266 28.952789 L 106.573427 28.952789 L 107.412587 28.952789 L 108.251748 28.952789 L 109.090909 28.952789 L 109.930070 28.952789 L 110.769231 28.952789 L 111.608392 28.952789 L 112.447552 33.851534 L 113.286713 28.992025 L 114.125874 28.992025 L 114.965035 28.992025 L 115.804196 36.800000 L 116.643357 36.800000 L 117.482517 33.268755 L 118.321678 33.268755 L 119.160839 36.800000 L 120.000000 36.800000"></path>
      <path stroke="none" fill-opacity="0.6" fill="url(#color_grad)" d="M 0 40 L 0.000000 13.297604 L 0.839161 8.800000 L 1.678322 13.611493 L 2.517483 13.611493 L 3.356643 19.496901 L 4.195804 19.496901 L 5.034965 19.496901 L 5.874126 13.258368 L 6.713287 13.258368 L 7.552448 13.406532 L 8.391608 13.258368 L 9.230769 13.258368 L 10.069930 13.258368 L 10.909091 13.258368 L 11.748252 13.258368 L 12.587413 13.258368 L 13.426573 18.162875 L 14.265734 18.162875 L 15.104895 18.162875 L 15.944056 18.162875 L 16.783217 17.668994 L 17.622378 17.574334 L 18.461538 17.574334 L 19.300699 17.574334 L 20.139860 17.574334 L 20.979021 16.397252 L 21.818182 16.397252 L 22.657343 16.397252 L 23.496503 16.397252 L 24.335664 16.397252 L 25.174825 16.397252 L 26.013986 16.397252 L 26.853147 14.435450 L 27.692308 13.258368 L 28.531469 13.258368 L 29.370629 13.258368 L 30.209790 13.258368 L 31.048951 13.689965 L 31.888112 13.689965 L 32.727273 13.689965 L 33.566434 17.181973 L 34.405594 17.181973 L 35.244755 17.181973 L 36.083916 17.181973 L 36.923077 17.181973 L 37.762238 17.181973 L 38.601399 21.105579 L 39.440559 21.105579 L 40.279720 21.105579 L 41.118881 21.105579 L 41.958042 21.105579 L 42.797203 21.890300 L 43.636364 23.067381 L 44.475524 25.029184 L 45.314685 23.067381 L 46.153846 22.282660 L 46.993007 22.178397 L 47.832168 25.029184 L 48.671329 25.029184 L 49.510490 28.952789 L 50.349650 25.029184 L 51.188811 25.068420 L 52.027972 26.990987 L 52.867133 26.990987 L 53.706294 26.990987 L 54.545455 26.990987 L 55.384615 26.990987 L 56.223776 26.990987 L 57.062937 26.990987 L 57.902098 26.990987 L 58.741259 26.990987 L 59.580420 26.990987 L 60.419580 27.032143 L 61.258741 27.114457 L 62.097902 32.259044 L 62.937063 28.952789 L 63.776224 28.952789 L 64.615385 27.383347 L 65.454545 36.800000 L 66.293706 27.383347 L 67.132867 27.383347 L 67.972028 27.814944 L 68.811189 27.814944 L 69.650350 27.814944 L 70.489510 27.814944 L 71.328671 27.814944 L 72.167832 27.814944 L 73.006993 27.814944 L 73.846154 27.814944 L 74.685315 27.814944 L 75.524476 27.814944 L 76.363636 27.814944 L 77.202797 27.814944 L 78.041958 27.814944 L 78.881119 27.854180 L 79.720280 29.384386 L 80.559441 29.815983 L 81.398601 29.815983 L 82.237762 29.815983 L 83.076923 29.815983 L 83.916084 29.815983 L 84.755245 29.815983 L 85.594406 33.268755 L 86.433566 32.876395 L 87.272727 32.876395 L 88.111888 32.876395 L 88.951049 32.876395 L 89.790210 32.876395 L 90.629371 32.876395 L 91.468531 32.876395 L 92.307692 29.496058 L 93.146853 27.383347 L 93.986014 27.383347 L 94.825175 27.383347 L 95.664336 27.383347 L 96.503497 27.422583 L 97.342657 27.422583 L 98.181818 27.422583 L 99.020979 28.168068 L 99.860140 28.168068 L 100.699301 28.168068 L 101.538462 28.207304 L 102.377622 28.762371 L 103.216783 32.245325 L 104.055944 28.952789 L 104.895105 28.952789 L 105.734266 28.952789 L 106.573427 28.952789 L 107.412587 28.952789 L 108.251748 28.952789 L 109.090909 28.952789 L 109.930070 28.952789 L 110.769231 28.952789 L 111.608392 28.952789 L 112.447552 33.851534 L 113.286713 28.992025 L 114.125874 28.992025 L 114.965035 28.992025 L 115.804196 36.800000 L 116.643357 36.800000 L 117.482517 33.268755 L 118.321678 33.268755 L 119.160839 36.800000 L 120.000000 36.800000 L 120 40 Z"></path>
    </g>
  </svg>