<svg xmlns="http://www.w3.org/2000/svg" viewBox="0 0 120 40" width="120" height="40">
    <defs>
      <linearGradient id="color_grad" x1="0%" x2="0%" y1="0%" y2="100%">
        <stop offset="0%" style="stop-color:#16C784;stop-opacity:0.4;"></stop>
        <stop offset="100%" style="stop-color:#16C784;stop-opacity:0.0;"></stop>
      </linearGradient>
    </defs>
    <g>
      <path stroke="#16C784" stroke-width="2" stroke-linecap="round" stroke-linejoin="round" fill="none" d="M 0.000000 15.304610 L 0.839161 10.235324 L 1.678322 17.145469 L 2.517483 17.639844 L 3.356643 24.019896 L 4.195804 25.540224 L 5.034965 24.833972 L 5.874126 18.013688 L 6.713287 17.591863 L 7.552448 17.530133 L 8.391608 16.986717 L 9.230769 15.852428 L 10.069930 15.471502 L 10.909091 15.508416 L 11.748252 15.854386 L 12.587413 17.079198 L 13.426573 22.070266 L 14.265734 21.630637 L 15.104895 21.765502 L 15.944056 21.347218 L 16.783217 20.017887 L 17.622378 19.197185 L 18.461538 18.644719 L 19.300699 18.566638 L 20.139860 18.463890 L 20.979021 16.370779 L 21.818182 11.001289 L 22.657343 12.642694 L 23.496503 12.009912 L 24.335664 12.201819 L 25.174825 11.759856 L 26.013986 12.067518 L 26.853147 10.028017 L 27.692308 8.800000 L 28.531469 9.792411 L 29.370629 9.779256 L 30.209790 8.989661 L 31.048951 9.308481 L 31.888112 9.355384 L 32.727273 9.165624 L 33.566434 13.016428 L 34.405594 13.396641 L 35.244755 13.108445 L 36.083916 13.847912 L 36.923077 13.822838 L 37.762238 12.723721 L 38.601399 17.094154 L 39.440559 17.242381 L 40.279720 16.906124 L 41.118881 15.870875 L 41.958042 17.574850 L 42.797203 19.697901 L 43.636364 21.249178 L 44.475524 22.734106 L 45.314685 19.321100 L 46.153846 18.359549 L 46.993007 17.633959 L 47.832168 20.662093 L 48.671329 21.280661 L 49.510490 25.518632 L 50.349650 20.743398 L 51.188811 20.912753 L 52.027972 22.564929 L 52.867133 22.600141 L 53.706294 22.563069 L 54.545455 22.469440 L 55.384615 21.887014 L 56.223776 21.543032 L 57.062937 20.062545 L 57.902098 20.126254 L 58.741259 20.762329 L 59.580420 21.306981 L 60.419580 21.486811 L 61.258741 22.021394 L 62.097902 28.347510 L 62.937063 25.671202 L 63.776224 27.415840 L 64.615385 25.475626 L 65.454545 36.800000 L 66.293706 27.442951 L 67.132867 27.186743 L 67.972028 29.383482 L 68.811189 28.933418 L 69.650350 29.931626 L 70.489510 29.797690 L 71.328671 29.587446 L 72.167832 29.810341 L 73.006993 29.374728 L 73.846154 28.722382 L 74.685315 27.300262 L 75.524476 27.217850 L 76.363636 26.945321 L 77.202797 27.248868 L 78.041958 28.104318 L 78.881119 27.954973 L 79.720280 29.281109 L 80.559441 31.583436 L 81.398601 30.881941 L 82.237762 30.360641 L 83.076923 28.525559 L 83.916084 26.260987 L 84.755245 27.467659 L 85.594406 30.769756 L 86.433566 29.921774 L 87.272727 29.269349 L 88.111888 29.520582 L 88.951049 29.570690 L 89.790210 28.474996 L 90.629371 28.965683 L 91.468531 28.076514 L 92.307692 24.567674 L 93.146853 23.196701 L 93.986014 20.067956 L 94.825175 20.795533 L 95.664336 23.056149 L 96.503497 22.585769 L 97.342657 22.775628 L 98.181818 23.863162 L 99.020979 25.830349 L 99.860140 25.062129 L 100.699301 22.849653 L 101.538462 26.067181 L 102.377622 25.264154 L 103.216783 28.837910 L 104.055944 25.351651 L 104.895105 22.710802 L 105.734266 23.167839 L 106.573427 22.881532 L 107.412587 22.396217 L 108.251748 21.917409 L 109.090909 21.795017 L 109.930070 20.953959 L 110.769231 20.000716 L 111.608392 20.576357 L 112.447552 26.642288 L 113.286713 19.767949 L 114.125874 19.760096 L 114.965035 20.275995 L 115.804196 28.139659 L 116.643357 25.706592 L 117.482517 22.537679 L 118.321678 23.730345 L 119.160839 28.477321 L 120.000000 28.767099"></path>
      <path stroke="none" fill-opacity="0.6" fill="url(#color_grad)" d="M 0 40 L 0.000000 15.304610 L 0.839161 10.235324 L 1.678322 17.145469 L 2.517483 17.639844 L 3.356643 24.019896 L 4.195804 25.540224 L 5.034965 24.833972 L 5.874126 18.013688 L 6.713287 17.591863 L 7.552448 17.530133 L 8.391608 16.986717 L 9.230769 15.852428 L 10.069930 15.471502 L 10.909091 15.508416 L 11.748252 15.854386 L 12.587413 17.079198 L 13.426573 22.070266 L 14.265734 21.630637 L 15.104895 21.765502 L 15.944056 21.347218 L 16.783217 20.017887 L 17.622378 19.197185 L 18.461538 18.644719 L 19.300699 18.566638 L 20.139860 18.463890 L 20.979021 16.370779 L 21.818182 11.001289 L 22.657343 12.642694 L 23.496503 12.009912 L 24.335664 12.201819 L 25.174825 11.759856 L 26.013986 12.067518 L 26.853147 10.028017 L 27.692308 8.800000 L 28.531469 9.792411 L 29.370629 9.779256 L 30.209790 8.989661 L 31.048951 9.308481 L 31.888112 9.355384 L 32.727273 9.165624 L 33.566434 13.016428 L 34.405594 13.396641 L 35.244755 13.108445 L 36.083916 13.847912 L 36.923077 13.822838 L 37.762238 12.723721 L 38.601399 17.094154 L 39.440559 17.242381 L 40.279720 16.906124 L 41.118881 15.870875 L 41.958042 17.574850 L 42.797203 19.697901 L 43.636364 21.249178 L 44.475524 22.734106 L 45.314685 19.321100 L 46.153846 18.359549 L 46.993007 17.633959 L 47.832168 20.662093 L 48.671329 21.280661 L 49.510490 25.518632 L 50.349650 20.743398 L 51.188811 20.912753 L 52.027972 22.564929 L 52.867133 22.600141 L 53.706294 22.563069 L 54.545455 22.469440 L 55.384615 21.887014 L 56.223776 21.543032 L 57.062937 20.062545 L 57.902098 20.126254 L 58.741259 20.762329 L 59.580420 21.306981 L 60.419580 21.486811 L 61.258741 22.021394 L 62.097902 28.347510 L 62.937063 25.671202 L 63.776224 27.415840 L 64.615385 25.475626 L 65.454545 36.800000 L 66.293706 27.442951 L 67.132867 27.186743 L 67.972028 29.383482 L 68.811189 28.933418 L 69.650350 29.931626 L 70.489510 29.797690 L 71.328671 29.587446 L 72.167832 29.810341 L 73.006993 29.374728 L 73.846154 28.722382 L 74.685315 27.300262 L 75.524476 27.217850 L 76.363636 26.945321 L 77.202797 27.248868 L 78.041958 28.104318 L 78.881119 27.954973 L 79.720280 29.281109 L 80.559441 31.583436 L 81.398601 30.881941 L 82.237762 30.360641 L 83.076923 28.525559 L 83.916084 26.260987 L 84.755245 27.467659 L 85.594406 30.769756 L 86.433566 29.921774 L 87.272727 29.269349 L 88.111888 29.520582 L 88.951049 29.570690 L 89.790210 28.474996 L 90.629371 28.965683 L 91.468531 28.076514 L 92.307692 24.567674 L 93.146853 23.196701 L 93.986014 20.067956 L 94.825175 20.795533 L 95.664336 23.056149 L 96.503497 22.585769 L 97.342657 22.775628 L 98.181818 23.863162 L 99.020979 25.830349 L 99.860140 25.062129 L 100.699301 22.849653 L 101.538462 26.067181 L 102.377622 25.264154 L 103.216783 28.837910 L 104.055944 25.351651 L 104.895105 22.710802 L 105.734266 23.167839 L 106.573427 22.881532 L 107.412587 22.396217 L 108.251748 21.917409 L 109.090909 21.795017 L 109.930070 20.953959 L 110.769231 20.000716 L 111.608392 20.576357 L 112.447552 26.642288 L 113.286713 19.767949 L 114.125874 19.760096 L 114.965035 20.275995 L 115.804196 28.139659 L 116.643357 25.706592 L 117.482517 22.537679 L 118.321678 23.730345 L 119.160839 28.477321 L 120.000000 28.767099 L 120 40 Z"></path>
    </g>
  </svg>