<svg xmlns="http://www.w3.org/2000/svg" viewBox="0 0 120 40" width="120" height="40">
    <defs>
      <linearGradient id="color_grad" x1="0%" x2="0%" y1="0%" y2="100%">
        <stop offset="0%" style="stop-color:#EA3943;stop-opacity:0.4;"></stop>
        <stop offset="100%" style="stop-color:#EA3943;stop-opacity:0.0;"></stop>
      </linearGradient>
    </defs>
    <g>
      <path stroke="#EA3943" stroke-width="2" stroke-linecap="round" stroke-linejoin="round" fill="none" d="M 0.000000 8.800000 L 0.839161 8.800000 L 1.678322 8.800000 L 2.517483 10.848780 L 3.356643 10.848780 L 4.195804 10.848780 L 5.034965 10.848780 L 5.874126 10.848780 L 6.713287 10.848780 L 7.552448 12.654000 L 8.391608 10.388402 L 9.230769 10.507317 L 10.069930 10.507317 L 10.909091 12.214634 L 11.748252 12.615794 L 12.587413 14.263415 L 13.426573 14.263415 L 14.265734 14.946341 L 15.104895 8.800000 L 15.944056 13.580488 L 16.783217 9.960976 L 17.622378 13.938666 L 18.461538 14.263415 L 19.300699 8.868293 L 20.139860 8.868293 L 20.979021 8.868293 L 21.818182 8.868293 L 22.657343 8.868293 L 23.496503 8.868293 L 24.335664 8.868293 L 25.174825 9.141463 L 26.013986 9.141463 L 26.853147 9.141463 L 27.692308 9.551220 L 28.531469 10.205014 L 29.370629 11.053659 L 30.209790 12.214634 L 31.048951 15.629268 L 31.888112 15.629268 L 32.727273 15.629268 L 33.566434 15.629268 L 34.405594 19.072557 L 35.244755 15.629268 L 36.083916 15.629268 L 36.923077 14.263415 L 37.762238 14.263415 L 38.601399 14.263415 L 39.440559 14.263415 L 40.279720 14.263415 L 41.118881 14.339826 L 41.958042 15.629268 L 42.797203 15.629268 L 43.636364 15.629268 L 44.475524 20.409756 L 45.314685 18.136517 L 46.153846 17.215760 L 46.993007 22.458537 L 47.832168 22.526829 L 48.671329 22.526829 L 49.510490 21.357735 L 50.349650 20.068293 L 51.188811 21.092683 L 52.027972 21.092683 L 52.867133 21.092683 L 53.706294 22.458537 L 54.545455 21.092683 L 55.384615 21.092683 L 56.223776 21.092683 L 57.062937 21.092683 L 57.902098 22.458537 L 58.741259 22.458537 L 59.580420 22.458537 L 60.419580 22.807164 L 61.258741 23.119973 L 62.097902 22.458537 L 62.937063 21.351527 L 63.776224 23.141463 L 64.615385 25.873171 L 65.454545 23.141463 L 66.293706 23.141463 L 67.132867 23.141463 L 67.972028 23.141463 L 68.811189 22.526829 L 69.650350 22.458537 L 70.489510 22.458537 L 71.328671 20.409756 L 72.167832 20.409756 L 73.006993 20.409756 L 73.846154 20.409756 L 74.685315 20.409756 L 75.524476 20.409756 L 76.363636 25.873171 L 77.202797 25.873171 L 78.041958 25.873171 L 78.881119 25.873171 L 79.720280 20.409756 L 80.559441 20.409756 L 81.398601 22.458537 L 82.237762 21.092683 L 83.076923 25.873171 L 83.916084 23.141463 L 84.755245 23.856865 L 85.594406 24.165854 L 86.433566 25.873171 L 87.272727 25.873171 L 88.111888 25.873171 L 88.951049 25.873171 L 89.790210 25.873171 L 90.629371 25.873171 L 91.468531 24.507317 L 92.307692 24.507317 L 93.146853 24.507317 L 93.986014 24.507317 L 94.825175 25.343067 L 95.664336 24.268531 L 96.503497 23.824390 L 97.342657 23.824390 L 98.181818 23.824390 L 99.020979 23.824390 L 99.860140 23.824390 L 100.699301 24.165854 L 101.538462 24.234146 L 102.377622 24.507317 L 103.216783 24.370732 L 104.055944 24.234146 L 104.895105 24.234146 L 105.734266 24.234146 L 106.573427 24.234146 L 107.412587 24.234146 L 108.251748 24.234146 L 109.090909 25.190244 L 109.930070 25.190244 L 110.769231 25.873171 L 111.608392 27.921951 L 112.447552 27.921951 L 113.286713 28.829337 L 114.125874 28.564284 L 114.965035 28.263415 L 115.804196 36.117073 L 116.643357 36.117073 L 117.482517 36.714037 L 118.321678 36.800000 L 119.160839 36.031110 L 120.000000 34.068293"></path>
      <path stroke="none" fill-opacity="0.6" fill="url(#color_grad)" d="M 0 40 L 0.000000 8.800000 L 0.839161 8.800000 L 1.678322 8.800000 L 2.517483 10.848780 L 3.356643 10.848780 L 4.195804 10.848780 L 5.034965 10.848780 L 5.874126 10.848780 L 6.713287 10.848780 L 7.552448 12.654000 L 8.391608 10.388402 L 9.230769 10.507317 L 10.069930 10.507317 L 10.909091 12.214634 L 11.748252 12.615794 L 12.587413 14.263415 L 13.426573 14.263415 L 14.265734 14.946341 L 15.104895 8.800000 L 15.944056 13.580488 L 16.783217 9.960976 L 17.622378 13.938666 L 18.461538 14.263415 L 19.300699 8.868293 L 20.139860 8.868293 L 20.979021 8.868293 L 21.818182 8.868293 L 22.657343 8.868293 L 23.496503 8.868293 L 24.335664 8.868293 L 25.174825 9.141463 L 26.013986 9.141463 L 26.853147 9.141463 L 27.692308 9.551220 L 28.531469 10.205014 L 29.370629 11.053659 L 30.209790 12.214634 L 31.048951 15.629268 L 31.888112 15.629268 L 32.727273 15.629268 L 33.566434 15.629268 L 34.405594 19.072557 L 35.244755 15.629268 L 36.083916 15.629268 L 36.923077 14.263415 L 37.762238 14.263415 L 38.601399 14.263415 L 39.440559 14.263415 L 40.279720 14.263415 L 41.118881 14.339826 L 41.958042 15.629268 L 42.797203 15.629268 L 43.636364 15.629268 L 44.475524 20.409756 L 45.314685 18.136517 L 46.153846 17.215760 L 46.993007 22.458537 L 47.832168 22.526829 L 48.671329 22.526829 L 49.510490 21.357735 L 50.349650 20.068293 L 51.188811 21.092683 L 52.027972 21.092683 L 52.867133 21.092683 L 53.706294 22.458537 L 54.545455 21.092683 L 55.384615 21.092683 L 56.223776 21.092683 L 57.062937 21.092683 L 57.902098 22.458537 L 58.741259 22.458537 L 59.580420 22.458537 L 60.419580 22.807164 L 61.258741 23.119973 L 62.097902 22.458537 L 62.937063 21.351527 L 63.776224 23.141463 L 64.615385 25.873171 L 65.454545 23.141463 L 66.293706 23.141463 L 67.132867 23.141463 L 67.972028 23.141463 L 68.811189 22.526829 L 69.650350 22.458537 L 70.489510 22.458537 L 71.328671 20.409756 L 72.167832 20.409756 L 73.006993 20.409756 L 73.846154 20.409756 L 74.685315 20.409756 L 75.524476 20.409756 L 76.363636 25.873171 L 77.202797 25.873171 L 78.041958 25.873171 L 78.881119 25.873171 L 79.720280 20.409756 L 80.559441 20.409756 L 81.398601 22.458537 L 82.237762 21.092683 L 83.076923 25.873171 L 83.916084 23.141463 L 84.755245 23.856865 L 85.594406 24.165854 L 86.433566 25.873171 L 87.272727 25.873171 L 88.111888 25.873171 L 88.951049 25.873171 L 89.790210 25.873171 L 90.629371 25.873171 L 91.468531 24.507317 L 92.307692 24.507317 L 93.146853 24.507317 L 93.986014 24.507317 L 94.825175 25.343067 L 95.664336 24.268531 L 96.503497 23.824390 L 97.342657 23.824390 L 98.181818 23.824390 L 99.020979 23.824390 L 99.860140 23.824390 L 100.699301 24.165854 L 101.538462 24.234146 L 102.377622 24.507317 L 103.216783 24.370732 L 104.055944 24.234146 L 104.895105 24.234146 L 105.734266 24.234146 L 106.573427 24.234146 L 107.412587 24.234146 L 108.251748 24.234146 L 109.090909 25.190244 L 109.930070 25.190244 L 110.769231 25.873171 L 111.608392 27.921951 L 112.447552 27.921951 L 113.286713 28.829337 L 114.125874 28.564284 L 114.965035 28.263415 L 115.804196 36.117073 L 116.643357 36.117073 L 117.482517 36.714037 L 118.321678 36.800000 L 119.160839 36.031110 L 120.000000 34.068293 L 120 40 Z"></path>
    </g>
  </svg>