<svg xmlns="http://www.w3.org/2000/svg" viewBox="0 0 120 40" width="120" height="40">
    <defs>
      <linearGradient id="color_grad" x1="0%" x2="0%" y1="0%" y2="100%">
        <stop offset="0%" style="stop-color:#EA3943;stop-opacity:0.4;"></stop>
        <stop offset="100%" style="stop-color:#EA3943;stop-opacity:0.0;"></stop>
      </linearGradient>
    </defs>
    <g>
      <path stroke="#EA3943" stroke-width="2" stroke-linecap="round" stroke-linejoin="round" fill="none" d="M 0.000000 22.654147 L 0.839161 22.324375 L 1.678322 23.551909 L 2.517483 23.966011 L 3.356643 23.778115 L 4.195804 25.139001 L 5.034965 24.505430 L 5.874126 24.619710 L 6.713287 24.267943 L 7.552448 24.075339 L 8.391608 20.137314 L 9.230769 19.148973 L 10.069930 23.367341 L 10.909091 20.673650 L 11.748252 20.972336 L 12.587413 20.218641 L 13.426573 19.752513 L 14.265734 19.355780 L 15.104895 19.476066 L 15.944056 19.092645 L 16.783217 19.571272 L 17.622378 17.747910 L 18.461538 17.248179 L 19.300699 17.170992 L 20.139860 17.073513 L 20.979021 16.410966 L 21.818182 11.584676 L 22.657343 13.059518 L 23.496503 12.494937 L 24.335664 20.362790 L 25.174825 8.800000 L 26.013986 16.789031 L 26.853147 10.131668 L 27.692308 15.150967 L 28.531469 21.465329 L 29.370629 21.451531 L 30.209790 20.808464 L 31.048951 20.646541 L 31.888112 20.683227 L 32.727273 20.526985 L 33.566434 20.257357 L 34.405594 20.584450 L 35.244755 20.338278 L 36.083916 28.622180 L 36.923077 20.939951 L 37.762238 20.006802 L 38.601399 19.717693 L 39.440559 19.841794 L 40.279720 19.549358 L 41.118881 18.643967 L 41.958042 21.298211 L 42.797203 22.335901 L 43.636364 22.333385 L 44.475524 20.945551 L 45.314685 21.152846 L 46.153846 21.130120 L 46.993007 20.605715 L 47.832168 20.230410 L 48.671329 20.786712 L 49.510490 20.323181 L 50.349650 22.647329 L 51.188811 22.098819 L 52.027972 20.968683 L 52.867133 21.001068 L 53.706294 20.970793 L 54.545455 20.884678 L 55.384615 20.355160 L 56.223776 20.044218 L 57.062937 18.704759 L 57.902098 18.757354 L 58.741259 19.333135 L 59.580420 13.098152 L 60.419580 17.182679 L 61.258741 17.577951 L 62.097902 17.611959 L 62.937063 20.857812 L 63.776224 22.485081 L 64.615385 22.419338 L 65.454545 22.502207 L 66.293706 24.222572 L 67.132867 29.670177 L 67.972028 31.147535 L 68.811189 30.750803 L 69.650350 31.630059 L 70.489510 28.156458 L 71.328671 27.968074 L 72.167832 28.172366 L 73.006993 27.773848 L 73.846154 27.190518 L 74.685315 25.902192 L 75.524476 25.827764 L 76.363636 25.583215 L 77.202797 25.860555 L 78.041958 26.969101 L 78.881119 27.968643 L 79.720280 26.417019 L 80.559441 28.049807 L 81.398601 27.402763 L 82.237762 29.605651 L 83.076923 25.245976 L 83.916084 23.162481 L 84.755245 27.374031 L 85.594406 27.368106 L 86.433566 27.412827 L 87.272727 26.824060 L 88.111888 27.057570 L 88.951049 27.100344 L 89.790210 26.099909 L 90.629371 26.552564 L 91.468531 25.740999 L 92.307692 26.323599 L 93.146853 27.377683 L 93.986014 24.676120 L 94.825175 25.303603 L 95.664336 29.995241 L 96.503497 29.557034 L 97.342657 29.716279 L 98.181818 30.628893 L 99.020979 31.530551 L 99.860140 28.945540 L 100.699301 27.039389 L 101.538462 28.994888 L 102.377622 28.498079 L 103.216783 27.912720 L 104.055944 27.198878 L 104.895105 25.667870 L 105.734266 28.462935 L 106.573427 28.612440 L 107.412587 28.207997 L 108.251748 27.797304 L 109.090909 27.694550 L 109.930070 26.981681 L 110.769231 22.499691 L 111.608392 26.257044 L 112.447552 26.160620 L 113.286713 26.472292 L 114.125874 22.248568 L 114.965035 24.834391 L 115.804196 24.759719 L 116.643357 23.551990 L 117.482517 24.825300 L 118.321678 32.490403 L 119.160839 36.800000 L 120.000000 31.266198"></path>
      <path stroke="none" fill-opacity="0.6" fill="url(#color_grad)" d="M 0 40 L 0.000000 22.654147 L 0.839161 22.324375 L 1.678322 23.551909 L 2.517483 23.966011 L 3.356643 23.778115 L 4.195804 25.139001 L 5.034965 24.505430 L 5.874126 24.619710 L 6.713287 24.267943 L 7.552448 24.075339 L 8.391608 20.137314 L 9.230769 19.148973 L 10.069930 23.367341 L 10.909091 20.673650 L 11.748252 20.972336 L 12.587413 20.218641 L 13.426573 19.752513 L 14.265734 19.355780 L 15.104895 19.476066 L 15.944056 19.092645 L 16.783217 19.571272 L 17.622378 17.747910 L 18.461538 17.248179 L 19.300699 17.170992 L 20.139860 17.073513 L 20.979021 16.410966 L 21.818182 11.584676 L 22.657343 13.059518 L 23.496503 12.494937 L 24.335664 20.362790 L 25.174825 8.800000 L 26.013986 16.789031 L 26.853147 10.131668 L 27.692308 15.150967 L 28.531469 21.465329 L 29.370629 21.451531 L 30.209790 20.808464 L 31.048951 20.646541 L 31.888112 20.683227 L 32.727273 20.526985 L 33.566434 20.257357 L 34.405594 20.584450 L 35.244755 20.338278 L 36.083916 28.622180 L 36.923077 20.939951 L 37.762238 20.006802 L 38.601399 19.717693 L 39.440559 19.841794 L 40.279720 19.549358 L 41.118881 18.643967 L 41.958042 21.298211 L 42.797203 22.335901 L 43.636364 22.333385 L 44.475524 20.945551 L 45.314685 21.152846 L 46.153846 21.130120 L 46.993007 20.605715 L 47.832168 20.230410 L 48.671329 20.786712 L 49.510490 20.323181 L 50.349650 22.647329 L 51.188811 22.098819 L 52.027972 20.968683 L 52.867133 21.001068 L 53.706294 20.970793 L 54.545455 20.884678 L 55.384615 20.355160 L 56.223776 20.044218 L 57.062937 18.704759 L 57.902098 18.757354 L 58.741259 19.333135 L 59.580420 13.098152 L 60.419580 17.182679 L 61.258741 17.577951 L 62.097902 17.611959 L 62.937063 20.857812 L 63.776224 22.485081 L 64.615385 22.419338 L 65.454545 22.502207 L 66.293706 24.222572 L 67.132867 29.670177 L 67.972028 31.147535 L 68.811189 30.750803 L 69.650350 31.630059 L 70.489510 28.156458 L 71.328671 27.968074 L 72.167832 28.172366 L 73.006993 27.773848 L 73.846154 27.190518 L 74.685315 25.902192 L 75.524476 25.827764 L 76.363636 25.583215 L 77.202797 25.860555 L 78.041958 26.969101 L 78.881119 27.968643 L 79.720280 26.417019 L 80.559441 28.049807 L 81.398601 27.402763 L 82.237762 29.605651 L 83.076923 25.245976 L 83.916084 23.162481 L 84.755245 27.374031 L 85.594406 27.368106 L 86.433566 27.412827 L 87.272727 26.824060 L 88.111888 27.057570 L 88.951049 27.100344 L 89.790210 26.099909 L 90.629371 26.552564 L 91.468531 25.740999 L 92.307692 26.323599 L 93.146853 27.377683 L 93.986014 24.676120 L 94.825175 25.303603 L 95.664336 29.995241 L 96.503497 29.557034 L 97.342657 29.716279 L 98.181818 30.628893 L 99.020979 31.530551 L 99.860140 28.945540 L 100.699301 27.039389 L 101.538462 28.994888 L 102.377622 28.498079 L 103.216783 27.912720 L 104.055944 27.198878 L 104.895105 25.667870 L 105.734266 28.462935 L 106.573427 28.612440 L 107.412587 28.207997 L 108.251748 27.797304 L 109.090909 27.694550 L 109.930070 26.981681 L 110.769231 22.499691 L 111.608392 26.257044 L 112.447552 26.160620 L 113.286713 26.472292 L 114.125874 22.248568 L 114.965035 24.834391 L 115.804196 24.759719 L 116.643357 23.551990 L 117.482517 24.825300 L 118.321678 32.490403 L 119.160839 36.800000 L 120.000000 31.266198 L 120 40 Z"></path>
    </g>
  </svg>