<svg xmlns="http://www.w3.org/2000/svg" viewBox="0 0 120 40" width="120" height="40">
    <defs>
      <linearGradient id="color_grad" x1="0%" x2="0%" y1="0%" y2="100%">
        <stop offset="0%" style="stop-color:#EA3943;stop-opacity:0.4;"></stop>
        <stop offset="100%" style="stop-color:#EA3943;stop-opacity:0.0;"></stop>
      </linearGradient>
    </defs>
    <g>
      <path stroke="#EA3943" stroke-width="2" stroke-linecap="round" stroke-linejoin="round" fill="none" d="M 0.000000 15.156167 L 0.839161 15.191702 L 1.678322 16.348861 L 2.517483 19.008226 L 3.356643 18.831859 L 4.195804 20.089038 L 5.034965 19.506038 L 5.874126 19.611539 L 6.713287 19.281204 L 7.552448 21.097269 L 8.391608 18.297766 L 9.230769 17.537312 L 10.069930 17.236945 L 10.909091 19.176975 L 11.748252 19.891949 L 12.587413 22.654950 L 13.426573 22.252611 L 14.265734 22.667779 L 15.104895 15.931945 L 15.944056 20.920493 L 16.783217 16.247076 L 17.622378 20.152844 L 18.461538 20.087578 L 19.300699 13.904436 L 20.139860 13.818534 L 20.979021 13.213219 L 21.818182 8.800000 L 22.657343 10.147578 L 23.496503 9.628520 L 24.335664 9.785542 L 25.174825 9.744611 L 26.013986 9.996376 L 26.853147 10.245426 L 27.692308 10.867270 L 28.531469 12.419029 L 29.370629 13.398971 L 30.209790 14.144033 L 31.048951 18.006206 L 31.888112 18.039926 L 32.727273 17.899873 L 33.566434 17.654149 L 34.405594 21.996332 L 35.244755 17.726763 L 36.083916 18.295729 L 36.923077 16.673970 L 37.762238 15.815905 L 38.601399 15.547034 L 39.440559 15.667164 L 40.279720 15.395833 L 41.118881 14.649651 L 41.958042 17.549106 L 42.797203 18.497094 L 43.636364 18.623248 L 44.475524 23.550484 L 45.314685 20.027929 L 46.153846 18.925939 L 46.993007 24.697902 L 47.832168 24.462750 L 48.671329 24.933274 L 49.510490 23.146686 L 50.349650 21.586052 L 51.188811 22.904679 L 52.027972 22.371044 L 52.867133 22.399520 L 53.706294 24.008535 L 54.545455 22.295494 L 55.384615 21.836103 L 56.223776 21.564839 L 57.062937 20.393884 L 57.902098 22.115749 L 58.741259 22.609369 L 59.580420 23.032190 L 60.419580 23.554693 L 61.258741 24.268089 L 62.097902 23.493330 L 62.937063 23.258314 L 63.776224 26.763305 L 64.615385 29.925946 L 65.454545 26.782226 L 66.293706 28.232472 L 67.132867 28.034858 L 67.972028 29.347223 L 68.811189 28.289558 L 69.650350 28.994385 L 70.489510 28.889257 L 71.328671 26.384368 L 72.167832 26.562416 L 73.006993 26.213074 L 73.846154 25.690249 L 74.685315 24.548058 L 75.524476 24.482639 L 76.363636 30.641549 L 77.202797 30.869420 L 78.041958 31.511356 L 78.881119 31.365246 L 79.720280 24.652406 L 80.559441 26.120690 L 81.398601 27.905937 L 82.237762 25.909059 L 83.076923 30.037574 L 83.916084 25.034313 L 84.755245 26.836954 L 85.594406 26.515375 L 86.433566 28.259522 L 87.272727 27.744741 L 88.111888 27.942660 L 88.951049 27.983320 L 89.790210 27.117772 L 90.629371 27.504753 L 91.468531 25.141562 L 92.307692 25.656462 L 93.146853 26.586377 L 93.986014 24.206370 L 94.825175 25.779680 L 95.664336 26.192931 L 96.503497 25.263185 L 97.342657 25.408244 L 98.181818 26.243060 L 99.020979 27.065080 L 99.860140 26.472458 L 100.699301 25.174195 L 101.538462 27.695817 L 102.377622 26.885963 L 103.216783 26.207695 L 104.055944 26.450601 L 104.895105 24.404714 L 105.734266 24.757008 L 106.573427 24.535568 L 107.412587 24.160279 L 108.251748 23.789284 L 109.090909 24.870876 L 109.930070 24.226835 L 110.769231 24.349035 L 111.608392 27.330727 L 112.447552 27.247948 L 113.286713 27.832950 L 114.125874 27.493773 L 114.965035 27.496183 L 115.804196 35.846191 L 116.643357 34.108443 L 117.482517 35.875142 L 118.321678 36.800000 L 119.160839 35.980084 L 120.000000 33.715505"></path>
      <path stroke="none" fill-opacity="0.6" fill="url(#color_grad)" d="M 0 40 L 0.000000 15.156167 L 0.839161 15.191702 L 1.678322 16.348861 L 2.517483 19.008226 L 3.356643 18.831859 L 4.195804 20.089038 L 5.034965 19.506038 L 5.874126 19.611539 L 6.713287 19.281204 L 7.552448 21.097269 L 8.391608 18.297766 L 9.230769 17.537312 L 10.069930 17.236945 L 10.909091 19.176975 L 11.748252 19.891949 L 12.587413 22.654950 L 13.426573 22.252611 L 14.265734 22.667779 L 15.104895 15.931945 L 15.944056 20.920493 L 16.783217 16.247076 L 17.622378 20.152844 L 18.461538 20.087578 L 19.300699 13.904436 L 20.139860 13.818534 L 20.979021 13.213219 L 21.818182 8.800000 L 22.657343 10.147578 L 23.496503 9.628520 L 24.335664 9.785542 L 25.174825 9.744611 L 26.013986 9.996376 L 26.853147 10.245426 L 27.692308 10.867270 L 28.531469 12.419029 L 29.370629 13.398971 L 30.209790 14.144033 L 31.048951 18.006206 L 31.888112 18.039926 L 32.727273 17.899873 L 33.566434 17.654149 L 34.405594 21.996332 L 35.244755 17.726763 L 36.083916 18.295729 L 36.923077 16.673970 L 37.762238 15.815905 L 38.601399 15.547034 L 39.440559 15.667164 L 40.279720 15.395833 L 41.118881 14.649651 L 41.958042 17.549106 L 42.797203 18.497094 L 43.636364 18.623248 L 44.475524 23.550484 L 45.314685 20.027929 L 46.153846 18.925939 L 46.993007 24.697902 L 47.832168 24.462750 L 48.671329 24.933274 L 49.510490 23.146686 L 50.349650 21.586052 L 51.188811 22.904679 L 52.027972 22.371044 L 52.867133 22.399520 L 53.706294 24.008535 L 54.545455 22.295494 L 55.384615 21.836103 L 56.223776 21.564839 L 57.062937 20.393884 L 57.902098 22.115749 L 58.741259 22.609369 L 59.580420 23.032190 L 60.419580 23.554693 L 61.258741 24.268089 L 62.097902 23.493330 L 62.937063 23.258314 L 63.776224 26.763305 L 64.615385 29.925946 L 65.454545 26.782226 L 66.293706 28.232472 L 67.132867 28.034858 L 67.972028 29.347223 L 68.811189 28.289558 L 69.650350 28.994385 L 70.489510 28.889257 L 71.328671 26.384368 L 72.167832 26.562416 L 73.006993 26.213074 L 73.846154 25.690249 L 74.685315 24.548058 L 75.524476 24.482639 L 76.363636 30.641549 L 77.202797 30.869420 L 78.041958 31.511356 L 78.881119 31.365246 L 79.720280 24.652406 L 80.559441 26.120690 L 81.398601 27.905937 L 82.237762 25.909059 L 83.076923 30.037574 L 83.916084 25.034313 L 84.755245 26.836954 L 85.594406 26.515375 L 86.433566 28.259522 L 87.272727 27.744741 L 88.111888 27.942660 L 88.951049 27.983320 L 89.790210 27.117772 L 90.629371 27.504753 L 91.468531 25.141562 L 92.307692 25.656462 L 93.146853 26.586377 L 93.986014 24.206370 L 94.825175 25.779680 L 95.664336 26.192931 L 96.503497 25.263185 L 97.342657 25.408244 L 98.181818 26.243060 L 99.020979 27.065080 L 99.860140 26.472458 L 100.699301 25.174195 L 101.538462 27.695817 L 102.377622 26.885963 L 103.216783 26.207695 L 104.055944 26.450601 L 104.895105 24.404714 L 105.734266 24.757008 L 106.573427 24.535568 L 107.412587 24.160279 L 108.251748 23.789284 L 109.090909 24.870876 L 109.930070 24.226835 L 110.769231 24.349035 L 111.608392 27.330727 L 112.447552 27.247948 L 113.286713 27.832950 L 114.125874 27.493773 L 114.965035 27.496183 L 115.804196 35.846191 L 116.643357 34.108443 L 117.482517 35.875142 L 118.321678 36.800000 L 119.160839 35.980084 L 120.000000 33.715505 L 120 40 Z"></path>
    </g>
  </svg>