<svg xmlns="http://www.w3.org/2000/svg" viewBox="0 0 120 40" width="120" height="40">
    <defs>
      <linearGradient id="color_grad" x1="0%" x2="0%" y1="0%" y2="100%">
        <stop offset="0%" style="stop-color:#EA3943;stop-opacity:0.4;"></stop>
        <stop offset="100%" style="stop-color:#EA3943;stop-opacity:0.0;"></stop>
      </linearGradient>
    </defs>
    <g>
      <path stroke="#EA3943" stroke-width="2" stroke-linecap="round" stroke-linejoin="round" fill="none" d="M 0.000000 15.092135 L 0.839161 14.777528 L 1.678322 14.777528 L 2.517483 14.777528 L 3.356643 14.777528 L 4.195804 14.777528 L 5.034965 14.777528 L 5.874126 14.777528 L 6.713287 14.777528 L 7.552448 14.777528 L 8.391608 11.631461 L 9.230769 11.631461 L 10.069930 15.547545 L 10.909091 13.204494 L 11.748252 13.204494 L 12.587413 11.631461 L 13.426573 11.631461 L 14.265734 11.631461 L 15.104895 11.631461 L 15.944056 11.631461 L 16.783217 12.643482 L 17.622378 11.631461 L 18.461538 11.631461 L 19.300699 11.631461 L 20.139860 11.631461 L 20.979021 11.631461 L 21.818182 11.631461 L 22.657343 11.631461 L 23.496503 11.631461 L 24.335664 17.923596 L 25.174825 8.800000 L 26.013986 15.096535 L 26.853147 9.429213 L 27.692308 13.422299 L 28.531469 17.923596 L 29.370629 17.923596 L 30.209790 17.923596 L 31.048951 17.923596 L 31.888112 17.923596 L 32.727273 17.923596 L 33.566434 17.923596 L 34.405594 17.923596 L 35.244755 17.923596 L 36.083916 24.215730 L 36.923077 17.923596 L 37.762238 17.923596 L 38.601399 17.923596 L 39.440559 17.923596 L 40.279720 17.923596 L 41.118881 17.923596 L 41.958042 18.867416 L 42.797203 18.867416 L 43.636364 18.753013 L 44.475524 18.238202 L 45.314685 19.182022 L 46.153846 19.182022 L 46.993007 19.182022 L 47.832168 19.182022 L 48.671329 19.182022 L 49.510490 19.182022 L 50.349650 21.069663 L 51.188811 20.541652 L 52.027972 20.125843 L 52.867133 20.125843 L 53.706294 20.125843 L 54.545455 20.125843 L 55.384615 20.125843 L 56.223776 20.125843 L 57.062937 20.125843 L 57.902098 20.125843 L 58.741259 20.125843 L 59.580420 14.777528 L 60.419580 17.923596 L 61.258741 17.923596 L 62.097902 17.923596 L 62.937063 19.496629 L 63.776224 19.496629 L 64.615385 19.496629 L 65.454545 19.496629 L 66.293706 19.496629 L 67.132867 24.215730 L 67.972028 24.215730 L 68.811189 24.215730 L 69.650350 24.215730 L 70.489510 21.384270 L 71.328671 21.384270 L 72.167832 21.384270 L 73.006993 21.384270 L 73.846154 21.384270 L 74.685315 21.384270 L 75.524476 21.384270 L 76.363636 21.384270 L 77.202797 21.384270 L 78.041958 21.668076 L 78.881119 22.642697 L 79.720280 21.712077 L 80.559441 21.698876 L 81.398601 21.698876 L 82.237762 23.934124 L 83.076923 21.698876 L 83.916084 21.698876 L 84.755245 24.215730 L 85.594406 24.844944 L 86.433566 25.159551 L 87.272727 25.159551 L 88.111888 25.159551 L 88.951049 25.159551 L 89.790210 25.159551 L 90.629371 25.159551 L 91.468531 25.159551 L 92.307692 25.159551 L 93.146853 25.159551 L 93.986014 25.159551 L 94.825175 25.159551 L 95.664336 27.361798 L 96.503497 27.361798 L 97.342657 27.361798 L 98.181818 27.361798 L 99.020979 27.361798 L 99.860140 25.788764 L 100.699301 25.788764 L 101.538462 25.159551 L 102.377622 25.788764 L 103.216783 25.788764 L 104.055944 24.844944 L 104.895105 25.460957 L 105.734266 27.361798 L 106.573427 27.676404 L 107.412587 27.676404 L 108.251748 27.676404 L 109.090909 27.676404 L 109.930070 27.676404 L 110.769231 24.844944 L 111.608392 27.361798 L 112.447552 27.361798 L 113.286713 28.094413 L 114.125874 24.844944 L 114.965035 26.494979 L 115.804196 27.859008 L 116.643357 28.620225 L 117.482517 28.620225 L 118.321678 33.653933 L 119.160839 36.800000 L 120.000000 32.395506"></path>
      <path stroke="none" fill-opacity="0.6" fill="url(#color_grad)" d="M 0 40 L 0.000000 15.092135 L 0.839161 14.777528 L 1.678322 14.777528 L 2.517483 14.777528 L 3.356643 14.777528 L 4.195804 14.777528 L 5.034965 14.777528 L 5.874126 14.777528 L 6.713287 14.777528 L 7.552448 14.777528 L 8.391608 11.631461 L 9.230769 11.631461 L 10.069930 15.547545 L 10.909091 13.204494 L 11.748252 13.204494 L 12.587413 11.631461 L 13.426573 11.631461 L 14.265734 11.631461 L 15.104895 11.631461 L 15.944056 11.631461 L 16.783217 12.643482 L 17.622378 11.631461 L 18.461538 11.631461 L 19.300699 11.631461 L 20.139860 11.631461 L 20.979021 11.631461 L 21.818182 11.631461 L 22.657343 11.631461 L 23.496503 11.631461 L 24.335664 17.923596 L 25.174825 8.800000 L 26.013986 15.096535 L 26.853147 9.429213 L 27.692308 13.422299 L 28.531469 17.923596 L 29.370629 17.923596 L 30.209790 17.923596 L 31.048951 17.923596 L 31.888112 17.923596 L 32.727273 17.923596 L 33.566434 17.923596 L 34.405594 17.923596 L 35.244755 17.923596 L 36.083916 24.215730 L 36.923077 17.923596 L 37.762238 17.923596 L 38.601399 17.923596 L 39.440559 17.923596 L 40.279720 17.923596 L 41.118881 17.923596 L 41.958042 18.867416 L 42.797203 18.867416 L 43.636364 18.753013 L 44.475524 18.238202 L 45.314685 19.182022 L 46.153846 19.182022 L 46.993007 19.182022 L 47.832168 19.182022 L 48.671329 19.182022 L 49.510490 19.182022 L 50.349650 21.069663 L 51.188811 20.541652 L 52.027972 20.125843 L 52.867133 20.125843 L 53.706294 20.125843 L 54.545455 20.125843 L 55.384615 20.125843 L 56.223776 20.125843 L 57.062937 20.125843 L 57.902098 20.125843 L 58.741259 20.125843 L 59.580420 14.777528 L 60.419580 17.923596 L 61.258741 17.923596 L 62.097902 17.923596 L 62.937063 19.496629 L 63.776224 19.496629 L 64.615385 19.496629 L 65.454545 19.496629 L 66.293706 19.496629 L 67.132867 24.215730 L 67.972028 24.215730 L 68.811189 24.215730 L 69.650350 24.215730 L 70.489510 21.384270 L 71.328671 21.384270 L 72.167832 21.384270 L 73.006993 21.384270 L 73.846154 21.384270 L 74.685315 21.384270 L 75.524476 21.384270 L 76.363636 21.384270 L 77.202797 21.384270 L 78.041958 21.668076 L 78.881119 22.642697 L 79.720280 21.712077 L 80.559441 21.698876 L 81.398601 21.698876 L 82.237762 23.934124 L 83.076923 21.698876 L 83.916084 21.698876 L 84.755245 24.215730 L 85.594406 24.844944 L 86.433566 25.159551 L 87.272727 25.159551 L 88.111888 25.159551 L 88.951049 25.159551 L 89.790210 25.159551 L 90.629371 25.159551 L 91.468531 25.159551 L 92.307692 25.159551 L 93.146853 25.159551 L 93.986014 25.159551 L 94.825175 25.159551 L 95.664336 27.361798 L 96.503497 27.361798 L 97.342657 27.361798 L 98.181818 27.361798 L 99.020979 27.361798 L 99.860140 25.788764 L 100.699301 25.788764 L 101.538462 25.159551 L 102.377622 25.788764 L 103.216783 25.788764 L 104.055944 24.844944 L 104.895105 25.460957 L 105.734266 27.361798 L 106.573427 27.676404 L 107.412587 27.676404 L 108.251748 27.676404 L 109.090909 27.676404 L 109.930070 27.676404 L 110.769231 24.844944 L 111.608392 27.361798 L 112.447552 27.361798 L 113.286713 28.094413 L 114.125874 24.844944 L 114.965035 26.494979 L 115.804196 27.859008 L 116.643357 28.620225 L 117.482517 28.620225 L 118.321678 33.653933 L 119.160839 36.800000 L 120.000000 32.395506 L 120 40 Z"></path>
    </g>
  </svg>