<svg xmlns="http://www.w3.org/2000/svg" viewBox="0 0 120 40" width="120" height="40">
    <defs>
      <linearGradient id="color_grad" x1="0%" x2="0%" y1="0%" y2="100%">
        <stop offset="0%" style="stop-color:#EA3943;stop-opacity:0.4;"></stop>
        <stop offset="100%" style="stop-color:#EA3943;stop-opacity:0.0;"></stop>
      </linearGradient>
    </defs>
    <g>
      <path stroke="#EA3943" stroke-width="2" stroke-linecap="round" stroke-linejoin="round" fill="none" d="M 0.000000 19.386843 L 0.839161 17.940613 L 1.678322 19.177892 L 2.517483 19.601798 L 3.356643 19.405779 L 4.195804 20.479565 L 5.034965 19.268941 L 5.874126 19.386249 L 6.713287 19.019413 L 7.552448 18.820161 L 8.391608 17.913100 L 9.230769 16.926536 L 10.069930 22.539256 L 10.909091 22.567231 L 11.748252 23.448033 L 12.587413 25.328462 L 13.426573 26.368600 L 14.265734 24.523007 L 15.104895 23.159974 L 15.944056 25.169060 L 16.783217 25.125251 L 17.622378 21.539563 L 18.461538 22.569276 L 19.300699 20.995577 L 20.139860 20.907826 L 20.979021 20.284073 L 21.818182 15.750154 L 22.657343 17.139578 L 23.496503 16.602387 L 24.335664 16.766606 L 25.174825 16.392644 L 26.013986 19.935579 L 26.853147 22.618693 L 27.692308 21.733207 L 28.531469 17.867839 L 29.370629 18.162495 L 30.209790 17.518553 L 31.048951 20.636130 L 31.888112 20.789660 L 32.727273 20.193090 L 33.566434 26.046431 L 34.405594 26.349335 L 35.244755 22.992655 L 36.083916 20.477388 L 36.923077 20.452976 L 37.762238 17.977098 L 38.601399 17.688578 L 39.440559 15.938718 L 40.279720 10.004554 L 41.118881 11.859319 L 41.958042 10.588589 L 42.797203 14.486220 L 43.636364 17.725459 L 44.475524 16.962230 L 45.314685 16.084331 L 46.153846 22.281152 L 46.993007 21.777742 L 47.832168 22.104199 L 48.671329 20.581237 L 49.510490 18.330343 L 50.349650 8.800000 L 51.188811 12.084896 L 52.027972 12.392022 L 52.867133 14.878325 L 53.706294 14.619495 L 54.545455 14.535637 L 55.384615 13.994488 L 56.223776 13.674166 L 57.062937 12.295101 L 57.902098 9.108314 L 58.741259 9.711943 L 59.580420 11.498817 L 60.419580 11.647794 L 61.258741 12.058571 L 62.097902 20.405736 L 62.937063 21.640047 L 63.776224 23.834728 L 64.615385 23.771125 L 65.454545 23.855511 L 66.293706 25.499410 L 67.132867 25.276736 L 67.972028 26.462684 L 68.811189 26.063981 L 69.650350 26.948412 L 70.489510 26.829718 L 71.328671 26.642276 L 72.167832 26.840407 L 73.006993 26.454041 L 73.846154 25.875813 L 74.685315 24.615376 L 75.524476 24.547551 L 76.363636 24.300662 L 77.202797 34.156077 L 78.041958 34.849568 L 78.881119 34.689044 L 79.720280 34.924123 L 80.559441 36.386452 L 81.398601 35.206969 L 82.237762 34.769999 L 83.076923 33.261815 L 83.916084 31.403224 L 84.755245 32.393747 L 85.594406 32.622228 L 86.433566 33.897576 L 87.272727 33.357219 L 88.111888 36.755927 L 88.951049 36.800000 L 89.790210 35.920914 L 90.629371 30.538851 L 91.468531 29.786244 L 92.307692 30.332671 L 93.146853 32.185060 L 93.986014 31.405006 L 94.825175 35.546358 L 95.664336 24.188962 L 96.503497 23.745856 L 97.342657 23.911724 L 98.181818 27.726355 L 99.020979 25.784104 L 99.860140 31.416882 L 100.699301 29.398757 L 101.538462 25.929519 L 102.377622 24.651729 L 103.216783 24.070532 L 104.055944 24.528417 L 104.895105 22.227908 L 105.734266 23.547329 L 106.573427 25.614080 L 107.412587 25.201389 L 108.251748 24.796418 L 109.090909 27.958794 L 109.930070 27.268008 L 110.769231 24.700091 L 111.608392 25.310384 L 112.447552 25.218609 L 113.286713 32.895705 L 114.125874 32.888580 L 114.965035 29.980086 L 115.804196 28.592642 L 116.643357 26.161298 L 117.482517 29.278875 L 118.321678 31.716288 L 119.160839 31.892977 L 120.000000 32.142702"></path>
      <path stroke="none" fill-opacity="0.6" fill="url(#color_grad)" d="M 0 40 L 0.000000 19.386843 L 0.839161 17.940613 L 1.678322 19.177892 L 2.517483 19.601798 L 3.356643 19.405779 L 4.195804 20.479565 L 5.034965 19.268941 L 5.874126 19.386249 L 6.713287 19.019413 L 7.552448 18.820161 L 8.391608 17.913100 L 9.230769 16.926536 L 10.069930 22.539256 L 10.909091 22.567231 L 11.748252 23.448033 L 12.587413 25.328462 L 13.426573 26.368600 L 14.265734 24.523007 L 15.104895 23.159974 L 15.944056 25.169060 L 16.783217 25.125251 L 17.622378 21.539563 L 18.461538 22.569276 L 19.300699 20.995577 L 20.139860 20.907826 L 20.979021 20.284073 L 21.818182 15.750154 L 22.657343 17.139578 L 23.496503 16.602387 L 24.335664 16.766606 L 25.174825 16.392644 L 26.013986 19.935579 L 26.853147 22.618693 L 27.692308 21.733207 L 28.531469 17.867839 L 29.370629 18.162495 L 30.209790 17.518553 L 31.048951 20.636130 L 31.888112 20.789660 L 32.727273 20.193090 L 33.566434 26.046431 L 34.405594 26.349335 L 35.244755 22.992655 L 36.083916 20.477388 L 36.923077 20.452976 L 37.762238 17.977098 L 38.601399 17.688578 L 39.440559 15.938718 L 40.279720 10.004554 L 41.118881 11.859319 L 41.958042 10.588589 L 42.797203 14.486220 L 43.636364 17.725459 L 44.475524 16.962230 L 45.314685 16.084331 L 46.153846 22.281152 L 46.993007 21.777742 L 47.832168 22.104199 L 48.671329 20.581237 L 49.510490 18.330343 L 50.349650 8.800000 L 51.188811 12.084896 L 52.027972 12.392022 L 52.867133 14.878325 L 53.706294 14.619495 L 54.545455 14.535637 L 55.384615 13.994488 L 56.223776 13.674166 L 57.062937 12.295101 L 57.902098 9.108314 L 58.741259 9.711943 L 59.580420 11.498817 L 60.419580 11.647794 L 61.258741 12.058571 L 62.097902 20.405736 L 62.937063 21.640047 L 63.776224 23.834728 L 64.615385 23.771125 L 65.454545 23.855511 L 66.293706 25.499410 L 67.132867 25.276736 L 67.972028 26.462684 L 68.811189 26.063981 L 69.650350 26.948412 L 70.489510 26.829718 L 71.328671 26.642276 L 72.167832 26.840407 L 73.006993 26.454041 L 73.846154 25.875813 L 74.685315 24.615376 L 75.524476 24.547551 L 76.363636 24.300662 L 77.202797 34.156077 L 78.041958 34.849568 L 78.881119 34.689044 L 79.720280 34.924123 L 80.559441 36.386452 L 81.398601 35.206969 L 82.237762 34.769999 L 83.076923 33.261815 L 83.916084 31.403224 L 84.755245 32.393747 L 85.594406 32.622228 L 86.433566 33.897576 L 87.272727 33.357219 L 88.111888 36.755927 L 88.951049 36.800000 L 89.790210 35.920914 L 90.629371 30.538851 L 91.468531 29.786244 L 92.307692 30.332671 L 93.146853 32.185060 L 93.986014 31.405006 L 94.825175 35.546358 L 95.664336 24.188962 L 96.503497 23.745856 L 97.342657 23.911724 L 98.181818 27.726355 L 99.020979 25.784104 L 99.860140 31.416882 L 100.699301 29.398757 L 101.538462 25.929519 L 102.377622 24.651729 L 103.216783 24.070532 L 104.055944 24.528417 L 104.895105 22.227908 L 105.734266 23.547329 L 106.573427 25.614080 L 107.412587 25.201389 L 108.251748 24.796418 L 109.090909 27.958794 L 109.930070 27.268008 L 110.769231 24.700091 L 111.608392 25.310384 L 112.447552 25.218609 L 113.286713 32.895705 L 114.125874 32.888580 L 114.965035 29.980086 L 115.804196 28.592642 L 116.643357 26.161298 L 117.482517 29.278875 L 118.321678 31.716288 L 119.160839 31.892977 L 120.000000 32.142702 L 120 40 Z"></path>
    </g>
  </svg>