<svg xmlns="http://www.w3.org/2000/svg" viewBox="0 0 120 40" width="120" height="40">
    <defs>
      <linearGradient id="color_grad" x1="0%" x2="0%" y1="0%" y2="100%">
        <stop offset="0%" style="stop-color:#EA3943;stop-opacity:0.4;"></stop>
        <stop offset="100%" style="stop-color:#EA3943;stop-opacity:0.0;"></stop>
      </linearGradient>
    </defs>
    <g>
      <path stroke="#EA3943" stroke-width="2" stroke-linecap="round" stroke-linejoin="round" fill="none" d="M 0.000000 11.876923 L 0.839161 10.338462 L 1.678322 10.338462 L 2.517483 10.338462 L 3.356643 10.338462 L 4.195804 10.015707 L 5.034965 9.415385 L 5.874126 9.415385 L 6.713287 9.415385 L 7.552448 9.415385 L 8.391608 8.800000 L 9.230769 8.800000 L 10.069930 14.953846 L 10.909091 14.953846 L 11.748252 15.569231 L 12.587413 16.492308 L 13.426573 18.030769 L 14.265734 16.492308 L 15.104895 14.953846 L 15.944056 17.406778 L 16.783217 18.030769 L 17.622378 14.953846 L 18.461538 16.492308 L 19.300699 14.953846 L 20.139860 14.953846 L 20.979021 14.953846 L 21.818182 14.953846 L 22.657343 14.953846 L 23.496503 14.953846 L 24.335664 14.953846 L 25.174825 14.953846 L 26.013986 18.181388 L 26.853147 20.580527 L 27.692308 19.569231 L 28.531469 14.953846 L 29.370629 15.261538 L 30.209790 15.261538 L 31.048951 18.491232 L 31.888112 18.611727 L 32.727273 18.170629 L 33.566434 24.184615 L 34.405594 24.184615 L 35.244755 21.107692 L 36.083916 18.030769 L 36.923077 18.030769 L 37.762238 16.492308 L 38.601399 16.492308 L 39.440559 14.654761 L 40.279720 9.146423 L 41.118881 11.876923 L 41.958042 9.107692 L 42.797203 11.876923 L 43.636364 14.953846 L 44.475524 14.953846 L 45.314685 15.035611 L 46.153846 21.107692 L 46.993007 21.107692 L 47.832168 21.774718 L 48.671329 19.773642 L 49.510490 18.030769 L 50.349650 8.800000 L 51.188811 11.876923 L 52.027972 12.802152 L 52.867133 15.169016 L 53.706294 14.953846 L 54.545455 14.953846 L 55.384615 14.953846 L 56.223776 14.953846 L 57.062937 14.953846 L 57.902098 11.876923 L 58.741259 11.876923 L 59.580420 13.081872 L 60.419580 13.107692 L 61.258741 13.107692 L 62.097902 21.107692 L 62.937063 21.107692 L 63.776224 21.723077 L 64.615385 21.723077 L 65.454545 21.723077 L 66.293706 21.723077 L 67.132867 21.723077 L 67.972028 21.415385 L 68.811189 21.415385 L 69.650350 21.415385 L 70.489510 21.415385 L 71.328671 21.415385 L 72.167832 21.415385 L 73.006993 21.415385 L 73.846154 21.415385 L 74.685315 21.415385 L 75.524476 21.415385 L 76.363636 21.415385 L 77.202797 30.953846 L 78.041958 30.953846 L 78.881119 30.953846 L 79.720280 31.569231 L 80.559441 31.569231 L 81.398601 30.953846 L 82.237762 30.953846 L 83.076923 30.953846 L 83.916084 30.953846 L 84.755245 30.953846 L 85.594406 31.876923 L 86.433566 33.415385 L 87.272727 33.415385 L 88.111888 36.492308 L 88.951049 36.492308 L 89.790210 36.492308 L 90.629371 30.953846 L 91.468531 30.953846 L 92.307692 30.953846 L 93.146853 31.797310 L 93.986014 33.415385 L 94.825175 36.800000 L 95.664336 24.184615 L 96.503497 24.184615 L 97.342657 24.184615 L 98.181818 26.981818 L 99.020979 24.199677 L 99.860140 30.338462 L 100.699301 30.134051 L 101.538462 24.184615 L 102.377622 24.184615 L 103.216783 24.184615 L 104.055944 24.184615 L 104.895105 24.184615 L 105.734266 25.066810 L 106.573427 27.261538 L 107.412587 27.261538 L 108.251748 27.261538 L 109.090909 30.338462 L 109.930070 30.338462 L 110.769231 28.681657 L 111.608392 28.800000 L 112.447552 28.800000 L 113.286713 36.492308 L 114.125874 36.492308 L 114.965035 33.415385 L 115.804196 33.723077 L 116.643357 33.415385 L 117.482517 35.147499 L 118.321678 36.492308 L 119.160839 36.492308 L 120.000000 36.492308"></path>
      <path stroke="none" fill-opacity="0.6" fill="url(#color_grad)" d="M 0 40 L 0.000000 11.876923 L 0.839161 10.338462 L 1.678322 10.338462 L 2.517483 10.338462 L 3.356643 10.338462 L 4.195804 10.015707 L 5.034965 9.415385 L 5.874126 9.415385 L 6.713287 9.415385 L 7.552448 9.415385 L 8.391608 8.800000 L 9.230769 8.800000 L 10.069930 14.953846 L 10.909091 14.953846 L 11.748252 15.569231 L 12.587413 16.492308 L 13.426573 18.030769 L 14.265734 16.492308 L 15.104895 14.953846 L 15.944056 17.406778 L 16.783217 18.030769 L 17.622378 14.953846 L 18.461538 16.492308 L 19.300699 14.953846 L 20.139860 14.953846 L 20.979021 14.953846 L 21.818182 14.953846 L 22.657343 14.953846 L 23.496503 14.953846 L 24.335664 14.953846 L 25.174825 14.953846 L 26.013986 18.181388 L 26.853147 20.580527 L 27.692308 19.569231 L 28.531469 14.953846 L 29.370629 15.261538 L 30.209790 15.261538 L 31.048951 18.491232 L 31.888112 18.611727 L 32.727273 18.170629 L 33.566434 24.184615 L 34.405594 24.184615 L 35.244755 21.107692 L 36.083916 18.030769 L 36.923077 18.030769 L 37.762238 16.492308 L 38.601399 16.492308 L 39.440559 14.654761 L 40.279720 9.146423 L 41.118881 11.876923 L 41.958042 9.107692 L 42.797203 11.876923 L 43.636364 14.953846 L 44.475524 14.953846 L 45.314685 15.035611 L 46.153846 21.107692 L 46.993007 21.107692 L 47.832168 21.774718 L 48.671329 19.773642 L 49.510490 18.030769 L 50.349650 8.800000 L 51.188811 11.876923 L 52.027972 12.802152 L 52.867133 15.169016 L 53.706294 14.953846 L 54.545455 14.953846 L 55.384615 14.953846 L 56.223776 14.953846 L 57.062937 14.953846 L 57.902098 11.876923 L 58.741259 11.876923 L 59.580420 13.081872 L 60.419580 13.107692 L 61.258741 13.107692 L 62.097902 21.107692 L 62.937063 21.107692 L 63.776224 21.723077 L 64.615385 21.723077 L 65.454545 21.723077 L 66.293706 21.723077 L 67.132867 21.723077 L 67.972028 21.415385 L 68.811189 21.415385 L 69.650350 21.415385 L 70.489510 21.415385 L 71.328671 21.415385 L 72.167832 21.415385 L 73.006993 21.415385 L 73.846154 21.415385 L 74.685315 21.415385 L 75.524476 21.415385 L 76.363636 21.415385 L 77.202797 30.953846 L 78.041958 30.953846 L 78.881119 30.953846 L 79.720280 31.569231 L 80.559441 31.569231 L 81.398601 30.953846 L 82.237762 30.953846 L 83.076923 30.953846 L 83.916084 30.953846 L 84.755245 30.953846 L 85.594406 31.876923 L 86.433566 33.415385 L 87.272727 33.415385 L 88.111888 36.492308 L 88.951049 36.492308 L 89.790210 36.492308 L 90.629371 30.953846 L 91.468531 30.953846 L 92.307692 30.953846 L 93.146853 31.797310 L 93.986014 33.415385 L 94.825175 36.800000 L 95.664336 24.184615 L 96.503497 24.184615 L 97.342657 24.184615 L 98.181818 26.981818 L 99.020979 24.199677 L 99.860140 30.338462 L 100.699301 30.134051 L 101.538462 24.184615 L 102.377622 24.184615 L 103.216783 24.184615 L 104.055944 24.184615 L 104.895105 24.184615 L 105.734266 25.066810 L 106.573427 27.261538 L 107.412587 27.261538 L 108.251748 27.261538 L 109.090909 30.338462 L 109.930070 30.338462 L 110.769231 28.681657 L 111.608392 28.800000 L 112.447552 28.800000 L 113.286713 36.492308 L 114.125874 36.492308 L 114.965035 33.415385 L 115.804196 33.723077 L 116.643357 33.415385 L 117.482517 35.147499 L 118.321678 36.492308 L 119.160839 36.492308 L 120.000000 36.492308 L 120 40 Z"></path>
    </g>
  </svg>