<svg xmlns="http://www.w3.org/2000/svg" viewBox="0 0 120 40" width="120" height="40">
    <defs>
      <linearGradient id="color_grad" x1="0%" x2="0%" y1="0%" y2="100%">
        <stop offset="0%" style="stop-color:#EA3943;stop-opacity:0.4;"></stop>
        <stop offset="100%" style="stop-color:#EA3943;stop-opacity:0.0;"></stop>
      </linearGradient>
    </defs>
    <g>
      <path stroke="#EA3943" stroke-width="2" stroke-linecap="round" stroke-linejoin="round" fill="none" d="M 0.000000 13.466667 L 0.839161 13.466667 L 1.678322 13.466667 L 2.517483 13.466667 L 3.356643 13.466667 L 4.195804 13.466667 L 5.034965 13.466667 L 5.874126 13.466667 L 6.713287 13.466667 L 7.552448 13.466667 L 8.391608 13.466667 L 9.230769 13.466667 L 10.069930 15.022222 L 10.909091 15.022222 L 11.748252 15.022222 L 12.587413 13.466667 L 13.426573 13.466667 L 14.265734 13.466667 L 15.104895 11.911111 L 15.944056 11.911111 L 16.783217 11.911111 L 17.622378 11.225796 L 18.461538 11.133333 L 19.300699 10.627506 L 20.139860 10.355556 L 20.979021 10.355556 L 21.818182 10.355556 L 22.657343 10.355556 L 23.496503 10.355556 L 24.335664 10.355556 L 25.174825 8.800000 L 26.013986 9.887801 L 26.853147 10.355556 L 27.692308 10.355556 L 28.531469 11.911111 L 29.370629 12.324476 L 30.209790 11.911111 L 31.048951 11.911111 L 31.888112 10.355556 L 32.727273 10.355556 L 33.566434 10.355556 L 34.405594 10.355556 L 35.244755 10.511111 L 36.083916 10.511111 L 36.923077 10.355556 L 37.762238 10.355556 L 38.601399 10.355556 L 39.440559 10.511111 L 40.279720 10.511111 L 41.118881 10.511111 L 41.958042 10.511111 L 42.797203 10.511111 L 43.636364 10.511111 L 44.475524 10.511111 L 45.314685 10.511111 L 46.153846 10.511111 L 46.993007 10.511111 L 47.832168 25.911111 L 48.671329 14.828594 L 49.510490 10.511111 L 50.349650 10.511111 L 51.188811 11.911111 L 52.027972 11.911111 L 52.867133 11.911111 L 53.706294 11.911111 L 54.545455 11.911111 L 55.384615 11.911111 L 56.223776 11.911111 L 57.062937 15.022222 L 57.902098 16.577778 L 58.741259 16.577778 L 59.580420 13.466667 L 60.419580 13.466667 L 61.258741 16.577778 L 62.097902 13.466667 L 62.937063 13.466667 L 63.776224 15.022222 L 64.615385 15.201709 L 65.454545 15.800000 L 66.293706 15.800000 L 67.132867 15.488889 L 67.972028 18.133333 L 68.811189 22.800000 L 69.650350 18.133333 L 70.489510 18.133333 L 71.328671 16.635431 L 72.167832 15.488889 L 73.006993 15.488889 L 73.846154 24.200000 L 74.685315 24.200000 L 75.524476 15.488889 L 76.363636 18.133333 L 77.202797 21.711111 L 78.041958 25.911111 L 78.881119 25.911111 L 79.720280 24.355556 L 80.559441 24.355556 L 81.398601 24.355556 L 82.237762 24.355556 L 83.076923 25.911111 L 83.916084 25.911111 L 84.755245 25.028904 L 85.594406 26.377778 L 86.433566 26.377778 L 87.272727 26.377778 L 88.111888 24.511111 L 88.951049 24.511111 L 89.790210 24.511111 L 90.629371 24.511111 L 91.468531 24.511111 L 92.307692 24.511111 L 93.146853 24.511111 L 93.986014 27.466667 L 94.825175 27.466667 L 95.664336 24.511111 L 96.503497 23.294949 L 97.342657 18.288889 L 98.181818 18.288889 L 99.020979 18.288889 L 99.860140 18.288889 L 100.699301 18.288889 L 101.538462 25.911111 L 102.377622 25.911111 L 103.216783 25.911111 L 104.055944 21.244444 L 104.895105 21.244444 L 105.734266 21.244444 L 106.573427 21.755711 L 107.412587 21.244444 L 108.251748 21.244444 L 109.090909 21.244444 L 109.930070 21.244444 L 110.769231 21.244444 L 111.608392 21.244444 L 112.447552 25.911111 L 113.286713 25.911111 L 114.125874 30.733333 L 114.965035 30.733333 L 115.804196 33.688889 L 116.643357 30.577778 L 117.482517 30.577778 L 118.321678 30.577778 L 119.160839 33.688889 L 120.000000 36.800000"></path>
      <path stroke="none" fill-opacity="0.6" fill="url(#color_grad)" d="M 0 40 L 0.000000 13.466667 L 0.839161 13.466667 L 1.678322 13.466667 L 2.517483 13.466667 L 3.356643 13.466667 L 4.195804 13.466667 L 5.034965 13.466667 L 5.874126 13.466667 L 6.713287 13.466667 L 7.552448 13.466667 L 8.391608 13.466667 L 9.230769 13.466667 L 10.069930 15.022222 L 10.909091 15.022222 L 11.748252 15.022222 L 12.587413 13.466667 L 13.426573 13.466667 L 14.265734 13.466667 L 15.104895 11.911111 L 15.944056 11.911111 L 16.783217 11.911111 L 17.622378 11.225796 L 18.461538 11.133333 L 19.300699 10.627506 L 20.139860 10.355556 L 20.979021 10.355556 L 21.818182 10.355556 L 22.657343 10.355556 L 23.496503 10.355556 L 24.335664 10.355556 L 25.174825 8.800000 L 26.013986 9.887801 L 26.853147 10.355556 L 27.692308 10.355556 L 28.531469 11.911111 L 29.370629 12.324476 L 30.209790 11.911111 L 31.048951 11.911111 L 31.888112 10.355556 L 32.727273 10.355556 L 33.566434 10.355556 L 34.405594 10.355556 L 35.244755 10.511111 L 36.083916 10.511111 L 36.923077 10.355556 L 37.762238 10.355556 L 38.601399 10.355556 L 39.440559 10.511111 L 40.279720 10.511111 L 41.118881 10.511111 L 41.958042 10.511111 L 42.797203 10.511111 L 43.636364 10.511111 L 44.475524 10.511111 L 45.314685 10.511111 L 46.153846 10.511111 L 46.993007 10.511111 L 47.832168 25.911111 L 48.671329 14.828594 L 49.510490 10.511111 L 50.349650 10.511111 L 51.188811 11.911111 L 52.027972 11.911111 L 52.867133 11.911111 L 53.706294 11.911111 L 54.545455 11.911111 L 55.384615 11.911111 L 56.223776 11.911111 L 57.062937 15.022222 L 57.902098 16.577778 L 58.741259 16.577778 L 59.580420 13.466667 L 60.419580 13.466667 L 61.258741 16.577778 L 62.097902 13.466667 L 62.937063 13.466667 L 63.776224 15.022222 L 64.615385 15.201709 L 65.454545 15.800000 L 66.293706 15.800000 L 67.132867 15.488889 L 67.972028 18.133333 L 68.811189 22.800000 L 69.650350 18.133333 L 70.489510 18.133333 L 71.328671 16.635431 L 72.167832 15.488889 L 73.006993 15.488889 L 73.846154 24.200000 L 74.685315 24.200000 L 75.524476 15.488889 L 76.363636 18.133333 L 77.202797 21.711111 L 78.041958 25.911111 L 78.881119 25.911111 L 79.720280 24.355556 L 80.559441 24.355556 L 81.398601 24.355556 L 82.237762 24.355556 L 83.076923 25.911111 L 83.916084 25.911111 L 84.755245 25.028904 L 85.594406 26.377778 L 86.433566 26.377778 L 87.272727 26.377778 L 88.111888 24.511111 L 88.951049 24.511111 L 89.790210 24.511111 L 90.629371 24.511111 L 91.468531 24.511111 L 92.307692 24.511111 L 93.146853 24.511111 L 93.986014 27.466667 L 94.825175 27.466667 L 95.664336 24.511111 L 96.503497 23.294949 L 97.342657 18.288889 L 98.181818 18.288889 L 99.020979 18.288889 L 99.860140 18.288889 L 100.699301 18.288889 L 101.538462 25.911111 L 102.377622 25.911111 L 103.216783 25.911111 L 104.055944 21.244444 L 104.895105 21.244444 L 105.734266 21.244444 L 106.573427 21.755711 L 107.412587 21.244444 L 108.251748 21.244444 L 109.090909 21.244444 L 109.930070 21.244444 L 110.769231 21.244444 L 111.608392 21.244444 L 112.447552 25.911111 L 113.286713 25.911111 L 114.125874 30.733333 L 114.965035 30.733333 L 115.804196 33.688889 L 116.643357 30.577778 L 117.482517 30.577778 L 118.321678 30.577778 L 119.160839 33.688889 L 120.000000 36.800000 L 120 40 Z"></path>
    </g>
  </svg>