<svg xmlns="http://www.w3.org/2000/svg" viewBox="0 0 120 40" width="120" height="40">
    <defs>
      <linearGradient id="color_grad" x1="0%" x2="0%" y1="0%" y2="100%">
        <stop offset="0%" style="stop-color:#EA3943;stop-opacity:0.4;"></stop>
        <stop offset="100%" style="stop-color:#EA3943;stop-opacity:0.0;"></stop>
      </linearGradient>
    </defs>
    <g>
      <path stroke="#EA3943" stroke-width="2" stroke-linecap="round" stroke-linejoin="round" fill="none" d="M 0.000000 23.869035 L 0.839161 23.922332 L 1.678322 25.683794 L 2.517483 26.290543 L 3.356643 26.013904 L 4.195804 27.970730 L 5.034965 27.059755 L 5.874126 27.224615 L 6.713287 26.711472 L 7.552448 26.432567 L 8.391608 25.972243 L 9.230769 24.592402 L 10.069930 26.089252 L 10.909091 26.134574 L 11.748252 26.552409 L 12.587413 26.085679 L 13.426573 25.439446 L 14.265734 24.878847 L 15.104895 23.099823 L 15.944056 22.560752 L 16.783217 21.572991 L 17.622378 19.787954 L 18.461538 18.956946 L 19.300699 18.209262 L 20.139860 17.727453 L 20.979021 16.785015 L 21.818182 9.897362 L 22.657343 12.001789 L 23.496503 11.193095 L 24.335664 11.435524 L 25.174825 8.800000 L 26.013986 10.644479 L 26.853147 11.653986 L 27.692308 11.873318 L 28.531469 15.160566 L 29.370629 15.684167 L 30.209790 14.168927 L 31.048951 13.927064 L 31.888112 11.926223 L 32.727273 11.687018 L 33.566434 11.275415 L 34.405594 11.767117 L 35.244755 11.601473 L 36.083916 12.559426 L 36.923077 12.322007 L 37.762238 10.902423 L 38.601399 10.458223 L 39.440559 10.863768 L 40.279720 10.411855 L 41.118881 9.030271 L 41.958042 11.307794 L 42.797203 12.895855 L 43.636364 13.105601 L 44.475524 11.942304 L 45.314685 10.483629 L 46.153846 10.458702 L 46.993007 9.651707 L 47.832168 29.827455 L 48.671329 15.728225 L 49.510490 9.215918 L 50.349650 9.185412 L 51.188811 11.237763 L 52.027972 10.297155 L 52.867133 10.346094 L 53.706294 10.291272 L 54.545455 10.160230 L 55.384615 9.350402 L 56.223776 8.865368 L 57.062937 11.090423 L 57.902098 13.320837 L 58.741259 14.177686 L 59.580420 10.662521 L 60.419580 10.842197 L 61.258741 15.674928 L 62.097902 11.483418 L 62.937063 13.411830 L 63.776224 17.928135 L 64.615385 18.068677 L 65.454545 18.989544 L 66.293706 21.540132 L 67.132867 20.784996 L 67.972028 26.509658 L 68.811189 31.949575 L 69.650350 27.246753 L 70.489510 27.062545 L 71.328671 24.854138 L 72.167832 23.680556 L 73.006993 23.083917 L 73.846154 33.489961 L 74.685315 31.675464 L 75.524476 20.133230 L 76.363636 23.237358 L 77.202797 28.345683 L 78.041958 34.935475 L 78.881119 34.685680 L 79.720280 32.048412 L 80.559441 34.376400 L 81.398601 33.462549 L 82.237762 32.787773 L 83.076923 32.463633 L 83.916084 29.564369 L 84.755245 29.926989 L 85.594406 30.608869 L 86.433566 30.117516 L 87.272727 29.260667 L 88.111888 27.058971 L 88.951049 27.128392 L 89.790210 25.663312 L 90.629371 26.317649 L 91.468531 25.128903 L 92.307692 25.984488 L 93.146853 27.532805 L 93.986014 27.664980 L 94.825175 28.562488 L 95.664336 27.352650 L 96.503497 25.054514 L 97.342657 18.503377 L 98.181818 19.954904 L 99.020979 21.384294 L 99.860140 20.355395 L 100.699301 17.378691 L 101.538462 31.783409 L 102.377622 29.922239 L 103.216783 29.074890 L 104.055944 23.444663 L 104.895105 19.955645 L 105.734266 20.561698 L 106.573427 20.884836 L 107.412587 19.540338 L 108.251748 18.904652 L 109.090909 18.746504 L 109.930070 17.634630 L 110.769231 16.373150 L 111.608392 17.133080 L 112.447552 23.526853 L 113.286713 22.579229 L 114.125874 29.369832 L 114.965035 29.995364 L 115.804196 31.573358 L 116.643357 23.915142 L 117.482517 25.774133 L 118.321678 27.295561 L 119.160839 32.005008 L 120.000000 36.800000"></path>
      <path stroke="none" fill-opacity="0.6" fill="url(#color_grad)" d="M 0 40 L 0.000000 23.869035 L 0.839161 23.922332 L 1.678322 25.683794 L 2.517483 26.290543 L 3.356643 26.013904 L 4.195804 27.970730 L 5.034965 27.059755 L 5.874126 27.224615 L 6.713287 26.711472 L 7.552448 26.432567 L 8.391608 25.972243 L 9.230769 24.592402 L 10.069930 26.089252 L 10.909091 26.134574 L 11.748252 26.552409 L 12.587413 26.085679 L 13.426573 25.439446 L 14.265734 24.878847 L 15.104895 23.099823 L 15.944056 22.560752 L 16.783217 21.572991 L 17.622378 19.787954 L 18.461538 18.956946 L 19.300699 18.209262 L 20.139860 17.727453 L 20.979021 16.785015 L 21.818182 9.897362 L 22.657343 12.001789 L 23.496503 11.193095 L 24.335664 11.435524 L 25.174825 8.800000 L 26.013986 10.644479 L 26.853147 11.653986 L 27.692308 11.873318 L 28.531469 15.160566 L 29.370629 15.684167 L 30.209790 14.168927 L 31.048951 13.927064 L 31.888112 11.926223 L 32.727273 11.687018 L 33.566434 11.275415 L 34.405594 11.767117 L 35.244755 11.601473 L 36.083916 12.559426 L 36.923077 12.322007 L 37.762238 10.902423 L 38.601399 10.458223 L 39.440559 10.863768 L 40.279720 10.411855 L 41.118881 9.030271 L 41.958042 11.307794 L 42.797203 12.895855 L 43.636364 13.105601 L 44.475524 11.942304 L 45.314685 10.483629 L 46.153846 10.458702 L 46.993007 9.651707 L 47.832168 29.827455 L 48.671329 15.728225 L 49.510490 9.215918 L 50.349650 9.185412 L 51.188811 11.237763 L 52.027972 10.297155 L 52.867133 10.346094 L 53.706294 10.291272 L 54.545455 10.160230 L 55.384615 9.350402 L 56.223776 8.865368 L 57.062937 11.090423 L 57.902098 13.320837 L 58.741259 14.177686 L 59.580420 10.662521 L 60.419580 10.842197 L 61.258741 15.674928 L 62.097902 11.483418 L 62.937063 13.411830 L 63.776224 17.928135 L 64.615385 18.068677 L 65.454545 18.989544 L 66.293706 21.540132 L 67.132867 20.784996 L 67.972028 26.509658 L 68.811189 31.949575 L 69.650350 27.246753 L 70.489510 27.062545 L 71.328671 24.854138 L 72.167832 23.680556 L 73.006993 23.083917 L 73.846154 33.489961 L 74.685315 31.675464 L 75.524476 20.133230 L 76.363636 23.237358 L 77.202797 28.345683 L 78.041958 34.935475 L 78.881119 34.685680 L 79.720280 32.048412 L 80.559441 34.376400 L 81.398601 33.462549 L 82.237762 32.787773 L 83.076923 32.463633 L 83.916084 29.564369 L 84.755245 29.926989 L 85.594406 30.608869 L 86.433566 30.117516 L 87.272727 29.260667 L 88.111888 27.058971 L 88.951049 27.128392 L 89.790210 25.663312 L 90.629371 26.317649 L 91.468531 25.128903 L 92.307692 25.984488 L 93.146853 27.532805 L 93.986014 27.664980 L 94.825175 28.562488 L 95.664336 27.352650 L 96.503497 25.054514 L 97.342657 18.503377 L 98.181818 19.954904 L 99.020979 21.384294 L 99.860140 20.355395 L 100.699301 17.378691 L 101.538462 31.783409 L 102.377622 29.922239 L 103.216783 29.074890 L 104.055944 23.444663 L 104.895105 19.955645 L 105.734266 20.561698 L 106.573427 20.884836 L 107.412587 19.540338 L 108.251748 18.904652 L 109.090909 18.746504 L 109.930070 17.634630 L 110.769231 16.373150 L 111.608392 17.133080 L 112.447552 23.526853 L 113.286713 22.579229 L 114.125874 29.369832 L 114.965035 29.995364 L 115.804196 31.573358 L 116.643357 23.915142 L 117.482517 25.774133 L 118.321678 27.295561 L 119.160839 32.005008 L 120.000000 36.800000 L 120 40 Z"></path>
    </g>
  </svg>