<svg xmlns="http://www.w3.org/2000/svg" viewBox="0 0 120 40" width="120" height="40">
    <defs>
      <linearGradient id="color_grad" x1="0%" x2="0%" y1="0%" y2="100%">
        <stop offset="0%" style="stop-color:#16C784;stop-opacity:0.4;"></stop>
        <stop offset="100%" style="stop-color:#16C784;stop-opacity:0.0;"></stop>
      </linearGradient>
    </defs>
    <g>
      <path stroke="#16C784" stroke-width="2" stroke-linecap="round" stroke-linejoin="round" fill="none" d="M 0.000000 8.800000 L 0.839161 9.570452 L 1.678322 10.787387 L 2.517483 12.494092 L 3.356643 12.326261 L 4.195804 13.523878 L 5.034965 12.967247 L 5.874126 13.068361 L 6.713287 12.753876 L 7.552448 14.198637 L 8.391608 15.674833 L 9.230769 14.908321 L 10.069930 14.639749 L 10.909091 15.867910 L 11.748252 16.565100 L 12.587413 26.929169 L 13.426573 26.590363 L 14.265734 26.298737 L 15.104895 26.387942 L 15.944056 26.110750 L 16.783217 25.601580 L 17.622378 25.131082 L 18.461538 24.766504 L 19.300699 24.715035 L 20.139860 24.646295 L 20.979021 24.165780 L 21.818182 20.656524 L 22.657343 21.728730 L 23.496503 21.315238 L 24.335664 21.440468 L 25.174825 21.151954 L 26.013986 27.323694 L 26.853147 30.248855 L 27.692308 27.613365 L 28.531469 28.202379 L 29.370629 28.195033 L 30.209790 27.726214 L 31.048951 27.610245 L 31.888112 27.637454 L 32.727273 27.524837 L 33.566434 27.329962 L 34.405594 27.563486 L 35.244755 27.386737 L 36.083916 27.841018 L 36.923077 27.825883 L 37.762238 27.150341 L 38.601399 26.939117 L 39.440559 27.033073 L 40.279720 26.819544 L 41.118881 26.160838 L 41.958042 32.638174 L 42.797203 35.109643 L 43.636364 32.945157 L 44.475524 27.560446 L 45.314685 26.866649 L 46.153846 26.854950 L 46.993007 26.468956 L 47.832168 26.194306 L 48.671329 26.601867 L 49.510490 26.262115 L 50.349650 32.284191 L 51.188811 32.358918 L 52.027972 31.937453 L 52.867133 31.959219 L 53.706294 31.936286 L 54.545455 31.878039 L 55.384615 31.514539 L 56.223776 31.299550 L 57.062937 25.097277 L 57.902098 24.235233 L 58.741259 24.662665 L 59.580420 22.623905 L 60.419580 22.713014 L 61.258741 25.395721 L 62.097902 25.415335 L 62.937063 27.562173 L 63.776224 28.740365 L 64.615385 28.695222 L 65.454545 28.756644 L 66.293706 30.003353 L 67.132867 29.833138 L 67.972028 31.540296 L 68.811189 32.401245 L 69.650350 33.634182 L 70.489510 33.546993 L 71.328671 33.410596 L 72.167832 33.555048 L 73.006993 33.272242 L 73.846154 32.849690 L 74.685315 31.927284 L 75.524476 31.873713 L 76.363636 31.697416 L 77.202797 31.894271 L 78.041958 33.034591 L 78.881119 33.494779 L 79.720280 33.189545 L 80.559441 34.473184 L 81.398601 34.016889 L 82.237762 33.678746 L 83.076923 32.496158 L 83.916084 31.023629 L 84.755245 31.807862 L 85.594406 31.235618 L 86.433566 30.985502 L 87.272727 30.547954 L 88.111888 34.234179 L 88.951049 30.750557 L 89.790210 30.015523 L 90.629371 30.344201 L 91.468531 29.747962 L 92.307692 30.178253 L 93.146853 30.954397 L 93.986014 28.967285 L 94.825175 31.638352 L 95.664336 30.864696 L 96.503497 30.535779 L 97.342657 35.394397 L 98.181818 36.045090 L 99.020979 36.686077 L 99.860140 36.223788 L 100.699301 34.891438 L 101.538462 36.800000 L 102.377622 35.910677 L 103.216783 35.506974 L 104.055944 35.824705 L 104.895105 34.222494 L 105.734266 34.499900 L 106.573427 34.325881 L 107.412587 34.031823 L 108.251748 33.740906 L 109.090909 33.666732 L 109.930070 33.156343 L 110.769231 32.578236 L 111.608392 32.927452 L 112.447552 32.860058 L 113.286713 32.406970 L 114.125874 28.603223 L 114.965035 28.930923 L 115.804196 30.707488 L 116.643357 32.416885 L 117.482517 30.854159 L 118.321678 28.029726 L 119.160839 29.011932 L 120.000000 30.535522"></path>
      <path stroke="none" fill-opacity="0.6" fill="url(#color_grad)" d="M 0 40 L 0.000000 8.800000 L 0.839161 9.570452 L 1.678322 10.787387 L 2.517483 12.494092 L 3.356643 12.326261 L 4.195804 13.523878 L 5.034965 12.967247 L 5.874126 13.068361 L 6.713287 12.753876 L 7.552448 14.198637 L 8.391608 15.674833 L 9.230769 14.908321 L 10.069930 14.639749 L 10.909091 15.867910 L 11.748252 16.565100 L 12.587413 26.929169 L 13.426573 26.590363 L 14.265734 26.298737 L 15.104895 26.387942 L 15.944056 26.110750 L 16.783217 25.601580 L 17.622378 25.131082 L 18.461538 24.766504 L 19.300699 24.715035 L 20.139860 24.646295 L 20.979021 24.165780 L 21.818182 20.656524 L 22.657343 21.728730 L 23.496503 21.315238 L 24.335664 21.440468 L 25.174825 21.151954 L 26.013986 27.323694 L 26.853147 30.248855 L 27.692308 27.613365 L 28.531469 28.202379 L 29.370629 28.195033 L 30.209790 27.726214 L 31.048951 27.610245 L 31.888112 27.637454 L 32.727273 27.524837 L 33.566434 27.329962 L 34.405594 27.563486 L 35.244755 27.386737 L 36.083916 27.841018 L 36.923077 27.825883 L 37.762238 27.150341 L 38.601399 26.939117 L 39.440559 27.033073 L 40.279720 26.819544 L 41.118881 26.160838 L 41.958042 32.638174 L 42.797203 35.109643 L 43.636364 32.945157 L 44.475524 27.560446 L 45.314685 26.866649 L 46.153846 26.854950 L 46.993007 26.468956 L 47.832168 26.194306 L 48.671329 26.601867 L 49.510490 26.262115 L 50.349650 32.284191 L 51.188811 32.358918 L 52.027972 31.937453 L 52.867133 31.959219 L 53.706294 31.936286 L 54.545455 31.878039 L 55.384615 31.514539 L 56.223776 31.299550 L 57.062937 25.097277 L 57.902098 24.235233 L 58.741259 24.662665 L 59.580420 22.623905 L 60.419580 22.713014 L 61.258741 25.395721 L 62.097902 25.415335 L 62.937063 27.562173 L 63.776224 28.740365 L 64.615385 28.695222 L 65.454545 28.756644 L 66.293706 30.003353 L 67.132867 29.833138 L 67.972028 31.540296 L 68.811189 32.401245 L 69.650350 33.634182 L 70.489510 33.546993 L 71.328671 33.410596 L 72.167832 33.555048 L 73.006993 33.272242 L 73.846154 32.849690 L 74.685315 31.927284 L 75.524476 31.873713 L 76.363636 31.697416 L 77.202797 31.894271 L 78.041958 33.034591 L 78.881119 33.494779 L 79.720280 33.189545 L 80.559441 34.473184 L 81.398601 34.016889 L 82.237762 33.678746 L 83.076923 32.496158 L 83.916084 31.023629 L 84.755245 31.807862 L 85.594406 31.235618 L 86.433566 30.985502 L 87.272727 30.547954 L 88.111888 34.234179 L 88.951049 30.750557 L 89.790210 30.015523 L 90.629371 30.344201 L 91.468531 29.747962 L 92.307692 30.178253 L 93.146853 30.954397 L 93.986014 28.967285 L 94.825175 31.638352 L 95.664336 30.864696 L 96.503497 30.535779 L 97.342657 35.394397 L 98.181818 36.045090 L 99.020979 36.686077 L 99.860140 36.223788 L 100.699301 34.891438 L 101.538462 36.800000 L 102.377622 35.910677 L 103.216783 35.506974 L 104.055944 35.824705 L 104.895105 34.222494 L 105.734266 34.499900 L 106.573427 34.325881 L 107.412587 34.031823 L 108.251748 33.740906 L 109.090909 33.666732 L 109.930070 33.156343 L 110.769231 32.578236 L 111.608392 32.927452 L 112.447552 32.860058 L 113.286713 32.406970 L 114.125874 28.603223 L 114.965035 28.930923 L 115.804196 30.707488 L 116.643357 32.416885 L 117.482517 30.854159 L 118.321678 28.029726 L 119.160839 29.011932 L 120.000000 30.535522 L 120 40 Z"></path>
    </g>
  </svg>