<svg xmlns="http://www.w3.org/2000/svg" viewBox="0 0 120 40" width="120" height="40">
    <defs>
      <linearGradient id="color_grad" x1="0%" x2="0%" y1="0%" y2="100%">
        <stop offset="0%" style="stop-color:#16C784;stop-opacity:0.4;"></stop>
        <stop offset="100%" style="stop-color:#16C784;stop-opacity:0.0;"></stop>
      </linearGradient>
    </defs>
    <g>
      <path stroke="#16C784" stroke-width="2" stroke-linecap="round" stroke-linejoin="round" fill="none" d="M 0.000000 8.800000 L 0.839161 9.407679 L 1.678322 9.509668 L 2.517483 10.623038 L 3.356643 10.623038 L 4.195804 10.623038 L 5.034965 10.623038 L 5.874126 10.623038 L 6.713287 10.623038 L 7.552448 11.973074 L 8.391608 13.437062 L 9.230769 13.478772 L 10.069930 13.483806 L 10.909091 14.474791 L 11.748252 14.848225 L 12.587413 22.776628 L 13.426573 22.776628 L 14.265734 22.776628 L 15.104895 22.776628 L 15.944056 22.776628 L 16.783217 22.776628 L 17.622378 22.776628 L 18.461538 22.776628 L 19.300699 22.776628 L 20.139860 22.776628 L 20.979021 22.776628 L 21.818182 22.776628 L 22.657343 22.776628 L 23.496503 22.776628 L 24.335664 22.776628 L 25.174825 22.776628 L 26.013986 27.451085 L 26.853147 29.601336 L 27.692308 27.451085 L 28.531469 27.451085 L 29.370629 27.451085 L 30.209790 27.451085 L 31.048951 27.451085 L 31.888112 27.451085 L 32.727273 27.451085 L 33.566434 27.451085 L 34.405594 27.451085 L 35.244755 27.451085 L 36.083916 27.451085 L 36.923077 27.451085 L 37.762238 27.451085 L 38.601399 27.451085 L 39.440559 27.451085 L 40.279720 27.451085 L 41.118881 27.451085 L 41.958042 31.668819 L 42.797203 33.060434 L 43.636364 31.277341 L 44.475524 27.460434 L 45.314685 27.460434 L 46.153846 27.460434 L 46.993007 27.460434 L 47.832168 27.460434 L 48.671329 27.460434 L 49.510490 27.460434 L 50.349650 32.125543 L 51.188811 32.125543 L 52.027972 32.125543 L 52.867133 32.125543 L 53.706294 32.125543 L 54.545455 32.125543 L 55.384615 32.125543 L 56.223776 32.125543 L 57.062937 28.145520 L 57.902098 27.460434 L 58.741259 27.460434 L 59.580420 25.628047 L 60.419580 25.628047 L 61.258741 27.451085 L 62.097902 27.451085 L 62.937063 28.385977 L 63.776224 28.385977 L 64.615385 28.385977 L 65.454545 28.385977 L 66.293706 28.385977 L 67.132867 28.385977 L 67.972028 28.853422 L 68.811189 29.785045 L 69.650350 30.255760 L 70.489510 30.255760 L 71.328671 30.255760 L 72.167832 30.255760 L 73.006993 30.255760 L 73.846154 30.255760 L 74.685315 30.255760 L 75.524476 30.255760 L 76.363636 30.255760 L 77.202797 30.255760 L 78.041958 30.723205 L 78.881119 31.190651 L 79.720280 31.190651 L 80.559441 31.284140 L 81.398601 31.284140 L 82.237762 31.285186 L 83.076923 31.293489 L 83.916084 31.293489 L 84.755245 31.293489 L 85.594406 31.293489 L 86.433566 31.293489 L 87.272727 31.293489 L 88.111888 33.995326 L 88.951049 31.293489 L 89.790210 31.293489 L 90.629371 31.293489 L 91.468531 31.293489 L 92.307692 31.293489 L 93.146853 31.293489 L 93.986014 31.293489 L 94.825175 32.960146 L 95.664336 31.293489 L 96.503497 31.293489 L 97.342657 34.930217 L 98.181818 34.930217 L 99.020979 34.930217 L 99.860140 34.930217 L 100.699301 34.930217 L 101.538462 34.930217 L 102.377622 34.930217 L 103.216783 34.930217 L 104.055944 34.930217 L 104.895105 34.930217 L 105.734266 34.930217 L 106.573427 34.930217 L 107.412587 34.930217 L 108.251748 34.930217 L 109.090909 34.930217 L 109.930070 34.930217 L 110.769231 34.930217 L 111.608392 34.930217 L 112.447552 34.930217 L 113.286713 34.930217 L 114.125874 32.125543 L 114.965035 32.125543 L 115.804196 34.425506 L 116.643357 36.800000 L 117.482517 35.023706 L 118.321678 32.411567 L 119.160839 33.023169 L 120.000000 33.995326"></path>
      <path stroke="none" fill-opacity="0.6" fill="url(#color_grad)" d="M 0 40 L 0.000000 8.800000 L 0.839161 9.407679 L 1.678322 9.509668 L 2.517483 10.623038 L 3.356643 10.623038 L 4.195804 10.623038 L 5.034965 10.623038 L 5.874126 10.623038 L 6.713287 10.623038 L 7.552448 11.973074 L 8.391608 13.437062 L 9.230769 13.478772 L 10.069930 13.483806 L 10.909091 14.474791 L 11.748252 14.848225 L 12.587413 22.776628 L 13.426573 22.776628 L 14.265734 22.776628 L 15.104895 22.776628 L 15.944056 22.776628 L 16.783217 22.776628 L 17.622378 22.776628 L 18.461538 22.776628 L 19.300699 22.776628 L 20.139860 22.776628 L 20.979021 22.776628 L 21.818182 22.776628 L 22.657343 22.776628 L 23.496503 22.776628 L 24.335664 22.776628 L 25.174825 22.776628 L 26.013986 27.451085 L 26.853147 29.601336 L 27.692308 27.451085 L 28.531469 27.451085 L 29.370629 27.451085 L 30.209790 27.451085 L 31.048951 27.451085 L 31.888112 27.451085 L 32.727273 27.451085 L 33.566434 27.451085 L 34.405594 27.451085 L 35.244755 27.451085 L 36.083916 27.451085 L 36.923077 27.451085 L 37.762238 27.451085 L 38.601399 27.451085 L 39.440559 27.451085 L 40.279720 27.451085 L 41.118881 27.451085 L 41.958042 31.668819 L 42.797203 33.060434 L 43.636364 31.277341 L 44.475524 27.460434 L 45.314685 27.460434 L 46.153846 27.460434 L 46.993007 27.460434 L 47.832168 27.460434 L 48.671329 27.460434 L 49.510490 27.460434 L 50.349650 32.125543 L 51.188811 32.125543 L 52.027972 32.125543 L 52.867133 32.125543 L 53.706294 32.125543 L 54.545455 32.125543 L 55.384615 32.125543 L 56.223776 32.125543 L 57.062937 28.145520 L 57.902098 27.460434 L 58.741259 27.460434 L 59.580420 25.628047 L 60.419580 25.628047 L 61.258741 27.451085 L 62.097902 27.451085 L 62.937063 28.385977 L 63.776224 28.385977 L 64.615385 28.385977 L 65.454545 28.385977 L 66.293706 28.385977 L 67.132867 28.385977 L 67.972028 28.853422 L 68.811189 29.785045 L 69.650350 30.255760 L 70.489510 30.255760 L 71.328671 30.255760 L 72.167832 30.255760 L 73.006993 30.255760 L 73.846154 30.255760 L 74.685315 30.255760 L 75.524476 30.255760 L 76.363636 30.255760 L 77.202797 30.255760 L 78.041958 30.723205 L 78.881119 31.190651 L 79.720280 31.190651 L 80.559441 31.284140 L 81.398601 31.284140 L 82.237762 31.285186 L 83.076923 31.293489 L 83.916084 31.293489 L 84.755245 31.293489 L 85.594406 31.293489 L 86.433566 31.293489 L 87.272727 31.293489 L 88.111888 33.995326 L 88.951049 31.293489 L 89.790210 31.293489 L 90.629371 31.293489 L 91.468531 31.293489 L 92.307692 31.293489 L 93.146853 31.293489 L 93.986014 31.293489 L 94.825175 32.960146 L 95.664336 31.293489 L 96.503497 31.293489 L 97.342657 34.930217 L 98.181818 34.930217 L 99.020979 34.930217 L 99.860140 34.930217 L 100.699301 34.930217 L 101.538462 34.930217 L 102.377622 34.930217 L 103.216783 34.930217 L 104.055944 34.930217 L 104.895105 34.930217 L 105.734266 34.930217 L 106.573427 34.930217 L 107.412587 34.930217 L 108.251748 34.930217 L 109.090909 34.930217 L 109.930070 34.930217 L 110.769231 34.930217 L 111.608392 34.930217 L 112.447552 34.930217 L 113.286713 34.930217 L 114.125874 32.125543 L 114.965035 32.125543 L 115.804196 34.425506 L 116.643357 36.800000 L 117.482517 35.023706 L 118.321678 32.411567 L 119.160839 33.023169 L 120.000000 33.995326 L 120 40 Z"></path>
    </g>
  </svg>