<svg xmlns="http://www.w3.org/2000/svg" viewBox="0 0 120 40" width="120" height="40">
    <defs>
      <linearGradient id="color_grad" x1="0%" x2="0%" y1="0%" y2="100%">
        <stop offset="0%" style="stop-color:#EA3943;stop-opacity:0.4;"></stop>
        <stop offset="100%" style="stop-color:#EA3943;stop-opacity:0.0;"></stop>
      </linearGradient>
    </defs>
    <g>
      <path stroke="#EA3943" stroke-width="2" stroke-linecap="round" stroke-linejoin="round" fill="none" d="M 0.000000 8.800000 L 0.839161 8.800000 L 1.678322 8.800000 L 2.517483 8.800000 L 3.356643 8.800000 L 4.195804 8.800000 L 5.034965 8.800000 L 5.874126 8.800000 L 6.713287 8.818667 L 7.552448 8.818667 L 8.391608 8.800000 L 9.230769 11.282667 L 10.069930 11.282667 L 10.909091 11.282667 L 11.748252 11.282667 L 12.587413 11.282667 L 13.426573 18.133333 L 14.265734 18.133333 L 15.104895 20.952914 L 15.944056 21.866667 L 16.783217 18.733800 L 17.622378 11.282667 L 18.461538 11.282667 L 19.300699 11.282667 L 20.139860 11.282667 L 20.979021 11.282667 L 21.818182 11.282667 L 22.657343 18.133333 L 23.496503 18.133333 L 24.335664 19.387786 L 25.174825 18.133333 L 26.013986 18.133333 L 26.853147 13.466667 L 27.692308 14.773333 L 28.531469 16.274629 L 29.370629 16.276587 L 30.209790 18.133333 L 31.048951 18.133333 L 31.888112 18.244289 L 32.727273 15.825455 L 33.566434 20.709333 L 34.405594 20.709333 L 35.244755 20.709333 L 36.083916 21.120000 L 36.923077 21.120000 L 37.762238 21.120000 L 38.601399 21.120000 L 39.440559 21.120000 L 40.279720 21.120000 L 41.118881 21.120000 L 41.958042 21.120000 L 42.797203 21.493333 L 43.636364 21.493333 L 44.475524 21.597762 L 45.314685 21.960000 L 46.153846 23.733333 L 46.993007 24.106667 L 47.832168 27.466667 L 48.671329 27.466667 L 49.510490 27.485333 L 50.349650 27.494993 L 51.188811 33.370816 L 52.027972 35.866667 L 52.867133 28.400000 L 53.706294 28.400000 L 54.545455 28.400000 L 55.384615 28.400000 L 56.223776 28.400000 L 57.062937 31.200000 L 57.902098 31.200000 L 58.741259 27.560392 L 59.580420 27.504000 L 60.419580 27.504000 L 61.258741 27.504000 L 62.097902 31.200000 L 62.937063 31.200000 L 63.776224 31.200000 L 64.615385 31.200000 L 65.454545 24.965333 L 66.293706 31.200000 L 67.132867 31.200000 L 67.972028 31.200000 L 68.811189 31.200000 L 69.650350 27.485333 L 70.489510 27.485333 L 71.328671 27.485333 L 72.167832 27.485333 L 73.006993 27.485333 L 73.846154 27.485333 L 74.685315 27.485333 L 75.524476 27.485333 L 76.363636 27.840000 L 77.202797 28.138667 L 78.041958 28.232000 L 78.881119 28.232000 L 79.720280 28.232000 L 80.559441 28.232000 L 81.398601 28.698667 L 82.237762 28.707021 L 83.076923 28.773333 L 83.916084 28.885333 L 84.755245 29.333333 L 85.594406 30.683077 L 86.433566 29.650667 L 87.272727 29.650667 L 88.111888 29.650667 L 88.951049 29.650667 L 89.790210 29.650667 L 90.629371 29.650667 L 91.468531 29.650667 L 92.307692 29.650667 L 93.146853 29.650667 L 93.986014 29.865138 L 94.825175 29.949333 L 95.664336 29.949333 L 96.503497 34.000000 L 97.342657 34.000000 L 98.181818 34.000000 L 99.020979 34.000000 L 99.860140 34.000000 L 100.699301 34.000000 L 101.538462 36.800000 L 102.377622 30.266667 L 103.216783 31.573333 L 104.055944 31.573333 L 104.895105 31.573333 L 105.734266 31.573333 L 106.573427 31.573333 L 107.412587 31.573333 L 108.251748 31.573333 L 109.090909 31.573333 L 109.930070 31.573333 L 110.769231 31.573333 L 111.608392 31.573333 L 112.447552 31.666667 L 113.286713 31.666667 L 114.125874 31.864429 L 114.965035 32.096000 L 115.804196 32.096000 L 116.643357 32.133333 L 117.482517 34.933333 L 118.321678 34.952000 L 119.160839 34.952000 L 120.000000 34.952000"></path>
      <path stroke="none" fill-opacity="0.6" fill="url(#color_grad)" d="M 0 40 L 0.000000 8.800000 L 0.839161 8.800000 L 1.678322 8.800000 L 2.517483 8.800000 L 3.356643 8.800000 L 4.195804 8.800000 L 5.034965 8.800000 L 5.874126 8.800000 L 6.713287 8.818667 L 7.552448 8.818667 L 8.391608 8.800000 L 9.230769 11.282667 L 10.069930 11.282667 L 10.909091 11.282667 L 11.748252 11.282667 L 12.587413 11.282667 L 13.426573 18.133333 L 14.265734 18.133333 L 15.104895 20.952914 L 15.944056 21.866667 L 16.783217 18.733800 L 17.622378 11.282667 L 18.461538 11.282667 L 19.300699 11.282667 L 20.139860 11.282667 L 20.979021 11.282667 L 21.818182 11.282667 L 22.657343 18.133333 L 23.496503 18.133333 L 24.335664 19.387786 L 25.174825 18.133333 L 26.013986 18.133333 L 26.853147 13.466667 L 27.692308 14.773333 L 28.531469 16.274629 L 29.370629 16.276587 L 30.209790 18.133333 L 31.048951 18.133333 L 31.888112 18.244289 L 32.727273 15.825455 L 33.566434 20.709333 L 34.405594 20.709333 L 35.244755 20.709333 L 36.083916 21.120000 L 36.923077 21.120000 L 37.762238 21.120000 L 38.601399 21.120000 L 39.440559 21.120000 L 40.279720 21.120000 L 41.118881 21.120000 L 41.958042 21.120000 L 42.797203 21.493333 L 43.636364 21.493333 L 44.475524 21.597762 L 45.314685 21.960000 L 46.153846 23.733333 L 46.993007 24.106667 L 47.832168 27.466667 L 48.671329 27.466667 L 49.510490 27.485333 L 50.349650 27.494993 L 51.188811 33.370816 L 52.027972 35.866667 L 52.867133 28.400000 L 53.706294 28.400000 L 54.545455 28.400000 L 55.384615 28.400000 L 56.223776 28.400000 L 57.062937 31.200000 L 57.902098 31.200000 L 58.741259 27.560392 L 59.580420 27.504000 L 60.419580 27.504000 L 61.258741 27.504000 L 62.097902 31.200000 L 62.937063 31.200000 L 63.776224 31.200000 L 64.615385 31.200000 L 65.454545 24.965333 L 66.293706 31.200000 L 67.132867 31.200000 L 67.972028 31.200000 L 68.811189 31.200000 L 69.650350 27.485333 L 70.489510 27.485333 L 71.328671 27.485333 L 72.167832 27.485333 L 73.006993 27.485333 L 73.846154 27.485333 L 74.685315 27.485333 L 75.524476 27.485333 L 76.363636 27.840000 L 77.202797 28.138667 L 78.041958 28.232000 L 78.881119 28.232000 L 79.720280 28.232000 L 80.559441 28.232000 L 81.398601 28.698667 L 82.237762 28.707021 L 83.076923 28.773333 L 83.916084 28.885333 L 84.755245 29.333333 L 85.594406 30.683077 L 86.433566 29.650667 L 87.272727 29.650667 L 88.111888 29.650667 L 88.951049 29.650667 L 89.790210 29.650667 L 90.629371 29.650667 L 91.468531 29.650667 L 92.307692 29.650667 L 93.146853 29.650667 L 93.986014 29.865138 L 94.825175 29.949333 L 95.664336 29.949333 L 96.503497 34.000000 L 97.342657 34.000000 L 98.181818 34.000000 L 99.020979 34.000000 L 99.860140 34.000000 L 100.699301 34.000000 L 101.538462 36.800000 L 102.377622 30.266667 L 103.216783 31.573333 L 104.055944 31.573333 L 104.895105 31.573333 L 105.734266 31.573333 L 106.573427 31.573333 L 107.412587 31.573333 L 108.251748 31.573333 L 109.090909 31.573333 L 109.930070 31.573333 L 110.769231 31.573333 L 111.608392 31.573333 L 112.447552 31.666667 L 113.286713 31.666667 L 114.125874 31.864429 L 114.965035 32.096000 L 115.804196 32.096000 L 116.643357 32.133333 L 117.482517 34.933333 L 118.321678 34.952000 L 119.160839 34.952000 L 120.000000 34.952000 L 120 40 Z"></path>
    </g>
  </svg>