<svg xmlns="http://www.w3.org/2000/svg" viewBox="0 0 120 40" width="120" height="40">
    <defs>
      <linearGradient id="color_grad" x1="0%" x2="0%" y1="0%" y2="100%">
        <stop offset="0%" style="stop-color:#16C784;stop-opacity:0.4;"></stop>
        <stop offset="100%" style="stop-color:#16C784;stop-opacity:0.0;"></stop>
      </linearGradient>
    </defs>
    <g>
      <path stroke="#16C784" stroke-width="2" stroke-linecap="round" stroke-linejoin="round" fill="none" d="M 0.000000 12.053814 L 0.839161 12.085590 L 1.678322 13.151174 L 2.517483 13.515867 L 3.356643 13.350356 L 4.195804 14.533314 L 5.034965 13.983672 L 5.874126 14.083528 L 6.713287 13.791122 L 7.552448 13.623367 L 8.391608 13.326081 L 9.230769 15.003677 L 10.069930 14.729609 L 10.909091 14.756328 L 11.748252 15.004796 L 12.587413 15.884313 L 13.426573 22.400203 L 14.265734 22.094876 L 15.104895 25.035076 L 15.944056 25.678536 L 16.783217 21.974970 L 17.622378 13.853500 L 18.461538 13.441881 L 19.300699 13.383621 L 20.139860 13.306278 L 20.979021 12.763313 L 21.818182 8.800000 L 22.657343 17.307051 L 23.496503 16.873761 L 24.335664 18.348196 L 25.174825 16.703104 L 26.013986 16.913076 L 26.853147 12.140413 L 27.692308 13.656103 L 28.531469 15.932488 L 29.370629 15.925538 L 30.209790 17.365012 L 31.048951 17.234600 L 31.888112 17.383637 L 32.727273 14.675931 L 33.566434 19.674776 L 34.405594 19.929483 L 35.244755 19.736612 L 36.083916 20.668398 L 36.923077 20.651418 L 37.762238 19.918995 L 38.601399 19.690296 L 39.440559 19.792483 L 40.279720 19.560373 L 41.118881 18.846536 L 41.958042 20.022170 L 42.797203 21.239437 L 43.636364 21.347854 L 44.475524 20.860553 L 45.314685 20.502125 L 46.153846 22.397355 L 46.993007 22.394788 L 47.832168 25.750216 L 48.671329 26.159067 L 49.510490 25.838284 L 50.349650 25.834367 L 51.188811 32.277689 L 52.027972 34.570019 L 52.867133 26.467957 L 53.706294 26.443455 L 54.545455 26.381358 L 55.384615 25.993030 L 56.223776 25.763814 L 57.062937 27.884675 L 57.902098 27.925934 L 58.741259 24.316733 L 59.580420 24.622178 L 60.419580 24.709534 L 61.258741 25.002365 L 62.097902 29.065004 L 62.937063 29.961715 L 63.776224 31.103624 L 64.615385 31.059749 L 65.454545 24.470680 L 66.293706 32.327459 L 67.132867 32.162700 L 67.972028 33.255412 L 68.811189 32.964188 L 69.650350 29.773093 L 70.489510 29.681551 L 71.328671 29.538896 L 72.167832 29.690268 L 73.006993 29.393608 L 73.846154 28.950852 L 74.685315 27.984669 L 75.524476 27.928765 L 76.363636 28.119373 L 77.202797 28.640566 L 78.041958 29.314738 L 78.881119 29.182521 L 79.720280 28.860820 L 80.559441 30.090936 L 81.398601 30.097247 L 82.237762 29.750266 L 83.076923 28.569381 L 83.916084 27.148145 L 84.755245 28.450350 L 85.594406 29.318861 L 86.433566 27.939918 L 87.272727 27.486527 L 88.111888 27.661290 L 88.951049 27.696340 L 89.790210 26.935114 L 90.629371 27.275566 L 91.468531 26.657925 L 92.307692 27.103520 L 93.146853 27.907541 L 93.986014 26.088064 L 94.825175 26.658455 L 95.664336 28.139546 L 96.503497 32.225870 L 97.342657 32.343320 L 98.181818 33.018716 L 99.020979 33.683712 L 99.860140 33.204144 L 100.699301 31.820869 L 101.538462 36.800000 L 102.377622 28.834295 L 103.216783 29.816582 L 104.055944 30.157467 L 104.895105 28.438191 L 105.734266 28.736021 L 106.573427 28.549335 L 107.412587 28.233499 L 108.251748 27.921163 L 109.090909 27.841699 L 109.930070 27.293867 L 110.769231 26.673504 L 111.608392 27.048441 L 112.447552 27.081177 L 113.286713 26.595428 L 114.125874 26.815107 L 114.965035 27.410921 L 115.804196 26.008449 L 116.643357 24.348556 L 117.482517 28.576815 L 118.321678 29.372316 L 119.160839 29.516473 L 120.000000 29.711249"></path>
      <path stroke="none" fill-opacity="0.6" fill="url(#color_grad)" d="M 0 40 L 0.000000 12.053814 L 0.839161 12.085590 L 1.678322 13.151174 L 2.517483 13.515867 L 3.356643 13.350356 L 4.195804 14.533314 L 5.034965 13.983672 L 5.874126 14.083528 L 6.713287 13.791122 L 7.552448 13.623367 L 8.391608 13.326081 L 9.230769 15.003677 L 10.069930 14.729609 L 10.909091 14.756328 L 11.748252 15.004796 L 12.587413 15.884313 L 13.426573 22.400203 L 14.265734 22.094876 L 15.104895 25.035076 L 15.944056 25.678536 L 16.783217 21.974970 L 17.622378 13.853500 L 18.461538 13.441881 L 19.300699 13.383621 L 20.139860 13.306278 L 20.979021 12.763313 L 21.818182 8.800000 L 22.657343 17.307051 L 23.496503 16.873761 L 24.335664 18.348196 L 25.174825 16.703104 L 26.013986 16.913076 L 26.853147 12.140413 L 27.692308 13.656103 L 28.531469 15.932488 L 29.370629 15.925538 L 30.209790 17.365012 L 31.048951 17.234600 L 31.888112 17.383637 L 32.727273 14.675931 L 33.566434 19.674776 L 34.405594 19.929483 L 35.244755 19.736612 L 36.083916 20.668398 L 36.923077 20.651418 L 37.762238 19.918995 L 38.601399 19.690296 L 39.440559 19.792483 L 40.279720 19.560373 L 41.118881 18.846536 L 41.958042 20.022170 L 42.797203 21.239437 L 43.636364 21.347854 L 44.475524 20.860553 L 45.314685 20.502125 L 46.153846 22.397355 L 46.993007 22.394788 L 47.832168 25.750216 L 48.671329 26.159067 L 49.510490 25.838284 L 50.349650 25.834367 L 51.188811 32.277689 L 52.027972 34.570019 L 52.867133 26.467957 L 53.706294 26.443455 L 54.545455 26.381358 L 55.384615 25.993030 L 56.223776 25.763814 L 57.062937 27.884675 L 57.902098 27.925934 L 58.741259 24.316733 L 59.580420 24.622178 L 60.419580 24.709534 L 61.258741 25.002365 L 62.097902 29.065004 L 62.937063 29.961715 L 63.776224 31.103624 L 64.615385 31.059749 L 65.454545 24.470680 L 66.293706 32.327459 L 67.132867 32.162700 L 67.972028 33.255412 L 68.811189 32.964188 L 69.650350 29.773093 L 70.489510 29.681551 L 71.328671 29.538896 L 72.167832 29.690268 L 73.006993 29.393608 L 73.846154 28.950852 L 74.685315 27.984669 L 75.524476 27.928765 L 76.363636 28.119373 L 77.202797 28.640566 L 78.041958 29.314738 L 78.881119 29.182521 L 79.720280 28.860820 L 80.559441 30.090936 L 81.398601 30.097247 L 82.237762 29.750266 L 83.076923 28.569381 L 83.916084 27.148145 L 84.755245 28.450350 L 85.594406 29.318861 L 86.433566 27.939918 L 87.272727 27.486527 L 88.111888 27.661290 L 88.951049 27.696340 L 89.790210 26.935114 L 90.629371 27.275566 L 91.468531 26.657925 L 92.307692 27.103520 L 93.146853 27.907541 L 93.986014 26.088064 L 94.825175 26.658455 L 95.664336 28.139546 L 96.503497 32.225870 L 97.342657 32.343320 L 98.181818 33.018716 L 99.020979 33.683712 L 99.860140 33.204144 L 100.699301 31.820869 L 101.538462 36.800000 L 102.377622 28.834295 L 103.216783 29.816582 L 104.055944 30.157467 L 104.895105 28.438191 L 105.734266 28.736021 L 106.573427 28.549335 L 107.412587 28.233499 L 108.251748 27.921163 L 109.090909 27.841699 L 109.930070 27.293867 L 110.769231 26.673504 L 111.608392 27.048441 L 112.447552 27.081177 L 113.286713 26.595428 L 114.125874 26.815107 L 114.965035 27.410921 L 115.804196 26.008449 L 116.643357 24.348556 L 117.482517 28.576815 L 118.321678 29.372316 L 119.160839 29.516473 L 120.000000 29.711249 L 120 40 Z"></path>
    </g>
  </svg>