<svg xmlns="http://www.w3.org/2000/svg" viewBox="0 0 120 40" width="120" height="40">
    <defs>
      <linearGradient id="color_grad" x1="0%" x2="0%" y1="0%" y2="100%">
        <stop offset="0%" style="stop-color:#16C784;stop-opacity:0.4;"></stop>
        <stop offset="100%" style="stop-color:#16C784;stop-opacity:0.0;"></stop>
      </linearGradient>
    </defs>
    <g>
      <path stroke="#16C784" stroke-width="2" stroke-linecap="round" stroke-linejoin="round" fill="none" d="M 0.000000 30.068077 L 0.839161 30.130947 L 1.678322 32.780928 L 2.517483 33.416842 L 3.356643 34.788152 L 4.195804 36.800000 L 5.034965 35.865637 L 5.874126 36.030025 L 6.713287 35.498401 L 7.552448 34.281677 L 8.391608 28.158116 L 9.230769 26.661065 L 10.069930 28.273132 L 10.909091 30.382983 L 11.748252 34.981386 L 12.587413 36.496744 L 13.426573 35.832538 L 14.265734 32.896313 L 15.104895 27.164766 L 15.944056 34.895587 L 16.783217 33.896135 L 17.622378 24.581909 L 18.461538 26.345789 L 19.300699 26.252963 L 20.139860 26.104848 L 20.979021 28.535707 L 21.818182 21.806003 L 22.657343 26.320456 L 23.496503 25.507396 L 24.335664 25.745563 L 25.174825 25.181765 L 26.013986 25.575629 L 26.853147 25.961911 L 27.692308 26.187134 L 28.531469 27.423829 L 29.370629 27.395907 L 30.209790 24.673256 L 31.048951 26.172711 L 31.888112 26.238910 L 32.727273 26.005550 L 33.566434 25.593565 L 34.405594 26.078406 L 35.244755 25.720045 L 36.083916 26.662174 L 36.923077 26.628520 L 37.762238 16.619393 L 38.601399 13.303543 L 39.440559 20.371822 L 40.279720 24.506280 L 41.118881 23.139962 L 41.958042 25.408468 L 42.797203 26.997051 L 43.636364 27.221904 L 44.475524 26.051963 L 45.314685 24.598921 L 46.153846 24.566006 L 46.993007 23.765705 L 47.832168 23.187299 L 48.671329 24.041040 L 49.510490 23.323580 L 50.349650 23.284193 L 51.188811 23.449320 L 52.027972 22.510520 L 52.867133 22.556563 L 53.706294 22.493323 L 54.545455 22.380526 L 55.384615 21.543427 L 56.223776 21.071161 L 57.062937 18.987752 L 57.902098 19.063751 L 58.741259 19.971856 L 59.580420 20.744975 L 60.419580 20.903075 L 61.258741 21.520868 L 62.097902 21.581334 L 62.937063 23.542146 L 63.776224 26.043827 L 64.615385 25.961356 L 65.454545 26.080070 L 66.293706 28.736707 L 67.132867 28.385004 L 67.972028 30.776292 L 68.811189 30.145185 L 69.650350 31.555328 L 70.489510 31.373374 L 71.328671 31.067714 L 72.167832 31.392605 L 73.006993 30.768895 L 73.846154 29.844333 L 74.685315 27.820096 L 75.524476 27.691027 L 76.363636 27.306039 L 77.202797 27.740584 L 78.041958 28.957493 L 78.881119 28.690109 L 79.720280 28.002235 L 80.559441 30.603398 L 81.398601 29.591373 L 82.237762 28.828609 L 83.076923 26.168828 L 83.916084 22.889960 L 84.755245 24.640896 L 85.594406 23.365185 L 86.433566 22.796394 L 87.272727 21.818022 L 88.111888 22.201531 L 88.951049 22.278639 L 89.790210 20.631809 L 90.629371 21.358700 L 91.468531 20.041753 L 92.307692 20.992203 L 93.146853 22.725388 L 93.986014 18.301357 L 94.825175 19.334648 L 95.664336 22.538071 L 96.503497 21.799346 L 97.342657 22.057669 L 98.181818 23.608900 L 99.020979 25.125182 L 99.860140 24.040300 L 100.699301 20.863319 L 101.538462 25.395894 L 102.377622 23.278091 L 103.216783 22.330785 L 104.055944 23.091884 L 104.895105 19.294707 L 105.734266 19.941531 L 106.573427 19.535648 L 107.412587 18.825954 L 108.251748 18.150469 L 109.090909 17.959824 L 109.930070 16.751421 L 110.769231 15.386397 L 111.608392 16.223311 L 112.447552 16.050048 L 113.286713 14.989575 L 114.125874 14.974042 L 114.965035 15.710364 L 115.804196 12.586637 L 116.643357 8.800000 L 117.482517 10.985295 L 118.321678 12.780796 L 119.160839 13.118261 L 120.000000 13.567968"></path>
      <path stroke="none" fill-opacity="0.6" fill="url(#color_grad)" d="M 0 40 L 0.000000 30.068077 L 0.839161 30.130947 L 1.678322 32.780928 L 2.517483 33.416842 L 3.356643 34.788152 L 4.195804 36.800000 L 5.034965 35.865637 L 5.874126 36.030025 L 6.713287 35.498401 L 7.552448 34.281677 L 8.391608 28.158116 L 9.230769 26.661065 L 10.069930 28.273132 L 10.909091 30.382983 L 11.748252 34.981386 L 12.587413 36.496744 L 13.426573 35.832538 L 14.265734 32.896313 L 15.104895 27.164766 L 15.944056 34.895587 L 16.783217 33.896135 L 17.622378 24.581909 L 18.461538 26.345789 L 19.300699 26.252963 L 20.139860 26.104848 L 20.979021 28.535707 L 21.818182 21.806003 L 22.657343 26.320456 L 23.496503 25.507396 L 24.335664 25.745563 L 25.174825 25.181765 L 26.013986 25.575629 L 26.853147 25.961911 L 27.692308 26.187134 L 28.531469 27.423829 L 29.370629 27.395907 L 30.209790 24.673256 L 31.048951 26.172711 L 31.888112 26.238910 L 32.727273 26.005550 L 33.566434 25.593565 L 34.405594 26.078406 L 35.244755 25.720045 L 36.083916 26.662174 L 36.923077 26.628520 L 37.762238 16.619393 L 38.601399 13.303543 L 39.440559 20.371822 L 40.279720 24.506280 L 41.118881 23.139962 L 41.958042 25.408468 L 42.797203 26.997051 L 43.636364 27.221904 L 44.475524 26.051963 L 45.314685 24.598921 L 46.153846 24.566006 L 46.993007 23.765705 L 47.832168 23.187299 L 48.671329 24.041040 L 49.510490 23.323580 L 50.349650 23.284193 L 51.188811 23.449320 L 52.027972 22.510520 L 52.867133 22.556563 L 53.706294 22.493323 L 54.545455 22.380526 L 55.384615 21.543427 L 56.223776 21.071161 L 57.062937 18.987752 L 57.902098 19.063751 L 58.741259 19.971856 L 59.580420 20.744975 L 60.419580 20.903075 L 61.258741 21.520868 L 62.097902 21.581334 L 62.937063 23.542146 L 63.776224 26.043827 L 64.615385 25.961356 L 65.454545 26.080070 L 66.293706 28.736707 L 67.132867 28.385004 L 67.972028 30.776292 L 68.811189 30.145185 L 69.650350 31.555328 L 70.489510 31.373374 L 71.328671 31.067714 L 72.167832 31.392605 L 73.006993 30.768895 L 73.846154 29.844333 L 74.685315 27.820096 L 75.524476 27.691027 L 76.363636 27.306039 L 77.202797 27.740584 L 78.041958 28.957493 L 78.881119 28.690109 L 79.720280 28.002235 L 80.559441 30.603398 L 81.398601 29.591373 L 82.237762 28.828609 L 83.076923 26.168828 L 83.916084 22.889960 L 84.755245 24.640896 L 85.594406 23.365185 L 86.433566 22.796394 L 87.272727 21.818022 L 88.111888 22.201531 L 88.951049 22.278639 L 89.790210 20.631809 L 90.629371 21.358700 L 91.468531 20.041753 L 92.307692 20.992203 L 93.146853 22.725388 L 93.986014 18.301357 L 94.825175 19.334648 L 95.664336 22.538071 L 96.503497 21.799346 L 97.342657 22.057669 L 98.181818 23.608900 L 99.020979 25.125182 L 99.860140 24.040300 L 100.699301 20.863319 L 101.538462 25.395894 L 102.377622 23.278091 L 103.216783 22.330785 L 104.055944 23.091884 L 104.895105 19.294707 L 105.734266 19.941531 L 106.573427 19.535648 L 107.412587 18.825954 L 108.251748 18.150469 L 109.090909 17.959824 L 109.930070 16.751421 L 110.769231 15.386397 L 111.608392 16.223311 L 112.447552 16.050048 L 113.286713 14.989575 L 114.125874 14.974042 L 114.965035 15.710364 L 115.804196 12.586637 L 116.643357 8.800000 L 117.482517 10.985295 L 118.321678 12.780796 L 119.160839 13.118261 L 120.000000 13.567968 L 120 40 Z"></path>
    </g>
  </svg>