<svg xmlns="http://www.w3.org/2000/svg" viewBox="0 0 120 40" width="120" height="40">
    <defs>
      <linearGradient id="color_grad" x1="0%" x2="0%" y1="0%" y2="100%">
        <stop offset="0%" style="stop-color:#EA3943;stop-opacity:0.4;"></stop>
        <stop offset="100%" style="stop-color:#EA3943;stop-opacity:0.0;"></stop>
      </linearGradient>
    </defs>
    <g>
      <path stroke="#EA3943" stroke-width="2" stroke-linecap="round" stroke-linejoin="round" fill="none" d="M 0.000000 9.800000 L 0.839161 14.800000 L 1.678322 9.800000 L 2.517483 9.800000 L 3.356643 14.800000 L 4.195804 9.800000 L 5.034965 11.058741 L 5.874126 14.800000 L 6.713287 14.800000 L 7.552448 14.800000 L 8.391608 14.800000 L 9.230769 16.000000 L 10.069930 16.000000 L 10.909091 14.800000 L 11.748252 15.000000 L 12.587413 14.800000 L 13.426573 13.800000 L 14.265734 13.800000 L 15.104895 14.604196 L 15.944056 15.000000 L 16.783217 15.200000 L 17.622378 15.200000 L 18.461538 15.200000 L 19.300699 15.200000 L 20.139860 15.000000 L 20.979021 15.000000 L 21.818182 15.000000 L 22.657343 18.800000 L 23.496503 15.000000 L 24.335664 15.000000 L 25.174825 16.800000 L 26.013986 15.000000 L 26.853147 16.800000 L 27.692308 15.000000 L 28.531469 15.000000 L 29.370629 15.000000 L 30.209790 15.000000 L 31.048951 15.000000 L 31.888112 16.800000 L 32.727273 15.000000 L 33.566434 14.800000 L 34.405594 14.400000 L 35.244755 14.400000 L 36.083916 14.400000 L 36.923077 13.800000 L 37.762238 8.800000 L 38.601399 8.800000 L 39.440559 8.800000 L 40.279720 8.800000 L 41.118881 8.800000 L 41.958042 8.800000 L 42.797203 9.000000 L 43.636364 14.800000 L 44.475524 14.800000 L 45.314685 16.800000 L 46.153846 16.800000 L 46.993007 24.800000 L 47.832168 16.800000 L 48.671329 16.800000 L 49.510490 16.800000 L 50.349650 22.800000 L 51.188811 18.800000 L 52.027972 18.800000 L 52.867133 18.800000 L 53.706294 18.800000 L 54.545455 20.800000 L 55.384615 24.800000 L 56.223776 20.800000 L 57.062937 20.800000 L 57.902098 20.800000 L 58.741259 24.800000 L 59.580420 24.800000 L 60.419580 24.716084 L 61.258741 22.400000 L 62.097902 22.400000 L 62.937063 25.034965 L 63.776224 26.400000 L 64.615385 27.200000 L 65.454545 28.800000 L 66.293706 28.800000 L 67.132867 26.400000 L 67.972028 26.559441 L 68.811189 26.800000 L 69.650350 26.800000 L 70.489510 26.800000 L 71.328671 26.800000 L 72.167832 26.800000 L 73.006993 26.200000 L 73.846154 26.200000 L 74.685315 26.200000 L 75.524476 26.200000 L 76.363636 26.200000 L 77.202797 26.200000 L 78.041958 26.200000 L 78.881119 27.400000 L 79.720280 25.800000 L 80.559441 26.000000 L 81.398601 25.986014 L 82.237762 26.800000 L 83.076923 25.969231 L 83.916084 24.800000 L 84.755245 23.200000 L 85.594406 23.200000 L 86.433566 23.200000 L 87.272727 22.800000 L 88.111888 22.800000 L 88.951049 22.800000 L 89.790210 22.800000 L 90.629371 22.800000 L 91.468531 22.800000 L 92.307692 24.800000 L 93.146853 24.800000 L 93.986014 24.800000 L 94.825175 25.834965 L 95.664336 23.200000 L 96.503497 22.200000 L 97.342657 22.200000 L 98.181818 22.200000 L 99.020979 22.800000 L 99.860140 26.800000 L 100.699301 28.800000 L 101.538462 23.800000 L 102.377622 24.800000 L 103.216783 26.800000 L 104.055944 24.800000 L 104.895105 24.800000 L 105.734266 24.800000 L 106.573427 24.800000 L 107.412587 28.800000 L 108.251748 28.800000 L 109.090909 28.800000 L 109.930070 25.200000 L 110.769231 27.876923 L 111.608392 30.800000 L 112.447552 30.800000 L 113.286713 34.800000 L 114.125874 31.082517 L 114.965035 30.900699 L 115.804196 36.800000 L 116.643357 32.800000 L 117.482517 31.730070 L 118.321678 31.000000 L 119.160839 30.800000 L 120.000000 31.800000"></path>
      <path stroke="none" fill-opacity="0.6" fill="url(#color_grad)" d="M 0 40 L 0.000000 9.800000 L 0.839161 14.800000 L 1.678322 9.800000 L 2.517483 9.800000 L 3.356643 14.800000 L 4.195804 9.800000 L 5.034965 11.058741 L 5.874126 14.800000 L 6.713287 14.800000 L 7.552448 14.800000 L 8.391608 14.800000 L 9.230769 16.000000 L 10.069930 16.000000 L 10.909091 14.800000 L 11.748252 15.000000 L 12.587413 14.800000 L 13.426573 13.800000 L 14.265734 13.800000 L 15.104895 14.604196 L 15.944056 15.000000 L 16.783217 15.200000 L 17.622378 15.200000 L 18.461538 15.200000 L 19.300699 15.200000 L 20.139860 15.000000 L 20.979021 15.000000 L 21.818182 15.000000 L 22.657343 18.800000 L 23.496503 15.000000 L 24.335664 15.000000 L 25.174825 16.800000 L 26.013986 15.000000 L 26.853147 16.800000 L 27.692308 15.000000 L 28.531469 15.000000 L 29.370629 15.000000 L 30.209790 15.000000 L 31.048951 15.000000 L 31.888112 16.800000 L 32.727273 15.000000 L 33.566434 14.800000 L 34.405594 14.400000 L 35.244755 14.400000 L 36.083916 14.400000 L 36.923077 13.800000 L 37.762238 8.800000 L 38.601399 8.800000 L 39.440559 8.800000 L 40.279720 8.800000 L 41.118881 8.800000 L 41.958042 8.800000 L 42.797203 9.000000 L 43.636364 14.800000 L 44.475524 14.800000 L 45.314685 16.800000 L 46.153846 16.800000 L 46.993007 24.800000 L 47.832168 16.800000 L 48.671329 16.800000 L 49.510490 16.800000 L 50.349650 22.800000 L 51.188811 18.800000 L 52.027972 18.800000 L 52.867133 18.800000 L 53.706294 18.800000 L 54.545455 20.800000 L 55.384615 24.800000 L 56.223776 20.800000 L 57.062937 20.800000 L 57.902098 20.800000 L 58.741259 24.800000 L 59.580420 24.800000 L 60.419580 24.716084 L 61.258741 22.400000 L 62.097902 22.400000 L 62.937063 25.034965 L 63.776224 26.400000 L 64.615385 27.200000 L 65.454545 28.800000 L 66.293706 28.800000 L 67.132867 26.400000 L 67.972028 26.559441 L 68.811189 26.800000 L 69.650350 26.800000 L 70.489510 26.800000 L 71.328671 26.800000 L 72.167832 26.800000 L 73.006993 26.200000 L 73.846154 26.200000 L 74.685315 26.200000 L 75.524476 26.200000 L 76.363636 26.200000 L 77.202797 26.200000 L 78.041958 26.200000 L 78.881119 27.400000 L 79.720280 25.800000 L 80.559441 26.000000 L 81.398601 25.986014 L 82.237762 26.800000 L 83.076923 25.969231 L 83.916084 24.800000 L 84.755245 23.200000 L 85.594406 23.200000 L 86.433566 23.200000 L 87.272727 22.800000 L 88.111888 22.800000 L 88.951049 22.800000 L 89.790210 22.800000 L 90.629371 22.800000 L 91.468531 22.800000 L 92.307692 24.800000 L 93.146853 24.800000 L 93.986014 24.800000 L 94.825175 25.834965 L 95.664336 23.200000 L 96.503497 22.200000 L 97.342657 22.200000 L 98.181818 22.200000 L 99.020979 22.800000 L 99.860140 26.800000 L 100.699301 28.800000 L 101.538462 23.800000 L 102.377622 24.800000 L 103.216783 26.800000 L 104.055944 24.800000 L 104.895105 24.800000 L 105.734266 24.800000 L 106.573427 24.800000 L 107.412587 28.800000 L 108.251748 28.800000 L 109.090909 28.800000 L 109.930070 25.200000 L 110.769231 27.876923 L 111.608392 30.800000 L 112.447552 30.800000 L 113.286713 34.800000 L 114.125874 31.082517 L 114.965035 30.900699 L 115.804196 36.800000 L 116.643357 32.800000 L 117.482517 31.730070 L 118.321678 31.000000 L 119.160839 30.800000 L 120.000000 31.800000 L 120 40 Z"></path>
    </g>
  </svg>