<svg xmlns="http://www.w3.org/2000/svg" viewBox="0 0 120 40" width="120" height="40">
    <defs>
      <linearGradient id="color_grad" x1="0%" x2="0%" y1="0%" y2="100%">
        <stop offset="0%" style="stop-color:#EA3943;stop-opacity:0.4;"></stop>
        <stop offset="100%" style="stop-color:#EA3943;stop-opacity:0.0;"></stop>
      </linearGradient>
    </defs>
    <g>
      <path stroke="#EA3943" stroke-width="2" stroke-linecap="round" stroke-linejoin="round" fill="none" d="M 0.000000 16.891709 L 0.839161 22.403803 L 1.678322 18.048570 L 2.517483 18.433478 L 3.356643 23.662923 L 4.195804 19.505073 L 5.034965 20.280909 L 5.874126 24.399332 L 6.713287 24.085705 L 7.552448 23.918962 L 8.391608 23.642821 L 9.230769 24.115713 L 10.069930 23.836319 L 10.909091 22.553891 L 11.748252 23.026783 L 12.587413 23.711722 L 13.426573 22.231330 L 14.265734 21.892696 L 15.104895 22.870528 L 15.944056 22.979344 L 16.783217 22.613373 L 17.622378 22.071967 L 18.461538 21.650739 L 19.300699 21.588392 L 20.139860 21.288750 L 20.979021 20.732534 L 21.818182 16.677721 L 22.657343 22.275856 L 23.496503 17.440593 L 24.335664 17.585923 L 25.174825 19.328715 L 26.013986 17.485459 L 26.853147 19.781020 L 27.692308 17.840311 L 28.531469 18.572058 L 29.370629 18.562395 L 30.209790 17.981707 L 31.048951 17.837883 L 31.888112 19.938440 L 32.727273 17.732515 L 33.566434 17.261419 L 34.405594 17.091665 L 35.244755 16.871461 L 36.083916 17.437388 L 36.923077 16.727734 L 37.762238 10.112678 L 38.601399 9.830565 L 39.440559 9.958317 L 40.279720 9.671688 L 41.118881 8.800000 L 41.958042 10.238780 L 42.797203 11.465853 L 43.636364 18.217304 L 44.475524 17.533724 L 45.314685 18.986877 L 46.153846 18.976389 L 46.993007 27.818588 L 47.832168 18.173263 L 48.671329 18.669317 L 49.510490 18.254741 L 50.349650 25.240526 L 51.188811 20.666983 L 52.027972 20.130044 L 52.867133 20.158693 L 53.706294 20.130530 L 54.545455 22.398607 L 55.384615 26.662942 L 56.223776 21.680698 L 57.062937 20.525780 L 57.902098 20.576522 L 58.741259 25.824564 L 59.580420 26.229866 L 60.419580 26.227584 L 61.258741 23.818984 L 62.097902 23.843651 L 62.937063 27.978971 L 63.776224 30.863911 L 64.615385 31.734433 L 65.454545 33.637122 L 66.293706 34.958444 L 67.132867 32.061364 L 67.972028 33.473535 L 68.811189 33.416287 L 69.650350 34.142985 L 70.489510 34.044123 L 71.328671 33.891753 L 72.167832 34.054806 L 73.006993 33.065806 L 73.846154 32.584756 L 74.685315 31.542489 L 75.524476 31.480094 L 76.363636 31.282614 L 77.202797 31.505732 L 78.041958 32.132208 L 78.881119 33.346851 L 79.720280 31.186812 L 80.559441 32.754267 L 81.398601 32.214657 L 82.237762 32.744895 L 83.076923 30.425833 L 83.916084 27.357592 L 84.755245 26.425161 L 85.594406 25.741873 L 86.433566 25.439268 L 87.272727 24.448860 L 88.111888 24.649058 L 88.951049 24.688244 L 89.790210 23.809612 L 90.629371 24.201852 L 91.468531 23.485692 L 92.307692 26.369175 L 93.146853 27.276746 L 93.986014 24.953314 L 94.825175 26.728688 L 95.664336 25.296657 L 96.503497 23.726192 L 97.342657 23.870891 L 98.181818 24.709560 L 99.020979 26.224525 L 99.860140 30.286476 L 100.699301 31.034102 L 101.538462 27.526618 L 102.377622 27.573960 L 103.216783 29.417556 L 104.055944 27.462280 L 104.895105 25.469762 L 105.734266 25.814707 L 106.573427 25.596883 L 107.412587 30.018104 L 108.251748 29.673304 L 109.090909 29.586485 L 109.930070 24.625363 L 110.769231 27.175700 L 111.608392 31.138838 L 112.447552 31.061730 L 113.286713 35.425315 L 114.125874 30.881585 L 114.965035 31.016087 L 115.804196 36.800000 L 116.643357 30.061611 L 117.482517 29.769154 L 118.321678 29.722055 L 119.160839 29.634264 L 120.000000 31.084406"></path>
      <path stroke="none" fill-opacity="0.6" fill="url(#color_grad)" d="M 0 40 L 0.000000 16.891709 L 0.839161 22.403803 L 1.678322 18.048570 L 2.517483 18.433478 L 3.356643 23.662923 L 4.195804 19.505073 L 5.034965 20.280909 L 5.874126 24.399332 L 6.713287 24.085705 L 7.552448 23.918962 L 8.391608 23.642821 L 9.230769 24.115713 L 10.069930 23.836319 L 10.909091 22.553891 L 11.748252 23.026783 L 12.587413 23.711722 L 13.426573 22.231330 L 14.265734 21.892696 L 15.104895 22.870528 L 15.944056 22.979344 L 16.783217 22.613373 L 17.622378 22.071967 L 18.461538 21.650739 L 19.300699 21.588392 L 20.139860 21.288750 L 20.979021 20.732534 L 21.818182 16.677721 L 22.657343 22.275856 L 23.496503 17.440593 L 24.335664 17.585923 L 25.174825 19.328715 L 26.013986 17.485459 L 26.853147 19.781020 L 27.692308 17.840311 L 28.531469 18.572058 L 29.370629 18.562395 L 30.209790 17.981707 L 31.048951 17.837883 L 31.888112 19.938440 L 32.727273 17.732515 L 33.566434 17.261419 L 34.405594 17.091665 L 35.244755 16.871461 L 36.083916 17.437388 L 36.923077 16.727734 L 37.762238 10.112678 L 38.601399 9.830565 L 39.440559 9.958317 L 40.279720 9.671688 L 41.118881 8.800000 L 41.958042 10.238780 L 42.797203 11.465853 L 43.636364 18.217304 L 44.475524 17.533724 L 45.314685 18.986877 L 46.153846 18.976389 L 46.993007 27.818588 L 47.832168 18.173263 L 48.671329 18.669317 L 49.510490 18.254741 L 50.349650 25.240526 L 51.188811 20.666983 L 52.027972 20.130044 L 52.867133 20.158693 L 53.706294 20.130530 L 54.545455 22.398607 L 55.384615 26.662942 L 56.223776 21.680698 L 57.062937 20.525780 L 57.902098 20.576522 L 58.741259 25.824564 L 59.580420 26.229866 L 60.419580 26.227584 L 61.258741 23.818984 L 62.097902 23.843651 L 62.937063 27.978971 L 63.776224 30.863911 L 64.615385 31.734433 L 65.454545 33.637122 L 66.293706 34.958444 L 67.132867 32.061364 L 67.972028 33.473535 L 68.811189 33.416287 L 69.650350 34.142985 L 70.489510 34.044123 L 71.328671 33.891753 L 72.167832 34.054806 L 73.006993 33.065806 L 73.846154 32.584756 L 74.685315 31.542489 L 75.524476 31.480094 L 76.363636 31.282614 L 77.202797 31.505732 L 78.041958 32.132208 L 78.881119 33.346851 L 79.720280 31.186812 L 80.559441 32.754267 L 81.398601 32.214657 L 82.237762 32.744895 L 83.076923 30.425833 L 83.916084 27.357592 L 84.755245 26.425161 L 85.594406 25.741873 L 86.433566 25.439268 L 87.272727 24.448860 L 88.111888 24.649058 L 88.951049 24.688244 L 89.790210 23.809612 L 90.629371 24.201852 L 91.468531 23.485692 L 92.307692 26.369175 L 93.146853 27.276746 L 93.986014 24.953314 L 94.825175 26.728688 L 95.664336 25.296657 L 96.503497 23.726192 L 97.342657 23.870891 L 98.181818 24.709560 L 99.020979 26.224525 L 99.860140 30.286476 L 100.699301 31.034102 L 101.538462 27.526618 L 102.377622 27.573960 L 103.216783 29.417556 L 104.055944 27.462280 L 104.895105 25.469762 L 105.734266 25.814707 L 106.573427 25.596883 L 107.412587 30.018104 L 108.251748 29.673304 L 109.090909 29.586485 L 109.930070 24.625363 L 110.769231 27.175700 L 111.608392 31.138838 L 112.447552 31.061730 L 113.286713 35.425315 L 114.125874 30.881585 L 114.965035 31.016087 L 115.804196 36.800000 L 116.643357 30.061611 L 117.482517 29.769154 L 118.321678 29.722055 L 119.160839 29.634264 L 120.000000 31.084406 L 120 40 Z"></path>
    </g>
  </svg>