<svg xmlns="http://www.w3.org/2000/svg" viewBox="0 0 120 40" width="120" height="40">
    <defs>
      <linearGradient id="color_grad" x1="0%" x2="0%" y1="0%" y2="100%">
        <stop offset="0%" style="stop-color:#16C784;stop-opacity:0.4;"></stop>
        <stop offset="100%" style="stop-color:#16C784;stop-opacity:0.0;"></stop>
      </linearGradient>
    </defs>
    <g>
      <path stroke="#16C784" stroke-width="2" stroke-linecap="round" stroke-linejoin="round" fill="none" d="M 0.000000 24.483900 L 0.839161 24.521942 L 1.678322 25.789847 L 2.517483 26.223947 L 3.356643 26.026802 L 4.195804 27.434481 L 5.034965 26.780320 L 5.874126 28.784649 L 6.713287 28.420955 L 7.552448 28.224302 L 8.391608 27.898285 L 9.230769 26.920380 L 10.069930 26.591392 L 10.909091 26.623461 L 11.748252 26.922113 L 12.587413 27.978386 L 13.426573 27.518753 L 14.265734 27.123186 L 15.104895 36.800000 L 15.944056 36.455430 L 16.783217 24.248411 L 17.622378 23.599405 L 18.461538 23.096646 L 19.300699 23.025701 L 20.139860 22.931037 L 20.979021 22.268081 L 21.818182 17.428412 L 22.657343 18.906979 L 23.496503 18.336942 L 24.335664 18.509786 L 25.174825 18.111806 L 26.013986 18.388556 L 26.853147 18.661311 L 27.692308 18.816481 L 28.531469 19.687048 L 29.370629 19.675905 L 30.209790 18.983277 L 31.048951 18.811744 L 31.888112 18.852187 L 32.727273 18.685659 L 33.566434 18.397751 L 34.405594 18.742765 L 35.244755 18.481649 L 36.083916 19.152987 L 36.923077 19.130418 L 37.762238 18.132108 L 38.601399 17.820109 L 39.440559 17.959221 L 40.279720 17.643253 L 41.118881 16.670282 L 41.958042 18.272142 L 42.797203 19.391699 L 43.636364 19.539888 L 44.475524 18.720868 L 45.314685 17.695181 L 46.153846 17.678169 L 46.993007 17.107631 L 47.832168 16.701688 L 48.671329 17.304160 L 49.510490 16.801697 L 50.349650 16.780595 L 51.188811 16.899138 L 52.027972 16.228526 L 52.867133 16.263379 L 53.706294 16.226679 L 54.545455 16.134111 L 55.384615 15.555359 L 56.223776 15.213440 L 57.062937 13.742992 L 57.902098 13.806316 L 58.741259 14.437843 L 59.580420 14.979517 L 60.419580 15.107985 L 61.258741 15.539547 L 62.097902 15.568670 L 62.937063 16.955546 L 63.776224 19.103245 L 64.615385 20.675162 L 65.454545 20.765493 L 66.293706 22.603717 L 67.132867 22.352744 L 67.972028 24.015815 L 68.811189 23.572434 L 69.650350 24.555651 L 70.489510 24.423344 L 71.328671 24.216457 L 72.167832 24.435740 L 73.006993 24.006226 L 73.846154 23.364468 L 74.685315 21.963706 L 75.524476 21.882451 L 76.363636 21.614702 L 77.202797 21.913875 L 78.041958 22.756135 L 78.881119 22.562856 L 79.720280 22.092132 L 80.559441 23.892482 L 81.398601 23.187853 L 82.237762 22.663890 L 83.076923 20.821645 L 83.916084 18.547820 L 84.755245 19.758691 L 85.594406 18.875198 L 86.433566 18.488977 L 87.272727 17.813231 L 88.111888 18.073573 L 88.951049 18.126013 L 89.790210 16.991327 L 90.629371 17.498835 L 91.468531 16.578097 L 92.307692 17.242399 L 93.146853 18.440707 L 93.986014 15.372537 L 94.825175 16.085758 L 95.664336 18.302215 L 96.503497 17.794694 L 97.342657 17.980212 L 98.181818 19.047782 L 99.020979 20.099457 L 99.860140 19.340934 L 100.699301 22.353176 L 101.538462 25.354596 L 102.377622 23.956017 L 103.216783 23.320816 L 104.055944 23.820876 L 104.895105 21.301175 L 105.734266 21.737205 L 106.573427 21.463672 L 107.412587 21.001057 L 108.251748 20.543566 L 109.090909 20.427111 L 109.930070 14.307292 L 110.769231 13.358482 L 111.608392 13.931715 L 112.447552 13.821149 L 113.286713 13.077549 L 114.125874 13.069897 L 114.965035 13.583083 L 115.804196 11.423498 L 116.643357 8.800000 L 117.482517 10.317181 L 118.321678 11.556799 L 119.160839 11.787901 L 120.000000 12.100269"></path>
      <path stroke="none" fill-opacity="0.6" fill="url(#color_grad)" d="M 0 40 L 0.000000 24.483900 L 0.839161 24.521942 L 1.678322 25.789847 L 2.517483 26.223947 L 3.356643 26.026802 L 4.195804 27.434481 L 5.034965 26.780320 L 5.874126 28.784649 L 6.713287 28.420955 L 7.552448 28.224302 L 8.391608 27.898285 L 9.230769 26.920380 L 10.069930 26.591392 L 10.909091 26.623461 L 11.748252 26.922113 L 12.587413 27.978386 L 13.426573 27.518753 L 14.265734 27.123186 L 15.104895 36.800000 L 15.944056 36.455430 L 16.783217 24.248411 L 17.622378 23.599405 L 18.461538 23.096646 L 19.300699 23.025701 L 20.139860 22.931037 L 20.979021 22.268081 L 21.818182 17.428412 L 22.657343 18.906979 L 23.496503 18.336942 L 24.335664 18.509786 L 25.174825 18.111806 L 26.013986 18.388556 L 26.853147 18.661311 L 27.692308 18.816481 L 28.531469 19.687048 L 29.370629 19.675905 L 30.209790 18.983277 L 31.048951 18.811744 L 31.888112 18.852187 L 32.727273 18.685659 L 33.566434 18.397751 L 34.405594 18.742765 L 35.244755 18.481649 L 36.083916 19.152987 L 36.923077 19.130418 L 37.762238 18.132108 L 38.601399 17.820109 L 39.440559 17.959221 L 40.279720 17.643253 L 41.118881 16.670282 L 41.958042 18.272142 L 42.797203 19.391699 L 43.636364 19.539888 L 44.475524 18.720868 L 45.314685 17.695181 L 46.153846 17.678169 L 46.993007 17.107631 L 47.832168 16.701688 L 48.671329 17.304160 L 49.510490 16.801697 L 50.349650 16.780595 L 51.188811 16.899138 L 52.027972 16.228526 L 52.867133 16.263379 L 53.706294 16.226679 L 54.545455 16.134111 L 55.384615 15.555359 L 56.223776 15.213440 L 57.062937 13.742992 L 57.902098 13.806316 L 58.741259 14.437843 L 59.580420 14.979517 L 60.419580 15.107985 L 61.258741 15.539547 L 62.097902 15.568670 L 62.937063 16.955546 L 63.776224 19.103245 L 64.615385 20.675162 L 65.454545 20.765493 L 66.293706 22.603717 L 67.132867 22.352744 L 67.972028 24.015815 L 68.811189 23.572434 L 69.650350 24.555651 L 70.489510 24.423344 L 71.328671 24.216457 L 72.167832 24.435740 L 73.006993 24.006226 L 73.846154 23.364468 L 74.685315 21.963706 L 75.524476 21.882451 L 76.363636 21.614702 L 77.202797 21.913875 L 78.041958 22.756135 L 78.881119 22.562856 L 79.720280 22.092132 L 80.559441 23.892482 L 81.398601 23.187853 L 82.237762 22.663890 L 83.076923 20.821645 L 83.916084 18.547820 L 84.755245 19.758691 L 85.594406 18.875198 L 86.433566 18.488977 L 87.272727 17.813231 L 88.111888 18.073573 L 88.951049 18.126013 L 89.790210 16.991327 L 90.629371 17.498835 L 91.468531 16.578097 L 92.307692 17.242399 L 93.146853 18.440707 L 93.986014 15.372537 L 94.825175 16.085758 L 95.664336 18.302215 L 96.503497 17.794694 L 97.342657 17.980212 L 98.181818 19.047782 L 99.020979 20.099457 L 99.860140 19.340934 L 100.699301 22.353176 L 101.538462 25.354596 L 102.377622 23.956017 L 103.216783 23.320816 L 104.055944 23.820876 L 104.895105 21.301175 L 105.734266 21.737205 L 106.573427 21.463672 L 107.412587 21.001057 L 108.251748 20.543566 L 109.090909 20.427111 L 109.930070 14.307292 L 110.769231 13.358482 L 111.608392 13.931715 L 112.447552 13.821149 L 113.286713 13.077549 L 114.125874 13.069897 L 114.965035 13.583083 L 115.804196 11.423498 L 116.643357 8.800000 L 117.482517 10.317181 L 118.321678 11.556799 L 119.160839 11.787901 L 120.000000 12.100269 L 120 40 Z"></path>
    </g>
  </svg>