<svg xmlns="http://www.w3.org/2000/svg" viewBox="0 0 120 40" width="120" height="40">
    <defs>
      <linearGradient id="color_grad" x1="0%" x2="0%" y1="0%" y2="100%">
        <stop offset="0%" style="stop-color:#EA3943;stop-opacity:0.4;"></stop>
        <stop offset="100%" style="stop-color:#EA3943;stop-opacity:0.0;"></stop>
      </linearGradient>
    </defs>
    <g>
      <path stroke="#EA3943" stroke-width="2" stroke-linecap="round" stroke-linejoin="round" fill="none" d="M 0.000000 29.764824 L 0.839161 29.764824 L 1.678322 29.764824 L 2.517483 29.764824 L 3.356643 29.764824 L 4.195804 29.764824 L 5.034965 29.764824 L 5.874126 29.764824 L 6.713287 29.764824 L 7.552448 29.764824 L 8.391608 29.764824 L 9.230769 29.764824 L 10.069930 21.815075 L 10.909091 19.043216 L 11.748252 19.043216 L 12.587413 19.043216 L 13.426573 19.043216 L 14.265734 19.043216 L 15.104895 19.043216 L 15.944056 19.043216 L 16.783217 19.043216 L 17.622378 19.043216 L 18.461538 19.043216 L 19.300699 19.043216 L 20.139860 19.043216 L 20.979021 19.043216 L 21.818182 19.043216 L 22.657343 19.043216 L 23.496503 19.043216 L 24.335664 19.043216 L 25.174825 19.043216 L 26.013986 19.043216 L 26.853147 19.043216 L 27.692308 19.043216 L 28.531469 19.043216 L 29.370629 19.043216 L 30.209790 19.043216 L 31.048951 19.043216 L 31.888112 19.043216 L 32.727273 25.543719 L 33.566434 25.543719 L 34.405594 25.543719 L 35.244755 19.043216 L 36.083916 19.043216 L 36.923077 19.043216 L 37.762238 19.043216 L 38.601399 8.800000 L 39.440559 8.800000 L 40.279720 8.800000 L 41.118881 8.800000 L 41.958042 8.800000 L 42.797203 8.800000 L 43.636364 8.800000 L 44.475524 8.800000 L 45.314685 8.800000 L 46.153846 8.800000 L 46.993007 8.800000 L 47.832168 8.800000 L 48.671329 8.800000 L 49.510490 8.800000 L 50.349650 8.800000 L 51.188811 8.800000 L 52.027972 8.800000 L 52.867133 8.800000 L 53.706294 8.800000 L 54.545455 8.800000 L 55.384615 8.800000 L 56.223776 8.800000 L 57.062937 8.800000 L 57.902098 8.800000 L 58.741259 8.800000 L 59.580420 8.800000 L 60.419580 8.800000 L 61.258741 8.800000 L 62.097902 8.800000 L 62.937063 8.800000 L 63.776224 8.800000 L 64.615385 8.800000 L 65.454545 8.800000 L 66.293706 8.800000 L 67.132867 8.800000 L 67.972028 8.800000 L 68.811189 8.800000 L 69.650350 8.800000 L 70.489510 8.800000 L 71.328671 8.800000 L 72.167832 8.800000 L 73.006993 8.800000 L 73.846154 8.800000 L 74.685315 8.800000 L 75.524476 8.800000 L 76.363636 8.800000 L 77.202797 15.694472 L 78.041958 15.694472 L 78.881119 15.694472 L 79.720280 29.764824 L 80.559441 29.764824 L 81.398601 15.694472 L 82.237762 15.694472 L 83.076923 15.694472 L 83.916084 15.694472 L 84.755245 15.694472 L 85.594406 15.694472 L 86.433566 15.694472 L 87.272727 15.694472 L 88.111888 15.694472 L 88.951049 15.694472 L 89.790210 15.694472 L 90.629371 15.694472 L 91.468531 15.694472 L 92.307692 15.694472 L 93.146853 15.694472 L 93.986014 15.694472 L 94.825175 15.694472 L 95.664336 29.764824 L 96.503497 29.764824 L 97.342657 29.764824 L 98.181818 15.694472 L 99.020979 15.694472 L 99.860140 15.694472 L 100.699301 15.694472 L 101.538462 15.694472 L 102.377622 15.694472 L 103.216783 15.694472 L 104.055944 15.694472 L 104.895105 15.694472 L 105.734266 15.694472 L 106.573427 15.694472 L 107.412587 15.694472 L 108.251748 15.694472 L 109.090909 15.694472 L 109.930070 15.694472 L 110.769231 8.800000 L 111.608392 8.800000 L 112.447552 8.800000 L 113.286713 12.880402 L 114.125874 12.880402 L 114.965035 12.880402 L 115.804196 12.880402 L 116.643357 12.880402 L 117.482517 15.340254 L 118.321678 29.764824 L 119.160839 36.800000 L 120.000000 36.800000"></path>
      <path stroke="none" fill-opacity="0.6" fill="url(#color_grad)" d="M 0 40 L 0.000000 29.764824 L 0.839161 29.764824 L 1.678322 29.764824 L 2.517483 29.764824 L 3.356643 29.764824 L 4.195804 29.764824 L 5.034965 29.764824 L 5.874126 29.764824 L 6.713287 29.764824 L 7.552448 29.764824 L 8.391608 29.764824 L 9.230769 29.764824 L 10.069930 21.815075 L 10.909091 19.043216 L 11.748252 19.043216 L 12.587413 19.043216 L 13.426573 19.043216 L 14.265734 19.043216 L 15.104895 19.043216 L 15.944056 19.043216 L 16.783217 19.043216 L 17.622378 19.043216 L 18.461538 19.043216 L 19.300699 19.043216 L 20.139860 19.043216 L 20.979021 19.043216 L 21.818182 19.043216 L 22.657343 19.043216 L 23.496503 19.043216 L 24.335664 19.043216 L 25.174825 19.043216 L 26.013986 19.043216 L 26.853147 19.043216 L 27.692308 19.043216 L 28.531469 19.043216 L 29.370629 19.043216 L 30.209790 19.043216 L 31.048951 19.043216 L 31.888112 19.043216 L 32.727273 25.543719 L 33.566434 25.543719 L 34.405594 25.543719 L 35.244755 19.043216 L 36.083916 19.043216 L 36.923077 19.043216 L 37.762238 19.043216 L 38.601399 8.800000 L 39.440559 8.800000 L 40.279720 8.800000 L 41.118881 8.800000 L 41.958042 8.800000 L 42.797203 8.800000 L 43.636364 8.800000 L 44.475524 8.800000 L 45.314685 8.800000 L 46.153846 8.800000 L 46.993007 8.800000 L 47.832168 8.800000 L 48.671329 8.800000 L 49.510490 8.800000 L 50.349650 8.800000 L 51.188811 8.800000 L 52.027972 8.800000 L 52.867133 8.800000 L 53.706294 8.800000 L 54.545455 8.800000 L 55.384615 8.800000 L 56.223776 8.800000 L 57.062937 8.800000 L 57.902098 8.800000 L 58.741259 8.800000 L 59.580420 8.800000 L 60.419580 8.800000 L 61.258741 8.800000 L 62.097902 8.800000 L 62.937063 8.800000 L 63.776224 8.800000 L 64.615385 8.800000 L 65.454545 8.800000 L 66.293706 8.800000 L 67.132867 8.800000 L 67.972028 8.800000 L 68.811189 8.800000 L 69.650350 8.800000 L 70.489510 8.800000 L 71.328671 8.800000 L 72.167832 8.800000 L 73.006993 8.800000 L 73.846154 8.800000 L 74.685315 8.800000 L 75.524476 8.800000 L 76.363636 8.800000 L 77.202797 15.694472 L 78.041958 15.694472 L 78.881119 15.694472 L 79.720280 29.764824 L 80.559441 29.764824 L 81.398601 15.694472 L 82.237762 15.694472 L 83.076923 15.694472 L 83.916084 15.694472 L 84.755245 15.694472 L 85.594406 15.694472 L 86.433566 15.694472 L 87.272727 15.694472 L 88.111888 15.694472 L 88.951049 15.694472 L 89.790210 15.694472 L 90.629371 15.694472 L 91.468531 15.694472 L 92.307692 15.694472 L 93.146853 15.694472 L 93.986014 15.694472 L 94.825175 15.694472 L 95.664336 29.764824 L 96.503497 29.764824 L 97.342657 29.764824 L 98.181818 15.694472 L 99.020979 15.694472 L 99.860140 15.694472 L 100.699301 15.694472 L 101.538462 15.694472 L 102.377622 15.694472 L 103.216783 15.694472 L 104.055944 15.694472 L 104.895105 15.694472 L 105.734266 15.694472 L 106.573427 15.694472 L 107.412587 15.694472 L 108.251748 15.694472 L 109.090909 15.694472 L 109.930070 15.694472 L 110.769231 8.800000 L 111.608392 8.800000 L 112.447552 8.800000 L 113.286713 12.880402 L 114.125874 12.880402 L 114.965035 12.880402 L 115.804196 12.880402 L 116.643357 12.880402 L 117.482517 15.340254 L 118.321678 29.764824 L 119.160839 36.800000 L 120.000000 36.800000 L 120 40 Z"></path>
    </g>
  </svg>