<svg xmlns="http://www.w3.org/2000/svg" viewBox="0 0 120 40" width="120" height="40">
    <defs>
      <linearGradient id="color_grad" x1="0%" x2="0%" y1="0%" y2="100%">
        <stop offset="0%" style="stop-color:#EA3943;stop-opacity:0.4;"></stop>
        <stop offset="100%" style="stop-color:#EA3943;stop-opacity:0.0;"></stop>
      </linearGradient>
    </defs>
    <g>
      <path stroke="#EA3943" stroke-width="2" stroke-linecap="round" stroke-linejoin="round" fill="none" d="M 0.000000 34.034737 L 0.839161 34.070406 L 1.678322 35.258559 L 2.517483 35.665564 L 3.356643 35.480739 L 4.195804 36.800000 L 5.034965 36.186952 L 5.874126 36.298279 L 6.713287 35.951796 L 7.552448 35.764330 L 8.391608 35.453718 L 9.230769 34.521869 L 10.069930 30.759288 L 10.909091 29.588448 L 11.748252 29.885073 L 12.587413 30.934218 L 13.426573 30.477726 L 14.265734 30.084808 L 15.104895 30.204895 L 15.944056 29.831526 L 16.783217 29.145511 L 17.622378 28.511422 L 18.461538 28.020218 L 19.300699 27.950992 L 20.139860 27.858532 L 20.979021 27.210880 L 21.818182 22.482918 L 22.657343 23.927340 L 23.496503 23.370538 L 24.335664 23.539338 L 25.174825 23.150469 L 26.013986 23.420859 L 26.853147 23.687318 L 27.692308 23.839038 L 28.531469 24.689475 L 29.370629 24.678505 L 30.209790 24.001861 L 31.048951 23.834326 L 31.888112 23.873767 L 32.727273 26.675548 L 33.566434 26.401160 L 34.405594 26.729952 L 35.244755 23.511873 L 36.083916 24.167631 L 36.923077 24.145573 L 37.762238 23.170349 L 38.601399 18.161624 L 39.440559 18.302890 L 40.279720 17.982293 L 41.118881 16.994902 L 41.958042 18.620358 L 42.797203 19.756500 L 43.636364 19.907037 L 44.475524 19.075808 L 45.314685 18.034949 L 46.153846 18.017580 L 46.993007 17.438689 L 47.832168 17.026714 L 48.671329 17.638099 L 49.510490 17.128160 L 50.349650 17.106692 L 51.188811 17.227045 L 52.027972 16.546489 L 52.867133 16.581881 L 53.706294 16.544685 L 54.545455 16.450698 L 55.384615 15.863364 L 56.223776 15.516458 L 57.062937 14.024274 L 57.902098 14.088534 L 58.741259 14.729386 L 59.580420 15.279036 L 60.419580 15.409331 L 61.258741 15.847316 L 62.097902 15.876883 L 62.937063 17.284237 L 63.776224 19.076778 L 64.615385 19.008363 L 65.454545 19.101623 L 66.293706 20.998221 L 67.132867 20.739318 L 67.972028 22.455095 L 68.811189 21.997580 L 69.650350 23.012063 L 70.489510 22.875592 L 71.328671 22.662089 L 72.167832 22.888293 L 73.006993 22.445140 L 73.846154 21.783059 L 74.685315 20.337925 L 75.524476 20.254052 L 76.363636 19.977765 L 77.202797 23.399042 L 78.041958 24.246235 L 78.881119 24.051922 L 79.720280 29.921442 L 80.559441 31.636837 L 81.398601 24.680467 L 82.237762 24.153501 L 83.076923 22.300621 L 83.916084 20.013627 L 84.755245 21.231472 L 85.594406 20.342807 L 86.433566 19.954389 L 87.272727 19.274705 L 88.111888 19.536655 L 88.951049 19.589350 L 89.790210 18.448076 L 90.629371 18.958495 L 91.468531 18.032473 L 92.307692 18.700590 L 93.146853 19.905827 L 93.986014 16.819938 L 94.825175 17.537225 L 95.664336 26.310225 L 96.503497 25.826515 L 97.342657 26.003355 L 98.181818 20.516464 L 99.020979 21.574200 L 99.860140 20.811342 L 100.699301 18.612590 L 101.538462 21.762619 L 102.377622 20.294670 L 103.216783 19.628120 L 104.055944 20.153009 L 104.895105 17.508422 L 105.734266 17.966075 L 106.573427 17.679019 L 107.412587 17.193475 L 108.251748 16.713312 L 109.090909 16.591130 L 109.930070 15.748551 L 110.769231 11.459587 L 111.608392 12.051085 L 112.447552 11.937062 L 113.286713 13.147604 L 114.125874 13.139866 L 114.965035 13.661445 L 115.804196 11.466493 L 116.643357 8.800000 L 117.482517 11.558836 L 118.321678 19.882768 L 119.160839 23.547193 L 120.000000 23.836652"></path>
      <path stroke="none" fill-opacity="0.6" fill="url(#color_grad)" d="M 0 40 L 0.000000 34.034737 L 0.839161 34.070406 L 1.678322 35.258559 L 2.517483 35.665564 L 3.356643 35.480739 L 4.195804 36.800000 L 5.034965 36.186952 L 5.874126 36.298279 L 6.713287 35.951796 L 7.552448 35.764330 L 8.391608 35.453718 L 9.230769 34.521869 L 10.069930 30.759288 L 10.909091 29.588448 L 11.748252 29.885073 L 12.587413 30.934218 L 13.426573 30.477726 L 14.265734 30.084808 L 15.104895 30.204895 L 15.944056 29.831526 L 16.783217 29.145511 L 17.622378 28.511422 L 18.461538 28.020218 L 19.300699 27.950992 L 20.139860 27.858532 L 20.979021 27.210880 L 21.818182 22.482918 L 22.657343 23.927340 L 23.496503 23.370538 L 24.335664 23.539338 L 25.174825 23.150469 L 26.013986 23.420859 L 26.853147 23.687318 L 27.692308 23.839038 L 28.531469 24.689475 L 29.370629 24.678505 L 30.209790 24.001861 L 31.048951 23.834326 L 31.888112 23.873767 L 32.727273 26.675548 L 33.566434 26.401160 L 34.405594 26.729952 L 35.244755 23.511873 L 36.083916 24.167631 L 36.923077 24.145573 L 37.762238 23.170349 L 38.601399 18.161624 L 39.440559 18.302890 L 40.279720 17.982293 L 41.118881 16.994902 L 41.958042 18.620358 L 42.797203 19.756500 L 43.636364 19.907037 L 44.475524 19.075808 L 45.314685 18.034949 L 46.153846 18.017580 L 46.993007 17.438689 L 47.832168 17.026714 L 48.671329 17.638099 L 49.510490 17.128160 L 50.349650 17.106692 L 51.188811 17.227045 L 52.027972 16.546489 L 52.867133 16.581881 L 53.706294 16.544685 L 54.545455 16.450698 L 55.384615 15.863364 L 56.223776 15.516458 L 57.062937 14.024274 L 57.902098 14.088534 L 58.741259 14.729386 L 59.580420 15.279036 L 60.419580 15.409331 L 61.258741 15.847316 L 62.097902 15.876883 L 62.937063 17.284237 L 63.776224 19.076778 L 64.615385 19.008363 L 65.454545 19.101623 L 66.293706 20.998221 L 67.132867 20.739318 L 67.972028 22.455095 L 68.811189 21.997580 L 69.650350 23.012063 L 70.489510 22.875592 L 71.328671 22.662089 L 72.167832 22.888293 L 73.006993 22.445140 L 73.846154 21.783059 L 74.685315 20.337925 L 75.524476 20.254052 L 76.363636 19.977765 L 77.202797 23.399042 L 78.041958 24.246235 L 78.881119 24.051922 L 79.720280 29.921442 L 80.559441 31.636837 L 81.398601 24.680467 L 82.237762 24.153501 L 83.076923 22.300621 L 83.916084 20.013627 L 84.755245 21.231472 L 85.594406 20.342807 L 86.433566 19.954389 L 87.272727 19.274705 L 88.111888 19.536655 L 88.951049 19.589350 L 89.790210 18.448076 L 90.629371 18.958495 L 91.468531 18.032473 L 92.307692 18.700590 L 93.146853 19.905827 L 93.986014 16.819938 L 94.825175 17.537225 L 95.664336 26.310225 L 96.503497 25.826515 L 97.342657 26.003355 L 98.181818 20.516464 L 99.020979 21.574200 L 99.860140 20.811342 L 100.699301 18.612590 L 101.538462 21.762619 L 102.377622 20.294670 L 103.216783 19.628120 L 104.055944 20.153009 L 104.895105 17.508422 L 105.734266 17.966075 L 106.573427 17.679019 L 107.412587 17.193475 L 108.251748 16.713312 L 109.090909 16.591130 L 109.930070 15.748551 L 110.769231 11.459587 L 111.608392 12.051085 L 112.447552 11.937062 L 113.286713 13.147604 L 114.125874 13.139866 L 114.965035 13.661445 L 115.804196 11.466493 L 116.643357 8.800000 L 117.482517 11.558836 L 118.321678 19.882768 L 119.160839 23.547193 L 120.000000 23.836652 L 120 40 Z"></path>
    </g>
  </svg>