<svg xmlns="http://www.w3.org/2000/svg" viewBox="0 0 120 40" width="120" height="40">
    <defs>
      <linearGradient id="color_grad" x1="0%" x2="0%" y1="0%" y2="100%">
        <stop offset="0%" style="stop-color:#EA3943;stop-opacity:0.4;"></stop>
        <stop offset="100%" style="stop-color:#EA3943;stop-opacity:0.0;"></stop>
      </linearGradient>
    </defs>
    <g>
      <path stroke="#EA3943" stroke-width="2" stroke-linecap="round" stroke-linejoin="round" fill="none" d="M 0.000000 18.950000 L 0.839161 18.950000 L 1.678322 18.950000 L 2.517483 18.950000 L 3.356643 18.950000 L 4.195804 18.950000 L 5.034965 18.950000 L 5.874126 18.950000 L 6.713287 18.950000 L 7.552448 18.950000 L 8.391608 18.950000 L 9.230769 18.950000 L 10.069930 18.950000 L 10.909091 18.950000 L 11.748252 19.772378 L 12.587413 22.100000 L 13.426573 22.100000 L 14.265734 22.100000 L 15.104895 18.950000 L 15.944056 14.750000 L 16.783217 15.100000 L 17.622378 15.100000 L 18.461538 15.100000 L 19.300699 15.100000 L 20.139860 15.100000 L 20.979021 15.100000 L 21.818182 15.100000 L 22.657343 15.100000 L 23.496503 15.100000 L 24.335664 15.100000 L 25.174825 15.100000 L 26.013986 8.800000 L 26.853147 10.958741 L 27.692308 8.800000 L 28.531469 11.600000 L 29.370629 22.100000 L 30.209790 22.100000 L 31.048951 11.600000 L 31.888112 18.693007 L 32.727273 18.600000 L 33.566434 13.700000 L 34.405594 14.708392 L 35.244755 14.032867 L 36.083916 22.100000 L 36.923077 22.100000 L 37.762238 22.100000 L 38.601399 22.100000 L 39.440559 13.934965 L 40.279720 11.600000 L 41.118881 11.600000 L 41.958042 15.100000 L 42.797203 17.584266 L 43.636364 22.100000 L 44.475524 22.100000 L 45.314685 22.100000 L 46.153846 22.207692 L 46.993007 25.600000 L 47.832168 22.100000 L 48.671329 22.100000 L 49.510490 11.600000 L 50.349650 11.600000 L 51.188811 11.600000 L 52.027972 13.350000 L 52.867133 14.975175 L 53.706294 15.100000 L 54.545455 15.100000 L 55.384615 15.100000 L 56.223776 15.100000 L 57.062937 15.100000 L 57.902098 15.100000 L 58.741259 15.100000 L 59.580420 20.239860 L 60.419580 20.386713 L 61.258741 22.100000 L 62.097902 22.100000 L 62.937063 22.100000 L 63.776224 23.850000 L 64.615385 22.800000 L 65.454545 24.200000 L 66.293706 24.420280 L 67.132867 27.000000 L 67.972028 27.000000 L 68.811189 27.000000 L 69.650350 24.900000 L 70.489510 24.900000 L 71.328671 24.900000 L 72.167832 24.900000 L 73.006993 24.900000 L 73.846154 24.900000 L 74.685315 24.900000 L 75.524476 22.100000 L 76.363636 22.100000 L 77.202797 22.100000 L 78.041958 22.100000 L 78.881119 22.100000 L 79.720280 22.100000 L 80.559441 22.148951 L 81.398601 27.350000 L 82.237762 27.350000 L 83.076923 26.542308 L 83.916084 18.600000 L 84.755245 18.600000 L 85.594406 25.600000 L 86.433566 15.450000 L 87.272727 15.450000 L 88.111888 15.800000 L 88.951049 22.100000 L 89.790210 22.278671 L 90.629371 22.100000 L 91.468531 22.100000 L 92.307692 22.100000 L 93.146853 20.350000 L 93.986014 22.941958 L 94.825175 22.450000 L 95.664336 24.993007 L 96.503497 22.800000 L 97.342657 25.600000 L 98.181818 26.077273 L 99.020979 25.600000 L 99.860140 25.600000 L 100.699301 25.600000 L 101.538462 25.626923 L 102.377622 32.600000 L 103.216783 32.600000 L 104.055944 32.600000 L 104.895105 32.600000 L 105.734266 31.596503 L 106.573427 29.100000 L 107.412587 29.100000 L 108.251748 29.100000 L 109.090909 29.100000 L 109.930070 31.900000 L 110.769231 31.900000 L 111.608392 33.615734 L 112.447552 30.500000 L 113.286713 31.550000 L 114.125874 32.600000 L 114.965035 32.950000 L 115.804196 35.715734 L 116.643357 33.241259 L 117.482517 33.300000 L 118.321678 34.000000 L 119.160839 36.100000 L 120.000000 36.800000"></path>
      <path stroke="none" fill-opacity="0.6" fill="url(#color_grad)" d="M 0 40 L 0.000000 18.950000 L 0.839161 18.950000 L 1.678322 18.950000 L 2.517483 18.950000 L 3.356643 18.950000 L 4.195804 18.950000 L 5.034965 18.950000 L 5.874126 18.950000 L 6.713287 18.950000 L 7.552448 18.950000 L 8.391608 18.950000 L 9.230769 18.950000 L 10.069930 18.950000 L 10.909091 18.950000 L 11.748252 19.772378 L 12.587413 22.100000 L 13.426573 22.100000 L 14.265734 22.100000 L 15.104895 18.950000 L 15.944056 14.750000 L 16.783217 15.100000 L 17.622378 15.100000 L 18.461538 15.100000 L 19.300699 15.100000 L 20.139860 15.100000 L 20.979021 15.100000 L 21.818182 15.100000 L 22.657343 15.100000 L 23.496503 15.100000 L 24.335664 15.100000 L 25.174825 15.100000 L 26.013986 8.800000 L 26.853147 10.958741 L 27.692308 8.800000 L 28.531469 11.600000 L 29.370629 22.100000 L 30.209790 22.100000 L 31.048951 11.600000 L 31.888112 18.693007 L 32.727273 18.600000 L 33.566434 13.700000 L 34.405594 14.708392 L 35.244755 14.032867 L 36.083916 22.100000 L 36.923077 22.100000 L 37.762238 22.100000 L 38.601399 22.100000 L 39.440559 13.934965 L 40.279720 11.600000 L 41.118881 11.600000 L 41.958042 15.100000 L 42.797203 17.584266 L 43.636364 22.100000 L 44.475524 22.100000 L 45.314685 22.100000 L 46.153846 22.207692 L 46.993007 25.600000 L 47.832168 22.100000 L 48.671329 22.100000 L 49.510490 11.600000 L 50.349650 11.600000 L 51.188811 11.600000 L 52.027972 13.350000 L 52.867133 14.975175 L 53.706294 15.100000 L 54.545455 15.100000 L 55.384615 15.100000 L 56.223776 15.100000 L 57.062937 15.100000 L 57.902098 15.100000 L 58.741259 15.100000 L 59.580420 20.239860 L 60.419580 20.386713 L 61.258741 22.100000 L 62.097902 22.100000 L 62.937063 22.100000 L 63.776224 23.850000 L 64.615385 22.800000 L 65.454545 24.200000 L 66.293706 24.420280 L 67.132867 27.000000 L 67.972028 27.000000 L 68.811189 27.000000 L 69.650350 24.900000 L 70.489510 24.900000 L 71.328671 24.900000 L 72.167832 24.900000 L 73.006993 24.900000 L 73.846154 24.900000 L 74.685315 24.900000 L 75.524476 22.100000 L 76.363636 22.100000 L 77.202797 22.100000 L 78.041958 22.100000 L 78.881119 22.100000 L 79.720280 22.100000 L 80.559441 22.148951 L 81.398601 27.350000 L 82.237762 27.350000 L 83.076923 26.542308 L 83.916084 18.600000 L 84.755245 18.600000 L 85.594406 25.600000 L 86.433566 15.450000 L 87.272727 15.450000 L 88.111888 15.800000 L 88.951049 22.100000 L 89.790210 22.278671 L 90.629371 22.100000 L 91.468531 22.100000 L 92.307692 22.100000 L 93.146853 20.350000 L 93.986014 22.941958 L 94.825175 22.450000 L 95.664336 24.993007 L 96.503497 22.800000 L 97.342657 25.600000 L 98.181818 26.077273 L 99.020979 25.600000 L 99.860140 25.600000 L 100.699301 25.600000 L 101.538462 25.626923 L 102.377622 32.600000 L 103.216783 32.600000 L 104.055944 32.600000 L 104.895105 32.600000 L 105.734266 31.596503 L 106.573427 29.100000 L 107.412587 29.100000 L 108.251748 29.100000 L 109.090909 29.100000 L 109.930070 31.900000 L 110.769231 31.900000 L 111.608392 33.615734 L 112.447552 30.500000 L 113.286713 31.550000 L 114.125874 32.600000 L 114.965035 32.950000 L 115.804196 35.715734 L 116.643357 33.241259 L 117.482517 33.300000 L 118.321678 34.000000 L 119.160839 36.100000 L 120.000000 36.800000 L 120 40 Z"></path>
    </g>
  </svg>