<svg xmlns="http://www.w3.org/2000/svg" viewBox="0 0 120 40" width="120" height="40">
    <defs>
      <linearGradient id="color_grad" x1="0%" x2="0%" y1="0%" y2="100%">
        <stop offset="0%" style="stop-color:#888888;stop-opacity:0.4;"></stop>
        <stop offset="100%" style="stop-color:#888888;stop-opacity:0.0;"></stop>
      </linearGradient>
    </defs>
    <g>
      <path stroke="#888888" stroke-width="2" stroke-linecap="round" stroke-linejoin="round" fill="none" d="M 0.000000 26.585485 L 0.839161 26.629905 L 1.678322 27.752328 L 2.517483 28.141694 L 3.356643 27.967156 L 4.195804 29.228222 L 5.034965 28.641884 L 5.874126 28.742030 L 6.713287 28.412428 L 7.552448 28.240314 L 8.391608 27.941492 L 9.230769 27.051397 L 10.069930 26.753382 L 10.909091 26.786136 L 11.748252 27.999282 L 12.587413 31.603993 L 13.426573 31.205115 L 14.265734 30.863758 L 15.104895 27.351475 L 15.944056 22.168031 L 16.783217 21.919821 L 17.622378 21.316612 L 18.461538 20.851419 L 19.300699 20.780796 L 20.139860 20.697342 L 20.979021 20.080135 L 21.818182 15.574201 L 22.657343 16.945104 L 23.496503 16.416197 L 24.335664 16.576467 L 25.174825 16.211060 L 26.013986 8.800000 L 26.853147 11.686730 L 27.692308 9.225351 L 28.531469 13.458037 L 29.370629 26.093550 L 30.209790 25.494470 L 31.048951 12.611464 L 31.888112 21.254335 L 32.727273 20.987100 L 33.566434 14.764599 L 34.405594 16.316500 L 35.244755 15.249624 L 36.083916 25.640920 L 36.923077 25.618127 L 37.762238 24.756388 L 38.601399 24.493819 L 39.440559 14.639865 L 40.279720 11.488592 L 41.118881 10.552821 L 41.958042 16.359125 L 42.797203 20.397891 L 43.636364 25.976534 L 44.475524 25.268155 L 45.314685 24.378867 L 46.153846 24.499742 L 46.993007 28.180011 L 47.832168 23.528615 L 48.671329 24.049445 L 49.510490 10.676209 L 50.349650 10.653057 L 51.188811 10.766035 L 52.027972 12.282400 L 52.867133 14.331800 L 53.706294 14.449714 L 54.545455 14.363298 L 55.384615 13.832148 L 56.223776 13.511071 L 57.062937 12.141873 L 57.902098 12.201099 L 58.741259 12.789860 L 59.580420 19.718228 L 60.419580 20.015973 L 61.258741 22.520247 L 62.097902 22.547975 L 62.937063 23.744969 L 63.776224 27.389075 L 64.615385 26.057386 L 65.454545 27.832552 L 66.293706 29.667302 L 67.132867 32.545059 L 67.972028 33.920179 L 68.811189 33.553875 L 69.650350 31.902098 L 70.489510 31.785351 L 71.328671 31.617095 L 72.167832 31.798811 L 73.006993 31.433584 L 73.846154 30.891217 L 74.685315 29.704363 L 75.524476 26.273113 L 76.363636 26.029030 L 77.202797 26.291868 L 78.041958 27.033360 L 78.881119 26.866360 L 79.720280 26.455188 L 80.559441 28.081481 L 81.398601 33.651239 L 82.237762 33.225709 L 83.076923 30.726371 L 83.916084 19.021873 L 84.755245 20.123388 L 85.594406 27.938890 L 86.433566 15.074907 L 87.272727 14.440292 L 88.111888 15.116007 L 88.951049 22.973505 L 89.790210 22.198811 L 90.629371 22.431497 L 91.468531 21.620729 L 92.307692 22.198811 L 93.146853 21.092900 L 93.986014 21.630959 L 94.825175 21.632844 L 95.664336 26.708873 L 96.503497 23.557600 L 97.342657 27.191116 L 98.181818 28.668985 L 99.020979 28.970679 L 99.860140 28.331397 L 100.699301 26.493864 L 101.538462 29.169714 L 102.377622 36.531778 L 103.216783 36.022255 L 104.055944 36.427504 L 104.895105 34.391744 L 105.734266 33.490881 L 106.573427 30.123163 L 107.412587 29.734066 L 108.251748 29.353584 L 109.090909 29.247605 L 109.930070 32.153180 L 110.769231 31.413393 L 111.608392 34.059181 L 112.447552 29.979495 L 113.286713 30.748805 L 114.125874 32.096556 L 114.965035 32.940976 L 115.804196 34.890589 L 116.643357 29.660662 L 117.482517 30.891666 L 118.321678 32.757555 L 119.160839 35.670129 L 120.000000 36.800000"></path>
      <path stroke="none" fill-opacity="0.6" fill="url(#color_grad)" d="M 0 40 L 0.000000 26.585485 L 0.839161 26.629905 L 1.678322 27.752328 L 2.517483 28.141694 L 3.356643 27.967156 L 4.195804 29.228222 L 5.034965 28.641884 L 5.874126 28.742030 L 6.713287 28.412428 L 7.552448 28.240314 L 8.391608 27.941492 L 9.230769 27.051397 L 10.069930 26.753382 L 10.909091 26.786136 L 11.748252 27.999282 L 12.587413 31.603993 L 13.426573 31.205115 L 14.265734 30.863758 L 15.104895 27.351475 L 15.944056 22.168031 L 16.783217 21.919821 L 17.622378 21.316612 L 18.461538 20.851419 L 19.300699 20.780796 L 20.139860 20.697342 L 20.979021 20.080135 L 21.818182 15.574201 L 22.657343 16.945104 L 23.496503 16.416197 L 24.335664 16.576467 L 25.174825 16.211060 L 26.013986 8.800000 L 26.853147 11.686730 L 27.692308 9.225351 L 28.531469 13.458037 L 29.370629 26.093550 L 30.209790 25.494470 L 31.048951 12.611464 L 31.888112 21.254335 L 32.727273 20.987100 L 33.566434 14.764599 L 34.405594 16.316500 L 35.244755 15.249624 L 36.083916 25.640920 L 36.923077 25.618127 L 37.762238 24.756388 L 38.601399 24.493819 L 39.440559 14.639865 L 40.279720 11.488592 L 41.118881 10.552821 L 41.958042 16.359125 L 42.797203 20.397891 L 43.636364 25.976534 L 44.475524 25.268155 L 45.314685 24.378867 L 46.153846 24.499742 L 46.993007 28.180011 L 47.832168 23.528615 L 48.671329 24.049445 L 49.510490 10.676209 L 50.349650 10.653057 L 51.188811 10.766035 L 52.027972 12.282400 L 52.867133 14.331800 L 53.706294 14.449714 L 54.545455 14.363298 L 55.384615 13.832148 L 56.223776 13.511071 L 57.062937 12.141873 L 57.902098 12.201099 L 58.741259 12.789860 L 59.580420 19.718228 L 60.419580 20.015973 L 61.258741 22.520247 L 62.097902 22.547975 L 62.937063 23.744969 L 63.776224 27.389075 L 64.615385 26.057386 L 65.454545 27.832552 L 66.293706 29.667302 L 67.132867 32.545059 L 67.972028 33.920179 L 68.811189 33.553875 L 69.650350 31.902098 L 70.489510 31.785351 L 71.328671 31.617095 L 72.167832 31.798811 L 73.006993 31.433584 L 73.846154 30.891217 L 74.685315 29.704363 L 75.524476 26.273113 L 76.363636 26.029030 L 77.202797 26.291868 L 78.041958 27.033360 L 78.881119 26.866360 L 79.720280 26.455188 L 80.559441 28.081481 L 81.398601 33.651239 L 82.237762 33.225709 L 83.076923 30.726371 L 83.916084 19.021873 L 84.755245 20.123388 L 85.594406 27.938890 L 86.433566 15.074907 L 87.272727 14.440292 L 88.111888 15.116007 L 88.951049 22.973505 L 89.790210 22.198811 L 90.629371 22.431497 L 91.468531 21.620729 L 92.307692 22.198811 L 93.146853 21.092900 L 93.986014 21.630959 L 94.825175 21.632844 L 95.664336 26.708873 L 96.503497 23.557600 L 97.342657 27.191116 L 98.181818 28.668985 L 99.020979 28.970679 L 99.860140 28.331397 L 100.699301 26.493864 L 101.538462 29.169714 L 102.377622 36.531778 L 103.216783 36.022255 L 104.055944 36.427504 L 104.895105 34.391744 L 105.734266 33.490881 L 106.573427 30.123163 L 107.412587 29.734066 L 108.251748 29.353584 L 109.090909 29.247605 L 109.930070 32.153180 L 110.769231 31.413393 L 111.608392 34.059181 L 112.447552 29.979495 L 113.286713 30.748805 L 114.125874 32.096556 L 114.965035 32.940976 L 115.804196 34.890589 L 116.643357 29.660662 L 117.482517 30.891666 L 118.321678 32.757555 L 119.160839 35.670129 L 120.000000 36.800000 L 120 40 Z"></path>
    </g>
  </svg>