<svg xmlns="http://www.w3.org/2000/svg" viewBox="0 0 120 40" width="120" height="40">
    <defs>
      <linearGradient id="color_grad" x1="0%" x2="0%" y1="0%" y2="100%">
        <stop offset="0%" style="stop-color:#16C784;stop-opacity:0.4;"></stop>
        <stop offset="100%" style="stop-color:#16C784;stop-opacity:0.0;"></stop>
      </linearGradient>
    </defs>
    <g>
      <path stroke="#16C784" stroke-width="2" stroke-linecap="round" stroke-linejoin="round" fill="none" d="M 0.000000 17.656706 L 0.839161 17.720265 L 1.678322 19.706471 L 2.517483 20.403934 L 3.356643 20.080533 L 4.195804 22.982544 L 5.034965 24.587025 L 5.874126 24.761064 L 6.713287 24.189036 L 7.552448 28.859847 L 8.391608 36.694941 L 9.230769 35.262816 L 10.069930 34.780332 L 10.909091 31.168520 L 11.748252 35.268050 L 12.587413 36.800000 L 13.426573 36.128522 L 14.265734 19.752084 L 15.104895 27.365845 L 15.944056 35.181312 L 16.783217 34.170917 L 17.622378 33.255486 L 18.461538 32.523814 L 19.300699 32.432028 L 20.139860 32.282104 L 20.979021 31.344801 L 21.818182 24.378590 L 22.657343 26.512290 L 23.496503 25.690328 L 24.335664 25.931103 L 25.174825 25.361132 L 26.013986 25.759308 L 26.853147 26.149819 L 27.692308 26.377509 L 28.531469 27.627744 L 29.370629 27.599517 L 30.209790 26.625014 L 31.048951 26.362928 L 31.888112 26.429851 L 32.727273 26.193937 L 33.566434 25.777441 L 34.405594 26.267590 L 35.244755 25.905306 L 36.083916 26.857750 L 36.923077 26.823728 L 37.762238 25.382630 L 38.601399 24.954544 L 39.440559 25.136433 L 40.279720 24.678251 L 41.118881 23.296972 L 41.958042 25.590317 L 42.797203 27.196293 L 43.636364 27.423609 L 44.475524 26.240858 L 45.314685 24.771906 L 46.153846 24.738631 L 46.993007 23.929567 L 47.832168 23.344828 L 48.671329 24.207917 L 49.510490 23.482601 L 50.349650 23.442783 L 51.188811 23.609718 L 52.027972 22.660638 L 52.867133 22.707186 L 53.706294 22.643253 L 54.545455 22.529222 L 55.384615 21.682957 L 56.223776 21.205520 L 57.062937 19.099300 L 57.902098 19.176131 L 58.741259 20.094179 L 59.580420 20.875763 L 60.419580 21.035594 L 61.258741 21.660151 L 62.097902 21.721279 L 62.937063 23.703560 L 63.776224 26.232633 L 64.615385 26.149259 L 65.454545 26.269272 L 66.293706 28.954998 L 67.132867 28.599443 L 67.972028 31.016914 L 68.811189 30.378897 L 69.650350 31.804480 L 70.489510 31.620534 L 71.328671 31.311527 L 72.167832 31.639975 L 73.006993 31.009436 L 73.846154 30.074751 L 74.685315 28.028350 L 75.524476 27.897868 L 76.363636 27.508665 L 77.202797 27.947967 L 78.041958 29.178200 L 78.881119 28.907889 L 79.720280 28.212483 L 80.559441 30.842128 L 81.398601 29.819021 L 82.237762 29.047905 L 83.076923 26.359002 L 83.916084 23.044233 L 84.755245 24.814341 L 85.594406 23.524662 L 86.433566 22.949643 L 87.272727 21.960559 L 88.111888 22.348266 L 88.951049 22.426219 L 89.790210 20.761357 L 90.629371 21.496207 L 91.468531 20.164841 L 92.307692 21.125698 L 93.146853 22.877859 L 93.986014 18.405389 L 94.825175 19.449994 L 95.664336 22.688492 L 96.503497 21.941678 L 97.342657 22.202829 L 98.181818 23.771045 L 99.020979 25.303929 L 99.860140 24.207169 L 100.699301 20.995403 L 101.538462 25.577605 L 102.377622 23.436614 L 103.216783 22.478936 L 104.055944 23.248369 L 104.895105 19.409615 L 105.734266 20.063521 L 106.573427 19.653194 L 107.412587 18.935730 L 108.251748 18.252848 L 109.090909 18.060116 L 109.930070 16.838482 L 110.769231 15.458513 L 111.608392 16.304590 L 112.447552 16.129430 L 113.286713 15.057346 L 114.125874 15.041643 L 114.965035 15.786026 L 115.804196 12.628098 L 116.643357 8.800000 L 117.482517 11.009223 L 118.321678 12.824382 L 119.160839 13.165542 L 120.000000 13.620173"></path>
      <path stroke="none" fill-opacity="0.6" fill="url(#color_grad)" d="M 0 40 L 0.000000 17.656706 L 0.839161 17.720265 L 1.678322 19.706471 L 2.517483 20.403934 L 3.356643 20.080533 L 4.195804 22.982544 L 5.034965 24.587025 L 5.874126 24.761064 L 6.713287 24.189036 L 7.552448 28.859847 L 8.391608 36.694941 L 9.230769 35.262816 L 10.069930 34.780332 L 10.909091 31.168520 L 11.748252 35.268050 L 12.587413 36.800000 L 13.426573 36.128522 L 14.265734 19.752084 L 15.104895 27.365845 L 15.944056 35.181312 L 16.783217 34.170917 L 17.622378 33.255486 L 18.461538 32.523814 L 19.300699 32.432028 L 20.139860 32.282104 L 20.979021 31.344801 L 21.818182 24.378590 L 22.657343 26.512290 L 23.496503 25.690328 L 24.335664 25.931103 L 25.174825 25.361132 L 26.013986 25.759308 L 26.853147 26.149819 L 27.692308 26.377509 L 28.531469 27.627744 L 29.370629 27.599517 L 30.209790 26.625014 L 31.048951 26.362928 L 31.888112 26.429851 L 32.727273 26.193937 L 33.566434 25.777441 L 34.405594 26.267590 L 35.244755 25.905306 L 36.083916 26.857750 L 36.923077 26.823728 L 37.762238 25.382630 L 38.601399 24.954544 L 39.440559 25.136433 L 40.279720 24.678251 L 41.118881 23.296972 L 41.958042 25.590317 L 42.797203 27.196293 L 43.636364 27.423609 L 44.475524 26.240858 L 45.314685 24.771906 L 46.153846 24.738631 L 46.993007 23.929567 L 47.832168 23.344828 L 48.671329 24.207917 L 49.510490 23.482601 L 50.349650 23.442783 L 51.188811 23.609718 L 52.027972 22.660638 L 52.867133 22.707186 L 53.706294 22.643253 L 54.545455 22.529222 L 55.384615 21.682957 L 56.223776 21.205520 L 57.062937 19.099300 L 57.902098 19.176131 L 58.741259 20.094179 L 59.580420 20.875763 L 60.419580 21.035594 L 61.258741 21.660151 L 62.097902 21.721279 L 62.937063 23.703560 L 63.776224 26.232633 L 64.615385 26.149259 L 65.454545 26.269272 L 66.293706 28.954998 L 67.132867 28.599443 L 67.972028 31.016914 L 68.811189 30.378897 L 69.650350 31.804480 L 70.489510 31.620534 L 71.328671 31.311527 L 72.167832 31.639975 L 73.006993 31.009436 L 73.846154 30.074751 L 74.685315 28.028350 L 75.524476 27.897868 L 76.363636 27.508665 L 77.202797 27.947967 L 78.041958 29.178200 L 78.881119 28.907889 L 79.720280 28.212483 L 80.559441 30.842128 L 81.398601 29.819021 L 82.237762 29.047905 L 83.076923 26.359002 L 83.916084 23.044233 L 84.755245 24.814341 L 85.594406 23.524662 L 86.433566 22.949643 L 87.272727 21.960559 L 88.111888 22.348266 L 88.951049 22.426219 L 89.790210 20.761357 L 90.629371 21.496207 L 91.468531 20.164841 L 92.307692 21.125698 L 93.146853 22.877859 L 93.986014 18.405389 L 94.825175 19.449994 L 95.664336 22.688492 L 96.503497 21.941678 L 97.342657 22.202829 L 98.181818 23.771045 L 99.020979 25.303929 L 99.860140 24.207169 L 100.699301 20.995403 L 101.538462 25.577605 L 102.377622 23.436614 L 103.216783 22.478936 L 104.055944 23.248369 L 104.895105 19.409615 L 105.734266 20.063521 L 106.573427 19.653194 L 107.412587 18.935730 L 108.251748 18.252848 L 109.090909 18.060116 L 109.930070 16.838482 L 110.769231 15.458513 L 111.608392 16.304590 L 112.447552 16.129430 L 113.286713 15.057346 L 114.125874 15.041643 L 114.965035 15.786026 L 115.804196 12.628098 L 116.643357 8.800000 L 117.482517 11.009223 L 118.321678 12.824382 L 119.160839 13.165542 L 120.000000 13.620173 L 120 40 Z"></path>
    </g>
  </svg>