<svg xmlns="http://www.w3.org/2000/svg" viewBox="0 0 120 40" width="120" height="40">
    <defs>
      <linearGradient id="color_grad" x1="0%" x2="0%" y1="0%" y2="100%">
        <stop offset="0%" style="stop-color:#16C784;stop-opacity:0.4;"></stop>
        <stop offset="100%" style="stop-color:#16C784;stop-opacity:0.0;"></stop>
      </linearGradient>
    </defs>
    <g>
      <path stroke="#16C784" stroke-width="2" stroke-linecap="round" stroke-linejoin="round" fill="none" d="M 0.000000 23.434573 L 0.839161 23.462840 L 1.678322 24.860839 L 2.517483 25.353431 L 3.356643 25.127438 L 4.195804 26.684277 L 5.034965 25.963540 L 5.874126 26.091100 L 6.713287 25.678574 L 7.552448 25.467791 L 8.391608 25.100463 L 9.230769 24.001205 L 10.069930 23.630864 L 10.909091 23.667740 L 11.748252 24.005223 L 12.587413 36.800000 L 13.426573 36.320321 L 14.265734 24.231359 L 15.104895 24.362076 L 15.944056 23.938645 L 16.783217 23.163095 L 17.622378 22.460437 L 18.461538 21.898827 L 19.300699 21.828375 L 20.139860 21.713298 L 20.979021 20.993852 L 21.818182 15.646791 L 22.657343 17.284557 L 23.496503 16.653643 L 24.335664 16.838455 L 25.174825 16.400961 L 26.013986 16.706590 L 26.853147 17.006335 L 27.692308 17.181103 L 28.531469 18.140747 L 29.370629 18.119080 L 30.209790 17.371080 L 31.048951 17.169911 L 31.888112 17.221279 L 32.727273 17.040198 L 33.566434 16.720508 L 34.405594 17.096732 L 35.244755 16.818653 L 36.083916 17.549722 L 36.923077 17.523607 L 37.762238 16.417462 L 38.601399 16.088876 L 39.440559 16.228489 L 40.279720 15.876802 L 41.118881 14.816573 L 41.958042 16.576877 L 42.797203 17.809578 L 43.636364 17.984059 L 44.475524 17.076213 L 45.314685 15.948689 L 46.153846 15.923148 L 46.993007 15.302134 L 47.832168 14.853306 L 48.671329 15.515787 L 49.510490 14.959056 L 50.349650 14.928493 L 51.188811 15.056627 L 52.027972 14.328141 L 52.867133 14.363870 L 53.706294 14.314797 L 54.545455 14.227270 L 55.384615 13.577702 L 56.223776 13.211235 L 57.062937 11.594562 L 57.902098 11.653535 L 58.741259 12.358202 L 59.580420 12.958123 L 60.419580 13.346831 L 61.258741 13.560197 L 62.097902 13.607117 L 62.937063 15.128658 L 63.776224 17.069900 L 64.615385 17.005905 L 65.454545 17.098023 L 66.293706 19.159508 L 67.132867 18.886595 L 67.972028 20.742175 L 68.811189 20.252452 L 69.650350 21.346687 L 70.489510 21.205496 L 71.328671 20.968311 L 72.167832 21.220418 L 73.006993 20.736435 L 73.846154 20.018998 L 74.685315 18.448240 L 75.524476 18.348086 L 76.363636 18.049345 L 77.202797 18.386541 L 78.041958 19.330832 L 78.881119 19.123349 L 79.720280 18.589576 L 80.559441 20.608014 L 81.398601 19.822707 L 82.237762 19.230821 L 83.076923 17.166897 L 83.916084 14.622578 L 84.755245 15.981261 L 85.594406 14.991341 L 86.433566 14.549973 L 87.272727 13.790781 L 88.111888 14.088374 L 88.951049 14.148208 L 89.790210 12.870309 L 90.629371 13.434358 L 91.468531 12.412440 L 92.307692 13.149966 L 93.146853 14.494874 L 93.986014 11.061936 L 94.825175 11.863744 L 95.664336 26.936385 L 96.503497 26.425569 L 97.342657 13.976741 L 98.181818 15.180457 L 99.020979 16.357054 L 99.860140 15.515213 L 100.699301 13.049955 L 101.538462 16.567120 L 102.377622 14.923758 L 103.216783 26.793758 L 104.055944 14.779266 L 104.895105 11.832751 L 105.734266 12.334670 L 106.573427 12.019715 L 107.412587 11.469010 L 108.251748 10.944851 L 109.090909 10.796915 L 109.930070 9.859224 L 110.769231 8.800000 L 111.608392 9.449424 L 112.447552 9.314977 L 113.286713 21.617018 L 114.125874 21.611996 L 114.965035 22.137160 L 115.804196 19.919274 L 116.643357 17.245098 L 117.482517 18.793902 L 118.321678 20.058887 L 119.160839 20.297650 L 120.000000 20.623510"></path>
      <path stroke="none" fill-opacity="0.6" fill="url(#color_grad)" d="M 0 40 L 0.000000 23.434573 L 0.839161 23.462840 L 1.678322 24.860839 L 2.517483 25.353431 L 3.356643 25.127438 L 4.195804 26.684277 L 5.034965 25.963540 L 5.874126 26.091100 L 6.713287 25.678574 L 7.552448 25.467791 L 8.391608 25.100463 L 9.230769 24.001205 L 10.069930 23.630864 L 10.909091 23.667740 L 11.748252 24.005223 L 12.587413 36.800000 L 13.426573 36.320321 L 14.265734 24.231359 L 15.104895 24.362076 L 15.944056 23.938645 L 16.783217 23.163095 L 17.622378 22.460437 L 18.461538 21.898827 L 19.300699 21.828375 L 20.139860 21.713298 L 20.979021 20.993852 L 21.818182 15.646791 L 22.657343 17.284557 L 23.496503 16.653643 L 24.335664 16.838455 L 25.174825 16.400961 L 26.013986 16.706590 L 26.853147 17.006335 L 27.692308 17.181103 L 28.531469 18.140747 L 29.370629 18.119080 L 30.209790 17.371080 L 31.048951 17.169911 L 31.888112 17.221279 L 32.727273 17.040198 L 33.566434 16.720508 L 34.405594 17.096732 L 35.244755 16.818653 L 36.083916 17.549722 L 36.923077 17.523607 L 37.762238 16.417462 L 38.601399 16.088876 L 39.440559 16.228489 L 40.279720 15.876802 L 41.118881 14.816573 L 41.958042 16.576877 L 42.797203 17.809578 L 43.636364 17.984059 L 44.475524 17.076213 L 45.314685 15.948689 L 46.153846 15.923148 L 46.993007 15.302134 L 47.832168 14.853306 L 48.671329 15.515787 L 49.510490 14.959056 L 50.349650 14.928493 L 51.188811 15.056627 L 52.027972 14.328141 L 52.867133 14.363870 L 53.706294 14.314797 L 54.545455 14.227270 L 55.384615 13.577702 L 56.223776 13.211235 L 57.062937 11.594562 L 57.902098 11.653535 L 58.741259 12.358202 L 59.580420 12.958123 L 60.419580 13.346831 L 61.258741 13.560197 L 62.097902 13.607117 L 62.937063 15.128658 L 63.776224 17.069900 L 64.615385 17.005905 L 65.454545 17.098023 L 66.293706 19.159508 L 67.132867 18.886595 L 67.972028 20.742175 L 68.811189 20.252452 L 69.650350 21.346687 L 70.489510 21.205496 L 71.328671 20.968311 L 72.167832 21.220418 L 73.006993 20.736435 L 73.846154 20.018998 L 74.685315 18.448240 L 75.524476 18.348086 L 76.363636 18.049345 L 77.202797 18.386541 L 78.041958 19.330832 L 78.881119 19.123349 L 79.720280 18.589576 L 80.559441 20.608014 L 81.398601 19.822707 L 82.237762 19.230821 L 83.076923 17.166897 L 83.916084 14.622578 L 84.755245 15.981261 L 85.594406 14.991341 L 86.433566 14.549973 L 87.272727 13.790781 L 88.111888 14.088374 L 88.951049 14.148208 L 89.790210 12.870309 L 90.629371 13.434358 L 91.468531 12.412440 L 92.307692 13.149966 L 93.146853 14.494874 L 93.986014 11.061936 L 94.825175 11.863744 L 95.664336 26.936385 L 96.503497 26.425569 L 97.342657 13.976741 L 98.181818 15.180457 L 99.020979 16.357054 L 99.860140 15.515213 L 100.699301 13.049955 L 101.538462 16.567120 L 102.377622 14.923758 L 103.216783 26.793758 L 104.055944 14.779266 L 104.895105 11.832751 L 105.734266 12.334670 L 106.573427 12.019715 L 107.412587 11.469010 L 108.251748 10.944851 L 109.090909 10.796915 L 109.930070 9.859224 L 110.769231 8.800000 L 111.608392 9.449424 L 112.447552 9.314977 L 113.286713 21.617018 L 114.125874 21.611996 L 114.965035 22.137160 L 115.804196 19.919274 L 116.643357 17.245098 L 117.482517 18.793902 L 118.321678 20.058887 L 119.160839 20.297650 L 120.000000 20.623510 L 120 40 Z"></path>
    </g>
  </svg>