<svg xmlns="http://www.w3.org/2000/svg" viewBox="0 0 120 40" width="120" height="40">
    <defs>
      <linearGradient id="color_grad" x1="0%" x2="0%" y1="0%" y2="100%">
        <stop offset="0%" style="stop-color:#16C784;stop-opacity:0.4;"></stop>
        <stop offset="100%" style="stop-color:#16C784;stop-opacity:0.0;"></stop>
      </linearGradient>
    </defs>
    <g>
      <path stroke="#16C784" stroke-width="2" stroke-linecap="round" stroke-linejoin="round" fill="none" d="M 0.000000 33.877341 L 0.839161 33.902763 L 1.678322 35.160069 L 2.517483 35.603088 L 3.356643 35.399839 L 4.195804 36.800000 L 5.034965 36.151796 L 5.874126 36.266519 L 6.713287 35.895509 L 7.552448 31.371504 L 8.391608 10.572204 L 9.230769 10.575947 L 10.069930 16.624514 L 10.909091 22.462864 L 11.748252 22.804839 L 12.587413 13.313036 L 13.426573 23.450978 L 14.265734 9.895610 L 15.104895 14.490720 L 15.944056 14.042539 L 16.783217 19.057698 L 17.622378 12.462228 L 18.461538 18.360585 L 19.300699 18.278769 L 20.139860 18.175532 L 20.979021 17.435963 L 21.818182 12.058311 L 22.657343 16.550441 L 23.496503 21.652190 L 24.335664 27.945044 L 25.174825 27.551580 L 26.013986 27.826450 L 26.853147 27.052683 L 27.692308 25.911004 L 28.531469 29.116276 L 29.370629 29.096790 L 30.209790 28.424067 L 31.048951 28.243143 L 31.888112 28.289342 L 32.727273 28.126485 L 33.566434 27.838968 L 34.405594 28.177329 L 35.244755 27.927236 L 36.083916 28.584731 L 36.923077 28.561244 L 37.762238 9.172172 L 38.601399 8.800000 L 39.440559 13.260385 L 40.279720 12.925378 L 41.118881 18.671331 L 41.958042 27.709791 L 42.797203 21.529208 L 43.636364 28.975357 L 44.475524 28.158875 L 45.314685 27.144823 L 46.153846 27.121853 L 46.993007 26.563337 L 47.832168 26.159677 L 48.671329 26.755488 L 49.510490 26.254785 L 50.349650 26.227298 L 51.188811 26.342537 L 52.027972 25.687365 L 52.867133 25.719498 L 53.706294 25.675364 L 54.545455 25.596645 L 55.384615 25.012448 L 56.223776 24.682862 L 57.062937 23.228888 L 57.902098 23.281926 L 58.741259 23.915677 L 59.580420 24.455223 L 60.419580 24.565558 L 61.258741 24.996705 L 62.097902 25.038903 L 62.937063 26.407319 L 63.776224 28.153197 L 64.615385 28.095642 L 65.454545 28.178491 L 66.293706 30.032511 L 67.132867 29.787063 L 67.972028 31.455900 L 68.811189 31.015463 L 69.650350 31.999576 L 70.489510 31.872594 L 71.328671 31.659279 L 72.167832 31.886015 L 73.006993 31.450739 L 73.846154 30.805503 L 74.685315 29.392824 L 75.524476 29.302749 L 76.363636 29.034073 L 77.202797 29.337334 L 78.041958 30.186593 L 78.881119 29.999991 L 79.720280 29.519935 L 80.559441 31.335241 L 81.398601 30.628966 L 82.237762 30.096647 L 83.076923 28.240433 L 83.916084 25.952170 L 84.755245 27.174117 L 85.594406 26.283821 L 86.433566 25.886872 L 87.272727 25.204083 L 88.111888 25.471727 L 88.951049 25.525540 L 89.790210 24.376246 L 90.629371 24.883530 L 91.468531 23.964457 L 92.307692 24.627759 L 93.146853 25.837318 L 93.986014 22.749865 L 94.825175 23.470981 L 95.664336 25.706593 L 96.503497 25.191050 L 97.342657 25.371328 L 98.181818 26.453905 L 99.020979 27.512091 L 99.860140 26.754972 L 100.699301 24.537813 L 101.538462 27.701016 L 102.377622 26.223040 L 103.216783 25.561931 L 104.055944 26.093089 L 104.895105 23.443106 L 105.734266 23.894513 L 106.573427 23.611255 L 107.412587 23.115972 L 108.251748 22.644563 L 109.090909 22.511515 L 109.930070 21.668192 L 110.769231 20.715566 L 111.608392 21.299634 L 112.447552 21.178716 L 113.286713 20.438631 L 114.125874 20.427791 L 114.965035 20.941657 L 115.804196 18.761664 L 116.643357 16.119037 L 117.482517 17.644116 L 118.321678 18.897163 L 119.160839 19.132674 L 120.000000 19.446517"></path>
      <path stroke="none" fill-opacity="0.6" fill="url(#color_grad)" d="M 0 40 L 0.000000 33.877341 L 0.839161 33.902763 L 1.678322 35.160069 L 2.517483 35.603088 L 3.356643 35.399839 L 4.195804 36.800000 L 5.034965 36.151796 L 5.874126 36.266519 L 6.713287 35.895509 L 7.552448 31.371504 L 8.391608 10.572204 L 9.230769 10.575947 L 10.069930 16.624514 L 10.909091 22.462864 L 11.748252 22.804839 L 12.587413 13.313036 L 13.426573 23.450978 L 14.265734 9.895610 L 15.104895 14.490720 L 15.944056 14.042539 L 16.783217 19.057698 L 17.622378 12.462228 L 18.461538 18.360585 L 19.300699 18.278769 L 20.139860 18.175532 L 20.979021 17.435963 L 21.818182 12.058311 L 22.657343 16.550441 L 23.496503 21.652190 L 24.335664 27.945044 L 25.174825 27.551580 L 26.013986 27.826450 L 26.853147 27.052683 L 27.692308 25.911004 L 28.531469 29.116276 L 29.370629 29.096790 L 30.209790 28.424067 L 31.048951 28.243143 L 31.888112 28.289342 L 32.727273 28.126485 L 33.566434 27.838968 L 34.405594 28.177329 L 35.244755 27.927236 L 36.083916 28.584731 L 36.923077 28.561244 L 37.762238 9.172172 L 38.601399 8.800000 L 39.440559 13.260385 L 40.279720 12.925378 L 41.118881 18.671331 L 41.958042 27.709791 L 42.797203 21.529208 L 43.636364 28.975357 L 44.475524 28.158875 L 45.314685 27.144823 L 46.153846 27.121853 L 46.993007 26.563337 L 47.832168 26.159677 L 48.671329 26.755488 L 49.510490 26.254785 L 50.349650 26.227298 L 51.188811 26.342537 L 52.027972 25.687365 L 52.867133 25.719498 L 53.706294 25.675364 L 54.545455 25.596645 L 55.384615 25.012448 L 56.223776 24.682862 L 57.062937 23.228888 L 57.902098 23.281926 L 58.741259 23.915677 L 59.580420 24.455223 L 60.419580 24.565558 L 61.258741 24.996705 L 62.097902 25.038903 L 62.937063 26.407319 L 63.776224 28.153197 L 64.615385 28.095642 L 65.454545 28.178491 L 66.293706 30.032511 L 67.132867 29.787063 L 67.972028 31.455900 L 68.811189 31.015463 L 69.650350 31.999576 L 70.489510 31.872594 L 71.328671 31.659279 L 72.167832 31.886015 L 73.006993 31.450739 L 73.846154 30.805503 L 74.685315 29.392824 L 75.524476 29.302749 L 76.363636 29.034073 L 77.202797 29.337334 L 78.041958 30.186593 L 78.881119 29.999991 L 79.720280 29.519935 L 80.559441 31.335241 L 81.398601 30.628966 L 82.237762 30.096647 L 83.076923 28.240433 L 83.916084 25.952170 L 84.755245 27.174117 L 85.594406 26.283821 L 86.433566 25.886872 L 87.272727 25.204083 L 88.111888 25.471727 L 88.951049 25.525540 L 89.790210 24.376246 L 90.629371 24.883530 L 91.468531 23.964457 L 92.307692 24.627759 L 93.146853 25.837318 L 93.986014 22.749865 L 94.825175 23.470981 L 95.664336 25.706593 L 96.503497 25.191050 L 97.342657 25.371328 L 98.181818 26.453905 L 99.020979 27.512091 L 99.860140 26.754972 L 100.699301 24.537813 L 101.538462 27.701016 L 102.377622 26.223040 L 103.216783 25.561931 L 104.055944 26.093089 L 104.895105 23.443106 L 105.734266 23.894513 L 106.573427 23.611255 L 107.412587 23.115972 L 108.251748 22.644563 L 109.090909 22.511515 L 109.930070 21.668192 L 110.769231 20.715566 L 111.608392 21.299634 L 112.447552 21.178716 L 113.286713 20.438631 L 114.125874 20.427791 L 114.965035 20.941657 L 115.804196 18.761664 L 116.643357 16.119037 L 117.482517 17.644116 L 118.321678 18.897163 L 119.160839 19.132674 L 120.000000 19.446517 L 120 40 Z"></path>
    </g>
  </svg>