<svg xmlns="http://www.w3.org/2000/svg" viewBox="0 0 120 40" width="120" height="40">
    <defs>
      <linearGradient id="color_grad" x1="0%" x2="0%" y1="0%" y2="100%">
        <stop offset="0%" style="stop-color:#888888;stop-opacity:0.4;"></stop>
        <stop offset="100%" style="stop-color:#888888;stop-opacity:0.0;"></stop>
      </linearGradient>
    </defs>
    <g>
      <path stroke="#888888" stroke-width="2" stroke-linecap="round" stroke-linejoin="round" fill="none" d="M 0.000000 15.830096 L 0.839161 15.868956 L 1.678322 17.173751 L 2.517483 17.620321 L 3.356643 17.417437 L 4.195804 18.866044 L 5.034965 18.192932 L 5.874126 18.315236 L 6.713287 17.934777 L 7.552448 17.729022 L 8.391608 17.388019 L 9.230769 16.364936 L 10.069930 16.020813 L 10.909091 16.054341 L 11.748252 16.366727 L 12.587413 17.471637 L 13.426573 16.990740 L 14.265734 16.735139 L 15.104895 21.869100 L 15.944056 16.468597 L 16.783217 15.746911 L 17.622378 15.079938 L 18.461538 14.621949 L 19.300699 14.549144 L 20.139860 14.451821 L 20.979021 13.770817 L 21.818182 8.800000 L 22.657343 10.318884 L 23.496503 9.733330 L 24.335664 9.911022 L 25.174825 10.858529 L 26.013986 15.031671 L 26.853147 15.300046 L 27.692308 19.998083 L 28.531469 16.310185 L 29.370629 16.299020 L 30.209790 15.617068 L 31.048951 15.448090 L 31.888112 15.503020 L 32.727273 15.324088 L 33.566434 15.040559 L 34.405594 15.380316 L 35.244755 15.138434 L 36.083916 15.799384 L 36.923077 15.776880 L 37.762238 17.487467 L 38.601399 17.526400 L 39.440559 17.660248 L 40.279720 17.356573 L 41.118881 16.422875 L 41.958042 18.112537 L 42.797203 19.789397 L 43.636364 20.307160 L 44.475524 19.528394 L 45.314685 18.553340 L 46.153846 19.601394 L 46.993007 21.466179 L 47.832168 21.091568 L 48.671329 21.647464 L 49.510490 21.183740 L 50.349650 21.164302 L 51.188811 21.273778 L 52.027972 19.092499 L 52.867133 19.124993 L 53.706294 19.090859 L 54.545455 19.004300 L 55.384615 19.240264 L 56.223776 18.922720 L 57.062937 17.556263 L 57.902098 17.615128 L 58.741259 18.201742 L 59.580420 18.939656 L 60.419580 25.847992 L 61.258741 30.891355 L 62.097902 30.915736 L 62.937063 32.076505 L 63.776224 33.554568 L 64.615385 33.498350 L 65.454545 33.574999 L 66.293706 35.139406 L 67.132867 34.925763 L 67.972028 36.340582 L 68.811189 35.963369 L 69.650350 36.800000 L 70.489510 36.687426 L 71.328671 36.511579 L 72.167832 36.697976 L 73.006993 36.332393 L 73.846154 35.786362 L 74.685315 34.594413 L 75.524476 34.525492 L 76.363636 34.297672 L 77.202797 34.552126 L 78.041958 35.268733 L 78.881119 26.547081 L 79.720280 26.112609 L 80.559441 27.773603 L 81.398601 32.664836 L 82.237762 26.640195 L 83.076923 24.940665 L 83.916084 22.942814 L 84.755245 26.604133 L 85.594406 25.808421 L 86.433566 25.460488 L 87.272727 24.851406 L 88.111888 25.085957 L 88.951049 25.133240 L 89.790210 24.111195 L 90.629371 24.568335 L 91.468531 23.738733 L 92.307692 24.337208 L 93.146853 25.416730 L 93.986014 22.652557 L 94.825175 23.295168 L 95.664336 25.292036 L 96.503497 24.834835 L 97.342657 25.002125 L 98.181818 25.963716 L 99.020979 26.911114 L 99.860140 23.160369 L 100.699301 21.136102 L 101.538462 24.036308 L 102.377622 22.684848 L 103.216783 22.071280 L 104.055944 22.554153 L 104.895105 20.119744 L 105.734266 20.541087 L 106.573427 20.276602 L 107.412587 19.829769 L 108.251748 19.387648 L 109.090909 19.275151 L 109.930070 18.499525 L 110.769231 17.620767 L 111.608392 24.557310 L 112.447552 24.460624 L 113.286713 23.809295 L 114.125874 23.802455 L 114.965035 24.252190 L 115.804196 22.360377 L 116.643357 20.062414 L 117.482517 21.391597 L 118.321678 22.477305 L 119.160839 22.679668 L 120.000000 22.953447"></path>
      <path stroke="none" fill-opacity="0.6" fill="url(#color_grad)" d="M 0 40 L 0.000000 15.830096 L 0.839161 15.868956 L 1.678322 17.173751 L 2.517483 17.620321 L 3.356643 17.417437 L 4.195804 18.866044 L 5.034965 18.192932 L 5.874126 18.315236 L 6.713287 17.934777 L 7.552448 17.729022 L 8.391608 17.388019 L 9.230769 16.364936 L 10.069930 16.020813 L 10.909091 16.054341 L 11.748252 16.366727 L 12.587413 17.471637 L 13.426573 16.990740 L 14.265734 16.735139 L 15.104895 21.869100 L 15.944056 16.468597 L 16.783217 15.746911 L 17.622378 15.079938 L 18.461538 14.621949 L 19.300699 14.549144 L 20.139860 14.451821 L 20.979021 13.770817 L 21.818182 8.800000 L 22.657343 10.318884 L 23.496503 9.733330 L 24.335664 9.911022 L 25.174825 10.858529 L 26.013986 15.031671 L 26.853147 15.300046 L 27.692308 19.998083 L 28.531469 16.310185 L 29.370629 16.299020 L 30.209790 15.617068 L 31.048951 15.448090 L 31.888112 15.503020 L 32.727273 15.324088 L 33.566434 15.040559 L 34.405594 15.380316 L 35.244755 15.138434 L 36.083916 15.799384 L 36.923077 15.776880 L 37.762238 17.487467 L 38.601399 17.526400 L 39.440559 17.660248 L 40.279720 17.356573 L 41.118881 16.422875 L 41.958042 18.112537 L 42.797203 19.789397 L 43.636364 20.307160 L 44.475524 19.528394 L 45.314685 18.553340 L 46.153846 19.601394 L 46.993007 21.466179 L 47.832168 21.091568 L 48.671329 21.647464 L 49.510490 21.183740 L 50.349650 21.164302 L 51.188811 21.273778 L 52.027972 19.092499 L 52.867133 19.124993 L 53.706294 19.090859 L 54.545455 19.004300 L 55.384615 19.240264 L 56.223776 18.922720 L 57.062937 17.556263 L 57.902098 17.615128 L 58.741259 18.201742 L 59.580420 18.939656 L 60.419580 25.847992 L 61.258741 30.891355 L 62.097902 30.915736 L 62.937063 32.076505 L 63.776224 33.554568 L 64.615385 33.498350 L 65.454545 33.574999 L 66.293706 35.139406 L 67.132867 34.925763 L 67.972028 36.340582 L 68.811189 35.963369 L 69.650350 36.800000 L 70.489510 36.687426 L 71.328671 36.511579 L 72.167832 36.697976 L 73.006993 36.332393 L 73.846154 35.786362 L 74.685315 34.594413 L 75.524476 34.525492 L 76.363636 34.297672 L 77.202797 34.552126 L 78.041958 35.268733 L 78.881119 26.547081 L 79.720280 26.112609 L 80.559441 27.773603 L 81.398601 32.664836 L 82.237762 26.640195 L 83.076923 24.940665 L 83.916084 22.942814 L 84.755245 26.604133 L 85.594406 25.808421 L 86.433566 25.460488 L 87.272727 24.851406 L 88.111888 25.085957 L 88.951049 25.133240 L 89.790210 24.111195 L 90.629371 24.568335 L 91.468531 23.738733 L 92.307692 24.337208 L 93.146853 25.416730 L 93.986014 22.652557 L 94.825175 23.295168 L 95.664336 25.292036 L 96.503497 24.834835 L 97.342657 25.002125 L 98.181818 25.963716 L 99.020979 26.911114 L 99.860140 23.160369 L 100.699301 21.136102 L 101.538462 24.036308 L 102.377622 22.684848 L 103.216783 22.071280 L 104.055944 22.554153 L 104.895105 20.119744 L 105.734266 20.541087 L 106.573427 20.276602 L 107.412587 19.829769 L 108.251748 19.387648 L 109.090909 19.275151 L 109.930070 18.499525 L 110.769231 17.620767 L 111.608392 24.557310 L 112.447552 24.460624 L 113.286713 23.809295 L 114.125874 23.802455 L 114.965035 24.252190 L 115.804196 22.360377 L 116.643357 20.062414 L 117.482517 21.391597 L 118.321678 22.477305 L 119.160839 22.679668 L 120.000000 22.953447 L 120 40 Z"></path>
    </g>
  </svg>