<svg xmlns="http://www.w3.org/2000/svg" viewBox="0 0 120 40" width="120" height="40">
    <defs>
      <linearGradient id="color_grad" x1="0%" x2="0%" y1="0%" y2="100%">
        <stop offset="0%" style="stop-color:#EA3943;stop-opacity:0.4;"></stop>
        <stop offset="100%" style="stop-color:#EA3943;stop-opacity:0.0;"></stop>
      </linearGradient>
    </defs>
    <g>
      <path stroke="#EA3943" stroke-width="2" stroke-linecap="round" stroke-linejoin="round" fill="none" d="M 0.000000 8.800000 L 0.839161 8.800000 L 1.678322 8.800000 L 2.517483 8.800000 L 3.356643 8.800000 L 4.195804 8.800000 L 5.034965 8.800000 L 5.874126 8.800000 L 6.713287 8.800000 L 7.552448 8.800000 L 8.391608 8.800000 L 9.230769 8.800000 L 10.069930 8.800000 L 10.909091 8.800000 L 11.748252 8.800000 L 12.587413 8.800000 L 13.426573 8.800000 L 14.265734 8.997436 L 15.104895 15.261538 L 15.944056 8.997436 L 16.783217 8.997436 L 17.622378 8.997436 L 18.461538 9.069231 L 19.300699 9.069231 L 20.139860 9.069231 L 20.979021 9.069231 L 21.818182 9.069231 L 22.657343 9.069231 L 23.496503 9.069231 L 24.335664 9.069231 L 25.174825 10.671436 L 26.013986 15.261538 L 26.853147 15.261538 L 27.692308 20.646154 L 28.531469 15.261538 L 29.370629 15.261538 L 30.209790 15.261538 L 31.048951 15.261538 L 31.888112 15.279487 L 32.727273 15.261538 L 33.566434 15.261538 L 34.405594 15.261538 L 35.244755 15.279487 L 36.083916 15.279487 L 36.923077 15.279487 L 37.762238 18.451641 L 38.601399 18.851282 L 39.440559 18.851282 L 40.279720 18.851282 L 41.118881 18.851282 L 41.958042 19.030769 L 42.797203 19.748718 L 43.636364 20.197436 L 44.475524 20.197436 L 45.314685 20.197436 L 46.153846 21.445562 L 46.993007 24.253846 L 47.832168 24.253846 L 48.671329 24.253846 L 49.510490 24.253846 L 50.349650 24.253846 L 51.188811 24.253846 L 52.027972 22.441026 L 52.867133 22.441026 L 53.706294 22.441026 L 54.545455 22.441026 L 55.384615 23.338462 L 56.223776 23.338462 L 57.062937 23.338462 L 57.902098 23.338462 L 58.741259 23.338462 L 59.580420 23.607692 L 60.419580 31.415385 L 61.258741 36.800000 L 62.097902 36.800000 L 62.937063 36.800000 L 63.776224 36.800000 L 64.615385 36.800000 L 65.454545 36.800000 L 66.293706 36.800000 L 67.132867 36.800000 L 67.972028 36.800000 L 68.811189 36.800000 L 69.650350 36.800000 L 70.489510 36.800000 L 71.328671 36.800000 L 72.167832 36.800000 L 73.006993 36.800000 L 73.846154 36.800000 L 74.685315 36.800000 L 75.524476 36.800000 L 76.363636 36.800000 L 77.202797 36.800000 L 78.041958 36.800000 L 78.881119 26.515385 L 79.720280 26.515385 L 80.559441 26.515385 L 81.398601 33.210256 L 82.237762 26.515385 L 83.076923 26.515385 L 83.916084 26.631361 L 84.755245 29.620513 L 85.594406 29.620513 L 86.433566 29.620513 L 87.272727 29.620513 L 88.111888 29.620513 L 88.951049 29.620513 L 89.790210 29.620513 L 90.629371 29.620513 L 91.468531 29.620513 L 92.307692 29.620513 L 93.146853 29.620513 L 93.986014 29.620513 L 94.825175 29.620513 L 95.664336 29.620513 L 96.503497 29.620513 L 97.342657 29.620513 L 98.181818 29.620513 L 99.020979 29.620513 L 99.860140 26.030769 L 100.699301 26.030769 L 101.538462 26.030769 L 102.377622 26.030769 L 103.216783 26.030769 L 104.055944 26.030769 L 104.895105 26.030769 L 105.734266 26.030769 L 106.573427 26.030769 L 107.412587 26.030769 L 108.251748 26.030769 L 109.090909 26.030769 L 109.930070 26.030769 L 110.769231 26.030769 L 111.608392 33.210256 L 112.447552 33.210256 L 113.286713 33.210256 L 114.125874 33.210256 L 114.965035 33.210256 L 115.804196 33.210256 L 116.643357 33.210256 L 117.482517 33.210256 L 118.321678 33.210256 L 119.160839 33.210256 L 120.000000 33.210256"></path>
      <path stroke="none" fill-opacity="0.6" fill="url(#color_grad)" d="M 0 40 L 0.000000 8.800000 L 0.839161 8.800000 L 1.678322 8.800000 L 2.517483 8.800000 L 3.356643 8.800000 L 4.195804 8.800000 L 5.034965 8.800000 L 5.874126 8.800000 L 6.713287 8.800000 L 7.552448 8.800000 L 8.391608 8.800000 L 9.230769 8.800000 L 10.069930 8.800000 L 10.909091 8.800000 L 11.748252 8.800000 L 12.587413 8.800000 L 13.426573 8.800000 L 14.265734 8.997436 L 15.104895 15.261538 L 15.944056 8.997436 L 16.783217 8.997436 L 17.622378 8.997436 L 18.461538 9.069231 L 19.300699 9.069231 L 20.139860 9.069231 L 20.979021 9.069231 L 21.818182 9.069231 L 22.657343 9.069231 L 23.496503 9.069231 L 24.335664 9.069231 L 25.174825 10.671436 L 26.013986 15.261538 L 26.853147 15.261538 L 27.692308 20.646154 L 28.531469 15.261538 L 29.370629 15.261538 L 30.209790 15.261538 L 31.048951 15.261538 L 31.888112 15.279487 L 32.727273 15.261538 L 33.566434 15.261538 L 34.405594 15.261538 L 35.244755 15.279487 L 36.083916 15.279487 L 36.923077 15.279487 L 37.762238 18.451641 L 38.601399 18.851282 L 39.440559 18.851282 L 40.279720 18.851282 L 41.118881 18.851282 L 41.958042 19.030769 L 42.797203 19.748718 L 43.636364 20.197436 L 44.475524 20.197436 L 45.314685 20.197436 L 46.153846 21.445562 L 46.993007 24.253846 L 47.832168 24.253846 L 48.671329 24.253846 L 49.510490 24.253846 L 50.349650 24.253846 L 51.188811 24.253846 L 52.027972 22.441026 L 52.867133 22.441026 L 53.706294 22.441026 L 54.545455 22.441026 L 55.384615 23.338462 L 56.223776 23.338462 L 57.062937 23.338462 L 57.902098 23.338462 L 58.741259 23.338462 L 59.580420 23.607692 L 60.419580 31.415385 L 61.258741 36.800000 L 62.097902 36.800000 L 62.937063 36.800000 L 63.776224 36.800000 L 64.615385 36.800000 L 65.454545 36.800000 L 66.293706 36.800000 L 67.132867 36.800000 L 67.972028 36.800000 L 68.811189 36.800000 L 69.650350 36.800000 L 70.489510 36.800000 L 71.328671 36.800000 L 72.167832 36.800000 L 73.006993 36.800000 L 73.846154 36.800000 L 74.685315 36.800000 L 75.524476 36.800000 L 76.363636 36.800000 L 77.202797 36.800000 L 78.041958 36.800000 L 78.881119 26.515385 L 79.720280 26.515385 L 80.559441 26.515385 L 81.398601 33.210256 L 82.237762 26.515385 L 83.076923 26.515385 L 83.916084 26.631361 L 84.755245 29.620513 L 85.594406 29.620513 L 86.433566 29.620513 L 87.272727 29.620513 L 88.111888 29.620513 L 88.951049 29.620513 L 89.790210 29.620513 L 90.629371 29.620513 L 91.468531 29.620513 L 92.307692 29.620513 L 93.146853 29.620513 L 93.986014 29.620513 L 94.825175 29.620513 L 95.664336 29.620513 L 96.503497 29.620513 L 97.342657 29.620513 L 98.181818 29.620513 L 99.020979 29.620513 L 99.860140 26.030769 L 100.699301 26.030769 L 101.538462 26.030769 L 102.377622 26.030769 L 103.216783 26.030769 L 104.055944 26.030769 L 104.895105 26.030769 L 105.734266 26.030769 L 106.573427 26.030769 L 107.412587 26.030769 L 108.251748 26.030769 L 109.090909 26.030769 L 109.930070 26.030769 L 110.769231 26.030769 L 111.608392 33.210256 L 112.447552 33.210256 L 113.286713 33.210256 L 114.125874 33.210256 L 114.965035 33.210256 L 115.804196 33.210256 L 116.643357 33.210256 L 117.482517 33.210256 L 118.321678 33.210256 L 119.160839 33.210256 L 120.000000 33.210256 L 120 40 Z"></path>
    </g>
  </svg>