<svg xmlns="http://www.w3.org/2000/svg" viewBox="0 0 120 40" width="120" height="40">
    <defs>
      <linearGradient id="color_grad" x1="0%" x2="0%" y1="0%" y2="100%">
        <stop offset="0%" style="stop-color:#16C784;stop-opacity:0.4;"></stop>
        <stop offset="100%" style="stop-color:#16C784;stop-opacity:0.0;"></stop>
      </linearGradient>
    </defs>
    <g>
      <path stroke="#16C784" stroke-width="2" stroke-linecap="round" stroke-linejoin="round" fill="none" d="M 0.000000 36.800000 L 0.839161 18.803913 L 1.678322 25.805240 L 2.517483 26.347404 L 3.356643 26.103151 L 4.195804 27.833466 L 5.034965 28.588304 L 5.874126 21.629037 L 6.713287 21.148215 L 7.552448 20.881185 L 8.391608 16.728457 L 9.230769 12.583553 L 10.069930 11.844365 L 10.909091 11.884469 L 11.748252 12.285503 L 12.587413 18.377587 L 13.426573 19.342444 L 14.265734 18.830043 L 15.104895 18.985146 L 15.944056 16.601579 L 16.783217 15.700999 L 17.622378 14.850444 L 18.461538 14.185174 L 19.300699 16.012604 L 20.139860 15.901656 L 20.979021 15.040760 L 21.818182 8.800000 L 22.657343 10.703864 L 23.496503 9.974876 L 24.335664 10.197471 L 25.174825 9.679899 L 26.013986 13.349431 L 26.853147 13.702117 L 27.692308 23.804122 L 28.531469 27.002753 L 29.370629 25.481059 L 30.209790 24.001425 L 31.048951 21.138434 L 31.888112 17.241557 L 32.727273 23.646503 L 33.566434 23.307930 L 34.405594 23.719863 L 35.244755 23.413009 L 36.083916 24.199287 L 36.923077 24.589562 L 37.762238 16.363334 L 38.601399 14.640145 L 39.440559 14.814951 L 40.279720 14.412520 L 41.118881 13.199078 L 41.958042 15.328331 L 42.797203 24.485601 L 43.636364 24.661944 L 44.475524 23.698763 L 45.314685 29.145001 L 46.153846 22.465339 L 46.993007 21.792804 L 47.832168 21.309746 L 48.671329 22.023503 L 49.510490 21.431733 L 50.349650 21.402948 L 51.188811 21.545336 L 52.027972 20.746342 L 52.867133 20.786027 L 53.706294 20.752770 L 54.545455 20.645595 L 55.384615 19.962999 L 56.223776 20.913324 L 57.062937 19.184126 L 57.902098 19.272717 L 58.741259 22.057039 L 59.580420 22.682065 L 60.419580 22.821519 L 61.258741 23.542542 L 62.097902 23.357395 L 62.937063 24.957759 L 63.776224 30.426633 L 64.615385 30.888451 L 65.454545 30.994369 L 66.293706 33.090086 L 67.132867 32.158346 L 67.972028 34.058157 L 68.811189 33.552463 L 69.650350 34.677175 L 70.489510 34.528359 L 71.328671 34.298358 L 72.167832 34.543869 L 73.006993 34.052568 L 73.846154 33.313938 L 74.685315 31.709663 L 75.524476 31.622329 L 76.363636 31.315895 L 77.202797 31.644267 L 78.041958 32.621840 L 78.881119 32.401761 L 79.720280 32.501390 L 80.559441 33.926389 L 81.398601 33.760805 L 82.237762 33.094278 L 83.076923 30.399665 L 83.916084 27.924153 L 84.755245 29.846182 L 85.594406 28.843038 L 86.433566 28.407629 L 87.272727 27.635604 L 88.111888 27.921917 L 88.951049 27.987452 L 89.790210 26.692406 L 90.629371 27.271879 L 91.468531 26.226116 L 92.307692 26.984308 L 93.146853 28.347125 L 93.986014 24.851003 L 94.825175 31.846182 L 95.664336 34.266918 L 96.503497 27.604723 L 97.342657 33.903892 L 98.181818 35.076113 L 99.020979 31.565179 L 99.860140 29.367736 L 100.699301 26.886215 L 101.538462 36.426493 L 102.377622 34.826130 L 103.216783 33.894949 L 104.055944 26.608705 L 104.895105 23.563502 L 105.734266 24.089457 L 106.573427 23.765556 L 107.412587 23.201872 L 108.251748 22.658870 L 109.090909 27.037965 L 109.930070 21.541564 L 110.769231 28.862600 L 111.608392 29.495032 L 112.447552 29.364103 L 113.286713 28.562733 L 114.125874 28.550996 L 114.965035 29.107413 L 115.804196 26.746901 L 116.643357 23.885447 L 117.482517 25.536813 L 118.321678 26.893621 L 119.160839 27.148634 L 120.000000 27.488465"></path>
      <path stroke="none" fill-opacity="0.6" fill="url(#color_grad)" d="M 0 40 L 0.000000 36.800000 L 0.839161 18.803913 L 1.678322 25.805240 L 2.517483 26.347404 L 3.356643 26.103151 L 4.195804 27.833466 L 5.034965 28.588304 L 5.874126 21.629037 L 6.713287 21.148215 L 7.552448 20.881185 L 8.391608 16.728457 L 9.230769 12.583553 L 10.069930 11.844365 L 10.909091 11.884469 L 11.748252 12.285503 L 12.587413 18.377587 L 13.426573 19.342444 L 14.265734 18.830043 L 15.104895 18.985146 L 15.944056 16.601579 L 16.783217 15.700999 L 17.622378 14.850444 L 18.461538 14.185174 L 19.300699 16.012604 L 20.139860 15.901656 L 20.979021 15.040760 L 21.818182 8.800000 L 22.657343 10.703864 L 23.496503 9.974876 L 24.335664 10.197471 L 25.174825 9.679899 L 26.013986 13.349431 L 26.853147 13.702117 L 27.692308 23.804122 L 28.531469 27.002753 L 29.370629 25.481059 L 30.209790 24.001425 L 31.048951 21.138434 L 31.888112 17.241557 L 32.727273 23.646503 L 33.566434 23.307930 L 34.405594 23.719863 L 35.244755 23.413009 L 36.083916 24.199287 L 36.923077 24.589562 L 37.762238 16.363334 L 38.601399 14.640145 L 39.440559 14.814951 L 40.279720 14.412520 L 41.118881 13.199078 L 41.958042 15.328331 L 42.797203 24.485601 L 43.636364 24.661944 L 44.475524 23.698763 L 45.314685 29.145001 L 46.153846 22.465339 L 46.993007 21.792804 L 47.832168 21.309746 L 48.671329 22.023503 L 49.510490 21.431733 L 50.349650 21.402948 L 51.188811 21.545336 L 52.027972 20.746342 L 52.867133 20.786027 L 53.706294 20.752770 L 54.545455 20.645595 L 55.384615 19.962999 L 56.223776 20.913324 L 57.062937 19.184126 L 57.902098 19.272717 L 58.741259 22.057039 L 59.580420 22.682065 L 60.419580 22.821519 L 61.258741 23.542542 L 62.097902 23.357395 L 62.937063 24.957759 L 63.776224 30.426633 L 64.615385 30.888451 L 65.454545 30.994369 L 66.293706 33.090086 L 67.132867 32.158346 L 67.972028 34.058157 L 68.811189 33.552463 L 69.650350 34.677175 L 70.489510 34.528359 L 71.328671 34.298358 L 72.167832 34.543869 L 73.006993 34.052568 L 73.846154 33.313938 L 74.685315 31.709663 L 75.524476 31.622329 L 76.363636 31.315895 L 77.202797 31.644267 L 78.041958 32.621840 L 78.881119 32.401761 L 79.720280 32.501390 L 80.559441 33.926389 L 81.398601 33.760805 L 82.237762 33.094278 L 83.076923 30.399665 L 83.916084 27.924153 L 84.755245 29.846182 L 85.594406 28.843038 L 86.433566 28.407629 L 87.272727 27.635604 L 88.111888 27.921917 L 88.951049 27.987452 L 89.790210 26.692406 L 90.629371 27.271879 L 91.468531 26.226116 L 92.307692 26.984308 L 93.146853 28.347125 L 93.986014 24.851003 L 94.825175 31.846182 L 95.664336 34.266918 L 96.503497 27.604723 L 97.342657 33.903892 L 98.181818 35.076113 L 99.020979 31.565179 L 99.860140 29.367736 L 100.699301 26.886215 L 101.538462 36.426493 L 102.377622 34.826130 L 103.216783 33.894949 L 104.055944 26.608705 L 104.895105 23.563502 L 105.734266 24.089457 L 106.573427 23.765556 L 107.412587 23.201872 L 108.251748 22.658870 L 109.090909 27.037965 L 109.930070 21.541564 L 110.769231 28.862600 L 111.608392 29.495032 L 112.447552 29.364103 L 113.286713 28.562733 L 114.125874 28.550996 L 114.965035 29.107413 L 115.804196 26.746901 L 116.643357 23.885447 L 117.482517 25.536813 L 118.321678 26.893621 L 119.160839 27.148634 L 120.000000 27.488465 L 120 40 Z"></path>
    </g>
  </svg>