<svg xmlns="http://www.w3.org/2000/svg" viewBox="0 0 120 40" width="120" height="40">
    <defs>
      <linearGradient id="color_grad" x1="0%" x2="0%" y1="0%" y2="100%">
        <stop offset="0%" style="stop-color:#EA3943;stop-opacity:0.4;"></stop>
        <stop offset="100%" style="stop-color:#EA3943;stop-opacity:0.0;"></stop>
      </linearGradient>
    </defs>
    <g>
      <path stroke="#EA3943" stroke-width="2" stroke-linecap="round" stroke-linejoin="round" fill="none" d="M 0.000000 13.466667 L 0.839161 15.133333 L 1.678322 15.466667 L 2.517483 15.466667 L 3.356643 15.466667 L 4.195804 15.466667 L 5.034965 15.466667 L 5.874126 11.800000 L 6.713287 16.800000 L 7.552448 16.800000 L 8.391608 11.800000 L 9.230769 11.800000 L 10.069930 11.800000 L 10.909091 10.800000 L 11.748252 13.466667 L 12.587413 11.800000 L 13.426573 13.690443 L 14.265734 12.988811 L 15.104895 10.466667 L 15.944056 13.466667 L 16.783217 15.133333 L 17.622378 20.133333 L 18.461538 15.133333 L 19.300699 15.133333 L 20.139860 17.133333 L 20.979021 17.133333 L 21.818182 17.133333 L 22.657343 17.133333 L 23.496503 18.240559 L 24.335664 19.744056 L 25.174825 8.800000 L 26.013986 16.800000 L 26.853147 15.133333 L 27.692308 20.133333 L 28.531469 17.573893 L 29.370629 14.133333 L 30.209790 14.133333 L 31.048951 20.133333 L 31.888112 14.133333 L 32.727273 14.133333 L 33.566434 14.133333 L 34.405594 14.133333 L 35.244755 14.133333 L 36.083916 14.133333 L 36.923077 20.133333 L 37.762238 8.800000 L 38.601399 13.117016 L 39.440559 13.466667 L 40.279720 20.133333 L 41.118881 20.133333 L 41.958042 13.466667 L 42.797203 20.133333 L 43.636364 11.618182 L 44.475524 20.133333 L 45.314685 15.238228 L 46.153846 13.133333 L 46.993007 13.133333 L 47.832168 16.800000 L 48.671329 16.800000 L 49.510490 23.466667 L 50.349650 20.133333 L 51.188811 21.800000 L 52.027972 20.797669 L 52.867133 20.133333 L 53.706294 17.133333 L 54.545455 18.466667 L 55.384615 19.748718 L 56.223776 20.133333 L 57.062937 19.839627 L 57.902098 20.466667 L 58.741259 20.466667 L 59.580420 20.466667 L 60.419580 20.466667 L 61.258741 23.466667 L 62.097902 23.466667 L 62.937063 23.221911 L 63.776224 23.466667 L 64.615385 22.800000 L 65.454545 22.800000 L 66.293706 22.133333 L 67.132867 22.133333 L 67.972028 22.133333 L 68.811189 22.133333 L 69.650350 21.800000 L 70.489510 21.800000 L 71.328671 21.800000 L 72.167832 21.800000 L 73.006993 21.800000 L 73.846154 21.800000 L 74.685315 21.800000 L 75.524476 21.800000 L 76.363636 21.800000 L 77.202797 23.233566 L 78.041958 21.800000 L 78.881119 23.373427 L 79.720280 24.133333 L 80.559441 24.133333 L 81.398601 24.133333 L 82.237762 24.133333 L 83.076923 24.133333 L 83.916084 24.002797 L 84.755245 21.800000 L 85.594406 21.800000 L 86.433566 21.133333 L 87.272727 21.133333 L 88.111888 21.133333 L 88.951049 21.133333 L 89.790210 21.466667 L 90.629371 21.466667 L 91.468531 21.466667 L 92.307692 25.133333 L 93.146853 21.133333 L 93.986014 21.133333 L 94.825175 21.133333 L 95.664336 21.655478 L 96.503497 23.466667 L 97.342657 21.133333 L 98.181818 21.133333 L 99.020979 21.800000 L 99.860140 21.466667 L 100.699301 22.133333 L 101.538462 26.800000 L 102.377622 26.839627 L 103.216783 26.424709 L 104.055944 23.466667 L 104.895105 26.800000 L 105.734266 26.800000 L 106.573427 26.800000 L 107.412587 26.800000 L 108.251748 26.800000 L 109.090909 26.800000 L 109.930070 25.133333 L 110.769231 25.158974 L 111.608392 25.466667 L 112.447552 25.466667 L 113.286713 25.466667 L 114.125874 25.800000 L 114.965035 26.800000 L 115.804196 28.725408 L 116.643357 30.133333 L 117.482517 30.466667 L 118.321678 31.133333 L 119.160839 33.466667 L 120.000000 36.800000"></path>
      <path stroke="none" fill-opacity="0.6" fill="url(#color_grad)" d="M 0 40 L 0.000000 13.466667 L 0.839161 15.133333 L 1.678322 15.466667 L 2.517483 15.466667 L 3.356643 15.466667 L 4.195804 15.466667 L 5.034965 15.466667 L 5.874126 11.800000 L 6.713287 16.800000 L 7.552448 16.800000 L 8.391608 11.800000 L 9.230769 11.800000 L 10.069930 11.800000 L 10.909091 10.800000 L 11.748252 13.466667 L 12.587413 11.800000 L 13.426573 13.690443 L 14.265734 12.988811 L 15.104895 10.466667 L 15.944056 13.466667 L 16.783217 15.133333 L 17.622378 20.133333 L 18.461538 15.133333 L 19.300699 15.133333 L 20.139860 17.133333 L 20.979021 17.133333 L 21.818182 17.133333 L 22.657343 17.133333 L 23.496503 18.240559 L 24.335664 19.744056 L 25.174825 8.800000 L 26.013986 16.800000 L 26.853147 15.133333 L 27.692308 20.133333 L 28.531469 17.573893 L 29.370629 14.133333 L 30.209790 14.133333 L 31.048951 20.133333 L 31.888112 14.133333 L 32.727273 14.133333 L 33.566434 14.133333 L 34.405594 14.133333 L 35.244755 14.133333 L 36.083916 14.133333 L 36.923077 20.133333 L 37.762238 8.800000 L 38.601399 13.117016 L 39.440559 13.466667 L 40.279720 20.133333 L 41.118881 20.133333 L 41.958042 13.466667 L 42.797203 20.133333 L 43.636364 11.618182 L 44.475524 20.133333 L 45.314685 15.238228 L 46.153846 13.133333 L 46.993007 13.133333 L 47.832168 16.800000 L 48.671329 16.800000 L 49.510490 23.466667 L 50.349650 20.133333 L 51.188811 21.800000 L 52.027972 20.797669 L 52.867133 20.133333 L 53.706294 17.133333 L 54.545455 18.466667 L 55.384615 19.748718 L 56.223776 20.133333 L 57.062937 19.839627 L 57.902098 20.466667 L 58.741259 20.466667 L 59.580420 20.466667 L 60.419580 20.466667 L 61.258741 23.466667 L 62.097902 23.466667 L 62.937063 23.221911 L 63.776224 23.466667 L 64.615385 22.800000 L 65.454545 22.800000 L 66.293706 22.133333 L 67.132867 22.133333 L 67.972028 22.133333 L 68.811189 22.133333 L 69.650350 21.800000 L 70.489510 21.800000 L 71.328671 21.800000 L 72.167832 21.800000 L 73.006993 21.800000 L 73.846154 21.800000 L 74.685315 21.800000 L 75.524476 21.800000 L 76.363636 21.800000 L 77.202797 23.233566 L 78.041958 21.800000 L 78.881119 23.373427 L 79.720280 24.133333 L 80.559441 24.133333 L 81.398601 24.133333 L 82.237762 24.133333 L 83.076923 24.133333 L 83.916084 24.002797 L 84.755245 21.800000 L 85.594406 21.800000 L 86.433566 21.133333 L 87.272727 21.133333 L 88.111888 21.133333 L 88.951049 21.133333 L 89.790210 21.466667 L 90.629371 21.466667 L 91.468531 21.466667 L 92.307692 25.133333 L 93.146853 21.133333 L 93.986014 21.133333 L 94.825175 21.133333 L 95.664336 21.655478 L 96.503497 23.466667 L 97.342657 21.133333 L 98.181818 21.133333 L 99.020979 21.800000 L 99.860140 21.466667 L 100.699301 22.133333 L 101.538462 26.800000 L 102.377622 26.839627 L 103.216783 26.424709 L 104.055944 23.466667 L 104.895105 26.800000 L 105.734266 26.800000 L 106.573427 26.800000 L 107.412587 26.800000 L 108.251748 26.800000 L 109.090909 26.800000 L 109.930070 25.133333 L 110.769231 25.158974 L 111.608392 25.466667 L 112.447552 25.466667 L 113.286713 25.466667 L 114.125874 25.800000 L 114.965035 26.800000 L 115.804196 28.725408 L 116.643357 30.133333 L 117.482517 30.466667 L 118.321678 31.133333 L 119.160839 33.466667 L 120.000000 36.800000 L 120 40 Z"></path>
    </g>
  </svg>