<svg xmlns="http://www.w3.org/2000/svg" viewBox="0 0 120 40" width="120" height="40">
    <defs>
      <linearGradient id="color_grad" x1="0%" x2="0%" y1="0%" y2="100%">
        <stop offset="0%" style="stop-color:#EA3943;stop-opacity:0.4;"></stop>
        <stop offset="100%" style="stop-color:#EA3943;stop-opacity:0.0;"></stop>
      </linearGradient>
    </defs>
    <g>
      <path stroke="#EA3943" stroke-width="2" stroke-linecap="round" stroke-linejoin="round" fill="none" d="M 0.000000 21.442609 L 0.839161 23.446547 L 1.678322 25.177158 L 2.517483 25.634740 L 3.356643 25.432775 L 4.195804 26.910647 L 5.034965 26.223882 L 5.874126 22.108175 L 6.713287 27.506245 L 7.552448 27.299221 L 8.391608 21.127405 L 9.230769 20.045348 L 10.069930 19.678672 L 10.909091 18.534674 L 11.748252 22.000082 L 12.587413 21.212204 L 13.426573 22.912367 L 14.265734 21.664726 L 15.104895 18.840542 L 15.944056 21.943462 L 16.783217 23.162925 L 17.622378 28.421496 L 18.461538 21.945469 L 19.300699 21.874018 L 20.139860 24.164458 L 20.979021 23.477343 L 21.818182 18.463223 L 22.657343 19.999721 L 23.496503 20.781580 L 24.335664 22.822508 L 25.174825 8.800000 L 26.013986 19.047392 L 26.853147 17.264349 L 27.692308 23.620071 L 28.531469 21.348650 L 29.370629 17.107489 L 30.209790 16.364802 L 31.048951 23.613702 L 31.888112 16.230188 L 32.727273 16.049773 L 33.566434 15.743467 L 34.405594 16.111540 L 35.244755 15.837427 L 36.083916 16.544607 L 36.923077 23.929080 L 37.762238 8.820415 L 38.601399 13.857916 L 39.440559 14.439643 L 40.279720 22.434371 L 41.118881 21.461191 L 41.958042 14.784072 L 42.797203 24.196214 L 43.636364 13.862016 L 44.475524 23.523407 L 45.314685 16.385391 L 46.153846 13.725047 L 46.993007 13.114705 L 47.832168 17.290435 L 48.671329 17.918748 L 49.510490 25.780258 L 50.349650 21.572511 L 51.188811 23.782253 L 52.027972 21.851161 L 52.867133 21.046096 L 53.706294 17.221514 L 54.545455 18.808001 L 55.384615 19.844780 L 56.223776 19.997104 L 57.062937 18.133711 L 57.902098 19.011798 L 58.741259 19.643688 L 59.580420 20.178217 L 60.419580 20.314663 L 61.258741 24.556260 L 62.097902 24.581123 L 62.937063 25.628894 L 63.776224 27.648362 L 64.615385 26.754310 L 65.454545 26.843384 L 66.293706 27.869170 L 67.132867 27.616082 L 67.972028 29.274457 L 68.811189 28.835545 L 69.650350 29.419278 L 70.489510 29.284053 L 71.328671 29.075633 L 72.167832 29.295220 L 73.006993 28.866864 L 73.846154 28.218747 L 74.685315 26.808487 L 75.524476 26.734855 L 76.363636 26.464581 L 77.202797 28.521999 L 78.041958 27.605526 L 78.881119 29.336747 L 79.720280 29.798953 L 80.559441 31.571265 L 81.398601 30.875776 L 82.237762 30.362882 L 83.076923 28.557506 L 83.916084 26.154350 L 84.755245 24.600578 L 85.594406 23.712983 L 86.433566 22.478079 L 87.272727 21.791924 L 88.111888 22.058447 L 88.951049 22.111664 L 89.790210 21.392009 L 90.629371 21.903506 L 91.468531 20.978658 L 92.307692 26.314787 L 93.146853 22.427828 L 93.986014 19.328135 L 94.825175 20.045523 L 95.664336 22.956162 L 96.503497 24.739467 L 97.342657 21.959864 L 98.181818 23.039478 L 99.020979 24.943612 L 99.860140 23.763845 L 100.699301 22.401044 L 101.538462 31.339552 L 102.377622 30.006152 L 103.216783 28.850463 L 104.055944 25.613976 L 104.895105 27.310475 L 105.734266 27.743368 L 106.573427 27.472744 L 107.412587 27.013069 L 108.251748 26.551823 L 109.090909 26.441898 L 109.930070 23.461727 L 110.769231 22.582681 L 111.608392 23.536493 L 112.447552 23.427616 L 113.286713 22.712671 L 114.125874 23.139980 L 114.965035 24.951726 L 115.804196 25.457029 L 116.643357 24.917352 L 117.482517 26.767309 L 118.321678 28.793494 L 119.160839 32.105445 L 120.000000 36.800000"></path>
      <path stroke="none" fill-opacity="0.6" fill="url(#color_grad)" d="M 0 40 L 0.000000 21.442609 L 0.839161 23.446547 L 1.678322 25.177158 L 2.517483 25.634740 L 3.356643 25.432775 L 4.195804 26.910647 L 5.034965 26.223882 L 5.874126 22.108175 L 6.713287 27.506245 L 7.552448 27.299221 L 8.391608 21.127405 L 9.230769 20.045348 L 10.069930 19.678672 L 10.909091 18.534674 L 11.748252 22.000082 L 12.587413 21.212204 L 13.426573 22.912367 L 14.265734 21.664726 L 15.104895 18.840542 L 15.944056 21.943462 L 16.783217 23.162925 L 17.622378 28.421496 L 18.461538 21.945469 L 19.300699 21.874018 L 20.139860 24.164458 L 20.979021 23.477343 L 21.818182 18.463223 L 22.657343 19.999721 L 23.496503 20.781580 L 24.335664 22.822508 L 25.174825 8.800000 L 26.013986 19.047392 L 26.853147 17.264349 L 27.692308 23.620071 L 28.531469 21.348650 L 29.370629 17.107489 L 30.209790 16.364802 L 31.048951 23.613702 L 31.888112 16.230188 L 32.727273 16.049773 L 33.566434 15.743467 L 34.405594 16.111540 L 35.244755 15.837427 L 36.083916 16.544607 L 36.923077 23.929080 L 37.762238 8.820415 L 38.601399 13.857916 L 39.440559 14.439643 L 40.279720 22.434371 L 41.118881 21.461191 L 41.958042 14.784072 L 42.797203 24.196214 L 43.636364 13.862016 L 44.475524 23.523407 L 45.314685 16.385391 L 46.153846 13.725047 L 46.993007 13.114705 L 47.832168 17.290435 L 48.671329 17.918748 L 49.510490 25.780258 L 50.349650 21.572511 L 51.188811 23.782253 L 52.027972 21.851161 L 52.867133 21.046096 L 53.706294 17.221514 L 54.545455 18.808001 L 55.384615 19.844780 L 56.223776 19.997104 L 57.062937 18.133711 L 57.902098 19.011798 L 58.741259 19.643688 L 59.580420 20.178217 L 60.419580 20.314663 L 61.258741 24.556260 L 62.097902 24.581123 L 62.937063 25.628894 L 63.776224 27.648362 L 64.615385 26.754310 L 65.454545 26.843384 L 66.293706 27.869170 L 67.132867 27.616082 L 67.972028 29.274457 L 68.811189 28.835545 L 69.650350 29.419278 L 70.489510 29.284053 L 71.328671 29.075633 L 72.167832 29.295220 L 73.006993 28.866864 L 73.846154 28.218747 L 74.685315 26.808487 L 75.524476 26.734855 L 76.363636 26.464581 L 77.202797 28.521999 L 78.041958 27.605526 L 78.881119 29.336747 L 79.720280 29.798953 L 80.559441 31.571265 L 81.398601 30.875776 L 82.237762 30.362882 L 83.076923 28.557506 L 83.916084 26.154350 L 84.755245 24.600578 L 85.594406 23.712983 L 86.433566 22.478079 L 87.272727 21.791924 L 88.111888 22.058447 L 88.951049 22.111664 L 89.790210 21.392009 L 90.629371 21.903506 L 91.468531 20.978658 L 92.307692 26.314787 L 93.146853 22.427828 L 93.986014 19.328135 L 94.825175 20.045523 L 95.664336 22.956162 L 96.503497 24.739467 L 97.342657 21.959864 L 98.181818 23.039478 L 99.020979 24.943612 L 99.860140 23.763845 L 100.699301 22.401044 L 101.538462 31.339552 L 102.377622 30.006152 L 103.216783 28.850463 L 104.055944 25.613976 L 104.895105 27.310475 L 105.734266 27.743368 L 106.573427 27.472744 L 107.412587 27.013069 L 108.251748 26.551823 L 109.090909 26.441898 L 109.930070 23.461727 L 110.769231 22.582681 L 111.608392 23.536493 L 112.447552 23.427616 L 113.286713 22.712671 L 114.125874 23.139980 L 114.965035 24.951726 L 115.804196 25.457029 L 116.643357 24.917352 L 117.482517 26.767309 L 118.321678 28.793494 L 119.160839 32.105445 L 120.000000 36.800000 L 120 40 Z"></path>
    </g>
  </svg>