<svg xmlns="http://www.w3.org/2000/svg" viewBox="0 0 120 40" width="120" height="40">
    <defs>
      <linearGradient id="color_grad" x1="0%" x2="0%" y1="0%" y2="100%">
        <stop offset="0%" style="stop-color:#16C784;stop-opacity:0.4;"></stop>
        <stop offset="100%" style="stop-color:#16C784;stop-opacity:0.0;"></stop>
      </linearGradient>
    </defs>
    <g>
      <path stroke="#16C784" stroke-width="2" stroke-linecap="round" stroke-linejoin="round" fill="none" d="M 0.000000 17.540119 L 0.839161 20.926735 L 1.678322 22.858202 L 2.517483 24.139944 L 3.356643 30.611557 L 4.195804 22.120666 L 5.034965 21.108075 L 5.874126 21.298455 L 6.713287 32.982078 L 7.552448 36.800000 L 8.391608 36.327741 L 9.230769 30.454199 L 10.069930 34.438334 L 10.909091 26.178407 L 11.748252 26.625393 L 12.587413 28.385666 L 13.426573 31.653480 L 14.265734 35.210368 L 15.104895 18.864474 L 15.944056 24.888733 L 16.783217 23.843121 L 17.622378 22.856358 L 18.461538 22.107937 L 19.300699 21.990979 L 20.139860 31.972993 L 20.979021 31.048028 L 21.818182 24.173518 L 22.657343 15.806226 L 23.496503 15.682442 L 24.335664 15.221252 L 25.174825 20.764027 L 26.013986 25.536061 L 26.853147 10.780169 L 27.692308 26.146124 L 28.531469 27.379901 L 29.370629 27.352045 L 30.209790 26.390370 L 31.048951 26.131735 L 31.888112 26.197777 L 32.727273 25.964968 L 33.566434 25.553955 L 34.405594 26.037652 L 35.244755 25.680137 L 36.083916 26.620043 L 36.923077 26.586469 L 37.762238 25.164341 L 38.601399 24.741890 L 39.440559 24.921385 L 40.279720 24.469234 L 41.118881 23.106138 L 41.958042 25.369294 L 42.797203 26.954130 L 43.636364 27.178453 L 44.475524 26.011272 L 45.314685 24.561657 L 46.153846 24.528820 L 46.993007 23.730406 L 47.832168 23.153364 L 48.671329 24.005092 L 49.510490 23.289323 L 50.349650 23.250030 L 51.188811 23.414767 L 52.027972 22.478181 L 52.867133 22.524116 L 53.706294 22.461025 L 54.545455 22.348494 L 55.384615 21.513370 L 56.223776 21.042217 L 57.062937 18.963723 L 57.902098 19.039542 L 58.741259 19.945506 L 59.580420 20.716801 L 60.419580 20.874528 L 61.258741 21.490864 L 62.097902 21.551188 L 62.937063 23.507374 L 63.776224 26.003155 L 64.615385 25.920878 L 65.454545 26.039312 L 66.293706 28.689683 L 67.132867 28.338809 L 67.972028 30.724457 L 68.811189 30.094839 L 69.650350 31.501656 L 70.489510 31.320131 L 71.328671 31.015192 L 72.167832 31.339317 L 73.006993 30.717078 L 73.846154 29.794696 L 74.685315 27.775234 L 75.524476 27.646470 L 76.363636 27.262390 L 77.202797 27.695909 L 78.041958 28.909948 L 78.881119 28.643195 L 79.720280 27.956943 L 80.559441 30.551972 L 81.398601 29.542333 L 82.237762 28.781368 L 83.076923 26.127861 L 83.916084 22.856726 L 84.755245 24.603533 L 85.594406 23.330831 L 86.433566 22.763381 L 87.272727 21.787317 L 88.111888 22.169921 L 88.951049 22.246848 L 89.790210 20.603902 L 90.629371 21.329078 L 91.468531 20.015238 L 92.307692 20.963446 L 93.146853 22.692543 L 93.986014 18.278947 L 94.825175 19.309800 L 95.664336 22.505668 L 96.503497 21.768685 L 97.342657 22.026399 L 98.181818 23.573970 L 99.020979 25.086676 L 99.860140 24.004354 L 100.699301 20.834866 L 101.538462 25.356750 L 102.377622 23.243942 L 103.216783 22.298870 L 104.055944 23.058175 L 104.895105 19.269953 L 105.734266 19.915252 L 106.573427 19.510326 L 107.412587 18.802306 L 108.251748 18.128414 L 109.090909 17.938219 L 109.930070 16.732666 L 110.769231 15.370862 L 111.608392 16.205802 L 112.447552 16.032947 L 113.286713 14.974976 L 114.125874 14.959480 L 114.965035 15.694064 L 115.804196 12.577706 L 116.643357 8.800000 L 117.482517 10.980141 L 118.321678 12.771406 L 119.160839 13.108075 L 120.000000 13.556722"></path>
      <path stroke="none" fill-opacity="0.6" fill="url(#color_grad)" d="M 0 40 L 0.000000 17.540119 L 0.839161 20.926735 L 1.678322 22.858202 L 2.517483 24.139944 L 3.356643 30.611557 L 4.195804 22.120666 L 5.034965 21.108075 L 5.874126 21.298455 L 6.713287 32.982078 L 7.552448 36.800000 L 8.391608 36.327741 L 9.230769 30.454199 L 10.069930 34.438334 L 10.909091 26.178407 L 11.748252 26.625393 L 12.587413 28.385666 L 13.426573 31.653480 L 14.265734 35.210368 L 15.104895 18.864474 L 15.944056 24.888733 L 16.783217 23.843121 L 17.622378 22.856358 L 18.461538 22.107937 L 19.300699 21.990979 L 20.139860 31.972993 L 20.979021 31.048028 L 21.818182 24.173518 L 22.657343 15.806226 L 23.496503 15.682442 L 24.335664 15.221252 L 25.174825 20.764027 L 26.013986 25.536061 L 26.853147 10.780169 L 27.692308 26.146124 L 28.531469 27.379901 L 29.370629 27.352045 L 30.209790 26.390370 L 31.048951 26.131735 L 31.888112 26.197777 L 32.727273 25.964968 L 33.566434 25.553955 L 34.405594 26.037652 L 35.244755 25.680137 L 36.083916 26.620043 L 36.923077 26.586469 L 37.762238 25.164341 L 38.601399 24.741890 L 39.440559 24.921385 L 40.279720 24.469234 L 41.118881 23.106138 L 41.958042 25.369294 L 42.797203 26.954130 L 43.636364 27.178453 L 44.475524 26.011272 L 45.314685 24.561657 L 46.153846 24.528820 L 46.993007 23.730406 L 47.832168 23.153364 L 48.671329 24.005092 L 49.510490 23.289323 L 50.349650 23.250030 L 51.188811 23.414767 L 52.027972 22.478181 L 52.867133 22.524116 L 53.706294 22.461025 L 54.545455 22.348494 L 55.384615 21.513370 L 56.223776 21.042217 L 57.062937 18.963723 L 57.902098 19.039542 L 58.741259 19.945506 L 59.580420 20.716801 L 60.419580 20.874528 L 61.258741 21.490864 L 62.097902 21.551188 L 62.937063 23.507374 L 63.776224 26.003155 L 64.615385 25.920878 L 65.454545 26.039312 L 66.293706 28.689683 L 67.132867 28.338809 L 67.972028 30.724457 L 68.811189 30.094839 L 69.650350 31.501656 L 70.489510 31.320131 L 71.328671 31.015192 L 72.167832 31.339317 L 73.006993 30.717078 L 73.846154 29.794696 L 74.685315 27.775234 L 75.524476 27.646470 L 76.363636 27.262390 L 77.202797 27.695909 L 78.041958 28.909948 L 78.881119 28.643195 L 79.720280 27.956943 L 80.559441 30.551972 L 81.398601 29.542333 L 82.237762 28.781368 L 83.076923 26.127861 L 83.916084 22.856726 L 84.755245 24.603533 L 85.594406 23.330831 L 86.433566 22.763381 L 87.272727 21.787317 L 88.111888 22.169921 L 88.951049 22.246848 L 89.790210 20.603902 L 90.629371 21.329078 L 91.468531 20.015238 L 92.307692 20.963446 L 93.146853 22.692543 L 93.986014 18.278947 L 94.825175 19.309800 L 95.664336 22.505668 L 96.503497 21.768685 L 97.342657 22.026399 L 98.181818 23.573970 L 99.020979 25.086676 L 99.860140 24.004354 L 100.699301 20.834866 L 101.538462 25.356750 L 102.377622 23.243942 L 103.216783 22.298870 L 104.055944 23.058175 L 104.895105 19.269953 L 105.734266 19.915252 L 106.573427 19.510326 L 107.412587 18.802306 L 108.251748 18.128414 L 109.090909 17.938219 L 109.930070 16.732666 L 110.769231 15.370862 L 111.608392 16.205802 L 112.447552 16.032947 L 113.286713 14.974976 L 114.125874 14.959480 L 114.965035 15.694064 L 115.804196 12.577706 L 116.643357 8.800000 L 117.482517 10.980141 L 118.321678 12.771406 L 119.160839 13.108075 L 120.000000 13.556722 L 120 40 Z"></path>
    </g>
  </svg>