<svg xmlns="http://www.w3.org/2000/svg" viewBox="0 0 120 40" width="120" height="40">
    <defs>
      <linearGradient id="color_grad" x1="0%" x2="0%" y1="0%" y2="100%">
        <stop offset="0%" style="stop-color:#EA3943;stop-opacity:0.4;"></stop>
        <stop offset="100%" style="stop-color:#EA3943;stop-opacity:0.0;"></stop>
      </linearGradient>
    </defs>
    <g>
      <path stroke="#EA3943" stroke-width="2" stroke-linecap="round" stroke-linejoin="round" fill="none" d="M 0.000000 14.390278 L 0.839161 14.409027 L 1.678322 14.945986 L 2.517483 15.128244 L 3.356643 15.044835 L 4.195804 15.642344 L 5.034965 15.365179 L 5.874126 15.415197 L 6.713287 15.257948 L 7.552448 15.173188 L 8.391608 15.034468 L 9.230769 14.611993 L 10.069930 14.469661 L 10.909091 14.483833 L 11.748252 14.611910 L 12.587413 15.066921 L 13.426573 14.868671 L 14.265734 14.698765 L 15.104895 14.749720 L 15.944056 14.588749 L 16.783217 16.036612 L 17.622378 15.770972 L 18.461538 15.566490 L 19.300699 15.535746 L 20.139860 15.499102 L 20.979021 15.226569 L 21.818182 13.249331 L 22.657343 13.852768 L 23.496503 13.620906 L 24.335664 10.552325 L 25.174825 15.645901 L 26.013986 8.800000 L 26.853147 10.619906 L 27.692308 19.512778 L 28.531469 31.778693 L 29.370629 31.167728 L 30.209790 36.800000 L 31.048951 34.875647 L 31.888112 35.997044 L 32.727273 35.428790 L 33.566434 33.167632 L 34.405594 32.833033 L 35.244755 33.553186 L 36.083916 32.938693 L 36.923077 33.713165 L 37.762238 33.991626 L 38.601399 33.912105 L 39.440559 33.552139 L 40.279720 33.212383 L 41.118881 32.704597 L 41.958042 32.969409 L 42.797203 32.739670 L 43.636364 32.754753 L 44.475524 31.653870 L 45.314685 32.568496 L 46.153846 31.135082 L 46.993007 31.987669 L 47.832168 30.989248 L 48.671329 31.807755 L 49.510490 26.095135 L 50.349650 25.708175 L 51.188811 24.419326 L 52.027972 25.538518 L 52.867133 28.211177 L 53.706294 26.869581 L 54.545455 26.841401 L 55.384615 26.669235 L 56.223776 26.972015 L 57.062937 27.490471 L 57.902098 26.558832 L 58.741259 26.345582 L 59.580420 26.497537 L 60.419580 27.881182 L 61.258741 29.342997 L 62.097902 28.011079 L 62.937063 28.407221 L 63.776224 31.549423 L 64.615385 29.023783 L 65.454545 29.371342 L 66.293706 32.024700 L 67.132867 31.959186 L 67.972028 32.531714 L 68.811189 32.919143 L 69.650350 32.548809 L 70.489510 32.574811 L 71.328671 32.459004 L 72.167832 32.517073 L 73.006993 32.400907 L 73.846154 31.845116 L 74.685315 31.464498 L 75.524476 31.442191 L 76.363636 31.757544 L 77.202797 31.838306 L 78.041958 30.784683 L 78.881119 31.372128 L 79.720280 33.177834 L 80.559441 32.752795 L 81.398601 33.460844 L 82.237762 33.398060 L 83.076923 32.850569 L 83.916084 32.261167 L 84.755245 32.355577 L 85.594406 33.009638 L 86.433566 32.246636 L 87.272727 33.408924 L 88.111888 32.807224 L 88.951049 32.819522 L 89.790210 33.877225 L 90.629371 33.999457 L 91.468531 32.428011 L 92.307692 31.925189 L 93.146853 32.233373 L 93.986014 31.441998 L 94.825175 31.625111 L 95.664336 32.198080 L 96.503497 32.112189 L 97.342657 33.715454 L 98.181818 33.977784 L 99.020979 34.368909 L 99.860140 34.184086 L 100.699301 31.900373 L 101.538462 33.367096 L 102.377622 33.690804 L 103.216783 33.387610 L 104.055944 32.960668 L 104.895105 32.295550 L 105.734266 32.680664 L 106.573427 32.609415 L 107.412587 32.488397 L 108.251748 32.369005 L 109.090909 32.336441 L 109.930070 32.129119 L 110.769231 31.890005 L 111.608392 32.446706 L 112.447552 32.419381 L 113.286713 32.235193 L 114.125874 32.233980 L 114.965035 33.743358 L 115.804196 33.524566 L 116.643357 32.610077 L 117.482517 34.384791 L 118.321678 34.665181 L 119.160839 34.719942 L 120.000000 34.787165"></path>
      <path stroke="none" fill-opacity="0.6" fill="url(#color_grad)" d="M 0 40 L 0.000000 14.390278 L 0.839161 14.409027 L 1.678322 14.945986 L 2.517483 15.128244 L 3.356643 15.044835 L 4.195804 15.642344 L 5.034965 15.365179 L 5.874126 15.415197 L 6.713287 15.257948 L 7.552448 15.173188 L 8.391608 15.034468 L 9.230769 14.611993 L 10.069930 14.469661 L 10.909091 14.483833 L 11.748252 14.611910 L 12.587413 15.066921 L 13.426573 14.868671 L 14.265734 14.698765 L 15.104895 14.749720 L 15.944056 14.588749 L 16.783217 16.036612 L 17.622378 15.770972 L 18.461538 15.566490 L 19.300699 15.535746 L 20.139860 15.499102 L 20.979021 15.226569 L 21.818182 13.249331 L 22.657343 13.852768 L 23.496503 13.620906 L 24.335664 10.552325 L 25.174825 15.645901 L 26.013986 8.800000 L 26.853147 10.619906 L 27.692308 19.512778 L 28.531469 31.778693 L 29.370629 31.167728 L 30.209790 36.800000 L 31.048951 34.875647 L 31.888112 35.997044 L 32.727273 35.428790 L 33.566434 33.167632 L 34.405594 32.833033 L 35.244755 33.553186 L 36.083916 32.938693 L 36.923077 33.713165 L 37.762238 33.991626 L 38.601399 33.912105 L 39.440559 33.552139 L 40.279720 33.212383 L 41.118881 32.704597 L 41.958042 32.969409 L 42.797203 32.739670 L 43.636364 32.754753 L 44.475524 31.653870 L 45.314685 32.568496 L 46.153846 31.135082 L 46.993007 31.987669 L 47.832168 30.989248 L 48.671329 31.807755 L 49.510490 26.095135 L 50.349650 25.708175 L 51.188811 24.419326 L 52.027972 25.538518 L 52.867133 28.211177 L 53.706294 26.869581 L 54.545455 26.841401 L 55.384615 26.669235 L 56.223776 26.972015 L 57.062937 27.490471 L 57.902098 26.558832 L 58.741259 26.345582 L 59.580420 26.497537 L 60.419580 27.881182 L 61.258741 29.342997 L 62.097902 28.011079 L 62.937063 28.407221 L 63.776224 31.549423 L 64.615385 29.023783 L 65.454545 29.371342 L 66.293706 32.024700 L 67.132867 31.959186 L 67.972028 32.531714 L 68.811189 32.919143 L 69.650350 32.548809 L 70.489510 32.574811 L 71.328671 32.459004 L 72.167832 32.517073 L 73.006993 32.400907 L 73.846154 31.845116 L 74.685315 31.464498 L 75.524476 31.442191 L 76.363636 31.757544 L 77.202797 31.838306 L 78.041958 30.784683 L 78.881119 31.372128 L 79.720280 33.177834 L 80.559441 32.752795 L 81.398601 33.460844 L 82.237762 33.398060 L 83.076923 32.850569 L 83.916084 32.261167 L 84.755245 32.355577 L 85.594406 33.009638 L 86.433566 32.246636 L 87.272727 33.408924 L 88.111888 32.807224 L 88.951049 32.819522 L 89.790210 33.877225 L 90.629371 33.999457 L 91.468531 32.428011 L 92.307692 31.925189 L 93.146853 32.233373 L 93.986014 31.441998 L 94.825175 31.625111 L 95.664336 32.198080 L 96.503497 32.112189 L 97.342657 33.715454 L 98.181818 33.977784 L 99.020979 34.368909 L 99.860140 34.184086 L 100.699301 31.900373 L 101.538462 33.367096 L 102.377622 33.690804 L 103.216783 33.387610 L 104.055944 32.960668 L 104.895105 32.295550 L 105.734266 32.680664 L 106.573427 32.609415 L 107.412587 32.488397 L 108.251748 32.369005 L 109.090909 32.336441 L 109.930070 32.129119 L 110.769231 31.890005 L 111.608392 32.446706 L 112.447552 32.419381 L 113.286713 32.235193 L 114.125874 32.233980 L 114.965035 33.743358 L 115.804196 33.524566 L 116.643357 32.610077 L 117.482517 34.384791 L 118.321678 34.665181 L 119.160839 34.719942 L 120.000000 34.787165 L 120 40 Z"></path>
    </g>
  </svg>