<svg xmlns="http://www.w3.org/2000/svg" viewBox="0 0 120 40" width="120" height="40">
    <defs>
      <linearGradient id="color_grad" x1="0%" x2="0%" y1="0%" y2="100%">
        <stop offset="0%" style="stop-color:#EA3943;stop-opacity:0.4;"></stop>
        <stop offset="100%" style="stop-color:#EA3943;stop-opacity:0.0;"></stop>
      </linearGradient>
    </defs>
    <g>
      <path stroke="#EA3943" stroke-width="2" stroke-linecap="round" stroke-linejoin="round" fill="none" d="M 0.000000 11.823474 L 0.839161 11.823474 L 1.678322 11.823474 L 2.517483 11.823474 L 3.356643 11.823474 L 4.195804 11.823474 L 5.034965 11.823474 L 5.874126 11.823474 L 6.713287 11.823474 L 7.552448 11.823474 L 8.391608 11.823474 L 9.230769 11.823474 L 10.069930 11.823474 L 10.909091 11.823474 L 11.748252 11.823474 L 12.587413 11.823474 L 13.426573 11.823474 L 14.265734 11.823474 L 15.104895 11.823474 L 15.944056 11.823474 L 16.783217 13.663850 L 17.622378 13.663850 L 18.461538 13.663850 L 19.300699 13.663850 L 20.139860 13.663850 L 20.979021 13.663850 L 21.818182 13.663850 L 22.657343 13.663850 L 23.496503 13.663850 L 24.335664 10.508920 L 25.174825 15.790118 L 26.013986 8.800000 L 26.853147 10.508920 L 27.692308 19.407440 L 28.531469 31.541784 L 29.370629 30.925874 L 30.209790 36.800000 L 31.048951 34.897114 L 31.888112 36.018622 L 32.727273 35.485446 L 33.566434 33.279202 L 34.405594 32.856338 L 35.244755 33.645070 L 36.083916 32.856338 L 36.923077 33.645070 L 37.762238 34.170892 L 38.601399 34.170892 L 39.440559 33.776526 L 40.279720 33.513615 L 41.118881 33.250704 L 41.958042 33.113733 L 42.797203 32.593427 L 43.636364 32.569526 L 44.475524 31.673239 L 45.314685 32.856338 L 46.153846 31.430553 L 46.993007 32.428878 L 47.832168 31.541784 L 48.671329 32.199061 L 49.510490 26.660468 L 50.349650 26.283568 L 51.188811 24.969014 L 52.027972 26.283568 L 52.867133 28.912676 L 53.706294 27.598122 L 54.545455 27.598122 L 55.384615 27.598122 L 56.223776 27.992488 L 57.062937 28.912676 L 57.902098 27.992488 L 58.741259 27.606395 L 59.580420 27.598122 L 60.419580 28.912676 L 61.258741 30.227230 L 62.097902 28.912676 L 62.937063 28.912676 L 63.776224 31.566604 L 64.615385 29.044131 L 65.454545 29.366795 L 66.293706 31.541784 L 67.132867 31.541784 L 67.972028 31.673239 L 68.811189 32.194465 L 69.650350 31.541784 L 70.489510 31.604294 L 71.328671 31.541784 L 72.167832 31.541784 L 73.006993 31.541784 L 73.846154 31.147418 L 74.685315 31.147418 L 75.524476 31.147418 L 76.363636 31.541784 L 77.202797 31.541784 L 78.041958 30.227230 L 78.881119 30.884507 L 79.720280 32.856338 L 80.559441 31.936150 L 81.398601 32.856338 L 82.237762 32.929880 L 83.076923 32.856338 L 83.916084 32.856338 L 84.755245 32.637552 L 85.594406 33.513615 L 86.433566 32.856338 L 87.272727 34.170892 L 88.111888 33.513615 L 88.951049 33.513615 L 89.790210 34.828169 L 90.629371 34.828169 L 91.468531 33.513615 L 92.307692 32.856338 L 93.146853 32.856338 L 93.986014 32.856338 L 94.825175 32.856338 L 95.664336 32.856338 L 96.503497 32.902301 L 97.342657 34.433803 L 98.181818 34.433803 L 99.020979 34.565258 L 99.860140 34.565258 L 100.699301 32.856338 L 101.538462 33.513615 L 102.377622 34.202147 L 103.216783 34.065176 L 104.055944 33.513615 L 104.895105 33.513615 L 105.734266 33.776526 L 106.573427 33.776526 L 107.412587 33.776526 L 108.251748 33.776526 L 109.090909 33.776526 L 109.930070 33.776526 L 110.769231 33.776526 L 111.608392 34.170892 L 112.447552 34.170892 L 113.286713 34.170892 L 114.125874 34.170892 L 114.965035 35.485446 L 115.804196 35.761227 L 116.643357 35.485446 L 117.482517 36.800000 L 118.321678 36.800000 L 119.160839 36.800000 L 120.000000 36.800000"></path>
      <path stroke="none" fill-opacity="0.6" fill="url(#color_grad)" d="M 0 40 L 0.000000 11.823474 L 0.839161 11.823474 L 1.678322 11.823474 L 2.517483 11.823474 L 3.356643 11.823474 L 4.195804 11.823474 L 5.034965 11.823474 L 5.874126 11.823474 L 6.713287 11.823474 L 7.552448 11.823474 L 8.391608 11.823474 L 9.230769 11.823474 L 10.069930 11.823474 L 10.909091 11.823474 L 11.748252 11.823474 L 12.587413 11.823474 L 13.426573 11.823474 L 14.265734 11.823474 L 15.104895 11.823474 L 15.944056 11.823474 L 16.783217 13.663850 L 17.622378 13.663850 L 18.461538 13.663850 L 19.300699 13.663850 L 20.139860 13.663850 L 20.979021 13.663850 L 21.818182 13.663850 L 22.657343 13.663850 L 23.496503 13.663850 L 24.335664 10.508920 L 25.174825 15.790118 L 26.013986 8.800000 L 26.853147 10.508920 L 27.692308 19.407440 L 28.531469 31.541784 L 29.370629 30.925874 L 30.209790 36.800000 L 31.048951 34.897114 L 31.888112 36.018622 L 32.727273 35.485446 L 33.566434 33.279202 L 34.405594 32.856338 L 35.244755 33.645070 L 36.083916 32.856338 L 36.923077 33.645070 L 37.762238 34.170892 L 38.601399 34.170892 L 39.440559 33.776526 L 40.279720 33.513615 L 41.118881 33.250704 L 41.958042 33.113733 L 42.797203 32.593427 L 43.636364 32.569526 L 44.475524 31.673239 L 45.314685 32.856338 L 46.153846 31.430553 L 46.993007 32.428878 L 47.832168 31.541784 L 48.671329 32.199061 L 49.510490 26.660468 L 50.349650 26.283568 L 51.188811 24.969014 L 52.027972 26.283568 L 52.867133 28.912676 L 53.706294 27.598122 L 54.545455 27.598122 L 55.384615 27.598122 L 56.223776 27.992488 L 57.062937 28.912676 L 57.902098 27.992488 L 58.741259 27.606395 L 59.580420 27.598122 L 60.419580 28.912676 L 61.258741 30.227230 L 62.097902 28.912676 L 62.937063 28.912676 L 63.776224 31.566604 L 64.615385 29.044131 L 65.454545 29.366795 L 66.293706 31.541784 L 67.132867 31.541784 L 67.972028 31.673239 L 68.811189 32.194465 L 69.650350 31.541784 L 70.489510 31.604294 L 71.328671 31.541784 L 72.167832 31.541784 L 73.006993 31.541784 L 73.846154 31.147418 L 74.685315 31.147418 L 75.524476 31.147418 L 76.363636 31.541784 L 77.202797 31.541784 L 78.041958 30.227230 L 78.881119 30.884507 L 79.720280 32.856338 L 80.559441 31.936150 L 81.398601 32.856338 L 82.237762 32.929880 L 83.076923 32.856338 L 83.916084 32.856338 L 84.755245 32.637552 L 85.594406 33.513615 L 86.433566 32.856338 L 87.272727 34.170892 L 88.111888 33.513615 L 88.951049 33.513615 L 89.790210 34.828169 L 90.629371 34.828169 L 91.468531 33.513615 L 92.307692 32.856338 L 93.146853 32.856338 L 93.986014 32.856338 L 94.825175 32.856338 L 95.664336 32.856338 L 96.503497 32.902301 L 97.342657 34.433803 L 98.181818 34.433803 L 99.020979 34.565258 L 99.860140 34.565258 L 100.699301 32.856338 L 101.538462 33.513615 L 102.377622 34.202147 L 103.216783 34.065176 L 104.055944 33.513615 L 104.895105 33.513615 L 105.734266 33.776526 L 106.573427 33.776526 L 107.412587 33.776526 L 108.251748 33.776526 L 109.090909 33.776526 L 109.930070 33.776526 L 110.769231 33.776526 L 111.608392 34.170892 L 112.447552 34.170892 L 113.286713 34.170892 L 114.125874 34.170892 L 114.965035 35.485446 L 115.804196 35.761227 L 116.643357 35.485446 L 117.482517 36.800000 L 118.321678 36.800000 L 119.160839 36.800000 L 120.000000 36.800000 L 120 40 Z"></path>
    </g>
  </svg>