<svg xmlns="http://www.w3.org/2000/svg" viewBox="0 0 120 40" width="120" height="40">
    <defs>
      <linearGradient id="color_grad" x1="0%" x2="0%" y1="0%" y2="100%">
        <stop offset="0%" style="stop-color:#EA3943;stop-opacity:0.4;"></stop>
        <stop offset="100%" style="stop-color:#EA3943;stop-opacity:0.0;"></stop>
      </linearGradient>
    </defs>
    <g>
      <path stroke="#EA3943" stroke-width="2" stroke-linecap="round" stroke-linejoin="round" fill="none" d="M 0.000000 8.800000 L 0.839161 8.832959 L 1.678322 9.948988 L 2.517483 10.851105 L 3.356643 10.678044 L 4.195804 11.911307 L 5.034965 11.338207 L 5.874126 11.468447 L 6.713287 11.144492 L 7.552448 12.241324 L 8.391608 15.885762 L 9.230769 11.095095 L 10.069930 10.806116 L 10.909091 10.834117 L 11.748252 15.166176 L 12.587413 16.057426 L 13.426573 17.463866 L 14.265734 17.825848 L 15.104895 15.830571 L 15.944056 15.514929 L 16.783217 14.405488 L 17.622378 16.523856 L 18.461538 16.117153 L 19.300699 16.059735 L 20.139860 15.983411 L 20.979021 15.447491 L 21.818182 14.330328 L 22.657343 15.492054 L 23.496503 15.044506 L 24.335664 15.179972 L 25.174825 14.867581 L 26.013986 15.085065 L 26.853147 15.714419 L 27.692308 18.185381 L 28.531469 18.850629 L 29.370629 18.841925 L 30.209790 18.313043 L 31.048951 18.182055 L 31.888112 18.212629 L 32.727273 18.085686 L 33.566434 17.865857 L 34.405594 18.129424 L 35.244755 17.929800 L 36.083916 18.442541 L 36.923077 21.183003 L 37.762238 20.442594 L 38.601399 20.211858 L 39.440559 20.314880 L 40.279720 20.080788 L 41.118881 19.359699 L 41.958042 20.546920 L 42.797203 21.376595 L 43.636364 21.486445 L 44.475524 21.497803 L 45.314685 22.908605 L 46.153846 22.896270 L 46.993007 22.486591 L 47.832168 25.007009 L 48.671329 31.023269 L 49.510490 25.076493 L 50.349650 25.061592 L 51.188811 25.144136 L 52.027972 22.979299 L 52.867133 29.074753 L 53.706294 28.345632 L 54.545455 28.283783 L 55.384615 27.897879 L 56.223776 27.669867 L 57.062937 26.688971 L 57.902098 26.730810 L 58.741259 30.587547 L 59.580420 28.083357 L 60.419580 28.168988 L 61.258741 29.874164 L 62.097902 29.892794 L 62.937063 30.796122 L 63.776224 31.946279 L 64.615385 30.518162 L 65.454545 30.579328 L 66.293706 31.817582 L 67.132867 31.648350 L 67.972028 32.768092 L 68.811189 32.469607 L 69.650350 33.132055 L 70.489510 33.042929 L 71.328671 32.903324 L 72.167832 33.051014 L 73.006993 36.800000 L 73.846154 36.389684 L 74.685315 35.494190 L 75.524476 35.442682 L 76.363636 32.524377 L 77.202797 32.722541 L 78.041958 33.280418 L 78.881119 33.152142 L 79.720280 31.473033 L 80.559441 32.685641 L 81.398601 32.210559 L 82.237762 31.857989 L 83.076923 30.617127 L 83.916084 29.085585 L 84.755245 29.900926 L 85.594406 29.306068 L 86.433566 29.046131 L 87.272727 28.590732 L 88.111888 28.765933 L 88.951049 31.627814 L 89.790210 30.889480 L 90.629371 31.219597 L 91.468531 33.911748 L 92.307692 31.052983 L 93.146853 29.859233 L 93.986014 27.813816 L 94.825175 31.736611 L 95.664336 33.153726 L 96.503497 32.828848 L 97.342657 32.947484 L 98.181818 33.629896 L 99.020979 34.302516 L 99.860140 31.018668 L 100.699301 28.147539 L 101.538462 30.257150 L 102.377622 29.273553 L 103.216783 28.827753 L 104.055944 29.179043 L 104.895105 28.269963 L 105.734266 28.573259 L 106.573427 28.383397 L 107.412587 28.061178 L 108.251748 27.743017 L 109.090909 27.661981 L 109.930070 27.103689 L 110.769231 26.470768 L 111.608392 27.437693 L 112.447552 25.902158 L 113.286713 25.401114 L 114.125874 25.395789 L 114.965035 25.741607 L 115.804196 25.776676 L 116.643357 24.040038 L 117.482517 25.044212 L 118.321678 25.864692 L 119.160839 26.018000 L 120.000000 32.152527"></path>
      <path stroke="none" fill-opacity="0.6" fill="url(#color_grad)" d="M 0 40 L 0.000000 8.800000 L 0.839161 8.832959 L 1.678322 9.948988 L 2.517483 10.851105 L 3.356643 10.678044 L 4.195804 11.911307 L 5.034965 11.338207 L 5.874126 11.468447 L 6.713287 11.144492 L 7.552448 12.241324 L 8.391608 15.885762 L 9.230769 11.095095 L 10.069930 10.806116 L 10.909091 10.834117 L 11.748252 15.166176 L 12.587413 16.057426 L 13.426573 17.463866 L 14.265734 17.825848 L 15.104895 15.830571 L 15.944056 15.514929 L 16.783217 14.405488 L 17.622378 16.523856 L 18.461538 16.117153 L 19.300699 16.059735 L 20.139860 15.983411 L 20.979021 15.447491 L 21.818182 14.330328 L 22.657343 15.492054 L 23.496503 15.044506 L 24.335664 15.179972 L 25.174825 14.867581 L 26.013986 15.085065 L 26.853147 15.714419 L 27.692308 18.185381 L 28.531469 18.850629 L 29.370629 18.841925 L 30.209790 18.313043 L 31.048951 18.182055 L 31.888112 18.212629 L 32.727273 18.085686 L 33.566434 17.865857 L 34.405594 18.129424 L 35.244755 17.929800 L 36.083916 18.442541 L 36.923077 21.183003 L 37.762238 20.442594 L 38.601399 20.211858 L 39.440559 20.314880 L 40.279720 20.080788 L 41.118881 19.359699 L 41.958042 20.546920 L 42.797203 21.376595 L 43.636364 21.486445 L 44.475524 21.497803 L 45.314685 22.908605 L 46.153846 22.896270 L 46.993007 22.486591 L 47.832168 25.007009 L 48.671329 31.023269 L 49.510490 25.076493 L 50.349650 25.061592 L 51.188811 25.144136 L 52.027972 22.979299 L 52.867133 29.074753 L 53.706294 28.345632 L 54.545455 28.283783 L 55.384615 27.897879 L 56.223776 27.669867 L 57.062937 26.688971 L 57.902098 26.730810 L 58.741259 30.587547 L 59.580420 28.083357 L 60.419580 28.168988 L 61.258741 29.874164 L 62.097902 29.892794 L 62.937063 30.796122 L 63.776224 31.946279 L 64.615385 30.518162 L 65.454545 30.579328 L 66.293706 31.817582 L 67.132867 31.648350 L 67.972028 32.768092 L 68.811189 32.469607 L 69.650350 33.132055 L 70.489510 33.042929 L 71.328671 32.903324 L 72.167832 33.051014 L 73.006993 36.800000 L 73.846154 36.389684 L 74.685315 35.494190 L 75.524476 35.442682 L 76.363636 32.524377 L 77.202797 32.722541 L 78.041958 33.280418 L 78.881119 33.152142 L 79.720280 31.473033 L 80.559441 32.685641 L 81.398601 32.210559 L 82.237762 31.857989 L 83.076923 30.617127 L 83.916084 29.085585 L 84.755245 29.900926 L 85.594406 29.306068 L 86.433566 29.046131 L 87.272727 28.590732 L 88.111888 28.765933 L 88.951049 31.627814 L 89.790210 30.889480 L 90.629371 31.219597 L 91.468531 33.911748 L 92.307692 31.052983 L 93.146853 29.859233 L 93.986014 27.813816 L 94.825175 31.736611 L 95.664336 33.153726 L 96.503497 32.828848 L 97.342657 32.947484 L 98.181818 33.629896 L 99.020979 34.302516 L 99.860140 31.018668 L 100.699301 28.147539 L 101.538462 30.257150 L 102.377622 29.273553 L 103.216783 28.827753 L 104.055944 29.179043 L 104.895105 28.269963 L 105.734266 28.573259 L 106.573427 28.383397 L 107.412587 28.061178 L 108.251748 27.743017 L 109.090909 27.661981 L 109.930070 27.103689 L 110.769231 26.470768 L 111.608392 27.437693 L 112.447552 25.902158 L 113.286713 25.401114 L 114.125874 25.395789 L 114.965035 25.741607 L 115.804196 25.776676 L 116.643357 24.040038 L 117.482517 25.044212 L 118.321678 25.864692 L 119.160839 26.018000 L 120.000000 32.152527 L 120 40 Z"></path>
    </g>
  </svg>