<svg xmlns="http://www.w3.org/2000/svg" viewBox="0 0 120 40" width="120" height="40">
    <defs>
      <linearGradient id="color_grad" x1="0%" x2="0%" y1="0%" y2="100%">
        <stop offset="0%" style="stop-color:#EA3943;stop-opacity:0.4;"></stop>
        <stop offset="100%" style="stop-color:#EA3943;stop-opacity:0.0;"></stop>
      </linearGradient>
    </defs>
    <g>
      <path stroke="#EA3943" stroke-width="2" stroke-linecap="round" stroke-linejoin="round" fill="none" d="M 0.000000 8.800000 L 0.839161 8.800000 L 1.678322 8.800000 L 2.517483 9.259016 L 3.356643 9.259016 L 4.195804 9.259016 L 5.034965 9.259016 L 5.874126 9.281967 L 6.713287 9.281967 L 7.552448 10.406557 L 8.391608 13.872131 L 9.230769 10.406557 L 10.069930 10.406557 L 10.909091 10.406557 L 11.748252 13.963934 L 12.587413 13.963934 L 13.426573 15.540800 L 14.265734 16.144262 L 15.104895 14.308197 L 15.944056 14.308197 L 16.783217 13.849180 L 17.622378 16.144262 L 18.461538 16.144262 L 19.300699 16.144262 L 20.139860 16.144262 L 20.979021 16.144262 L 21.818182 18.439344 L 22.657343 18.439344 L 23.496503 18.439344 L 24.335664 18.439344 L 25.174825 18.439344 L 26.013986 18.439344 L 26.853147 18.783607 L 27.692308 20.734426 L 28.531469 20.734426 L 29.370629 20.734426 L 30.209790 20.734426 L 31.048951 20.734426 L 31.888112 20.734426 L 32.727273 20.734426 L 33.566434 20.734426 L 34.405594 20.734426 L 35.244755 20.734426 L 36.083916 20.734426 L 36.923077 23.029508 L 37.762238 23.029508 L 38.601399 23.029508 L 39.440559 23.029508 L 40.279720 23.029508 L 41.118881 23.029508 L 41.958042 23.029508 L 42.797203 23.029508 L 43.636364 23.029508 L 44.475524 23.543093 L 45.314685 25.324590 L 46.153846 25.324590 L 46.993007 25.324590 L 47.832168 27.619672 L 48.671329 32.209836 L 49.510490 27.619672 L 50.349650 27.619672 L 51.188811 27.619672 L 52.027972 26.239413 L 52.867133 31.176247 L 53.706294 30.603279 L 54.545455 30.603279 L 55.384615 30.603279 L 56.223776 30.603279 L 57.062937 30.603279 L 57.902098 30.603279 L 58.741259 33.357377 L 59.580420 31.062295 L 60.419580 31.062295 L 61.258741 32.209836 L 62.097902 32.209836 L 62.937063 32.209836 L 63.776224 32.209836 L 64.615385 31.062295 L 65.454545 31.062295 L 66.293706 31.062295 L 67.132867 31.062295 L 67.972028 31.062295 L 68.811189 31.062295 L 69.650350 31.062295 L 70.489510 31.062295 L 71.328671 31.062295 L 72.167832 31.062295 L 73.006993 34.504918 L 73.846154 34.504918 L 74.685315 34.504918 L 75.524476 34.504918 L 76.363636 32.209836 L 77.202797 32.209836 L 78.041958 32.209836 L 78.881119 32.209836 L 79.720280 31.062295 L 80.559441 31.062295 L 81.398601 31.062295 L 82.237762 31.062295 L 83.076923 31.062295 L 83.916084 31.062295 L 84.755245 31.062295 L 85.594406 31.062295 L 86.433566 31.062295 L 87.272727 31.062295 L 88.111888 31.062295 L 88.951049 33.357377 L 89.790210 33.357377 L 90.629371 33.357377 L 91.468531 35.996721 L 92.307692 33.357377 L 93.146853 31.750820 L 93.986014 31.750820 L 94.825175 34.504918 L 95.664336 34.504918 L 96.503497 34.504918 L 97.342657 34.504918 L 98.181818 34.504918 L 99.020979 34.504918 L 99.860140 32.209836 L 100.699301 31.062295 L 101.538462 31.062295 L 102.377622 31.062295 L 103.216783 31.062295 L 104.055944 31.062295 L 104.895105 31.750820 L 105.734266 31.750820 L 106.573427 31.750820 L 107.412587 31.750820 L 108.251748 31.750820 L 109.090909 31.750820 L 109.930070 31.750820 L 110.769231 31.750820 L 111.608392 32.209836 L 112.447552 31.062295 L 113.286713 31.062295 L 114.125874 31.062295 L 114.965035 31.062295 L 115.804196 32.209836 L 116.643357 32.209836 L 117.482517 32.209836 L 118.321678 32.209836 L 119.160839 32.209836 L 120.000000 36.800000"></path>
      <path stroke="none" fill-opacity="0.6" fill="url(#color_grad)" d="M 0 40 L 0.000000 8.800000 L 0.839161 8.800000 L 1.678322 8.800000 L 2.517483 9.259016 L 3.356643 9.259016 L 4.195804 9.259016 L 5.034965 9.259016 L 5.874126 9.281967 L 6.713287 9.281967 L 7.552448 10.406557 L 8.391608 13.872131 L 9.230769 10.406557 L 10.069930 10.406557 L 10.909091 10.406557 L 11.748252 13.963934 L 12.587413 13.963934 L 13.426573 15.540800 L 14.265734 16.144262 L 15.104895 14.308197 L 15.944056 14.308197 L 16.783217 13.849180 L 17.622378 16.144262 L 18.461538 16.144262 L 19.300699 16.144262 L 20.139860 16.144262 L 20.979021 16.144262 L 21.818182 18.439344 L 22.657343 18.439344 L 23.496503 18.439344 L 24.335664 18.439344 L 25.174825 18.439344 L 26.013986 18.439344 L 26.853147 18.783607 L 27.692308 20.734426 L 28.531469 20.734426 L 29.370629 20.734426 L 30.209790 20.734426 L 31.048951 20.734426 L 31.888112 20.734426 L 32.727273 20.734426 L 33.566434 20.734426 L 34.405594 20.734426 L 35.244755 20.734426 L 36.083916 20.734426 L 36.923077 23.029508 L 37.762238 23.029508 L 38.601399 23.029508 L 39.440559 23.029508 L 40.279720 23.029508 L 41.118881 23.029508 L 41.958042 23.029508 L 42.797203 23.029508 L 43.636364 23.029508 L 44.475524 23.543093 L 45.314685 25.324590 L 46.153846 25.324590 L 46.993007 25.324590 L 47.832168 27.619672 L 48.671329 32.209836 L 49.510490 27.619672 L 50.349650 27.619672 L 51.188811 27.619672 L 52.027972 26.239413 L 52.867133 31.176247 L 53.706294 30.603279 L 54.545455 30.603279 L 55.384615 30.603279 L 56.223776 30.603279 L 57.062937 30.603279 L 57.902098 30.603279 L 58.741259 33.357377 L 59.580420 31.062295 L 60.419580 31.062295 L 61.258741 32.209836 L 62.097902 32.209836 L 62.937063 32.209836 L 63.776224 32.209836 L 64.615385 31.062295 L 65.454545 31.062295 L 66.293706 31.062295 L 67.132867 31.062295 L 67.972028 31.062295 L 68.811189 31.062295 L 69.650350 31.062295 L 70.489510 31.062295 L 71.328671 31.062295 L 72.167832 31.062295 L 73.006993 34.504918 L 73.846154 34.504918 L 74.685315 34.504918 L 75.524476 34.504918 L 76.363636 32.209836 L 77.202797 32.209836 L 78.041958 32.209836 L 78.881119 32.209836 L 79.720280 31.062295 L 80.559441 31.062295 L 81.398601 31.062295 L 82.237762 31.062295 L 83.076923 31.062295 L 83.916084 31.062295 L 84.755245 31.062295 L 85.594406 31.062295 L 86.433566 31.062295 L 87.272727 31.062295 L 88.111888 31.062295 L 88.951049 33.357377 L 89.790210 33.357377 L 90.629371 33.357377 L 91.468531 35.996721 L 92.307692 33.357377 L 93.146853 31.750820 L 93.986014 31.750820 L 94.825175 34.504918 L 95.664336 34.504918 L 96.503497 34.504918 L 97.342657 34.504918 L 98.181818 34.504918 L 99.020979 34.504918 L 99.860140 32.209836 L 100.699301 31.062295 L 101.538462 31.062295 L 102.377622 31.062295 L 103.216783 31.062295 L 104.055944 31.062295 L 104.895105 31.750820 L 105.734266 31.750820 L 106.573427 31.750820 L 107.412587 31.750820 L 108.251748 31.750820 L 109.090909 31.750820 L 109.930070 31.750820 L 110.769231 31.750820 L 111.608392 32.209836 L 112.447552 31.062295 L 113.286713 31.062295 L 114.125874 31.062295 L 114.965035 31.062295 L 115.804196 32.209836 L 116.643357 32.209836 L 117.482517 32.209836 L 118.321678 32.209836 L 119.160839 32.209836 L 120.000000 36.800000 L 120 40 Z"></path>
    </g>
  </svg>