<svg xmlns="http://www.w3.org/2000/svg" viewBox="0 0 120 40" width="120" height="40">
    <defs>
      <linearGradient id="color_grad" x1="0%" x2="0%" y1="0%" y2="100%">
        <stop offset="0%" style="stop-color:#EA3943;stop-opacity:0.4;"></stop>
        <stop offset="100%" style="stop-color:#EA3943;stop-opacity:0.0;"></stop>
      </linearGradient>
    </defs>
    <g>
      <path stroke="#EA3943" stroke-width="2" stroke-linecap="round" stroke-linejoin="round" fill="none" d="M 0.000000 15.022222 L 0.839161 15.022222 L 1.678322 15.283294 L 2.517483 14.983061 L 3.356643 12.844444 L 4.195804 12.844444 L 5.034965 12.844444 L 5.874126 12.844444 L 6.713287 12.844444 L 7.552448 8.800000 L 8.391608 8.800000 L 9.230769 13.107692 L 10.069930 8.800000 L 10.909091 15.022222 L 11.748252 18.133333 L 12.587413 11.911111 L 13.426573 11.911111 L 14.265734 11.911111 L 15.104895 15.022222 L 15.944056 18.133333 L 16.783217 11.911111 L 17.622378 13.466667 L 18.461538 13.466667 L 19.300699 13.466667 L 20.139860 13.466667 L 20.979021 13.466667 L 21.818182 18.133333 L 22.657343 18.133333 L 23.496503 13.466667 L 24.335664 11.911111 L 25.174825 18.133333 L 26.013986 18.133333 L 26.853147 18.133333 L 27.692308 18.133333 L 28.531469 18.133333 L 29.370629 19.786791 L 30.209790 18.133333 L 31.048951 18.133333 L 31.888112 18.133333 L 32.727273 18.133333 L 33.566434 18.133333 L 34.405594 18.133333 L 35.244755 18.133333 L 36.083916 18.133333 L 36.923077 18.133333 L 37.762238 18.133333 L 38.601399 18.133333 L 39.440559 18.133333 L 40.279720 18.133333 L 41.118881 18.133333 L 41.958042 18.444444 L 42.797203 18.444444 L 43.636364 18.133333 L 44.475524 19.688889 L 45.314685 21.244444 L 46.153846 24.355556 L 46.993007 23.702875 L 47.832168 23.326496 L 48.671329 21.244444 L 49.510490 21.244444 L 50.349650 21.244444 L 51.188811 21.244444 L 52.027972 20.622222 L 52.867133 21.244444 L 53.706294 21.244444 L 54.545455 21.244444 L 55.384615 21.244444 L 56.223776 21.244444 L 57.062937 21.244444 L 57.902098 21.244444 L 58.741259 21.244444 L 59.580420 23.111111 L 60.419580 23.137218 L 61.258741 22.314841 L 62.097902 19.688889 L 62.937063 19.506138 L 63.776224 18.755556 L 64.615385 19.329915 L 65.454545 21.244444 L 66.293706 21.244444 L 67.132867 24.355556 L 67.972028 24.355556 L 68.811189 25.911111 L 69.650350 24.977778 L 70.489510 24.355556 L 71.328671 24.355556 L 72.167832 24.355556 L 73.006993 22.177778 L 73.846154 22.177778 L 74.685315 22.177778 L 75.524476 23.008858 L 76.363636 24.072727 L 77.202797 23.017560 L 78.041958 24.203263 L 78.881119 24.355556 L 79.720280 24.355556 L 80.559441 24.355556 L 81.398601 24.355556 L 82.237762 27.466667 L 83.076923 27.466667 L 83.916084 27.466667 L 84.755245 25.911111 L 85.594406 25.911111 L 86.433566 24.977778 L 87.272727 25.288889 L 88.111888 29.022222 L 88.951049 29.022222 L 89.790210 29.022222 L 90.629371 29.022222 L 91.468531 26.533333 L 92.307692 25.767521 L 93.146853 25.911111 L 93.986014 25.663092 L 94.825175 25.288889 L 95.664336 25.423776 L 96.503497 25.288889 L 97.342657 27.466667 L 98.181818 27.466667 L 99.020979 28.088889 L 99.860140 29.022222 L 100.699301 24.355556 L 101.538462 24.355556 L 102.377622 24.355556 L 103.216783 24.044444 L 104.055944 23.111111 L 104.895105 24.666667 L 105.734266 24.666667 L 106.573427 24.666667 L 107.412587 24.666667 L 108.251748 24.666667 L 109.090909 24.666667 L 109.930070 24.666667 L 110.769231 27.466667 L 111.608392 28.400000 L 112.447552 28.400000 L 113.286713 28.400000 L 114.125874 29.022222 L 114.965035 29.022222 L 115.804196 30.577778 L 116.643357 32.028904 L 117.482517 33.688889 L 118.321678 34.311111 L 119.160839 33.714996 L 120.000000 36.800000"></path>
      <path stroke="none" fill-opacity="0.6" fill="url(#color_grad)" d="M 0 40 L 0.000000 15.022222 L 0.839161 15.022222 L 1.678322 15.283294 L 2.517483 14.983061 L 3.356643 12.844444 L 4.195804 12.844444 L 5.034965 12.844444 L 5.874126 12.844444 L 6.713287 12.844444 L 7.552448 8.800000 L 8.391608 8.800000 L 9.230769 13.107692 L 10.069930 8.800000 L 10.909091 15.022222 L 11.748252 18.133333 L 12.587413 11.911111 L 13.426573 11.911111 L 14.265734 11.911111 L 15.104895 15.022222 L 15.944056 18.133333 L 16.783217 11.911111 L 17.622378 13.466667 L 18.461538 13.466667 L 19.300699 13.466667 L 20.139860 13.466667 L 20.979021 13.466667 L 21.818182 18.133333 L 22.657343 18.133333 L 23.496503 13.466667 L 24.335664 11.911111 L 25.174825 18.133333 L 26.013986 18.133333 L 26.853147 18.133333 L 27.692308 18.133333 L 28.531469 18.133333 L 29.370629 19.786791 L 30.209790 18.133333 L 31.048951 18.133333 L 31.888112 18.133333 L 32.727273 18.133333 L 33.566434 18.133333 L 34.405594 18.133333 L 35.244755 18.133333 L 36.083916 18.133333 L 36.923077 18.133333 L 37.762238 18.133333 L 38.601399 18.133333 L 39.440559 18.133333 L 40.279720 18.133333 L 41.118881 18.133333 L 41.958042 18.444444 L 42.797203 18.444444 L 43.636364 18.133333 L 44.475524 19.688889 L 45.314685 21.244444 L 46.153846 24.355556 L 46.993007 23.702875 L 47.832168 23.326496 L 48.671329 21.244444 L 49.510490 21.244444 L 50.349650 21.244444 L 51.188811 21.244444 L 52.027972 20.622222 L 52.867133 21.244444 L 53.706294 21.244444 L 54.545455 21.244444 L 55.384615 21.244444 L 56.223776 21.244444 L 57.062937 21.244444 L 57.902098 21.244444 L 58.741259 21.244444 L 59.580420 23.111111 L 60.419580 23.137218 L 61.258741 22.314841 L 62.097902 19.688889 L 62.937063 19.506138 L 63.776224 18.755556 L 64.615385 19.329915 L 65.454545 21.244444 L 66.293706 21.244444 L 67.132867 24.355556 L 67.972028 24.355556 L 68.811189 25.911111 L 69.650350 24.977778 L 70.489510 24.355556 L 71.328671 24.355556 L 72.167832 24.355556 L 73.006993 22.177778 L 73.846154 22.177778 L 74.685315 22.177778 L 75.524476 23.008858 L 76.363636 24.072727 L 77.202797 23.017560 L 78.041958 24.203263 L 78.881119 24.355556 L 79.720280 24.355556 L 80.559441 24.355556 L 81.398601 24.355556 L 82.237762 27.466667 L 83.076923 27.466667 L 83.916084 27.466667 L 84.755245 25.911111 L 85.594406 25.911111 L 86.433566 24.977778 L 87.272727 25.288889 L 88.111888 29.022222 L 88.951049 29.022222 L 89.790210 29.022222 L 90.629371 29.022222 L 91.468531 26.533333 L 92.307692 25.767521 L 93.146853 25.911111 L 93.986014 25.663092 L 94.825175 25.288889 L 95.664336 25.423776 L 96.503497 25.288889 L 97.342657 27.466667 L 98.181818 27.466667 L 99.020979 28.088889 L 99.860140 29.022222 L 100.699301 24.355556 L 101.538462 24.355556 L 102.377622 24.355556 L 103.216783 24.044444 L 104.055944 23.111111 L 104.895105 24.666667 L 105.734266 24.666667 L 106.573427 24.666667 L 107.412587 24.666667 L 108.251748 24.666667 L 109.090909 24.666667 L 109.930070 24.666667 L 110.769231 27.466667 L 111.608392 28.400000 L 112.447552 28.400000 L 113.286713 28.400000 L 114.125874 29.022222 L 114.965035 29.022222 L 115.804196 30.577778 L 116.643357 32.028904 L 117.482517 33.688889 L 118.321678 34.311111 L 119.160839 33.714996 L 120.000000 36.800000 L 120 40 Z"></path>
    </g>
  </svg>