<svg xmlns="http://www.w3.org/2000/svg" viewBox="0 0 120 40" width="120" height="40">
    <defs>
      <linearGradient id="color_grad" x1="0%" x2="0%" y1="0%" y2="100%">
        <stop offset="0%" style="stop-color:#EA3943;stop-opacity:0.4;"></stop>
        <stop offset="100%" style="stop-color:#EA3943;stop-opacity:0.0;"></stop>
      </linearGradient>
    </defs>
    <g>
      <path stroke="#EA3943" stroke-width="2" stroke-linecap="round" stroke-linejoin="round" fill="none" d="M 0.000000 19.850398 L 0.839161 19.898239 L 1.678322 21.656678 L 2.517483 21.732403 L 3.356643 18.661381 L 4.195804 20.260073 L 5.034965 19.520364 L 5.874126 19.655027 L 6.713287 19.233135 L 7.552448 13.623586 L 8.391608 13.232376 L 9.230769 17.866465 L 10.069930 11.663806 L 10.909091 20.095289 L 11.748252 24.625864 L 12.587413 17.478799 L 13.426573 16.943228 L 14.265734 16.487392 L 15.104895 20.799654 L 15.944056 24.565247 L 16.783217 15.381559 L 17.622378 16.760353 L 18.461538 16.187200 L 19.300699 16.110823 L 20.139860 15.998729 L 20.979021 15.250907 L 21.818182 16.477693 L 22.657343 18.069764 L 23.496503 10.818158 L 24.335664 8.800000 L 25.174825 17.214138 L 26.013986 17.516754 L 26.853147 17.806595 L 27.692308 17.977253 L 28.531469 18.911215 L 29.370629 21.220053 L 30.209790 18.156492 L 31.048951 17.970446 L 31.888112 18.012598 L 32.727273 17.833079 L 33.566434 17.523282 L 34.405594 17.899105 L 35.244755 17.616259 L 36.083916 18.335357 L 36.923077 18.307567 L 37.762238 17.235400 L 38.601399 16.903221 L 39.440559 17.045810 L 40.279720 16.709808 L 41.118881 15.669535 L 41.958042 17.825712 L 42.797203 19.033194 L 43.636364 18.750814 L 44.475524 20.074307 L 45.314685 21.222850 L 46.153846 25.647300 L 46.993007 24.138880 L 47.832168 23.188039 L 48.671329 20.806182 L 49.510490 20.286371 L 50.349650 20.269305 L 51.188811 20.392590 L 52.027972 18.793992 L 52.867133 19.733268 L 53.706294 19.689904 L 54.545455 19.594596 L 55.384615 18.995891 L 56.223776 18.638627 L 57.062937 17.112955 L 57.902098 17.173385 L 58.741259 17.834944 L 59.580420 21.125398 L 60.419580 21.295963 L 61.258741 20.536298 L 62.097902 16.750841 L 62.937063 17.950769 L 63.776224 18.751840 L 64.615385 19.499568 L 65.454545 22.306581 L 66.293706 24.252932 L 67.132867 28.338395 L 67.972028 30.035845 L 68.811189 31.740383 L 69.650350 31.443735 L 70.489510 30.453820 L 71.328671 30.244273 L 72.167832 30.466223 L 73.006993 27.026373 L 73.846154 26.346908 L 74.685315 24.889220 L 75.524476 25.965956 L 76.363636 27.189851 L 77.202797 26.014076 L 78.041958 28.544491 L 78.881119 28.557081 L 79.720280 28.076252 L 80.559441 29.917596 L 81.398601 29.188053 L 82.237762 32.998130 L 83.076923 31.189798 L 83.916084 28.950436 L 84.755245 27.913893 L 85.594406 27.040268 L 86.433566 25.300386 L 87.272727 25.068272 L 88.111888 30.740396 L 88.951049 30.792619 L 89.790210 29.696765 L 90.629371 30.190184 L 91.468531 25.650843 L 92.307692 25.190810 L 93.146853 26.597860 L 93.986014 23.153721 L 94.825175 23.321302 L 95.664336 25.758368 L 96.503497 25.050180 L 97.342657 28.391364 L 98.181818 29.439938 L 99.020979 31.368756 L 99.860140 31.960001 L 100.699301 23.035285 L 101.538462 26.228939 L 102.377622 24.751294 L 103.216783 23.623173 L 104.055944 22.805129 L 104.895105 22.375498 L 105.734266 22.838235 L 106.573427 22.548954 L 107.412587 22.057587 L 108.251748 21.577877 L 109.090909 21.447038 L 109.930070 20.601857 L 110.769231 23.846988 L 111.608392 25.809286 L 112.447552 25.706238 L 113.286713 24.981916 L 114.125874 25.914945 L 114.965035 26.411907 L 115.804196 26.695686 L 116.643357 26.479612 L 117.482517 30.446452 L 118.321678 32.525600 L 119.160839 31.822635 L 120.000000 36.800000"></path>
      <path stroke="none" fill-opacity="0.6" fill="url(#color_grad)" d="M 0 40 L 0.000000 19.850398 L 0.839161 19.898239 L 1.678322 21.656678 L 2.517483 21.732403 L 3.356643 18.661381 L 4.195804 20.260073 L 5.034965 19.520364 L 5.874126 19.655027 L 6.713287 19.233135 L 7.552448 13.623586 L 8.391608 13.232376 L 9.230769 17.866465 L 10.069930 11.663806 L 10.909091 20.095289 L 11.748252 24.625864 L 12.587413 17.478799 L 13.426573 16.943228 L 14.265734 16.487392 L 15.104895 20.799654 L 15.944056 24.565247 L 16.783217 15.381559 L 17.622378 16.760353 L 18.461538 16.187200 L 19.300699 16.110823 L 20.139860 15.998729 L 20.979021 15.250907 L 21.818182 16.477693 L 22.657343 18.069764 L 23.496503 10.818158 L 24.335664 8.800000 L 25.174825 17.214138 L 26.013986 17.516754 L 26.853147 17.806595 L 27.692308 17.977253 L 28.531469 18.911215 L 29.370629 21.220053 L 30.209790 18.156492 L 31.048951 17.970446 L 31.888112 18.012598 L 32.727273 17.833079 L 33.566434 17.523282 L 34.405594 17.899105 L 35.244755 17.616259 L 36.083916 18.335357 L 36.923077 18.307567 L 37.762238 17.235400 L 38.601399 16.903221 L 39.440559 17.045810 L 40.279720 16.709808 L 41.118881 15.669535 L 41.958042 17.825712 L 42.797203 19.033194 L 43.636364 18.750814 L 44.475524 20.074307 L 45.314685 21.222850 L 46.153846 25.647300 L 46.993007 24.138880 L 47.832168 23.188039 L 48.671329 20.806182 L 49.510490 20.286371 L 50.349650 20.269305 L 51.188811 20.392590 L 52.027972 18.793992 L 52.867133 19.733268 L 53.706294 19.689904 L 54.545455 19.594596 L 55.384615 18.995891 L 56.223776 18.638627 L 57.062937 17.112955 L 57.902098 17.173385 L 58.741259 17.834944 L 59.580420 21.125398 L 60.419580 21.295963 L 61.258741 20.536298 L 62.097902 16.750841 L 62.937063 17.950769 L 63.776224 18.751840 L 64.615385 19.499568 L 65.454545 22.306581 L 66.293706 24.252932 L 67.132867 28.338395 L 67.972028 30.035845 L 68.811189 31.740383 L 69.650350 31.443735 L 70.489510 30.453820 L 71.328671 30.244273 L 72.167832 30.466223 L 73.006993 27.026373 L 73.846154 26.346908 L 74.685315 24.889220 L 75.524476 25.965956 L 76.363636 27.189851 L 77.202797 26.014076 L 78.041958 28.544491 L 78.881119 28.557081 L 79.720280 28.076252 L 80.559441 29.917596 L 81.398601 29.188053 L 82.237762 32.998130 L 83.076923 31.189798 L 83.916084 28.950436 L 84.755245 27.913893 L 85.594406 27.040268 L 86.433566 25.300386 L 87.272727 25.068272 L 88.111888 30.740396 L 88.951049 30.792619 L 89.790210 29.696765 L 90.629371 30.190184 L 91.468531 25.650843 L 92.307692 25.190810 L 93.146853 26.597860 L 93.986014 23.153721 L 94.825175 23.321302 L 95.664336 25.758368 L 96.503497 25.050180 L 97.342657 28.391364 L 98.181818 29.439938 L 99.020979 31.368756 L 99.860140 31.960001 L 100.699301 23.035285 L 101.538462 26.228939 L 102.377622 24.751294 L 103.216783 23.623173 L 104.055944 22.805129 L 104.895105 22.375498 L 105.734266 22.838235 L 106.573427 22.548954 L 107.412587 22.057587 L 108.251748 21.577877 L 109.090909 21.447038 L 109.930070 20.601857 L 110.769231 23.846988 L 111.608392 25.809286 L 112.447552 25.706238 L 113.286713 24.981916 L 114.125874 25.914945 L 114.965035 26.411907 L 115.804196 26.695686 L 116.643357 26.479612 L 117.482517 30.446452 L 118.321678 32.525600 L 119.160839 31.822635 L 120.000000 36.800000 L 120 40 Z"></path>
    </g>
  </svg>