<svg xmlns="http://www.w3.org/2000/svg" viewBox="0 0 120 40" width="120" height="40">
    <defs>
      <linearGradient id="color_grad" x1="0%" x2="0%" y1="0%" y2="100%">
        <stop offset="0%" style="stop-color:#EA3943;stop-opacity:0.4;"></stop>
        <stop offset="100%" style="stop-color:#EA3943;stop-opacity:0.0;"></stop>
      </linearGradient>
    </defs>
    <g>
      <path stroke="#EA3943" stroke-width="2" stroke-linecap="round" stroke-linejoin="round" fill="none" d="M 0.000000 15.765174 L 0.839161 8.800000 L 1.678322 8.858449 L 2.517483 9.496517 L 3.356643 9.496517 L 4.195804 9.496517 L 5.034965 9.496517 L 5.874126 9.496517 L 6.713287 9.496517 L 7.552448 9.566169 L 8.391608 15.765174 L 9.230769 16.050210 L 10.069930 17.585958 L 10.909091 18.210583 L 11.748252 21.337313 L 12.587413 22.939303 L 13.426573 27.188060 L 14.265734 27.615906 L 15.104895 29.834826 L 15.944056 30.392040 L 16.783217 30.392040 L 17.622378 30.405970 L 18.461538 24.123383 L 19.300699 29.695522 L 20.139860 29.695522 L 20.979021 29.695522 L 21.818182 29.695522 L 22.657343 29.695522 L 23.496503 29.695522 L 24.335664 29.695522 L 25.174825 29.695522 L 26.013986 29.695522 L 26.853147 31.227861 L 27.692308 36.800000 L 28.531469 36.800000 L 29.370629 28.065672 L 30.209790 28.065672 L 31.048951 28.065672 L 31.888112 28.065672 L 32.727273 29.277612 L 33.566434 29.277612 L 34.405594 29.277612 L 35.244755 29.277612 L 36.083916 29.277612 L 36.923077 29.277612 L 37.762238 29.277612 L 38.601399 29.277612 L 39.440559 29.277612 L 40.279720 29.277612 L 41.118881 29.277612 L 41.958042 29.277612 L 42.797203 29.277612 L 43.636364 31.088557 L 44.475524 31.088557 L 45.314685 31.088557 L 46.153846 31.088557 L 46.993007 31.088557 L 47.832168 31.088557 L 48.671329 31.088557 L 49.510490 31.088557 L 50.349650 31.088557 L 51.188811 35.267662 L 52.027972 35.795456 L 52.867133 36.145274 L 53.706294 36.145274 L 54.545455 36.145274 L 55.384615 36.145274 L 56.223776 36.145274 L 57.062937 36.145274 L 57.902098 36.145274 L 58.741259 36.145274 L 59.580420 36.145274 L 60.419580 36.145274 L 61.258741 36.660697 L 62.097902 36.660697 L 62.937063 36.585005 L 63.776224 36.145274 L 64.615385 23.426866 L 65.454545 23.426866 L 66.293706 29.974129 L 67.132867 29.974129 L 67.972028 29.974129 L 68.811189 29.974129 L 69.650350 29.974129 L 70.489510 29.974129 L 71.328671 29.974129 L 72.167832 29.974129 L 73.006993 29.974129 L 73.846154 29.974129 L 74.685315 29.974129 L 75.524476 29.974129 L 76.363636 23.426866 L 77.202797 29.834826 L 78.041958 29.834826 L 78.881119 29.834826 L 79.720280 29.834826 L 80.559441 29.834826 L 81.398601 29.834826 L 82.237762 29.834826 L 83.076923 29.834826 L 83.916084 29.834826 L 84.755245 35.267662 L 85.594406 29.834826 L 86.433566 29.834826 L 87.272727 29.834826 L 88.111888 29.834826 L 88.951049 22.730348 L 89.790210 22.730348 L 90.629371 22.730348 L 91.468531 22.730348 L 92.307692 22.730348 L 93.146853 22.730348 L 93.986014 22.730348 L 94.825175 22.730348 L 95.664336 22.730348 L 96.503497 22.730348 L 97.342657 22.730348 L 98.181818 22.730348 L 99.020979 36.660697 L 99.860140 29.695522 L 100.699301 29.695522 L 101.538462 33.874627 L 102.377622 31.970163 L 103.216783 17.854726 L 104.055944 17.854726 L 104.895105 17.854726 L 105.734266 17.854726 L 106.573427 17.854726 L 107.412587 17.854726 L 108.251748 17.854726 L 109.090909 17.854726 L 109.930070 17.854726 L 110.769231 17.854726 L 111.608392 17.854726 L 112.447552 15.765174 L 113.286713 17.158209 L 114.125874 17.158209 L 114.965035 18.551244 L 115.804196 19.944279 L 116.643357 19.944279 L 117.482517 19.944279 L 118.321678 19.944279 L 119.160839 19.944279 L 120.000000 19.944279"></path>
      <path stroke="none" fill-opacity="0.6" fill="url(#color_grad)" d="M 0 40 L 0.000000 15.765174 L 0.839161 8.800000 L 1.678322 8.858449 L 2.517483 9.496517 L 3.356643 9.496517 L 4.195804 9.496517 L 5.034965 9.496517 L 5.874126 9.496517 L 6.713287 9.496517 L 7.552448 9.566169 L 8.391608 15.765174 L 9.230769 16.050210 L 10.069930 17.585958 L 10.909091 18.210583 L 11.748252 21.337313 L 12.587413 22.939303 L 13.426573 27.188060 L 14.265734 27.615906 L 15.104895 29.834826 L 15.944056 30.392040 L 16.783217 30.392040 L 17.622378 30.405970 L 18.461538 24.123383 L 19.300699 29.695522 L 20.139860 29.695522 L 20.979021 29.695522 L 21.818182 29.695522 L 22.657343 29.695522 L 23.496503 29.695522 L 24.335664 29.695522 L 25.174825 29.695522 L 26.013986 29.695522 L 26.853147 31.227861 L 27.692308 36.800000 L 28.531469 36.800000 L 29.370629 28.065672 L 30.209790 28.065672 L 31.048951 28.065672 L 31.888112 28.065672 L 32.727273 29.277612 L 33.566434 29.277612 L 34.405594 29.277612 L 35.244755 29.277612 L 36.083916 29.277612 L 36.923077 29.277612 L 37.762238 29.277612 L 38.601399 29.277612 L 39.440559 29.277612 L 40.279720 29.277612 L 41.118881 29.277612 L 41.958042 29.277612 L 42.797203 29.277612 L 43.636364 31.088557 L 44.475524 31.088557 L 45.314685 31.088557 L 46.153846 31.088557 L 46.993007 31.088557 L 47.832168 31.088557 L 48.671329 31.088557 L 49.510490 31.088557 L 50.349650 31.088557 L 51.188811 35.267662 L 52.027972 35.795456 L 52.867133 36.145274 L 53.706294 36.145274 L 54.545455 36.145274 L 55.384615 36.145274 L 56.223776 36.145274 L 57.062937 36.145274 L 57.902098 36.145274 L 58.741259 36.145274 L 59.580420 36.145274 L 60.419580 36.145274 L 61.258741 36.660697 L 62.097902 36.660697 L 62.937063 36.585005 L 63.776224 36.145274 L 64.615385 23.426866 L 65.454545 23.426866 L 66.293706 29.974129 L 67.132867 29.974129 L 67.972028 29.974129 L 68.811189 29.974129 L 69.650350 29.974129 L 70.489510 29.974129 L 71.328671 29.974129 L 72.167832 29.974129 L 73.006993 29.974129 L 73.846154 29.974129 L 74.685315 29.974129 L 75.524476 29.974129 L 76.363636 23.426866 L 77.202797 29.834826 L 78.041958 29.834826 L 78.881119 29.834826 L 79.720280 29.834826 L 80.559441 29.834826 L 81.398601 29.834826 L 82.237762 29.834826 L 83.076923 29.834826 L 83.916084 29.834826 L 84.755245 35.267662 L 85.594406 29.834826 L 86.433566 29.834826 L 87.272727 29.834826 L 88.111888 29.834826 L 88.951049 22.730348 L 89.790210 22.730348 L 90.629371 22.730348 L 91.468531 22.730348 L 92.307692 22.730348 L 93.146853 22.730348 L 93.986014 22.730348 L 94.825175 22.730348 L 95.664336 22.730348 L 96.503497 22.730348 L 97.342657 22.730348 L 98.181818 22.730348 L 99.020979 36.660697 L 99.860140 29.695522 L 100.699301 29.695522 L 101.538462 33.874627 L 102.377622 31.970163 L 103.216783 17.854726 L 104.055944 17.854726 L 104.895105 17.854726 L 105.734266 17.854726 L 106.573427 17.854726 L 107.412587 17.854726 L 108.251748 17.854726 L 109.090909 17.854726 L 109.930070 17.854726 L 110.769231 17.854726 L 111.608392 17.854726 L 112.447552 15.765174 L 113.286713 17.158209 L 114.125874 17.158209 L 114.965035 18.551244 L 115.804196 19.944279 L 116.643357 19.944279 L 117.482517 19.944279 L 118.321678 19.944279 L 119.160839 19.944279 L 120.000000 19.944279 L 120 40 Z"></path>
    </g>
  </svg>