<svg xmlns="http://www.w3.org/2000/svg" viewBox="0 0 120 40" width="120" height="40">
    <defs>
      <linearGradient id="color_grad" x1="0%" x2="0%" y1="0%" y2="100%">
        <stop offset="0%" style="stop-color:#16C784;stop-opacity:0.4;"></stop>
        <stop offset="100%" style="stop-color:#16C784;stop-opacity:0.0;"></stop>
      </linearGradient>
    </defs>
    <g>
      <path stroke="#16C784" stroke-width="2" stroke-linecap="round" stroke-linejoin="round" fill="none" d="M 0.000000 22.303409 L 0.839161 16.219372 L 1.678322 17.592459 L 2.517483 18.597965 L 3.356643 18.393452 L 4.195804 19.854003 L 5.034965 19.175151 L 5.874126 19.298601 L 6.713287 18.914934 L 7.552448 18.767519 L 8.391608 23.803744 L 9.230769 23.068109 L 10.069930 24.085053 L 10.909091 24.665456 L 11.748252 27.697598 L 12.587413 30.106190 L 13.426573 33.367796 L 14.265734 33.377850 L 15.104895 35.425450 L 15.944056 35.574947 L 16.783217 34.956092 L 17.622378 34.396262 L 18.461538 28.364300 L 19.300699 33.258534 L 20.139860 33.174624 L 20.979021 32.586646 L 21.818182 28.296392 L 22.657343 29.607033 L 23.496503 29.101787 L 24.335664 29.255098 L 25.174825 28.902134 L 26.013986 29.147462 L 26.853147 30.803330 L 27.692308 36.074647 L 28.531469 36.800000 L 29.370629 28.797159 L 30.209790 28.174658 L 31.048951 28.020421 L 31.888112 28.056825 L 32.727273 29.025424 L 33.566434 28.769176 L 34.405594 29.076169 L 35.244755 28.843913 L 36.083916 29.440983 L 36.923077 29.420863 L 37.762238 28.532753 L 38.601399 28.255245 L 39.440559 28.379205 L 40.279720 28.098013 L 41.118881 27.232524 L 41.958042 28.657501 L 42.797203 29.653518 L 43.636364 31.444542 L 44.475524 30.726913 L 45.314685 29.828364 L 46.153846 29.813397 L 46.993007 29.313586 L 47.832168 28.958129 L 48.671329 29.485858 L 49.510490 29.045596 L 50.349650 29.027265 L 51.188811 33.042682 L 52.027972 32.972892 L 52.867133 33.331123 L 53.706294 33.300374 L 54.545455 33.222616 L 55.384615 32.737601 L 56.223776 32.451093 L 57.062937 31.218555 L 57.902098 31.271659 L 58.741259 31.800995 L 59.580420 32.255092 L 60.419580 32.362426 L 61.258741 33.212183 L 62.097902 33.236310 L 62.937063 34.322666 L 63.776224 35.391839 L 64.615385 23.598317 L 65.454545 23.684073 L 66.293706 31.374627 L 67.132867 31.148684 L 67.972028 32.644124 L 68.811189 32.245489 L 69.650350 33.129570 L 70.489510 33.010510 L 71.328671 32.824511 L 72.167832 33.021840 L 73.006993 32.635580 L 73.846154 32.058461 L 74.685315 30.799040 L 75.524476 30.726096 L 76.363636 24.489975 L 77.202797 30.626988 L 78.041958 31.385294 L 78.881119 31.211157 L 79.720280 30.787380 L 80.559441 32.408186 L 81.398601 31.773935 L 82.237762 31.302259 L 83.076923 29.643619 L 83.916084 27.596679 L 84.755245 33.738404 L 85.594406 27.891375 L 86.433566 27.543686 L 87.272727 26.935281 L 88.111888 27.169793 L 88.951049 20.522761 L 89.790210 19.440086 L 90.629371 19.924306 L 91.468531 19.045867 L 92.307692 19.679727 L 93.146853 20.823216 L 93.986014 17.895140 L 94.825175 18.575746 L 95.664336 20.690953 L 96.503497 20.206622 L 97.342657 20.383792 L 98.181818 21.402354 L 99.020979 35.322644 L 99.860140 28.180832 L 100.699301 26.210441 L 101.538462 32.902152 L 102.377622 29.845566 L 103.216783 15.967001 L 104.055944 16.484419 L 104.895105 13.877629 L 105.734266 14.328789 L 106.573427 14.045737 L 107.412587 13.567073 L 108.251748 13.094101 L 109.090909 12.973453 L 109.930070 12.142934 L 110.769231 11.202201 L 111.608392 11.770640 L 112.447552 9.623636 L 113.286713 10.240813 L 114.125874 10.233105 L 114.965035 12.105287 L 115.804196 11.359200 L 116.643357 8.800000 L 117.482517 10.279998 L 118.321678 11.489497 L 119.160839 11.714946 L 120.000000 12.019493"></path>
      <path stroke="none" fill-opacity="0.6" fill="url(#color_grad)" d="M 0 40 L 0.000000 22.303409 L 0.839161 16.219372 L 1.678322 17.592459 L 2.517483 18.597965 L 3.356643 18.393452 L 4.195804 19.854003 L 5.034965 19.175151 L 5.874126 19.298601 L 6.713287 18.914934 L 7.552448 18.767519 L 8.391608 23.803744 L 9.230769 23.068109 L 10.069930 24.085053 L 10.909091 24.665456 L 11.748252 27.697598 L 12.587413 30.106190 L 13.426573 33.367796 L 14.265734 33.377850 L 15.104895 35.425450 L 15.944056 35.574947 L 16.783217 34.956092 L 17.622378 34.396262 L 18.461538 28.364300 L 19.300699 33.258534 L 20.139860 33.174624 L 20.979021 32.586646 L 21.818182 28.296392 L 22.657343 29.607033 L 23.496503 29.101787 L 24.335664 29.255098 L 25.174825 28.902134 L 26.013986 29.147462 L 26.853147 30.803330 L 27.692308 36.074647 L 28.531469 36.800000 L 29.370629 28.797159 L 30.209790 28.174658 L 31.048951 28.020421 L 31.888112 28.056825 L 32.727273 29.025424 L 33.566434 28.769176 L 34.405594 29.076169 L 35.244755 28.843913 L 36.083916 29.440983 L 36.923077 29.420863 L 37.762238 28.532753 L 38.601399 28.255245 L 39.440559 28.379205 L 40.279720 28.098013 L 41.118881 27.232524 L 41.958042 28.657501 L 42.797203 29.653518 L 43.636364 31.444542 L 44.475524 30.726913 L 45.314685 29.828364 L 46.153846 29.813397 L 46.993007 29.313586 L 47.832168 28.958129 L 48.671329 29.485858 L 49.510490 29.045596 L 50.349650 29.027265 L 51.188811 33.042682 L 52.027972 32.972892 L 52.867133 33.331123 L 53.706294 33.300374 L 54.545455 33.222616 L 55.384615 32.737601 L 56.223776 32.451093 L 57.062937 31.218555 L 57.902098 31.271659 L 58.741259 31.800995 L 59.580420 32.255092 L 60.419580 32.362426 L 61.258741 33.212183 L 62.097902 33.236310 L 62.937063 34.322666 L 63.776224 35.391839 L 64.615385 23.598317 L 65.454545 23.684073 L 66.293706 31.374627 L 67.132867 31.148684 L 67.972028 32.644124 L 68.811189 32.245489 L 69.650350 33.129570 L 70.489510 33.010510 L 71.328671 32.824511 L 72.167832 33.021840 L 73.006993 32.635580 L 73.846154 32.058461 L 74.685315 30.799040 L 75.524476 30.726096 L 76.363636 24.489975 L 77.202797 30.626988 L 78.041958 31.385294 L 78.881119 31.211157 L 79.720280 30.787380 L 80.559441 32.408186 L 81.398601 31.773935 L 82.237762 31.302259 L 83.076923 29.643619 L 83.916084 27.596679 L 84.755245 33.738404 L 85.594406 27.891375 L 86.433566 27.543686 L 87.272727 26.935281 L 88.111888 27.169793 L 88.951049 20.522761 L 89.790210 19.440086 L 90.629371 19.924306 L 91.468531 19.045867 L 92.307692 19.679727 L 93.146853 20.823216 L 93.986014 17.895140 L 94.825175 18.575746 L 95.664336 20.690953 L 96.503497 20.206622 L 97.342657 20.383792 L 98.181818 21.402354 L 99.020979 35.322644 L 99.860140 28.180832 L 100.699301 26.210441 L 101.538462 32.902152 L 102.377622 29.845566 L 103.216783 15.967001 L 104.055944 16.484419 L 104.895105 13.877629 L 105.734266 14.328789 L 106.573427 14.045737 L 107.412587 13.567073 L 108.251748 13.094101 L 109.090909 12.973453 L 109.930070 12.142934 L 110.769231 11.202201 L 111.608392 11.770640 L 112.447552 9.623636 L 113.286713 10.240813 L 114.125874 10.233105 L 114.965035 12.105287 L 115.804196 11.359200 L 116.643357 8.800000 L 117.482517 10.279998 L 118.321678 11.489497 L 119.160839 11.714946 L 120.000000 12.019493 L 120 40 Z"></path>
    </g>
  </svg>