<svg xmlns="http://www.w3.org/2000/svg" viewBox="0 0 120 40" width="120" height="40">
    <defs>
      <linearGradient id="color_grad" x1="0%" x2="0%" y1="0%" y2="100%">
        <stop offset="0%" style="stop-color:#16C784;stop-opacity:0.4;"></stop>
        <stop offset="100%" style="stop-color:#16C784;stop-opacity:0.0;"></stop>
      </linearGradient>
    </defs>
    <g>
      <path stroke="#16C784" stroke-width="2" stroke-linecap="round" stroke-linejoin="round" fill="none" d="M 0.000000 19.011836 L 0.839161 16.989002 L 1.678322 18.033181 L 2.517483 18.392814 L 3.356643 18.231370 L 4.195804 19.389551 L 5.034965 18.627622 L 5.874126 18.232432 L 6.713287 16.738819 L 7.552448 14.998563 L 8.391608 13.589389 L 9.230769 12.677725 L 10.069930 11.875687 L 10.909091 11.446180 L 11.748252 12.951502 L 12.587413 12.777161 L 13.426573 13.900013 L 14.265734 11.774683 L 15.104895 13.013460 L 15.944056 13.708348 L 16.783217 13.221689 L 17.622378 12.665990 L 18.461538 15.586075 L 19.300699 15.525407 L 20.139860 15.447871 L 20.979021 14.900973 L 21.818182 10.904062 L 22.657343 10.212234 L 23.496503 9.543696 L 24.335664 8.800000 L 25.174825 11.467878 L 26.013986 12.059664 L 26.853147 10.504042 L 27.692308 9.061411 L 28.531469 11.755034 L 29.370629 14.352558 L 30.209790 10.157104 L 31.048951 16.830264 L 31.888112 16.862178 L 32.727273 16.730600 L 33.566434 16.504922 L 34.405594 17.638244 L 35.244755 17.769645 L 36.083916 26.639273 L 36.923077 18.275499 L 37.762238 17.499206 L 38.601399 17.254561 L 39.440559 17.363379 L 40.279720 17.119215 L 41.118881 16.361382 L 41.958042 17.605925 L 42.797203 18.477203 L 43.636364 18.591686 L 44.475524 17.954785 L 45.314685 17.480290 L 46.153846 20.766861 L 46.993007 17.914930 L 47.832168 18.818452 L 48.671329 25.329940 L 49.510490 24.971495 L 50.349650 25.542594 L 51.188811 25.041115 L 52.027972 24.567075 L 52.867133 24.590796 L 53.706294 24.564369 L 54.545455 24.500084 L 55.384615 24.580680 L 56.223776 24.338058 L 57.062937 22.803680 L 57.902098 25.336540 L 58.741259 25.771560 L 59.580420 26.145128 L 60.419580 26.235004 L 61.258741 26.534602 L 62.097902 26.551419 L 62.937063 27.509388 L 63.776224 25.056440 L 64.615385 29.878301 L 65.454545 26.351308 L 66.293706 31.211228 L 67.132867 31.039340 L 67.972028 32.188746 L 68.811189 31.882244 L 69.650350 32.561706 L 70.489510 32.469124 L 71.328671 32.327152 L 72.167832 32.477621 L 73.006993 33.347306 L 73.846154 32.909049 L 74.685315 31.954924 L 75.524476 28.342632 L 76.363636 28.153218 L 77.202797 33.104887 L 78.041958 33.671662 L 78.881119 33.541171 L 79.720280 30.873900 L 80.559441 32.169577 L 81.398601 31.623058 L 82.237762 31.843906 L 83.076923 30.817986 L 83.916084 29.260012 L 84.755245 34.312204 L 85.594406 29.242411 L 86.433566 29.585936 L 87.272727 29.126664 L 88.111888 34.195445 L 88.951049 29.339723 L 89.790210 29.798110 L 90.629371 30.139737 L 91.468531 29.523042 L 92.307692 29.969543 L 93.146853 30.773022 L 93.986014 28.711597 L 94.825175 29.190670 L 95.664336 31.289851 L 96.503497 30.951739 L 97.342657 34.542434 L 98.181818 33.717409 L 99.020979 34.294072 L 99.860140 33.799472 L 100.699301 32.372596 L 101.538462 34.414548 L 102.377622 33.463256 L 103.216783 36.800000 L 104.055944 32.156098 L 104.895105 30.415867 L 105.734266 30.717235 L 106.573427 30.526379 L 107.412587 32.699379 L 108.251748 32.393333 L 109.090909 32.065083 L 109.930070 29.761845 L 110.769231 29.204832 L 111.608392 30.273389 L 112.447552 30.200153 L 113.286713 29.079601 L 114.125874 29.073886 L 114.965035 30.045460 L 115.804196 28.638007 L 116.643357 26.926352 L 117.482517 27.917349 L 118.321678 28.724419 L 119.160839 30.160247 L 120.000000 31.643618"></path>
      <path stroke="none" fill-opacity="0.6" fill="url(#color_grad)" d="M 0 40 L 0.000000 19.011836 L 0.839161 16.989002 L 1.678322 18.033181 L 2.517483 18.392814 L 3.356643 18.231370 L 4.195804 19.389551 L 5.034965 18.627622 L 5.874126 18.232432 L 6.713287 16.738819 L 7.552448 14.998563 L 8.391608 13.589389 L 9.230769 12.677725 L 10.069930 11.875687 L 10.909091 11.446180 L 11.748252 12.951502 L 12.587413 12.777161 L 13.426573 13.900013 L 14.265734 11.774683 L 15.104895 13.013460 L 15.944056 13.708348 L 16.783217 13.221689 L 17.622378 12.665990 L 18.461538 15.586075 L 19.300699 15.525407 L 20.139860 15.447871 L 20.979021 14.900973 L 21.818182 10.904062 L 22.657343 10.212234 L 23.496503 9.543696 L 24.335664 8.800000 L 25.174825 11.467878 L 26.013986 12.059664 L 26.853147 10.504042 L 27.692308 9.061411 L 28.531469 11.755034 L 29.370629 14.352558 L 30.209790 10.157104 L 31.048951 16.830264 L 31.888112 16.862178 L 32.727273 16.730600 L 33.566434 16.504922 L 34.405594 17.638244 L 35.244755 17.769645 L 36.083916 26.639273 L 36.923077 18.275499 L 37.762238 17.499206 L 38.601399 17.254561 L 39.440559 17.363379 L 40.279720 17.119215 L 41.118881 16.361382 L 41.958042 17.605925 L 42.797203 18.477203 L 43.636364 18.591686 L 44.475524 17.954785 L 45.314685 17.480290 L 46.153846 20.766861 L 46.993007 17.914930 L 47.832168 18.818452 L 48.671329 25.329940 L 49.510490 24.971495 L 50.349650 25.542594 L 51.188811 25.041115 L 52.027972 24.567075 L 52.867133 24.590796 L 53.706294 24.564369 L 54.545455 24.500084 L 55.384615 24.580680 L 56.223776 24.338058 L 57.062937 22.803680 L 57.902098 25.336540 L 58.741259 25.771560 L 59.580420 26.145128 L 60.419580 26.235004 L 61.258741 26.534602 L 62.097902 26.551419 L 62.937063 27.509388 L 63.776224 25.056440 L 64.615385 29.878301 L 65.454545 26.351308 L 66.293706 31.211228 L 67.132867 31.039340 L 67.972028 32.188746 L 68.811189 31.882244 L 69.650350 32.561706 L 70.489510 32.469124 L 71.328671 32.327152 L 72.167832 32.477621 L 73.006993 33.347306 L 73.846154 32.909049 L 74.685315 31.954924 L 75.524476 28.342632 L 76.363636 28.153218 L 77.202797 33.104887 L 78.041958 33.671662 L 78.881119 33.541171 L 79.720280 30.873900 L 80.559441 32.169577 L 81.398601 31.623058 L 82.237762 31.843906 L 83.076923 30.817986 L 83.916084 29.260012 L 84.755245 34.312204 L 85.594406 29.242411 L 86.433566 29.585936 L 87.272727 29.126664 L 88.111888 34.195445 L 88.951049 29.339723 L 89.790210 29.798110 L 90.629371 30.139737 L 91.468531 29.523042 L 92.307692 29.969543 L 93.146853 30.773022 L 93.986014 28.711597 L 94.825175 29.190670 L 95.664336 31.289851 L 96.503497 30.951739 L 97.342657 34.542434 L 98.181818 33.717409 L 99.020979 34.294072 L 99.860140 33.799472 L 100.699301 32.372596 L 101.538462 34.414548 L 102.377622 33.463256 L 103.216783 36.800000 L 104.055944 32.156098 L 104.895105 30.415867 L 105.734266 30.717235 L 106.573427 30.526379 L 107.412587 32.699379 L 108.251748 32.393333 L 109.090909 32.065083 L 109.930070 29.761845 L 110.769231 29.204832 L 111.608392 30.273389 L 112.447552 30.200153 L 113.286713 29.079601 L 114.125874 29.073886 L 114.965035 30.045460 L 115.804196 28.638007 L 116.643357 26.926352 L 117.482517 27.917349 L 118.321678 28.724419 L 119.160839 30.160247 L 120.000000 31.643618 L 120 40 Z"></path>
    </g>
  </svg>