<svg xmlns="http://www.w3.org/2000/svg" viewBox="0 0 120 40" width="120" height="40">
    <defs>
      <linearGradient id="color_grad" x1="0%" x2="0%" y1="0%" y2="100%">
        <stop offset="0%" style="stop-color:#EA3943;stop-opacity:0.4;"></stop>
        <stop offset="100%" style="stop-color:#EA3943;stop-opacity:0.0;"></stop>
      </linearGradient>
    </defs>
    <g>
      <path stroke="#EA3943" stroke-width="2" stroke-linecap="round" stroke-linejoin="round" fill="none" d="M 0.000000 15.959821 L 0.839161 14.092041 L 1.678322 14.092041 L 2.517483 14.092041 L 3.356643 14.092041 L 4.195804 14.092041 L 5.034965 13.884510 L 5.874126 13.427362 L 6.713287 12.328028 L 7.552448 10.875310 L 8.391608 9.837655 L 9.230769 9.789763 L 10.069930 9.321730 L 10.909091 8.903766 L 11.748252 10.038656 L 12.587413 9.022769 L 13.426573 10.430497 L 14.265734 8.800000 L 15.104895 9.837655 L 15.944056 10.771545 L 16.783217 10.875310 L 17.622378 10.875310 L 18.461538 13.884510 L 19.300699 13.884510 L 20.139860 13.884510 L 20.979021 13.884510 L 21.818182 13.884510 L 22.657343 12.224262 L 23.496503 12.060995 L 24.335664 11.290372 L 25.174825 13.884510 L 26.013986 14.196533 L 26.853147 12.654562 L 27.692308 11.290372 L 28.531469 12.999238 L 29.370629 15.267567 L 30.209790 12.120497 L 31.048951 18.035131 L 31.888112 18.035131 L 32.727273 18.035131 L 33.566434 18.035131 L 34.405594 18.782533 L 35.244755 19.072786 L 36.083916 26.336372 L 36.923077 19.072786 L 37.762238 19.072786 L 38.601399 19.072786 L 39.440559 19.072786 L 40.279720 19.072786 L 41.118881 19.072786 L 41.958042 19.072786 L 42.797203 19.072786 L 43.636364 19.072786 L 44.475524 19.072786 L 45.314685 19.348527 L 46.153846 22.185752 L 46.993007 20.110441 L 47.832168 21.148097 L 48.671329 26.336372 L 49.510490 26.336372 L 50.349650 26.837059 L 51.188811 26.336372 L 52.027972 26.336372 L 52.867133 26.336372 L 53.706294 26.336372 L 54.545455 26.336372 L 55.384615 26.751434 L 56.223776 26.751434 L 57.062937 26.336372 L 57.902098 28.411683 L 58.741259 28.411683 L 59.580420 28.411683 L 60.419580 28.411683 L 61.258741 28.411683 L 62.097902 28.411683 L 62.937063 28.411683 L 63.776224 25.228331 L 64.615385 29.449338 L 65.454545 26.336372 L 66.293706 29.449338 L 67.132867 29.449338 L 67.972028 29.449338 L 68.811189 29.449338 L 69.650350 29.449338 L 70.489510 29.449338 L 71.328671 29.449338 L 72.167832 29.449338 L 73.006993 30.486993 L 73.846154 30.486993 L 74.685315 30.486993 L 75.524476 27.374028 L 76.363636 27.374028 L 77.202797 31.524648 L 78.041958 31.524648 L 78.881119 31.524648 L 79.720280 29.463851 L 80.559441 29.507388 L 81.398601 29.456594 L 82.237762 29.968165 L 83.076923 30.175696 L 83.916084 30.175696 L 84.755245 33.807490 L 85.594406 29.968165 L 86.433566 30.486993 L 87.272727 30.486993 L 88.111888 34.637614 L 88.951049 30.486993 L 89.790210 31.524648 L 90.629371 31.524648 L 91.468531 31.524648 L 92.307692 31.524648 L 93.146853 31.524648 L 93.986014 31.524648 L 94.825175 31.524648 L 95.664336 32.043476 L 96.503497 32.043476 L 97.342657 34.982289 L 98.181818 33.694291 L 99.020979 33.599959 L 99.860140 33.599959 L 100.699301 33.599959 L 101.538462 33.599959 L 102.377622 33.599959 L 103.216783 36.800000 L 104.055944 32.562303 L 104.895105 32.562303 L 105.734266 32.562303 L 106.573427 32.562303 L 107.412587 34.637614 L 108.251748 34.637614 L 109.090909 34.430083 L 109.930070 32.977365 L 110.769231 33.033239 L 111.608392 33.599959 L 112.447552 33.599959 L 113.286713 33.081131 L 114.125874 33.081131 L 114.965035 33.599959 L 115.804196 33.599959 L 116.643357 33.599959 L 117.482517 33.599959 L 118.321678 33.599959 L 119.160839 34.637614 L 120.000000 35.675269"></path>
      <path stroke="none" fill-opacity="0.6" fill="url(#color_grad)" d="M 0 40 L 0.000000 15.959821 L 0.839161 14.092041 L 1.678322 14.092041 L 2.517483 14.092041 L 3.356643 14.092041 L 4.195804 14.092041 L 5.034965 13.884510 L 5.874126 13.427362 L 6.713287 12.328028 L 7.552448 10.875310 L 8.391608 9.837655 L 9.230769 9.789763 L 10.069930 9.321730 L 10.909091 8.903766 L 11.748252 10.038656 L 12.587413 9.022769 L 13.426573 10.430497 L 14.265734 8.800000 L 15.104895 9.837655 L 15.944056 10.771545 L 16.783217 10.875310 L 17.622378 10.875310 L 18.461538 13.884510 L 19.300699 13.884510 L 20.139860 13.884510 L 20.979021 13.884510 L 21.818182 13.884510 L 22.657343 12.224262 L 23.496503 12.060995 L 24.335664 11.290372 L 25.174825 13.884510 L 26.013986 14.196533 L 26.853147 12.654562 L 27.692308 11.290372 L 28.531469 12.999238 L 29.370629 15.267567 L 30.209790 12.120497 L 31.048951 18.035131 L 31.888112 18.035131 L 32.727273 18.035131 L 33.566434 18.035131 L 34.405594 18.782533 L 35.244755 19.072786 L 36.083916 26.336372 L 36.923077 19.072786 L 37.762238 19.072786 L 38.601399 19.072786 L 39.440559 19.072786 L 40.279720 19.072786 L 41.118881 19.072786 L 41.958042 19.072786 L 42.797203 19.072786 L 43.636364 19.072786 L 44.475524 19.072786 L 45.314685 19.348527 L 46.153846 22.185752 L 46.993007 20.110441 L 47.832168 21.148097 L 48.671329 26.336372 L 49.510490 26.336372 L 50.349650 26.837059 L 51.188811 26.336372 L 52.027972 26.336372 L 52.867133 26.336372 L 53.706294 26.336372 L 54.545455 26.336372 L 55.384615 26.751434 L 56.223776 26.751434 L 57.062937 26.336372 L 57.902098 28.411683 L 58.741259 28.411683 L 59.580420 28.411683 L 60.419580 28.411683 L 61.258741 28.411683 L 62.097902 28.411683 L 62.937063 28.411683 L 63.776224 25.228331 L 64.615385 29.449338 L 65.454545 26.336372 L 66.293706 29.449338 L 67.132867 29.449338 L 67.972028 29.449338 L 68.811189 29.449338 L 69.650350 29.449338 L 70.489510 29.449338 L 71.328671 29.449338 L 72.167832 29.449338 L 73.006993 30.486993 L 73.846154 30.486993 L 74.685315 30.486993 L 75.524476 27.374028 L 76.363636 27.374028 L 77.202797 31.524648 L 78.041958 31.524648 L 78.881119 31.524648 L 79.720280 29.463851 L 80.559441 29.507388 L 81.398601 29.456594 L 82.237762 29.968165 L 83.076923 30.175696 L 83.916084 30.175696 L 84.755245 33.807490 L 85.594406 29.968165 L 86.433566 30.486993 L 87.272727 30.486993 L 88.111888 34.637614 L 88.951049 30.486993 L 89.790210 31.524648 L 90.629371 31.524648 L 91.468531 31.524648 L 92.307692 31.524648 L 93.146853 31.524648 L 93.986014 31.524648 L 94.825175 31.524648 L 95.664336 32.043476 L 96.503497 32.043476 L 97.342657 34.982289 L 98.181818 33.694291 L 99.020979 33.599959 L 99.860140 33.599959 L 100.699301 33.599959 L 101.538462 33.599959 L 102.377622 33.599959 L 103.216783 36.800000 L 104.055944 32.562303 L 104.895105 32.562303 L 105.734266 32.562303 L 106.573427 32.562303 L 107.412587 34.637614 L 108.251748 34.637614 L 109.090909 34.430083 L 109.930070 32.977365 L 110.769231 33.033239 L 111.608392 33.599959 L 112.447552 33.599959 L 113.286713 33.081131 L 114.125874 33.081131 L 114.965035 33.599959 L 115.804196 33.599959 L 116.643357 33.599959 L 117.482517 33.599959 L 118.321678 33.599959 L 119.160839 34.637614 L 120.000000 35.675269 L 120 40 Z"></path>
    </g>
  </svg>