<svg xmlns="http://www.w3.org/2000/svg" viewBox="0 0 120 40" width="120" height="40">
    <defs>
      <linearGradient id="color_grad" x1="0%" x2="0%" y1="0%" y2="100%">
        <stop offset="0%" style="stop-color:#EA3943;stop-opacity:0.4;"></stop>
        <stop offset="100%" style="stop-color:#EA3943;stop-opacity:0.0;"></stop>
      </linearGradient>
    </defs>
    <g>
      <path stroke="#EA3943" stroke-width="2" stroke-linecap="round" stroke-linejoin="round" fill="none" d="M 0.000000 20.237486 L 0.839161 20.237486 L 1.678322 20.237486 L 2.517483 20.237486 L 3.356643 20.237486 L 4.195804 21.997100 L 5.034965 21.997100 L 5.874126 20.237486 L 6.713287 20.237486 L 7.552448 20.237486 L 8.391608 16.644430 L 9.230769 16.542298 L 10.069930 18.376972 L 10.909091 20.237486 L 11.748252 20.237486 L 12.587413 16.542298 L 13.426573 16.542298 L 14.265734 13.334388 L 15.104895 8.800000 L 15.944056 11.615381 L 16.783217 20.237486 L 17.622378 9.855768 L 18.461538 9.855768 L 19.300699 9.855768 L 20.139860 9.855768 L 20.979021 11.439420 L 21.818182 11.439420 L 22.657343 9.679807 L 23.496503 11.439420 L 24.335664 11.439420 L 25.174825 13.199033 L 26.013986 13.199033 L 26.853147 11.439420 L 27.692308 11.439420 L 28.531469 13.949637 L 29.370629 14.958646 L 30.209790 14.958646 L 31.048951 14.958646 L 31.888112 18.843331 L 32.727273 20.413448 L 33.566434 20.413448 L 34.405594 20.413448 L 35.244755 20.413448 L 36.083916 20.413448 L 36.923077 20.413448 L 37.762238 20.237486 L 38.601399 20.237486 L 39.440559 20.237486 L 40.279720 20.237486 L 41.118881 20.237486 L 41.958042 20.237486 L 42.797203 16.718260 L 43.636364 21.997100 L 44.475524 16.894221 L 45.314685 16.894221 L 46.153846 18.477873 L 46.993007 20.545111 L 47.832168 21.117293 L 48.671329 21.117293 L 49.510490 22.173061 L 50.349650 22.173061 L 51.188811 22.876906 L 52.027972 26.931400 L 52.867133 29.035553 L 53.706294 29.035553 L 54.545455 29.035553 L 55.384615 29.035553 L 56.223776 29.035553 L 57.062937 29.035553 L 57.902098 23.932674 L 58.741259 22.876906 L 59.580420 21.117293 L 60.419580 21.117293 L 61.258741 21.117293 L 62.097902 21.117293 L 62.937063 18.125950 L 63.776224 18.125950 L 64.615385 18.125950 L 65.454545 18.125950 L 66.293706 18.236695 L 67.132867 20.237486 L 67.972028 20.237486 L 68.811189 22.563129 L 69.650350 25.516326 L 70.489510 29.035553 L 71.328671 29.035553 L 72.167832 29.035553 L 73.006993 29.035553 L 73.846154 29.035553 L 74.685315 20.589409 L 75.524476 20.589409 L 76.363636 20.589409 L 77.202797 20.589409 L 78.041958 20.589409 L 78.881119 20.237486 L 79.720280 20.237486 L 80.559441 20.237486 L 81.398601 30.795166 L 82.237762 20.237486 L 83.076923 20.508196 L 83.916084 21.997100 L 84.755245 21.997100 L 85.594406 20.237486 L 86.433566 20.237486 L 87.272727 20.237486 L 88.111888 21.769457 L 88.951049 23.756713 L 89.790210 23.756713 L 90.629371 23.756713 L 91.468531 23.756713 L 92.307692 23.756713 L 93.146853 23.756713 L 93.986014 23.756713 L 94.825175 23.756713 L 95.664336 25.516326 L 96.503497 25.516326 L 97.342657 23.756713 L 98.181818 23.756713 L 99.020979 23.756713 L 99.860140 23.756713 L 100.699301 24.636519 L 101.538462 26.396133 L 102.377622 26.396133 L 103.216783 24.636519 L 104.055944 21.997100 L 104.895105 21.997100 L 105.734266 21.997100 L 106.573427 21.997100 L 107.412587 21.997100 L 108.251748 21.997100 L 109.090909 21.997100 L 109.930070 21.997100 L 110.769231 29.915359 L 111.608392 21.997100 L 112.447552 20.941332 L 113.286713 20.941332 L 114.125874 20.941332 L 114.965035 21.997100 L 115.804196 21.997100 L 116.643357 21.997100 L 117.482517 21.997100 L 118.321678 36.800000 L 119.160839 30.443243 L 120.000000 32.730740"></path>
      <path stroke="none" fill-opacity="0.6" fill="url(#color_grad)" d="M 0 40 L 0.000000 20.237486 L 0.839161 20.237486 L 1.678322 20.237486 L 2.517483 20.237486 L 3.356643 20.237486 L 4.195804 21.997100 L 5.034965 21.997100 L 5.874126 20.237486 L 6.713287 20.237486 L 7.552448 20.237486 L 8.391608 16.644430 L 9.230769 16.542298 L 10.069930 18.376972 L 10.909091 20.237486 L 11.748252 20.237486 L 12.587413 16.542298 L 13.426573 16.542298 L 14.265734 13.334388 L 15.104895 8.800000 L 15.944056 11.615381 L 16.783217 20.237486 L 17.622378 9.855768 L 18.461538 9.855768 L 19.300699 9.855768 L 20.139860 9.855768 L 20.979021 11.439420 L 21.818182 11.439420 L 22.657343 9.679807 L 23.496503 11.439420 L 24.335664 11.439420 L 25.174825 13.199033 L 26.013986 13.199033 L 26.853147 11.439420 L 27.692308 11.439420 L 28.531469 13.949637 L 29.370629 14.958646 L 30.209790 14.958646 L 31.048951 14.958646 L 31.888112 18.843331 L 32.727273 20.413448 L 33.566434 20.413448 L 34.405594 20.413448 L 35.244755 20.413448 L 36.083916 20.413448 L 36.923077 20.413448 L 37.762238 20.237486 L 38.601399 20.237486 L 39.440559 20.237486 L 40.279720 20.237486 L 41.118881 20.237486 L 41.958042 20.237486 L 42.797203 16.718260 L 43.636364 21.997100 L 44.475524 16.894221 L 45.314685 16.894221 L 46.153846 18.477873 L 46.993007 20.545111 L 47.832168 21.117293 L 48.671329 21.117293 L 49.510490 22.173061 L 50.349650 22.173061 L 51.188811 22.876906 L 52.027972 26.931400 L 52.867133 29.035553 L 53.706294 29.035553 L 54.545455 29.035553 L 55.384615 29.035553 L 56.223776 29.035553 L 57.062937 29.035553 L 57.902098 23.932674 L 58.741259 22.876906 L 59.580420 21.117293 L 60.419580 21.117293 L 61.258741 21.117293 L 62.097902 21.117293 L 62.937063 18.125950 L 63.776224 18.125950 L 64.615385 18.125950 L 65.454545 18.125950 L 66.293706 18.236695 L 67.132867 20.237486 L 67.972028 20.237486 L 68.811189 22.563129 L 69.650350 25.516326 L 70.489510 29.035553 L 71.328671 29.035553 L 72.167832 29.035553 L 73.006993 29.035553 L 73.846154 29.035553 L 74.685315 20.589409 L 75.524476 20.589409 L 76.363636 20.589409 L 77.202797 20.589409 L 78.041958 20.589409 L 78.881119 20.237486 L 79.720280 20.237486 L 80.559441 20.237486 L 81.398601 30.795166 L 82.237762 20.237486 L 83.076923 20.508196 L 83.916084 21.997100 L 84.755245 21.997100 L 85.594406 20.237486 L 86.433566 20.237486 L 87.272727 20.237486 L 88.111888 21.769457 L 88.951049 23.756713 L 89.790210 23.756713 L 90.629371 23.756713 L 91.468531 23.756713 L 92.307692 23.756713 L 93.146853 23.756713 L 93.986014 23.756713 L 94.825175 23.756713 L 95.664336 25.516326 L 96.503497 25.516326 L 97.342657 23.756713 L 98.181818 23.756713 L 99.020979 23.756713 L 99.860140 23.756713 L 100.699301 24.636519 L 101.538462 26.396133 L 102.377622 26.396133 L 103.216783 24.636519 L 104.055944 21.997100 L 104.895105 21.997100 L 105.734266 21.997100 L 106.573427 21.997100 L 107.412587 21.997100 L 108.251748 21.997100 L 109.090909 21.997100 L 109.930070 21.997100 L 110.769231 29.915359 L 111.608392 21.997100 L 112.447552 20.941332 L 113.286713 20.941332 L 114.125874 20.941332 L 114.965035 21.997100 L 115.804196 21.997100 L 116.643357 21.997100 L 117.482517 21.997100 L 118.321678 36.800000 L 119.160839 30.443243 L 120.000000 32.730740 L 120 40 Z"></path>
    </g>
  </svg>