<svg xmlns="http://www.w3.org/2000/svg" viewBox="0 0 120 40" width="120" height="40">
    <defs>
      <linearGradient id="color_grad" x1="0%" x2="0%" y1="0%" y2="100%">
        <stop offset="0%" style="stop-color:#16C784;stop-opacity:0.4;"></stop>
        <stop offset="100%" style="stop-color:#16C784;stop-opacity:0.0;"></stop>
      </linearGradient>
    </defs>
    <g>
      <path stroke="#16C784" stroke-width="2" stroke-linecap="round" stroke-linejoin="round" fill="none" d="M 0.000000 29.444546 L 0.839161 29.489040 L 1.678322 31.103580 L 2.517483 31.655445 L 3.356643 31.406544 L 4.195804 35.018546 L 5.034965 34.200256 L 5.874126 32.518478 L 6.713287 32.045947 L 7.552448 31.791247 L 8.391608 27.601571 L 9.230769 26.195332 L 10.069930 27.708497 L 10.909091 29.719754 L 11.748252 30.107066 L 12.587413 27.601861 L 13.426573 26.991913 L 14.265734 23.089003 L 15.104895 18.461348 L 15.944056 20.914022 L 16.783217 29.143819 L 17.622378 17.206363 L 18.461538 16.516501 L 19.300699 16.422376 L 20.139860 16.289681 L 20.979021 17.099893 L 21.818182 10.552165 L 22.657343 10.596949 L 23.496503 11.783950 L 24.335664 12.014415 L 25.174825 13.447044 L 26.013986 13.816542 L 26.853147 12.222094 L 27.692308 12.430602 L 28.531469 16.384511 L 29.370629 17.482938 L 30.209790 16.567913 L 31.048951 16.341260 L 31.888112 20.718771 L 32.727273 22.255758 L 33.566434 21.889822 L 34.405594 22.328091 L 35.244755 21.994843 L 36.083916 22.850750 L 36.923077 22.823531 L 37.762238 21.356310 L 38.601399 20.955533 L 39.440559 21.133799 L 40.279720 20.733810 L 41.118881 19.492330 L 41.958042 21.531137 L 42.797203 19.060317 L 43.636364 25.094004 L 44.475524 18.377622 L 45.314685 17.043178 L 46.153846 18.800977 L 46.993007 20.398655 L 47.832168 20.531681 L 48.671329 21.291889 L 49.510490 21.851584 L 50.349650 21.824739 L 51.188811 22.767272 L 52.027972 26.542707 L 52.867133 28.974874 L 53.706294 28.929718 L 54.545455 28.820347 L 55.384615 28.128910 L 56.223776 27.720718 L 57.062937 25.966896 L 57.902098 20.127218 L 58.741259 19.693133 L 59.580420 18.352599 L 60.419580 18.511683 L 61.258741 19.059281 L 62.097902 19.096691 L 62.937063 17.470551 L 63.776224 19.750594 L 64.615385 19.663180 L 65.454545 19.783736 L 66.293706 22.322084 L 67.132867 24.194225 L 67.972028 26.344597 L 68.811189 28.301210 L 69.650350 32.738296 L 70.489510 36.376645 L 71.328671 36.125590 L 72.167832 36.392471 L 73.006993 35.868860 L 73.846154 35.093531 L 74.685315 24.074083 L 75.524476 23.969063 L 76.363636 23.624794 L 77.202797 24.009869 L 78.041958 25.100923 L 78.881119 24.465870 L 79.720280 23.855011 L 80.559441 26.185927 L 81.398601 36.800000 L 82.237762 24.595581 L 83.076923 22.509547 L 83.916084 21.261646 L 84.755245 22.809528 L 85.594406 19.689239 L 86.433566 19.189697 L 87.272727 18.315065 L 88.111888 20.406734 L 88.951049 22.727211 L 89.790210 21.292718 L 90.629371 21.935310 L 91.468531 20.771592 L 92.307692 21.609519 L 93.146853 23.122891 L 93.986014 19.253248 L 94.825175 20.150086 L 95.664336 24.946810 L 96.503497 24.318012 L 97.342657 22.541944 L 98.181818 23.889230 L 99.020979 25.216590 L 99.860140 24.261836 L 100.699301 22.510293 L 101.538462 28.406438 L 102.377622 26.597020 L 103.216783 23.776297 L 104.055944 21.439125 L 104.895105 18.079131 L 105.734266 18.661571 L 106.573427 18.295552 L 107.412587 17.679101 L 108.251748 17.067579 L 109.090909 16.914253 L 109.930070 15.839978 L 110.769231 23.989238 L 111.608392 15.363222 L 112.447552 13.976910 L 113.286713 13.018924 L 114.125874 13.010680 L 114.965035 14.918822 L 115.804196 12.157176 L 116.643357 8.800000 L 117.482517 10.742859 L 118.321678 30.067419 L 119.160839 22.728536 L 120.000000 25.830763"></path>
      <path stroke="none" fill-opacity="0.6" fill="url(#color_grad)" d="M 0 40 L 0.000000 29.444546 L 0.839161 29.489040 L 1.678322 31.103580 L 2.517483 31.655445 L 3.356643 31.406544 L 4.195804 35.018546 L 5.034965 34.200256 L 5.874126 32.518478 L 6.713287 32.045947 L 7.552448 31.791247 L 8.391608 27.601571 L 9.230769 26.195332 L 10.069930 27.708497 L 10.909091 29.719754 L 11.748252 30.107066 L 12.587413 27.601861 L 13.426573 26.991913 L 14.265734 23.089003 L 15.104895 18.461348 L 15.944056 20.914022 L 16.783217 29.143819 L 17.622378 17.206363 L 18.461538 16.516501 L 19.300699 16.422376 L 20.139860 16.289681 L 20.979021 17.099893 L 21.818182 10.552165 L 22.657343 10.596949 L 23.496503 11.783950 L 24.335664 12.014415 L 25.174825 13.447044 L 26.013986 13.816542 L 26.853147 12.222094 L 27.692308 12.430602 L 28.531469 16.384511 L 29.370629 17.482938 L 30.209790 16.567913 L 31.048951 16.341260 L 31.888112 20.718771 L 32.727273 22.255758 L 33.566434 21.889822 L 34.405594 22.328091 L 35.244755 21.994843 L 36.083916 22.850750 L 36.923077 22.823531 L 37.762238 21.356310 L 38.601399 20.955533 L 39.440559 21.133799 L 40.279720 20.733810 L 41.118881 19.492330 L 41.958042 21.531137 L 42.797203 19.060317 L 43.636364 25.094004 L 44.475524 18.377622 L 45.314685 17.043178 L 46.153846 18.800977 L 46.993007 20.398655 L 47.832168 20.531681 L 48.671329 21.291889 L 49.510490 21.851584 L 50.349650 21.824739 L 51.188811 22.767272 L 52.027972 26.542707 L 52.867133 28.974874 L 53.706294 28.929718 L 54.545455 28.820347 L 55.384615 28.128910 L 56.223776 27.720718 L 57.062937 25.966896 L 57.902098 20.127218 L 58.741259 19.693133 L 59.580420 18.352599 L 60.419580 18.511683 L 61.258741 19.059281 L 62.097902 19.096691 L 62.937063 17.470551 L 63.776224 19.750594 L 64.615385 19.663180 L 65.454545 19.783736 L 66.293706 22.322084 L 67.132867 24.194225 L 67.972028 26.344597 L 68.811189 28.301210 L 69.650350 32.738296 L 70.489510 36.376645 L 71.328671 36.125590 L 72.167832 36.392471 L 73.006993 35.868860 L 73.846154 35.093531 L 74.685315 24.074083 L 75.524476 23.969063 L 76.363636 23.624794 L 77.202797 24.009869 L 78.041958 25.100923 L 78.881119 24.465870 L 79.720280 23.855011 L 80.559441 26.185927 L 81.398601 36.800000 L 82.237762 24.595581 L 83.076923 22.509547 L 83.916084 21.261646 L 84.755245 22.809528 L 85.594406 19.689239 L 86.433566 19.189697 L 87.272727 18.315065 L 88.111888 20.406734 L 88.951049 22.727211 L 89.790210 21.292718 L 90.629371 21.935310 L 91.468531 20.771592 L 92.307692 21.609519 L 93.146853 23.122891 L 93.986014 19.253248 L 94.825175 20.150086 L 95.664336 24.946810 L 96.503497 24.318012 L 97.342657 22.541944 L 98.181818 23.889230 L 99.020979 25.216590 L 99.860140 24.261836 L 100.699301 22.510293 L 101.538462 28.406438 L 102.377622 26.597020 L 103.216783 23.776297 L 104.055944 21.439125 L 104.895105 18.079131 L 105.734266 18.661571 L 106.573427 18.295552 L 107.412587 17.679101 L 108.251748 17.067579 L 109.090909 16.914253 L 109.930070 15.839978 L 110.769231 23.989238 L 111.608392 15.363222 L 112.447552 13.976910 L 113.286713 13.018924 L 114.125874 13.010680 L 114.965035 14.918822 L 115.804196 12.157176 L 116.643357 8.800000 L 117.482517 10.742859 L 118.321678 30.067419 L 119.160839 22.728536 L 120.000000 25.830763 L 120 40 Z"></path>
    </g>
  </svg>