<svg xmlns="http://www.w3.org/2000/svg" viewBox="0 0 120 40" width="120" height="40">
    <defs>
      <linearGradient id="color_grad" x1="0%" x2="0%" y1="0%" y2="100%">
        <stop offset="0%" style="stop-color:#EA3943;stop-opacity:0.4;"></stop>
        <stop offset="100%" style="stop-color:#EA3943;stop-opacity:0.0;"></stop>
      </linearGradient>
    </defs>
    <g>
      <path stroke="#EA3943" stroke-width="2" stroke-linecap="round" stroke-linejoin="round" fill="none" d="M 0.000000 34.458004 L 0.839161 34.472440 L 1.678322 34.956199 L 2.517483 35.047076 L 3.356643 34.450205 L 4.195804 34.994897 L 5.034965 34.741934 L 5.874126 34.787723 L 6.713287 34.644809 L 7.552448 33.608245 L 8.391608 35.978612 L 9.230769 35.607275 L 10.069930 34.509142 L 10.909091 34.521647 L 11.748252 34.637792 L 12.587413 35.047685 L 13.426573 36.800000 L 14.265734 36.652576 L 15.104895 36.697699 L 15.944056 36.558229 L 16.783217 36.301745 L 17.622378 36.064736 L 18.461538 33.908655 L 19.300699 33.881533 L 20.139860 33.845855 L 20.979021 33.592707 L 21.818182 31.744918 L 22.657343 32.309200 L 23.496503 32.091648 L 24.335664 32.157844 L 25.174825 32.211323 L 26.013986 32.316442 L 26.853147 32.420169 L 27.692308 32.479054 L 28.531469 32.809926 L 29.370629 32.805917 L 30.209790 32.542779 L 31.048951 32.477261 L 31.888112 32.492821 L 32.727273 32.429200 L 33.566434 32.319855 L 34.405594 32.594102 L 35.244755 32.495059 L 36.083916 32.749628 L 36.923077 32.741371 L 37.762238 32.362913 L 38.601399 32.244819 L 39.440559 32.296985 L 40.279720 32.177469 L 41.118881 31.809005 L 41.958042 32.415891 L 42.797203 32.840142 L 43.636364 33.202907 L 44.475524 30.418180 L 45.314685 30.011649 L 46.153846 30.004701 L 46.993007 33.694283 L 47.832168 29.617588 L 48.671329 31.697513 L 49.510490 31.505515 L 50.349650 31.497616 L 51.188811 31.659317 L 52.027972 29.429928 L 52.867133 29.422677 L 53.706294 29.408297 L 54.545455 29.371557 L 55.384615 29.142083 L 56.223776 29.006156 L 57.062937 28.422931 L 57.902098 28.448347 L 58.741259 30.603045 L 59.580420 30.809955 L 60.419580 28.964775 L 61.258741 29.135576 L 62.097902 29.147268 L 62.937063 29.697706 L 63.776224 30.398507 L 64.615385 30.371679 L 65.454545 30.407922 L 66.293706 31.149486 L 67.132867 31.048049 L 67.972028 31.719036 L 68.811189 29.343350 L 69.650350 28.938958 L 70.489510 27.719776 L 71.328671 27.628570 L 72.167832 26.892330 L 73.006993 26.143649 L 73.846154 25.854353 L 74.685315 25.223520 L 75.524476 25.186888 L 76.363636 25.066062 L 77.202797 25.200749 L 78.041958 24.977337 L 78.881119 25.292157 L 79.720280 25.180026 L 80.559441 25.992820 L 81.398601 25.774969 L 82.237762 25.337769 L 83.076923 24.441625 L 83.916084 23.561252 L 84.755245 23.611232 L 85.594406 23.208719 L 86.433566 23.032872 L 87.272727 22.725000 L 88.111888 22.843345 L 88.951049 22.867404 L 89.790210 22.350271 L 90.629371 22.581611 L 91.468531 23.219530 L 92.307692 22.464766 L 93.146853 23.010641 L 93.986014 8.800000 L 94.825175 13.601355 L 95.664336 15.465430 L 96.503497 18.527131 L 97.342657 16.735608 L 98.181818 18.103934 L 99.020979 17.599539 L 99.860140 15.146981 L 100.699301 14.003492 L 101.538462 15.641960 L 102.377622 16.980170 L 103.216783 16.619899 L 104.055944 16.883823 L 104.895105 14.511490 L 105.734266 9.434549 L 106.573427 9.275363 L 107.412587 9.085766 L 108.251748 10.878292 L 109.090909 21.033337 L 109.930070 17.766706 L 110.769231 18.976222 L 111.608392 20.968826 L 112.447552 24.615480 L 113.286713 27.235391 L 114.125874 29.260942 L 114.965035 26.656763 L 115.804196 24.658330 L 116.643357 25.169060 L 117.482517 26.165647 L 118.321678 28.912354 L 119.160839 28.974065 L 120.000000 28.555946"></path>
      <path stroke="none" fill-opacity="0.6" fill="url(#color_grad)" d="M 0 40 L 0.000000 34.458004 L 0.839161 34.472440 L 1.678322 34.956199 L 2.517483 35.047076 L 3.356643 34.450205 L 4.195804 34.994897 L 5.034965 34.741934 L 5.874126 34.787723 L 6.713287 34.644809 L 7.552448 33.608245 L 8.391608 35.978612 L 9.230769 35.607275 L 10.069930 34.509142 L 10.909091 34.521647 L 11.748252 34.637792 L 12.587413 35.047685 L 13.426573 36.800000 L 14.265734 36.652576 L 15.104895 36.697699 L 15.944056 36.558229 L 16.783217 36.301745 L 17.622378 36.064736 L 18.461538 33.908655 L 19.300699 33.881533 L 20.139860 33.845855 L 20.979021 33.592707 L 21.818182 31.744918 L 22.657343 32.309200 L 23.496503 32.091648 L 24.335664 32.157844 L 25.174825 32.211323 L 26.013986 32.316442 L 26.853147 32.420169 L 27.692308 32.479054 L 28.531469 32.809926 L 29.370629 32.805917 L 30.209790 32.542779 L 31.048951 32.477261 L 31.888112 32.492821 L 32.727273 32.429200 L 33.566434 32.319855 L 34.405594 32.594102 L 35.244755 32.495059 L 36.083916 32.749628 L 36.923077 32.741371 L 37.762238 32.362913 L 38.601399 32.244819 L 39.440559 32.296985 L 40.279720 32.177469 L 41.118881 31.809005 L 41.958042 32.415891 L 42.797203 32.840142 L 43.636364 33.202907 L 44.475524 30.418180 L 45.314685 30.011649 L 46.153846 30.004701 L 46.993007 33.694283 L 47.832168 29.617588 L 48.671329 31.697513 L 49.510490 31.505515 L 50.349650 31.497616 L 51.188811 31.659317 L 52.027972 29.429928 L 52.867133 29.422677 L 53.706294 29.408297 L 54.545455 29.371557 L 55.384615 29.142083 L 56.223776 29.006156 L 57.062937 28.422931 L 57.902098 28.448347 L 58.741259 30.603045 L 59.580420 30.809955 L 60.419580 28.964775 L 61.258741 29.135576 L 62.097902 29.147268 L 62.937063 29.697706 L 63.776224 30.398507 L 64.615385 30.371679 L 65.454545 30.407922 L 66.293706 31.149486 L 67.132867 31.048049 L 67.972028 31.719036 L 68.811189 29.343350 L 69.650350 28.938958 L 70.489510 27.719776 L 71.328671 27.628570 L 72.167832 26.892330 L 73.006993 26.143649 L 73.846154 25.854353 L 74.685315 25.223520 L 75.524476 25.186888 L 76.363636 25.066062 L 77.202797 25.200749 L 78.041958 24.977337 L 78.881119 25.292157 L 79.720280 25.180026 L 80.559441 25.992820 L 81.398601 25.774969 L 82.237762 25.337769 L 83.076923 24.441625 L 83.916084 23.561252 L 84.755245 23.611232 L 85.594406 23.208719 L 86.433566 23.032872 L 87.272727 22.725000 L 88.111888 22.843345 L 88.951049 22.867404 L 89.790210 22.350271 L 90.629371 22.581611 L 91.468531 23.219530 L 92.307692 22.464766 L 93.146853 23.010641 L 93.986014 8.800000 L 94.825175 13.601355 L 95.664336 15.465430 L 96.503497 18.527131 L 97.342657 16.735608 L 98.181818 18.103934 L 99.020979 17.599539 L 99.860140 15.146981 L 100.699301 14.003492 L 101.538462 15.641960 L 102.377622 16.980170 L 103.216783 16.619899 L 104.055944 16.883823 L 104.895105 14.511490 L 105.734266 9.434549 L 106.573427 9.275363 L 107.412587 9.085766 L 108.251748 10.878292 L 109.090909 21.033337 L 109.930070 17.766706 L 110.769231 18.976222 L 111.608392 20.968826 L 112.447552 24.615480 L 113.286713 27.235391 L 114.125874 29.260942 L 114.965035 26.656763 L 115.804196 24.658330 L 116.643357 25.169060 L 117.482517 26.165647 L 118.321678 28.912354 L 119.160839 28.974065 L 120.000000 28.555946 L 120 40 Z"></path>
    </g>
  </svg>