<svg xmlns="http://www.w3.org/2000/svg" viewBox="0 0 120 40" width="120" height="40">
    <defs>
      <linearGradient id="color_grad" x1="0%" x2="0%" y1="0%" y2="100%">
        <stop offset="0%" style="stop-color:#EA3943;stop-opacity:0.4;"></stop>
        <stop offset="100%" style="stop-color:#EA3943;stop-opacity:0.0;"></stop>
      </linearGradient>
    </defs>
    <g>
      <path stroke="#EA3943" stroke-width="2" stroke-linecap="round" stroke-linejoin="round" fill="none" d="M 0.000000 34.280000 L 0.839161 34.280000 L 1.678322 34.280000 L 2.517483 34.180674 L 3.356643 33.490909 L 4.195804 33.490909 L 5.034965 33.490909 L 5.874126 33.490909 L 6.713287 33.490909 L 7.552448 32.218182 L 8.391608 35.527273 L 9.230769 35.527273 L 10.069930 34.254545 L 10.909091 34.254545 L 11.748252 34.254545 L 12.587413 34.254545 L 13.426573 36.800000 L 14.265734 36.800000 L 15.104895 36.800000 L 15.944056 36.800000 L 16.783217 36.800000 L 17.622378 36.800000 L 18.461538 34.254545 L 19.300699 34.254545 L 20.139860 34.254545 L 20.979021 34.254545 L 21.818182 34.254545 L 22.657343 34.254545 L 23.496503 34.254545 L 24.335664 34.254545 L 25.174825 34.509091 L 26.013986 34.509091 L 26.853147 34.509091 L 27.692308 34.509091 L 28.531469 34.509091 L 29.370629 34.509091 L 30.209790 34.509091 L 31.048951 34.509091 L 31.888112 34.509091 L 32.727273 34.509091 L 33.566434 34.509091 L 34.405594 34.687273 L 35.244755 34.687273 L 36.083916 34.687273 L 36.923077 34.687273 L 37.762238 34.687273 L 38.601399 34.687273 L 39.440559 34.687273 L 40.279720 34.687273 L 41.118881 34.687273 L 41.958042 34.687273 L 42.797203 34.687273 L 43.636364 35.071405 L 44.475524 31.989091 L 45.314685 31.989091 L 46.153846 31.989091 L 46.993007 36.800000 L 47.832168 31.989091 L 48.671329 34.254545 L 49.510490 34.254545 L 50.349650 34.254545 L 51.188811 34.396949 L 52.027972 31.989091 L 52.867133 31.963636 L 53.706294 31.963636 L 54.545455 31.963636 L 55.384615 31.963636 L 56.223776 31.963636 L 57.062937 31.963636 L 57.902098 31.963636 L 58.741259 34.254545 L 59.580420 34.254545 L 60.419580 31.963636 L 61.258741 31.963636 L 62.097902 31.963636 L 62.937063 31.963636 L 63.776224 31.963636 L 64.615385 31.963636 L 65.454545 31.963636 L 66.293706 31.963636 L 67.132867 31.963636 L 67.972028 31.963636 L 68.811189 29.163636 L 69.650350 28.109854 L 70.489510 26.618182 L 71.328671 26.618182 L 72.167832 25.549091 L 73.006993 24.836364 L 73.846154 24.836364 L 74.685315 24.836364 L 75.524476 24.836364 L 76.363636 24.836364 L 77.202797 24.836364 L 78.041958 24.072727 L 78.881119 24.581818 L 79.720280 24.709091 L 80.559441 24.709091 L 81.398601 24.836364 L 82.237762 24.581818 L 83.076923 24.503497 L 83.916084 24.686840 L 84.755245 24.072727 L 85.594406 24.072727 L 86.433566 24.072727 L 87.272727 24.072727 L 88.111888 24.072727 L 88.951049 24.072727 L 89.790210 24.072727 L 90.629371 24.072727 L 91.468531 25.345455 L 92.307692 24.072727 L 93.146853 24.072727 L 93.986014 8.800000 L 94.825175 14.079593 L 95.664336 14.942912 L 96.503497 18.981818 L 97.342657 16.690909 L 98.181818 17.709091 L 99.020979 16.436364 L 99.860140 13.890909 L 100.699301 13.890909 L 101.538462 13.890909 L 102.377622 16.466624 L 103.216783 16.436364 L 104.055944 16.436364 L 104.895105 15.190337 L 105.734266 8.800000 L 106.573427 8.800000 L 107.412587 8.894342 L 108.251748 11.345455 L 109.090909 23.505785 L 109.930070 20.100750 L 110.769231 22.055944 L 111.608392 24.087502 L 112.447552 28.441119 L 113.286713 31.879975 L 114.125874 34.254545 L 114.965035 30.960051 L 115.804196 29.672727 L 116.643357 31.495486 L 117.482517 31.931596 L 118.321678 34.530451 L 119.160839 34.498411 L 120.000000 33.872727"></path>
      <path stroke="none" fill-opacity="0.6" fill="url(#color_grad)" d="M 0 40 L 0.000000 34.280000 L 0.839161 34.280000 L 1.678322 34.280000 L 2.517483 34.180674 L 3.356643 33.490909 L 4.195804 33.490909 L 5.034965 33.490909 L 5.874126 33.490909 L 6.713287 33.490909 L 7.552448 32.218182 L 8.391608 35.527273 L 9.230769 35.527273 L 10.069930 34.254545 L 10.909091 34.254545 L 11.748252 34.254545 L 12.587413 34.254545 L 13.426573 36.800000 L 14.265734 36.800000 L 15.104895 36.800000 L 15.944056 36.800000 L 16.783217 36.800000 L 17.622378 36.800000 L 18.461538 34.254545 L 19.300699 34.254545 L 20.139860 34.254545 L 20.979021 34.254545 L 21.818182 34.254545 L 22.657343 34.254545 L 23.496503 34.254545 L 24.335664 34.254545 L 25.174825 34.509091 L 26.013986 34.509091 L 26.853147 34.509091 L 27.692308 34.509091 L 28.531469 34.509091 L 29.370629 34.509091 L 30.209790 34.509091 L 31.048951 34.509091 L 31.888112 34.509091 L 32.727273 34.509091 L 33.566434 34.509091 L 34.405594 34.687273 L 35.244755 34.687273 L 36.083916 34.687273 L 36.923077 34.687273 L 37.762238 34.687273 L 38.601399 34.687273 L 39.440559 34.687273 L 40.279720 34.687273 L 41.118881 34.687273 L 41.958042 34.687273 L 42.797203 34.687273 L 43.636364 35.071405 L 44.475524 31.989091 L 45.314685 31.989091 L 46.153846 31.989091 L 46.993007 36.800000 L 47.832168 31.989091 L 48.671329 34.254545 L 49.510490 34.254545 L 50.349650 34.254545 L 51.188811 34.396949 L 52.027972 31.989091 L 52.867133 31.963636 L 53.706294 31.963636 L 54.545455 31.963636 L 55.384615 31.963636 L 56.223776 31.963636 L 57.062937 31.963636 L 57.902098 31.963636 L 58.741259 34.254545 L 59.580420 34.254545 L 60.419580 31.963636 L 61.258741 31.963636 L 62.097902 31.963636 L 62.937063 31.963636 L 63.776224 31.963636 L 64.615385 31.963636 L 65.454545 31.963636 L 66.293706 31.963636 L 67.132867 31.963636 L 67.972028 31.963636 L 68.811189 29.163636 L 69.650350 28.109854 L 70.489510 26.618182 L 71.328671 26.618182 L 72.167832 25.549091 L 73.006993 24.836364 L 73.846154 24.836364 L 74.685315 24.836364 L 75.524476 24.836364 L 76.363636 24.836364 L 77.202797 24.836364 L 78.041958 24.072727 L 78.881119 24.581818 L 79.720280 24.709091 L 80.559441 24.709091 L 81.398601 24.836364 L 82.237762 24.581818 L 83.076923 24.503497 L 83.916084 24.686840 L 84.755245 24.072727 L 85.594406 24.072727 L 86.433566 24.072727 L 87.272727 24.072727 L 88.111888 24.072727 L 88.951049 24.072727 L 89.790210 24.072727 L 90.629371 24.072727 L 91.468531 25.345455 L 92.307692 24.072727 L 93.146853 24.072727 L 93.986014 8.800000 L 94.825175 14.079593 L 95.664336 14.942912 L 96.503497 18.981818 L 97.342657 16.690909 L 98.181818 17.709091 L 99.020979 16.436364 L 99.860140 13.890909 L 100.699301 13.890909 L 101.538462 13.890909 L 102.377622 16.466624 L 103.216783 16.436364 L 104.055944 16.436364 L 104.895105 15.190337 L 105.734266 8.800000 L 106.573427 8.800000 L 107.412587 8.894342 L 108.251748 11.345455 L 109.090909 23.505785 L 109.930070 20.100750 L 110.769231 22.055944 L 111.608392 24.087502 L 112.447552 28.441119 L 113.286713 31.879975 L 114.125874 34.254545 L 114.965035 30.960051 L 115.804196 29.672727 L 116.643357 31.495486 L 117.482517 31.931596 L 118.321678 34.530451 L 119.160839 34.498411 L 120.000000 33.872727 L 120 40 Z"></path>
    </g>
  </svg>