<svg xmlns="http://www.w3.org/2000/svg" viewBox="0 0 120 40" width="120" height="40">
    <defs>
      <linearGradient id="color_grad" x1="0%" x2="0%" y1="0%" y2="100%">
        <stop offset="0%" style="stop-color:#EA3943;stop-opacity:0.4;"></stop>
        <stop offset="100%" style="stop-color:#EA3943;stop-opacity:0.0;"></stop>
      </linearGradient>
    </defs>
    <g>
      <path stroke="#EA3943" stroke-width="2" stroke-linecap="round" stroke-linejoin="round" fill="none" d="M 0.000000 20.254545 L 0.839161 21.527273 L 1.678322 21.527273 L 2.517483 21.527273 L 3.356643 21.527273 L 4.195804 21.527273 L 5.034965 21.527273 L 5.874126 21.002161 L 6.713287 24.072727 L 7.552448 24.072727 L 8.391608 17.709091 L 9.230769 15.163636 L 10.069930 16.436364 L 10.909091 15.047934 L 11.748252 11.345455 L 12.587413 15.163636 L 13.426573 11.345455 L 14.265734 11.345455 L 15.104895 13.267896 L 15.944056 8.800000 L 16.783217 13.890909 L 17.622378 13.890909 L 18.461538 13.890909 L 19.300699 13.890909 L 20.139860 12.363636 L 20.979021 12.363636 L 21.818182 12.363636 L 22.657343 12.363636 L 23.496503 12.363636 L 24.335664 14.145455 L 25.174825 14.145455 L 26.013986 14.145455 L 26.853147 21.527273 L 27.692308 16.690909 L 28.531469 21.527273 L 29.370629 26.618182 L 30.209790 24.250731 L 31.048951 26.618182 L 31.888112 26.618182 L 32.727273 27.034711 L 33.566434 27.127273 L 34.405594 26.872727 L 35.244755 26.872727 L 36.083916 26.872727 L 36.923077 26.872727 L 37.762238 26.646662 L 38.601399 26.618182 L 39.440559 26.618182 L 40.279720 26.618182 L 41.118881 26.618182 L 41.958042 26.618182 L 42.797203 24.072727 L 43.636364 21.781818 L 44.475524 25.211952 L 45.314685 29.163636 L 46.153846 28.772028 L 46.993007 29.163636 L 47.832168 29.163636 L 48.671329 29.307819 L 49.510490 29.163636 L 50.349650 29.418182 L 51.188811 29.163636 L 52.027972 29.163636 L 52.867133 29.163636 L 53.706294 29.163636 L 54.545455 29.163636 L 55.384615 29.163636 L 56.223776 27.305277 L 57.062937 26.872727 L 57.902098 26.644882 L 58.741259 27.890909 L 59.580420 29.142276 L 60.419580 29.418182 L 61.258741 29.672727 L 62.097902 30.436364 L 62.937063 29.672727 L 63.776224 30.455944 L 64.615385 32.727273 L 65.454545 32.727273 L 66.293706 32.981818 L 67.132867 32.727273 L 67.972028 32.727273 L 68.811189 29.927273 L 69.650350 29.927273 L 70.489510 29.927273 L 71.328671 29.927273 L 72.167832 29.927273 L 73.006993 29.927273 L 73.846154 29.927273 L 74.685315 29.927273 L 75.524476 30.124857 L 76.363636 30.181818 L 77.202797 31.531087 L 78.041958 31.709091 L 78.881119 34.254545 L 79.720280 34.254545 L 80.559441 34.254545 L 81.398601 34.254545 L 82.237762 34.254545 L 83.076923 34.254545 L 83.916084 34.254545 L 84.755245 34.254545 L 85.594406 34.254545 L 86.433566 34.254545 L 87.272727 34.254545 L 88.111888 34.254545 L 88.951049 32.981818 L 89.790210 32.981818 L 90.629371 32.981818 L 91.468531 32.981818 L 92.307692 33.765035 L 93.146853 32.981818 L 93.986014 33.871837 L 94.825175 32.981818 L 95.664336 32.981818 L 96.503497 32.981818 L 97.342657 32.981818 L 98.181818 32.981818 L 99.020979 32.981818 L 99.860140 34.509091 L 100.699301 34.509091 L 101.538462 32.218182 L 102.377622 32.218182 L 103.216783 32.545709 L 104.055944 34.254545 L 104.895105 34.254545 L 105.734266 34.254545 L 106.573427 35.527273 L 107.412587 35.527273 L 108.251748 35.527273 L 109.090909 35.527273 L 109.930070 35.527273 L 110.769231 36.800000 L 111.608392 33.745455 L 112.447552 36.800000 L 113.286713 33.747235 L 114.125874 33.490909 L 114.965035 33.490909 L 115.804196 33.490909 L 116.643357 33.490909 L 117.482517 33.490909 L 118.321678 33.490909 L 119.160839 33.490909 L 120.000000 33.490909"></path>
      <path stroke="none" fill-opacity="0.6" fill="url(#color_grad)" d="M 0 40 L 0.000000 20.254545 L 0.839161 21.527273 L 1.678322 21.527273 L 2.517483 21.527273 L 3.356643 21.527273 L 4.195804 21.527273 L 5.034965 21.527273 L 5.874126 21.002161 L 6.713287 24.072727 L 7.552448 24.072727 L 8.391608 17.709091 L 9.230769 15.163636 L 10.069930 16.436364 L 10.909091 15.047934 L 11.748252 11.345455 L 12.587413 15.163636 L 13.426573 11.345455 L 14.265734 11.345455 L 15.104895 13.267896 L 15.944056 8.800000 L 16.783217 13.890909 L 17.622378 13.890909 L 18.461538 13.890909 L 19.300699 13.890909 L 20.139860 12.363636 L 20.979021 12.363636 L 21.818182 12.363636 L 22.657343 12.363636 L 23.496503 12.363636 L 24.335664 14.145455 L 25.174825 14.145455 L 26.013986 14.145455 L 26.853147 21.527273 L 27.692308 16.690909 L 28.531469 21.527273 L 29.370629 26.618182 L 30.209790 24.250731 L 31.048951 26.618182 L 31.888112 26.618182 L 32.727273 27.034711 L 33.566434 27.127273 L 34.405594 26.872727 L 35.244755 26.872727 L 36.083916 26.872727 L 36.923077 26.872727 L 37.762238 26.646662 L 38.601399 26.618182 L 39.440559 26.618182 L 40.279720 26.618182 L 41.118881 26.618182 L 41.958042 26.618182 L 42.797203 24.072727 L 43.636364 21.781818 L 44.475524 25.211952 L 45.314685 29.163636 L 46.153846 28.772028 L 46.993007 29.163636 L 47.832168 29.163636 L 48.671329 29.307819 L 49.510490 29.163636 L 50.349650 29.418182 L 51.188811 29.163636 L 52.027972 29.163636 L 52.867133 29.163636 L 53.706294 29.163636 L 54.545455 29.163636 L 55.384615 29.163636 L 56.223776 27.305277 L 57.062937 26.872727 L 57.902098 26.644882 L 58.741259 27.890909 L 59.580420 29.142276 L 60.419580 29.418182 L 61.258741 29.672727 L 62.097902 30.436364 L 62.937063 29.672727 L 63.776224 30.455944 L 64.615385 32.727273 L 65.454545 32.727273 L 66.293706 32.981818 L 67.132867 32.727273 L 67.972028 32.727273 L 68.811189 29.927273 L 69.650350 29.927273 L 70.489510 29.927273 L 71.328671 29.927273 L 72.167832 29.927273 L 73.006993 29.927273 L 73.846154 29.927273 L 74.685315 29.927273 L 75.524476 30.124857 L 76.363636 30.181818 L 77.202797 31.531087 L 78.041958 31.709091 L 78.881119 34.254545 L 79.720280 34.254545 L 80.559441 34.254545 L 81.398601 34.254545 L 82.237762 34.254545 L 83.076923 34.254545 L 83.916084 34.254545 L 84.755245 34.254545 L 85.594406 34.254545 L 86.433566 34.254545 L 87.272727 34.254545 L 88.111888 34.254545 L 88.951049 32.981818 L 89.790210 32.981818 L 90.629371 32.981818 L 91.468531 32.981818 L 92.307692 33.765035 L 93.146853 32.981818 L 93.986014 33.871837 L 94.825175 32.981818 L 95.664336 32.981818 L 96.503497 32.981818 L 97.342657 32.981818 L 98.181818 32.981818 L 99.020979 32.981818 L 99.860140 34.509091 L 100.699301 34.509091 L 101.538462 32.218182 L 102.377622 32.218182 L 103.216783 32.545709 L 104.055944 34.254545 L 104.895105 34.254545 L 105.734266 34.254545 L 106.573427 35.527273 L 107.412587 35.527273 L 108.251748 35.527273 L 109.090909 35.527273 L 109.930070 35.527273 L 110.769231 36.800000 L 111.608392 33.745455 L 112.447552 36.800000 L 113.286713 33.747235 L 114.125874 33.490909 L 114.965035 33.490909 L 115.804196 33.490909 L 116.643357 33.490909 L 117.482517 33.490909 L 118.321678 33.490909 L 119.160839 33.490909 L 120.000000 33.490909 L 120 40 Z"></path>
    </g>
  </svg>