<svg xmlns="http://www.w3.org/2000/svg" viewBox="0 0 120 40" width="120" height="40">
    <defs>
      <linearGradient id="color_grad" x1="0%" x2="0%" y1="0%" y2="100%">
        <stop offset="0%" style="stop-color:#16C784;stop-opacity:0.4;"></stop>
        <stop offset="100%" style="stop-color:#16C784;stop-opacity:0.0;"></stop>
      </linearGradient>
    </defs>
    <g>
      <path stroke="#16C784" stroke-width="2" stroke-linecap="round" stroke-linejoin="round" fill="none" d="M 0.000000 22.687451 L 0.839161 24.118205 L 1.678322 24.933944 L 2.517483 25.213711 L 3.356643 25.091344 L 4.195804 25.999716 L 5.034965 25.577883 L 5.874126 25.083677 L 6.713287 28.172963 L 7.552448 28.053401 L 8.391608 20.908297 L 9.230769 17.427411 L 10.069930 18.596724 L 10.909091 17.089358 L 11.748252 13.230400 L 12.587413 18.188543 L 13.426573 13.678165 L 14.265734 13.382003 L 15.104895 15.579063 L 15.944056 10.387219 L 16.783217 15.482441 L 17.622378 15.015975 L 18.461538 14.657850 L 19.300699 14.607793 L 20.139860 12.829886 L 20.979021 12.338984 L 21.818182 8.800000 L 22.657343 9.880857 L 23.496503 9.465071 L 24.335664 11.656895 L 25.174825 11.371579 L 26.013986 11.571556 L 26.853147 20.322892 L 27.692308 14.826533 L 28.531469 20.989958 L 29.370629 26.838457 L 30.209790 23.681972 L 31.048951 26.320688 L 31.888112 26.343940 L 32.727273 26.723134 L 33.566434 26.664413 L 34.405594 26.571157 L 35.244755 26.418183 L 36.083916 26.818198 L 36.923077 26.802364 L 37.762238 25.942491 L 38.601399 25.727180 L 39.440559 25.805163 L 40.279720 25.616469 L 41.118881 25.038732 L 41.958042 25.994417 L 42.797203 23.729161 L 43.636364 21.185820 L 44.475524 24.635039 L 45.314685 28.627024 L 46.153846 28.160059 L 46.993007 28.287850 L 47.832168 28.055334 L 48.671329 28.567493 L 49.510490 28.114741 L 50.349650 28.400804 L 51.188811 28.164797 L 52.027972 27.782673 L 52.867133 27.800376 L 53.706294 27.782735 L 54.545455 27.728814 L 55.384615 27.397556 L 56.223776 24.984811 L 57.062937 23.587719 L 57.902098 23.352584 L 58.741259 25.228485 L 59.580420 27.034631 L 60.419580 27.442812 L 61.258741 27.992062 L 62.097902 28.912776 L 62.937063 28.799386 L 63.776224 30.713312 L 64.615385 33.307644 L 65.454545 33.359321 L 66.293706 34.659355 L 67.132867 34.231849 L 67.972028 35.145706 L 68.811189 31.735635 L 69.650350 32.304022 L 70.489510 32.223296 L 71.328671 32.106788 L 72.167832 32.233394 L 73.006993 31.983174 L 73.846154 31.615325 L 74.685315 30.806318 L 75.524476 30.982046 L 76.363636 30.898203 L 77.202797 32.618199 L 78.041958 33.294429 L 78.881119 36.093350 L 79.720280 35.834715 L 80.559441 36.800000 L 81.398601 36.422675 L 82.237762 36.142035 L 83.076923 35.156989 L 83.916084 33.936685 L 84.755245 34.589912 L 85.594406 34.118521 L 86.433566 33.910378 L 87.272727 33.545708 L 88.111888 33.682849 L 88.951049 32.207524 L 89.790210 31.585777 L 90.629371 31.862116 L 91.468531 31.358061 L 92.307692 32.656910 L 93.146853 32.379948 L 93.986014 31.776216 L 94.825175 31.089639 L 95.664336 32.304022 L 96.503497 32.023631 L 97.342657 32.128107 L 98.181818 32.711829 L 99.020979 33.286138 L 99.860140 34.659604 L 100.699301 33.499080 L 101.538462 32.501941 L 102.377622 31.690566 L 103.216783 31.715874 L 104.055944 34.017099 L 104.895105 32.602927 L 105.734266 32.851214 L 106.573427 34.228483 L 107.412587 33.973713 L 108.251748 33.725862 L 109.090909 33.660782 L 109.930070 33.222928 L 110.769231 34.291630 L 111.608392 30.842474 L 112.447552 34.529819 L 113.286713 30.386480 L 114.125874 30.063638 L 114.965035 30.340475 L 115.804196 29.168918 L 116.643357 27.749385 L 117.482517 28.574786 L 118.321678 29.246590 L 119.160839 29.371887 L 120.000000 29.542440"></path>
      <path stroke="none" fill-opacity="0.6" fill="url(#color_grad)" d="M 0 40 L 0.000000 22.687451 L 0.839161 24.118205 L 1.678322 24.933944 L 2.517483 25.213711 L 3.356643 25.091344 L 4.195804 25.999716 L 5.034965 25.577883 L 5.874126 25.083677 L 6.713287 28.172963 L 7.552448 28.053401 L 8.391608 20.908297 L 9.230769 17.427411 L 10.069930 18.596724 L 10.909091 17.089358 L 11.748252 13.230400 L 12.587413 18.188543 L 13.426573 13.678165 L 14.265734 13.382003 L 15.104895 15.579063 L 15.944056 10.387219 L 16.783217 15.482441 L 17.622378 15.015975 L 18.461538 14.657850 L 19.300699 14.607793 L 20.139860 12.829886 L 20.979021 12.338984 L 21.818182 8.800000 L 22.657343 9.880857 L 23.496503 9.465071 L 24.335664 11.656895 L 25.174825 11.371579 L 26.013986 11.571556 L 26.853147 20.322892 L 27.692308 14.826533 L 28.531469 20.989958 L 29.370629 26.838457 L 30.209790 23.681972 L 31.048951 26.320688 L 31.888112 26.343940 L 32.727273 26.723134 L 33.566434 26.664413 L 34.405594 26.571157 L 35.244755 26.418183 L 36.083916 26.818198 L 36.923077 26.802364 L 37.762238 25.942491 L 38.601399 25.727180 L 39.440559 25.805163 L 40.279720 25.616469 L 41.118881 25.038732 L 41.958042 25.994417 L 42.797203 23.729161 L 43.636364 21.185820 L 44.475524 24.635039 L 45.314685 28.627024 L 46.153846 28.160059 L 46.993007 28.287850 L 47.832168 28.055334 L 48.671329 28.567493 L 49.510490 28.114741 L 50.349650 28.400804 L 51.188811 28.164797 L 52.027972 27.782673 L 52.867133 27.800376 L 53.706294 27.782735 L 54.545455 27.728814 L 55.384615 27.397556 L 56.223776 24.984811 L 57.062937 23.587719 L 57.902098 23.352584 L 58.741259 25.228485 L 59.580420 27.034631 L 60.419580 27.442812 L 61.258741 27.992062 L 62.097902 28.912776 L 62.937063 28.799386 L 63.776224 30.713312 L 64.615385 33.307644 L 65.454545 33.359321 L 66.293706 34.659355 L 67.132867 34.231849 L 67.972028 35.145706 L 68.811189 31.735635 L 69.650350 32.304022 L 70.489510 32.223296 L 71.328671 32.106788 L 72.167832 32.233394 L 73.006993 31.983174 L 73.846154 31.615325 L 74.685315 30.806318 L 75.524476 30.982046 L 76.363636 30.898203 L 77.202797 32.618199 L 78.041958 33.294429 L 78.881119 36.093350 L 79.720280 35.834715 L 80.559441 36.800000 L 81.398601 36.422675 L 82.237762 36.142035 L 83.076923 35.156989 L 83.916084 33.936685 L 84.755245 34.589912 L 85.594406 34.118521 L 86.433566 33.910378 L 87.272727 33.545708 L 88.111888 33.682849 L 88.951049 32.207524 L 89.790210 31.585777 L 90.629371 31.862116 L 91.468531 31.358061 L 92.307692 32.656910 L 93.146853 32.379948 L 93.986014 31.776216 L 94.825175 31.089639 L 95.664336 32.304022 L 96.503497 32.023631 L 97.342657 32.128107 L 98.181818 32.711829 L 99.020979 33.286138 L 99.860140 34.659604 L 100.699301 33.499080 L 101.538462 32.501941 L 102.377622 31.690566 L 103.216783 31.715874 L 104.055944 34.017099 L 104.895105 32.602927 L 105.734266 32.851214 L 106.573427 34.228483 L 107.412587 33.973713 L 108.251748 33.725862 L 109.090909 33.660782 L 109.930070 33.222928 L 110.769231 34.291630 L 111.608392 30.842474 L 112.447552 34.529819 L 113.286713 30.386480 L 114.125874 30.063638 L 114.965035 30.340475 L 115.804196 29.168918 L 116.643357 27.749385 L 117.482517 28.574786 L 118.321678 29.246590 L 119.160839 29.371887 L 120.000000 29.542440 L 120 40 Z"></path>
    </g>
  </svg>