<svg xmlns="http://www.w3.org/2000/svg" viewBox="0 0 120 40" width="120" height="40">
    <defs>
      <linearGradient id="color_grad" x1="0%" x2="0%" y1="0%" y2="100%">
        <stop offset="0%" style="stop-color:#EA3943;stop-opacity:0.4;"></stop>
        <stop offset="100%" style="stop-color:#EA3943;stop-opacity:0.0;"></stop>
      </linearGradient>
    </defs>
    <g>
      <path stroke="#EA3943" stroke-width="2" stroke-linecap="round" stroke-linejoin="round" fill="none" d="M 0.000000 21.306667 L 0.839161 21.306667 L 1.678322 21.306667 L 2.517483 21.306667 L 3.356643 21.306667 L 4.195804 21.306667 L 5.034965 18.133333 L 5.874126 15.395556 L 6.713287 15.395556 L 7.552448 15.395556 L 8.391608 16.327584 L 9.230769 18.133333 L 10.069930 18.444444 L 10.909091 17.822222 L 11.748252 16.266667 L 12.587413 8.800000 L 13.426573 8.862222 L 14.265734 9.422222 L 15.104895 12.533333 L 15.944056 10.044444 L 16.783217 11.911111 L 17.622378 11.911111 L 18.461538 11.911111 L 19.300699 11.911111 L 20.139860 11.911111 L 20.979021 11.911111 L 21.818182 11.911111 L 22.657343 11.911111 L 23.496503 13.542813 L 24.335664 15.022222 L 25.174825 15.022222 L 26.013986 15.644444 L 26.853147 15.644444 L 27.692308 21.244444 L 28.531469 26.222222 L 29.370629 19.590987 L 30.209790 20.000000 L 31.048951 20.000000 L 31.888112 21.244444 L 32.727273 19.377778 L 33.566434 20.000000 L 34.405594 20.448174 L 35.244755 20.622222 L 36.083916 20.622222 L 36.923077 20.095726 L 37.762238 20.000000 L 38.601399 20.000000 L 39.440559 20.000000 L 40.279720 20.000000 L 41.118881 20.000000 L 41.958042 20.000000 L 42.797203 20.000000 L 43.636364 20.226263 L 44.475524 27.466667 L 45.314685 27.466667 L 46.153846 27.466667 L 46.993007 33.688889 L 47.832168 21.306667 L 48.671329 21.306667 L 49.510490 21.368889 L 50.349650 23.484444 L 51.188811 28.650194 L 52.027972 21.306667 L 52.867133 21.244444 L 53.706294 21.244444 L 54.545455 21.244444 L 55.384615 21.244444 L 56.223776 21.244444 L 57.062937 21.244444 L 57.902098 24.355556 L 58.741259 24.355556 L 59.580420 19.440000 L 60.419580 19.440000 L 61.258741 24.355556 L 62.097902 24.355556 L 62.937063 27.466667 L 63.776224 21.244444 L 64.615385 21.306667 L 65.454545 21.306667 L 66.293706 21.306667 L 67.132867 21.306667 L 67.972028 21.306667 L 68.811189 21.553380 L 69.650350 23.111111 L 70.489510 23.111111 L 71.328671 24.977778 L 72.167832 24.977778 L 73.006993 24.977778 L 73.846154 25.600000 L 74.685315 25.600000 L 75.524476 25.662222 L 76.363636 25.662222 L 77.202797 25.662222 L 78.041958 26.222222 L 78.881119 27.466667 L 79.720280 27.466667 L 80.559441 27.466667 L 81.398601 24.977778 L 82.237762 24.908159 L 83.076923 21.866667 L 83.916084 21.866667 L 84.755245 22.162549 L 85.594406 25.225796 L 86.433566 21.866667 L 87.272727 21.866667 L 88.111888 21.866667 L 88.951049 21.866667 L 89.790210 22.488889 L 90.629371 22.488889 L 91.468531 22.488889 L 92.307692 22.488889 L 93.146853 21.866667 L 93.986014 21.866667 L 94.825175 21.866667 L 95.664336 27.466667 L 96.503497 21.866667 L 97.342657 27.466667 L 98.181818 22.488889 L 99.020979 22.488889 L 99.860140 27.466667 L 100.699301 30.577778 L 101.538462 30.577778 L 102.377622 27.466667 L 103.216783 24.055322 L 104.055944 21.866667 L 104.895105 21.866667 L 105.734266 23.795556 L 106.573427 23.979611 L 107.412587 24.355556 L 108.251748 24.355556 L 109.090909 24.417778 L 109.930070 24.417778 L 110.769231 24.417778 L 111.608392 26.223528 L 112.447552 30.577778 L 113.286713 30.577778 L 114.125874 31.822222 L 114.965035 30.888889 L 115.804196 32.444444 L 116.643357 36.800000 L 117.482517 36.800000 L 118.321678 36.800000 L 119.160839 32.444444 L 120.000000 32.444444"></path>
      <path stroke="none" fill-opacity="0.6" fill="url(#color_grad)" d="M 0 40 L 0.000000 21.306667 L 0.839161 21.306667 L 1.678322 21.306667 L 2.517483 21.306667 L 3.356643 21.306667 L 4.195804 21.306667 L 5.034965 18.133333 L 5.874126 15.395556 L 6.713287 15.395556 L 7.552448 15.395556 L 8.391608 16.327584 L 9.230769 18.133333 L 10.069930 18.444444 L 10.909091 17.822222 L 11.748252 16.266667 L 12.587413 8.800000 L 13.426573 8.862222 L 14.265734 9.422222 L 15.104895 12.533333 L 15.944056 10.044444 L 16.783217 11.911111 L 17.622378 11.911111 L 18.461538 11.911111 L 19.300699 11.911111 L 20.139860 11.911111 L 20.979021 11.911111 L 21.818182 11.911111 L 22.657343 11.911111 L 23.496503 13.542813 L 24.335664 15.022222 L 25.174825 15.022222 L 26.013986 15.644444 L 26.853147 15.644444 L 27.692308 21.244444 L 28.531469 26.222222 L 29.370629 19.590987 L 30.209790 20.000000 L 31.048951 20.000000 L 31.888112 21.244444 L 32.727273 19.377778 L 33.566434 20.000000 L 34.405594 20.448174 L 35.244755 20.622222 L 36.083916 20.622222 L 36.923077 20.095726 L 37.762238 20.000000 L 38.601399 20.000000 L 39.440559 20.000000 L 40.279720 20.000000 L 41.118881 20.000000 L 41.958042 20.000000 L 42.797203 20.000000 L 43.636364 20.226263 L 44.475524 27.466667 L 45.314685 27.466667 L 46.153846 27.466667 L 46.993007 33.688889 L 47.832168 21.306667 L 48.671329 21.306667 L 49.510490 21.368889 L 50.349650 23.484444 L 51.188811 28.650194 L 52.027972 21.306667 L 52.867133 21.244444 L 53.706294 21.244444 L 54.545455 21.244444 L 55.384615 21.244444 L 56.223776 21.244444 L 57.062937 21.244444 L 57.902098 24.355556 L 58.741259 24.355556 L 59.580420 19.440000 L 60.419580 19.440000 L 61.258741 24.355556 L 62.097902 24.355556 L 62.937063 27.466667 L 63.776224 21.244444 L 64.615385 21.306667 L 65.454545 21.306667 L 66.293706 21.306667 L 67.132867 21.306667 L 67.972028 21.306667 L 68.811189 21.553380 L 69.650350 23.111111 L 70.489510 23.111111 L 71.328671 24.977778 L 72.167832 24.977778 L 73.006993 24.977778 L 73.846154 25.600000 L 74.685315 25.600000 L 75.524476 25.662222 L 76.363636 25.662222 L 77.202797 25.662222 L 78.041958 26.222222 L 78.881119 27.466667 L 79.720280 27.466667 L 80.559441 27.466667 L 81.398601 24.977778 L 82.237762 24.908159 L 83.076923 21.866667 L 83.916084 21.866667 L 84.755245 22.162549 L 85.594406 25.225796 L 86.433566 21.866667 L 87.272727 21.866667 L 88.111888 21.866667 L 88.951049 21.866667 L 89.790210 22.488889 L 90.629371 22.488889 L 91.468531 22.488889 L 92.307692 22.488889 L 93.146853 21.866667 L 93.986014 21.866667 L 94.825175 21.866667 L 95.664336 27.466667 L 96.503497 21.866667 L 97.342657 27.466667 L 98.181818 22.488889 L 99.020979 22.488889 L 99.860140 27.466667 L 100.699301 30.577778 L 101.538462 30.577778 L 102.377622 27.466667 L 103.216783 24.055322 L 104.055944 21.866667 L 104.895105 21.866667 L 105.734266 23.795556 L 106.573427 23.979611 L 107.412587 24.355556 L 108.251748 24.355556 L 109.090909 24.417778 L 109.930070 24.417778 L 110.769231 24.417778 L 111.608392 26.223528 L 112.447552 30.577778 L 113.286713 30.577778 L 114.125874 31.822222 L 114.965035 30.888889 L 115.804196 32.444444 L 116.643357 36.800000 L 117.482517 36.800000 L 118.321678 36.800000 L 119.160839 32.444444 L 120.000000 32.444444 L 120 40 Z"></path>
    </g>
  </svg>