<svg xmlns="http://www.w3.org/2000/svg" viewBox="0 0 120 40" width="120" height="40">
    <defs>
      <linearGradient id="color_grad" x1="0%" x2="0%" y1="0%" y2="100%">
        <stop offset="0%" style="stop-color:#888888;stop-opacity:0.4;"></stop>
        <stop offset="100%" style="stop-color:#888888;stop-opacity:0.0;"></stop>
      </linearGradient>
    </defs>
    <g>
      <path stroke="#888888" stroke-width="2" stroke-linecap="round" stroke-linejoin="round" fill="none" d="M 0.000000 27.858080 L 0.839161 27.896270 L 1.678322 29.129137 L 2.517483 29.551550 L 3.356643 29.360485 L 4.195804 30.728746 L 5.034965 26.282708 L 5.874126 23.118588 L 6.713287 22.735698 L 7.552448 22.528013 L 8.391608 23.315986 L 9.230769 24.496679 L 10.069930 24.539446 L 10.909091 23.811957 L 11.748252 22.222296 L 12.587413 14.303836 L 13.426573 13.863637 L 14.265734 14.101573 L 15.104895 18.018332 L 15.944056 14.576465 L 16.783217 16.100135 L 17.622378 15.405954 L 18.461538 14.866930 L 19.300699 14.793135 L 20.139860 14.691894 L 20.979021 13.980637 L 21.818182 8.800000 L 22.657343 10.382939 L 23.496503 11.873706 L 24.335664 13.960656 L 25.174825 13.548326 L 26.013986 14.636155 L 26.853147 14.917736 L 27.692308 22.267326 L 28.531469 29.458771 L 29.370629 21.000880 L 30.209790 20.834087 L 31.048951 20.664220 L 31.888112 22.301698 L 32.727273 19.741022 L 33.566434 20.256637 L 34.405594 21.173315 L 35.244755 21.139450 L 36.083916 21.797907 L 36.923077 21.102392 L 37.762238 19.993467 L 38.601399 19.687175 L 39.440559 19.823177 L 40.279720 19.511718 L 41.118881 18.553151 L 41.958042 20.131597 L 42.797203 21.236350 L 43.636364 21.671752 L 44.475524 30.167274 L 45.314685 29.236036 L 46.153846 29.219771 L 46.993007 36.800000 L 47.832168 20.290012 L 48.671329 20.875570 L 49.510490 20.468038 L 50.349650 23.207550 L 51.188811 30.057013 L 52.027972 19.829798 L 52.867133 19.781407 L 53.706294 19.746343 L 54.545455 19.656925 L 55.384615 19.092463 L 56.223776 18.759620 L 57.062937 17.329540 L 57.902098 21.546763 L 58.741259 22.141796 L 59.580420 16.144371 L 60.419580 16.271674 L 61.258741 23.176623 L 62.097902 23.203665 L 62.937063 28.563662 L 63.776224 22.173702 L 64.615385 22.190035 L 65.454545 22.277562 L 66.293706 24.095835 L 67.132867 23.847799 L 67.972028 25.492202 L 68.811189 25.364037 L 69.650350 28.270748 L 70.489510 28.142667 L 71.328671 30.272840 L 72.167832 30.479731 L 73.006993 30.071793 L 73.846154 30.243872 L 74.685315 28.923800 L 75.524476 28.926063 L 76.363636 28.673146 L 77.202797 28.955351 L 78.041958 30.456270 L 78.881119 31.849275 L 79.720280 31.416188 L 80.559441 33.079136 L 81.398601 29.294224 L 82.237762 28.708463 L 83.076923 23.052309 L 83.916084 20.817923 L 84.755245 22.390373 L 85.594406 25.516710 L 86.433566 20.760276 L 87.272727 20.096076 L 88.111888 20.351240 L 88.951049 20.403381 L 89.790210 20.112663 L 90.629371 20.607705 L 91.468531 19.708880 L 92.307692 20.357355 L 93.146853 20.711530 L 93.986014 17.697380 L 94.825175 18.397303 L 95.664336 27.915643 L 96.503497 20.078054 L 97.342657 27.618743 L 98.181818 22.119028 L 99.020979 23.146001 L 99.860140 28.875679 L 100.699301 30.971749 L 101.538462 33.758926 L 102.377622 28.400652 L 103.216783 23.311966 L 104.055944 20.953638 L 104.895105 18.370143 L 105.734266 21.381811 L 106.573427 21.352827 L 107.412587 21.391236 L 108.251748 20.933572 L 109.090909 20.901700 L 109.930070 20.100552 L 110.769231 19.194093 L 111.608392 22.192552 L 112.447552 28.001345 L 113.286713 27.340354 L 114.125874 29.033182 L 114.965035 28.214080 L 115.804196 28.449229 L 116.643357 32.312226 L 117.482517 33.562389 L 118.321678 34.585696 L 119.160839 28.767344 L 120.000000 29.039178"></path>
      <path stroke="none" fill-opacity="0.6" fill="url(#color_grad)" d="M 0 40 L 0.000000 27.858080 L 0.839161 27.896270 L 1.678322 29.129137 L 2.517483 29.551550 L 3.356643 29.360485 L 4.195804 30.728746 L 5.034965 26.282708 L 5.874126 23.118588 L 6.713287 22.735698 L 7.552448 22.528013 L 8.391608 23.315986 L 9.230769 24.496679 L 10.069930 24.539446 L 10.909091 23.811957 L 11.748252 22.222296 L 12.587413 14.303836 L 13.426573 13.863637 L 14.265734 14.101573 L 15.104895 18.018332 L 15.944056 14.576465 L 16.783217 16.100135 L 17.622378 15.405954 L 18.461538 14.866930 L 19.300699 14.793135 L 20.139860 14.691894 L 20.979021 13.980637 L 21.818182 8.800000 L 22.657343 10.382939 L 23.496503 11.873706 L 24.335664 13.960656 L 25.174825 13.548326 L 26.013986 14.636155 L 26.853147 14.917736 L 27.692308 22.267326 L 28.531469 29.458771 L 29.370629 21.000880 L 30.209790 20.834087 L 31.048951 20.664220 L 31.888112 22.301698 L 32.727273 19.741022 L 33.566434 20.256637 L 34.405594 21.173315 L 35.244755 21.139450 L 36.083916 21.797907 L 36.923077 21.102392 L 37.762238 19.993467 L 38.601399 19.687175 L 39.440559 19.823177 L 40.279720 19.511718 L 41.118881 18.553151 L 41.958042 20.131597 L 42.797203 21.236350 L 43.636364 21.671752 L 44.475524 30.167274 L 45.314685 29.236036 L 46.153846 29.219771 L 46.993007 36.800000 L 47.832168 20.290012 L 48.671329 20.875570 L 49.510490 20.468038 L 50.349650 23.207550 L 51.188811 30.057013 L 52.027972 19.829798 L 52.867133 19.781407 L 53.706294 19.746343 L 54.545455 19.656925 L 55.384615 19.092463 L 56.223776 18.759620 L 57.062937 17.329540 L 57.902098 21.546763 L 58.741259 22.141796 L 59.580420 16.144371 L 60.419580 16.271674 L 61.258741 23.176623 L 62.097902 23.203665 L 62.937063 28.563662 L 63.776224 22.173702 L 64.615385 22.190035 L 65.454545 22.277562 L 66.293706 24.095835 L 67.132867 23.847799 L 67.972028 25.492202 L 68.811189 25.364037 L 69.650350 28.270748 L 70.489510 28.142667 L 71.328671 30.272840 L 72.167832 30.479731 L 73.006993 30.071793 L 73.846154 30.243872 L 74.685315 28.923800 L 75.524476 28.926063 L 76.363636 28.673146 L 77.202797 28.955351 L 78.041958 30.456270 L 78.881119 31.849275 L 79.720280 31.416188 L 80.559441 33.079136 L 81.398601 29.294224 L 82.237762 28.708463 L 83.076923 23.052309 L 83.916084 20.817923 L 84.755245 22.390373 L 85.594406 25.516710 L 86.433566 20.760276 L 87.272727 20.096076 L 88.111888 20.351240 L 88.951049 20.403381 L 89.790210 20.112663 L 90.629371 20.607705 L 91.468531 19.708880 L 92.307692 20.357355 L 93.146853 20.711530 L 93.986014 17.697380 L 94.825175 18.397303 L 95.664336 27.915643 L 96.503497 20.078054 L 97.342657 27.618743 L 98.181818 22.119028 L 99.020979 23.146001 L 99.860140 28.875679 L 100.699301 30.971749 L 101.538462 33.758926 L 102.377622 28.400652 L 103.216783 23.311966 L 104.055944 20.953638 L 104.895105 18.370143 L 105.734266 21.381811 L 106.573427 21.352827 L 107.412587 21.391236 L 108.251748 20.933572 L 109.090909 20.901700 L 109.930070 20.100552 L 110.769231 19.194093 L 111.608392 22.192552 L 112.447552 28.001345 L 113.286713 27.340354 L 114.125874 29.033182 L 114.965035 28.214080 L 115.804196 28.449229 L 116.643357 32.312226 L 117.482517 33.562389 L 118.321678 34.585696 L 119.160839 28.767344 L 120.000000 29.039178 L 120 40 Z"></path>
    </g>
  </svg>