<svg xmlns="http://www.w3.org/2000/svg" viewBox="0 0 120 40" width="120" height="40">
    <defs>
      <linearGradient id="color_grad" x1="0%" x2="0%" y1="0%" y2="100%">
        <stop offset="0%" style="stop-color:#888888;stop-opacity:0.4;"></stop>
        <stop offset="100%" style="stop-color:#888888;stop-opacity:0.0;"></stop>
      </linearGradient>
    </defs>
    <g>
      <path stroke="#888888" stroke-width="2" stroke-linecap="round" stroke-linejoin="round" fill="none" d="M 0.000000 10.447059 L 0.839161 12.917647 L 1.678322 12.917647 L 2.517483 12.917647 L 3.356643 12.917647 L 4.195804 12.917647 L 5.034965 13.741176 L 5.874126 13.741176 L 6.713287 13.741176 L 7.552448 13.741176 L 8.391608 15.388235 L 9.230769 15.388235 L 10.069930 18.682353 L 10.909091 8.882353 L 11.748252 9.801481 L 12.587413 11.649412 L 13.426573 11.649412 L 14.265734 11.649412 L 15.104895 10.875294 L 15.944056 10.875294 L 16.783217 10.875294 L 17.622378 10.875294 L 18.461538 8.800000 L 19.300699 8.800000 L 20.139860 8.964706 L 20.979021 8.964706 L 21.818182 8.964706 L 22.657343 18.682353 L 23.496503 18.682353 L 24.335664 18.682353 L 25.174825 18.682353 L 26.013986 18.682353 L 26.853147 18.682353 L 27.692308 9.903529 L 28.531469 10.447059 L 29.370629 10.957647 L 30.209790 13.296471 L 31.048951 13.296471 L 31.888112 13.296471 L 32.727273 13.296471 L 33.566434 13.296471 L 34.405594 13.296471 L 35.244755 13.296471 L 36.083916 13.296471 L 36.923077 13.296471 L 37.762238 13.296471 L 38.601399 13.296471 L 39.440559 13.296471 L 40.279720 13.296471 L 41.118881 13.296471 L 41.958042 13.296471 L 42.797203 13.296471 L 43.636364 17.786952 L 44.475524 18.682353 L 45.314685 18.682353 L 46.153846 22.698643 L 46.993007 22.800000 L 47.832168 23.458824 L 48.671329 23.458824 L 49.510490 23.458824 L 50.349650 26.011765 L 51.188811 26.011765 L 52.027972 26.011765 L 52.867133 26.472941 L 53.706294 26.472941 L 54.545455 26.472941 L 55.384615 26.472941 L 56.223776 26.472941 L 57.062937 26.472941 L 57.902098 26.472941 L 58.741259 26.472941 L 59.580420 26.472941 L 60.419580 26.472941 L 61.258741 26.472941 L 62.097902 26.472941 L 62.937063 26.472941 L 63.776224 26.556907 L 64.615385 26.967059 L 65.454545 27.312941 L 66.293706 30.832579 L 67.132867 29.388235 L 67.972028 28.597647 L 68.811189 28.597647 L 69.650350 28.597647 L 70.489510 28.597647 L 71.328671 28.597647 L 72.167832 28.597647 L 73.006993 28.597647 L 73.846154 28.597647 L 74.685315 28.597647 L 75.524476 28.597647 L 76.363636 28.597647 L 77.202797 28.597647 L 78.041958 28.597647 L 78.881119 28.597647 L 79.720280 28.597647 L 80.559441 28.235294 L 81.398601 28.235294 L 82.237762 28.235294 L 83.076923 28.235294 L 83.916084 28.235294 L 84.755245 28.235294 L 85.594406 28.235294 L 86.433566 28.235294 L 87.272727 28.235294 L 88.111888 28.235294 L 88.951049 28.235294 L 89.790210 28.235294 L 90.629371 28.235294 L 91.468531 28.235294 L 92.307692 28.235294 L 93.146853 28.235294 L 93.986014 28.235294 L 94.825175 28.235294 L 95.664336 28.235294 L 96.503497 28.235294 L 97.342657 28.235294 L 98.181818 30.032086 L 99.020979 30.211765 L 99.860140 30.705882 L 100.699301 30.705882 L 101.538462 30.211765 L 102.377622 30.211765 L 103.216783 30.741588 L 104.055944 33.505882 L 104.895105 33.505882 L 105.734266 33.505882 L 106.573427 33.505882 L 107.412587 33.505882 L 108.251748 33.505882 L 109.090909 33.505882 L 109.930070 33.505882 L 110.769231 33.505882 L 111.608392 33.505882 L 112.447552 36.800000 L 113.286713 33.505882 L 114.125874 33.505882 L 114.965035 33.505882 L 115.804196 33.505882 L 116.643357 33.505882 L 117.482517 33.505882 L 118.321678 33.505882 L 119.160839 30.211765 L 120.000000 30.211765"></path>
      <path stroke="none" fill-opacity="0.6" fill="url(#color_grad)" d="M 0 40 L 0.000000 10.447059 L 0.839161 12.917647 L 1.678322 12.917647 L 2.517483 12.917647 L 3.356643 12.917647 L 4.195804 12.917647 L 5.034965 13.741176 L 5.874126 13.741176 L 6.713287 13.741176 L 7.552448 13.741176 L 8.391608 15.388235 L 9.230769 15.388235 L 10.069930 18.682353 L 10.909091 8.882353 L 11.748252 9.801481 L 12.587413 11.649412 L 13.426573 11.649412 L 14.265734 11.649412 L 15.104895 10.875294 L 15.944056 10.875294 L 16.783217 10.875294 L 17.622378 10.875294 L 18.461538 8.800000 L 19.300699 8.800000 L 20.139860 8.964706 L 20.979021 8.964706 L 21.818182 8.964706 L 22.657343 18.682353 L 23.496503 18.682353 L 24.335664 18.682353 L 25.174825 18.682353 L 26.013986 18.682353 L 26.853147 18.682353 L 27.692308 9.903529 L 28.531469 10.447059 L 29.370629 10.957647 L 30.209790 13.296471 L 31.048951 13.296471 L 31.888112 13.296471 L 32.727273 13.296471 L 33.566434 13.296471 L 34.405594 13.296471 L 35.244755 13.296471 L 36.083916 13.296471 L 36.923077 13.296471 L 37.762238 13.296471 L 38.601399 13.296471 L 39.440559 13.296471 L 40.279720 13.296471 L 41.118881 13.296471 L 41.958042 13.296471 L 42.797203 13.296471 L 43.636364 17.786952 L 44.475524 18.682353 L 45.314685 18.682353 L 46.153846 22.698643 L 46.993007 22.800000 L 47.832168 23.458824 L 48.671329 23.458824 L 49.510490 23.458824 L 50.349650 26.011765 L 51.188811 26.011765 L 52.027972 26.011765 L 52.867133 26.472941 L 53.706294 26.472941 L 54.545455 26.472941 L 55.384615 26.472941 L 56.223776 26.472941 L 57.062937 26.472941 L 57.902098 26.472941 L 58.741259 26.472941 L 59.580420 26.472941 L 60.419580 26.472941 L 61.258741 26.472941 L 62.097902 26.472941 L 62.937063 26.472941 L 63.776224 26.556907 L 64.615385 26.967059 L 65.454545 27.312941 L 66.293706 30.832579 L 67.132867 29.388235 L 67.972028 28.597647 L 68.811189 28.597647 L 69.650350 28.597647 L 70.489510 28.597647 L 71.328671 28.597647 L 72.167832 28.597647 L 73.006993 28.597647 L 73.846154 28.597647 L 74.685315 28.597647 L 75.524476 28.597647 L 76.363636 28.597647 L 77.202797 28.597647 L 78.041958 28.597647 L 78.881119 28.597647 L 79.720280 28.597647 L 80.559441 28.235294 L 81.398601 28.235294 L 82.237762 28.235294 L 83.076923 28.235294 L 83.916084 28.235294 L 84.755245 28.235294 L 85.594406 28.235294 L 86.433566 28.235294 L 87.272727 28.235294 L 88.111888 28.235294 L 88.951049 28.235294 L 89.790210 28.235294 L 90.629371 28.235294 L 91.468531 28.235294 L 92.307692 28.235294 L 93.146853 28.235294 L 93.986014 28.235294 L 94.825175 28.235294 L 95.664336 28.235294 L 96.503497 28.235294 L 97.342657 28.235294 L 98.181818 30.032086 L 99.020979 30.211765 L 99.860140 30.705882 L 100.699301 30.705882 L 101.538462 30.211765 L 102.377622 30.211765 L 103.216783 30.741588 L 104.055944 33.505882 L 104.895105 33.505882 L 105.734266 33.505882 L 106.573427 33.505882 L 107.412587 33.505882 L 108.251748 33.505882 L 109.090909 33.505882 L 109.930070 33.505882 L 110.769231 33.505882 L 111.608392 33.505882 L 112.447552 36.800000 L 113.286713 33.505882 L 114.125874 33.505882 L 114.965035 33.505882 L 115.804196 33.505882 L 116.643357 33.505882 L 117.482517 33.505882 L 118.321678 33.505882 L 119.160839 30.211765 L 120.000000 30.211765 L 120 40 Z"></path>
    </g>
  </svg>