<svg xmlns="http://www.w3.org/2000/svg" viewBox="0 0 120 40" width="120" height="40">
    <defs>
      <linearGradient id="color_grad" x1="0%" x2="0%" y1="0%" y2="100%">
        <stop offset="0%" style="stop-color:#16C784;stop-opacity:0.4;"></stop>
        <stop offset="100%" style="stop-color:#16C784;stop-opacity:0.0;"></stop>
      </linearGradient>
    </defs>
    <g>
      <path stroke="#16C784" stroke-width="2" stroke-linecap="round" stroke-linejoin="round" fill="none" d="M 0.000000 17.567326 L 0.839161 20.310794 L 1.678322 21.547650 L 2.517483 21.971022 L 3.356643 21.778963 L 4.195804 23.152235 L 5.034965 23.398581 L 5.874126 23.513504 L 6.713287 23.155618 L 7.552448 22.962091 L 8.391608 24.422102 L 9.230769 23.475014 L 10.069930 26.759107 L 10.909091 16.074216 L 11.748252 17.383110 L 12.587413 20.459699 L 13.426573 19.998521 L 14.265734 19.601177 L 15.104895 18.880615 L 15.944056 18.500544 L 16.783217 17.802122 L 17.622378 17.156444 L 18.461538 14.356341 L 19.300699 14.284200 L 20.139860 14.371295 L 20.979021 13.699913 L 21.818182 8.800000 L 22.657343 21.447097 L 23.496503 20.921861 L 24.335664 21.081061 L 25.174825 20.714496 L 26.013986 20.969378 L 26.853147 21.220836 L 27.692308 11.283143 L 28.531469 12.776829 L 29.370629 13.347942 L 30.209790 15.341224 L 31.048951 15.174657 L 31.888112 15.214223 L 32.727273 15.052155 L 33.566434 14.772262 L 34.405594 15.107643 L 35.244755 14.853670 L 36.083916 15.506503 L 36.923077 15.484638 L 37.762238 14.514317 L 38.601399 14.211007 L 39.440559 14.345871 L 40.279720 14.038793 L 41.118881 13.093285 L 41.958042 14.650032 L 42.797203 15.738591 L 43.636364 21.008996 L 44.475524 21.275687 L 45.314685 20.330323 L 46.153846 24.968895 L 46.993007 24.582246 L 47.832168 24.993207 L 48.671329 25.521891 L 49.510490 25.080986 L 50.349650 28.042437 L 51.188811 28.143637 L 52.027972 27.571172 L 52.867133 28.141538 L 53.706294 28.110378 L 54.545455 28.031830 L 55.384615 27.540437 L 56.223776 27.249869 L 57.062937 26.001494 L 57.902098 26.055014 L 58.741259 26.591245 L 59.580420 27.051291 L 60.419580 27.160486 L 61.258741 27.527031 L 62.097902 27.551847 L 62.937063 28.729308 L 63.776224 30.325878 L 64.615385 30.740071 L 65.454545 31.215463 L 66.293706 36.767833 L 67.132867 34.925756 L 67.972028 35.431468 L 68.811189 35.057880 L 69.650350 35.886747 L 70.489510 35.775223 L 71.328671 35.600670 L 72.167832 35.785782 L 73.006993 35.423453 L 73.846154 34.882395 L 74.685315 33.701462 L 75.524476 33.632761 L 76.363636 33.406983 L 77.202797 33.659201 L 78.041958 34.369409 L 78.881119 34.206369 L 79.720280 33.809474 L 80.559441 34.922205 L 81.398601 34.325375 L 82.237762 33.881827 L 83.076923 32.322379 L 83.916084 30.397475 L 84.755245 31.422500 L 85.594406 30.674285 L 86.433566 30.347523 L 87.272727 29.775542 L 88.111888 29.996036 L 88.951049 30.040250 L 89.790210 29.079543 L 90.629371 29.509246 L 91.468531 28.729776 L 92.307692 29.292251 L 93.146853 30.306553 L 93.986014 27.709343 L 94.825175 28.312900 L 95.664336 30.189259 L 96.503497 29.759544 L 97.342657 29.916556 L 98.181818 32.916385 L 99.020979 33.994494 L 99.860140 33.940726 L 100.699301 32.141207 L 101.538462 34.149114 L 102.377622 32.941085 L 103.216783 33.015086 L 104.055944 36.674123 L 104.895105 34.579369 L 105.734266 34.941910 L 106.573427 34.714488 L 107.412587 34.330103 L 108.251748 33.949940 L 109.090909 33.853075 L 109.930070 33.185560 L 110.769231 32.429899 L 111.608392 32.886174 L 112.447552 36.800000 L 113.286713 32.206089 L 114.125874 32.200002 L 114.965035 32.608668 L 115.804196 30.888177 L 116.643357 28.798630 L 117.482517 30.007183 L 118.321678 30.994373 L 119.160839 27.113598 L 120.000000 27.372206"></path>
      <path stroke="none" fill-opacity="0.6" fill="url(#color_grad)" d="M 0 40 L 0.000000 17.567326 L 0.839161 20.310794 L 1.678322 21.547650 L 2.517483 21.971022 L 3.356643 21.778963 L 4.195804 23.152235 L 5.034965 23.398581 L 5.874126 23.513504 L 6.713287 23.155618 L 7.552448 22.962091 L 8.391608 24.422102 L 9.230769 23.475014 L 10.069930 26.759107 L 10.909091 16.074216 L 11.748252 17.383110 L 12.587413 20.459699 L 13.426573 19.998521 L 14.265734 19.601177 L 15.104895 18.880615 L 15.944056 18.500544 L 16.783217 17.802122 L 17.622378 17.156444 L 18.461538 14.356341 L 19.300699 14.284200 L 20.139860 14.371295 L 20.979021 13.699913 L 21.818182 8.800000 L 22.657343 21.447097 L 23.496503 20.921861 L 24.335664 21.081061 L 25.174825 20.714496 L 26.013986 20.969378 L 26.853147 21.220836 L 27.692308 11.283143 L 28.531469 12.776829 L 29.370629 13.347942 L 30.209790 15.341224 L 31.048951 15.174657 L 31.888112 15.214223 L 32.727273 15.052155 L 33.566434 14.772262 L 34.405594 15.107643 L 35.244755 14.853670 L 36.083916 15.506503 L 36.923077 15.484638 L 37.762238 14.514317 L 38.601399 14.211007 L 39.440559 14.345871 L 40.279720 14.038793 L 41.118881 13.093285 L 41.958042 14.650032 L 42.797203 15.738591 L 43.636364 21.008996 L 44.475524 21.275687 L 45.314685 20.330323 L 46.153846 24.968895 L 46.993007 24.582246 L 47.832168 24.993207 L 48.671329 25.521891 L 49.510490 25.080986 L 50.349650 28.042437 L 51.188811 28.143637 L 52.027972 27.571172 L 52.867133 28.141538 L 53.706294 28.110378 L 54.545455 28.031830 L 55.384615 27.540437 L 56.223776 27.249869 L 57.062937 26.001494 L 57.902098 26.055014 L 58.741259 26.591245 L 59.580420 27.051291 L 60.419580 27.160486 L 61.258741 27.527031 L 62.097902 27.551847 L 62.937063 28.729308 L 63.776224 30.325878 L 64.615385 30.740071 L 65.454545 31.215463 L 66.293706 36.767833 L 67.132867 34.925756 L 67.972028 35.431468 L 68.811189 35.057880 L 69.650350 35.886747 L 70.489510 35.775223 L 71.328671 35.600670 L 72.167832 35.785782 L 73.006993 35.423453 L 73.846154 34.882395 L 74.685315 33.701462 L 75.524476 33.632761 L 76.363636 33.406983 L 77.202797 33.659201 L 78.041958 34.369409 L 78.881119 34.206369 L 79.720280 33.809474 L 80.559441 34.922205 L 81.398601 34.325375 L 82.237762 33.881827 L 83.076923 32.322379 L 83.916084 30.397475 L 84.755245 31.422500 L 85.594406 30.674285 L 86.433566 30.347523 L 87.272727 29.775542 L 88.111888 29.996036 L 88.951049 30.040250 L 89.790210 29.079543 L 90.629371 29.509246 L 91.468531 28.729776 L 92.307692 29.292251 L 93.146853 30.306553 L 93.986014 27.709343 L 94.825175 28.312900 L 95.664336 30.189259 L 96.503497 29.759544 L 97.342657 29.916556 L 98.181818 32.916385 L 99.020979 33.994494 L 99.860140 33.940726 L 100.699301 32.141207 L 101.538462 34.149114 L 102.377622 32.941085 L 103.216783 33.015086 L 104.055944 36.674123 L 104.895105 34.579369 L 105.734266 34.941910 L 106.573427 34.714488 L 107.412587 34.330103 L 108.251748 33.949940 L 109.090909 33.853075 L 109.930070 33.185560 L 110.769231 32.429899 L 111.608392 32.886174 L 112.447552 36.800000 L 113.286713 32.206089 L 114.125874 32.200002 L 114.965035 32.608668 L 115.804196 30.888177 L 116.643357 28.798630 L 117.482517 30.007183 L 118.321678 30.994373 L 119.160839 27.113598 L 120.000000 27.372206 L 120 40 Z"></path>
    </g>
  </svg>