<svg xmlns="http://www.w3.org/2000/svg" viewBox="0 0 120 40" width="120" height="40">
    <defs>
      <linearGradient id="color_grad" x1="0%" x2="0%" y1="0%" y2="100%">
        <stop offset="0%" style="stop-color:#16C784;stop-opacity:0.4;"></stop>
        <stop offset="100%" style="stop-color:#16C784;stop-opacity:0.0;"></stop>
      </linearGradient>
    </defs>
    <g>
      <path stroke="#16C784" stroke-width="2" stroke-linecap="round" stroke-linejoin="round" fill="none" d="M 0.000000 18.981786 L 0.839161 22.938576 L 1.678322 24.095977 L 2.517483 24.492066 L 3.356643 13.991433 L 4.195804 15.401852 L 5.034965 14.746340 L 5.874126 21.267326 L 6.713287 20.917343 L 7.552448 20.728167 L 8.391608 21.441801 L 9.230769 12.966477 L 10.069930 12.631468 L 10.909091 13.316479 L 11.748252 13.619059 L 12.587413 14.688842 L 13.426573 16.165311 L 14.265734 17.070482 L 15.104895 17.189682 L 15.944056 16.819661 L 16.783217 16.139344 L 17.622378 15.510831 L 18.461538 15.023665 L 19.300699 20.063739 L 20.139860 14.863526 L 20.979021 14.221405 L 21.818182 9.534121 L 22.657343 10.966138 L 23.496503 10.414111 L 24.335664 10.581393 L 25.174825 10.195904 L 26.013986 11.839207 L 26.853147 12.100391 L 27.692308 12.386045 L 28.531469 14.579086 L 29.370629 14.568666 L 30.209790 20.619464 L 31.048951 15.226261 L 31.888112 17.762771 L 32.727273 13.245619 L 33.566434 10.473026 L 34.405594 10.807204 L 35.244755 10.554218 L 36.083916 11.204502 L 36.923077 27.584829 L 37.762238 26.751291 L 38.601399 9.913519 L 39.440559 10.048237 L 40.279720 9.742258 L 41.118881 8.800000 L 41.958042 10.351448 L 42.797203 14.163344 L 43.636364 17.028467 L 44.475524 16.271496 L 45.314685 15.323805 L 46.153846 15.308032 L 46.993007 14.780891 L 47.832168 14.405947 L 48.671329 14.962512 L 49.510490 14.498130 L 50.349650 14.478674 L 51.188811 14.588258 L 52.027972 13.968728 L 52.867133 18.197019 L 53.706294 18.164726 L 54.545455 18.082184 L 55.384615 17.566678 L 56.223776 17.262110 L 57.062937 15.952506 L 57.902098 16.008973 L 58.741259 17.990633 L 59.580420 18.467094 L 60.419580 18.580002 L 61.258741 21.773075 L 62.097902 21.798002 L 62.937063 22.986677 L 63.776224 24.500769 L 64.615385 24.442992 L 65.454545 24.521833 L 66.293706 28.824566 L 67.132867 28.611367 L 67.972028 30.023267 L 68.811189 29.646714 L 69.650350 30.481289 L 70.489510 30.369056 L 71.328671 30.193540 L 72.167832 30.379537 L 73.006993 29.948335 L 73.846154 30.811966 L 74.685315 29.638942 L 75.524476 28.212423 L 76.363636 27.984923 L 77.202797 28.238949 L 78.041958 28.953710 L 78.881119 28.789844 L 79.720280 28.390236 L 80.559441 29.918499 L 81.398601 29.320315 L 82.237762 30.225135 L 83.076923 28.682195 L 83.916084 26.777815 L 84.755245 34.306147 L 85.594406 36.800000 L 86.433566 32.316451 L 87.272727 31.780881 L 88.111888 31.987264 L 88.951049 32.028761 L 89.790210 31.129762 L 90.629371 31.531853 L 91.468531 25.128186 L 92.307692 25.684566 L 93.146853 26.688133 L 93.986014 24.118664 L 94.825175 26.140171 L 95.664336 27.971138 L 96.503497 27.552028 L 97.342657 27.705155 L 98.181818 28.587257 L 99.020979 32.213555 L 99.860140 31.603913 L 100.699301 29.847293 L 101.538462 32.363918 L 102.377622 31.191135 L 103.216783 30.658766 L 104.055944 28.288673 L 104.895105 26.116595 L 105.734266 26.492356 L 106.573427 26.256652 L 107.412587 25.857523 L 108.251748 25.463395 L 109.090909 26.080352 L 109.930070 25.392842 L 110.769231 24.614421 L 111.608392 25.084556 L 112.447552 24.993976 L 113.286713 24.383833 L 114.125874 24.377376 L 114.965035 24.798474 L 115.804196 23.026568 L 116.643357 20.873882 L 117.482517 10.948482 L 118.321678 15.021669 L 119.160839 18.171011 L 120.000000 18.439764"></path>
      <path stroke="none" fill-opacity="0.6" fill="url(#color_grad)" d="M 0 40 L 0.000000 18.981786 L 0.839161 22.938576 L 1.678322 24.095977 L 2.517483 24.492066 L 3.356643 13.991433 L 4.195804 15.401852 L 5.034965 14.746340 L 5.874126 21.267326 L 6.713287 20.917343 L 7.552448 20.728167 L 8.391608 21.441801 L 9.230769 12.966477 L 10.069930 12.631468 L 10.909091 13.316479 L 11.748252 13.619059 L 12.587413 14.688842 L 13.426573 16.165311 L 14.265734 17.070482 L 15.104895 17.189682 L 15.944056 16.819661 L 16.783217 16.139344 L 17.622378 15.510831 L 18.461538 15.023665 L 19.300699 20.063739 L 20.139860 14.863526 L 20.979021 14.221405 L 21.818182 9.534121 L 22.657343 10.966138 L 23.496503 10.414111 L 24.335664 10.581393 L 25.174825 10.195904 L 26.013986 11.839207 L 26.853147 12.100391 L 27.692308 12.386045 L 28.531469 14.579086 L 29.370629 14.568666 L 30.209790 20.619464 L 31.048951 15.226261 L 31.888112 17.762771 L 32.727273 13.245619 L 33.566434 10.473026 L 34.405594 10.807204 L 35.244755 10.554218 L 36.083916 11.204502 L 36.923077 27.584829 L 37.762238 26.751291 L 38.601399 9.913519 L 39.440559 10.048237 L 40.279720 9.742258 L 41.118881 8.800000 L 41.958042 10.351448 L 42.797203 14.163344 L 43.636364 17.028467 L 44.475524 16.271496 L 45.314685 15.323805 L 46.153846 15.308032 L 46.993007 14.780891 L 47.832168 14.405947 L 48.671329 14.962512 L 49.510490 14.498130 L 50.349650 14.478674 L 51.188811 14.588258 L 52.027972 13.968728 L 52.867133 18.197019 L 53.706294 18.164726 L 54.545455 18.082184 L 55.384615 17.566678 L 56.223776 17.262110 L 57.062937 15.952506 L 57.902098 16.008973 L 58.741259 17.990633 L 59.580420 18.467094 L 60.419580 18.580002 L 61.258741 21.773075 L 62.097902 21.798002 L 62.937063 22.986677 L 63.776224 24.500769 L 64.615385 24.442992 L 65.454545 24.521833 L 66.293706 28.824566 L 67.132867 28.611367 L 67.972028 30.023267 L 68.811189 29.646714 L 69.650350 30.481289 L 70.489510 30.369056 L 71.328671 30.193540 L 72.167832 30.379537 L 73.006993 29.948335 L 73.846154 30.811966 L 74.685315 29.638942 L 75.524476 28.212423 L 76.363636 27.984923 L 77.202797 28.238949 L 78.041958 28.953710 L 78.881119 28.789844 L 79.720280 28.390236 L 80.559441 29.918499 L 81.398601 29.320315 L 82.237762 30.225135 L 83.076923 28.682195 L 83.916084 26.777815 L 84.755245 34.306147 L 85.594406 36.800000 L 86.433566 32.316451 L 87.272727 31.780881 L 88.111888 31.987264 L 88.951049 32.028761 L 89.790210 31.129762 L 90.629371 31.531853 L 91.468531 25.128186 L 92.307692 25.684566 L 93.146853 26.688133 L 93.986014 24.118664 L 94.825175 26.140171 L 95.664336 27.971138 L 96.503497 27.552028 L 97.342657 27.705155 L 98.181818 28.587257 L 99.020979 32.213555 L 99.860140 31.603913 L 100.699301 29.847293 L 101.538462 32.363918 L 102.377622 31.191135 L 103.216783 30.658766 L 104.055944 28.288673 L 104.895105 26.116595 L 105.734266 26.492356 L 106.573427 26.256652 L 107.412587 25.857523 L 108.251748 25.463395 L 109.090909 26.080352 L 109.930070 25.392842 L 110.769231 24.614421 L 111.608392 25.084556 L 112.447552 24.993976 L 113.286713 24.383833 L 114.125874 24.377376 L 114.965035 24.798474 L 115.804196 23.026568 L 116.643357 20.873882 L 117.482517 10.948482 L 118.321678 15.021669 L 119.160839 18.171011 L 120.000000 18.439764 L 120 40 Z"></path>
    </g>
  </svg>