<svg xmlns="http://www.w3.org/2000/svg" viewBox="0 0 120 40" width="120" height="40">
    <defs>
      <linearGradient id="color_grad" x1="0%" x2="0%" y1="0%" y2="100%">
        <stop offset="0%" style="stop-color:#16C784;stop-opacity:0.4;"></stop>
        <stop offset="100%" style="stop-color:#16C784;stop-opacity:0.0;"></stop>
      </linearGradient>
    </defs>
    <g>
      <path stroke="#16C784" stroke-width="2" stroke-linecap="round" stroke-linejoin="round" fill="none" d="M 0.000000 14.886957 L 0.839161 18.539130 L 1.678322 18.539130 L 2.517483 18.539130 L 3.356643 8.800000 L 4.195804 8.800000 L 5.034965 8.800000 L 5.874126 14.886957 L 6.713287 14.886957 L 7.552448 14.886957 L 8.391608 15.865978 L 9.230769 8.800000 L 10.069930 8.800000 L 10.909091 9.408696 L 11.748252 9.408696 L 12.587413 9.408696 L 13.426573 11.234783 L 14.265734 12.452174 L 15.104895 12.452174 L 15.944056 12.452174 L 16.783217 12.452174 L 17.622378 12.452174 L 18.461538 12.452174 L 19.300699 17.151475 L 20.139860 12.452174 L 20.979021 12.452174 L 21.818182 12.452174 L 22.657343 12.452174 L 23.496503 12.452174 L 24.335664 12.452174 L 25.174825 12.452174 L 26.013986 13.669565 L 26.853147 13.669565 L 27.692308 13.791304 L 28.531469 15.008696 L 29.370629 15.008696 L 30.209790 20.973913 L 31.048951 16.320584 L 31.888112 18.539130 L 32.727273 14.665613 L 33.566434 12.452174 L 34.405594 12.452174 L 35.244755 12.452174 L 36.083916 12.452174 L 36.923077 27.060870 L 37.762238 27.060870 L 38.601399 12.452174 L 39.440559 12.452174 L 40.279720 12.452174 L 41.118881 12.452174 L 41.958042 12.452174 L 42.797203 14.886957 L 43.636364 17.321739 L 44.475524 17.321739 L 45.314685 17.321739 L 46.153846 17.321739 L 46.993007 17.321739 L 47.832168 17.321739 L 48.671329 17.321739 L 49.510490 17.321739 L 50.349650 17.321739 L 51.188811 17.321739 L 52.027972 17.321739 L 52.867133 20.973913 L 53.706294 20.973913 L 54.545455 20.973913 L 55.384615 20.973913 L 56.223776 20.973913 L 57.062937 20.973913 L 57.902098 20.973913 L 58.741259 22.191304 L 59.580420 22.191304 L 60.419580 22.191304 L 61.258741 24.626087 L 62.097902 24.626087 L 62.937063 24.626087 L 63.776224 24.626087 L 64.615385 24.626087 L 65.454545 24.626087 L 66.293706 27.060870 L 67.132867 27.060870 L 67.972028 27.060870 L 68.811189 27.060870 L 69.650350 27.060870 L 70.489510 27.060870 L 71.328671 27.060870 L 72.167832 27.060870 L 73.006993 27.001277 L 73.846154 28.278261 L 74.685315 28.278261 L 75.524476 27.060870 L 76.363636 27.060870 L 77.202797 27.060870 L 78.041958 27.060870 L 78.881119 27.060870 L 79.720280 27.060870 L 80.559441 27.060870 L 81.398601 27.060870 L 82.237762 28.278261 L 83.076923 28.278261 L 83.916084 28.278261 L 84.755245 34.016175 L 85.594406 36.800000 L 86.433566 33.147826 L 87.272727 33.147826 L 88.111888 33.147826 L 88.951049 33.147826 L 89.790210 33.147826 L 90.629371 33.147826 L 91.468531 28.278261 L 92.307692 28.278261 L 93.146853 28.278261 L 93.986014 28.278261 L 94.825175 29.495652 L 95.664336 29.495652 L 96.503497 29.495652 L 97.342657 29.495652 L 98.181818 29.495652 L 99.020979 31.930435 L 99.860140 31.930435 L 100.699301 31.930435 L 101.538462 31.930435 L 102.377622 31.930435 L 103.216783 31.930435 L 104.055944 29.495652 L 104.895105 29.495652 L 105.734266 29.495652 L 106.573427 29.495652 L 107.412587 29.495652 L 108.251748 29.495652 L 109.090909 30.104348 L 109.930070 30.104348 L 110.769231 30.104348 L 111.608392 30.104348 L 112.447552 30.104348 L 113.286713 30.104348 L 114.125874 30.104348 L 114.965035 30.104348 L 115.804196 30.104348 L 116.643357 30.104348 L 117.482517 20.973913 L 118.321678 23.408696 L 119.160839 25.843478 L 120.000000 25.843478"></path>
      <path stroke="none" fill-opacity="0.6" fill="url(#color_grad)" d="M 0 40 L 0.000000 14.886957 L 0.839161 18.539130 L 1.678322 18.539130 L 2.517483 18.539130 L 3.356643 8.800000 L 4.195804 8.800000 L 5.034965 8.800000 L 5.874126 14.886957 L 6.713287 14.886957 L 7.552448 14.886957 L 8.391608 15.865978 L 9.230769 8.800000 L 10.069930 8.800000 L 10.909091 9.408696 L 11.748252 9.408696 L 12.587413 9.408696 L 13.426573 11.234783 L 14.265734 12.452174 L 15.104895 12.452174 L 15.944056 12.452174 L 16.783217 12.452174 L 17.622378 12.452174 L 18.461538 12.452174 L 19.300699 17.151475 L 20.139860 12.452174 L 20.979021 12.452174 L 21.818182 12.452174 L 22.657343 12.452174 L 23.496503 12.452174 L 24.335664 12.452174 L 25.174825 12.452174 L 26.013986 13.669565 L 26.853147 13.669565 L 27.692308 13.791304 L 28.531469 15.008696 L 29.370629 15.008696 L 30.209790 20.973913 L 31.048951 16.320584 L 31.888112 18.539130 L 32.727273 14.665613 L 33.566434 12.452174 L 34.405594 12.452174 L 35.244755 12.452174 L 36.083916 12.452174 L 36.923077 27.060870 L 37.762238 27.060870 L 38.601399 12.452174 L 39.440559 12.452174 L 40.279720 12.452174 L 41.118881 12.452174 L 41.958042 12.452174 L 42.797203 14.886957 L 43.636364 17.321739 L 44.475524 17.321739 L 45.314685 17.321739 L 46.153846 17.321739 L 46.993007 17.321739 L 47.832168 17.321739 L 48.671329 17.321739 L 49.510490 17.321739 L 50.349650 17.321739 L 51.188811 17.321739 L 52.027972 17.321739 L 52.867133 20.973913 L 53.706294 20.973913 L 54.545455 20.973913 L 55.384615 20.973913 L 56.223776 20.973913 L 57.062937 20.973913 L 57.902098 20.973913 L 58.741259 22.191304 L 59.580420 22.191304 L 60.419580 22.191304 L 61.258741 24.626087 L 62.097902 24.626087 L 62.937063 24.626087 L 63.776224 24.626087 L 64.615385 24.626087 L 65.454545 24.626087 L 66.293706 27.060870 L 67.132867 27.060870 L 67.972028 27.060870 L 68.811189 27.060870 L 69.650350 27.060870 L 70.489510 27.060870 L 71.328671 27.060870 L 72.167832 27.060870 L 73.006993 27.001277 L 73.846154 28.278261 L 74.685315 28.278261 L 75.524476 27.060870 L 76.363636 27.060870 L 77.202797 27.060870 L 78.041958 27.060870 L 78.881119 27.060870 L 79.720280 27.060870 L 80.559441 27.060870 L 81.398601 27.060870 L 82.237762 28.278261 L 83.076923 28.278261 L 83.916084 28.278261 L 84.755245 34.016175 L 85.594406 36.800000 L 86.433566 33.147826 L 87.272727 33.147826 L 88.111888 33.147826 L 88.951049 33.147826 L 89.790210 33.147826 L 90.629371 33.147826 L 91.468531 28.278261 L 92.307692 28.278261 L 93.146853 28.278261 L 93.986014 28.278261 L 94.825175 29.495652 L 95.664336 29.495652 L 96.503497 29.495652 L 97.342657 29.495652 L 98.181818 29.495652 L 99.020979 31.930435 L 99.860140 31.930435 L 100.699301 31.930435 L 101.538462 31.930435 L 102.377622 31.930435 L 103.216783 31.930435 L 104.055944 29.495652 L 104.895105 29.495652 L 105.734266 29.495652 L 106.573427 29.495652 L 107.412587 29.495652 L 108.251748 29.495652 L 109.090909 30.104348 L 109.930070 30.104348 L 110.769231 30.104348 L 111.608392 30.104348 L 112.447552 30.104348 L 113.286713 30.104348 L 114.125874 30.104348 L 114.965035 30.104348 L 115.804196 30.104348 L 116.643357 30.104348 L 117.482517 20.973913 L 118.321678 23.408696 L 119.160839 25.843478 L 120.000000 25.843478 L 120 40 Z"></path>
    </g>
  </svg>