<svg xmlns="http://www.w3.org/2000/svg" viewBox="0 0 120 40" width="120" height="40">
    <defs>
      <linearGradient id="color_grad" x1="0%" x2="0%" y1="0%" y2="100%">
        <stop offset="0%" style="stop-color:#EA3943;stop-opacity:0.4;"></stop>
        <stop offset="100%" style="stop-color:#EA3943;stop-opacity:0.0;"></stop>
      </linearGradient>
    </defs>
    <g>
      <path stroke="#EA3943" stroke-width="2" stroke-linecap="round" stroke-linejoin="round" fill="none" d="M 0.000000 13.573115 L 0.839161 13.573115 L 1.678322 13.573115 L 2.517483 13.573115 L 3.356643 13.573115 L 4.195804 13.573115 L 5.034965 13.573115 L 5.874126 13.573115 L 6.713287 13.573115 L 7.552448 14.374197 L 8.391608 13.573115 L 9.230769 12.092088 L 10.069930 8.800000 L 10.909091 8.800000 L 11.748252 12.715027 L 12.587413 14.002159 L 13.426573 14.002159 L 14.265734 14.002159 L 15.104895 14.002159 L 15.944056 14.002159 L 16.783217 12.715027 L 17.622378 12.715027 L 18.461538 12.715027 L 19.300699 12.715027 L 20.139860 12.715027 L 20.979021 12.715027 L 21.818182 12.715027 L 22.657343 12.715027 L 23.496503 12.715027 L 24.335664 12.715027 L 25.174825 12.715027 L 26.013986 12.715027 L 26.853147 12.715027 L 27.692308 12.715027 L 28.531469 12.715027 L 29.370629 12.715027 L 30.209790 12.715027 L 31.048951 12.715027 L 31.888112 12.715027 L 32.727273 12.715027 L 33.566434 15.289291 L 34.405594 14.646475 L 35.244755 12.715027 L 36.083916 12.715027 L 36.923077 12.715027 L 37.762238 12.715027 L 38.601399 12.715027 L 39.440559 12.715027 L 40.279720 12.715027 L 41.118881 13.255082 L 41.958042 22.368518 L 42.797203 12.715027 L 43.636364 13.680376 L 44.475524 13.680376 L 45.314685 17.005468 L 46.153846 17.005468 L 46.993007 17.005468 L 47.832168 17.005468 L 48.671329 17.005468 L 49.510490 19.279401 L 50.349650 19.279401 L 51.188811 19.279401 L 52.027972 19.279401 L 52.867133 19.279401 L 53.706294 19.279401 L 54.545455 19.279401 L 55.384615 19.279401 L 56.223776 19.279401 L 57.062937 19.279401 L 57.902098 19.279401 L 58.741259 19.279401 L 59.580420 19.279401 L 60.419580 19.279401 L 61.258741 20.223298 L 62.097902 20.223298 L 62.937063 30.949399 L 63.776224 30.949399 L 64.615385 19.279401 L 65.454545 19.686993 L 66.293706 19.686993 L 67.132867 20.223298 L 67.972028 20.223298 L 68.811189 20.223298 L 69.650350 20.223298 L 70.489510 20.223298 L 71.328671 20.223298 L 72.167832 20.223298 L 73.006993 20.223298 L 73.846154 20.223298 L 74.685315 20.223298 L 75.524476 20.223298 L 76.363636 20.223298 L 77.202797 20.223298 L 78.041958 25.586349 L 78.881119 25.586349 L 79.720280 25.586349 L 80.559441 25.586349 L 81.398601 25.586349 L 82.237762 25.586349 L 83.076923 28.309128 L 83.916084 36.800000 L 84.755245 25.586349 L 85.594406 25.586349 L 86.433566 25.586349 L 87.272727 25.586349 L 88.111888 25.586349 L 88.951049 25.586349 L 89.790210 25.586349 L 90.629371 25.586349 L 91.468531 25.586349 L 92.307692 25.586349 L 93.146853 25.586349 L 93.986014 25.586349 L 94.825175 26.658959 L 95.664336 28.804179 L 96.503497 32.022009 L 97.342657 32.022009 L 98.181818 32.022009 L 99.020979 32.022009 L 99.860140 32.022009 L 100.699301 32.022009 L 101.538462 32.022009 L 102.377622 32.022009 L 103.216783 32.022009 L 104.055944 32.022009 L 104.895105 32.022009 L 105.734266 32.022009 L 106.573427 32.022009 L 107.412587 32.022009 L 108.251748 32.022009 L 109.090909 32.022009 L 109.930070 32.022009 L 110.769231 32.022009 L 111.608392 32.022009 L 112.447552 32.022009 L 113.286713 32.022009 L 114.125874 32.022009 L 114.965035 32.022009 L 115.804196 32.022009 L 116.643357 32.022009 L 117.482517 34.167230 L 118.321678 34.167230 L 119.160839 34.167230 L 120.000000 34.167230"></path>
      <path stroke="none" fill-opacity="0.6" fill="url(#color_grad)" d="M 0 40 L 0.000000 13.573115 L 0.839161 13.573115 L 1.678322 13.573115 L 2.517483 13.573115 L 3.356643 13.573115 L 4.195804 13.573115 L 5.034965 13.573115 L 5.874126 13.573115 L 6.713287 13.573115 L 7.552448 14.374197 L 8.391608 13.573115 L 9.230769 12.092088 L 10.069930 8.800000 L 10.909091 8.800000 L 11.748252 12.715027 L 12.587413 14.002159 L 13.426573 14.002159 L 14.265734 14.002159 L 15.104895 14.002159 L 15.944056 14.002159 L 16.783217 12.715027 L 17.622378 12.715027 L 18.461538 12.715027 L 19.300699 12.715027 L 20.139860 12.715027 L 20.979021 12.715027 L 21.818182 12.715027 L 22.657343 12.715027 L 23.496503 12.715027 L 24.335664 12.715027 L 25.174825 12.715027 L 26.013986 12.715027 L 26.853147 12.715027 L 27.692308 12.715027 L 28.531469 12.715027 L 29.370629 12.715027 L 30.209790 12.715027 L 31.048951 12.715027 L 31.888112 12.715027 L 32.727273 12.715027 L 33.566434 15.289291 L 34.405594 14.646475 L 35.244755 12.715027 L 36.083916 12.715027 L 36.923077 12.715027 L 37.762238 12.715027 L 38.601399 12.715027 L 39.440559 12.715027 L 40.279720 12.715027 L 41.118881 13.255082 L 41.958042 22.368518 L 42.797203 12.715027 L 43.636364 13.680376 L 44.475524 13.680376 L 45.314685 17.005468 L 46.153846 17.005468 L 46.993007 17.005468 L 47.832168 17.005468 L 48.671329 17.005468 L 49.510490 19.279401 L 50.349650 19.279401 L 51.188811 19.279401 L 52.027972 19.279401 L 52.867133 19.279401 L 53.706294 19.279401 L 54.545455 19.279401 L 55.384615 19.279401 L 56.223776 19.279401 L 57.062937 19.279401 L 57.902098 19.279401 L 58.741259 19.279401 L 59.580420 19.279401 L 60.419580 19.279401 L 61.258741 20.223298 L 62.097902 20.223298 L 62.937063 30.949399 L 63.776224 30.949399 L 64.615385 19.279401 L 65.454545 19.686993 L 66.293706 19.686993 L 67.132867 20.223298 L 67.972028 20.223298 L 68.811189 20.223298 L 69.650350 20.223298 L 70.489510 20.223298 L 71.328671 20.223298 L 72.167832 20.223298 L 73.006993 20.223298 L 73.846154 20.223298 L 74.685315 20.223298 L 75.524476 20.223298 L 76.363636 20.223298 L 77.202797 20.223298 L 78.041958 25.586349 L 78.881119 25.586349 L 79.720280 25.586349 L 80.559441 25.586349 L 81.398601 25.586349 L 82.237762 25.586349 L 83.076923 28.309128 L 83.916084 36.800000 L 84.755245 25.586349 L 85.594406 25.586349 L 86.433566 25.586349 L 87.272727 25.586349 L 88.111888 25.586349 L 88.951049 25.586349 L 89.790210 25.586349 L 90.629371 25.586349 L 91.468531 25.586349 L 92.307692 25.586349 L 93.146853 25.586349 L 93.986014 25.586349 L 94.825175 26.658959 L 95.664336 28.804179 L 96.503497 32.022009 L 97.342657 32.022009 L 98.181818 32.022009 L 99.020979 32.022009 L 99.860140 32.022009 L 100.699301 32.022009 L 101.538462 32.022009 L 102.377622 32.022009 L 103.216783 32.022009 L 104.055944 32.022009 L 104.895105 32.022009 L 105.734266 32.022009 L 106.573427 32.022009 L 107.412587 32.022009 L 108.251748 32.022009 L 109.090909 32.022009 L 109.930070 32.022009 L 110.769231 32.022009 L 111.608392 32.022009 L 112.447552 32.022009 L 113.286713 32.022009 L 114.125874 32.022009 L 114.965035 32.022009 L 115.804196 32.022009 L 116.643357 32.022009 L 117.482517 34.167230 L 118.321678 34.167230 L 119.160839 34.167230 L 120.000000 34.167230 L 120 40 Z"></path>
    </g>
  </svg>