<svg xmlns="http://www.w3.org/2000/svg" viewBox="0 0 120 40" width="120" height="40">
    <defs>
      <linearGradient id="color_grad" x1="0%" x2="0%" y1="0%" y2="100%">
        <stop offset="0%" style="stop-color:#16C784;stop-opacity:0.4;"></stop>
        <stop offset="100%" style="stop-color:#16C784;stop-opacity:0.0;"></stop>
      </linearGradient>
    </defs>
    <g>
      <path stroke="#16C784" stroke-width="2" stroke-linecap="round" stroke-linejoin="round" fill="none" d="M 0.000000 19.134456 L 0.839161 19.182759 L 1.678322 20.798281 L 2.517483 21.351203 L 3.356643 21.100074 L 4.195804 22.893582 L 5.034965 22.060161 L 5.874126 22.211631 L 6.713287 21.740515 L 7.552448 22.370501 L 8.391608 21.063408 L 9.230769 18.145837 L 10.069930 14.018481 L 10.909091 14.061563 L 11.748252 18.839700 L 12.587413 21.642488 L 13.426573 21.049060 L 14.265734 20.538452 L 15.104895 20.694323 L 15.944056 20.209065 L 16.783217 17.868637 L 17.622378 17.036538 L 18.461538 16.391777 L 19.300699 16.300975 L 20.139860 16.179666 L 20.979021 15.329409 L 21.818182 9.123638 L 22.657343 11.019468 L 23.496503 10.288487 L 24.335664 10.510198 L 25.174825 9.999958 L 26.013986 10.354684 L 26.853147 10.704615 L 27.692308 10.903627 L 28.531469 12.019879 L 29.370629 12.005473 L 30.209790 11.117342 L 31.048951 10.897304 L 31.888112 10.949239 L 32.727273 10.735825 L 33.566434 13.407549 L 34.405594 13.084533 L 35.244755 10.474164 L 36.083916 11.335106 L 36.923077 11.306013 L 37.762238 10.026124 L 38.601399 9.625854 L 39.440559 9.804460 L 40.279720 9.399038 L 41.118881 8.800000 L 41.958042 21.620637 L 42.797203 11.641008 L 43.636364 12.960957 L 44.475524 11.918376 L 45.314685 14.562716 L 46.153846 14.541666 L 46.993007 13.833460 L 47.832168 13.329547 L 48.671329 14.077476 L 49.510490 16.174585 L 50.349650 16.148974 L 51.188811 16.293573 L 52.027972 15.475667 L 52.867133 15.518311 L 53.706294 15.473359 L 54.545455 15.360456 L 55.384615 14.654753 L 56.223776 14.237785 L 57.062937 12.444554 L 57.902098 12.521929 L 58.741259 13.291946 L 59.580420 13.952513 L 60.419580 14.109338 L 61.258741 15.776423 L 62.097902 15.811337 L 62.937063 30.308715 L 63.776224 32.265668 L 64.615385 18.434077 L 65.454545 19.026357 L 66.293706 21.297919 L 67.132867 21.611397 L 67.972028 23.657907 L 68.811189 23.112259 L 69.650350 24.322281 L 70.489510 24.159444 L 71.328671 23.904766 L 72.167832 24.174699 L 73.006993 23.646192 L 73.846154 22.856414 L 74.685315 21.132627 L 75.524476 21.032566 L 76.363636 20.703111 L 77.202797 21.071283 L 78.041958 28.321193 L 78.881119 28.093539 L 79.720280 27.538684 L 80.559441 29.660576 L 81.398601 28.830023 L 82.237762 28.212715 L 83.076923 29.248235 L 83.916084 36.800000 L 84.755245 24.788819 L 85.594406 23.747746 L 86.433566 23.292502 L 87.272727 22.496088 L 88.111888 22.803134 L 88.951049 22.864855 L 89.790210 21.527566 L 90.629371 22.125624 L 91.468531 21.040547 L 92.307692 21.823382 L 93.146853 23.235739 L 93.986014 19.619752 L 94.825175 21.772721 L 95.664336 26.940009 L 96.503497 30.241010 L 97.342657 30.447974 L 98.181818 31.639508 L 99.020979 32.813193 L 99.860140 31.966794 L 100.699301 29.527085 L 101.538462 33.021979 L 102.377622 31.393386 L 103.216783 30.653740 L 104.055944 31.236262 L 104.895105 28.302050 L 105.734266 28.809931 L 106.573427 28.491372 L 107.412587 27.952557 L 108.251748 27.420072 L 109.090909 27.284188 L 109.930070 26.349479 L 110.769231 25.290644 L 111.608392 25.930388 L 112.447552 25.806929 L 113.286713 24.977134 L 114.125874 24.968493 L 114.965035 25.541346 L 115.804196 23.131493 L 116.643357 20.203887 L 117.482517 24.641754 L 118.321678 25.999255 L 119.160839 26.252264 L 120.000000 26.594352"></path>
      <path stroke="none" fill-opacity="0.6" fill="url(#color_grad)" d="M 0 40 L 0.000000 19.134456 L 0.839161 19.182759 L 1.678322 20.798281 L 2.517483 21.351203 L 3.356643 21.100074 L 4.195804 22.893582 L 5.034965 22.060161 L 5.874126 22.211631 L 6.713287 21.740515 L 7.552448 22.370501 L 8.391608 21.063408 L 9.230769 18.145837 L 10.069930 14.018481 L 10.909091 14.061563 L 11.748252 18.839700 L 12.587413 21.642488 L 13.426573 21.049060 L 14.265734 20.538452 L 15.104895 20.694323 L 15.944056 20.209065 L 16.783217 17.868637 L 17.622378 17.036538 L 18.461538 16.391777 L 19.300699 16.300975 L 20.139860 16.179666 L 20.979021 15.329409 L 21.818182 9.123638 L 22.657343 11.019468 L 23.496503 10.288487 L 24.335664 10.510198 L 25.174825 9.999958 L 26.013986 10.354684 L 26.853147 10.704615 L 27.692308 10.903627 L 28.531469 12.019879 L 29.370629 12.005473 L 30.209790 11.117342 L 31.048951 10.897304 L 31.888112 10.949239 L 32.727273 10.735825 L 33.566434 13.407549 L 34.405594 13.084533 L 35.244755 10.474164 L 36.083916 11.335106 L 36.923077 11.306013 L 37.762238 10.026124 L 38.601399 9.625854 L 39.440559 9.804460 L 40.279720 9.399038 L 41.118881 8.800000 L 41.958042 21.620637 L 42.797203 11.641008 L 43.636364 12.960957 L 44.475524 11.918376 L 45.314685 14.562716 L 46.153846 14.541666 L 46.993007 13.833460 L 47.832168 13.329547 L 48.671329 14.077476 L 49.510490 16.174585 L 50.349650 16.148974 L 51.188811 16.293573 L 52.027972 15.475667 L 52.867133 15.518311 L 53.706294 15.473359 L 54.545455 15.360456 L 55.384615 14.654753 L 56.223776 14.237785 L 57.062937 12.444554 L 57.902098 12.521929 L 58.741259 13.291946 L 59.580420 13.952513 L 60.419580 14.109338 L 61.258741 15.776423 L 62.097902 15.811337 L 62.937063 30.308715 L 63.776224 32.265668 L 64.615385 18.434077 L 65.454545 19.026357 L 66.293706 21.297919 L 67.132867 21.611397 L 67.972028 23.657907 L 68.811189 23.112259 L 69.650350 24.322281 L 70.489510 24.159444 L 71.328671 23.904766 L 72.167832 24.174699 L 73.006993 23.646192 L 73.846154 22.856414 L 74.685315 21.132627 L 75.524476 21.032566 L 76.363636 20.703111 L 77.202797 21.071283 L 78.041958 28.321193 L 78.881119 28.093539 L 79.720280 27.538684 L 80.559441 29.660576 L 81.398601 28.830023 L 82.237762 28.212715 L 83.076923 29.248235 L 83.916084 36.800000 L 84.755245 24.788819 L 85.594406 23.747746 L 86.433566 23.292502 L 87.272727 22.496088 L 88.111888 22.803134 L 88.951049 22.864855 L 89.790210 21.527566 L 90.629371 22.125624 L 91.468531 21.040547 L 92.307692 21.823382 L 93.146853 23.235739 L 93.986014 19.619752 L 94.825175 21.772721 L 95.664336 26.940009 L 96.503497 30.241010 L 97.342657 30.447974 L 98.181818 31.639508 L 99.020979 32.813193 L 99.860140 31.966794 L 100.699301 29.527085 L 101.538462 33.021979 L 102.377622 31.393386 L 103.216783 30.653740 L 104.055944 31.236262 L 104.895105 28.302050 L 105.734266 28.809931 L 106.573427 28.491372 L 107.412587 27.952557 L 108.251748 27.420072 L 109.090909 27.284188 L 109.930070 26.349479 L 110.769231 25.290644 L 111.608392 25.930388 L 112.447552 25.806929 L 113.286713 24.977134 L 114.125874 24.968493 L 114.965035 25.541346 L 115.804196 23.131493 L 116.643357 20.203887 L 117.482517 24.641754 L 118.321678 25.999255 L 119.160839 26.252264 L 120.000000 26.594352 L 120 40 Z"></path>
    </g>
  </svg>