<svg xmlns="http://www.w3.org/2000/svg" viewBox="0 0 120 40" width="120" height="40">
    <defs>
      <linearGradient id="color_grad" x1="0%" x2="0%" y1="0%" y2="100%">
        <stop offset="0%" style="stop-color:#16C784;stop-opacity:0.4;"></stop>
        <stop offset="100%" style="stop-color:#16C784;stop-opacity:0.0;"></stop>
      </linearGradient>
    </defs>
    <g>
      <path stroke="#16C784" stroke-width="2" stroke-linecap="round" stroke-linejoin="round" fill="none" d="M 0.000000 16.995089 L 0.839161 17.031880 L 1.678322 18.270503 L 2.517483 18.694609 L 3.356643 18.502309 L 4.195804 19.877024 L 5.034965 19.238314 L 5.874126 19.354652 L 6.713287 18.993448 L 7.552448 18.798396 L 8.391608 16.856627 L 9.230769 15.870807 L 10.069930 16.013229 L 10.909091 21.298066 L 11.748252 21.623924 L 12.587413 25.143625 L 13.426573 22.155286 L 14.265734 18.874621 L 15.104895 16.287829 L 15.944056 15.411100 L 16.783217 16.765545 L 17.622378 16.130530 L 18.461538 15.639737 L 19.300699 15.570832 L 20.139860 15.477634 L 20.979021 13.577905 L 21.818182 8.800000 L 22.657343 10.259749 L 23.496503 15.301727 L 24.335664 15.464484 L 25.174825 15.089711 L 26.013986 15.349970 L 26.853147 17.080223 L 27.692308 20.048054 L 28.531469 20.838350 L 29.370629 20.827852 L 30.209790 20.199449 L 31.048951 24.338589 L 31.888112 24.374489 L 32.727273 19.929227 L 33.566434 24.051501 L 34.405594 22.837118 L 35.244755 19.313384 L 36.083916 20.352933 L 36.923077 20.332871 L 37.762238 19.426790 L 38.601399 19.144634 L 39.440559 19.270691 L 40.279720 18.984184 L 41.118881 20.286699 L 41.958042 21.710810 L 42.797203 22.780983 L 43.636364 22.839633 L 44.475524 22.110404 L 45.314685 21.198011 L 46.153846 21.182426 L 46.993007 20.674840 L 47.832168 20.314544 L 48.671329 28.458193 L 49.510490 28.560001 L 50.349650 29.115703 L 51.188811 20.533390 L 52.027972 26.471078 L 52.867133 26.499994 L 53.706294 26.469361 L 54.545455 26.391248 L 55.384615 25.907329 L 56.223776 25.620632 L 57.062937 17.726208 L 57.902098 17.782742 L 58.741259 20.523999 L 59.580420 21.483854 L 60.419580 21.771568 L 61.258741 22.145641 L 62.097902 22.171134 L 62.937063 23.417232 L 63.776224 24.948183 L 64.615385 28.006642 L 65.454545 26.430209 L 66.293706 28.281986 L 67.132867 28.064421 L 67.972028 29.506069 L 68.811189 29.121434 L 69.650350 29.973859 L 70.489510 29.859082 L 71.328671 29.679642 L 72.167832 29.869817 L 73.006993 29.497424 L 73.846154 28.940813 L 74.685315 27.726611 L 75.524476 27.655927 L 76.363636 27.424784 L 77.202797 27.683345 L 78.041958 28.455432 L 78.881119 28.288580 L 79.720280 27.880204 L 80.559441 29.566182 L 81.398601 31.145930 L 82.237762 30.702471 L 83.076923 29.142613 L 83.916084 27.216246 L 84.755245 28.241617 L 85.594406 31.334043 L 86.433566 28.702132 L 87.272727 27.034109 L 88.111888 27.253718 L 88.951049 27.298237 L 89.790210 27.581528 L 90.629371 28.004798 L 91.468531 27.237534 L 92.307692 27.790457 L 93.146853 28.789636 L 93.986014 26.277198 L 94.825175 26.870907 L 95.664336 28.717608 L 96.503497 32.653886 L 97.342657 32.801884 L 98.181818 33.653392 L 99.020979 34.925682 L 99.860140 33.888040 L 100.699301 32.142712 L 101.538462 36.800000 L 102.377622 29.155309 L 103.216783 28.603349 L 104.055944 29.038671 L 104.895105 26.847549 L 105.734266 27.226854 L 106.573427 26.988481 L 107.412587 26.586254 L 108.251748 26.188822 L 109.090909 28.291377 L 109.930070 27.607175 L 110.769231 27.078964 L 111.608392 27.755274 L 112.447552 27.665636 L 113.286713 27.061082 L 114.125874 27.054861 L 114.965035 27.471765 L 115.804196 25.717672 L 116.643357 23.633708 L 117.482517 25.285838 L 118.321678 29.987527 L 119.160839 26.475346 L 120.000000 26.727614"></path>
      <path stroke="none" fill-opacity="0.6" fill="url(#color_grad)" d="M 0 40 L 0.000000 16.995089 L 0.839161 17.031880 L 1.678322 18.270503 L 2.517483 18.694609 L 3.356643 18.502309 L 4.195804 19.877024 L 5.034965 19.238314 L 5.874126 19.354652 L 6.713287 18.993448 L 7.552448 18.798396 L 8.391608 16.856627 L 9.230769 15.870807 L 10.069930 16.013229 L 10.909091 21.298066 L 11.748252 21.623924 L 12.587413 25.143625 L 13.426573 22.155286 L 14.265734 18.874621 L 15.104895 16.287829 L 15.944056 15.411100 L 16.783217 16.765545 L 17.622378 16.130530 L 18.461538 15.639737 L 19.300699 15.570832 L 20.139860 15.477634 L 20.979021 13.577905 L 21.818182 8.800000 L 22.657343 10.259749 L 23.496503 15.301727 L 24.335664 15.464484 L 25.174825 15.089711 L 26.013986 15.349970 L 26.853147 17.080223 L 27.692308 20.048054 L 28.531469 20.838350 L 29.370629 20.827852 L 30.209790 20.199449 L 31.048951 24.338589 L 31.888112 24.374489 L 32.727273 19.929227 L 33.566434 24.051501 L 34.405594 22.837118 L 35.244755 19.313384 L 36.083916 20.352933 L 36.923077 20.332871 L 37.762238 19.426790 L 38.601399 19.144634 L 39.440559 19.270691 L 40.279720 18.984184 L 41.118881 20.286699 L 41.958042 21.710810 L 42.797203 22.780983 L 43.636364 22.839633 L 44.475524 22.110404 L 45.314685 21.198011 L 46.153846 21.182426 L 46.993007 20.674840 L 47.832168 20.314544 L 48.671329 28.458193 L 49.510490 28.560001 L 50.349650 29.115703 L 51.188811 20.533390 L 52.027972 26.471078 L 52.867133 26.499994 L 53.706294 26.469361 L 54.545455 26.391248 L 55.384615 25.907329 L 56.223776 25.620632 L 57.062937 17.726208 L 57.902098 17.782742 L 58.741259 20.523999 L 59.580420 21.483854 L 60.419580 21.771568 L 61.258741 22.145641 L 62.097902 22.171134 L 62.937063 23.417232 L 63.776224 24.948183 L 64.615385 28.006642 L 65.454545 26.430209 L 66.293706 28.281986 L 67.132867 28.064421 L 67.972028 29.506069 L 68.811189 29.121434 L 69.650350 29.973859 L 70.489510 29.859082 L 71.328671 29.679642 L 72.167832 29.869817 L 73.006993 29.497424 L 73.846154 28.940813 L 74.685315 27.726611 L 75.524476 27.655927 L 76.363636 27.424784 L 77.202797 27.683345 L 78.041958 28.455432 L 78.881119 28.288580 L 79.720280 27.880204 L 80.559441 29.566182 L 81.398601 31.145930 L 82.237762 30.702471 L 83.076923 29.142613 L 83.916084 27.216246 L 84.755245 28.241617 L 85.594406 31.334043 L 86.433566 28.702132 L 87.272727 27.034109 L 88.111888 27.253718 L 88.951049 27.298237 L 89.790210 27.581528 L 90.629371 28.004798 L 91.468531 27.237534 L 92.307692 27.790457 L 93.146853 28.789636 L 93.986014 26.277198 L 94.825175 26.870907 L 95.664336 28.717608 L 96.503497 32.653886 L 97.342657 32.801884 L 98.181818 33.653392 L 99.020979 34.925682 L 99.860140 33.888040 L 100.699301 32.142712 L 101.538462 36.800000 L 102.377622 29.155309 L 103.216783 28.603349 L 104.055944 29.038671 L 104.895105 26.847549 L 105.734266 27.226854 L 106.573427 26.988481 L 107.412587 26.586254 L 108.251748 26.188822 L 109.090909 28.291377 L 109.930070 27.607175 L 110.769231 27.078964 L 111.608392 27.755274 L 112.447552 27.665636 L 113.286713 27.061082 L 114.125874 27.054861 L 114.965035 27.471765 L 115.804196 25.717672 L 116.643357 23.633708 L 117.482517 25.285838 L 118.321678 29.987527 L 119.160839 26.475346 L 120.000000 26.727614 L 120 40 Z"></path>
    </g>
  </svg>