<svg xmlns="http://www.w3.org/2000/svg" viewBox="0 0 120 40" width="120" height="40">
    <defs>
      <linearGradient id="color_grad" x1="0%" x2="0%" y1="0%" y2="100%">
        <stop offset="0%" style="stop-color:#EA3943;stop-opacity:0.4;"></stop>
        <stop offset="100%" style="stop-color:#EA3943;stop-opacity:0.0;"></stop>
      </linearGradient>
    </defs>
    <g>
      <path stroke="#EA3943" stroke-width="2" stroke-linecap="round" stroke-linejoin="round" fill="none" d="M 0.000000 10.953846 L 0.839161 10.953846 L 1.678322 10.953846 L 2.517483 10.953846 L 3.356643 10.953846 L 4.195804 10.953846 L 5.034965 10.953846 L 5.874126 10.953846 L 6.713287 10.953846 L 7.552448 10.953846 L 8.391608 9.230769 L 9.230769 9.230769 L 10.069930 9.729618 L 10.909091 15.261538 L 11.748252 15.304615 L 12.587413 17.972673 L 13.426573 15.261538 L 14.265734 12.188919 L 15.104895 9.327165 L 15.944056 8.800000 L 16.783217 10.953846 L 17.622378 10.953846 L 18.461538 10.953846 L 19.300699 10.953846 L 20.139860 10.953846 L 20.979021 9.661538 L 21.818182 9.661538 L 22.657343 9.661538 L 23.496503 15.261538 L 24.335664 15.261538 L 25.174825 15.261538 L 26.013986 15.261538 L 26.853147 16.737601 L 27.692308 19.569231 L 28.531469 19.569231 L 29.370629 19.569231 L 30.209790 19.569231 L 31.048951 23.876923 L 31.888112 23.876923 L 32.727273 19.569231 L 33.566434 23.952232 L 34.405594 22.430984 L 35.244755 19.138462 L 36.083916 19.569231 L 36.923077 19.569231 L 37.762238 19.569231 L 38.601399 19.569231 L 39.440559 19.569231 L 40.279720 19.569231 L 41.118881 21.723077 L 41.958042 21.723077 L 42.797203 21.797181 L 43.636364 21.723077 L 44.475524 21.723077 L 45.314685 21.723077 L 46.153846 21.723077 L 46.993007 21.723077 L 47.832168 21.723077 L 48.671329 29.261538 L 49.510490 29.773642 L 50.349650 30.338462 L 51.188811 21.766154 L 52.027972 28.184615 L 52.867133 28.184615 L 53.706294 28.184615 L 54.545455 28.184615 L 55.384615 28.184615 L 56.223776 28.184615 L 57.062937 21.766154 L 57.902098 21.766154 L 58.741259 23.876923 L 59.580420 24.350769 L 60.419580 24.523077 L 61.258741 24.523077 L 62.097902 24.523077 L 62.937063 24.566154 L 63.776224 24.566154 L 64.615385 27.687574 L 65.454545 26.030769 L 66.293706 26.289231 L 67.132867 26.289231 L 67.972028 26.289231 L 68.811189 26.289231 L 69.650350 26.289231 L 70.489510 26.289231 L 71.328671 26.289231 L 72.167832 26.289231 L 73.006993 26.289231 L 73.846154 26.289231 L 74.685315 26.289231 L 75.524476 26.289231 L 76.363636 26.289231 L 77.202797 26.289231 L 78.041958 26.332308 L 78.881119 26.332308 L 79.720280 26.332308 L 80.559441 26.461538 L 81.398601 28.701538 L 82.237762 28.701538 L 83.076923 28.701538 L 83.916084 28.701538 L 84.755245 28.701538 L 85.594406 32.492308 L 86.433566 30.213147 L 87.272727 29.132308 L 88.111888 29.132308 L 88.951049 29.132308 L 89.790210 30.338462 L 90.629371 30.338462 L 91.468531 30.338462 L 92.307692 30.338462 L 93.146853 30.338462 L 93.986014 30.381538 L 94.825175 30.381538 L 95.664336 30.381538 L 96.503497 34.646154 L 97.342657 34.646154 L 98.181818 34.646154 L 99.020979 35.076923 L 99.860140 34.646154 L 100.699301 34.646154 L 101.538462 36.800000 L 102.377622 30.381538 L 103.216783 30.381538 L 104.055944 30.381538 L 104.895105 30.381538 L 105.734266 30.381538 L 106.573427 30.381538 L 107.412587 30.381538 L 108.251748 30.381538 L 109.090909 32.492308 L 109.930070 32.492308 L 110.769231 32.724260 L 111.608392 32.923077 L 112.447552 32.923077 L 113.286713 32.923077 L 114.125874 32.923077 L 114.965035 32.923077 L 115.804196 32.923077 L 116.643357 32.966154 L 117.482517 33.353846 L 118.321678 36.800000 L 119.160839 33.353846 L 120.000000 33.353846"></path>
      <path stroke="none" fill-opacity="0.6" fill="url(#color_grad)" d="M 0 40 L 0.000000 10.953846 L 0.839161 10.953846 L 1.678322 10.953846 L 2.517483 10.953846 L 3.356643 10.953846 L 4.195804 10.953846 L 5.034965 10.953846 L 5.874126 10.953846 L 6.713287 10.953846 L 7.552448 10.953846 L 8.391608 9.230769 L 9.230769 9.230769 L 10.069930 9.729618 L 10.909091 15.261538 L 11.748252 15.304615 L 12.587413 17.972673 L 13.426573 15.261538 L 14.265734 12.188919 L 15.104895 9.327165 L 15.944056 8.800000 L 16.783217 10.953846 L 17.622378 10.953846 L 18.461538 10.953846 L 19.300699 10.953846 L 20.139860 10.953846 L 20.979021 9.661538 L 21.818182 9.661538 L 22.657343 9.661538 L 23.496503 15.261538 L 24.335664 15.261538 L 25.174825 15.261538 L 26.013986 15.261538 L 26.853147 16.737601 L 27.692308 19.569231 L 28.531469 19.569231 L 29.370629 19.569231 L 30.209790 19.569231 L 31.048951 23.876923 L 31.888112 23.876923 L 32.727273 19.569231 L 33.566434 23.952232 L 34.405594 22.430984 L 35.244755 19.138462 L 36.083916 19.569231 L 36.923077 19.569231 L 37.762238 19.569231 L 38.601399 19.569231 L 39.440559 19.569231 L 40.279720 19.569231 L 41.118881 21.723077 L 41.958042 21.723077 L 42.797203 21.797181 L 43.636364 21.723077 L 44.475524 21.723077 L 45.314685 21.723077 L 46.153846 21.723077 L 46.993007 21.723077 L 47.832168 21.723077 L 48.671329 29.261538 L 49.510490 29.773642 L 50.349650 30.338462 L 51.188811 21.766154 L 52.027972 28.184615 L 52.867133 28.184615 L 53.706294 28.184615 L 54.545455 28.184615 L 55.384615 28.184615 L 56.223776 28.184615 L 57.062937 21.766154 L 57.902098 21.766154 L 58.741259 23.876923 L 59.580420 24.350769 L 60.419580 24.523077 L 61.258741 24.523077 L 62.097902 24.523077 L 62.937063 24.566154 L 63.776224 24.566154 L 64.615385 27.687574 L 65.454545 26.030769 L 66.293706 26.289231 L 67.132867 26.289231 L 67.972028 26.289231 L 68.811189 26.289231 L 69.650350 26.289231 L 70.489510 26.289231 L 71.328671 26.289231 L 72.167832 26.289231 L 73.006993 26.289231 L 73.846154 26.289231 L 74.685315 26.289231 L 75.524476 26.289231 L 76.363636 26.289231 L 77.202797 26.289231 L 78.041958 26.332308 L 78.881119 26.332308 L 79.720280 26.332308 L 80.559441 26.461538 L 81.398601 28.701538 L 82.237762 28.701538 L 83.076923 28.701538 L 83.916084 28.701538 L 84.755245 28.701538 L 85.594406 32.492308 L 86.433566 30.213147 L 87.272727 29.132308 L 88.111888 29.132308 L 88.951049 29.132308 L 89.790210 30.338462 L 90.629371 30.338462 L 91.468531 30.338462 L 92.307692 30.338462 L 93.146853 30.338462 L 93.986014 30.381538 L 94.825175 30.381538 L 95.664336 30.381538 L 96.503497 34.646154 L 97.342657 34.646154 L 98.181818 34.646154 L 99.020979 35.076923 L 99.860140 34.646154 L 100.699301 34.646154 L 101.538462 36.800000 L 102.377622 30.381538 L 103.216783 30.381538 L 104.055944 30.381538 L 104.895105 30.381538 L 105.734266 30.381538 L 106.573427 30.381538 L 107.412587 30.381538 L 108.251748 30.381538 L 109.090909 32.492308 L 109.930070 32.492308 L 110.769231 32.724260 L 111.608392 32.923077 L 112.447552 32.923077 L 113.286713 32.923077 L 114.125874 32.923077 L 114.965035 32.923077 L 115.804196 32.923077 L 116.643357 32.966154 L 117.482517 33.353846 L 118.321678 36.800000 L 119.160839 33.353846 L 120.000000 33.353846 L 120 40 Z"></path>
    </g>
  </svg>