<svg xmlns="http://www.w3.org/2000/svg" viewBox="0 0 120 40" width="120" height="40">
    <defs>
      <linearGradient id="color_grad" x1="0%" x2="0%" y1="0%" y2="100%">
        <stop offset="0%" style="stop-color:#888888;stop-opacity:0.4;"></stop>
        <stop offset="100%" style="stop-color:#888888;stop-opacity:0.0;"></stop>
      </linearGradient>
    </defs>
    <g>
      <path stroke="#888888" stroke-width="2" stroke-linecap="round" stroke-linejoin="round" fill="none" d="M 0.000000 36.800000 L 0.839161 36.800000 L 1.678322 36.800000 L 2.517483 36.800000 L 3.356643 36.800000 L 4.195804 36.800000 L 5.034965 36.800000 L 5.874126 36.800000 L 6.713287 36.800000 L 7.552448 36.800000 L 8.391608 36.800000 L 9.230769 36.800000 L 10.069930 36.800000 L 10.909091 36.800000 L 11.748252 36.800000 L 12.587413 36.800000 L 13.426573 36.800000 L 14.265734 36.800000 L 15.104895 36.800000 L 15.944056 36.800000 L 16.783217 36.800000 L 17.622378 36.800000 L 18.461538 36.800000 L 19.300699 36.800000 L 20.139860 36.800000 L 20.979021 36.800000 L 21.818182 36.800000 L 22.657343 22.232168 L 23.496503 36.800000 L 24.335664 8.800000 L 25.174825 8.800000 L 26.013986 8.800000 L 26.853147 8.800000 L 27.692308 36.800000 L 28.531469 36.800000 L 29.370629 36.800000 L 30.209790 36.800000 L 31.048951 36.800000 L 31.888112 36.800000 L 32.727273 36.800000 L 33.566434 36.800000 L 34.405594 36.800000 L 35.244755 36.800000 L 36.083916 36.800000 L 36.923077 36.800000 L 37.762238 36.800000 L 38.601399 36.800000 L 39.440559 36.800000 L 40.279720 36.800000 L 41.118881 36.800000 L 41.958042 36.800000 L 42.797203 36.800000 L 43.636364 36.800000 L 44.475524 36.800000 L 45.314685 36.800000 L 46.153846 36.800000 L 46.993007 36.800000 L 47.832168 36.800000 L 48.671329 36.800000 L 49.510490 36.800000 L 50.349650 36.800000 L 51.188811 36.800000 L 52.027972 36.800000 L 52.867133 36.800000 L 53.706294 36.800000 L 54.545455 36.800000 L 55.384615 36.800000 L 56.223776 36.800000 L 57.062937 36.800000 L 57.902098 36.800000 L 58.741259 36.800000 L 59.580420 36.800000 L 60.419580 36.800000 L 61.258741 36.800000 L 62.097902 36.800000 L 62.937063 36.800000 L 63.776224 36.800000 L 64.615385 36.800000 L 65.454545 36.800000 L 66.293706 36.800000 L 67.132867 36.800000 L 67.972028 36.800000 L 68.811189 36.800000 L 69.650350 36.800000 L 70.489510 36.800000 L 71.328671 36.800000 L 72.167832 36.800000 L 73.006993 36.800000 L 73.846154 36.800000 L 74.685315 36.800000 L 75.524476 36.800000 L 76.363636 36.800000 L 77.202797 36.800000 L 78.041958 36.800000 L 78.881119 36.800000 L 79.720280 36.800000 L 80.559441 36.800000 L 81.398601 36.800000 L 82.237762 36.800000 L 83.076923 36.800000 L 83.916084 36.800000 L 84.755245 36.800000 L 85.594406 36.800000 L 86.433566 36.800000 L 87.272727 36.800000 L 88.111888 36.800000 L 88.951049 36.800000 L 89.790210 36.800000 L 90.629371 36.800000 L 91.468531 36.800000 L 92.307692 36.800000 L 93.146853 36.800000 L 93.986014 36.800000 L 94.825175 36.800000 L 95.664336 36.800000 L 96.503497 36.800000 L 97.342657 36.800000 L 98.181818 36.800000 L 99.020979 36.800000 L 99.860140 36.800000 L 100.699301 36.800000 L 101.538462 36.800000 L 102.377622 36.800000 L 103.216783 36.800000 L 104.055944 36.800000 L 104.895105 36.800000 L 105.734266 36.800000 L 106.573427 36.800000 L 107.412587 36.800000 L 108.251748 36.800000 L 109.090909 36.800000 L 109.930070 36.800000 L 110.769231 36.800000 L 111.608392 36.800000 L 112.447552 36.800000 L 113.286713 36.800000 L 114.125874 36.800000 L 114.965035 36.800000 L 115.804196 36.800000 L 116.643357 36.800000 L 117.482517 36.800000 L 118.321678 36.800000 L 119.160839 36.800000 L 120.000000 36.800000"></path>
      <path stroke="none" fill-opacity="0.6" fill="url(#color_grad)" d="M 0 40 L 0.000000 36.800000 L 0.839161 36.800000 L 1.678322 36.800000 L 2.517483 36.800000 L 3.356643 36.800000 L 4.195804 36.800000 L 5.034965 36.800000 L 5.874126 36.800000 L 6.713287 36.800000 L 7.552448 36.800000 L 8.391608 36.800000 L 9.230769 36.800000 L 10.069930 36.800000 L 10.909091 36.800000 L 11.748252 36.800000 L 12.587413 36.800000 L 13.426573 36.800000 L 14.265734 36.800000 L 15.104895 36.800000 L 15.944056 36.800000 L 16.783217 36.800000 L 17.622378 36.800000 L 18.461538 36.800000 L 19.300699 36.800000 L 20.139860 36.800000 L 20.979021 36.800000 L 21.818182 36.800000 L 22.657343 22.232168 L 23.496503 36.800000 L 24.335664 8.800000 L 25.174825 8.800000 L 26.013986 8.800000 L 26.853147 8.800000 L 27.692308 36.800000 L 28.531469 36.800000 L 29.370629 36.800000 L 30.209790 36.800000 L 31.048951 36.800000 L 31.888112 36.800000 L 32.727273 36.800000 L 33.566434 36.800000 L 34.405594 36.800000 L 35.244755 36.800000 L 36.083916 36.800000 L 36.923077 36.800000 L 37.762238 36.800000 L 38.601399 36.800000 L 39.440559 36.800000 L 40.279720 36.800000 L 41.118881 36.800000 L 41.958042 36.800000 L 42.797203 36.800000 L 43.636364 36.800000 L 44.475524 36.800000 L 45.314685 36.800000 L 46.153846 36.800000 L 46.993007 36.800000 L 47.832168 36.800000 L 48.671329 36.800000 L 49.510490 36.800000 L 50.349650 36.800000 L 51.188811 36.800000 L 52.027972 36.800000 L 52.867133 36.800000 L 53.706294 36.800000 L 54.545455 36.800000 L 55.384615 36.800000 L 56.223776 36.800000 L 57.062937 36.800000 L 57.902098 36.800000 L 58.741259 36.800000 L 59.580420 36.800000 L 60.419580 36.800000 L 61.258741 36.800000 L 62.097902 36.800000 L 62.937063 36.800000 L 63.776224 36.800000 L 64.615385 36.800000 L 65.454545 36.800000 L 66.293706 36.800000 L 67.132867 36.800000 L 67.972028 36.800000 L 68.811189 36.800000 L 69.650350 36.800000 L 70.489510 36.800000 L 71.328671 36.800000 L 72.167832 36.800000 L 73.006993 36.800000 L 73.846154 36.800000 L 74.685315 36.800000 L 75.524476 36.800000 L 76.363636 36.800000 L 77.202797 36.800000 L 78.041958 36.800000 L 78.881119 36.800000 L 79.720280 36.800000 L 80.559441 36.800000 L 81.398601 36.800000 L 82.237762 36.800000 L 83.076923 36.800000 L 83.916084 36.800000 L 84.755245 36.800000 L 85.594406 36.800000 L 86.433566 36.800000 L 87.272727 36.800000 L 88.111888 36.800000 L 88.951049 36.800000 L 89.790210 36.800000 L 90.629371 36.800000 L 91.468531 36.800000 L 92.307692 36.800000 L 93.146853 36.800000 L 93.986014 36.800000 L 94.825175 36.800000 L 95.664336 36.800000 L 96.503497 36.800000 L 97.342657 36.800000 L 98.181818 36.800000 L 99.020979 36.800000 L 99.860140 36.800000 L 100.699301 36.800000 L 101.538462 36.800000 L 102.377622 36.800000 L 103.216783 36.800000 L 104.055944 36.800000 L 104.895105 36.800000 L 105.734266 36.800000 L 106.573427 36.800000 L 107.412587 36.800000 L 108.251748 36.800000 L 109.090909 36.800000 L 109.930070 36.800000 L 110.769231 36.800000 L 111.608392 36.800000 L 112.447552 36.800000 L 113.286713 36.800000 L 114.125874 36.800000 L 114.965035 36.800000 L 115.804196 36.800000 L 116.643357 36.800000 L 117.482517 36.800000 L 118.321678 36.800000 L 119.160839 36.800000 L 120.000000 36.800000 L 120 40 Z"></path>
    </g>
  </svg>