<svg xmlns="http://www.w3.org/2000/svg" viewBox="0 0 120 40" width="120" height="40">
    <defs>
      <linearGradient id="color_grad" x1="0%" x2="0%" y1="0%" y2="100%">
        <stop offset="0%" style="stop-color:#888888;stop-opacity:0.4;"></stop>
        <stop offset="100%" style="stop-color:#888888;stop-opacity:0.0;"></stop>
      </linearGradient>
    </defs>
    <g>
      <path stroke="#888888" stroke-width="2" stroke-linecap="round" stroke-linejoin="round" fill="none" d="M 0.000000 8.800000 L 0.839161 8.800000 L 1.678322 8.800000 L 2.517483 8.800000 L 3.356643 8.800000 L 4.195804 8.800000 L 5.034965 8.800000 L 5.874126 20.541935 L 6.713287 20.541935 L 7.552448 20.541935 L 8.391608 20.541935 L 9.230769 20.541935 L 10.069930 20.541935 L 10.909091 20.541935 L 11.748252 20.541935 L 12.587413 16.929032 L 13.426573 19.897677 L 14.265734 25.961290 L 15.104895 19.139725 L 15.944056 16.929032 L 16.783217 16.929032 L 17.622378 16.929032 L 18.461538 16.929032 L 19.300699 16.929032 L 20.139860 16.929032 L 20.979021 16.929032 L 21.818182 16.929032 L 22.657343 16.929032 L 23.496503 16.929032 L 24.335664 16.929032 L 25.174825 16.929032 L 26.013986 16.929032 L 26.853147 16.929032 L 27.692308 17.484864 L 28.531469 9.522581 L 29.370629 9.522581 L 30.209790 9.522581 L 31.048951 9.522581 L 31.888112 9.522581 L 32.727273 9.522581 L 33.566434 9.522581 L 34.405594 9.522581 L 35.244755 9.660275 L 36.083916 9.703226 L 36.923077 9.703226 L 37.762238 9.703226 L 38.601399 9.703226 L 39.440559 9.703226 L 40.279720 9.703226 L 41.118881 9.703226 L 41.958042 9.703226 L 42.797203 9.703226 L 43.636364 11.690323 L 44.475524 13.316129 L 45.314685 13.316129 L 46.153846 13.316129 L 46.993007 13.316129 L 47.832168 13.316129 L 48.671329 13.316129 L 49.510490 13.316129 L 50.349650 13.316129 L 51.188811 13.316129 L 52.027972 13.316129 L 52.867133 13.316129 L 53.706294 16.929032 L 54.545455 9.703226 L 55.384615 12.482382 L 56.223776 13.316129 L 57.062937 13.316129 L 57.902098 13.316129 L 58.741259 22.007309 L 59.580420 22.348387 L 60.419580 16.929032 L 61.258741 16.929032 L 62.097902 16.929032 L 62.937063 16.929032 L 63.776224 16.929032 L 64.615385 16.929032 L 65.454545 16.929032 L 66.293706 16.929032 L 67.132867 16.929032 L 67.972028 19.247607 L 68.811189 22.745806 L 69.650350 22.745806 L 70.489510 22.745806 L 71.328671 22.745806 L 72.167832 22.745806 L 73.006993 22.745806 L 73.846154 22.745806 L 74.685315 22.745806 L 75.524476 22.745806 L 76.363636 22.745806 L 77.202797 22.745806 L 78.041958 22.745806 L 78.881119 22.745806 L 79.720280 22.745806 L 80.559441 22.745806 L 81.398601 22.745806 L 82.237762 22.745806 L 83.076923 22.745806 L 83.916084 22.745806 L 84.755245 22.745806 L 85.594406 22.745806 L 86.433566 22.745806 L 87.272727 22.745806 L 88.111888 22.745806 L 88.951049 22.745806 L 89.790210 22.745806 L 90.629371 22.745806 L 91.468531 22.745806 L 92.307692 22.745806 L 93.146853 22.745806 L 93.986014 22.745806 L 94.825175 22.745806 L 95.664336 22.745806 L 96.503497 22.745806 L 97.342657 22.745806 L 98.181818 22.745806 L 99.020979 36.800000 L 99.860140 36.800000 L 100.699301 36.800000 L 101.538462 36.800000 L 102.377622 36.800000 L 103.216783 36.800000 L 104.055944 36.800000 L 104.895105 36.800000 L 105.734266 36.800000 L 106.573427 36.800000 L 107.412587 36.800000 L 108.251748 36.800000 L 109.090909 36.800000 L 109.930070 36.800000 L 110.769231 36.800000 L 111.608392 36.800000 L 112.447552 36.800000 L 113.286713 36.800000 L 114.125874 36.800000 L 114.965035 36.800000 L 115.804196 36.800000 L 116.643357 36.800000 L 117.482517 36.800000 L 118.321678 36.800000 L 119.160839 36.800000 L 120.000000 36.800000"></path>
      <path stroke="none" fill-opacity="0.6" fill="url(#color_grad)" d="M 0 40 L 0.000000 8.800000 L 0.839161 8.800000 L 1.678322 8.800000 L 2.517483 8.800000 L 3.356643 8.800000 L 4.195804 8.800000 L 5.034965 8.800000 L 5.874126 20.541935 L 6.713287 20.541935 L 7.552448 20.541935 L 8.391608 20.541935 L 9.230769 20.541935 L 10.069930 20.541935 L 10.909091 20.541935 L 11.748252 20.541935 L 12.587413 16.929032 L 13.426573 19.897677 L 14.265734 25.961290 L 15.104895 19.139725 L 15.944056 16.929032 L 16.783217 16.929032 L 17.622378 16.929032 L 18.461538 16.929032 L 19.300699 16.929032 L 20.139860 16.929032 L 20.979021 16.929032 L 21.818182 16.929032 L 22.657343 16.929032 L 23.496503 16.929032 L 24.335664 16.929032 L 25.174825 16.929032 L 26.013986 16.929032 L 26.853147 16.929032 L 27.692308 17.484864 L 28.531469 9.522581 L 29.370629 9.522581 L 30.209790 9.522581 L 31.048951 9.522581 L 31.888112 9.522581 L 32.727273 9.522581 L 33.566434 9.522581 L 34.405594 9.522581 L 35.244755 9.660275 L 36.083916 9.703226 L 36.923077 9.703226 L 37.762238 9.703226 L 38.601399 9.703226 L 39.440559 9.703226 L 40.279720 9.703226 L 41.118881 9.703226 L 41.958042 9.703226 L 42.797203 9.703226 L 43.636364 11.690323 L 44.475524 13.316129 L 45.314685 13.316129 L 46.153846 13.316129 L 46.993007 13.316129 L 47.832168 13.316129 L 48.671329 13.316129 L 49.510490 13.316129 L 50.349650 13.316129 L 51.188811 13.316129 L 52.027972 13.316129 L 52.867133 13.316129 L 53.706294 16.929032 L 54.545455 9.703226 L 55.384615 12.482382 L 56.223776 13.316129 L 57.062937 13.316129 L 57.902098 13.316129 L 58.741259 22.007309 L 59.580420 22.348387 L 60.419580 16.929032 L 61.258741 16.929032 L 62.097902 16.929032 L 62.937063 16.929032 L 63.776224 16.929032 L 64.615385 16.929032 L 65.454545 16.929032 L 66.293706 16.929032 L 67.132867 16.929032 L 67.972028 19.247607 L 68.811189 22.745806 L 69.650350 22.745806 L 70.489510 22.745806 L 71.328671 22.745806 L 72.167832 22.745806 L 73.006993 22.745806 L 73.846154 22.745806 L 74.685315 22.745806 L 75.524476 22.745806 L 76.363636 22.745806 L 77.202797 22.745806 L 78.041958 22.745806 L 78.881119 22.745806 L 79.720280 22.745806 L 80.559441 22.745806 L 81.398601 22.745806 L 82.237762 22.745806 L 83.076923 22.745806 L 83.916084 22.745806 L 84.755245 22.745806 L 85.594406 22.745806 L 86.433566 22.745806 L 87.272727 22.745806 L 88.111888 22.745806 L 88.951049 22.745806 L 89.790210 22.745806 L 90.629371 22.745806 L 91.468531 22.745806 L 92.307692 22.745806 L 93.146853 22.745806 L 93.986014 22.745806 L 94.825175 22.745806 L 95.664336 22.745806 L 96.503497 22.745806 L 97.342657 22.745806 L 98.181818 22.745806 L 99.020979 36.800000 L 99.860140 36.800000 L 100.699301 36.800000 L 101.538462 36.800000 L 102.377622 36.800000 L 103.216783 36.800000 L 104.055944 36.800000 L 104.895105 36.800000 L 105.734266 36.800000 L 106.573427 36.800000 L 107.412587 36.800000 L 108.251748 36.800000 L 109.090909 36.800000 L 109.930070 36.800000 L 110.769231 36.800000 L 111.608392 36.800000 L 112.447552 36.800000 L 113.286713 36.800000 L 114.125874 36.800000 L 114.965035 36.800000 L 115.804196 36.800000 L 116.643357 36.800000 L 117.482517 36.800000 L 118.321678 36.800000 L 119.160839 36.800000 L 120.000000 36.800000 L 120 40 Z"></path>
    </g>
  </svg>