<svg xmlns="http://www.w3.org/2000/svg" viewBox="0 0 120 40" width="120" height="40">
    <defs>
      <linearGradient id="color_grad" x1="0%" x2="0%" y1="0%" y2="100%">
        <stop offset="0%" style="stop-color:#16C784;stop-opacity:0.4;"></stop>
        <stop offset="100%" style="stop-color:#16C784;stop-opacity:0.0;"></stop>
      </linearGradient>
    </defs>
    <g>
      <path stroke="#16C784" stroke-width="2" stroke-linecap="round" stroke-linejoin="round" fill="none" d="M 0.000000 18.175303 L 0.839161 18.222169 L 1.678322 19.776571 L 2.517483 20.308777 L 3.356643 20.067202 L 4.195804 21.792699 L 5.034965 20.991004 L 5.874126 31.377701 L 6.713287 30.957457 L 7.552448 30.729928 L 8.391608 30.352967 L 9.230769 29.222899 L 10.069930 28.842507 L 10.909091 28.879464 L 11.748252 29.224704 L 12.587413 27.272195 L 13.426573 29.346090 L 14.265734 34.253042 L 15.104895 28.355050 L 15.944056 25.957653 L 16.783217 25.140196 L 17.622378 24.384330 L 18.461538 23.798811 L 19.300699 23.716574 L 20.139860 23.606363 L 20.979021 22.834086 L 21.818182 17.199079 L 22.657343 18.920532 L 23.496503 18.256919 L 24.335664 18.458285 L 25.174825 17.994687 L 26.013986 18.316912 L 26.853147 18.634675 L 27.692308 19.333573 L 28.531469 12.964123 L 29.370629 12.950526 L 30.209790 12.105163 L 31.048951 11.895749 L 31.888112 11.945197 L 32.727273 11.741838 L 33.566434 11.390544 L 34.405594 11.811622 L 35.244755 11.621667 L 36.083916 12.480555 L 36.923077 12.452752 L 37.762238 11.235730 L 38.601399 10.855171 L 39.440559 11.024890 L 40.279720 10.639638 L 41.118881 9.453315 L 41.958042 11.406661 L 42.797203 12.771532 L 43.636364 14.796229 L 44.475524 15.328810 L 45.314685 14.106222 L 46.153846 14.085917 L 46.993007 13.406051 L 47.832168 12.922380 L 48.671329 13.640273 L 49.510490 13.041649 L 50.349650 13.016167 L 51.188811 13.157647 L 52.027972 12.358573 L 52.867133 12.399881 L 53.706294 15.799811 L 54.545455 8.800000 L 55.384615 10.756749 L 56.223776 11.148530 L 57.062937 9.396332 L 57.902098 9.471875 L 58.741259 18.625229 L 59.580420 19.564129 L 60.419580 14.497033 L 61.258741 14.999482 L 62.097902 15.033397 L 62.937063 16.648198 L 63.776224 18.705127 L 64.615385 18.626781 L 65.454545 18.733622 L 66.293706 20.909538 L 67.132867 20.612606 L 67.972028 24.686515 L 68.811189 27.363560 L 69.650350 28.483308 L 70.489510 28.332702 L 71.328671 28.096990 L 72.167832 28.346616 L 73.006993 27.857483 L 73.846154 27.126646 L 74.685315 25.531286 L 75.524476 25.438487 L 76.363636 25.133803 L 77.202797 25.474453 L 78.041958 26.433525 L 78.881119 26.213431 L 79.720280 25.677263 L 80.559441 27.728073 L 81.398601 26.925565 L 82.237762 26.328770 L 83.076923 24.230244 L 83.916084 21.640856 L 84.755245 23.019987 L 85.594406 22.013599 L 86.433566 21.573810 L 87.272727 20.803909 L 88.111888 21.100399 L 88.951049 21.160281 L 89.790210 19.867797 L 90.629371 20.445921 L 91.468531 19.397306 L 92.307692 20.154078 L 93.146853 21.518760 L 93.986014 18.024358 L 94.825175 18.836327 L 95.664336 21.360891 L 96.503497 20.782927 L 97.342657 20.994356 L 98.181818 22.209998 L 99.020979 36.606664 L 99.860140 35.825081 L 100.699301 33.572074 L 101.538462 36.800000 L 102.377622 35.295827 L 103.216783 34.612927 L 104.055944 35.150364 L 104.895105 32.440869 L 105.734266 32.909823 L 106.573427 32.615452 L 107.412587 32.118127 L 108.251748 31.626048 L 109.090909 31.500839 L 109.930070 30.637568 L 110.769231 29.659511 L 111.608392 30.250561 L 112.447552 30.136267 L 113.286713 29.370099 L 114.125874 29.362226 L 114.965035 29.891180 L 115.804196 27.665520 L 116.643357 24.961781 L 117.482517 26.525486 L 118.321678 27.802703 L 119.160839 28.041012 L 120.000000 28.363052"></path>
      <path stroke="none" fill-opacity="0.6" fill="url(#color_grad)" d="M 0 40 L 0.000000 18.175303 L 0.839161 18.222169 L 1.678322 19.776571 L 2.517483 20.308777 L 3.356643 20.067202 L 4.195804 21.792699 L 5.034965 20.991004 L 5.874126 31.377701 L 6.713287 30.957457 L 7.552448 30.729928 L 8.391608 30.352967 L 9.230769 29.222899 L 10.069930 28.842507 L 10.909091 28.879464 L 11.748252 29.224704 L 12.587413 27.272195 L 13.426573 29.346090 L 14.265734 34.253042 L 15.104895 28.355050 L 15.944056 25.957653 L 16.783217 25.140196 L 17.622378 24.384330 L 18.461538 23.798811 L 19.300699 23.716574 L 20.139860 23.606363 L 20.979021 22.834086 L 21.818182 17.199079 L 22.657343 18.920532 L 23.496503 18.256919 L 24.335664 18.458285 L 25.174825 17.994687 L 26.013986 18.316912 L 26.853147 18.634675 L 27.692308 19.333573 L 28.531469 12.964123 L 29.370629 12.950526 L 30.209790 12.105163 L 31.048951 11.895749 L 31.888112 11.945197 L 32.727273 11.741838 L 33.566434 11.390544 L 34.405594 11.811622 L 35.244755 11.621667 L 36.083916 12.480555 L 36.923077 12.452752 L 37.762238 11.235730 L 38.601399 10.855171 L 39.440559 11.024890 L 40.279720 10.639638 L 41.118881 9.453315 L 41.958042 11.406661 L 42.797203 12.771532 L 43.636364 14.796229 L 44.475524 15.328810 L 45.314685 14.106222 L 46.153846 14.085917 L 46.993007 13.406051 L 47.832168 12.922380 L 48.671329 13.640273 L 49.510490 13.041649 L 50.349650 13.016167 L 51.188811 13.157647 L 52.027972 12.358573 L 52.867133 12.399881 L 53.706294 15.799811 L 54.545455 8.800000 L 55.384615 10.756749 L 56.223776 11.148530 L 57.062937 9.396332 L 57.902098 9.471875 L 58.741259 18.625229 L 59.580420 19.564129 L 60.419580 14.497033 L 61.258741 14.999482 L 62.097902 15.033397 L 62.937063 16.648198 L 63.776224 18.705127 L 64.615385 18.626781 L 65.454545 18.733622 L 66.293706 20.909538 L 67.132867 20.612606 L 67.972028 24.686515 L 68.811189 27.363560 L 69.650350 28.483308 L 70.489510 28.332702 L 71.328671 28.096990 L 72.167832 28.346616 L 73.006993 27.857483 L 73.846154 27.126646 L 74.685315 25.531286 L 75.524476 25.438487 L 76.363636 25.133803 L 77.202797 25.474453 L 78.041958 26.433525 L 78.881119 26.213431 L 79.720280 25.677263 L 80.559441 27.728073 L 81.398601 26.925565 L 82.237762 26.328770 L 83.076923 24.230244 L 83.916084 21.640856 L 84.755245 23.019987 L 85.594406 22.013599 L 86.433566 21.573810 L 87.272727 20.803909 L 88.111888 21.100399 L 88.951049 21.160281 L 89.790210 19.867797 L 90.629371 20.445921 L 91.468531 19.397306 L 92.307692 20.154078 L 93.146853 21.518760 L 93.986014 18.024358 L 94.825175 18.836327 L 95.664336 21.360891 L 96.503497 20.782927 L 97.342657 20.994356 L 98.181818 22.209998 L 99.020979 36.606664 L 99.860140 35.825081 L 100.699301 33.572074 L 101.538462 36.800000 L 102.377622 35.295827 L 103.216783 34.612927 L 104.055944 35.150364 L 104.895105 32.440869 L 105.734266 32.909823 L 106.573427 32.615452 L 107.412587 32.118127 L 108.251748 31.626048 L 109.090909 31.500839 L 109.930070 30.637568 L 110.769231 29.659511 L 111.608392 30.250561 L 112.447552 30.136267 L 113.286713 29.370099 L 114.125874 29.362226 L 114.965035 29.891180 L 115.804196 27.665520 L 116.643357 24.961781 L 117.482517 26.525486 L 118.321678 27.802703 L 119.160839 28.041012 L 120.000000 28.363052 L 120 40 Z"></path>
    </g>
  </svg>