<svg xmlns="http://www.w3.org/2000/svg" viewBox="0 0 120 40" width="120" height="40">
    <defs>
      <linearGradient id="color_grad" x1="0%" x2="0%" y1="0%" y2="100%">
        <stop offset="0%" style="stop-color:#EA3943;stop-opacity:0.4;"></stop>
        <stop offset="100%" style="stop-color:#EA3943;stop-opacity:0.0;"></stop>
      </linearGradient>
    </defs>
    <g>
      <path stroke="#EA3943" stroke-width="2" stroke-linecap="round" stroke-linejoin="round" fill="none" d="M 0.000000 8.800000 L 0.839161 8.800000 L 1.678322 8.800000 L 2.517483 8.800000 L 3.356643 8.800000 L 4.195804 8.800000 L 5.034965 8.800000 L 5.874126 10.305376 L 6.713287 10.305376 L 7.552448 10.305376 L 8.391608 10.305376 L 9.230769 10.305376 L 10.069930 10.305376 L 10.909091 10.305376 L 11.748252 10.305376 L 12.587413 10.305376 L 13.426573 10.305376 L 14.265734 10.305376 L 15.104895 14.821505 L 15.944056 14.821505 L 16.783217 20.843011 L 17.622378 8.830108 L 18.461538 8.830108 L 19.300699 8.830108 L 20.139860 8.830108 L 20.979021 8.830108 L 21.818182 8.830108 L 22.657343 8.830108 L 23.496503 8.830108 L 24.335664 8.830108 L 25.174825 8.830108 L 26.013986 8.830108 L 26.853147 8.830108 L 27.692308 8.830108 L 28.531469 8.830108 L 29.370629 8.830108 L 30.209790 20.843011 L 31.048951 20.843011 L 31.888112 20.843011 L 32.727273 23.853763 L 33.566434 23.853763 L 34.405594 26.022348 L 35.244755 26.864516 L 36.083916 11.810753 L 36.923077 11.961290 L 37.762238 11.961290 L 38.601399 11.961290 L 39.440559 11.961290 L 40.279720 11.961290 L 41.118881 11.961290 L 41.958042 11.961290 L 42.797203 11.961290 L 43.636364 11.961290 L 44.475524 11.961290 L 45.314685 11.961290 L 46.153846 13.767742 L 46.993007 17.832258 L 47.832168 32.886022 L 48.671329 32.886022 L 49.510490 36.800000 L 50.349650 11.961290 L 51.188811 11.961290 L 52.027972 11.961290 L 52.867133 11.961290 L 53.706294 11.961290 L 54.545455 11.961290 L 55.384615 11.961290 L 56.223776 11.961290 L 57.062937 11.961290 L 57.902098 11.961290 L 58.741259 11.961290 L 59.580420 11.961290 L 60.419580 11.961290 L 61.258741 11.961290 L 62.097902 11.961290 L 62.937063 11.961290 L 63.776224 11.961290 L 64.615385 11.961290 L 65.454545 11.961290 L 66.293706 11.961290 L 67.132867 11.961290 L 67.972028 11.961290 L 68.811189 11.961290 L 69.650350 11.961290 L 70.489510 11.961290 L 71.328671 11.961290 L 72.167832 11.961290 L 73.006993 11.961290 L 73.846154 11.961290 L 74.685315 11.961290 L 75.524476 11.961290 L 76.363636 11.961290 L 77.202797 11.961290 L 78.041958 11.961290 L 78.881119 11.961290 L 79.720280 11.961290 L 80.559441 11.961290 L 81.398601 11.961290 L 82.237762 11.961290 L 83.076923 11.961290 L 83.916084 11.961290 L 84.755245 11.961290 L 85.594406 11.961290 L 86.433566 11.961290 L 87.272727 11.961290 L 88.111888 11.961290 L 88.951049 11.961290 L 89.790210 11.961290 L 90.629371 11.961290 L 91.468531 11.961290 L 92.307692 11.961290 L 93.146853 11.961290 L 93.986014 11.961290 L 94.825175 11.961290 L 95.664336 11.961290 L 96.503497 11.961290 L 97.342657 11.961290 L 98.181818 11.961290 L 99.020979 11.961290 L 99.860140 11.961290 L 100.699301 11.961290 L 101.538462 11.961290 L 102.377622 11.961290 L 103.216783 11.961290 L 104.055944 11.961290 L 104.895105 11.961290 L 105.734266 11.961290 L 106.573427 11.961290 L 107.412587 11.961290 L 108.251748 11.961290 L 109.090909 11.961290 L 109.930070 11.961290 L 110.769231 11.961290 L 111.608392 11.961290 L 112.447552 13.741424 L 113.286713 14.821505 L 114.125874 14.821505 L 114.965035 14.821505 L 115.804196 14.821505 L 116.643357 14.821505 L 117.482517 14.821505 L 118.321678 14.821505 L 119.160839 14.821505 L 120.000000 14.821505"></path>
      <path stroke="none" fill-opacity="0.6" fill="url(#color_grad)" d="M 0 40 L 0.000000 8.800000 L 0.839161 8.800000 L 1.678322 8.800000 L 2.517483 8.800000 L 3.356643 8.800000 L 4.195804 8.800000 L 5.034965 8.800000 L 5.874126 10.305376 L 6.713287 10.305376 L 7.552448 10.305376 L 8.391608 10.305376 L 9.230769 10.305376 L 10.069930 10.305376 L 10.909091 10.305376 L 11.748252 10.305376 L 12.587413 10.305376 L 13.426573 10.305376 L 14.265734 10.305376 L 15.104895 14.821505 L 15.944056 14.821505 L 16.783217 20.843011 L 17.622378 8.830108 L 18.461538 8.830108 L 19.300699 8.830108 L 20.139860 8.830108 L 20.979021 8.830108 L 21.818182 8.830108 L 22.657343 8.830108 L 23.496503 8.830108 L 24.335664 8.830108 L 25.174825 8.830108 L 26.013986 8.830108 L 26.853147 8.830108 L 27.692308 8.830108 L 28.531469 8.830108 L 29.370629 8.830108 L 30.209790 20.843011 L 31.048951 20.843011 L 31.888112 20.843011 L 32.727273 23.853763 L 33.566434 23.853763 L 34.405594 26.022348 L 35.244755 26.864516 L 36.083916 11.810753 L 36.923077 11.961290 L 37.762238 11.961290 L 38.601399 11.961290 L 39.440559 11.961290 L 40.279720 11.961290 L 41.118881 11.961290 L 41.958042 11.961290 L 42.797203 11.961290 L 43.636364 11.961290 L 44.475524 11.961290 L 45.314685 11.961290 L 46.153846 13.767742 L 46.993007 17.832258 L 47.832168 32.886022 L 48.671329 32.886022 L 49.510490 36.800000 L 50.349650 11.961290 L 51.188811 11.961290 L 52.027972 11.961290 L 52.867133 11.961290 L 53.706294 11.961290 L 54.545455 11.961290 L 55.384615 11.961290 L 56.223776 11.961290 L 57.062937 11.961290 L 57.902098 11.961290 L 58.741259 11.961290 L 59.580420 11.961290 L 60.419580 11.961290 L 61.258741 11.961290 L 62.097902 11.961290 L 62.937063 11.961290 L 63.776224 11.961290 L 64.615385 11.961290 L 65.454545 11.961290 L 66.293706 11.961290 L 67.132867 11.961290 L 67.972028 11.961290 L 68.811189 11.961290 L 69.650350 11.961290 L 70.489510 11.961290 L 71.328671 11.961290 L 72.167832 11.961290 L 73.006993 11.961290 L 73.846154 11.961290 L 74.685315 11.961290 L 75.524476 11.961290 L 76.363636 11.961290 L 77.202797 11.961290 L 78.041958 11.961290 L 78.881119 11.961290 L 79.720280 11.961290 L 80.559441 11.961290 L 81.398601 11.961290 L 82.237762 11.961290 L 83.076923 11.961290 L 83.916084 11.961290 L 84.755245 11.961290 L 85.594406 11.961290 L 86.433566 11.961290 L 87.272727 11.961290 L 88.111888 11.961290 L 88.951049 11.961290 L 89.790210 11.961290 L 90.629371 11.961290 L 91.468531 11.961290 L 92.307692 11.961290 L 93.146853 11.961290 L 93.986014 11.961290 L 94.825175 11.961290 L 95.664336 11.961290 L 96.503497 11.961290 L 97.342657 11.961290 L 98.181818 11.961290 L 99.020979 11.961290 L 99.860140 11.961290 L 100.699301 11.961290 L 101.538462 11.961290 L 102.377622 11.961290 L 103.216783 11.961290 L 104.055944 11.961290 L 104.895105 11.961290 L 105.734266 11.961290 L 106.573427 11.961290 L 107.412587 11.961290 L 108.251748 11.961290 L 109.090909 11.961290 L 109.930070 11.961290 L 110.769231 11.961290 L 111.608392 11.961290 L 112.447552 13.741424 L 113.286713 14.821505 L 114.125874 14.821505 L 114.965035 14.821505 L 115.804196 14.821505 L 116.643357 14.821505 L 117.482517 14.821505 L 118.321678 14.821505 L 119.160839 14.821505 L 120.000000 14.821505 L 120 40 Z"></path>
    </g>
  </svg>