<svg xmlns="http://www.w3.org/2000/svg" viewBox="0 0 120 40" width="120" height="40">
    <defs>
      <linearGradient id="color_grad" x1="0%" x2="0%" y1="0%" y2="100%">
        <stop offset="0%" style="stop-color:#16C784;stop-opacity:0.4;"></stop>
        <stop offset="100%" style="stop-color:#16C784;stop-opacity:0.0;"></stop>
      </linearGradient>
    </defs>
    <g>
      <path stroke="#16C784" stroke-width="2" stroke-linecap="round" stroke-linejoin="round" fill="none" d="M 0.000000 18.991548 L 0.839161 19.025371 L 1.678322 20.153142 L 2.517483 20.539251 L 3.356643 20.363909 L 4.195804 21.615992 L 5.034965 21.034139 L 5.874126 22.357712 L 6.713287 22.032737 L 7.552448 21.857028 L 8.391608 21.565723 L 9.230769 20.691933 L 10.069930 20.397983 L 10.909091 20.426625 L 11.748252 20.693480 L 12.587413 21.637291 L 13.426573 21.226603 L 14.265734 20.873144 L 15.104895 24.684601 L 15.944056 24.360880 L 16.783217 28.749774 L 17.622378 18.229863 L 18.461538 17.782782 L 19.300699 17.719708 L 20.139860 17.635529 L 20.979021 17.045988 L 21.818182 12.742276 L 22.657343 14.057108 L 23.496503 13.550197 L 24.335664 13.703896 L 25.174825 13.349994 L 26.013986 13.596079 L 26.853147 13.838645 L 27.692308 13.976625 L 28.531469 14.750775 L 29.370629 14.740873 L 30.209790 24.512613 L 31.048951 24.374572 L 31.888112 24.407124 L 32.727273 26.882835 L 33.566434 26.657239 L 34.405594 28.806780 L 35.244755 29.337029 L 36.083916 16.849697 L 36.923077 16.960107 L 37.762238 16.094363 L 38.601399 15.823775 L 39.440559 15.944407 L 40.279720 15.670409 L 41.118881 14.826619 L 41.958042 16.215795 L 42.797203 17.186697 L 43.636364 17.315232 L 44.475524 16.604950 L 45.314685 15.715439 L 46.153846 17.280933 L 46.993007 20.360035 L 47.832168 33.283477 L 48.671329 33.717280 L 49.510490 36.800000 L 50.349650 14.922267 L 51.188811 15.025082 L 52.027972 14.443517 L 52.867133 14.473721 L 53.706294 14.441915 L 54.545455 14.361629 L 55.384615 13.859718 L 56.223776 13.563191 L 57.062937 12.287984 L 57.902098 12.342888 L 58.741259 12.890571 L 59.580420 13.360320 L 60.419580 13.471734 L 61.258741 13.846008 L 62.097902 13.871253 L 62.937063 15.073996 L 63.776224 16.605793 L 64.615385 16.547376 L 65.454545 16.627031 L 66.293706 18.247755 L 67.132867 18.026483 L 67.972028 19.492777 L 68.811189 19.101877 L 69.650350 19.968738 L 70.489510 19.852099 L 71.328671 19.669687 L 72.167832 19.863022 L 73.006993 19.484335 L 73.846154 18.918494 L 74.685315 17.683484 L 75.524476 17.611840 L 76.363636 17.375752 L 77.202797 17.639541 L 78.041958 18.382139 L 78.881119 18.211726 L 79.720280 17.796719 L 80.559441 19.384052 L 81.398601 18.762791 L 82.237762 18.300810 L 83.076923 16.676531 L 83.916084 14.671737 L 84.755245 15.739355 L 85.594406 14.960377 L 86.433566 14.619861 L 87.272727 14.024061 L 88.111888 14.253609 L 88.951049 14.299849 L 89.790210 13.299412 L 90.629371 13.746858 L 91.468531 12.935067 L 92.307692 13.520770 L 93.146853 14.577295 L 93.986014 11.872130 L 94.825175 12.500969 L 95.664336 14.455185 L 96.503497 14.007719 L 97.342657 14.171292 L 98.181818 15.112554 L 99.020979 16.039790 L 99.860140 15.371030 L 100.699301 13.443546 L 101.538462 16.204921 L 102.377622 14.918193 L 103.216783 14.333808 L 104.055944 14.793877 L 104.895105 12.475705 L 105.734266 12.876856 L 106.573427 12.625203 L 107.412587 12.199583 L 108.251748 11.778682 L 109.090909 11.671559 L 109.930070 10.932921 L 110.769231 10.096375 L 111.608392 10.601796 L 112.447552 12.134680 L 113.286713 12.483961 L 114.125874 12.477373 L 114.965035 12.919342 L 115.804196 11.059430 L 116.643357 8.800000 L 117.482517 10.106636 L 118.321678 11.174237 L 119.160839 11.373279 L 120.000000 11.642308"></path>
      <path stroke="none" fill-opacity="0.6" fill="url(#color_grad)" d="M 0 40 L 0.000000 18.991548 L 0.839161 19.025371 L 1.678322 20.153142 L 2.517483 20.539251 L 3.356643 20.363909 L 4.195804 21.615992 L 5.034965 21.034139 L 5.874126 22.357712 L 6.713287 22.032737 L 7.552448 21.857028 L 8.391608 21.565723 L 9.230769 20.691933 L 10.069930 20.397983 L 10.909091 20.426625 L 11.748252 20.693480 L 12.587413 21.637291 L 13.426573 21.226603 L 14.265734 20.873144 L 15.104895 24.684601 L 15.944056 24.360880 L 16.783217 28.749774 L 17.622378 18.229863 L 18.461538 17.782782 L 19.300699 17.719708 L 20.139860 17.635529 L 20.979021 17.045988 L 21.818182 12.742276 L 22.657343 14.057108 L 23.496503 13.550197 L 24.335664 13.703896 L 25.174825 13.349994 L 26.013986 13.596079 L 26.853147 13.838645 L 27.692308 13.976625 L 28.531469 14.750775 L 29.370629 14.740873 L 30.209790 24.512613 L 31.048951 24.374572 L 31.888112 24.407124 L 32.727273 26.882835 L 33.566434 26.657239 L 34.405594 28.806780 L 35.244755 29.337029 L 36.083916 16.849697 L 36.923077 16.960107 L 37.762238 16.094363 L 38.601399 15.823775 L 39.440559 15.944407 L 40.279720 15.670409 L 41.118881 14.826619 L 41.958042 16.215795 L 42.797203 17.186697 L 43.636364 17.315232 L 44.475524 16.604950 L 45.314685 15.715439 L 46.153846 17.280933 L 46.993007 20.360035 L 47.832168 33.283477 L 48.671329 33.717280 L 49.510490 36.800000 L 50.349650 14.922267 L 51.188811 15.025082 L 52.027972 14.443517 L 52.867133 14.473721 L 53.706294 14.441915 L 54.545455 14.361629 L 55.384615 13.859718 L 56.223776 13.563191 L 57.062937 12.287984 L 57.902098 12.342888 L 58.741259 12.890571 L 59.580420 13.360320 L 60.419580 13.471734 L 61.258741 13.846008 L 62.097902 13.871253 L 62.937063 15.073996 L 63.776224 16.605793 L 64.615385 16.547376 L 65.454545 16.627031 L 66.293706 18.247755 L 67.132867 18.026483 L 67.972028 19.492777 L 68.811189 19.101877 L 69.650350 19.968738 L 70.489510 19.852099 L 71.328671 19.669687 L 72.167832 19.863022 L 73.006993 19.484335 L 73.846154 18.918494 L 74.685315 17.683484 L 75.524476 17.611840 L 76.363636 17.375752 L 77.202797 17.639541 L 78.041958 18.382139 L 78.881119 18.211726 L 79.720280 17.796719 L 80.559441 19.384052 L 81.398601 18.762791 L 82.237762 18.300810 L 83.076923 16.676531 L 83.916084 14.671737 L 84.755245 15.739355 L 85.594406 14.960377 L 86.433566 14.619861 L 87.272727 14.024061 L 88.111888 14.253609 L 88.951049 14.299849 L 89.790210 13.299412 L 90.629371 13.746858 L 91.468531 12.935067 L 92.307692 13.520770 L 93.146853 14.577295 L 93.986014 11.872130 L 94.825175 12.500969 L 95.664336 14.455185 L 96.503497 14.007719 L 97.342657 14.171292 L 98.181818 15.112554 L 99.020979 16.039790 L 99.860140 15.371030 L 100.699301 13.443546 L 101.538462 16.204921 L 102.377622 14.918193 L 103.216783 14.333808 L 104.055944 14.793877 L 104.895105 12.475705 L 105.734266 12.876856 L 106.573427 12.625203 L 107.412587 12.199583 L 108.251748 11.778682 L 109.090909 11.671559 L 109.930070 10.932921 L 110.769231 10.096375 L 111.608392 10.601796 L 112.447552 12.134680 L 113.286713 12.483961 L 114.125874 12.477373 L 114.965035 12.919342 L 115.804196 11.059430 L 116.643357 8.800000 L 117.482517 10.106636 L 118.321678 11.174237 L 119.160839 11.373279 L 120.000000 11.642308 L 120 40 Z"></path>
    </g>
  </svg>