<svg xmlns="http://www.w3.org/2000/svg" viewBox="0 0 120 40" width="120" height="40">
    <defs>
      <linearGradient id="color_grad" x1="0%" x2="0%" y1="0%" y2="100%">
        <stop offset="0%" style="stop-color:#EA3943;stop-opacity:0.4;"></stop>
        <stop offset="100%" style="stop-color:#EA3943;stop-opacity:0.0;"></stop>
      </linearGradient>
    </defs>
    <g>
      <path stroke="#EA3943" stroke-width="2" stroke-linecap="round" stroke-linejoin="round" fill="none" d="M 0.000000 11.600000 L 0.839161 11.600000 L 1.678322 11.600000 L 2.517483 11.600000 L 3.356643 11.600000 L 4.195804 11.600000 L 5.034965 11.600000 L 5.874126 12.160000 L 6.713287 10.660140 L 7.552448 8.800000 L 8.391608 8.800000 L 9.230769 8.800000 L 10.069930 8.800000 L 10.909091 8.800000 L 11.748252 8.800000 L 12.587413 8.800000 L 13.426573 8.800000 L 14.265734 14.400000 L 15.104895 14.400000 L 15.944056 14.400000 L 16.783217 25.600000 L 17.622378 19.766993 L 18.461538 20.000000 L 19.300699 20.000000 L 20.139860 22.800000 L 20.979021 22.800000 L 21.818182 22.800000 L 22.657343 22.800000 L 23.496503 22.800000 L 24.335664 22.800000 L 25.174825 22.800000 L 26.013986 22.800000 L 26.853147 22.800000 L 27.692308 25.600000 L 28.531469 25.600000 L 29.370629 25.600000 L 30.209790 25.600000 L 31.048951 25.600000 L 31.888112 25.600000 L 32.727273 25.600000 L 33.566434 25.600000 L 34.405594 25.600000 L 35.244755 25.600000 L 36.083916 25.600000 L 36.923077 25.600000 L 37.762238 25.600000 L 38.601399 25.600000 L 39.440559 25.600000 L 40.279720 25.600000 L 41.118881 25.600000 L 41.958042 25.600000 L 42.797203 25.600000 L 43.636364 25.600000 L 44.475524 25.600000 L 45.314685 25.600000 L 46.153846 25.600000 L 46.993007 25.600000 L 47.832168 25.600000 L 48.671329 25.600000 L 49.510490 25.600000 L 50.349650 25.600000 L 51.188811 25.600000 L 52.027972 25.600000 L 52.867133 25.600000 L 53.706294 25.600000 L 54.545455 25.600000 L 55.384615 25.600000 L 56.223776 25.600000 L 57.062937 25.600000 L 57.902098 25.600000 L 58.741259 25.600000 L 59.580420 25.600000 L 60.419580 25.600000 L 61.258741 25.600000 L 62.097902 26.720000 L 62.937063 26.720000 L 63.776224 26.720000 L 64.615385 26.720000 L 65.454545 26.720000 L 66.293706 27.280000 L 67.132867 27.280000 L 67.972028 27.280000 L 68.811189 27.280000 L 69.650350 27.280000 L 70.489510 27.280000 L 71.328671 27.280000 L 72.167832 27.280000 L 73.006993 27.280000 L 73.846154 27.280000 L 74.685315 27.280000 L 75.524476 26.845315 L 76.363636 26.720000 L 77.202797 26.720000 L 78.041958 26.720000 L 78.881119 26.720000 L 79.720280 26.720000 L 80.559441 26.720000 L 81.398601 26.720000 L 82.237762 26.160000 L 83.076923 26.440000 L 83.916084 26.440000 L 84.755245 26.160000 L 85.594406 26.160000 L 86.433566 26.160000 L 87.272727 26.160000 L 88.111888 26.160000 L 88.951049 26.160000 L 89.790210 26.720000 L 90.629371 26.720000 L 91.468531 26.720000 L 92.307692 26.720000 L 93.146853 26.720000 L 93.986014 26.720000 L 94.825175 26.720000 L 95.664336 28.400000 L 96.503497 28.400000 L 97.342657 28.400000 L 98.181818 28.400000 L 99.020979 28.400000 L 99.860140 28.400000 L 100.699301 28.400000 L 101.538462 28.400000 L 102.377622 28.400000 L 103.216783 28.400000 L 104.055944 28.400000 L 104.895105 28.400000 L 105.734266 28.400000 L 106.573427 28.400000 L 107.412587 28.400000 L 108.251748 28.400000 L 109.090909 36.800000 L 109.930070 36.800000 L 110.769231 36.800000 L 111.608392 36.800000 L 112.447552 36.800000 L 113.286713 36.800000 L 114.125874 36.800000 L 114.965035 36.800000 L 115.804196 36.800000 L 116.643357 31.200000 L 117.482517 31.200000 L 118.321678 31.200000 L 119.160839 31.200000 L 120.000000 31.200000"></path>
      <path stroke="none" fill-opacity="0.6" fill="url(#color_grad)" d="M 0 40 L 0.000000 11.600000 L 0.839161 11.600000 L 1.678322 11.600000 L 2.517483 11.600000 L 3.356643 11.600000 L 4.195804 11.600000 L 5.034965 11.600000 L 5.874126 12.160000 L 6.713287 10.660140 L 7.552448 8.800000 L 8.391608 8.800000 L 9.230769 8.800000 L 10.069930 8.800000 L 10.909091 8.800000 L 11.748252 8.800000 L 12.587413 8.800000 L 13.426573 8.800000 L 14.265734 14.400000 L 15.104895 14.400000 L 15.944056 14.400000 L 16.783217 25.600000 L 17.622378 19.766993 L 18.461538 20.000000 L 19.300699 20.000000 L 20.139860 22.800000 L 20.979021 22.800000 L 21.818182 22.800000 L 22.657343 22.800000 L 23.496503 22.800000 L 24.335664 22.800000 L 25.174825 22.800000 L 26.013986 22.800000 L 26.853147 22.800000 L 27.692308 25.600000 L 28.531469 25.600000 L 29.370629 25.600000 L 30.209790 25.600000 L 31.048951 25.600000 L 31.888112 25.600000 L 32.727273 25.600000 L 33.566434 25.600000 L 34.405594 25.600000 L 35.244755 25.600000 L 36.083916 25.600000 L 36.923077 25.600000 L 37.762238 25.600000 L 38.601399 25.600000 L 39.440559 25.600000 L 40.279720 25.600000 L 41.118881 25.600000 L 41.958042 25.600000 L 42.797203 25.600000 L 43.636364 25.600000 L 44.475524 25.600000 L 45.314685 25.600000 L 46.153846 25.600000 L 46.993007 25.600000 L 47.832168 25.600000 L 48.671329 25.600000 L 49.510490 25.600000 L 50.349650 25.600000 L 51.188811 25.600000 L 52.027972 25.600000 L 52.867133 25.600000 L 53.706294 25.600000 L 54.545455 25.600000 L 55.384615 25.600000 L 56.223776 25.600000 L 57.062937 25.600000 L 57.902098 25.600000 L 58.741259 25.600000 L 59.580420 25.600000 L 60.419580 25.600000 L 61.258741 25.600000 L 62.097902 26.720000 L 62.937063 26.720000 L 63.776224 26.720000 L 64.615385 26.720000 L 65.454545 26.720000 L 66.293706 27.280000 L 67.132867 27.280000 L 67.972028 27.280000 L 68.811189 27.280000 L 69.650350 27.280000 L 70.489510 27.280000 L 71.328671 27.280000 L 72.167832 27.280000 L 73.006993 27.280000 L 73.846154 27.280000 L 74.685315 27.280000 L 75.524476 26.845315 L 76.363636 26.720000 L 77.202797 26.720000 L 78.041958 26.720000 L 78.881119 26.720000 L 79.720280 26.720000 L 80.559441 26.720000 L 81.398601 26.720000 L 82.237762 26.160000 L 83.076923 26.440000 L 83.916084 26.440000 L 84.755245 26.160000 L 85.594406 26.160000 L 86.433566 26.160000 L 87.272727 26.160000 L 88.111888 26.160000 L 88.951049 26.160000 L 89.790210 26.720000 L 90.629371 26.720000 L 91.468531 26.720000 L 92.307692 26.720000 L 93.146853 26.720000 L 93.986014 26.720000 L 94.825175 26.720000 L 95.664336 28.400000 L 96.503497 28.400000 L 97.342657 28.400000 L 98.181818 28.400000 L 99.020979 28.400000 L 99.860140 28.400000 L 100.699301 28.400000 L 101.538462 28.400000 L 102.377622 28.400000 L 103.216783 28.400000 L 104.055944 28.400000 L 104.895105 28.400000 L 105.734266 28.400000 L 106.573427 28.400000 L 107.412587 28.400000 L 108.251748 28.400000 L 109.090909 36.800000 L 109.930070 36.800000 L 110.769231 36.800000 L 111.608392 36.800000 L 112.447552 36.800000 L 113.286713 36.800000 L 114.125874 36.800000 L 114.965035 36.800000 L 115.804196 36.800000 L 116.643357 31.200000 L 117.482517 31.200000 L 118.321678 31.200000 L 119.160839 31.200000 L 120.000000 31.200000 L 120 40 Z"></path>
    </g>
  </svg>