<svg xmlns="http://www.w3.org/2000/svg" viewBox="0 0 120 40" width="120" height="40">
    <defs>
      <linearGradient id="color_grad" x1="0%" x2="0%" y1="0%" y2="100%">
        <stop offset="0%" style="stop-color:#16C784;stop-opacity:0.4;"></stop>
        <stop offset="100%" style="stop-color:#16C784;stop-opacity:0.0;"></stop>
      </linearGradient>
    </defs>
    <g>
      <path stroke="#16C784" stroke-width="2" stroke-linecap="round" stroke-linejoin="round" fill="none" d="M 0.000000 14.438313 L 0.839161 14.528720 L 1.678322 17.541907 L 2.517483 18.573439 L 3.356643 18.104991 L 4.195804 21.450443 L 5.034965 19.895803 L 5.874126 21.074447 L 6.713287 17.792456 L 7.552448 14.320994 L 8.391608 13.520476 L 9.230769 11.118834 L 10.069930 10.310937 L 10.909091 10.389805 L 11.748252 11.123171 L 12.587413 13.717079 L 13.426573 12.588334 L 14.265734 20.710737 L 15.104895 20.997952 L 15.944056 20.104652 L 16.783217 36.800000 L 17.622378 25.781006 L 18.461538 25.028797 L 19.300699 24.868659 L 20.139860 29.290171 L 20.979021 27.818051 L 21.818182 17.070492 L 22.657343 20.353902 L 23.496503 19.088149 L 24.335664 19.471794 L 25.174825 18.588193 L 26.013986 19.202751 L 26.853147 19.808367 L 27.692308 24.948899 L 28.531469 26.848257 L 29.370629 26.823952 L 30.209790 25.312933 L 31.048951 24.938585 L 31.888112 25.026799 L 32.727273 24.663448 L 33.566434 24.035380 L 34.405594 24.787996 L 35.244755 24.218255 L 36.083916 25.683143 L 36.923077 25.633915 L 37.762238 23.455872 L 38.601399 22.774965 L 39.440559 23.078409 L 40.279720 22.389140 L 41.118881 20.266363 L 41.958042 23.761352 L 42.797203 26.203749 L 43.636364 26.527250 L 44.475524 24.740296 L 45.314685 22.502425 L 46.153846 22.465308 L 46.993007 21.220654 L 47.832168 20.334866 L 48.671329 21.649482 L 49.510490 20.553126 L 50.349650 20.506951 L 51.188811 20.765691 L 52.027972 19.302580 L 52.867133 19.378710 L 53.706294 19.298726 L 54.545455 19.096671 L 55.384615 17.834031 L 56.223776 17.087937 L 57.062937 13.879691 L 57.902098 14.017939 L 58.741259 15.395703 L 59.580420 16.577485 L 60.419580 16.857846 L 61.258741 17.799401 L 62.097902 19.832046 L 62.937063 22.836114 L 63.776224 26.662343 L 64.615385 26.516301 L 65.454545 26.715336 L 66.293706 31.708654 L 67.132867 31.158095 L 67.972028 34.807439 L 68.811189 33.834441 L 69.650350 35.992005 L 70.489510 35.701780 L 71.328671 35.247731 L 72.167832 35.728958 L 73.006993 34.786352 L 73.846154 33.378086 L 74.685315 30.304333 L 75.524476 29.388144 L 76.363636 28.585466 L 77.202797 29.244384 L 78.041958 31.099265 L 78.881119 30.673686 L 79.720280 29.637038 L 80.559441 33.601784 L 81.398601 32.050140 L 82.237762 29.951533 L 83.076923 26.359427 L 83.916084 21.342787 L 84.755245 23.530387 L 85.594406 21.577606 L 86.433566 20.723937 L 87.272727 19.230411 L 88.111888 19.806000 L 88.951049 19.921845 L 89.790210 18.403565 L 90.629371 19.521199 L 91.468531 17.493561 L 92.307692 18.956536 L 93.146853 21.595573 L 93.986014 14.838578 L 94.825175 16.409238 L 95.664336 24.228159 L 96.503497 23.122666 L 97.342657 23.526813 L 98.181818 25.852481 L 99.020979 28.143423 L 99.860140 26.491206 L 100.699301 21.728687 L 101.538462 28.551491 L 102.377622 25.372293 L 103.216783 23.928212 L 104.055944 25.065027 L 104.895105 19.337151 L 105.734266 20.328374 L 106.573427 19.706461 L 107.412587 18.654991 L 108.251748 17.615023 L 109.090909 32.414140 L 109.930070 30.688529 L 110.769231 28.734359 L 111.608392 29.915134 L 112.447552 29.687370 L 113.286713 28.155754 L 114.125874 28.140026 L 114.965035 29.197012 L 115.804196 24.748898 L 116.643357 8.800000 L 117.482517 12.045310 L 118.321678 14.696712 L 119.160839 15.190901 L 120.000000 15.858993"></path>
      <path stroke="none" fill-opacity="0.6" fill="url(#color_grad)" d="M 0 40 L 0.000000 14.438313 L 0.839161 14.528720 L 1.678322 17.541907 L 2.517483 18.573439 L 3.356643 18.104991 L 4.195804 21.450443 L 5.034965 19.895803 L 5.874126 21.074447 L 6.713287 17.792456 L 7.552448 14.320994 L 8.391608 13.520476 L 9.230769 11.118834 L 10.069930 10.310937 L 10.909091 10.389805 L 11.748252 11.123171 L 12.587413 13.717079 L 13.426573 12.588334 L 14.265734 20.710737 L 15.104895 20.997952 L 15.944056 20.104652 L 16.783217 36.800000 L 17.622378 25.781006 L 18.461538 25.028797 L 19.300699 24.868659 L 20.139860 29.290171 L 20.979021 27.818051 L 21.818182 17.070492 L 22.657343 20.353902 L 23.496503 19.088149 L 24.335664 19.471794 L 25.174825 18.588193 L 26.013986 19.202751 L 26.853147 19.808367 L 27.692308 24.948899 L 28.531469 26.848257 L 29.370629 26.823952 L 30.209790 25.312933 L 31.048951 24.938585 L 31.888112 25.026799 L 32.727273 24.663448 L 33.566434 24.035380 L 34.405594 24.787996 L 35.244755 24.218255 L 36.083916 25.683143 L 36.923077 25.633915 L 37.762238 23.455872 L 38.601399 22.774965 L 39.440559 23.078409 L 40.279720 22.389140 L 41.118881 20.266363 L 41.958042 23.761352 L 42.797203 26.203749 L 43.636364 26.527250 L 44.475524 24.740296 L 45.314685 22.502425 L 46.153846 22.465308 L 46.993007 21.220654 L 47.832168 20.334866 L 48.671329 21.649482 L 49.510490 20.553126 L 50.349650 20.506951 L 51.188811 20.765691 L 52.027972 19.302580 L 52.867133 19.378710 L 53.706294 19.298726 L 54.545455 19.096671 L 55.384615 17.834031 L 56.223776 17.087937 L 57.062937 13.879691 L 57.902098 14.017939 L 58.741259 15.395703 L 59.580420 16.577485 L 60.419580 16.857846 L 61.258741 17.799401 L 62.097902 19.832046 L 62.937063 22.836114 L 63.776224 26.662343 L 64.615385 26.516301 L 65.454545 26.715336 L 66.293706 31.708654 L 67.132867 31.158095 L 67.972028 34.807439 L 68.811189 33.834441 L 69.650350 35.992005 L 70.489510 35.701780 L 71.328671 35.247731 L 72.167832 35.728958 L 73.006993 34.786352 L 73.846154 33.378086 L 74.685315 30.304333 L 75.524476 29.388144 L 76.363636 28.585466 L 77.202797 29.244384 L 78.041958 31.099265 L 78.881119 30.673686 L 79.720280 29.637038 L 80.559441 33.601784 L 81.398601 32.050140 L 82.237762 29.951533 L 83.076923 26.359427 L 83.916084 21.342787 L 84.755245 23.530387 L 85.594406 21.577606 L 86.433566 20.723937 L 87.272727 19.230411 L 88.111888 19.806000 L 88.951049 19.921845 L 89.790210 18.403565 L 90.629371 19.521199 L 91.468531 17.493561 L 92.307692 18.956536 L 93.146853 21.595573 L 93.986014 14.838578 L 94.825175 16.409238 L 95.664336 24.228159 L 96.503497 23.122666 L 97.342657 23.526813 L 98.181818 25.852481 L 99.020979 28.143423 L 99.860140 26.491206 L 100.699301 21.728687 L 101.538462 28.551491 L 102.377622 25.372293 L 103.216783 23.928212 L 104.055944 25.065027 L 104.895105 19.337151 L 105.734266 20.328374 L 106.573427 19.706461 L 107.412587 18.654991 L 108.251748 17.615023 L 109.090909 32.414140 L 109.930070 30.688529 L 110.769231 28.734359 L 111.608392 29.915134 L 112.447552 29.687370 L 113.286713 28.155754 L 114.125874 28.140026 L 114.965035 29.197012 L 115.804196 24.748898 L 116.643357 8.800000 L 117.482517 12.045310 L 118.321678 14.696712 L 119.160839 15.190901 L 120.000000 15.858993 L 120 40 Z"></path>
    </g>
  </svg>