<svg xmlns="http://www.w3.org/2000/svg" viewBox="0 0 120 40" width="120" height="40">
    <defs>
      <linearGradient id="color_grad" x1="0%" x2="0%" y1="0%" y2="100%">
        <stop offset="0%" style="stop-color:#EA3943;stop-opacity:0.4;"></stop>
        <stop offset="100%" style="stop-color:#EA3943;stop-opacity:0.0;"></stop>
      </linearGradient>
    </defs>
    <g>
      <path stroke="#EA3943" stroke-width="2" stroke-linecap="round" stroke-linejoin="round" fill="none" d="M 0.000000 18.940570 L 0.839161 14.867420 L 1.678322 19.911037 L 2.517483 16.190042 L 3.356643 17.048764 L 4.195804 18.131794 L 5.034965 16.621575 L 5.874126 16.916732 L 6.713287 16.628467 L 7.552448 16.474713 L 8.391608 16.013271 L 9.230769 17.284057 L 10.069930 14.981643 L 10.909091 18.079550 L 11.748252 18.905498 L 12.587413 16.078502 L 13.426573 19.779709 L 14.265734 15.389318 L 15.104895 14.479147 L 15.944056 14.177167 L 16.783217 13.626156 L 17.622378 13.115698 L 18.461538 13.238224 L 19.300699 18.897901 L 20.139860 13.110490 L 20.979021 12.592368 L 21.818182 8.806732 L 22.657343 9.961863 L 23.496503 10.165131 L 24.335664 10.298597 L 25.174825 8.800000 L 26.013986 14.301875 L 26.853147 9.233762 L 27.692308 11.504903 L 28.531469 13.242704 L 29.370629 13.234289 L 30.209790 12.707023 L 31.048951 12.577538 L 31.888112 15.833042 L 32.727273 12.481738 L 33.566434 12.262616 L 34.405594 12.601761 L 35.244755 13.277958 L 36.083916 13.909553 L 36.923077 13.892973 L 37.762238 12.218583 L 38.601399 11.824373 L 39.440559 11.928475 L 40.279720 11.689270 L 41.118881 13.137692 L 41.958042 14.326690 L 42.797203 15.158460 L 43.636364 15.270591 L 44.475524 14.660057 L 45.314685 19.325886 L 46.153846 13.886468 L 46.993007 18.915619 L 47.832168 19.726123 L 48.671329 21.085477 L 49.510490 21.981296 L 50.349650 21.966262 L 51.188811 24.232762 L 52.027972 23.791835 L 52.867133 23.815126 L 53.706294 18.850001 L 54.545455 18.784155 L 55.384615 18.382645 L 56.223776 18.144395 L 57.062937 17.122457 L 57.902098 17.168788 L 58.741259 19.170290 L 59.580420 19.645311 L 60.419580 19.732651 L 61.258741 20.026648 L 62.097902 23.360984 L 62.937063 25.360736 L 63.776224 27.041449 L 64.615385 23.227337 L 65.454545 25.443162 L 66.293706 27.726084 L 67.132867 27.774212 L 67.972028 32.844076 L 68.811189 32.568411 L 69.650350 25.881292 L 70.489510 29.967042 L 71.328671 29.830893 L 72.167832 29.974298 L 73.006993 29.695744 L 73.846154 29.278699 L 74.685315 28.372372 L 75.524476 31.518543 L 76.363636 31.350255 L 77.202797 31.537671 L 78.041958 32.060433 L 78.881119 32.940809 L 79.720280 32.713408 L 80.559441 24.378828 L 81.398601 27.056960 L 82.237762 26.707672 L 83.076923 22.252594 L 83.916084 20.677189 L 84.755245 24.772492 L 85.594406 24.576502 L 86.433566 23.925574 L 87.272727 26.782592 L 88.111888 26.947968 L 88.951049 26.982222 L 89.790210 26.812501 L 90.629371 27.134429 L 91.468531 26.549619 L 92.307692 26.971191 L 93.146853 27.732862 L 93.986014 25.783217 L 94.825175 26.348625 L 95.664336 27.755083 L 96.503497 24.676646 L 97.342657 24.797375 L 98.181818 25.497272 L 99.020979 28.244684 L 99.860140 27.758563 L 100.699301 26.361248 L 101.538462 28.364252 L 102.377622 27.431428 L 103.216783 27.005717 L 104.055944 27.340131 L 104.895105 25.659418 L 105.734266 27.574196 L 106.573427 25.879404 L 107.412587 25.570259 L 108.251748 25.265186 L 109.090909 25.187695 L 109.930070 24.652287 L 110.769231 24.047712 L 111.608392 24.754956 L 112.447552 24.684743 L 113.286713 27.185604 L 114.125874 27.181373 L 114.965035 28.637256 L 115.804196 28.490121 L 116.643357 30.477840 L 117.482517 33.677484 L 118.321678 36.678043 L 119.160839 36.800000 L 120.000000 28.893155"></path>
      <path stroke="none" fill-opacity="0.6" fill="url(#color_grad)" d="M 0 40 L 0.000000 18.940570 L 0.839161 14.867420 L 1.678322 19.911037 L 2.517483 16.190042 L 3.356643 17.048764 L 4.195804 18.131794 L 5.034965 16.621575 L 5.874126 16.916732 L 6.713287 16.628467 L 7.552448 16.474713 L 8.391608 16.013271 L 9.230769 17.284057 L 10.069930 14.981643 L 10.909091 18.079550 L 11.748252 18.905498 L 12.587413 16.078502 L 13.426573 19.779709 L 14.265734 15.389318 L 15.104895 14.479147 L 15.944056 14.177167 L 16.783217 13.626156 L 17.622378 13.115698 L 18.461538 13.238224 L 19.300699 18.897901 L 20.139860 13.110490 L 20.979021 12.592368 L 21.818182 8.806732 L 22.657343 9.961863 L 23.496503 10.165131 L 24.335664 10.298597 L 25.174825 8.800000 L 26.013986 14.301875 L 26.853147 9.233762 L 27.692308 11.504903 L 28.531469 13.242704 L 29.370629 13.234289 L 30.209790 12.707023 L 31.048951 12.577538 L 31.888112 15.833042 L 32.727273 12.481738 L 33.566434 12.262616 L 34.405594 12.601761 L 35.244755 13.277958 L 36.083916 13.909553 L 36.923077 13.892973 L 37.762238 12.218583 L 38.601399 11.824373 L 39.440559 11.928475 L 40.279720 11.689270 L 41.118881 13.137692 L 41.958042 14.326690 L 42.797203 15.158460 L 43.636364 15.270591 L 44.475524 14.660057 L 45.314685 19.325886 L 46.153846 13.886468 L 46.993007 18.915619 L 47.832168 19.726123 L 48.671329 21.085477 L 49.510490 21.981296 L 50.349650 21.966262 L 51.188811 24.232762 L 52.027972 23.791835 L 52.867133 23.815126 L 53.706294 18.850001 L 54.545455 18.784155 L 55.384615 18.382645 L 56.223776 18.144395 L 57.062937 17.122457 L 57.902098 17.168788 L 58.741259 19.170290 L 59.580420 19.645311 L 60.419580 19.732651 L 61.258741 20.026648 L 62.097902 23.360984 L 62.937063 25.360736 L 63.776224 27.041449 L 64.615385 23.227337 L 65.454545 25.443162 L 66.293706 27.726084 L 67.132867 27.774212 L 67.972028 32.844076 L 68.811189 32.568411 L 69.650350 25.881292 L 70.489510 29.967042 L 71.328671 29.830893 L 72.167832 29.974298 L 73.006993 29.695744 L 73.846154 29.278699 L 74.685315 28.372372 L 75.524476 31.518543 L 76.363636 31.350255 L 77.202797 31.537671 L 78.041958 32.060433 L 78.881119 32.940809 L 79.720280 32.713408 L 80.559441 24.378828 L 81.398601 27.056960 L 82.237762 26.707672 L 83.076923 22.252594 L 83.916084 20.677189 L 84.755245 24.772492 L 85.594406 24.576502 L 86.433566 23.925574 L 87.272727 26.782592 L 88.111888 26.947968 L 88.951049 26.982222 L 89.790210 26.812501 L 90.629371 27.134429 L 91.468531 26.549619 L 92.307692 26.971191 L 93.146853 27.732862 L 93.986014 25.783217 L 94.825175 26.348625 L 95.664336 27.755083 L 96.503497 24.676646 L 97.342657 24.797375 L 98.181818 25.497272 L 99.020979 28.244684 L 99.860140 27.758563 L 100.699301 26.361248 L 101.538462 28.364252 L 102.377622 27.431428 L 103.216783 27.005717 L 104.055944 27.340131 L 104.895105 25.659418 L 105.734266 27.574196 L 106.573427 25.879404 L 107.412587 25.570259 L 108.251748 25.265186 L 109.090909 25.187695 L 109.930070 24.652287 L 110.769231 24.047712 L 111.608392 24.754956 L 112.447552 24.684743 L 113.286713 27.185604 L 114.125874 27.181373 L 114.965035 28.637256 L 115.804196 28.490121 L 116.643357 30.477840 L 117.482517 33.677484 L 118.321678 36.678043 L 119.160839 36.800000 L 120.000000 28.893155 L 120 40 Z"></path>
    </g>
  </svg>