<svg xmlns="http://www.w3.org/2000/svg" viewBox="0 0 120 40" width="120" height="40">
    <defs>
      <linearGradient id="color_grad" x1="0%" x2="0%" y1="0%" y2="100%">
        <stop offset="0%" style="stop-color:#EA3943;stop-opacity:0.4;"></stop>
        <stop offset="100%" style="stop-color:#EA3943;stop-opacity:0.0;"></stop>
      </linearGradient>
    </defs>
    <g>
      <path stroke="#EA3943" stroke-width="2" stroke-linecap="round" stroke-linejoin="round" fill="none" d="M 0.000000 13.466667 L 0.839161 9.733333 L 1.678322 13.466667 L 2.517483 9.733333 L 3.356643 10.666667 L 4.195804 10.666667 L 5.034965 9.733333 L 5.874126 9.920000 L 6.713287 9.920000 L 7.552448 9.920000 L 8.391608 9.733333 L 9.230769 11.600000 L 10.069930 9.733333 L 10.909091 12.533333 L 11.748252 13.081585 L 12.587413 9.733333 L 13.426573 13.466667 L 14.265734 9.721585 L 15.104895 8.800000 L 15.944056 8.800000 L 16.783217 8.800000 L 17.622378 8.800000 L 18.461538 9.266667 L 19.300699 14.400000 L 20.139860 9.266667 L 20.979021 9.266667 L 21.818182 9.266667 L 22.657343 9.266667 L 23.496503 9.826667 L 24.335664 9.826667 L 25.174825 8.800000 L 26.013986 13.368765 L 26.853147 8.800000 L 27.692308 10.666667 L 28.531469 11.600000 L 29.370629 11.600000 L 30.209790 11.600000 L 31.048951 11.600000 L 31.888112 14.400000 L 32.727273 11.600000 L 33.566434 11.600000 L 34.405594 11.667226 L 35.244755 12.422378 L 36.083916 12.533333 L 36.923077 12.533333 L 37.762238 11.735105 L 38.601399 11.600000 L 39.440559 11.600000 L 40.279720 11.600000 L 41.118881 13.466667 L 41.958042 13.466667 L 42.797203 13.466667 L 43.636364 13.466667 L 44.475524 13.466667 L 45.314685 18.133333 L 46.153846 13.466667 L 46.993007 18.133333 L 47.832168 19.066667 L 48.671329 19.875991 L 49.510490 20.933333 L 50.349650 20.933333 L 51.188811 22.800000 L 52.027972 22.800000 L 52.867133 22.800000 L 53.706294 18.600000 L 54.545455 18.600000 L 55.384615 18.600000 L 56.223776 18.600000 L 57.062937 18.600000 L 57.902098 18.600000 L 58.741259 19.911888 L 59.580420 20.000000 L 60.419580 20.000000 L 61.258741 20.000000 L 62.097902 22.800000 L 62.937063 23.733333 L 63.776224 24.200000 L 64.615385 20.933333 L 65.454545 22.800000 L 66.293706 23.733333 L 67.132867 23.920000 L 67.972028 27.466667 L 68.811189 27.466667 L 69.650350 20.933333 L 70.489510 24.666667 L 71.328671 24.666667 L 72.167832 24.666667 L 73.006993 24.666667 L 73.846154 24.666667 L 74.685315 24.666667 L 75.524476 27.466667 L 76.363636 27.466667 L 77.202797 27.466667 L 78.041958 27.466667 L 78.881119 28.347786 L 79.720280 28.400000 L 80.559441 20.000000 L 81.398601 22.800000 L 82.237762 22.800000 L 83.076923 20.000000 L 83.916084 20.000000 L 84.755245 22.800000 L 85.594406 23.136131 L 86.433566 22.800000 L 87.272727 25.600000 L 88.111888 25.600000 L 88.951049 25.600000 L 89.790210 26.066667 L 90.629371 26.066667 L 91.468531 26.066667 L 92.307692 26.066667 L 93.146853 26.066667 L 93.986014 26.066667 L 94.825175 26.160000 L 95.664336 26.160000 L 96.503497 23.826667 L 97.342657 23.826667 L 98.181818 23.826667 L 99.020979 25.600000 L 99.860140 25.600000 L 100.699301 25.600000 L 101.538462 25.600000 L 102.377622 25.600000 L 103.216783 25.600000 L 104.055944 25.600000 L 104.895105 25.600000 L 105.734266 26.958228 L 106.573427 25.693333 L 107.412587 25.693333 L 108.251748 25.693333 L 109.090909 25.693333 L 109.930070 25.693333 L 110.769231 25.693333 L 111.608392 25.973333 L 112.447552 25.973333 L 113.286713 28.400000 L 114.125874 28.400000 L 114.965035 29.333333 L 115.804196 30.266667 L 116.643357 33.066667 L 117.482517 34.933333 L 118.321678 36.800000 L 119.160839 36.800000 L 120.000000 30.266667"></path>
      <path stroke="none" fill-opacity="0.6" fill="url(#color_grad)" d="M 0 40 L 0.000000 13.466667 L 0.839161 9.733333 L 1.678322 13.466667 L 2.517483 9.733333 L 3.356643 10.666667 L 4.195804 10.666667 L 5.034965 9.733333 L 5.874126 9.920000 L 6.713287 9.920000 L 7.552448 9.920000 L 8.391608 9.733333 L 9.230769 11.600000 L 10.069930 9.733333 L 10.909091 12.533333 L 11.748252 13.081585 L 12.587413 9.733333 L 13.426573 13.466667 L 14.265734 9.721585 L 15.104895 8.800000 L 15.944056 8.800000 L 16.783217 8.800000 L 17.622378 8.800000 L 18.461538 9.266667 L 19.300699 14.400000 L 20.139860 9.266667 L 20.979021 9.266667 L 21.818182 9.266667 L 22.657343 9.266667 L 23.496503 9.826667 L 24.335664 9.826667 L 25.174825 8.800000 L 26.013986 13.368765 L 26.853147 8.800000 L 27.692308 10.666667 L 28.531469 11.600000 L 29.370629 11.600000 L 30.209790 11.600000 L 31.048951 11.600000 L 31.888112 14.400000 L 32.727273 11.600000 L 33.566434 11.600000 L 34.405594 11.667226 L 35.244755 12.422378 L 36.083916 12.533333 L 36.923077 12.533333 L 37.762238 11.735105 L 38.601399 11.600000 L 39.440559 11.600000 L 40.279720 11.600000 L 41.118881 13.466667 L 41.958042 13.466667 L 42.797203 13.466667 L 43.636364 13.466667 L 44.475524 13.466667 L 45.314685 18.133333 L 46.153846 13.466667 L 46.993007 18.133333 L 47.832168 19.066667 L 48.671329 19.875991 L 49.510490 20.933333 L 50.349650 20.933333 L 51.188811 22.800000 L 52.027972 22.800000 L 52.867133 22.800000 L 53.706294 18.600000 L 54.545455 18.600000 L 55.384615 18.600000 L 56.223776 18.600000 L 57.062937 18.600000 L 57.902098 18.600000 L 58.741259 19.911888 L 59.580420 20.000000 L 60.419580 20.000000 L 61.258741 20.000000 L 62.097902 22.800000 L 62.937063 23.733333 L 63.776224 24.200000 L 64.615385 20.933333 L 65.454545 22.800000 L 66.293706 23.733333 L 67.132867 23.920000 L 67.972028 27.466667 L 68.811189 27.466667 L 69.650350 20.933333 L 70.489510 24.666667 L 71.328671 24.666667 L 72.167832 24.666667 L 73.006993 24.666667 L 73.846154 24.666667 L 74.685315 24.666667 L 75.524476 27.466667 L 76.363636 27.466667 L 77.202797 27.466667 L 78.041958 27.466667 L 78.881119 28.347786 L 79.720280 28.400000 L 80.559441 20.000000 L 81.398601 22.800000 L 82.237762 22.800000 L 83.076923 20.000000 L 83.916084 20.000000 L 84.755245 22.800000 L 85.594406 23.136131 L 86.433566 22.800000 L 87.272727 25.600000 L 88.111888 25.600000 L 88.951049 25.600000 L 89.790210 26.066667 L 90.629371 26.066667 L 91.468531 26.066667 L 92.307692 26.066667 L 93.146853 26.066667 L 93.986014 26.066667 L 94.825175 26.160000 L 95.664336 26.160000 L 96.503497 23.826667 L 97.342657 23.826667 L 98.181818 23.826667 L 99.020979 25.600000 L 99.860140 25.600000 L 100.699301 25.600000 L 101.538462 25.600000 L 102.377622 25.600000 L 103.216783 25.600000 L 104.055944 25.600000 L 104.895105 25.600000 L 105.734266 26.958228 L 106.573427 25.693333 L 107.412587 25.693333 L 108.251748 25.693333 L 109.090909 25.693333 L 109.930070 25.693333 L 110.769231 25.693333 L 111.608392 25.973333 L 112.447552 25.973333 L 113.286713 28.400000 L 114.125874 28.400000 L 114.965035 29.333333 L 115.804196 30.266667 L 116.643357 33.066667 L 117.482517 34.933333 L 118.321678 36.800000 L 119.160839 36.800000 L 120.000000 30.266667 L 120 40 Z"></path>
    </g>
  </svg>