<svg xmlns="http://www.w3.org/2000/svg" viewBox="0 0 120 40" width="120" height="40">
    <defs>
      <linearGradient id="color_grad" x1="0%" x2="0%" y1="0%" y2="100%">
        <stop offset="0%" style="stop-color:#EA3943;stop-opacity:0.4;"></stop>
        <stop offset="100%" style="stop-color:#EA3943;stop-opacity:0.0;"></stop>
      </linearGradient>
    </defs>
    <g>
      <path stroke="#EA3943" stroke-width="2" stroke-linecap="round" stroke-linejoin="round" fill="none" d="M 0.000000 28.536643 L 0.839161 26.141699 L 1.678322 23.391654 L 2.517483 23.692919 L 3.356643 23.561149 L 4.195804 27.489803 L 5.034965 27.797914 L 5.874126 29.227846 L 6.713287 23.907053 L 7.552448 23.771457 L 8.391608 23.537923 L 9.230769 22.842894 L 10.069930 22.614865 L 10.909091 28.681502 L 11.748252 28.874156 L 12.587413 28.374264 L 13.426573 27.866518 L 14.265734 27.935860 L 15.104895 27.583378 L 15.944056 27.336351 L 16.783217 28.385474 L 17.622378 26.629374 L 18.461538 26.677369 L 19.300699 26.680658 L 20.139860 26.618164 L 20.979021 26.185331 L 21.818182 23.993646 L 22.657343 24.945368 L 23.496503 24.577245 L 24.335664 28.187853 L 25.174825 22.834973 L 26.013986 17.191905 L 26.853147 19.066148 L 27.692308 24.883074 L 28.531469 25.967236 L 29.370629 24.580534 L 30.209790 23.405818 L 31.048951 17.263260 L 31.888112 24.909992 L 32.727273 21.622666 L 33.566434 21.431556 L 34.405594 15.305981 L 35.244755 15.119302 L 36.083916 9.908529 L 36.923077 9.571755 L 37.762238 8.800000 L 38.601399 14.646731 L 39.440559 17.847128 L 40.279720 20.920387 L 41.118881 20.269594 L 41.958042 21.346708 L 42.797203 22.094298 L 43.636364 25.354974 L 44.475524 24.825077 L 45.314685 27.368505 L 46.153846 24.152803 L 46.993007 33.441385 L 47.832168 26.752887 L 48.671329 25.337052 L 49.510490 24.877838 L 50.349650 24.859513 L 51.188811 27.513901 L 52.027972 31.316424 L 52.867133 31.338912 L 53.706294 31.319512 L 54.545455 31.268026 L 55.384615 30.930513 L 56.223776 30.732490 L 57.062937 28.552955 L 57.902098 28.301565 L 58.741259 28.633775 L 59.580420 29.022707 L 60.419580 29.167365 L 61.258741 32.548601 L 62.097902 32.569746 L 62.937063 33.350563 L 63.776224 34.359678 L 64.615385 34.318999 L 65.454545 34.365048 L 66.293706 35.429005 L 67.132867 33.265984 L 67.972028 33.155560 L 68.811189 32.885376 L 69.650350 33.478238 L 70.489510 33.396344 L 71.328671 34.816743 L 72.167832 35.508282 L 73.006993 35.622263 L 73.846154 36.800000 L 74.685315 34.435464 L 75.524476 33.440647 L 76.363636 33.563959 L 77.202797 35.035039 L 78.041958 35.515196 L 78.881119 35.408532 L 79.720280 35.446794 L 80.559441 36.486250 L 81.398601 35.763162 L 82.237762 35.460958 L 83.076923 35.992198 L 83.916084 34.383911 L 84.755245 33.789571 L 85.594406 32.147385 L 86.433566 30.863521 L 87.272727 32.665133 L 88.111888 32.812812 L 88.951049 29.601876 L 89.790210 28.918057 L 90.629371 29.220328 L 91.468531 28.667943 L 92.307692 29.066071 L 93.146853 29.793858 L 93.986014 30.329797 L 94.825175 30.817002 L 95.664336 29.703707 L 96.503497 29.403852 L 97.342657 36.014954 L 98.181818 36.600768 L 99.020979 30.791695 L 99.860140 30.332146 L 100.699301 29.015256 L 101.538462 30.906885 L 102.377622 33.250746 L 103.216783 30.747191 L 104.055944 30.588637 L 104.895105 34.952003 L 105.734266 35.204265 L 106.573427 35.044974 L 107.412587 34.780629 L 108.251748 34.519775 L 109.090909 34.454931 L 109.930070 33.987864 L 110.769231 33.468370 L 111.608392 33.781785 L 112.447552 32.045017 L 113.286713 32.189205 L 114.125874 31.622455 L 114.965035 31.908549 L 115.804196 30.695369 L 116.643357 29.562338 L 117.482517 31.790271 L 118.321678 32.472882 L 119.160839 31.953255 L 120.000000 32.769851"></path>
      <path stroke="none" fill-opacity="0.6" fill="url(#color_grad)" d="M 0 40 L 0.000000 28.536643 L 0.839161 26.141699 L 1.678322 23.391654 L 2.517483 23.692919 L 3.356643 23.561149 L 4.195804 27.489803 L 5.034965 27.797914 L 5.874126 29.227846 L 6.713287 23.907053 L 7.552448 23.771457 L 8.391608 23.537923 L 9.230769 22.842894 L 10.069930 22.614865 L 10.909091 28.681502 L 11.748252 28.874156 L 12.587413 28.374264 L 13.426573 27.866518 L 14.265734 27.935860 L 15.104895 27.583378 L 15.944056 27.336351 L 16.783217 28.385474 L 17.622378 26.629374 L 18.461538 26.677369 L 19.300699 26.680658 L 20.139860 26.618164 L 20.979021 26.185331 L 21.818182 23.993646 L 22.657343 24.945368 L 23.496503 24.577245 L 24.335664 28.187853 L 25.174825 22.834973 L 26.013986 17.191905 L 26.853147 19.066148 L 27.692308 24.883074 L 28.531469 25.967236 L 29.370629 24.580534 L 30.209790 23.405818 L 31.048951 17.263260 L 31.888112 24.909992 L 32.727273 21.622666 L 33.566434 21.431556 L 34.405594 15.305981 L 35.244755 15.119302 L 36.083916 9.908529 L 36.923077 9.571755 L 37.762238 8.800000 L 38.601399 14.646731 L 39.440559 17.847128 L 40.279720 20.920387 L 41.118881 20.269594 L 41.958042 21.346708 L 42.797203 22.094298 L 43.636364 25.354974 L 44.475524 24.825077 L 45.314685 27.368505 L 46.153846 24.152803 L 46.993007 33.441385 L 47.832168 26.752887 L 48.671329 25.337052 L 49.510490 24.877838 L 50.349650 24.859513 L 51.188811 27.513901 L 52.027972 31.316424 L 52.867133 31.338912 L 53.706294 31.319512 L 54.545455 31.268026 L 55.384615 30.930513 L 56.223776 30.732490 L 57.062937 28.552955 L 57.902098 28.301565 L 58.741259 28.633775 L 59.580420 29.022707 L 60.419580 29.167365 L 61.258741 32.548601 L 62.097902 32.569746 L 62.937063 33.350563 L 63.776224 34.359678 L 64.615385 34.318999 L 65.454545 34.365048 L 66.293706 35.429005 L 67.132867 33.265984 L 67.972028 33.155560 L 68.811189 32.885376 L 69.650350 33.478238 L 70.489510 33.396344 L 71.328671 34.816743 L 72.167832 35.508282 L 73.006993 35.622263 L 73.846154 36.800000 L 74.685315 34.435464 L 75.524476 33.440647 L 76.363636 33.563959 L 77.202797 35.035039 L 78.041958 35.515196 L 78.881119 35.408532 L 79.720280 35.446794 L 80.559441 36.486250 L 81.398601 35.763162 L 82.237762 35.460958 L 83.076923 35.992198 L 83.916084 34.383911 L 84.755245 33.789571 L 85.594406 32.147385 L 86.433566 30.863521 L 87.272727 32.665133 L 88.111888 32.812812 L 88.951049 29.601876 L 89.790210 28.918057 L 90.629371 29.220328 L 91.468531 28.667943 L 92.307692 29.066071 L 93.146853 29.793858 L 93.986014 30.329797 L 94.825175 30.817002 L 95.664336 29.703707 L 96.503497 29.403852 L 97.342657 36.014954 L 98.181818 36.600768 L 99.020979 30.791695 L 99.860140 30.332146 L 100.699301 29.015256 L 101.538462 30.906885 L 102.377622 33.250746 L 103.216783 30.747191 L 104.055944 30.588637 L 104.895105 34.952003 L 105.734266 35.204265 L 106.573427 35.044974 L 107.412587 34.780629 L 108.251748 34.519775 L 109.090909 34.454931 L 109.930070 33.987864 L 110.769231 33.468370 L 111.608392 33.781785 L 112.447552 32.045017 L 113.286713 32.189205 L 114.125874 31.622455 L 114.965035 31.908549 L 115.804196 30.695369 L 116.643357 29.562338 L 117.482517 31.790271 L 118.321678 32.472882 L 119.160839 31.953255 L 120.000000 32.769851 L 120 40 Z"></path>
    </g>
  </svg>