<svg xmlns="http://www.w3.org/2000/svg" viewBox="0 0 120 40" width="120" height="40">
    <defs>
      <linearGradient id="color_grad" x1="0%" x2="0%" y1="0%" y2="100%">
        <stop offset="0%" style="stop-color:#EA3943;stop-opacity:0.4;"></stop>
        <stop offset="100%" style="stop-color:#EA3943;stop-opacity:0.0;"></stop>
      </linearGradient>
    </defs>
    <g>
      <path stroke="#EA3943" stroke-width="2" stroke-linecap="round" stroke-linejoin="round" fill="none" d="M 0.000000 24.215730 L 0.839161 21.698876 L 1.678322 17.923596 L 2.517483 17.923596 L 3.356643 17.923596 L 4.195804 21.069663 L 5.034965 21.861680 L 5.874126 23.291711 L 6.713287 17.923596 L 7.552448 17.923596 L 8.391608 17.923596 L 9.230769 17.923596 L 10.069930 17.923596 L 10.909091 24.215730 L 11.748252 24.215730 L 12.587413 22.957303 L 13.426573 22.746099 L 14.265734 23.093706 L 15.104895 22.642697 L 15.944056 22.642697 L 16.783217 24.215730 L 17.622378 22.829701 L 18.461538 23.223509 L 19.300699 23.271910 L 20.139860 23.271910 L 20.979021 23.271910 L 21.818182 24.215730 L 22.657343 24.215730 L 23.496503 24.215730 L 24.335664 27.676404 L 25.174825 22.642697 L 26.013986 16.889573 L 26.853147 18.552809 L 27.692308 24.215730 L 28.531469 24.734941 L 29.370629 23.348912 L 30.209790 22.642697 L 31.048951 16.665169 L 31.888112 24.215730 L 32.727273 21.069663 L 33.566434 21.069663 L 34.405594 14.777528 L 35.244755 14.777528 L 36.083916 9.114607 L 36.923077 8.800000 L 37.762238 8.800000 L 38.601399 14.777528 L 39.440559 17.835594 L 40.279720 21.069663 L 41.118881 21.069663 L 41.958042 21.069663 L 42.797203 21.069663 L 43.636364 24.215730 L 44.475524 24.215730 L 45.314685 27.361798 L 46.153846 24.215730 L 46.993007 33.653933 L 47.832168 27.361798 L 48.671329 25.610560 L 49.510490 25.474157 L 50.349650 25.474157 L 51.188811 27.991011 L 52.027972 32.080899 L 52.867133 32.080899 L 53.706294 32.080899 L 54.545455 32.080899 L 55.384615 32.080899 L 56.223776 32.080899 L 57.062937 30.822472 L 57.902098 30.540866 L 58.741259 30.507865 L 59.580420 30.573867 L 60.419580 30.639868 L 61.258741 33.653933 L 62.097902 33.653933 L 62.937063 33.653933 L 63.776224 33.653933 L 64.615385 33.653933 L 65.454545 33.653933 L 66.293706 33.653933 L 67.132867 31.629889 L 67.972028 30.507865 L 68.811189 30.507865 L 69.650350 30.507865 L 70.489510 30.507865 L 71.328671 32.080899 L 72.167832 32.655111 L 73.006993 33.024719 L 73.846154 34.597753 L 74.685315 33.024719 L 75.524476 32.080899 L 76.363636 32.366905 L 77.202797 33.653933 L 78.041958 33.653933 L 78.881119 33.653933 L 79.720280 33.968539 L 80.559441 33.968539 L 81.398601 33.653933 L 82.237762 33.653933 L 83.076923 35.226966 L 83.916084 34.912360 L 84.755245 33.653933 L 85.594406 32.547309 L 86.433566 31.519887 L 87.272727 33.653933 L 88.111888 33.653933 L 88.951049 30.507865 L 89.790210 30.507865 L 90.629371 30.507865 L 91.468531 30.507865 L 92.307692 30.507865 L 93.146853 30.507865 L 93.986014 32.773914 L 94.825175 32.839915 L 95.664336 30.507865 L 96.503497 30.507865 L 97.342657 36.800000 L 98.181818 36.800000 L 99.020979 30.507865 L 99.860140 30.507865 L 100.699301 30.507865 L 101.538462 30.507865 L 102.377622 33.653933 L 103.216783 31.592488 L 104.055944 31.137079 L 104.895105 36.800000 L 105.734266 36.800000 L 106.573427 36.800000 L 107.412587 36.800000 L 108.251748 36.800000 L 109.090909 36.800000 L 109.930070 36.800000 L 110.769231 36.800000 L 111.608392 36.800000 L 112.447552 35.226966 L 113.286713 35.754978 L 114.125874 35.226966 L 114.965035 35.226966 L 115.804196 35.226966 L 116.643357 35.541573 L 117.482517 36.800000 L 118.321678 36.800000 L 119.160839 36.197187 L 120.000000 36.800000"></path>
      <path stroke="none" fill-opacity="0.6" fill="url(#color_grad)" d="M 0 40 L 0.000000 24.215730 L 0.839161 21.698876 L 1.678322 17.923596 L 2.517483 17.923596 L 3.356643 17.923596 L 4.195804 21.069663 L 5.034965 21.861680 L 5.874126 23.291711 L 6.713287 17.923596 L 7.552448 17.923596 L 8.391608 17.923596 L 9.230769 17.923596 L 10.069930 17.923596 L 10.909091 24.215730 L 11.748252 24.215730 L 12.587413 22.957303 L 13.426573 22.746099 L 14.265734 23.093706 L 15.104895 22.642697 L 15.944056 22.642697 L 16.783217 24.215730 L 17.622378 22.829701 L 18.461538 23.223509 L 19.300699 23.271910 L 20.139860 23.271910 L 20.979021 23.271910 L 21.818182 24.215730 L 22.657343 24.215730 L 23.496503 24.215730 L 24.335664 27.676404 L 25.174825 22.642697 L 26.013986 16.889573 L 26.853147 18.552809 L 27.692308 24.215730 L 28.531469 24.734941 L 29.370629 23.348912 L 30.209790 22.642697 L 31.048951 16.665169 L 31.888112 24.215730 L 32.727273 21.069663 L 33.566434 21.069663 L 34.405594 14.777528 L 35.244755 14.777528 L 36.083916 9.114607 L 36.923077 8.800000 L 37.762238 8.800000 L 38.601399 14.777528 L 39.440559 17.835594 L 40.279720 21.069663 L 41.118881 21.069663 L 41.958042 21.069663 L 42.797203 21.069663 L 43.636364 24.215730 L 44.475524 24.215730 L 45.314685 27.361798 L 46.153846 24.215730 L 46.993007 33.653933 L 47.832168 27.361798 L 48.671329 25.610560 L 49.510490 25.474157 L 50.349650 25.474157 L 51.188811 27.991011 L 52.027972 32.080899 L 52.867133 32.080899 L 53.706294 32.080899 L 54.545455 32.080899 L 55.384615 32.080899 L 56.223776 32.080899 L 57.062937 30.822472 L 57.902098 30.540866 L 58.741259 30.507865 L 59.580420 30.573867 L 60.419580 30.639868 L 61.258741 33.653933 L 62.097902 33.653933 L 62.937063 33.653933 L 63.776224 33.653933 L 64.615385 33.653933 L 65.454545 33.653933 L 66.293706 33.653933 L 67.132867 31.629889 L 67.972028 30.507865 L 68.811189 30.507865 L 69.650350 30.507865 L 70.489510 30.507865 L 71.328671 32.080899 L 72.167832 32.655111 L 73.006993 33.024719 L 73.846154 34.597753 L 74.685315 33.024719 L 75.524476 32.080899 L 76.363636 32.366905 L 77.202797 33.653933 L 78.041958 33.653933 L 78.881119 33.653933 L 79.720280 33.968539 L 80.559441 33.968539 L 81.398601 33.653933 L 82.237762 33.653933 L 83.076923 35.226966 L 83.916084 34.912360 L 84.755245 33.653933 L 85.594406 32.547309 L 86.433566 31.519887 L 87.272727 33.653933 L 88.111888 33.653933 L 88.951049 30.507865 L 89.790210 30.507865 L 90.629371 30.507865 L 91.468531 30.507865 L 92.307692 30.507865 L 93.146853 30.507865 L 93.986014 32.773914 L 94.825175 32.839915 L 95.664336 30.507865 L 96.503497 30.507865 L 97.342657 36.800000 L 98.181818 36.800000 L 99.020979 30.507865 L 99.860140 30.507865 L 100.699301 30.507865 L 101.538462 30.507865 L 102.377622 33.653933 L 103.216783 31.592488 L 104.055944 31.137079 L 104.895105 36.800000 L 105.734266 36.800000 L 106.573427 36.800000 L 107.412587 36.800000 L 108.251748 36.800000 L 109.090909 36.800000 L 109.930070 36.800000 L 110.769231 36.800000 L 111.608392 36.800000 L 112.447552 35.226966 L 113.286713 35.754978 L 114.125874 35.226966 L 114.965035 35.226966 L 115.804196 35.226966 L 116.643357 35.541573 L 117.482517 36.800000 L 118.321678 36.800000 L 119.160839 36.197187 L 120.000000 36.800000 L 120 40 Z"></path>
    </g>
  </svg>