<svg xmlns="http://www.w3.org/2000/svg" viewBox="0 0 120 40" width="120" height="40">
    <defs>
      <linearGradient id="color_grad" x1="0%" x2="0%" y1="0%" y2="100%">
        <stop offset="0%" style="stop-color:#16C784;stop-opacity:0.4;"></stop>
        <stop offset="100%" style="stop-color:#16C784;stop-opacity:0.0;"></stop>
      </linearGradient>
    </defs>
    <g>
      <path stroke="#16C784" stroke-width="2" stroke-linecap="round" stroke-linejoin="round" fill="none" d="M 0.000000 30.899187 L 0.839161 29.335068 L 1.678322 30.572410 L 2.517483 31.362621 L 3.356643 31.002159 L 4.195804 33.561955 L 5.034965 32.364891 L 5.874126 32.578027 L 6.713287 31.911526 L 7.552448 31.543032 L 8.391608 33.621293 L 9.230769 31.828813 L 10.069930 31.235675 L 10.909091 31.288779 L 11.748252 31.835526 L 12.587413 31.091825 L 13.426573 30.247790 L 14.265734 26.823461 L 15.104895 24.370833 L 15.944056 23.653865 L 16.783217 22.340162 L 17.622378 23.208651 L 18.461538 33.870032 L 19.300699 33.753514 L 20.139860 33.577059 L 20.979021 32.426506 L 21.818182 23.951992 L 22.657343 26.541876 L 23.496503 25.548718 L 24.335664 20.786232 L 25.174825 13.751648 L 26.013986 14.257877 L 26.853147 15.152259 L 27.692308 15.050726 L 28.531469 16.646852 L 29.370629 16.635104 L 30.209790 12.522577 L 31.048951 8.800000 L 31.888112 12.279232 L 32.727273 20.478394 L 33.566434 19.966171 L 34.405594 20.583764 L 35.244755 17.083674 L 36.083916 17.367057 L 36.923077 15.620368 L 37.762238 13.790008 L 38.601399 24.642348 L 39.440559 24.892286 L 40.279720 12.888553 L 41.118881 11.100867 L 41.958042 16.886720 L 42.797203 16.115569 L 43.636364 16.378334 L 44.475524 14.875469 L 45.314685 15.085489 L 46.153846 12.948850 L 46.993007 11.900069 L 47.832168 11.150855 L 48.671329 12.833890 L 49.510490 17.098538 L 50.349650 17.063775 L 51.188811 19.191184 L 52.027972 17.226324 L 52.867133 24.811371 L 53.706294 24.751913 L 54.545455 24.587805 L 55.384615 23.587454 L 56.223776 15.411547 L 57.062937 13.376321 L 57.902098 13.492719 L 58.741259 14.605513 L 59.580420 15.571460 L 60.419580 14.061523 L 61.258741 14.827879 L 62.097902 20.701361 L 62.937063 17.378565 L 63.776224 17.248381 L 64.615385 17.024696 L 65.454545 17.191801 L 66.293706 20.590237 L 67.132867 20.128841 L 67.972028 26.530848 L 68.811189 30.149613 L 69.650350 27.513458 L 70.489510 27.269394 L 71.328671 26.893228 L 72.167832 27.295766 L 73.006993 26.505794 L 73.846154 25.341215 L 74.685315 22.773388 L 75.524476 22.632655 L 76.363636 22.134937 L 77.202797 22.685041 L 78.041958 24.229261 L 78.881119 35.044681 L 79.720280 18.518569 L 80.559441 21.873731 L 81.398601 20.562786 L 82.237762 19.589766 L 83.076923 21.252183 L 83.916084 17.125031 L 84.755245 30.192888 L 85.594406 22.896978 L 86.433566 17.014147 L 87.272727 15.779921 L 88.111888 16.253544 L 88.951049 16.350523 L 89.790210 14.284249 L 90.629371 29.187262 L 91.468531 27.614272 L 92.307692 28.748523 L 93.146853 30.801250 L 93.986014 28.523518 L 94.825175 12.637536 L 95.664336 16.669508 L 96.503497 18.066883 L 97.342657 22.462913 L 98.181818 26.658874 L 99.020979 30.783269 L 99.860140 35.203274 L 100.699301 31.512704 L 101.538462 36.800000 L 102.377622 34.341138 L 103.216783 33.217916 L 104.055944 28.337354 L 104.895105 23.779013 L 105.734266 24.567547 L 106.573427 29.956856 L 107.412587 29.147344 L 108.251748 28.341190 L 109.090909 28.128413 L 109.930070 26.721808 L 110.769231 25.115732 L 111.608392 26.086714 L 112.447552 26.506274 L 113.286713 24.846734 L 114.125874 24.631200 L 114.965035 25.504364 L 115.804196 21.867857 L 116.643357 17.437543 L 117.482517 19.993263 L 118.321678 15.982149 L 119.160839 16.382529 L 120.000000 16.928437"></path>
      <path stroke="none" fill-opacity="0.6" fill="url(#color_grad)" d="M 0 40 L 0.000000 30.899187 L 0.839161 29.335068 L 1.678322 30.572410 L 2.517483 31.362621 L 3.356643 31.002159 L 4.195804 33.561955 L 5.034965 32.364891 L 5.874126 32.578027 L 6.713287 31.911526 L 7.552448 31.543032 L 8.391608 33.621293 L 9.230769 31.828813 L 10.069930 31.235675 L 10.909091 31.288779 L 11.748252 31.835526 L 12.587413 31.091825 L 13.426573 30.247790 L 14.265734 26.823461 L 15.104895 24.370833 L 15.944056 23.653865 L 16.783217 22.340162 L 17.622378 23.208651 L 18.461538 33.870032 L 19.300699 33.753514 L 20.139860 33.577059 L 20.979021 32.426506 L 21.818182 23.951992 L 22.657343 26.541876 L 23.496503 25.548718 L 24.335664 20.786232 L 25.174825 13.751648 L 26.013986 14.257877 L 26.853147 15.152259 L 27.692308 15.050726 L 28.531469 16.646852 L 29.370629 16.635104 L 30.209790 12.522577 L 31.048951 8.800000 L 31.888112 12.279232 L 32.727273 20.478394 L 33.566434 19.966171 L 34.405594 20.583764 L 35.244755 17.083674 L 36.083916 17.367057 L 36.923077 15.620368 L 37.762238 13.790008 L 38.601399 24.642348 L 39.440559 24.892286 L 40.279720 12.888553 L 41.118881 11.100867 L 41.958042 16.886720 L 42.797203 16.115569 L 43.636364 16.378334 L 44.475524 14.875469 L 45.314685 15.085489 L 46.153846 12.948850 L 46.993007 11.900069 L 47.832168 11.150855 L 48.671329 12.833890 L 49.510490 17.098538 L 50.349650 17.063775 L 51.188811 19.191184 L 52.027972 17.226324 L 52.867133 24.811371 L 53.706294 24.751913 L 54.545455 24.587805 L 55.384615 23.587454 L 56.223776 15.411547 L 57.062937 13.376321 L 57.902098 13.492719 L 58.741259 14.605513 L 59.580420 15.571460 L 60.419580 14.061523 L 61.258741 14.827879 L 62.097902 20.701361 L 62.937063 17.378565 L 63.776224 17.248381 L 64.615385 17.024696 L 65.454545 17.191801 L 66.293706 20.590237 L 67.132867 20.128841 L 67.972028 26.530848 L 68.811189 30.149613 L 69.650350 27.513458 L 70.489510 27.269394 L 71.328671 26.893228 L 72.167832 27.295766 L 73.006993 26.505794 L 73.846154 25.341215 L 74.685315 22.773388 L 75.524476 22.632655 L 76.363636 22.134937 L 77.202797 22.685041 L 78.041958 24.229261 L 78.881119 35.044681 L 79.720280 18.518569 L 80.559441 21.873731 L 81.398601 20.562786 L 82.237762 19.589766 L 83.076923 21.252183 L 83.916084 17.125031 L 84.755245 30.192888 L 85.594406 22.896978 L 86.433566 17.014147 L 87.272727 15.779921 L 88.111888 16.253544 L 88.951049 16.350523 L 89.790210 14.284249 L 90.629371 29.187262 L 91.468531 27.614272 L 92.307692 28.748523 L 93.146853 30.801250 L 93.986014 28.523518 L 94.825175 12.637536 L 95.664336 16.669508 L 96.503497 18.066883 L 97.342657 22.462913 L 98.181818 26.658874 L 99.020979 30.783269 L 99.860140 35.203274 L 100.699301 31.512704 L 101.538462 36.800000 L 102.377622 34.341138 L 103.216783 33.217916 L 104.055944 28.337354 L 104.895105 23.779013 L 105.734266 24.567547 L 106.573427 29.956856 L 107.412587 29.147344 L 108.251748 28.341190 L 109.090909 28.128413 L 109.930070 26.721808 L 110.769231 25.115732 L 111.608392 26.086714 L 112.447552 26.506274 L 113.286713 24.846734 L 114.125874 24.631200 L 114.965035 25.504364 L 115.804196 21.867857 L 116.643357 17.437543 L 117.482517 19.993263 L 118.321678 15.982149 L 119.160839 16.382529 L 120.000000 16.928437 L 120 40 Z"></path>
    </g>
  </svg>