<svg xmlns="http://www.w3.org/2000/svg" viewBox="0 0 120 40" width="120" height="40">
    <defs>
      <linearGradient id="color_grad" x1="0%" x2="0%" y1="0%" y2="100%">
        <stop offset="0%" style="stop-color:#16C784;stop-opacity:0.4;"></stop>
        <stop offset="100%" style="stop-color:#16C784;stop-opacity:0.0;"></stop>
      </linearGradient>
    </defs>
    <g>
      <path stroke="#16C784" stroke-width="2" stroke-linecap="round" stroke-linejoin="round" fill="none" d="M 0.000000 20.107692 L 0.839161 18.492308 L 1.678322 17.415385 L 2.517483 17.415385 L 3.356643 17.415385 L 4.195804 17.415385 L 5.034965 17.415385 L 5.874126 17.415385 L 6.713287 17.415385 L 7.552448 17.415385 L 8.391608 20.107692 L 9.230769 20.107692 L 10.069930 20.107692 L 10.909091 20.107692 L 11.748252 20.107692 L 12.587413 17.415385 L 13.426573 17.415385 L 14.265734 14.723077 L 15.104895 12.030769 L 15.944056 12.030769 L 16.783217 12.030769 L 17.622378 14.082948 L 18.461538 25.492308 L 19.300699 25.492308 L 20.139860 25.492308 L 20.979021 25.492308 L 21.818182 25.492308 L 22.657343 25.492308 L 23.496503 25.492308 L 24.335664 20.691339 L 25.174825 14.723077 L 26.013986 14.723077 L 26.853147 15.092093 L 27.692308 14.723077 L 28.531469 14.723077 L 29.370629 14.723077 L 30.209790 12.030769 L 31.048951 8.800000 L 31.888112 12.030769 L 32.727273 20.107692 L 33.566434 20.107692 L 34.405594 20.107692 L 35.244755 17.234642 L 36.083916 16.338462 L 36.923077 14.723077 L 37.762238 14.723077 L 38.601399 25.492308 L 39.440559 25.492308 L 40.279720 14.723077 L 41.118881 14.723077 L 41.958042 17.415385 L 42.797203 14.723077 L 43.636364 14.723077 L 44.475524 14.723077 L 45.314685 16.699946 L 46.153846 14.723077 L 46.993007 14.723077 L 47.832168 14.723077 L 48.671329 15.261538 L 49.510490 20.107692 L 50.349650 20.107692 L 51.188811 21.896288 L 52.027972 21.184615 L 52.867133 28.184615 L 53.706294 28.184615 L 54.545455 28.184615 L 55.384615 28.184615 L 56.223776 21.184615 L 57.062937 21.723077 L 57.902098 21.723077 L 58.741259 21.723077 L 59.580420 21.723077 L 60.419580 20.107692 L 61.258741 20.107692 L 62.097902 25.492308 L 62.937063 20.107692 L 63.776224 16.978591 L 64.615385 16.876923 L 65.454545 16.876923 L 66.293706 16.876923 L 67.132867 16.876923 L 67.972028 20.107692 L 68.811189 24.415385 L 69.650350 20.107692 L 70.489510 20.107692 L 71.328671 20.107692 L 72.167832 20.107692 L 73.006993 20.107692 L 73.846154 20.107692 L 74.685315 20.107692 L 75.524476 20.107692 L 76.363636 20.107692 L 77.202797 20.107692 L 78.041958 20.107692 L 78.881119 30.876923 L 79.720280 15.800000 L 80.559441 15.800000 L 81.398601 15.800000 L 82.237762 15.800000 L 83.076923 20.646154 L 83.916084 20.646154 L 84.755245 30.876923 L 85.594406 25.492308 L 86.433566 20.646154 L 87.272727 20.646154 L 88.111888 20.646154 L 88.951049 20.646154 L 89.790210 20.646154 L 90.629371 33.569231 L 91.468531 33.569231 L 92.307692 33.569231 L 93.146853 33.569231 L 93.986014 36.261538 L 94.825175 20.646154 L 95.664336 20.646154 L 96.503497 22.800000 L 97.342657 26.569231 L 98.181818 28.723077 L 99.020979 30.876923 L 99.860140 36.261538 L 100.699301 36.261538 L 101.538462 36.261538 L 102.377622 36.261538 L 103.216783 36.261538 L 104.055944 30.876923 L 104.895105 30.876923 L 105.734266 30.876923 L 106.573427 36.261538 L 107.412587 36.261538 L 108.251748 36.261538 L 109.090909 36.261538 L 109.930070 36.261538 L 110.769231 36.261538 L 111.608392 36.261538 L 112.447552 36.800000 L 113.286713 36.442281 L 114.125874 36.261538 L 114.965035 36.261538 L 115.804196 36.261538 L 116.643357 36.261538 L 117.482517 36.261538 L 118.321678 30.876923 L 119.160839 30.876923 L 120.000000 30.876923"></path>
      <path stroke="none" fill-opacity="0.6" fill="url(#color_grad)" d="M 0 40 L 0.000000 20.107692 L 0.839161 18.492308 L 1.678322 17.415385 L 2.517483 17.415385 L 3.356643 17.415385 L 4.195804 17.415385 L 5.034965 17.415385 L 5.874126 17.415385 L 6.713287 17.415385 L 7.552448 17.415385 L 8.391608 20.107692 L 9.230769 20.107692 L 10.069930 20.107692 L 10.909091 20.107692 L 11.748252 20.107692 L 12.587413 17.415385 L 13.426573 17.415385 L 14.265734 14.723077 L 15.104895 12.030769 L 15.944056 12.030769 L 16.783217 12.030769 L 17.622378 14.082948 L 18.461538 25.492308 L 19.300699 25.492308 L 20.139860 25.492308 L 20.979021 25.492308 L 21.818182 25.492308 L 22.657343 25.492308 L 23.496503 25.492308 L 24.335664 20.691339 L 25.174825 14.723077 L 26.013986 14.723077 L 26.853147 15.092093 L 27.692308 14.723077 L 28.531469 14.723077 L 29.370629 14.723077 L 30.209790 12.030769 L 31.048951 8.800000 L 31.888112 12.030769 L 32.727273 20.107692 L 33.566434 20.107692 L 34.405594 20.107692 L 35.244755 17.234642 L 36.083916 16.338462 L 36.923077 14.723077 L 37.762238 14.723077 L 38.601399 25.492308 L 39.440559 25.492308 L 40.279720 14.723077 L 41.118881 14.723077 L 41.958042 17.415385 L 42.797203 14.723077 L 43.636364 14.723077 L 44.475524 14.723077 L 45.314685 16.699946 L 46.153846 14.723077 L 46.993007 14.723077 L 47.832168 14.723077 L 48.671329 15.261538 L 49.510490 20.107692 L 50.349650 20.107692 L 51.188811 21.896288 L 52.027972 21.184615 L 52.867133 28.184615 L 53.706294 28.184615 L 54.545455 28.184615 L 55.384615 28.184615 L 56.223776 21.184615 L 57.062937 21.723077 L 57.902098 21.723077 L 58.741259 21.723077 L 59.580420 21.723077 L 60.419580 20.107692 L 61.258741 20.107692 L 62.097902 25.492308 L 62.937063 20.107692 L 63.776224 16.978591 L 64.615385 16.876923 L 65.454545 16.876923 L 66.293706 16.876923 L 67.132867 16.876923 L 67.972028 20.107692 L 68.811189 24.415385 L 69.650350 20.107692 L 70.489510 20.107692 L 71.328671 20.107692 L 72.167832 20.107692 L 73.006993 20.107692 L 73.846154 20.107692 L 74.685315 20.107692 L 75.524476 20.107692 L 76.363636 20.107692 L 77.202797 20.107692 L 78.041958 20.107692 L 78.881119 30.876923 L 79.720280 15.800000 L 80.559441 15.800000 L 81.398601 15.800000 L 82.237762 15.800000 L 83.076923 20.646154 L 83.916084 20.646154 L 84.755245 30.876923 L 85.594406 25.492308 L 86.433566 20.646154 L 87.272727 20.646154 L 88.111888 20.646154 L 88.951049 20.646154 L 89.790210 20.646154 L 90.629371 33.569231 L 91.468531 33.569231 L 92.307692 33.569231 L 93.146853 33.569231 L 93.986014 36.261538 L 94.825175 20.646154 L 95.664336 20.646154 L 96.503497 22.800000 L 97.342657 26.569231 L 98.181818 28.723077 L 99.020979 30.876923 L 99.860140 36.261538 L 100.699301 36.261538 L 101.538462 36.261538 L 102.377622 36.261538 L 103.216783 36.261538 L 104.055944 30.876923 L 104.895105 30.876923 L 105.734266 30.876923 L 106.573427 36.261538 L 107.412587 36.261538 L 108.251748 36.261538 L 109.090909 36.261538 L 109.930070 36.261538 L 110.769231 36.261538 L 111.608392 36.261538 L 112.447552 36.800000 L 113.286713 36.442281 L 114.125874 36.261538 L 114.965035 36.261538 L 115.804196 36.261538 L 116.643357 36.261538 L 117.482517 36.261538 L 118.321678 30.876923 L 119.160839 30.876923 L 120.000000 30.876923 L 120 40 Z"></path>
    </g>
  </svg>