<svg xmlns="http://www.w3.org/2000/svg" viewBox="0 0 120 40" width="120" height="40">
    <defs>
      <linearGradient id="color_grad" x1="0%" x2="0%" y1="0%" y2="100%">
        <stop offset="0%" style="stop-color:#16C784;stop-opacity:0.4;"></stop>
        <stop offset="100%" style="stop-color:#16C784;stop-opacity:0.0;"></stop>
      </linearGradient>
    </defs>
    <g>
      <path stroke="#16C784" stroke-width="2" stroke-linecap="round" stroke-linejoin="round" fill="none" d="M 0.000000 33.001480 L 0.839161 33.034520 L 1.678322 34.668615 L 2.517483 35.244398 L 3.356643 34.980239 L 4.195804 36.800000 L 5.034965 35.957543 L 5.874126 36.106646 L 6.713287 35.624451 L 7.552448 35.378071 L 8.391608 8.800000 L 9.230769 18.603732 L 10.069930 18.121202 L 10.909091 18.166318 L 11.748252 18.610776 L 12.587413 27.577753 L 13.426573 34.440516 L 14.265734 33.932828 L 15.104895 34.085621 L 15.944056 33.590680 L 16.783217 32.684153 L 17.622378 31.862829 L 18.461538 23.555494 L 19.300699 23.449160 L 20.139860 23.314816 L 20.979021 22.425733 L 21.818182 22.806122 L 22.657343 25.812837 L 23.496503 25.075372 L 24.335664 25.291395 L 25.174825 24.780017 L 26.013986 25.137261 L 26.853147 25.487628 L 27.692308 25.691911 L 28.531469 26.813621 L 29.370629 26.788296 L 30.209790 25.913972 L 31.048951 25.678828 L 31.888112 25.738872 L 32.727273 25.527210 L 33.566434 25.153530 L 34.405594 25.593291 L 35.244755 25.268250 L 36.083916 26.122783 L 36.923077 26.092258 L 37.762238 24.799305 L 38.601399 24.415227 L 39.440559 24.578418 L 40.279720 24.167337 L 41.118881 22.928054 L 41.958042 24.985642 L 42.797203 26.426524 L 43.636364 26.630471 L 44.475524 25.569307 L 45.314685 24.251364 L 46.153846 24.221510 L 46.993007 23.495618 L 47.832168 22.970990 L 48.671329 23.745353 L 49.510490 23.094600 L 50.349650 23.058876 L 51.188811 23.208650 L 52.027972 22.357136 L 52.867133 22.398898 L 53.706294 22.341538 L 54.545455 22.239228 L 55.384615 21.479960 L 56.223776 21.051604 L 57.062937 19.161904 L 57.902098 19.230837 L 58.741259 20.054509 L 59.580420 20.755746 L 60.419580 20.899146 L 61.258741 21.459499 L 62.097902 21.514343 L 62.937063 23.292845 L 63.776224 25.561928 L 64.615385 25.487125 L 65.454545 25.594801 L 66.293706 28.004433 L 67.132867 27.685429 L 67.972028 29.854383 L 68.811189 29.281955 L 69.650350 30.560987 L 70.489510 30.395951 L 71.328671 30.118710 L 72.167832 30.413394 L 73.006993 29.847674 L 73.846154 29.009075 L 74.685315 27.173045 L 75.524476 27.055977 L 76.363636 26.706784 L 77.202797 27.100925 L 78.041958 28.204690 L 78.881119 27.962167 L 79.720280 27.338249 L 80.559441 29.697565 L 81.398601 28.779634 L 82.237762 28.087789 L 83.076923 25.675306 L 83.916084 22.701297 L 84.755245 24.289437 L 85.594406 23.132337 L 86.433566 22.616431 L 87.272727 21.729025 L 88.111888 22.076876 L 88.951049 22.146815 L 89.790210 20.653101 L 90.629371 21.312408 L 91.468531 20.117907 L 92.307692 20.979987 L 93.146853 22.552026 L 93.986014 18.539327 L 94.825175 19.476546 L 95.664336 22.382126 L 96.503497 21.712085 L 97.342657 21.946390 L 98.181818 23.353392 L 99.020979 24.728695 L 99.860140 23.744682 L 100.699301 20.863087 L 101.538462 24.974237 L 102.377622 23.053341 L 103.216783 22.194112 L 104.055944 22.884447 L 104.895105 19.440319 L 105.734266 20.027003 L 106.573427 19.658858 L 107.412587 19.015149 L 108.251748 18.402468 L 109.090909 18.229549 L 109.930070 17.133499 L 110.769231 15.895391 L 111.608392 16.654491 L 112.447552 16.497337 L 113.286713 15.535464 L 114.125874 15.521375 L 114.965035 16.189236 L 115.804196 13.355944 L 116.643357 9.921375 L 117.482517 11.903489 L 118.321678 13.532049 L 119.160839 13.838138 L 120.000000 14.246033"></path>
      <path stroke="none" fill-opacity="0.6" fill="url(#color_grad)" d="M 0 40 L 0.000000 33.001480 L 0.839161 33.034520 L 1.678322 34.668615 L 2.517483 35.244398 L 3.356643 34.980239 L 4.195804 36.800000 L 5.034965 35.957543 L 5.874126 36.106646 L 6.713287 35.624451 L 7.552448 35.378071 L 8.391608 8.800000 L 9.230769 18.603732 L 10.069930 18.121202 L 10.909091 18.166318 L 11.748252 18.610776 L 12.587413 27.577753 L 13.426573 34.440516 L 14.265734 33.932828 L 15.104895 34.085621 L 15.944056 33.590680 L 16.783217 32.684153 L 17.622378 31.862829 L 18.461538 23.555494 L 19.300699 23.449160 L 20.139860 23.314816 L 20.979021 22.425733 L 21.818182 22.806122 L 22.657343 25.812837 L 23.496503 25.075372 L 24.335664 25.291395 L 25.174825 24.780017 L 26.013986 25.137261 L 26.853147 25.487628 L 27.692308 25.691911 L 28.531469 26.813621 L 29.370629 26.788296 L 30.209790 25.913972 L 31.048951 25.678828 L 31.888112 25.738872 L 32.727273 25.527210 L 33.566434 25.153530 L 34.405594 25.593291 L 35.244755 25.268250 L 36.083916 26.122783 L 36.923077 26.092258 L 37.762238 24.799305 L 38.601399 24.415227 L 39.440559 24.578418 L 40.279720 24.167337 L 41.118881 22.928054 L 41.958042 24.985642 L 42.797203 26.426524 L 43.636364 26.630471 L 44.475524 25.569307 L 45.314685 24.251364 L 46.153846 24.221510 L 46.993007 23.495618 L 47.832168 22.970990 L 48.671329 23.745353 L 49.510490 23.094600 L 50.349650 23.058876 L 51.188811 23.208650 L 52.027972 22.357136 L 52.867133 22.398898 L 53.706294 22.341538 L 54.545455 22.239228 L 55.384615 21.479960 L 56.223776 21.051604 L 57.062937 19.161904 L 57.902098 19.230837 L 58.741259 20.054509 L 59.580420 20.755746 L 60.419580 20.899146 L 61.258741 21.459499 L 62.097902 21.514343 L 62.937063 23.292845 L 63.776224 25.561928 L 64.615385 25.487125 L 65.454545 25.594801 L 66.293706 28.004433 L 67.132867 27.685429 L 67.972028 29.854383 L 68.811189 29.281955 L 69.650350 30.560987 L 70.489510 30.395951 L 71.328671 30.118710 L 72.167832 30.413394 L 73.006993 29.847674 L 73.846154 29.009075 L 74.685315 27.173045 L 75.524476 27.055977 L 76.363636 26.706784 L 77.202797 27.100925 L 78.041958 28.204690 L 78.881119 27.962167 L 79.720280 27.338249 L 80.559441 29.697565 L 81.398601 28.779634 L 82.237762 28.087789 L 83.076923 25.675306 L 83.916084 22.701297 L 84.755245 24.289437 L 85.594406 23.132337 L 86.433566 22.616431 L 87.272727 21.729025 L 88.111888 22.076876 L 88.951049 22.146815 L 89.790210 20.653101 L 90.629371 21.312408 L 91.468531 20.117907 L 92.307692 20.979987 L 93.146853 22.552026 L 93.986014 18.539327 L 94.825175 19.476546 L 95.664336 22.382126 L 96.503497 21.712085 L 97.342657 21.946390 L 98.181818 23.353392 L 99.020979 24.728695 L 99.860140 23.744682 L 100.699301 20.863087 L 101.538462 24.974237 L 102.377622 23.053341 L 103.216783 22.194112 L 104.055944 22.884447 L 104.895105 19.440319 L 105.734266 20.027003 L 106.573427 19.658858 L 107.412587 19.015149 L 108.251748 18.402468 L 109.090909 18.229549 L 109.930070 17.133499 L 110.769231 15.895391 L 111.608392 16.654491 L 112.447552 16.497337 L 113.286713 15.535464 L 114.125874 15.521375 L 114.965035 16.189236 L 115.804196 13.355944 L 116.643357 9.921375 L 117.482517 11.903489 L 118.321678 13.532049 L 119.160839 13.838138 L 120.000000 14.246033 L 120 40 Z"></path>
    </g>
  </svg>