<svg xmlns="http://www.w3.org/2000/svg" viewBox="0 0 120 40" width="120" height="40">
    <defs>
      <linearGradient id="color_grad" x1="0%" x2="0%" y1="0%" y2="100%">
        <stop offset="0%" style="stop-color:#EA3943;stop-opacity:0.4;"></stop>
        <stop offset="100%" style="stop-color:#EA3943;stop-opacity:0.0;"></stop>
      </linearGradient>
    </defs>
    <g>
      <path stroke="#EA3943" stroke-width="2" stroke-linecap="round" stroke-linejoin="round" fill="none" d="M 0.000000 8.800000 L 0.839161 13.967018 L 1.678322 8.800000 L 2.517483 8.800000 L 3.356643 8.800000 L 4.195804 8.800000 L 5.034965 8.800000 L 5.874126 8.800000 L 6.713287 8.800000 L 7.552448 10.963783 L 8.391608 10.963783 L 9.230769 10.963783 L 10.069930 10.963783 L 10.909091 10.963783 L 11.748252 10.963783 L 12.587413 10.963783 L 13.426573 11.932641 L 14.265734 11.092964 L 15.104895 23.881892 L 15.944056 11.932641 L 16.783217 11.932641 L 17.622378 11.964937 L 18.461538 14.143625 L 19.300699 14.193310 L 20.139860 14.193310 L 20.979021 14.193310 L 21.818182 14.193310 L 22.657343 14.193310 L 23.496503 16.647751 L 24.335664 16.647751 L 25.174825 16.647751 L 26.013986 16.647751 L 26.853147 17.422837 L 27.692308 17.681200 L 28.531469 17.681200 L 29.370629 17.745790 L 30.209790 17.745790 L 31.048951 18.714648 L 31.888112 18.714648 L 32.727273 23.881892 L 33.566434 18.714648 L 34.405594 18.746943 L 35.244755 18.746943 L 36.083916 18.746943 L 36.923077 18.746943 L 37.762238 23.307352 L 38.601399 23.881892 L 39.440559 23.881892 L 40.279720 23.881892 L 41.118881 23.881892 L 41.958042 23.881892 L 42.797203 19.037601 L 43.636364 19.155038 L 44.475524 19.683506 L 45.314685 19.683506 L 46.153846 24.537734 L 46.993007 18.848572 L 47.832168 19.669956 L 48.671329 20.684660 L 49.510490 20.684660 L 50.349650 27.111419 L 51.188811 30.340946 L 52.027972 30.340946 L 52.867133 30.340946 L 53.706294 30.340946 L 54.545455 30.340946 L 55.384615 30.340946 L 56.223776 21.039908 L 57.062937 21.039908 L 57.902098 21.039908 L 58.741259 28.887659 L 59.580420 28.887659 L 60.419580 28.887659 L 61.258741 27.111419 L 62.097902 24.850750 L 62.937063 25.658131 L 63.776224 25.658131 L 64.615385 25.658131 L 65.454545 25.658131 L 66.293706 25.658131 L 67.132867 25.658131 L 67.972028 25.658131 L 68.811189 25.658131 L 69.650350 25.658131 L 70.489510 25.658131 L 71.328671 25.658131 L 72.167832 25.658131 L 73.006993 25.658131 L 73.846154 25.658131 L 74.685315 25.658131 L 75.524476 25.658131 L 76.363636 25.658131 L 77.202797 25.658131 L 78.041958 35.185236 L 78.881119 25.658131 L 79.720280 25.658131 L 80.559441 25.658131 L 81.398601 25.658131 L 82.237762 25.661745 L 83.076923 25.819608 L 83.916084 26.497809 L 84.755245 26.497809 L 85.594406 26.626990 L 86.433566 27.272895 L 87.272727 27.272895 L 88.111888 27.272895 L 88.951049 27.272895 L 89.790210 27.272895 L 90.629371 27.272895 L 91.468531 27.272895 L 92.307692 27.272895 L 93.146853 27.821915 L 93.986014 27.305190 L 94.825175 27.918800 L 95.664336 27.918800 L 96.503497 27.918800 L 97.342657 33.570473 L 98.181818 33.570473 L 99.020979 33.570473 L 99.860140 27.305190 L 100.699301 27.305190 L 101.538462 27.305190 L 102.377622 27.305190 L 103.216783 27.305190 L 104.055944 27.305190 L 104.895105 30.340946 L 105.734266 30.340946 L 106.573427 27.305190 L 107.412587 27.305190 L 108.251748 27.305190 L 109.090909 27.305190 L 109.930070 27.305190 L 110.769231 27.305190 L 111.608392 27.305190 L 112.447552 27.305190 L 113.286713 27.305190 L 114.125874 27.305190 L 114.965035 33.570473 L 115.804196 33.570473 L 116.643357 36.664495 L 117.482517 36.800000 L 118.321678 35.992618 L 119.160839 35.992618 L 120.000000 35.992618"></path>
      <path stroke="none" fill-opacity="0.6" fill="url(#color_grad)" d="M 0 40 L 0.000000 8.800000 L 0.839161 13.967018 L 1.678322 8.800000 L 2.517483 8.800000 L 3.356643 8.800000 L 4.195804 8.800000 L 5.034965 8.800000 L 5.874126 8.800000 L 6.713287 8.800000 L 7.552448 10.963783 L 8.391608 10.963783 L 9.230769 10.963783 L 10.069930 10.963783 L 10.909091 10.963783 L 11.748252 10.963783 L 12.587413 10.963783 L 13.426573 11.932641 L 14.265734 11.092964 L 15.104895 23.881892 L 15.944056 11.932641 L 16.783217 11.932641 L 17.622378 11.964937 L 18.461538 14.143625 L 19.300699 14.193310 L 20.139860 14.193310 L 20.979021 14.193310 L 21.818182 14.193310 L 22.657343 14.193310 L 23.496503 16.647751 L 24.335664 16.647751 L 25.174825 16.647751 L 26.013986 16.647751 L 26.853147 17.422837 L 27.692308 17.681200 L 28.531469 17.681200 L 29.370629 17.745790 L 30.209790 17.745790 L 31.048951 18.714648 L 31.888112 18.714648 L 32.727273 23.881892 L 33.566434 18.714648 L 34.405594 18.746943 L 35.244755 18.746943 L 36.083916 18.746943 L 36.923077 18.746943 L 37.762238 23.307352 L 38.601399 23.881892 L 39.440559 23.881892 L 40.279720 23.881892 L 41.118881 23.881892 L 41.958042 23.881892 L 42.797203 19.037601 L 43.636364 19.155038 L 44.475524 19.683506 L 45.314685 19.683506 L 46.153846 24.537734 L 46.993007 18.848572 L 47.832168 19.669956 L 48.671329 20.684660 L 49.510490 20.684660 L 50.349650 27.111419 L 51.188811 30.340946 L 52.027972 30.340946 L 52.867133 30.340946 L 53.706294 30.340946 L 54.545455 30.340946 L 55.384615 30.340946 L 56.223776 21.039908 L 57.062937 21.039908 L 57.902098 21.039908 L 58.741259 28.887659 L 59.580420 28.887659 L 60.419580 28.887659 L 61.258741 27.111419 L 62.097902 24.850750 L 62.937063 25.658131 L 63.776224 25.658131 L 64.615385 25.658131 L 65.454545 25.658131 L 66.293706 25.658131 L 67.132867 25.658131 L 67.972028 25.658131 L 68.811189 25.658131 L 69.650350 25.658131 L 70.489510 25.658131 L 71.328671 25.658131 L 72.167832 25.658131 L 73.006993 25.658131 L 73.846154 25.658131 L 74.685315 25.658131 L 75.524476 25.658131 L 76.363636 25.658131 L 77.202797 25.658131 L 78.041958 35.185236 L 78.881119 25.658131 L 79.720280 25.658131 L 80.559441 25.658131 L 81.398601 25.658131 L 82.237762 25.661745 L 83.076923 25.819608 L 83.916084 26.497809 L 84.755245 26.497809 L 85.594406 26.626990 L 86.433566 27.272895 L 87.272727 27.272895 L 88.111888 27.272895 L 88.951049 27.272895 L 89.790210 27.272895 L 90.629371 27.272895 L 91.468531 27.272895 L 92.307692 27.272895 L 93.146853 27.821915 L 93.986014 27.305190 L 94.825175 27.918800 L 95.664336 27.918800 L 96.503497 27.918800 L 97.342657 33.570473 L 98.181818 33.570473 L 99.020979 33.570473 L 99.860140 27.305190 L 100.699301 27.305190 L 101.538462 27.305190 L 102.377622 27.305190 L 103.216783 27.305190 L 104.055944 27.305190 L 104.895105 30.340946 L 105.734266 30.340946 L 106.573427 27.305190 L 107.412587 27.305190 L 108.251748 27.305190 L 109.090909 27.305190 L 109.930070 27.305190 L 110.769231 27.305190 L 111.608392 27.305190 L 112.447552 27.305190 L 113.286713 27.305190 L 114.125874 27.305190 L 114.965035 33.570473 L 115.804196 33.570473 L 116.643357 36.664495 L 117.482517 36.800000 L 118.321678 35.992618 L 119.160839 35.992618 L 120.000000 35.992618 L 120 40 Z"></path>
    </g>
  </svg>