<svg xmlns="http://www.w3.org/2000/svg" viewBox="0 0 120 40" width="120" height="40">
    <defs>
      <linearGradient id="color_grad" x1="0%" x2="0%" y1="0%" y2="100%">
        <stop offset="0%" style="stop-color:#EA3943;stop-opacity:0.4;"></stop>
        <stop offset="100%" style="stop-color:#EA3943;stop-opacity:0.0;"></stop>
      </linearGradient>
    </defs>
    <g>
      <path stroke="#EA3943" stroke-width="2" stroke-linecap="round" stroke-linejoin="round" fill="none" d="M 0.000000 12.225569 L 0.839161 17.905866 L 1.678322 14.012691 L 2.517483 14.605985 L 3.356643 14.336357 L 4.195804 16.263472 L 5.034965 15.367665 L 5.874126 15.530551 L 6.713287 15.024062 L 7.552448 17.071398 L 8.391608 16.624625 L 9.230769 15.283886 L 10.069930 14.832784 L 10.909091 14.876955 L 11.748252 15.286475 L 12.587413 16.734136 L 13.426573 17.149639 L 14.265734 15.701479 L 15.104895 29.701058 L 15.944056 16.263589 L 16.783217 15.323424 L 17.622378 14.489509 L 18.461538 16.218155 L 19.300699 16.178812 L 20.139860 16.054106 L 20.979021 15.180435 L 21.818182 8.800000 L 22.657343 10.749236 L 23.496503 12.811836 L 24.335664 13.035538 L 25.174825 12.520142 L 26.013986 12.878190 L 26.853147 14.118138 L 27.692308 14.613536 L 28.531469 15.732850 L 29.370629 15.791631 L 30.209790 14.901112 L 31.048951 15.787216 L 31.888112 15.839039 L 32.727273 21.534218 L 33.566434 15.259059 L 34.405594 15.735900 L 35.244755 15.403092 L 36.083916 16.259799 L 36.923077 16.231368 L 37.762238 20.195983 L 38.601399 20.470853 L 39.440559 20.641874 L 40.279720 20.254225 L 41.118881 19.058424 L 41.958042 21.026286 L 42.797203 16.895182 L 43.636364 17.217350 L 44.475524 16.779282 L 45.314685 15.478549 L 46.153846 21.049772 L 46.993007 13.767929 L 47.832168 14.203938 L 48.671329 16.140779 L 49.510490 15.508610 L 50.349650 22.943768 L 51.188811 26.831258 L 52.027972 26.048152 L 52.867133 26.088563 L 53.706294 26.046061 L 54.545455 25.937377 L 55.384615 25.261403 L 56.223776 13.927438 L 57.062937 12.082471 L 57.902098 12.162335 L 58.741259 22.236852 L 59.580420 22.876946 L 60.419580 23.028913 L 61.258741 21.455774 L 62.097902 18.841102 L 62.937063 21.468551 L 63.776224 23.609478 L 64.615385 23.527141 L 65.454545 23.638556 L 66.293706 25.904032 L 67.132867 25.594476 L 67.972028 27.643918 L 68.811189 27.097212 L 69.650350 28.309089 L 70.489510 28.146273 L 71.328671 27.891106 L 72.167832 28.161397 L 73.006993 27.631875 L 73.846154 26.841483 L 74.685315 25.115224 L 75.524476 25.014722 L 76.363636 24.685705 L 77.202797 25.053574 L 78.041958 36.800000 L 78.881119 25.853652 L 79.720280 25.273969 L 80.559441 27.492521 L 81.398601 26.623530 L 82.237762 25.981805 L 83.076923 23.892647 L 83.916084 21.883484 L 84.755245 23.365254 L 85.594406 22.434308 L 86.433566 22.713631 L 87.272727 21.891346 L 88.111888 22.208219 L 88.951049 22.272100 L 89.790210 20.890770 L 90.629371 21.508580 L 91.468531 20.387791 L 92.307692 21.196317 L 93.146853 23.294243 L 93.986014 18.959342 L 94.825175 20.555318 L 95.664336 23.239722 L 96.503497 22.625055 L 97.342657 29.456951 L 98.181818 30.691985 L 99.020979 31.910195 L 99.860140 23.787589 L 100.699301 21.128044 L 101.538462 24.938626 L 102.377622 23.162884 L 103.216783 22.356761 L 104.055944 22.990989 L 104.895105 23.396391 L 105.734266 23.937145 L 106.573427 19.998371 L 107.412587 19.410872 L 108.251748 18.830401 L 109.090909 18.682467 L 109.930070 17.662929 L 110.769231 16.508843 L 111.608392 17.206157 L 112.447552 17.071881 L 113.286713 16.166535 L 114.125874 16.157479 L 114.965035 24.366493 L 115.804196 21.866761 L 116.643357 22.714458 L 117.482517 24.594844 L 118.321678 24.998717 L 119.160839 25.261793 L 120.000000 25.615840"></path>
      <path stroke="none" fill-opacity="0.6" fill="url(#color_grad)" d="M 0 40 L 0.000000 12.225569 L 0.839161 17.905866 L 1.678322 14.012691 L 2.517483 14.605985 L 3.356643 14.336357 L 4.195804 16.263472 L 5.034965 15.367665 L 5.874126 15.530551 L 6.713287 15.024062 L 7.552448 17.071398 L 8.391608 16.624625 L 9.230769 15.283886 L 10.069930 14.832784 L 10.909091 14.876955 L 11.748252 15.286475 L 12.587413 16.734136 L 13.426573 17.149639 L 14.265734 15.701479 L 15.104895 29.701058 L 15.944056 16.263589 L 16.783217 15.323424 L 17.622378 14.489509 L 18.461538 16.218155 L 19.300699 16.178812 L 20.139860 16.054106 L 20.979021 15.180435 L 21.818182 8.800000 L 22.657343 10.749236 L 23.496503 12.811836 L 24.335664 13.035538 L 25.174825 12.520142 L 26.013986 12.878190 L 26.853147 14.118138 L 27.692308 14.613536 L 28.531469 15.732850 L 29.370629 15.791631 L 30.209790 14.901112 L 31.048951 15.787216 L 31.888112 15.839039 L 32.727273 21.534218 L 33.566434 15.259059 L 34.405594 15.735900 L 35.244755 15.403092 L 36.083916 16.259799 L 36.923077 16.231368 L 37.762238 20.195983 L 38.601399 20.470853 L 39.440559 20.641874 L 40.279720 20.254225 L 41.118881 19.058424 L 41.958042 21.026286 L 42.797203 16.895182 L 43.636364 17.217350 L 44.475524 16.779282 L 45.314685 15.478549 L 46.153846 21.049772 L 46.993007 13.767929 L 47.832168 14.203938 L 48.671329 16.140779 L 49.510490 15.508610 L 50.349650 22.943768 L 51.188811 26.831258 L 52.027972 26.048152 L 52.867133 26.088563 L 53.706294 26.046061 L 54.545455 25.937377 L 55.384615 25.261403 L 56.223776 13.927438 L 57.062937 12.082471 L 57.902098 12.162335 L 58.741259 22.236852 L 59.580420 22.876946 L 60.419580 23.028913 L 61.258741 21.455774 L 62.097902 18.841102 L 62.937063 21.468551 L 63.776224 23.609478 L 64.615385 23.527141 L 65.454545 23.638556 L 66.293706 25.904032 L 67.132867 25.594476 L 67.972028 27.643918 L 68.811189 27.097212 L 69.650350 28.309089 L 70.489510 28.146273 L 71.328671 27.891106 L 72.167832 28.161397 L 73.006993 27.631875 L 73.846154 26.841483 L 74.685315 25.115224 L 75.524476 25.014722 L 76.363636 24.685705 L 77.202797 25.053574 L 78.041958 36.800000 L 78.881119 25.853652 L 79.720280 25.273969 L 80.559441 27.492521 L 81.398601 26.623530 L 82.237762 25.981805 L 83.076923 23.892647 L 83.916084 21.883484 L 84.755245 23.365254 L 85.594406 22.434308 L 86.433566 22.713631 L 87.272727 21.891346 L 88.111888 22.208219 L 88.951049 22.272100 L 89.790210 20.890770 L 90.629371 21.508580 L 91.468531 20.387791 L 92.307692 21.196317 L 93.146853 23.294243 L 93.986014 18.959342 L 94.825175 20.555318 L 95.664336 23.239722 L 96.503497 22.625055 L 97.342657 29.456951 L 98.181818 30.691985 L 99.020979 31.910195 L 99.860140 23.787589 L 100.699301 21.128044 L 101.538462 24.938626 L 102.377622 23.162884 L 103.216783 22.356761 L 104.055944 22.990989 L 104.895105 23.396391 L 105.734266 23.937145 L 106.573427 19.998371 L 107.412587 19.410872 L 108.251748 18.830401 L 109.090909 18.682467 L 109.930070 17.662929 L 110.769231 16.508843 L 111.608392 17.206157 L 112.447552 17.071881 L 113.286713 16.166535 L 114.125874 16.157479 L 114.965035 24.366493 L 115.804196 21.866761 L 116.643357 22.714458 L 117.482517 24.594844 L 118.321678 24.998717 L 119.160839 25.261793 L 120.000000 25.615840 L 120 40 Z"></path>
    </g>
  </svg>