<svg xmlns="http://www.w3.org/2000/svg" viewBox="0 0 120 40" width="120" height="40">
    <defs>
      <linearGradient id="color_grad" x1="0%" x2="0%" y1="0%" y2="100%">
        <stop offset="0%" style="stop-color:#16C784;stop-opacity:0.4;"></stop>
        <stop offset="100%" style="stop-color:#16C784;stop-opacity:0.0;"></stop>
      </linearGradient>
    </defs>
    <g>
      <path stroke="#16C784" stroke-width="2" stroke-linecap="round" stroke-linejoin="round" fill="none" d="M 0.000000 8.800000 L 0.839161 8.800000 L 1.678322 8.800000 L 2.517483 8.800000 L 3.356643 8.800000 L 4.195804 8.800000 L 5.034965 8.800000 L 5.874126 8.800000 L 6.713287 16.104348 L 7.552448 8.800000 L 8.391608 8.824348 L 9.230769 11.272241 L 10.069930 13.669565 L 10.909091 15.617391 L 11.748252 15.617391 L 12.587413 15.836522 L 13.426573 15.836522 L 14.265734 15.836522 L 15.104895 16.834783 L 15.944056 16.834783 L 16.783217 16.834783 L 17.622378 16.956522 L 18.461538 16.956522 L 19.300699 16.956522 L 20.139860 16.956522 L 20.979021 16.956522 L 21.818182 16.956522 L 22.657343 16.956522 L 23.496503 16.956522 L 24.335664 16.956522 L 25.174825 16.956522 L 26.013986 19.756522 L 26.853147 19.756522 L 27.692308 19.756522 L 28.531469 19.756522 L 29.370629 19.756522 L 30.209790 19.756522 L 31.048951 19.756522 L 31.888112 19.756522 L 32.727273 19.756522 L 33.566434 19.756522 L 34.405594 19.756522 L 35.244755 19.756522 L 36.083916 19.756522 L 36.923077 19.756522 L 37.762238 19.756522 L 38.601399 19.756522 L 39.440559 19.756522 L 40.279720 19.756522 L 41.118881 19.756522 L 41.958042 20.554722 L 42.797203 20.973913 L 43.636364 20.973913 L 44.475524 25.843478 L 45.314685 20.973913 L 46.153846 21.046957 L 46.993007 23.408696 L 47.832168 23.481739 L 48.671329 23.457391 L 49.510490 23.968696 L 50.349650 23.968696 L 51.188811 23.968696 L 52.027972 25.015652 L 52.867133 23.968696 L 53.706294 23.968696 L 54.545455 23.968696 L 55.384615 23.968696 L 56.223776 23.968696 L 57.062937 24.139130 L 57.902098 24.139130 L 58.741259 24.139130 L 59.580420 27.547826 L 60.419580 27.552934 L 61.258741 27.791304 L 62.097902 27.791304 L 62.937063 27.791304 L 63.776224 27.791304 L 64.615385 27.791304 L 65.454545 30.713043 L 66.293706 30.713043 L 67.132867 27.913043 L 67.972028 28.278261 L 68.811189 28.278261 L 69.650350 28.278261 L 70.489510 28.278261 L 71.328671 28.278261 L 72.167832 28.278261 L 73.006993 28.278261 L 73.846154 28.278261 L 74.685315 28.278261 L 75.524476 28.351304 L 76.363636 28.351304 L 77.202797 28.351304 L 78.041958 28.351304 L 78.881119 28.351304 L 79.720280 28.400000 L 80.559441 29.739130 L 81.398601 34.365217 L 82.237762 29.739130 L 83.076923 29.739130 L 83.916084 33.147826 L 84.755245 36.800000 L 85.594406 36.069565 L 86.433566 36.069565 L 87.272727 35.582609 L 88.111888 29.739130 L 88.951049 29.739130 L 89.790210 29.739130 L 90.629371 29.739130 L 91.468531 29.739130 L 92.307692 30.006957 L 93.146853 30.006957 L 93.986014 30.104348 L 94.825175 30.347826 L 95.664336 30.818948 L 96.503497 31.321739 L 97.342657 31.321739 L 98.181818 31.321739 L 99.020979 31.044548 L 99.860140 31.005217 L 100.699301 31.037568 L 101.538462 33.147826 L 102.377622 33.147826 L 103.216783 33.147826 L 104.055944 33.147826 L 104.895105 33.147826 L 105.734266 33.147826 L 106.573427 33.147826 L 107.412587 33.147826 L 108.251748 33.147826 L 109.090909 33.147826 L 109.930070 33.147826 L 110.769231 33.147826 L 111.608392 33.147826 L 112.447552 33.147826 L 113.286713 33.147826 L 114.125874 36.069565 L 114.965035 33.214229 L 115.804196 32.417391 L 116.643357 30.031304 L 117.482517 30.031304 L 118.321678 30.031304 L 119.160839 30.031304 L 120.000000 30.031304"></path>
      <path stroke="none" fill-opacity="0.6" fill="url(#color_grad)" d="M 0 40 L 0.000000 8.800000 L 0.839161 8.800000 L 1.678322 8.800000 L 2.517483 8.800000 L 3.356643 8.800000 L 4.195804 8.800000 L 5.034965 8.800000 L 5.874126 8.800000 L 6.713287 16.104348 L 7.552448 8.800000 L 8.391608 8.824348 L 9.230769 11.272241 L 10.069930 13.669565 L 10.909091 15.617391 L 11.748252 15.617391 L 12.587413 15.836522 L 13.426573 15.836522 L 14.265734 15.836522 L 15.104895 16.834783 L 15.944056 16.834783 L 16.783217 16.834783 L 17.622378 16.956522 L 18.461538 16.956522 L 19.300699 16.956522 L 20.139860 16.956522 L 20.979021 16.956522 L 21.818182 16.956522 L 22.657343 16.956522 L 23.496503 16.956522 L 24.335664 16.956522 L 25.174825 16.956522 L 26.013986 19.756522 L 26.853147 19.756522 L 27.692308 19.756522 L 28.531469 19.756522 L 29.370629 19.756522 L 30.209790 19.756522 L 31.048951 19.756522 L 31.888112 19.756522 L 32.727273 19.756522 L 33.566434 19.756522 L 34.405594 19.756522 L 35.244755 19.756522 L 36.083916 19.756522 L 36.923077 19.756522 L 37.762238 19.756522 L 38.601399 19.756522 L 39.440559 19.756522 L 40.279720 19.756522 L 41.118881 19.756522 L 41.958042 20.554722 L 42.797203 20.973913 L 43.636364 20.973913 L 44.475524 25.843478 L 45.314685 20.973913 L 46.153846 21.046957 L 46.993007 23.408696 L 47.832168 23.481739 L 48.671329 23.457391 L 49.510490 23.968696 L 50.349650 23.968696 L 51.188811 23.968696 L 52.027972 25.015652 L 52.867133 23.968696 L 53.706294 23.968696 L 54.545455 23.968696 L 55.384615 23.968696 L 56.223776 23.968696 L 57.062937 24.139130 L 57.902098 24.139130 L 58.741259 24.139130 L 59.580420 27.547826 L 60.419580 27.552934 L 61.258741 27.791304 L 62.097902 27.791304 L 62.937063 27.791304 L 63.776224 27.791304 L 64.615385 27.791304 L 65.454545 30.713043 L 66.293706 30.713043 L 67.132867 27.913043 L 67.972028 28.278261 L 68.811189 28.278261 L 69.650350 28.278261 L 70.489510 28.278261 L 71.328671 28.278261 L 72.167832 28.278261 L 73.006993 28.278261 L 73.846154 28.278261 L 74.685315 28.278261 L 75.524476 28.351304 L 76.363636 28.351304 L 77.202797 28.351304 L 78.041958 28.351304 L 78.881119 28.351304 L 79.720280 28.400000 L 80.559441 29.739130 L 81.398601 34.365217 L 82.237762 29.739130 L 83.076923 29.739130 L 83.916084 33.147826 L 84.755245 36.800000 L 85.594406 36.069565 L 86.433566 36.069565 L 87.272727 35.582609 L 88.111888 29.739130 L 88.951049 29.739130 L 89.790210 29.739130 L 90.629371 29.739130 L 91.468531 29.739130 L 92.307692 30.006957 L 93.146853 30.006957 L 93.986014 30.104348 L 94.825175 30.347826 L 95.664336 30.818948 L 96.503497 31.321739 L 97.342657 31.321739 L 98.181818 31.321739 L 99.020979 31.044548 L 99.860140 31.005217 L 100.699301 31.037568 L 101.538462 33.147826 L 102.377622 33.147826 L 103.216783 33.147826 L 104.055944 33.147826 L 104.895105 33.147826 L 105.734266 33.147826 L 106.573427 33.147826 L 107.412587 33.147826 L 108.251748 33.147826 L 109.090909 33.147826 L 109.930070 33.147826 L 110.769231 33.147826 L 111.608392 33.147826 L 112.447552 33.147826 L 113.286713 33.147826 L 114.125874 36.069565 L 114.965035 33.214229 L 115.804196 32.417391 L 116.643357 30.031304 L 117.482517 30.031304 L 118.321678 30.031304 L 119.160839 30.031304 L 120.000000 30.031304 L 120 40 Z"></path>
    </g>
  </svg>