<svg xmlns="http://www.w3.org/2000/svg" viewBox="0 0 120 40" width="120" height="40">
    <defs>
      <linearGradient id="color_grad" x1="0%" x2="0%" y1="0%" y2="100%">
        <stop offset="0%" style="stop-color:#16C784;stop-opacity:0.4;"></stop>
        <stop offset="100%" style="stop-color:#16C784;stop-opacity:0.0;"></stop>
      </linearGradient>
    </defs>
    <g>
      <path stroke="#16C784" stroke-width="2" stroke-linecap="round" stroke-linejoin="round" fill="none" d="M 0.000000 8.800000 L 0.839161 8.836508 L 1.678322 10.063110 L 2.517483 10.483363 L 3.356643 10.292407 L 4.195804 11.653960 L 5.034965 11.021432 L 5.874126 11.136150 L 6.713287 19.150517 L 7.552448 10.585421 L 8.391608 10.292816 L 9.230769 12.174955 L 10.069930 14.650155 L 10.909091 16.948054 L 11.748252 17.221079 L 12.587413 18.439736 L 13.426573 18.020206 L 14.265734 17.659106 L 15.104895 18.925445 L 15.944056 18.586423 L 16.783217 17.963017 L 17.622378 17.530223 L 18.461538 17.084308 L 19.300699 17.021409 L 20.139860 16.937540 L 20.979021 16.349604 L 21.818182 12.060433 L 22.657343 13.370444 L 23.496503 12.865792 L 24.335664 13.018730 L 25.174825 12.666097 L 26.013986 16.346909 L 26.853147 16.580922 L 27.692308 16.714369 L 28.531469 17.461331 L 29.370629 17.451679 L 30.209790 16.857183 L 31.048951 16.710031 L 31.888112 16.745078 L 32.727273 16.601861 L 33.566434 16.354666 L 34.405594 16.651193 L 35.244755 16.427008 L 36.083916 17.003121 L 36.923077 16.983894 L 37.762238 16.126974 L 38.601399 15.859167 L 39.440559 15.977990 L 40.279720 15.706834 L 41.118881 14.871929 L 41.958042 17.227243 L 42.797203 18.689739 L 43.636364 18.814794 L 44.475524 24.080419 L 45.314685 17.253961 L 46.153846 17.329527 L 46.993007 19.775106 L 47.832168 19.531600 L 48.671329 19.996496 L 49.510490 20.219119 L 50.349650 20.201876 L 51.188811 20.298695 L 52.027972 21.058204 L 52.867133 19.779337 L 53.706294 19.749779 L 54.545455 19.673565 L 55.384615 19.201386 L 56.223776 18.922045 L 57.062937 17.937923 L 57.902098 17.989862 L 58.741259 18.504719 L 59.580420 23.243783 L 60.419580 23.350468 L 61.258741 23.986918 L 62.097902 24.009544 L 62.937063 25.089352 L 63.776224 26.464743 L 64.615385 26.412786 L 65.454545 30.058696 L 66.293706 31.459886 L 67.132867 27.887760 L 67.972028 29.636937 L 68.811189 29.288535 L 69.650350 30.062045 L 70.489510 29.957866 L 71.328671 29.795289 L 72.167832 29.967637 L 73.006993 29.629571 L 73.846154 29.125007 L 74.685315 28.023033 L 75.524476 28.047258 L 76.363636 27.836596 L 77.202797 28.072088 L 78.041958 28.733864 L 78.881119 28.582066 L 79.720280 28.270958 L 80.559441 31.281419 L 81.398601 36.283670 L 82.237762 30.333151 L 83.076923 28.910744 L 83.916084 31.401753 L 84.755245 36.800000 L 85.594406 35.273503 L 86.433566 34.999835 L 87.272727 33.911503 L 88.111888 26.788713 L 88.951049 26.829564 L 89.790210 25.953676 L 90.629371 26.345215 L 91.468531 25.634132 L 92.307692 26.484114 L 93.146853 27.406376 L 93.986014 25.170338 L 94.825175 26.027208 L 95.664336 28.312899 L 96.503497 28.557016 L 97.342657 28.697791 L 98.181818 29.504787 L 99.020979 29.959295 L 99.860140 29.334763 L 100.699301 27.715759 L 101.538462 32.684101 L 102.377622 31.607863 L 103.216783 31.118906 L 104.055944 31.503445 L 104.895105 29.564016 L 105.734266 29.899859 L 106.573427 29.689385 L 107.412587 29.333334 L 108.251748 28.981116 L 109.090909 28.891625 L 109.930070 28.273527 L 110.769231 27.573435 L 111.608392 27.996705 L 112.447552 27.915095 L 113.286713 27.366569 L 114.125874 31.162402 L 114.965035 27.824200 L 115.804196 25.183981 L 116.643357 20.021458 L 117.482517 21.188673 L 118.321678 22.142029 L 119.160839 22.319784 L 120.000000 22.560552"></path>
      <path stroke="none" fill-opacity="0.6" fill="url(#color_grad)" d="M 0 40 L 0.000000 8.800000 L 0.839161 8.836508 L 1.678322 10.063110 L 2.517483 10.483363 L 3.356643 10.292407 L 4.195804 11.653960 L 5.034965 11.021432 L 5.874126 11.136150 L 6.713287 19.150517 L 7.552448 10.585421 L 8.391608 10.292816 L 9.230769 12.174955 L 10.069930 14.650155 L 10.909091 16.948054 L 11.748252 17.221079 L 12.587413 18.439736 L 13.426573 18.020206 L 14.265734 17.659106 L 15.104895 18.925445 L 15.944056 18.586423 L 16.783217 17.963017 L 17.622378 17.530223 L 18.461538 17.084308 L 19.300699 17.021409 L 20.139860 16.937540 L 20.979021 16.349604 L 21.818182 12.060433 L 22.657343 13.370444 L 23.496503 12.865792 L 24.335664 13.018730 L 25.174825 12.666097 L 26.013986 16.346909 L 26.853147 16.580922 L 27.692308 16.714369 L 28.531469 17.461331 L 29.370629 17.451679 L 30.209790 16.857183 L 31.048951 16.710031 L 31.888112 16.745078 L 32.727273 16.601861 L 33.566434 16.354666 L 34.405594 16.651193 L 35.244755 16.427008 L 36.083916 17.003121 L 36.923077 16.983894 L 37.762238 16.126974 L 38.601399 15.859167 L 39.440559 15.977990 L 40.279720 15.706834 L 41.118881 14.871929 L 41.958042 17.227243 L 42.797203 18.689739 L 43.636364 18.814794 L 44.475524 24.080419 L 45.314685 17.253961 L 46.153846 17.329527 L 46.993007 19.775106 L 47.832168 19.531600 L 48.671329 19.996496 L 49.510490 20.219119 L 50.349650 20.201876 L 51.188811 20.298695 L 52.027972 21.058204 L 52.867133 19.779337 L 53.706294 19.749779 L 54.545455 19.673565 L 55.384615 19.201386 L 56.223776 18.922045 L 57.062937 17.937923 L 57.902098 17.989862 L 58.741259 18.504719 L 59.580420 23.243783 L 60.419580 23.350468 L 61.258741 23.986918 L 62.097902 24.009544 L 62.937063 25.089352 L 63.776224 26.464743 L 64.615385 26.412786 L 65.454545 30.058696 L 66.293706 31.459886 L 67.132867 27.887760 L 67.972028 29.636937 L 68.811189 29.288535 L 69.650350 30.062045 L 70.489510 29.957866 L 71.328671 29.795289 L 72.167832 29.967637 L 73.006993 29.629571 L 73.846154 29.125007 L 74.685315 28.023033 L 75.524476 28.047258 L 76.363636 27.836596 L 77.202797 28.072088 L 78.041958 28.733864 L 78.881119 28.582066 L 79.720280 28.270958 L 80.559441 31.281419 L 81.398601 36.283670 L 82.237762 30.333151 L 83.076923 28.910744 L 83.916084 31.401753 L 84.755245 36.800000 L 85.594406 35.273503 L 86.433566 34.999835 L 87.272727 33.911503 L 88.111888 26.788713 L 88.951049 26.829564 L 89.790210 25.953676 L 90.629371 26.345215 L 91.468531 25.634132 L 92.307692 26.484114 L 93.146853 27.406376 L 93.986014 25.170338 L 94.825175 26.027208 L 95.664336 28.312899 L 96.503497 28.557016 L 97.342657 28.697791 L 98.181818 29.504787 L 99.020979 29.959295 L 99.860140 29.334763 L 100.699301 27.715759 L 101.538462 32.684101 L 102.377622 31.607863 L 103.216783 31.118906 L 104.055944 31.503445 L 104.895105 29.564016 L 105.734266 29.899859 L 106.573427 29.689385 L 107.412587 29.333334 L 108.251748 28.981116 L 109.090909 28.891625 L 109.930070 28.273527 L 110.769231 27.573435 L 111.608392 27.996705 L 112.447552 27.915095 L 113.286713 27.366569 L 114.125874 31.162402 L 114.965035 27.824200 L 115.804196 25.183981 L 116.643357 20.021458 L 117.482517 21.188673 L 118.321678 22.142029 L 119.160839 22.319784 L 120.000000 22.560552 L 120 40 Z"></path>
    </g>
  </svg>