<svg xmlns="http://www.w3.org/2000/svg" viewBox="0 0 120 40" width="120" height="40">
    <defs>
      <linearGradient id="color_grad" x1="0%" x2="0%" y1="0%" y2="100%">
        <stop offset="0%" style="stop-color:#16C784;stop-opacity:0.4;"></stop>
        <stop offset="100%" style="stop-color:#16C784;stop-opacity:0.0;"></stop>
      </linearGradient>
    </defs>
    <g>
      <path stroke="#16C784" stroke-width="2" stroke-linecap="round" stroke-linejoin="round" fill="none" d="M 0.000000 10.001052 L 0.839161 10.467020 L 1.678322 21.810976 L 2.517483 27.216572 L 3.356643 22.276964 L 4.195804 25.046591 L 5.034965 23.759547 L 5.874126 23.993227 L 6.713287 23.266459 L 7.552448 22.874029 L 8.391608 22.221863 L 9.230769 20.265631 L 10.069930 19.606849 L 10.909091 19.671393 L 11.748252 20.268970 L 12.587413 17.823276 L 13.426573 18.259418 L 14.265734 18.374313 L 15.104895 20.912143 L 15.944056 20.161245 L 16.783217 18.778910 L 17.622378 17.967789 L 18.461538 21.187877 L 19.300699 21.052274 L 20.139860 20.869455 L 20.979021 19.590318 L 21.818182 10.259354 L 22.657343 13.111879 L 23.496503 16.874175 L 24.335664 17.200606 L 25.174825 16.449831 L 26.013986 17.262406 L 26.853147 22.687523 L 27.692308 22.720748 L 28.531469 24.329860 L 29.370629 29.022555 L 30.209790 27.767691 L 31.048951 27.457094 L 31.888112 27.530856 L 32.727273 27.229252 L 33.566434 26.709944 L 34.405594 27.334354 L 35.244755 17.439080 L 36.083916 18.704656 L 36.923077 11.608730 L 37.762238 11.617805 L 38.601399 11.015169 L 39.440559 11.285126 L 40.279720 10.674358 L 41.118881 8.800000 L 41.958042 16.751374 L 42.797203 18.866213 L 43.636364 19.146268 L 44.475524 17.599673 L 45.314685 15.661447 L 46.153846 14.124008 L 46.993007 11.362104 L 47.832168 13.786106 L 48.671329 19.171832 L 49.510490 23.819934 L 50.349650 23.782489 L 51.188811 23.996812 L 52.027972 22.783695 L 52.867133 22.845843 L 53.706294 22.780315 L 54.545455 22.612572 L 55.384615 21.563490 L 56.223776 20.945266 L 57.062937 18.284716 L 57.902098 18.397726 L 58.741259 19.541628 L 59.580420 20.522519 L 60.419580 20.755565 L 61.258741 21.537004 L 62.097902 21.587743 L 62.937063 24.099170 L 63.776224 29.126326 L 64.615385 27.172675 L 65.454545 28.307995 L 66.293706 31.676959 L 67.132867 36.759749 L 67.972028 35.489195 L 68.811189 34.682089 L 69.650350 36.473323 L 70.489510 36.231285 L 71.328671 35.855345 L 72.167832 36.254166 L 73.006993 35.471989 L 73.846154 34.303465 L 74.685315 31.752586 L 75.524476 31.602971 L 76.363636 31.115229 L 77.202797 31.660142 L 78.041958 35.770398 L 78.881119 35.276388 L 79.720280 31.793103 L 80.559441 35.925399 L 81.398601 34.645177 L 82.237762 33.696138 L 83.076923 30.661798 L 83.916084 29.163422 L 84.755245 35.492186 L 85.594406 34.689299 L 86.433566 34.012716 L 87.272727 36.800000 L 88.111888 33.285149 L 88.951049 33.377532 L 89.790210 32.388795 L 90.629371 32.743985 L 91.468531 30.665117 L 92.307692 31.828294 L 93.146853 33.927995 L 93.986014 28.551876 L 94.825175 29.802294 L 95.664336 30.521012 L 96.503497 29.618840 L 97.342657 31.137823 L 98.181818 33.025864 L 99.020979 34.886395 L 99.860140 31.304726 L 100.699301 30.677079 L 101.538462 36.190092 L 102.377622 33.620983 L 103.216783 31.928829 L 104.055944 30.120286 L 104.895105 25.421241 L 105.734266 26.234554 L 106.573427 25.725550 L 107.412587 24.863711 L 108.251748 24.009881 L 109.090909 23.792772 L 109.930070 22.295748 L 110.769231 20.602038 L 111.608392 21.624962 L 112.447552 21.426822 L 113.286713 20.407728 L 114.125874 22.457141 L 114.965035 23.363266 L 115.804196 20.370508 L 116.643357 15.793855 L 117.482517 20.220976 L 118.321678 30.506715 L 119.160839 21.334501 L 120.000000 21.884800"></path>
      <path stroke="none" fill-opacity="0.6" fill="url(#color_grad)" d="M 0 40 L 0.000000 10.001052 L 0.839161 10.467020 L 1.678322 21.810976 L 2.517483 27.216572 L 3.356643 22.276964 L 4.195804 25.046591 L 5.034965 23.759547 L 5.874126 23.993227 L 6.713287 23.266459 L 7.552448 22.874029 L 8.391608 22.221863 L 9.230769 20.265631 L 10.069930 19.606849 L 10.909091 19.671393 L 11.748252 20.268970 L 12.587413 17.823276 L 13.426573 18.259418 L 14.265734 18.374313 L 15.104895 20.912143 L 15.944056 20.161245 L 16.783217 18.778910 L 17.622378 17.967789 L 18.461538 21.187877 L 19.300699 21.052274 L 20.139860 20.869455 L 20.979021 19.590318 L 21.818182 10.259354 L 22.657343 13.111879 L 23.496503 16.874175 L 24.335664 17.200606 L 25.174825 16.449831 L 26.013986 17.262406 L 26.853147 22.687523 L 27.692308 22.720748 L 28.531469 24.329860 L 29.370629 29.022555 L 30.209790 27.767691 L 31.048951 27.457094 L 31.888112 27.530856 L 32.727273 27.229252 L 33.566434 26.709944 L 34.405594 27.334354 L 35.244755 17.439080 L 36.083916 18.704656 L 36.923077 11.608730 L 37.762238 11.617805 L 38.601399 11.015169 L 39.440559 11.285126 L 40.279720 10.674358 L 41.118881 8.800000 L 41.958042 16.751374 L 42.797203 18.866213 L 43.636364 19.146268 L 44.475524 17.599673 L 45.314685 15.661447 L 46.153846 14.124008 L 46.993007 11.362104 L 47.832168 13.786106 L 48.671329 19.171832 L 49.510490 23.819934 L 50.349650 23.782489 L 51.188811 23.996812 L 52.027972 22.783695 L 52.867133 22.845843 L 53.706294 22.780315 L 54.545455 22.612572 L 55.384615 21.563490 L 56.223776 20.945266 L 57.062937 18.284716 L 57.902098 18.397726 L 58.741259 19.541628 L 59.580420 20.522519 L 60.419580 20.755565 L 61.258741 21.537004 L 62.097902 21.587743 L 62.937063 24.099170 L 63.776224 29.126326 L 64.615385 27.172675 L 65.454545 28.307995 L 66.293706 31.676959 L 67.132867 36.759749 L 67.972028 35.489195 L 68.811189 34.682089 L 69.650350 36.473323 L 70.489510 36.231285 L 71.328671 35.855345 L 72.167832 36.254166 L 73.006993 35.471989 L 73.846154 34.303465 L 74.685315 31.752586 L 75.524476 31.602971 L 76.363636 31.115229 L 77.202797 31.660142 L 78.041958 35.770398 L 78.881119 35.276388 L 79.720280 31.793103 L 80.559441 35.925399 L 81.398601 34.645177 L 82.237762 33.696138 L 83.076923 30.661798 L 83.916084 29.163422 L 84.755245 35.492186 L 85.594406 34.689299 L 86.433566 34.012716 L 87.272727 36.800000 L 88.111888 33.285149 L 88.951049 33.377532 L 89.790210 32.388795 L 90.629371 32.743985 L 91.468531 30.665117 L 92.307692 31.828294 L 93.146853 33.927995 L 93.986014 28.551876 L 94.825175 29.802294 L 95.664336 30.521012 L 96.503497 29.618840 L 97.342657 31.137823 L 98.181818 33.025864 L 99.020979 34.886395 L 99.860140 31.304726 L 100.699301 30.677079 L 101.538462 36.190092 L 102.377622 33.620983 L 103.216783 31.928829 L 104.055944 30.120286 L 104.895105 25.421241 L 105.734266 26.234554 L 106.573427 25.725550 L 107.412587 24.863711 L 108.251748 24.009881 L 109.090909 23.792772 L 109.930070 22.295748 L 110.769231 20.602038 L 111.608392 21.624962 L 112.447552 21.426822 L 113.286713 20.407728 L 114.125874 22.457141 L 114.965035 23.363266 L 115.804196 20.370508 L 116.643357 15.793855 L 117.482517 20.220976 L 118.321678 30.506715 L 119.160839 21.334501 L 120.000000 21.884800 L 120 40 Z"></path>
    </g>
  </svg>