<svg xmlns="http://www.w3.org/2000/svg" viewBox="0 0 120 40" width="120" height="40">
    <defs>
      <linearGradient id="color_grad" x1="0%" x2="0%" y1="0%" y2="100%">
        <stop offset="0%" style="stop-color:#888888;stop-opacity:0.4;"></stop>
        <stop offset="100%" style="stop-color:#888888;stop-opacity:0.0;"></stop>
      </linearGradient>
    </defs>
    <g>
      <path stroke="#888888" stroke-width="2" stroke-linecap="round" stroke-linejoin="round" fill="none" d="M 0.000000 8.800000 L 0.839161 9.038365 L 1.678322 14.481044 L 2.517483 17.321566 L 3.356643 14.481044 L 4.195804 14.481044 L 5.034965 14.481044 L 5.874126 14.481044 L 6.713287 14.481044 L 7.552448 14.481044 L 8.391608 14.481044 L 9.230769 14.481044 L 10.069930 14.481044 L 10.909091 14.481044 L 11.748252 14.481044 L 12.587413 11.640522 L 13.426573 12.492679 L 14.265734 13.060783 L 15.104895 14.481044 L 15.944056 14.481044 L 16.783217 14.481044 L 17.622378 14.765096 L 18.461538 17.321566 L 19.300699 17.321566 L 20.139860 17.321566 L 20.979021 17.321566 L 21.818182 17.321566 L 22.657343 17.321566 L 23.496503 20.162089 L 24.335664 20.162089 L 25.174825 20.162089 L 26.013986 20.332520 L 26.853147 23.208797 L 27.692308 23.059421 L 28.531469 23.059421 L 29.370629 25.843133 L 30.209790 25.843133 L 31.048951 25.843133 L 31.888112 25.843133 L 32.727273 25.843133 L 33.566434 25.843133 L 34.405594 25.843133 L 35.244755 20.332520 L 36.083916 20.332520 L 36.923077 16.185358 L 37.762238 17.321566 L 38.601399 17.321566 L 39.440559 17.321566 L 40.279720 17.321566 L 41.118881 17.321566 L 41.958042 20.162089 L 42.797203 20.162089 L 43.636364 20.162089 L 44.475524 20.162089 L 45.314685 20.162089 L 46.153846 19.288082 L 46.993007 18.314756 L 47.832168 20.162089 L 48.671329 22.625199 L 49.510490 25.843133 L 50.349650 25.843133 L 51.188811 25.843133 L 52.027972 25.843133 L 52.867133 25.843133 L 53.706294 25.843133 L 54.545455 25.843133 L 55.384615 25.843133 L 56.223776 25.843133 L 57.062937 25.843133 L 57.902098 25.843133 L 58.741259 25.843133 L 59.580420 25.843133 L 60.419580 25.843133 L 61.258741 25.843133 L 62.097902 25.843133 L 62.937063 25.843133 L 63.776224 26.915778 L 64.615385 25.843133 L 65.454545 26.411237 L 66.293706 26.411237 L 67.132867 29.700681 L 67.972028 27.149773 L 68.811189 27.149773 L 69.650350 27.149773 L 70.489510 27.149773 L 71.328671 27.149773 L 72.167832 27.149773 L 73.006993 27.149773 L 73.846154 27.149773 L 74.685315 27.149773 L 75.524476 27.149773 L 76.363636 27.149773 L 77.202797 27.149773 L 78.041958 28.683655 L 78.881119 28.597843 L 79.720280 27.036152 L 80.559441 27.547446 L 81.398601 27.547446 L 82.237762 27.547446 L 83.076923 27.730988 L 83.916084 29.239841 L 84.755245 31.659251 L 85.594406 32.092281 L 86.433566 32.092281 L 87.272727 34.364699 L 88.111888 32.092281 L 88.951049 32.092281 L 89.790210 32.660386 L 90.629371 32.358456 L 91.468531 32.092281 L 92.307692 32.092281 L 93.146853 32.092281 L 93.986014 32.092281 L 94.825175 32.092281 L 95.664336 30.274347 L 96.503497 30.274347 L 97.342657 30.956073 L 98.181818 30.956073 L 99.020979 30.956073 L 99.860140 29.658570 L 100.699301 31.524177 L 101.538462 31.524177 L 102.377622 31.524177 L 103.216783 31.222645 L 104.055944 29.649432 L 104.895105 29.649432 L 105.734266 29.649432 L 106.573427 29.649432 L 107.412587 29.649432 L 108.251748 29.649432 L 109.090909 29.649432 L 109.930070 29.649432 L 110.769231 29.649432 L 111.608392 29.649432 L 112.447552 29.649432 L 113.286713 29.819864 L 114.125874 30.956073 L 114.965035 30.956073 L 115.804196 31.404994 L 116.643357 31.428831 L 117.482517 32.376334 L 118.321678 36.800000 L 119.160839 31.580988 L 120.000000 31.580988"></path>
      <path stroke="none" fill-opacity="0.6" fill="url(#color_grad)" d="M 0 40 L 0.000000 8.800000 L 0.839161 9.038365 L 1.678322 14.481044 L 2.517483 17.321566 L 3.356643 14.481044 L 4.195804 14.481044 L 5.034965 14.481044 L 5.874126 14.481044 L 6.713287 14.481044 L 7.552448 14.481044 L 8.391608 14.481044 L 9.230769 14.481044 L 10.069930 14.481044 L 10.909091 14.481044 L 11.748252 14.481044 L 12.587413 11.640522 L 13.426573 12.492679 L 14.265734 13.060783 L 15.104895 14.481044 L 15.944056 14.481044 L 16.783217 14.481044 L 17.622378 14.765096 L 18.461538 17.321566 L 19.300699 17.321566 L 20.139860 17.321566 L 20.979021 17.321566 L 21.818182 17.321566 L 22.657343 17.321566 L 23.496503 20.162089 L 24.335664 20.162089 L 25.174825 20.162089 L 26.013986 20.332520 L 26.853147 23.208797 L 27.692308 23.059421 L 28.531469 23.059421 L 29.370629 25.843133 L 30.209790 25.843133 L 31.048951 25.843133 L 31.888112 25.843133 L 32.727273 25.843133 L 33.566434 25.843133 L 34.405594 25.843133 L 35.244755 20.332520 L 36.083916 20.332520 L 36.923077 16.185358 L 37.762238 17.321566 L 38.601399 17.321566 L 39.440559 17.321566 L 40.279720 17.321566 L 41.118881 17.321566 L 41.958042 20.162089 L 42.797203 20.162089 L 43.636364 20.162089 L 44.475524 20.162089 L 45.314685 20.162089 L 46.153846 19.288082 L 46.993007 18.314756 L 47.832168 20.162089 L 48.671329 22.625199 L 49.510490 25.843133 L 50.349650 25.843133 L 51.188811 25.843133 L 52.027972 25.843133 L 52.867133 25.843133 L 53.706294 25.843133 L 54.545455 25.843133 L 55.384615 25.843133 L 56.223776 25.843133 L 57.062937 25.843133 L 57.902098 25.843133 L 58.741259 25.843133 L 59.580420 25.843133 L 60.419580 25.843133 L 61.258741 25.843133 L 62.097902 25.843133 L 62.937063 25.843133 L 63.776224 26.915778 L 64.615385 25.843133 L 65.454545 26.411237 L 66.293706 26.411237 L 67.132867 29.700681 L 67.972028 27.149773 L 68.811189 27.149773 L 69.650350 27.149773 L 70.489510 27.149773 L 71.328671 27.149773 L 72.167832 27.149773 L 73.006993 27.149773 L 73.846154 27.149773 L 74.685315 27.149773 L 75.524476 27.149773 L 76.363636 27.149773 L 77.202797 27.149773 L 78.041958 28.683655 L 78.881119 28.597843 L 79.720280 27.036152 L 80.559441 27.547446 L 81.398601 27.547446 L 82.237762 27.547446 L 83.076923 27.730988 L 83.916084 29.239841 L 84.755245 31.659251 L 85.594406 32.092281 L 86.433566 32.092281 L 87.272727 34.364699 L 88.111888 32.092281 L 88.951049 32.092281 L 89.790210 32.660386 L 90.629371 32.358456 L 91.468531 32.092281 L 92.307692 32.092281 L 93.146853 32.092281 L 93.986014 32.092281 L 94.825175 32.092281 L 95.664336 30.274347 L 96.503497 30.274347 L 97.342657 30.956073 L 98.181818 30.956073 L 99.020979 30.956073 L 99.860140 29.658570 L 100.699301 31.524177 L 101.538462 31.524177 L 102.377622 31.524177 L 103.216783 31.222645 L 104.055944 29.649432 L 104.895105 29.649432 L 105.734266 29.649432 L 106.573427 29.649432 L 107.412587 29.649432 L 108.251748 29.649432 L 109.090909 29.649432 L 109.930070 29.649432 L 110.769231 29.649432 L 111.608392 29.649432 L 112.447552 29.649432 L 113.286713 29.819864 L 114.125874 30.956073 L 114.965035 30.956073 L 115.804196 31.404994 L 116.643357 31.428831 L 117.482517 32.376334 L 118.321678 36.800000 L 119.160839 31.580988 L 120.000000 31.580988 L 120 40 Z"></path>
    </g>
  </svg>