<svg xmlns="http://www.w3.org/2000/svg" viewBox="0 0 120 40" width="120" height="40">
    <defs>
      <linearGradient id="color_grad" x1="0%" x2="0%" y1="0%" y2="100%">
        <stop offset="0%" style="stop-color:#16C784;stop-opacity:0.4;"></stop>
        <stop offset="100%" style="stop-color:#16C784;stop-opacity:0.0;"></stop>
      </linearGradient>
    </defs>
    <g>
      <path stroke="#16C784" stroke-width="2" stroke-linecap="round" stroke-linejoin="round" fill="none" d="M 0.000000 15.900178 L 0.839161 15.928850 L 1.678322 16.947756 L 2.517483 17.297378 L 3.356643 17.140245 L 4.195804 18.272873 L 5.034965 17.745822 L 5.874126 17.842254 L 6.713287 17.543721 L 7.552448 17.383958 L 8.391608 17.115600 L 9.230769 14.750234 L 10.069930 15.563335 L 10.909091 15.808739 L 11.748252 17.373890 L 12.587413 15.986462 L 13.426573 15.605833 L 14.265734 14.677346 L 15.104895 20.187754 L 15.944056 19.893086 L 16.783217 19.350545 L 17.622378 13.894018 L 18.461538 12.942927 L 19.300699 12.886335 L 20.139860 12.807621 L 20.979021 16.584281 L 21.818182 14.073836 L 22.657343 15.219216 L 23.496503 14.777537 L 24.335664 14.911018 L 25.174825 9.496023 L 26.013986 9.720916 L 26.853147 8.800000 L 27.692308 10.068363 L 28.531469 16.358904 L 29.370629 17.072860 L 30.209790 16.544977 L 31.048951 16.414020 L 31.888112 17.712103 L 32.727273 21.400840 L 33.566434 21.193102 L 34.405594 21.443446 L 35.244755 19.980472 L 36.083916 20.472407 L 36.923077 20.456541 L 37.762238 19.723631 L 38.601399 20.776041 L 39.440559 20.876528 L 40.279720 20.648359 L 41.118881 19.944954 L 41.958042 21.101475 L 42.797203 21.909447 L 43.636364 20.754484 L 44.475524 22.411907 L 45.314685 20.685622 L 46.153846 24.419623 L 46.993007 23.822449 L 47.832168 25.133606 L 48.671329 21.688742 L 49.510490 21.332784 L 50.349650 21.316274 L 51.188811 20.754591 L 52.027972 20.275783 L 52.867133 20.300026 L 53.706294 20.273018 L 54.545455 20.206197 L 55.384615 19.793566 L 56.223776 19.546632 L 57.062937 18.494625 L 57.902098 18.540801 L 58.741259 18.991742 L 59.580420 21.300837 L 60.419580 19.485583 L 61.258741 20.564786 L 62.097902 20.582961 L 62.937063 22.213457 L 63.776224 23.458760 L 64.615385 23.411725 L 65.454545 23.476720 L 66.293706 24.794293 L 67.132867 24.616918 L 67.972028 26.743538 L 68.811189 27.848943 L 69.650350 29.764227 L 70.489510 32.507887 L 71.328671 32.369117 L 72.167832 32.515807 L 73.006993 27.531778 L 73.846154 27.083039 L 74.685315 26.096000 L 75.524476 27.299932 L 76.363636 33.538525 L 77.202797 34.871454 L 78.041958 35.398344 L 78.881119 28.395216 L 79.720280 28.448479 L 80.559441 29.680493 L 81.398601 35.671238 L 82.237762 35.342583 L 83.076923 34.181445 L 83.916084 32.752888 L 84.755245 33.515678 L 85.594406 32.959123 L 86.433566 32.715223 L 87.272727 32.290484 L 88.111888 32.453845 L 88.951049 32.487591 L 89.790210 31.772427 L 90.629371 32.092867 L 91.468531 31.513787 L 92.307692 31.930875 L 93.146853 32.686819 L 93.986014 30.753548 L 94.825175 31.204596 L 95.664336 32.598870 L 96.503497 32.278457 L 97.342657 32.396286 L 98.181818 33.065623 L 99.020979 33.856226 L 99.860140 34.535443 L 100.699301 31.876833 L 101.538462 33.847743 L 102.377622 36.800000 L 103.216783 32.509820 L 104.055944 31.546325 L 104.895105 29.865573 L 105.734266 30.157179 L 106.573427 29.974355 L 107.412587 32.444717 L 108.251748 32.148922 L 109.090909 30.612469 L 109.930070 30.084237 L 110.769231 29.485990 L 111.608392 29.850055 L 112.447552 29.779207 L 113.286713 29.312373 L 114.125874 31.611240 L 114.965035 32.319075 L 115.804196 31.007784 L 116.643357 29.411920 L 117.482517 30.332568 L 118.321678 31.086928 L 119.160839 35.322985 L 120.000000 35.502374"></path>
      <path stroke="none" fill-opacity="0.6" fill="url(#color_grad)" d="M 0 40 L 0.000000 15.900178 L 0.839161 15.928850 L 1.678322 16.947756 L 2.517483 17.297378 L 3.356643 17.140245 L 4.195804 18.272873 L 5.034965 17.745822 L 5.874126 17.842254 L 6.713287 17.543721 L 7.552448 17.383958 L 8.391608 17.115600 L 9.230769 14.750234 L 10.069930 15.563335 L 10.909091 15.808739 L 11.748252 17.373890 L 12.587413 15.986462 L 13.426573 15.605833 L 14.265734 14.677346 L 15.104895 20.187754 L 15.944056 19.893086 L 16.783217 19.350545 L 17.622378 13.894018 L 18.461538 12.942927 L 19.300699 12.886335 L 20.139860 12.807621 L 20.979021 16.584281 L 21.818182 14.073836 L 22.657343 15.219216 L 23.496503 14.777537 L 24.335664 14.911018 L 25.174825 9.496023 L 26.013986 9.720916 L 26.853147 8.800000 L 27.692308 10.068363 L 28.531469 16.358904 L 29.370629 17.072860 L 30.209790 16.544977 L 31.048951 16.414020 L 31.888112 17.712103 L 32.727273 21.400840 L 33.566434 21.193102 L 34.405594 21.443446 L 35.244755 19.980472 L 36.083916 20.472407 L 36.923077 20.456541 L 37.762238 19.723631 L 38.601399 20.776041 L 39.440559 20.876528 L 40.279720 20.648359 L 41.118881 19.944954 L 41.958042 21.101475 L 42.797203 21.909447 L 43.636364 20.754484 L 44.475524 22.411907 L 45.314685 20.685622 L 46.153846 24.419623 L 46.993007 23.822449 L 47.832168 25.133606 L 48.671329 21.688742 L 49.510490 21.332784 L 50.349650 21.316274 L 51.188811 20.754591 L 52.027972 20.275783 L 52.867133 20.300026 L 53.706294 20.273018 L 54.545455 20.206197 L 55.384615 19.793566 L 56.223776 19.546632 L 57.062937 18.494625 L 57.902098 18.540801 L 58.741259 18.991742 L 59.580420 21.300837 L 60.419580 19.485583 L 61.258741 20.564786 L 62.097902 20.582961 L 62.937063 22.213457 L 63.776224 23.458760 L 64.615385 23.411725 L 65.454545 23.476720 L 66.293706 24.794293 L 67.132867 24.616918 L 67.972028 26.743538 L 68.811189 27.848943 L 69.650350 29.764227 L 70.489510 32.507887 L 71.328671 32.369117 L 72.167832 32.515807 L 73.006993 27.531778 L 73.846154 27.083039 L 74.685315 26.096000 L 75.524476 27.299932 L 76.363636 33.538525 L 77.202797 34.871454 L 78.041958 35.398344 L 78.881119 28.395216 L 79.720280 28.448479 L 80.559441 29.680493 L 81.398601 35.671238 L 82.237762 35.342583 L 83.076923 34.181445 L 83.916084 32.752888 L 84.755245 33.515678 L 85.594406 32.959123 L 86.433566 32.715223 L 87.272727 32.290484 L 88.111888 32.453845 L 88.951049 32.487591 L 89.790210 31.772427 L 90.629371 32.092867 L 91.468531 31.513787 L 92.307692 31.930875 L 93.146853 32.686819 L 93.986014 30.753548 L 94.825175 31.204596 L 95.664336 32.598870 L 96.503497 32.278457 L 97.342657 32.396286 L 98.181818 33.065623 L 99.020979 33.856226 L 99.860140 34.535443 L 100.699301 31.876833 L 101.538462 33.847743 L 102.377622 36.800000 L 103.216783 32.509820 L 104.055944 31.546325 L 104.895105 29.865573 L 105.734266 30.157179 L 106.573427 29.974355 L 107.412587 32.444717 L 108.251748 32.148922 L 109.090909 30.612469 L 109.930070 30.084237 L 110.769231 29.485990 L 111.608392 29.850055 L 112.447552 29.779207 L 113.286713 29.312373 L 114.125874 31.611240 L 114.965035 32.319075 L 115.804196 31.007784 L 116.643357 29.411920 L 117.482517 30.332568 L 118.321678 31.086928 L 119.160839 35.322985 L 120.000000 35.502374 L 120 40 Z"></path>
    </g>
  </svg>