<svg xmlns="http://www.w3.org/2000/svg" viewBox="0 0 120 40" width="120" height="40">
    <defs>
      <linearGradient id="color_grad" x1="0%" x2="0%" y1="0%" y2="100%">
        <stop offset="0%" style="stop-color:#EA3943;stop-opacity:0.4;"></stop>
        <stop offset="100%" style="stop-color:#EA3943;stop-opacity:0.0;"></stop>
      </linearGradient>
    </defs>
    <g>
      <path stroke="#EA3943" stroke-width="2" stroke-linecap="round" stroke-linejoin="round" fill="none" d="M 0.000000 10.936546 L 0.839161 10.936546 L 1.678322 10.936546 L 2.517483 10.936546 L 3.356643 10.936546 L 4.195804 10.936546 L 5.034965 10.936546 L 5.874126 10.936546 L 6.713287 10.936546 L 7.552448 10.936546 L 8.391608 10.936546 L 9.230769 9.474699 L 10.069930 10.486747 L 10.909091 10.691201 L 11.748252 11.921858 L 12.587413 9.812048 L 13.426573 9.812048 L 14.265734 9.249799 L 15.104895 14.310040 L 15.944056 14.310040 L 16.783217 14.310040 L 17.622378 9.745207 L 18.461538 9.249799 L 19.300699 9.249799 L 20.139860 9.249799 L 20.979021 13.185542 L 21.818182 14.310040 L 22.657343 14.310040 L 23.496503 14.310040 L 24.335664 14.310040 L 25.174825 9.812048 L 26.013986 9.812048 L 26.853147 8.800000 L 27.692308 9.812048 L 28.531469 14.789721 L 29.370629 15.434538 L 30.209790 15.434538 L 31.048951 15.434538 L 31.888112 16.559036 L 32.727273 19.932530 L 33.566434 19.932530 L 34.405594 19.932530 L 35.244755 18.808032 L 36.083916 18.808032 L 36.923077 18.808032 L 37.762238 18.808032 L 38.601399 19.932530 L 39.440559 19.932530 L 40.279720 19.932530 L 41.118881 19.932530 L 41.958042 19.932530 L 42.797203 19.932530 L 43.636364 18.808032 L 44.475524 20.805392 L 45.314685 19.932530 L 46.153846 23.219524 L 46.993007 23.041020 L 47.832168 24.430522 L 48.671329 21.057028 L 49.510490 21.057028 L 50.349650 21.057028 L 51.188811 20.494779 L 52.027972 20.494779 L 52.867133 20.494779 L 53.706294 20.494779 L 54.545455 20.494779 L 55.384615 20.494779 L 56.223776 20.494779 L 57.062937 20.494779 L 57.902098 20.494779 L 58.741259 20.494779 L 59.580420 22.146140 L 60.419580 20.506575 L 61.258741 21.169478 L 62.097902 21.169478 L 62.937063 21.731727 L 63.776224 21.731727 L 64.615385 21.731727 L 65.454545 21.731727 L 66.293706 21.731727 L 67.132867 21.731727 L 67.972028 22.583357 L 68.811189 23.868273 L 69.650350 24.992771 L 70.489510 27.579116 L 71.328671 27.579116 L 72.167832 27.579116 L 73.006993 23.306024 L 73.846154 23.306024 L 74.685315 23.306024 L 75.524476 24.430522 L 76.363636 30.155239 L 77.202797 31.177510 L 78.041958 31.177510 L 78.881119 24.992771 L 79.720280 25.330120 L 80.559441 25.330120 L 81.398601 31.177510 L 82.237762 31.177510 L 83.076923 31.177510 L 83.916084 31.177510 L 84.755245 31.177510 L 85.594406 31.177510 L 86.433566 31.177510 L 87.272727 31.177510 L 88.111888 31.177510 L 88.951049 31.177510 L 89.790210 31.177510 L 90.629371 31.177510 L 91.468531 31.177510 L 92.307692 31.177510 L 93.146853 31.177510 L 93.986014 31.177510 L 94.825175 31.177510 L 95.664336 31.177510 L 96.503497 31.177510 L 97.342657 31.177510 L 98.181818 31.177510 L 99.020979 31.289960 L 99.860140 32.302008 L 100.699301 31.177510 L 101.538462 31.177510 L 102.377622 34.551004 L 103.216783 31.177510 L 104.055944 30.053012 L 104.895105 30.053012 L 105.734266 30.053012 L 106.573427 30.053012 L 107.412587 32.414458 L 108.251748 32.414458 L 109.090909 31.177510 L 109.930070 31.177510 L 110.769231 31.177510 L 111.608392 31.177510 L 112.447552 31.177510 L 113.286713 31.177510 L 114.125874 33.096234 L 114.965035 33.426506 L 115.804196 33.426506 L 116.643357 33.426506 L 117.482517 33.426506 L 118.321678 33.426506 L 119.160839 36.800000 L 120.000000 36.800000"></path>
      <path stroke="none" fill-opacity="0.6" fill="url(#color_grad)" d="M 0 40 L 0.000000 10.936546 L 0.839161 10.936546 L 1.678322 10.936546 L 2.517483 10.936546 L 3.356643 10.936546 L 4.195804 10.936546 L 5.034965 10.936546 L 5.874126 10.936546 L 6.713287 10.936546 L 7.552448 10.936546 L 8.391608 10.936546 L 9.230769 9.474699 L 10.069930 10.486747 L 10.909091 10.691201 L 11.748252 11.921858 L 12.587413 9.812048 L 13.426573 9.812048 L 14.265734 9.249799 L 15.104895 14.310040 L 15.944056 14.310040 L 16.783217 14.310040 L 17.622378 9.745207 L 18.461538 9.249799 L 19.300699 9.249799 L 20.139860 9.249799 L 20.979021 13.185542 L 21.818182 14.310040 L 22.657343 14.310040 L 23.496503 14.310040 L 24.335664 14.310040 L 25.174825 9.812048 L 26.013986 9.812048 L 26.853147 8.800000 L 27.692308 9.812048 L 28.531469 14.789721 L 29.370629 15.434538 L 30.209790 15.434538 L 31.048951 15.434538 L 31.888112 16.559036 L 32.727273 19.932530 L 33.566434 19.932530 L 34.405594 19.932530 L 35.244755 18.808032 L 36.083916 18.808032 L 36.923077 18.808032 L 37.762238 18.808032 L 38.601399 19.932530 L 39.440559 19.932530 L 40.279720 19.932530 L 41.118881 19.932530 L 41.958042 19.932530 L 42.797203 19.932530 L 43.636364 18.808032 L 44.475524 20.805392 L 45.314685 19.932530 L 46.153846 23.219524 L 46.993007 23.041020 L 47.832168 24.430522 L 48.671329 21.057028 L 49.510490 21.057028 L 50.349650 21.057028 L 51.188811 20.494779 L 52.027972 20.494779 L 52.867133 20.494779 L 53.706294 20.494779 L 54.545455 20.494779 L 55.384615 20.494779 L 56.223776 20.494779 L 57.062937 20.494779 L 57.902098 20.494779 L 58.741259 20.494779 L 59.580420 22.146140 L 60.419580 20.506575 L 61.258741 21.169478 L 62.097902 21.169478 L 62.937063 21.731727 L 63.776224 21.731727 L 64.615385 21.731727 L 65.454545 21.731727 L 66.293706 21.731727 L 67.132867 21.731727 L 67.972028 22.583357 L 68.811189 23.868273 L 69.650350 24.992771 L 70.489510 27.579116 L 71.328671 27.579116 L 72.167832 27.579116 L 73.006993 23.306024 L 73.846154 23.306024 L 74.685315 23.306024 L 75.524476 24.430522 L 76.363636 30.155239 L 77.202797 31.177510 L 78.041958 31.177510 L 78.881119 24.992771 L 79.720280 25.330120 L 80.559441 25.330120 L 81.398601 31.177510 L 82.237762 31.177510 L 83.076923 31.177510 L 83.916084 31.177510 L 84.755245 31.177510 L 85.594406 31.177510 L 86.433566 31.177510 L 87.272727 31.177510 L 88.111888 31.177510 L 88.951049 31.177510 L 89.790210 31.177510 L 90.629371 31.177510 L 91.468531 31.177510 L 92.307692 31.177510 L 93.146853 31.177510 L 93.986014 31.177510 L 94.825175 31.177510 L 95.664336 31.177510 L 96.503497 31.177510 L 97.342657 31.177510 L 98.181818 31.177510 L 99.020979 31.289960 L 99.860140 32.302008 L 100.699301 31.177510 L 101.538462 31.177510 L 102.377622 34.551004 L 103.216783 31.177510 L 104.055944 30.053012 L 104.895105 30.053012 L 105.734266 30.053012 L 106.573427 30.053012 L 107.412587 32.414458 L 108.251748 32.414458 L 109.090909 31.177510 L 109.930070 31.177510 L 110.769231 31.177510 L 111.608392 31.177510 L 112.447552 31.177510 L 113.286713 31.177510 L 114.125874 33.096234 L 114.965035 33.426506 L 115.804196 33.426506 L 116.643357 33.426506 L 117.482517 33.426506 L 118.321678 33.426506 L 119.160839 36.800000 L 120.000000 36.800000 L 120 40 Z"></path>
    </g>
  </svg>