<svg xmlns="http://www.w3.org/2000/svg" viewBox="0 0 120 40" width="120" height="40">
    <defs>
      <linearGradient id="color_grad" x1="0%" x2="0%" y1="0%" y2="100%">
        <stop offset="0%" style="stop-color:#16C784;stop-opacity:0.4;"></stop>
        <stop offset="100%" style="stop-color:#16C784;stop-opacity:0.0;"></stop>
      </linearGradient>
    </defs>
    <g>
      <path stroke="#16C784" stroke-width="2" stroke-linecap="round" stroke-linejoin="round" fill="none" d="M 0.000000 15.245651 L 0.839161 15.277610 L 1.678322 16.400118 L 2.517483 16.785359 L 3.356643 16.610752 L 4.195804 17.857684 L 5.034965 17.278266 L 5.874126 20.027919 L 6.713287 19.709229 L 7.552448 20.865221 L 8.391608 12.587266 L 9.230769 11.674556 L 10.069930 11.502553 L 10.909091 14.089898 L 11.748252 19.067210 L 12.587413 8.800000 L 13.426573 14.907600 L 14.265734 14.547136 L 15.104895 14.328691 L 15.944056 18.348347 L 16.783217 18.878330 L 17.622378 17.343530 L 18.461538 16.750258 L 19.300699 16.687807 L 20.139860 17.973220 L 20.979021 17.411727 L 21.818182 13.165218 L 22.657343 13.138705 L 23.496503 12.646396 L 24.335664 12.795178 L 25.174825 12.450544 L 26.013986 14.110905 L 26.853147 17.174909 L 27.692308 20.134059 L 28.531469 20.836644 L 29.370629 20.826799 L 30.209790 20.269166 L 31.048951 20.129840 L 31.888112 20.162248 L 32.727273 20.028936 L 33.566434 19.797385 L 34.405594 20.076426 L 35.244755 19.865402 L 36.083916 20.406188 L 36.923077 20.388503 L 37.762238 19.583937 L 38.601399 19.473727 L 39.440559 19.585852 L 40.279720 19.331469 L 41.118881 18.551650 L 41.958042 19.840326 L 42.797203 20.737057 L 43.636364 20.857531 L 44.475524 20.200999 L 45.314685 19.376085 L 46.153846 19.360196 L 46.993007 18.903556 L 47.832168 21.312345 L 48.671329 30.807308 L 49.510490 25.848100 L 50.349650 28.565824 L 51.188811 28.651975 L 52.027972 28.166758 L 52.867133 28.190338 L 53.706294 28.164274 L 54.545455 28.097424 L 55.384615 27.679147 L 56.223776 27.430269 L 57.062937 26.365515 L 57.902098 30.828165 L 58.741259 31.265294 L 59.580420 24.497332 L 60.419580 24.468844 L 61.258741 26.215626 L 62.097902 26.236423 L 62.937063 27.256740 L 63.776224 28.553974 L 64.615385 28.505347 L 65.454545 28.573185 L 66.293706 29.948759 L 67.132867 28.363208 L 67.972028 29.625850 L 68.811189 29.289176 L 69.650350 30.035689 L 70.489510 36.800000 L 71.328671 36.656455 L 72.167832 29.946366 L 73.006993 29.619925 L 73.846154 29.131087 L 74.685315 28.067141 L 75.524476 28.007802 L 76.363636 27.802164 L 77.202797 28.030813 L 78.041958 31.413507 L 78.881119 24.556162 L 79.720280 25.897145 L 80.559441 27.327570 L 81.398601 22.058050 L 82.237762 21.632232 L 83.076923 20.123197 L 83.916084 18.264500 L 84.755245 19.969298 L 85.594406 22.844901 L 86.433566 22.544464 L 87.272727 28.482156 L 88.111888 22.217246 L 88.951049 22.258780 L 89.790210 22.830867 L 90.629371 23.222272 L 91.468531 22.510560 L 92.307692 23.023786 L 93.146853 23.947689 L 93.986014 21.582708 L 94.825175 22.131693 L 95.664336 26.730078 L 96.503497 23.449395 L 97.342657 23.591324 L 98.181818 24.416597 L 99.020979 33.770678 L 99.860140 31.247070 L 100.699301 28.685400 L 101.538462 28.213708 L 102.377622 31.440140 L 103.216783 30.873290 L 104.055944 24.137317 L 104.895105 23.581330 L 105.734266 31.254312 L 106.573427 31.054390 L 107.412587 30.715411 L 108.251748 30.380502 L 109.090909 30.296506 L 109.930070 29.707722 L 110.769231 26.339122 L 111.608392 23.611762 L 112.447552 23.529382 L 113.286713 22.975070 L 114.125874 23.119723 L 114.965035 23.499308 L 115.804196 22.251509 L 116.643357 20.557005 L 117.482517 21.679752 L 118.321678 26.257729 L 119.160839 30.984727 L 120.000000 28.160055"></path>
      <path stroke="none" fill-opacity="0.6" fill="url(#color_grad)" d="M 0 40 L 0.000000 15.245651 L 0.839161 15.277610 L 1.678322 16.400118 L 2.517483 16.785359 L 3.356643 16.610752 L 4.195804 17.857684 L 5.034965 17.278266 L 5.874126 20.027919 L 6.713287 19.709229 L 7.552448 20.865221 L 8.391608 12.587266 L 9.230769 11.674556 L 10.069930 11.502553 L 10.909091 14.089898 L 11.748252 19.067210 L 12.587413 8.800000 L 13.426573 14.907600 L 14.265734 14.547136 L 15.104895 14.328691 L 15.944056 18.348347 L 16.783217 18.878330 L 17.622378 17.343530 L 18.461538 16.750258 L 19.300699 16.687807 L 20.139860 17.973220 L 20.979021 17.411727 L 21.818182 13.165218 L 22.657343 13.138705 L 23.496503 12.646396 L 24.335664 12.795178 L 25.174825 12.450544 L 26.013986 14.110905 L 26.853147 17.174909 L 27.692308 20.134059 L 28.531469 20.836644 L 29.370629 20.826799 L 30.209790 20.269166 L 31.048951 20.129840 L 31.888112 20.162248 L 32.727273 20.028936 L 33.566434 19.797385 L 34.405594 20.076426 L 35.244755 19.865402 L 36.083916 20.406188 L 36.923077 20.388503 L 37.762238 19.583937 L 38.601399 19.473727 L 39.440559 19.585852 L 40.279720 19.331469 L 41.118881 18.551650 L 41.958042 19.840326 L 42.797203 20.737057 L 43.636364 20.857531 L 44.475524 20.200999 L 45.314685 19.376085 L 46.153846 19.360196 L 46.993007 18.903556 L 47.832168 21.312345 L 48.671329 30.807308 L 49.510490 25.848100 L 50.349650 28.565824 L 51.188811 28.651975 L 52.027972 28.166758 L 52.867133 28.190338 L 53.706294 28.164274 L 54.545455 28.097424 L 55.384615 27.679147 L 56.223776 27.430269 L 57.062937 26.365515 L 57.902098 30.828165 L 58.741259 31.265294 L 59.580420 24.497332 L 60.419580 24.468844 L 61.258741 26.215626 L 62.097902 26.236423 L 62.937063 27.256740 L 63.776224 28.553974 L 64.615385 28.505347 L 65.454545 28.573185 L 66.293706 29.948759 L 67.132867 28.363208 L 67.972028 29.625850 L 68.811189 29.289176 L 69.650350 30.035689 L 70.489510 36.800000 L 71.328671 36.656455 L 72.167832 29.946366 L 73.006993 29.619925 L 73.846154 29.131087 L 74.685315 28.067141 L 75.524476 28.007802 L 76.363636 27.802164 L 77.202797 28.030813 L 78.041958 31.413507 L 78.881119 24.556162 L 79.720280 25.897145 L 80.559441 27.327570 L 81.398601 22.058050 L 82.237762 21.632232 L 83.076923 20.123197 L 83.916084 18.264500 L 84.755245 19.969298 L 85.594406 22.844901 L 86.433566 22.544464 L 87.272727 28.482156 L 88.111888 22.217246 L 88.951049 22.258780 L 89.790210 22.830867 L 90.629371 23.222272 L 91.468531 22.510560 L 92.307692 23.023786 L 93.146853 23.947689 L 93.986014 21.582708 L 94.825175 22.131693 L 95.664336 26.730078 L 96.503497 23.449395 L 97.342657 23.591324 L 98.181818 24.416597 L 99.020979 33.770678 L 99.860140 31.247070 L 100.699301 28.685400 L 101.538462 28.213708 L 102.377622 31.440140 L 103.216783 30.873290 L 104.055944 24.137317 L 104.895105 23.581330 L 105.734266 31.254312 L 106.573427 31.054390 L 107.412587 30.715411 L 108.251748 30.380502 L 109.090909 30.296506 L 109.930070 29.707722 L 110.769231 26.339122 L 111.608392 23.611762 L 112.447552 23.529382 L 113.286713 22.975070 L 114.125874 23.119723 L 114.965035 23.499308 L 115.804196 22.251509 L 116.643357 20.557005 L 117.482517 21.679752 L 118.321678 26.257729 L 119.160839 30.984727 L 120.000000 28.160055 L 120 40 Z"></path>
    </g>
  </svg>