<svg xmlns="http://www.w3.org/2000/svg" viewBox="0 0 120 40" width="120" height="40">
    <defs>
      <linearGradient id="color_grad" x1="0%" x2="0%" y1="0%" y2="100%">
        <stop offset="0%" style="stop-color:#EA3943;stop-opacity:0.4;"></stop>
        <stop offset="100%" style="stop-color:#EA3943;stop-opacity:0.0;"></stop>
      </linearGradient>
    </defs>
    <g>
      <path stroke="#EA3943" stroke-width="2" stroke-linecap="round" stroke-linejoin="round" fill="none" d="M 0.000000 15.434538 L 0.839161 15.434538 L 1.678322 15.434538 L 2.517483 15.434538 L 3.356643 15.434538 L 4.195804 15.434538 L 5.034965 15.434538 L 5.874126 17.683534 L 6.713287 17.683534 L 7.552448 18.808032 L 8.391608 12.061044 L 9.230769 12.061044 L 10.069930 12.173494 L 10.909091 14.310040 L 11.748252 18.245783 L 12.587413 8.800000 L 13.426573 14.310040 L 14.265734 14.310040 L 15.104895 14.034813 L 15.944056 17.683534 L 16.783217 18.627169 L 17.622378 17.817216 L 18.461538 17.683534 L 19.300699 17.683534 L 20.139860 18.808032 L 20.979021 18.808032 L 21.818182 18.705805 L 22.657343 17.683534 L 23.496503 17.683534 L 24.335664 17.683534 L 25.174825 17.683534 L 26.013986 18.808032 L 26.853147 21.057028 L 27.692308 23.306024 L 28.531469 23.306024 L 29.370629 23.306024 L 30.209790 23.306024 L 31.048951 23.306024 L 31.888112 23.306024 L 32.727273 23.306024 L 33.566434 23.306024 L 34.405594 23.306024 L 35.244755 23.306024 L 36.083916 23.306024 L 36.923077 23.306024 L 37.762238 23.306024 L 38.601399 23.418474 L 39.440559 23.418474 L 40.279720 23.418474 L 41.118881 23.418474 L 41.958042 23.418474 L 42.797203 23.418474 L 43.636364 23.418474 L 44.475524 23.418474 L 45.314685 23.418474 L 46.153846 23.418474 L 46.993007 23.418474 L 47.832168 25.555020 L 48.671329 32.639357 L 49.510490 29.040964 L 50.349650 31.177510 L 51.188811 31.177510 L 52.027972 31.177510 L 52.867133 31.177510 L 53.706294 31.177510 L 54.545455 31.177510 L 55.384615 31.177510 L 56.223776 31.177510 L 57.062937 31.177510 L 57.902098 34.551004 L 58.741259 34.551004 L 59.580420 29.046468 L 60.419580 28.952105 L 61.258741 30.053012 L 62.097902 30.053012 L 62.937063 30.053012 L 63.776224 30.053012 L 64.615385 30.053012 L 65.454545 30.053012 L 66.293706 30.053012 L 67.132867 28.928514 L 67.972028 28.928514 L 68.811189 28.928514 L 69.650350 28.928514 L 70.489510 34.551004 L 71.328671 34.551004 L 72.167832 28.928514 L 73.006993 28.928514 L 73.846154 28.928514 L 74.685315 28.928514 L 75.524476 28.928514 L 76.363636 28.928514 L 77.202797 28.928514 L 78.041958 31.144483 L 78.881119 25.731165 L 79.720280 27.107299 L 80.559441 27.129317 L 81.398601 23.306024 L 82.237762 23.306024 L 83.076923 23.306024 L 83.916084 23.306024 L 84.755245 23.868273 L 85.594406 26.679518 L 86.433566 26.679518 L 87.272727 31.688645 L 88.111888 26.679518 L 88.951049 26.679518 L 89.790210 27.804016 L 90.629371 27.804016 L 91.468531 27.804016 L 92.307692 27.804016 L 93.146853 27.804016 L 93.986014 27.804016 L 94.825175 27.804016 L 95.664336 30.053012 L 96.503497 27.804016 L 97.342657 27.804016 L 98.181818 27.804016 L 99.020979 34.551004 L 99.860140 32.987716 L 100.699301 32.223372 L 101.538462 30.053012 L 102.377622 33.426506 L 103.216783 33.355733 L 104.055944 27.804016 L 104.895105 28.928514 L 105.734266 34.551004 L 106.573427 34.551004 L 107.412587 34.551004 L 108.251748 34.551004 L 109.090909 34.551004 L 109.930070 34.551004 L 110.769231 32.526908 L 111.608392 30.165462 L 112.447552 30.165462 L 113.286713 30.165462 L 114.125874 30.277912 L 114.965035 30.277912 L 115.804196 30.544488 L 116.643357 30.727711 L 117.482517 30.727711 L 118.321678 33.426506 L 119.160839 36.800000 L 120.000000 34.551004"></path>
      <path stroke="none" fill-opacity="0.6" fill="url(#color_grad)" d="M 0 40 L 0.000000 15.434538 L 0.839161 15.434538 L 1.678322 15.434538 L 2.517483 15.434538 L 3.356643 15.434538 L 4.195804 15.434538 L 5.034965 15.434538 L 5.874126 17.683534 L 6.713287 17.683534 L 7.552448 18.808032 L 8.391608 12.061044 L 9.230769 12.061044 L 10.069930 12.173494 L 10.909091 14.310040 L 11.748252 18.245783 L 12.587413 8.800000 L 13.426573 14.310040 L 14.265734 14.310040 L 15.104895 14.034813 L 15.944056 17.683534 L 16.783217 18.627169 L 17.622378 17.817216 L 18.461538 17.683534 L 19.300699 17.683534 L 20.139860 18.808032 L 20.979021 18.808032 L 21.818182 18.705805 L 22.657343 17.683534 L 23.496503 17.683534 L 24.335664 17.683534 L 25.174825 17.683534 L 26.013986 18.808032 L 26.853147 21.057028 L 27.692308 23.306024 L 28.531469 23.306024 L 29.370629 23.306024 L 30.209790 23.306024 L 31.048951 23.306024 L 31.888112 23.306024 L 32.727273 23.306024 L 33.566434 23.306024 L 34.405594 23.306024 L 35.244755 23.306024 L 36.083916 23.306024 L 36.923077 23.306024 L 37.762238 23.306024 L 38.601399 23.418474 L 39.440559 23.418474 L 40.279720 23.418474 L 41.118881 23.418474 L 41.958042 23.418474 L 42.797203 23.418474 L 43.636364 23.418474 L 44.475524 23.418474 L 45.314685 23.418474 L 46.153846 23.418474 L 46.993007 23.418474 L 47.832168 25.555020 L 48.671329 32.639357 L 49.510490 29.040964 L 50.349650 31.177510 L 51.188811 31.177510 L 52.027972 31.177510 L 52.867133 31.177510 L 53.706294 31.177510 L 54.545455 31.177510 L 55.384615 31.177510 L 56.223776 31.177510 L 57.062937 31.177510 L 57.902098 34.551004 L 58.741259 34.551004 L 59.580420 29.046468 L 60.419580 28.952105 L 61.258741 30.053012 L 62.097902 30.053012 L 62.937063 30.053012 L 63.776224 30.053012 L 64.615385 30.053012 L 65.454545 30.053012 L 66.293706 30.053012 L 67.132867 28.928514 L 67.972028 28.928514 L 68.811189 28.928514 L 69.650350 28.928514 L 70.489510 34.551004 L 71.328671 34.551004 L 72.167832 28.928514 L 73.006993 28.928514 L 73.846154 28.928514 L 74.685315 28.928514 L 75.524476 28.928514 L 76.363636 28.928514 L 77.202797 28.928514 L 78.041958 31.144483 L 78.881119 25.731165 L 79.720280 27.107299 L 80.559441 27.129317 L 81.398601 23.306024 L 82.237762 23.306024 L 83.076923 23.306024 L 83.916084 23.306024 L 84.755245 23.868273 L 85.594406 26.679518 L 86.433566 26.679518 L 87.272727 31.688645 L 88.111888 26.679518 L 88.951049 26.679518 L 89.790210 27.804016 L 90.629371 27.804016 L 91.468531 27.804016 L 92.307692 27.804016 L 93.146853 27.804016 L 93.986014 27.804016 L 94.825175 27.804016 L 95.664336 30.053012 L 96.503497 27.804016 L 97.342657 27.804016 L 98.181818 27.804016 L 99.020979 34.551004 L 99.860140 32.987716 L 100.699301 32.223372 L 101.538462 30.053012 L 102.377622 33.426506 L 103.216783 33.355733 L 104.055944 27.804016 L 104.895105 28.928514 L 105.734266 34.551004 L 106.573427 34.551004 L 107.412587 34.551004 L 108.251748 34.551004 L 109.090909 34.551004 L 109.930070 34.551004 L 110.769231 32.526908 L 111.608392 30.165462 L 112.447552 30.165462 L 113.286713 30.165462 L 114.125874 30.277912 L 114.965035 30.277912 L 115.804196 30.544488 L 116.643357 30.727711 L 117.482517 30.727711 L 118.321678 33.426506 L 119.160839 36.800000 L 120.000000 34.551004 L 120 40 Z"></path>
    </g>
  </svg>