<svg xmlns="http://www.w3.org/2000/svg" viewBox="0 0 120 40" width="120" height="40">
    <defs>
      <linearGradient id="color_grad" x1="0%" x2="0%" y1="0%" y2="100%">
        <stop offset="0%" style="stop-color:#EA3943;stop-opacity:0.4;"></stop>
        <stop offset="100%" style="stop-color:#EA3943;stop-opacity:0.0;"></stop>
      </linearGradient>
    </defs>
    <g>
      <path stroke="#EA3943" stroke-width="2" stroke-linecap="round" stroke-linejoin="round" fill="none" d="M 0.000000 32.035176 L 0.839161 32.052929 L 1.678322 32.601467 L 2.517483 32.789701 L 3.356643 32.707193 L 4.195804 33.316561 L 5.034965 33.031247 L 5.874126 33.085277 L 6.713287 32.923238 L 7.552448 32.836522 L 8.391608 32.694443 L 9.230769 35.717727 L 10.069930 35.585165 L 10.909091 35.596839 L 11.748252 35.719343 L 12.587413 32.727949 L 13.426573 32.526785 L 14.265734 32.349968 L 15.104895 32.404434 L 15.944056 32.239624 L 16.783217 31.935607 L 17.622378 31.653808 L 18.461538 31.434916 L 19.300699 31.405643 L 20.139860 31.364697 L 20.979021 31.074509 L 21.818182 28.975794 L 22.657343 29.618514 L 23.496503 29.371863 L 24.335664 29.445776 L 25.174825 29.272525 L 26.013986 29.393003 L 26.853147 36.800000 L 27.692308 32.005262 L 28.531469 29.957114 L 29.370629 29.951623 L 30.209790 33.286133 L 31.048951 27.149412 L 31.888112 25.955307 L 32.727273 28.308087 L 33.566434 25.746703 L 34.405594 28.332690 L 35.244755 28.216343 L 36.083916 28.515357 L 36.923077 26.159857 L 37.762238 25.620735 L 38.601399 25.479168 L 39.440559 25.543358 L 40.279720 25.395532 L 41.118881 24.946126 L 41.958042 25.604444 L 42.797203 25.582380 L 43.636364 26.143541 L 44.475524 28.324122 L 45.314685 27.868276 L 46.153846 29.746175 L 46.993007 27.977261 L 47.832168 27.797647 L 48.671329 27.904502 L 49.510490 33.636201 L 50.349650 26.228973 L 51.188811 25.051647 L 52.027972 24.740190 L 52.867133 24.756969 L 53.706294 24.741088 L 54.545455 24.698064 L 55.384615 24.429067 L 56.223776 24.271748 L 57.062937 23.840711 L 57.902098 23.871857 L 58.741259 26.343704 L 59.580420 26.664037 L 60.419580 24.501389 L 61.258741 26.913511 L 62.097902 26.926159 L 62.937063 29.388923 L 63.776224 30.752021 L 64.615385 22.825553 L 65.454545 23.103170 L 66.293706 29.162720 L 67.132867 29.049297 L 67.972028 31.572788 L 68.811189 31.378295 L 69.650350 31.453901 L 70.489510 31.397203 L 71.328671 31.306844 L 72.167832 31.401795 L 73.006993 31.212125 L 73.846154 30.932301 L 74.685315 28.873840 L 75.524476 28.838025 L 76.363636 28.717983 L 77.202797 28.851084 L 78.041958 29.829914 L 78.881119 29.741608 L 79.720280 29.532132 L 80.559441 30.337635 L 81.398601 32.995663 L 82.237762 23.216926 L 83.076923 22.291613 L 83.916084 18.682333 L 84.755245 19.314252 L 85.594406 18.853070 L 86.433566 18.651675 L 87.272727 18.299811 L 88.111888 18.433142 L 88.951049 18.461081 L 89.790210 17.870853 L 90.629371 17.604652 L 91.468531 16.650348 L 92.307692 17.001879 L 93.146853 18.693930 L 93.986014 15.921478 L 94.825175 16.450801 L 95.664336 16.077001 L 96.503497 15.802206 L 97.342657 13.905374 L 98.181818 14.387619 L 99.020979 15.219239 L 99.860140 15.408986 L 100.699301 17.825905 L 101.538462 14.955860 L 102.377622 13.893803 L 103.216783 16.002780 L 104.055944 21.224681 L 104.895105 9.818160 L 105.734266 10.082437 L 106.573427 9.915394 L 107.412587 9.635930 L 108.251748 9.359083 L 109.090909 14.837871 L 109.930070 8.800000 L 110.769231 20.436368 L 111.608392 26.541148 L 112.447552 31.864362 L 113.286713 33.515313 L 114.125874 36.637550 L 114.965035 33.482038 L 115.804196 33.139513 L 116.643357 32.098262 L 117.482517 32.703345 L 118.321678 33.325514 L 119.160839 33.548973 L 120.000000 34.834411"></path>
      <path stroke="none" fill-opacity="0.6" fill="url(#color_grad)" d="M 0 40 L 0.000000 32.035176 L 0.839161 32.052929 L 1.678322 32.601467 L 2.517483 32.789701 L 3.356643 32.707193 L 4.195804 33.316561 L 5.034965 33.031247 L 5.874126 33.085277 L 6.713287 32.923238 L 7.552448 32.836522 L 8.391608 32.694443 L 9.230769 35.717727 L 10.069930 35.585165 L 10.909091 35.596839 L 11.748252 35.719343 L 12.587413 32.727949 L 13.426573 32.526785 L 14.265734 32.349968 L 15.104895 32.404434 L 15.944056 32.239624 L 16.783217 31.935607 L 17.622378 31.653808 L 18.461538 31.434916 L 19.300699 31.405643 L 20.139860 31.364697 L 20.979021 31.074509 L 21.818182 28.975794 L 22.657343 29.618514 L 23.496503 29.371863 L 24.335664 29.445776 L 25.174825 29.272525 L 26.013986 29.393003 L 26.853147 36.800000 L 27.692308 32.005262 L 28.531469 29.957114 L 29.370629 29.951623 L 30.209790 33.286133 L 31.048951 27.149412 L 31.888112 25.955307 L 32.727273 28.308087 L 33.566434 25.746703 L 34.405594 28.332690 L 35.244755 28.216343 L 36.083916 28.515357 L 36.923077 26.159857 L 37.762238 25.620735 L 38.601399 25.479168 L 39.440559 25.543358 L 40.279720 25.395532 L 41.118881 24.946126 L 41.958042 25.604444 L 42.797203 25.582380 L 43.636364 26.143541 L 44.475524 28.324122 L 45.314685 27.868276 L 46.153846 29.746175 L 46.993007 27.977261 L 47.832168 27.797647 L 48.671329 27.904502 L 49.510490 33.636201 L 50.349650 26.228973 L 51.188811 25.051647 L 52.027972 24.740190 L 52.867133 24.756969 L 53.706294 24.741088 L 54.545455 24.698064 L 55.384615 24.429067 L 56.223776 24.271748 L 57.062937 23.840711 L 57.902098 23.871857 L 58.741259 26.343704 L 59.580420 26.664037 L 60.419580 24.501389 L 61.258741 26.913511 L 62.097902 26.926159 L 62.937063 29.388923 L 63.776224 30.752021 L 64.615385 22.825553 L 65.454545 23.103170 L 66.293706 29.162720 L 67.132867 29.049297 L 67.972028 31.572788 L 68.811189 31.378295 L 69.650350 31.453901 L 70.489510 31.397203 L 71.328671 31.306844 L 72.167832 31.401795 L 73.006993 31.212125 L 73.846154 30.932301 L 74.685315 28.873840 L 75.524476 28.838025 L 76.363636 28.717983 L 77.202797 28.851084 L 78.041958 29.829914 L 78.881119 29.741608 L 79.720280 29.532132 L 80.559441 30.337635 L 81.398601 32.995663 L 82.237762 23.216926 L 83.076923 22.291613 L 83.916084 18.682333 L 84.755245 19.314252 L 85.594406 18.853070 L 86.433566 18.651675 L 87.272727 18.299811 L 88.111888 18.433142 L 88.951049 18.461081 L 89.790210 17.870853 L 90.629371 17.604652 L 91.468531 16.650348 L 92.307692 17.001879 L 93.146853 18.693930 L 93.986014 15.921478 L 94.825175 16.450801 L 95.664336 16.077001 L 96.503497 15.802206 L 97.342657 13.905374 L 98.181818 14.387619 L 99.020979 15.219239 L 99.860140 15.408986 L 100.699301 17.825905 L 101.538462 14.955860 L 102.377622 13.893803 L 103.216783 16.002780 L 104.055944 21.224681 L 104.895105 9.818160 L 105.734266 10.082437 L 106.573427 9.915394 L 107.412587 9.635930 L 108.251748 9.359083 L 109.090909 14.837871 L 109.930070 8.800000 L 110.769231 20.436368 L 111.608392 26.541148 L 112.447552 31.864362 L 113.286713 33.515313 L 114.125874 36.637550 L 114.965035 33.482038 L 115.804196 33.139513 L 116.643357 32.098262 L 117.482517 32.703345 L 118.321678 33.325514 L 119.160839 33.548973 L 120.000000 34.834411 L 120 40 Z"></path>
    </g>
  </svg>