<svg xmlns="http://www.w3.org/2000/svg" viewBox="0 0 120 40" width="120" height="40">
    <defs>
      <linearGradient id="color_grad" x1="0%" x2="0%" y1="0%" y2="100%">
        <stop offset="0%" style="stop-color:#EA3943;stop-opacity:0.4;"></stop>
        <stop offset="100%" style="stop-color:#EA3943;stop-opacity:0.0;"></stop>
      </linearGradient>
    </defs>
    <g>
      <path stroke="#EA3943" stroke-width="2" stroke-linecap="round" stroke-linejoin="round" fill="none" d="M 0.000000 31.798312 L 0.839161 31.841818 L 1.678322 33.993507 L 2.517483 34.751667 L 3.356643 34.403836 L 4.195804 36.800000 L 5.034965 35.690698 L 5.874126 35.887029 L 6.713287 35.252100 L 7.552448 34.927680 L 8.391608 34.362318 L 9.230769 32.670427 L 10.069930 32.100427 L 10.909091 32.157185 L 11.748252 32.676611 L 12.587413 34.486432 L 13.426573 33.693159 L 14.265734 33.024662 L 15.104895 33.225851 L 15.944056 32.574139 L 16.783217 31.380474 L 17.622378 30.298998 L 18.461538 29.434613 L 19.300699 29.326178 L 20.139860 29.149061 L 20.979021 28.041746 L 21.818182 19.811973 L 22.657343 22.332693 L 23.496503 21.361639 L 24.335664 21.646087 L 25.174825 20.972732 L 26.013986 21.443131 L 26.853147 21.904475 L 27.692308 22.173464 L 28.531469 23.650472 L 29.370629 23.617125 L 30.209790 22.465862 L 31.048951 22.156238 L 31.888112 22.235300 L 32.727273 21.956595 L 33.566434 21.464553 L 34.405594 22.043607 L 35.244755 21.615611 L 36.083916 22.740814 L 36.923077 22.700620 L 37.762238 20.998129 L 38.601399 20.492395 L 39.440559 20.707277 L 40.279720 20.165987 L 41.118881 18.534166 L 41.958042 21.243487 L 42.797203 23.140763 L 43.636364 23.409310 L 44.475524 22.012027 L 45.314685 20.276630 L 46.153846 20.237320 L 46.993007 19.281504 L 47.832168 18.590702 L 48.671329 19.610342 L 49.510490 18.753465 L 50.349650 18.706425 L 51.188811 18.903639 L 52.027972 17.782411 L 52.867133 17.837402 L 53.706294 17.761873 L 54.545455 17.627158 L 55.384615 16.627394 L 56.223776 16.063357 L 57.062937 13.575101 L 57.902098 13.665868 L 58.741259 14.750436 L 59.580420 15.673787 L 60.419580 15.862609 L 61.258741 16.600451 L 62.097902 16.672667 L 62.937063 19.014503 L 63.776224 22.002309 L 64.615385 21.903813 L 65.454545 22.045595 L 66.293706 25.218469 L 67.132867 24.798423 L 67.972028 27.654385 L 68.811189 26.900642 L 69.650350 28.584803 L 70.489510 28.367492 L 71.328671 28.002436 L 72.167832 28.390460 L 73.006993 27.645551 L 73.846154 26.541328 L 74.685315 24.123742 L 75.524476 23.969593 L 76.363636 23.509794 L 77.202797 24.028779 L 78.041958 25.482157 L 78.881119 25.162816 L 79.720280 24.341274 L 80.559441 27.447895 L 81.398601 26.239213 L 82.237762 25.328229 L 83.076923 22.151600 L 83.916084 18.235584 L 84.755245 20.326762 L 85.594406 18.803155 L 86.433566 18.123837 L 87.272727 16.955348 L 88.111888 17.413380 L 88.951049 17.505472 L 89.790210 15.538630 L 90.629371 16.406770 L 91.468531 14.833915 L 92.307692 15.969057 L 93.146853 18.039033 L 93.986014 12.755326 L 94.825175 13.989406 L 95.664336 17.815317 L 96.503497 16.933043 L 97.342657 17.241563 L 98.181818 19.094228 L 99.020979 20.905154 L 99.860140 19.609458 L 100.699301 15.815128 L 101.538462 21.228470 L 102.377622 18.699137 L 103.216783 17.567750 L 104.055944 18.476747 L 104.895105 13.941703 L 105.734266 14.714218 L 106.573427 14.229464 L 107.412587 13.381862 L 108.251748 12.575117 L 109.090909 12.347426 L 109.930070 10.904207 L 110.769231 9.273932 L 111.608392 10.273475 L 112.447552 10.066544 L 113.286713 8.800000 L 114.125874 27.982560 L 114.965035 28.790851 L 115.804196 25.377256 L 116.643357 21.229795 L 117.482517 23.641197 L 118.321678 25.589488 L 119.160839 25.958298 L 120.000000 26.429581"></path>
      <path stroke="none" fill-opacity="0.6" fill="url(#color_grad)" d="M 0 40 L 0.000000 31.798312 L 0.839161 31.841818 L 1.678322 33.993507 L 2.517483 34.751667 L 3.356643 34.403836 L 4.195804 36.800000 L 5.034965 35.690698 L 5.874126 35.887029 L 6.713287 35.252100 L 7.552448 34.927680 L 8.391608 34.362318 L 9.230769 32.670427 L 10.069930 32.100427 L 10.909091 32.157185 L 11.748252 32.676611 L 12.587413 34.486432 L 13.426573 33.693159 L 14.265734 33.024662 L 15.104895 33.225851 L 15.944056 32.574139 L 16.783217 31.380474 L 17.622378 30.298998 L 18.461538 29.434613 L 19.300699 29.326178 L 20.139860 29.149061 L 20.979021 28.041746 L 21.818182 19.811973 L 22.657343 22.332693 L 23.496503 21.361639 L 24.335664 21.646087 L 25.174825 20.972732 L 26.013986 21.443131 L 26.853147 21.904475 L 27.692308 22.173464 L 28.531469 23.650472 L 29.370629 23.617125 L 30.209790 22.465862 L 31.048951 22.156238 L 31.888112 22.235300 L 32.727273 21.956595 L 33.566434 21.464553 L 34.405594 22.043607 L 35.244755 21.615611 L 36.083916 22.740814 L 36.923077 22.700620 L 37.762238 20.998129 L 38.601399 20.492395 L 39.440559 20.707277 L 40.279720 20.165987 L 41.118881 18.534166 L 41.958042 21.243487 L 42.797203 23.140763 L 43.636364 23.409310 L 44.475524 22.012027 L 45.314685 20.276630 L 46.153846 20.237320 L 46.993007 19.281504 L 47.832168 18.590702 L 48.671329 19.610342 L 49.510490 18.753465 L 50.349650 18.706425 L 51.188811 18.903639 L 52.027972 17.782411 L 52.867133 17.837402 L 53.706294 17.761873 L 54.545455 17.627158 L 55.384615 16.627394 L 56.223776 16.063357 L 57.062937 13.575101 L 57.902098 13.665868 L 58.741259 14.750436 L 59.580420 15.673787 L 60.419580 15.862609 L 61.258741 16.600451 L 62.097902 16.672667 L 62.937063 19.014503 L 63.776224 22.002309 L 64.615385 21.903813 L 65.454545 22.045595 L 66.293706 25.218469 L 67.132867 24.798423 L 67.972028 27.654385 L 68.811189 26.900642 L 69.650350 28.584803 L 70.489510 28.367492 L 71.328671 28.002436 L 72.167832 28.390460 L 73.006993 27.645551 L 73.846154 26.541328 L 74.685315 24.123742 L 75.524476 23.969593 L 76.363636 23.509794 L 77.202797 24.028779 L 78.041958 25.482157 L 78.881119 25.162816 L 79.720280 24.341274 L 80.559441 27.447895 L 81.398601 26.239213 L 82.237762 25.328229 L 83.076923 22.151600 L 83.916084 18.235584 L 84.755245 20.326762 L 85.594406 18.803155 L 86.433566 18.123837 L 87.272727 16.955348 L 88.111888 17.413380 L 88.951049 17.505472 L 89.790210 15.538630 L 90.629371 16.406770 L 91.468531 14.833915 L 92.307692 15.969057 L 93.146853 18.039033 L 93.986014 12.755326 L 94.825175 13.989406 L 95.664336 17.815317 L 96.503497 16.933043 L 97.342657 17.241563 L 98.181818 19.094228 L 99.020979 20.905154 L 99.860140 19.609458 L 100.699301 15.815128 L 101.538462 21.228470 L 102.377622 18.699137 L 103.216783 17.567750 L 104.055944 18.476747 L 104.895105 13.941703 L 105.734266 14.714218 L 106.573427 14.229464 L 107.412587 13.381862 L 108.251748 12.575117 L 109.090909 12.347426 L 109.930070 10.904207 L 110.769231 9.273932 L 111.608392 10.273475 L 112.447552 10.066544 L 113.286713 8.800000 L 114.125874 27.982560 L 114.965035 28.790851 L 115.804196 25.377256 L 116.643357 21.229795 L 117.482517 23.641197 L 118.321678 25.589488 L 119.160839 25.958298 L 120.000000 26.429581 L 120 40 Z"></path>
    </g>
  </svg>