<svg xmlns="http://www.w3.org/2000/svg" viewBox="0 0 120 40" width="120" height="40">
    <defs>
      <linearGradient id="color_grad" x1="0%" x2="0%" y1="0%" y2="100%">
        <stop offset="0%" style="stop-color:#EA3943;stop-opacity:0.4;"></stop>
        <stop offset="100%" style="stop-color:#EA3943;stop-opacity:0.0;"></stop>
      </linearGradient>
    </defs>
    <g>
      <path stroke="#EA3943" stroke-width="2" stroke-linecap="round" stroke-linejoin="round" fill="none" d="M 0.000000 26.522415 L 0.839161 26.522415 L 1.678322 26.522415 L 2.517483 26.522415 L 3.356643 26.522415 L 4.195804 26.522415 L 5.034965 26.522415 L 5.874126 26.522415 L 6.713287 26.522415 L 7.552448 26.522415 L 8.391608 26.522415 L 9.230769 30.320076 L 10.069930 30.320076 L 10.909091 30.320076 L 11.748252 30.320076 L 12.587413 26.522415 L 13.426573 26.522415 L 14.265734 26.522415 L 15.104895 26.522415 L 15.944056 26.522415 L 16.783217 26.522415 L 17.622378 26.522415 L 18.461538 26.522415 L 19.300699 26.522415 L 20.139860 26.522415 L 20.979021 26.522415 L 21.818182 26.522415 L 22.657343 26.522415 L 23.496503 26.522415 L 24.335664 26.522415 L 25.174825 26.522415 L 26.013986 26.522415 L 26.853147 34.117736 L 27.692308 29.054189 L 28.531469 26.522415 L 29.370629 26.522415 L 30.209790 30.320076 L 31.048951 23.990642 L 31.888112 22.724755 L 32.727273 25.256529 L 33.566434 22.724755 L 34.405594 25.256529 L 35.244755 25.256529 L 36.083916 25.256529 L 36.923077 22.802656 L 37.762238 22.724755 L 38.601399 22.724755 L 39.440559 22.724755 L 40.279720 22.724755 L 41.118881 22.724755 L 41.958042 22.638002 L 42.797203 22.071451 L 43.636364 22.586658 L 44.475524 25.256529 L 45.314685 25.256529 L 46.153846 27.204047 L 46.993007 25.636295 L 47.832168 25.636295 L 48.671329 25.471641 L 49.510490 31.585963 L 50.349650 23.990642 L 51.188811 22.724755 L 52.027972 22.724755 L 52.867133 22.724755 L 53.706294 22.724755 L 54.545455 22.724755 L 55.384615 22.724755 L 56.223776 22.724755 L 57.062937 22.977932 L 57.902098 22.977932 L 58.741259 25.176857 L 59.580420 25.256529 L 60.419580 23.009801 L 61.258741 25.256529 L 62.097902 25.256529 L 62.937063 27.155359 L 63.776224 27.788302 L 64.615385 19.560038 L 65.454545 19.801707 L 66.293706 25.256529 L 67.132867 25.256529 L 67.972028 27.155359 L 68.811189 27.155359 L 69.650350 26.775593 L 70.489510 26.775593 L 71.328671 26.775593 L 72.167832 26.775593 L 73.006993 26.775593 L 73.846154 26.775593 L 74.685315 25.256529 L 75.524476 25.256529 L 76.363636 25.256529 L 77.202797 25.256529 L 78.041958 25.889472 L 78.881119 25.889472 L 79.720280 25.889472 L 80.559441 25.889472 L 81.398601 29.054189 L 82.237762 18.927095 L 83.076923 18.927095 L 83.916084 16.395321 L 84.755245 16.395321 L 85.594406 16.395321 L 86.433566 16.395321 L 87.272727 16.395321 L 88.111888 16.395321 L 88.951049 16.395321 L 89.790210 16.395321 L 90.629371 15.857098 L 91.468531 15.382611 L 92.307692 15.382611 L 93.146853 16.464369 L 93.986014 15.291432 L 94.825175 15.445463 L 95.664336 13.863547 L 96.503497 13.863547 L 97.342657 11.829276 L 98.181818 11.711540 L 99.020979 11.964717 L 99.860140 12.597660 L 100.699301 16.262536 L 101.538462 11.584951 L 102.377622 11.331774 L 103.216783 13.863547 L 104.055944 18.927095 L 104.895105 8.800000 L 105.734266 8.800000 L 106.573427 8.800000 L 107.412587 8.800000 L 108.251748 8.800000 L 109.090909 14.323870 L 109.930070 8.800000 L 110.769231 20.777237 L 111.608392 26.527727 L 112.447552 31.824976 L 113.286713 33.735315 L 114.125874 36.800000 L 114.965035 33.512235 L 115.804196 33.984951 L 116.643357 33.947771 L 117.482517 33.974328 L 118.321678 34.117736 L 119.160839 34.249636 L 120.000000 35.383623"></path>
      <path stroke="none" fill-opacity="0.6" fill="url(#color_grad)" d="M 0 40 L 0.000000 26.522415 L 0.839161 26.522415 L 1.678322 26.522415 L 2.517483 26.522415 L 3.356643 26.522415 L 4.195804 26.522415 L 5.034965 26.522415 L 5.874126 26.522415 L 6.713287 26.522415 L 7.552448 26.522415 L 8.391608 26.522415 L 9.230769 30.320076 L 10.069930 30.320076 L 10.909091 30.320076 L 11.748252 30.320076 L 12.587413 26.522415 L 13.426573 26.522415 L 14.265734 26.522415 L 15.104895 26.522415 L 15.944056 26.522415 L 16.783217 26.522415 L 17.622378 26.522415 L 18.461538 26.522415 L 19.300699 26.522415 L 20.139860 26.522415 L 20.979021 26.522415 L 21.818182 26.522415 L 22.657343 26.522415 L 23.496503 26.522415 L 24.335664 26.522415 L 25.174825 26.522415 L 26.013986 26.522415 L 26.853147 34.117736 L 27.692308 29.054189 L 28.531469 26.522415 L 29.370629 26.522415 L 30.209790 30.320076 L 31.048951 23.990642 L 31.888112 22.724755 L 32.727273 25.256529 L 33.566434 22.724755 L 34.405594 25.256529 L 35.244755 25.256529 L 36.083916 25.256529 L 36.923077 22.802656 L 37.762238 22.724755 L 38.601399 22.724755 L 39.440559 22.724755 L 40.279720 22.724755 L 41.118881 22.724755 L 41.958042 22.638002 L 42.797203 22.071451 L 43.636364 22.586658 L 44.475524 25.256529 L 45.314685 25.256529 L 46.153846 27.204047 L 46.993007 25.636295 L 47.832168 25.636295 L 48.671329 25.471641 L 49.510490 31.585963 L 50.349650 23.990642 L 51.188811 22.724755 L 52.027972 22.724755 L 52.867133 22.724755 L 53.706294 22.724755 L 54.545455 22.724755 L 55.384615 22.724755 L 56.223776 22.724755 L 57.062937 22.977932 L 57.902098 22.977932 L 58.741259 25.176857 L 59.580420 25.256529 L 60.419580 23.009801 L 61.258741 25.256529 L 62.097902 25.256529 L 62.937063 27.155359 L 63.776224 27.788302 L 64.615385 19.560038 L 65.454545 19.801707 L 66.293706 25.256529 L 67.132867 25.256529 L 67.972028 27.155359 L 68.811189 27.155359 L 69.650350 26.775593 L 70.489510 26.775593 L 71.328671 26.775593 L 72.167832 26.775593 L 73.006993 26.775593 L 73.846154 26.775593 L 74.685315 25.256529 L 75.524476 25.256529 L 76.363636 25.256529 L 77.202797 25.256529 L 78.041958 25.889472 L 78.881119 25.889472 L 79.720280 25.889472 L 80.559441 25.889472 L 81.398601 29.054189 L 82.237762 18.927095 L 83.076923 18.927095 L 83.916084 16.395321 L 84.755245 16.395321 L 85.594406 16.395321 L 86.433566 16.395321 L 87.272727 16.395321 L 88.111888 16.395321 L 88.951049 16.395321 L 89.790210 16.395321 L 90.629371 15.857098 L 91.468531 15.382611 L 92.307692 15.382611 L 93.146853 16.464369 L 93.986014 15.291432 L 94.825175 15.445463 L 95.664336 13.863547 L 96.503497 13.863547 L 97.342657 11.829276 L 98.181818 11.711540 L 99.020979 11.964717 L 99.860140 12.597660 L 100.699301 16.262536 L 101.538462 11.584951 L 102.377622 11.331774 L 103.216783 13.863547 L 104.055944 18.927095 L 104.895105 8.800000 L 105.734266 8.800000 L 106.573427 8.800000 L 107.412587 8.800000 L 108.251748 8.800000 L 109.090909 14.323870 L 109.930070 8.800000 L 110.769231 20.777237 L 111.608392 26.527727 L 112.447552 31.824976 L 113.286713 33.735315 L 114.125874 36.800000 L 114.965035 33.512235 L 115.804196 33.984951 L 116.643357 33.947771 L 117.482517 33.974328 L 118.321678 34.117736 L 119.160839 34.249636 L 120.000000 35.383623 L 120 40 Z"></path>
    </g>
  </svg>