<svg xmlns="http://www.w3.org/2000/svg" viewBox="0 0 120 40" width="120" height="40">
    <defs>
      <linearGradient id="color_grad" x1="0%" x2="0%" y1="0%" y2="100%">
        <stop offset="0%" style="stop-color:#16C784;stop-opacity:0.4;"></stop>
        <stop offset="100%" style="stop-color:#16C784;stop-opacity:0.0;"></stop>
      </linearGradient>
    </defs>
    <g>
      <path stroke="#16C784" stroke-width="2" stroke-linecap="round" stroke-linejoin="round" fill="none" d="M 0.000000 21.901339 L 0.839161 21.954526 L 1.678322 25.288224 L 2.517483 25.778586 L 3.356643 23.659912 L 4.195804 25.262639 L 5.034965 24.516320 L 5.874126 24.649978 L 6.713287 24.234779 L 7.552448 24.005150 L 8.391608 23.158827 L 9.230769 22.020453 L 10.069930 20.210073 L 10.909091 16.895697 L 11.748252 15.350829 L 12.587413 23.251507 L 13.426573 22.721122 L 14.265734 22.254328 L 15.104895 17.649660 L 15.944056 21.958348 L 16.783217 16.839538 L 17.622378 16.077932 L 18.461538 15.483213 L 19.300699 15.397965 L 20.139860 15.284796 L 20.979021 14.508858 L 21.818182 8.800000 L 22.657343 10.539888 L 23.496503 9.873297 L 24.335664 12.637542 L 25.174825 14.155870 L 26.013986 14.462678 L 26.853147 13.460191 L 27.692308 14.960047 L 28.531469 15.950325 L 29.370629 15.940028 L 30.209790 15.646384 L 31.048951 15.458159 L 31.888112 15.497757 L 32.727273 24.857525 L 33.566434 24.555282 L 34.405594 24.917506 L 35.244755 24.645413 L 36.083916 25.353407 L 36.923077 20.327170 L 37.762238 19.224678 L 38.601399 14.325941 L 39.440559 14.488263 L 40.279720 14.121367 L 41.118881 13.015160 L 41.958042 14.843269 L 42.797203 20.606694 L 43.636364 25.765634 L 44.475524 24.900626 L 45.314685 18.743340 L 46.153846 23.788474 L 46.993007 18.094053 L 47.832168 17.653269 L 48.671329 18.307014 L 49.510490 17.760917 L 50.349650 17.732784 L 51.188811 28.063297 L 52.027972 19.690729 L 52.867133 19.723958 L 53.706294 19.689137 L 54.545455 19.586903 L 55.384615 18.958530 L 56.223776 18.593864 L 57.062937 17.002178 L 57.902098 19.685633 L 58.741259 25.559892 L 59.580420 26.099619 L 60.419580 26.246123 L 61.258741 27.187461 L 62.097902 27.220265 L 62.937063 28.636359 L 63.776224 30.427417 L 64.615385 30.354908 L 65.454545 31.684905 L 66.293706 36.800000 L 67.132867 32.084499 L 67.972028 33.803048 L 68.811189 33.348463 L 69.650350 34.354666 L 70.489510 34.223768 L 71.328671 36.502640 L 72.167832 34.232473 L 73.006993 33.800394 L 73.846154 33.133060 L 74.685315 31.682782 L 75.524476 31.596897 L 76.363636 31.320558 L 77.202797 31.634266 L 78.041958 32.497787 L 78.881119 32.771685 L 79.720280 32.313278 L 80.559441 34.168458 L 81.398601 33.481378 L 82.237762 33.402181 L 83.076923 35.030705 L 83.916084 32.761387 L 84.755245 30.417119 L 85.594406 29.518459 L 86.433566 29.127570 L 87.272727 28.431997 L 88.111888 28.696977 L 88.951049 28.747617 L 89.790210 27.583445 L 90.629371 28.114785 L 91.468531 27.170793 L 92.307692 27.839507 L 93.146853 32.654376 L 93.986014 29.607422 L 94.825175 30.312444 L 95.664336 32.518489 L 96.503497 32.009973 L 97.342657 32.713296 L 98.181818 33.773005 L 99.020979 34.818594 L 99.860140 34.062190 L 100.699301 31.888418 L 101.538462 35.000343 L 102.377622 33.558345 L 103.216783 32.896001 L 104.055944 33.408232 L 104.895105 30.810237 L 105.734266 31.253569 L 106.573427 30.974894 L 107.412587 30.493768 L 108.251748 30.018906 L 109.090909 29.900429 L 109.930070 29.072472 L 110.769231 16.940604 L 111.608392 18.619767 L 112.447552 18.502458 L 113.286713 18.767120 L 114.125874 27.312944 L 114.965035 27.818594 L 115.804196 20.698312 L 116.643357 19.201959 L 117.482517 24.572374 L 118.321678 26.890526 L 119.160839 26.042504 L 120.000000 26.349418"></path>
      <path stroke="none" fill-opacity="0.6" fill="url(#color_grad)" d="M 0 40 L 0.000000 21.901339 L 0.839161 21.954526 L 1.678322 25.288224 L 2.517483 25.778586 L 3.356643 23.659912 L 4.195804 25.262639 L 5.034965 24.516320 L 5.874126 24.649978 L 6.713287 24.234779 L 7.552448 24.005150 L 8.391608 23.158827 L 9.230769 22.020453 L 10.069930 20.210073 L 10.909091 16.895697 L 11.748252 15.350829 L 12.587413 23.251507 L 13.426573 22.721122 L 14.265734 22.254328 L 15.104895 17.649660 L 15.944056 21.958348 L 16.783217 16.839538 L 17.622378 16.077932 L 18.461538 15.483213 L 19.300699 15.397965 L 20.139860 15.284796 L 20.979021 14.508858 L 21.818182 8.800000 L 22.657343 10.539888 L 23.496503 9.873297 L 24.335664 12.637542 L 25.174825 14.155870 L 26.013986 14.462678 L 26.853147 13.460191 L 27.692308 14.960047 L 28.531469 15.950325 L 29.370629 15.940028 L 30.209790 15.646384 L 31.048951 15.458159 L 31.888112 15.497757 L 32.727273 24.857525 L 33.566434 24.555282 L 34.405594 24.917506 L 35.244755 24.645413 L 36.083916 25.353407 L 36.923077 20.327170 L 37.762238 19.224678 L 38.601399 14.325941 L 39.440559 14.488263 L 40.279720 14.121367 L 41.118881 13.015160 L 41.958042 14.843269 L 42.797203 20.606694 L 43.636364 25.765634 L 44.475524 24.900626 L 45.314685 18.743340 L 46.153846 23.788474 L 46.993007 18.094053 L 47.832168 17.653269 L 48.671329 18.307014 L 49.510490 17.760917 L 50.349650 17.732784 L 51.188811 28.063297 L 52.027972 19.690729 L 52.867133 19.723958 L 53.706294 19.689137 L 54.545455 19.586903 L 55.384615 18.958530 L 56.223776 18.593864 L 57.062937 17.002178 L 57.902098 19.685633 L 58.741259 25.559892 L 59.580420 26.099619 L 60.419580 26.246123 L 61.258741 27.187461 L 62.097902 27.220265 L 62.937063 28.636359 L 63.776224 30.427417 L 64.615385 30.354908 L 65.454545 31.684905 L 66.293706 36.800000 L 67.132867 32.084499 L 67.972028 33.803048 L 68.811189 33.348463 L 69.650350 34.354666 L 70.489510 34.223768 L 71.328671 36.502640 L 72.167832 34.232473 L 73.006993 33.800394 L 73.846154 33.133060 L 74.685315 31.682782 L 75.524476 31.596897 L 76.363636 31.320558 L 77.202797 31.634266 L 78.041958 32.497787 L 78.881119 32.771685 L 79.720280 32.313278 L 80.559441 34.168458 L 81.398601 33.481378 L 82.237762 33.402181 L 83.076923 35.030705 L 83.916084 32.761387 L 84.755245 30.417119 L 85.594406 29.518459 L 86.433566 29.127570 L 87.272727 28.431997 L 88.111888 28.696977 L 88.951049 28.747617 L 89.790210 27.583445 L 90.629371 28.114785 L 91.468531 27.170793 L 92.307692 27.839507 L 93.146853 32.654376 L 93.986014 29.607422 L 94.825175 30.312444 L 95.664336 32.518489 L 96.503497 32.009973 L 97.342657 32.713296 L 98.181818 33.773005 L 99.020979 34.818594 L 99.860140 34.062190 L 100.699301 31.888418 L 101.538462 35.000343 L 102.377622 33.558345 L 103.216783 32.896001 L 104.055944 33.408232 L 104.895105 30.810237 L 105.734266 31.253569 L 106.573427 30.974894 L 107.412587 30.493768 L 108.251748 30.018906 L 109.090909 29.900429 L 109.930070 29.072472 L 110.769231 16.940604 L 111.608392 18.619767 L 112.447552 18.502458 L 113.286713 18.767120 L 114.125874 27.312944 L 114.965035 27.818594 L 115.804196 20.698312 L 116.643357 19.201959 L 117.482517 24.572374 L 118.321678 26.890526 L 119.160839 26.042504 L 120.000000 26.349418 L 120 40 Z"></path>
    </g>
  </svg>