<svg xmlns="http://www.w3.org/2000/svg" viewBox="0 0 120 40" width="120" height="40">
    <defs>
      <linearGradient id="color_grad" x1="0%" x2="0%" y1="0%" y2="100%">
        <stop offset="0%" style="stop-color:#EA3943;stop-opacity:0.4;"></stop>
        <stop offset="100%" style="stop-color:#EA3943;stop-opacity:0.0;"></stop>
      </linearGradient>
    </defs>
    <g>
      <path stroke="#EA3943" stroke-width="2" stroke-linecap="round" stroke-linejoin="round" fill="none" d="M 0.000000 19.846475 L 0.839161 19.877808 L 1.678322 20.878285 L 2.517483 21.221557 L 3.356643 21.063806 L 4.195804 22.177238 L 5.034965 21.655145 L 5.874126 25.486924 L 6.713287 25.205170 L 7.552448 21.811386 L 8.391608 21.040563 L 9.230769 19.441383 L 10.069930 19.178404 L 10.909091 19.202915 L 11.748252 20.259658 L 12.587413 22.449634 L 13.426573 26.131390 L 14.265734 25.836294 L 15.104895 23.217077 L 15.944056 22.653146 L 16.783217 21.028308 L 17.622378 18.329521 L 18.461538 18.752725 L 19.300699 13.462370 L 20.139860 13.381955 L 20.979021 12.828590 L 21.818182 8.800000 L 22.657343 10.030130 L 23.496503 9.554704 L 24.335664 12.272750 L 25.174825 9.369183 L 26.013986 9.598172 L 26.853147 10.217583 L 27.692308 12.522929 L 28.531469 13.229819 L 29.370629 16.057439 L 30.209790 15.512466 L 31.048951 15.373853 L 31.888112 15.407178 L 32.727273 15.277198 L 33.566434 15.045190 L 34.405594 15.322356 L 35.244755 15.117093 L 36.083916 15.645524 L 36.923077 15.909770 L 37.762238 14.263923 L 38.601399 14.019116 L 39.440559 14.706385 L 40.279720 14.454455 L 41.118881 22.397473 L 41.958042 23.551595 L 42.797203 25.205231 L 43.636364 27.301571 L 44.475524 26.733898 L 45.314685 28.901898 L 46.153846 28.888677 L 46.993007 25.606158 L 47.832168 25.324766 L 48.671329 25.743805 L 49.510490 25.399023 L 50.349650 25.383870 L 51.188811 25.462655 L 52.027972 24.998579 L 52.867133 25.019588 L 53.706294 24.997432 L 54.545455 24.929816 L 55.384615 24.526957 L 56.223776 24.293681 L 57.062937 23.265374 L 57.902098 23.310592 L 58.741259 25.525924 L 59.580420 12.350629 L 60.419580 15.397216 L 61.258741 15.727569 L 62.097902 15.744775 L 62.937063 19.704240 L 63.776224 21.015690 L 64.615385 20.970774 L 65.454545 21.037062 L 66.293706 22.423493 L 67.132867 22.234047 L 67.972028 29.050895 L 68.811189 28.735092 L 69.650350 29.432564 L 70.489510 29.338988 L 71.328671 29.189871 L 72.167832 29.346716 L 73.006993 29.041658 L 73.846154 28.584525 L 74.685315 27.599987 L 75.524476 27.540400 L 76.363636 27.353369 L 77.202797 24.735058 L 78.041958 25.345776 L 78.881119 25.206680 L 79.720280 24.860630 L 80.559441 26.181438 L 81.398601 25.940797 L 82.237762 28.406188 L 83.076923 29.954536 L 83.916084 25.176615 L 84.755245 26.037573 L 85.594406 25.410916 L 86.433566 25.233002 L 87.272727 24.951791 L 88.111888 25.138218 L 88.951049 25.173777 L 89.790210 24.374157 L 90.629371 24.732341 L 91.468531 24.083709 L 92.307692 26.701176 L 93.146853 25.397333 L 93.986014 25.917373 L 94.825175 26.407771 L 95.664336 27.918990 L 96.503497 27.575416 L 97.342657 28.285022 L 98.181818 29.011714 L 99.020979 29.728203 L 99.860140 29.213959 L 100.699301 27.139654 L 101.538462 30.138488 L 102.377622 29.148697 L 103.216783 28.703276 L 104.055944 29.052525 L 104.895105 27.869667 L 105.734266 28.767391 L 106.573427 28.577643 L 107.412587 28.852032 L 108.251748 28.536047 L 109.090909 29.047032 L 109.930070 28.802044 L 110.769231 29.089895 L 111.608392 30.339284 L 112.447552 34.221594 L 113.286713 34.978531 L 114.125874 35.280449 L 114.965035 36.800000 L 115.804196 35.772477 L 116.643357 34.291323 L 117.482517 34.912123 L 118.321678 34.682289 L 119.160839 34.822713 L 120.000000 35.006242"></path>
      <path stroke="none" fill-opacity="0.6" fill="url(#color_grad)" d="M 0 40 L 0.000000 19.846475 L 0.839161 19.877808 L 1.678322 20.878285 L 2.517483 21.221557 L 3.356643 21.063806 L 4.195804 22.177238 L 5.034965 21.655145 L 5.874126 25.486924 L 6.713287 25.205170 L 7.552448 21.811386 L 8.391608 21.040563 L 9.230769 19.441383 L 10.069930 19.178404 L 10.909091 19.202915 L 11.748252 20.259658 L 12.587413 22.449634 L 13.426573 26.131390 L 14.265734 25.836294 L 15.104895 23.217077 L 15.944056 22.653146 L 16.783217 21.028308 L 17.622378 18.329521 L 18.461538 18.752725 L 19.300699 13.462370 L 20.139860 13.381955 L 20.979021 12.828590 L 21.818182 8.800000 L 22.657343 10.030130 L 23.496503 9.554704 L 24.335664 12.272750 L 25.174825 9.369183 L 26.013986 9.598172 L 26.853147 10.217583 L 27.692308 12.522929 L 28.531469 13.229819 L 29.370629 16.057439 L 30.209790 15.512466 L 31.048951 15.373853 L 31.888112 15.407178 L 32.727273 15.277198 L 33.566434 15.045190 L 34.405594 15.322356 L 35.244755 15.117093 L 36.083916 15.645524 L 36.923077 15.909770 L 37.762238 14.263923 L 38.601399 14.019116 L 39.440559 14.706385 L 40.279720 14.454455 L 41.118881 22.397473 L 41.958042 23.551595 L 42.797203 25.205231 L 43.636364 27.301571 L 44.475524 26.733898 L 45.314685 28.901898 L 46.153846 28.888677 L 46.993007 25.606158 L 47.832168 25.324766 L 48.671329 25.743805 L 49.510490 25.399023 L 50.349650 25.383870 L 51.188811 25.462655 L 52.027972 24.998579 L 52.867133 25.019588 L 53.706294 24.997432 L 54.545455 24.929816 L 55.384615 24.526957 L 56.223776 24.293681 L 57.062937 23.265374 L 57.902098 23.310592 L 58.741259 25.525924 L 59.580420 12.350629 L 60.419580 15.397216 L 61.258741 15.727569 L 62.097902 15.744775 L 62.937063 19.704240 L 63.776224 21.015690 L 64.615385 20.970774 L 65.454545 21.037062 L 66.293706 22.423493 L 67.132867 22.234047 L 67.972028 29.050895 L 68.811189 28.735092 L 69.650350 29.432564 L 70.489510 29.338988 L 71.328671 29.189871 L 72.167832 29.346716 L 73.006993 29.041658 L 73.846154 28.584525 L 74.685315 27.599987 L 75.524476 27.540400 L 76.363636 27.353369 L 77.202797 24.735058 L 78.041958 25.345776 L 78.881119 25.206680 L 79.720280 24.860630 L 80.559441 26.181438 L 81.398601 25.940797 L 82.237762 28.406188 L 83.076923 29.954536 L 83.916084 25.176615 L 84.755245 26.037573 L 85.594406 25.410916 L 86.433566 25.233002 L 87.272727 24.951791 L 88.111888 25.138218 L 88.951049 25.173777 L 89.790210 24.374157 L 90.629371 24.732341 L 91.468531 24.083709 L 92.307692 26.701176 L 93.146853 25.397333 L 93.986014 25.917373 L 94.825175 26.407771 L 95.664336 27.918990 L 96.503497 27.575416 L 97.342657 28.285022 L 98.181818 29.011714 L 99.020979 29.728203 L 99.860140 29.213959 L 100.699301 27.139654 L 101.538462 30.138488 L 102.377622 29.148697 L 103.216783 28.703276 L 104.055944 29.052525 L 104.895105 27.869667 L 105.734266 28.767391 L 106.573427 28.577643 L 107.412587 28.852032 L 108.251748 28.536047 L 109.090909 29.047032 L 109.930070 28.802044 L 110.769231 29.089895 L 111.608392 30.339284 L 112.447552 34.221594 L 113.286713 34.978531 L 114.125874 35.280449 L 114.965035 36.800000 L 115.804196 35.772477 L 116.643357 34.291323 L 117.482517 34.912123 L 118.321678 34.682289 L 119.160839 34.822713 L 120.000000 35.006242 L 120 40 Z"></path>
    </g>
  </svg>