<svg xmlns="http://www.w3.org/2000/svg" viewBox="0 0 120 40" width="120" height="40">
    <defs>
      <linearGradient id="color_grad" x1="0%" x2="0%" y1="0%" y2="100%">
        <stop offset="0%" style="stop-color:#EA3943;stop-opacity:0.4;"></stop>
        <stop offset="100%" style="stop-color:#EA3943;stop-opacity:0.0;"></stop>
      </linearGradient>
    </defs>
    <g>
      <path stroke="#EA3943" stroke-width="2" stroke-linecap="round" stroke-linejoin="round" fill="none" d="M 0.000000 23.986441 L 0.839161 22.088136 L 1.678322 22.562712 L 2.517483 22.562712 L 3.356643 22.562712 L 4.195804 22.562712 L 5.034965 24.935593 L 5.874126 22.088136 L 6.713287 22.088136 L 7.552448 22.088136 L 8.391608 21.889013 L 9.230769 16.867797 L 10.069930 19.240678 L 10.909091 17.946379 L 11.748252 16.867797 L 12.587413 19.240678 L 13.426573 19.715254 L 14.265734 19.715254 L 15.104895 19.821453 L 15.944056 19.240678 L 16.783217 21.138983 L 17.622378 13.071186 L 18.461538 8.800000 L 19.300699 8.800000 L 20.139860 13.071186 L 20.979021 13.071186 L 21.818182 13.071186 L 22.657343 13.071186 L 23.496503 13.071186 L 24.335664 13.071186 L 25.174825 10.698305 L 26.013986 11.172881 L 26.853147 13.071186 L 27.692308 13.071186 L 28.531469 14.969492 L 29.370629 14.969492 L 30.209790 16.867797 L 31.048951 16.867797 L 31.888112 19.715254 L 32.727273 18.507242 L 33.566434 19.240678 L 34.405594 17.816949 L 35.244755 21.613559 L 36.083916 21.613559 L 36.923077 21.613559 L 37.762238 21.613559 L 38.601399 21.613559 L 39.440559 21.613559 L 40.279720 26.359322 L 41.118881 21.613559 L 41.958042 21.613559 L 42.797203 21.613559 L 43.636364 13.330046 L 44.475524 14.494915 L 45.314685 16.386583 L 46.153846 27.819557 L 46.993007 26.359322 L 47.832168 21.613559 L 48.671329 23.986441 L 49.510490 23.986441 L 50.349650 23.986441 L 51.188811 24.461017 L 52.027972 24.461017 L 52.867133 24.461017 L 53.706294 24.461017 L 54.545455 24.461017 L 55.384615 25.921252 L 56.223776 26.359322 L 57.062937 26.359322 L 57.902098 28.732203 L 58.741259 28.732203 L 59.580420 28.732203 L 60.419580 28.732203 L 61.258741 24.461017 L 62.097902 24.461017 L 62.937063 24.461017 L 63.776224 24.935593 L 64.615385 24.935593 L 65.454545 27.783051 L 66.293706 28.732203 L 67.132867 28.732203 L 67.972028 28.732203 L 68.811189 28.732203 L 69.650350 28.732203 L 70.489510 26.740974 L 71.328671 24.935593 L 72.167832 24.935593 L 73.006993 24.935593 L 73.846154 24.935593 L 74.685315 24.935593 L 75.524476 27.421311 L 76.363636 26.359322 L 77.202797 26.359322 L 78.041958 31.105085 L 78.881119 35.585350 L 79.720280 35.850847 L 80.559441 31.105085 L 81.398601 32.054237 L 82.237762 32.054237 L 83.076923 32.054237 L 83.916084 32.054237 L 84.755245 32.054237 L 85.594406 32.054237 L 86.433566 36.325424 L 87.272727 36.325424 L 88.111888 36.325424 L 88.951049 36.325424 L 89.790210 36.325424 L 90.629371 36.325424 L 91.468531 36.325424 L 92.307692 36.325424 L 93.146853 36.325424 L 93.986014 36.325424 L 94.825175 36.325424 L 95.664336 28.519806 L 96.503497 26.359322 L 97.342657 26.359322 L 98.181818 36.325424 L 99.020979 24.935593 L 99.860140 24.935593 L 100.699301 24.935593 L 101.538462 26.359322 L 102.377622 26.359322 L 103.216783 31.105085 L 104.055944 31.105085 L 104.895105 31.105085 L 105.734266 31.105085 L 106.573427 31.105085 L 107.412587 31.105085 L 108.251748 31.105085 L 109.090909 31.105085 L 109.930070 31.105085 L 110.769231 31.616167 L 111.608392 32.054237 L 112.447552 32.528814 L 113.286713 35.850847 L 114.125874 35.850847 L 114.965035 35.850847 L 115.804196 35.850847 L 116.643357 36.325424 L 117.482517 36.325424 L 118.321678 36.325424 L 119.160839 36.800000 L 120.000000 36.800000"></path>
      <path stroke="none" fill-opacity="0.6" fill="url(#color_grad)" d="M 0 40 L 0.000000 23.986441 L 0.839161 22.088136 L 1.678322 22.562712 L 2.517483 22.562712 L 3.356643 22.562712 L 4.195804 22.562712 L 5.034965 24.935593 L 5.874126 22.088136 L 6.713287 22.088136 L 7.552448 22.088136 L 8.391608 21.889013 L 9.230769 16.867797 L 10.069930 19.240678 L 10.909091 17.946379 L 11.748252 16.867797 L 12.587413 19.240678 L 13.426573 19.715254 L 14.265734 19.715254 L 15.104895 19.821453 L 15.944056 19.240678 L 16.783217 21.138983 L 17.622378 13.071186 L 18.461538 8.800000 L 19.300699 8.800000 L 20.139860 13.071186 L 20.979021 13.071186 L 21.818182 13.071186 L 22.657343 13.071186 L 23.496503 13.071186 L 24.335664 13.071186 L 25.174825 10.698305 L 26.013986 11.172881 L 26.853147 13.071186 L 27.692308 13.071186 L 28.531469 14.969492 L 29.370629 14.969492 L 30.209790 16.867797 L 31.048951 16.867797 L 31.888112 19.715254 L 32.727273 18.507242 L 33.566434 19.240678 L 34.405594 17.816949 L 35.244755 21.613559 L 36.083916 21.613559 L 36.923077 21.613559 L 37.762238 21.613559 L 38.601399 21.613559 L 39.440559 21.613559 L 40.279720 26.359322 L 41.118881 21.613559 L 41.958042 21.613559 L 42.797203 21.613559 L 43.636364 13.330046 L 44.475524 14.494915 L 45.314685 16.386583 L 46.153846 27.819557 L 46.993007 26.359322 L 47.832168 21.613559 L 48.671329 23.986441 L 49.510490 23.986441 L 50.349650 23.986441 L 51.188811 24.461017 L 52.027972 24.461017 L 52.867133 24.461017 L 53.706294 24.461017 L 54.545455 24.461017 L 55.384615 25.921252 L 56.223776 26.359322 L 57.062937 26.359322 L 57.902098 28.732203 L 58.741259 28.732203 L 59.580420 28.732203 L 60.419580 28.732203 L 61.258741 24.461017 L 62.097902 24.461017 L 62.937063 24.461017 L 63.776224 24.935593 L 64.615385 24.935593 L 65.454545 27.783051 L 66.293706 28.732203 L 67.132867 28.732203 L 67.972028 28.732203 L 68.811189 28.732203 L 69.650350 28.732203 L 70.489510 26.740974 L 71.328671 24.935593 L 72.167832 24.935593 L 73.006993 24.935593 L 73.846154 24.935593 L 74.685315 24.935593 L 75.524476 27.421311 L 76.363636 26.359322 L 77.202797 26.359322 L 78.041958 31.105085 L 78.881119 35.585350 L 79.720280 35.850847 L 80.559441 31.105085 L 81.398601 32.054237 L 82.237762 32.054237 L 83.076923 32.054237 L 83.916084 32.054237 L 84.755245 32.054237 L 85.594406 32.054237 L 86.433566 36.325424 L 87.272727 36.325424 L 88.111888 36.325424 L 88.951049 36.325424 L 89.790210 36.325424 L 90.629371 36.325424 L 91.468531 36.325424 L 92.307692 36.325424 L 93.146853 36.325424 L 93.986014 36.325424 L 94.825175 36.325424 L 95.664336 28.519806 L 96.503497 26.359322 L 97.342657 26.359322 L 98.181818 36.325424 L 99.020979 24.935593 L 99.860140 24.935593 L 100.699301 24.935593 L 101.538462 26.359322 L 102.377622 26.359322 L 103.216783 31.105085 L 104.055944 31.105085 L 104.895105 31.105085 L 105.734266 31.105085 L 106.573427 31.105085 L 107.412587 31.105085 L 108.251748 31.105085 L 109.090909 31.105085 L 109.930070 31.105085 L 110.769231 31.616167 L 111.608392 32.054237 L 112.447552 32.528814 L 113.286713 35.850847 L 114.125874 35.850847 L 114.965035 35.850847 L 115.804196 35.850847 L 116.643357 36.325424 L 117.482517 36.325424 L 118.321678 36.325424 L 119.160839 36.800000 L 120.000000 36.800000 L 120 40 Z"></path>
    </g>
  </svg>