<svg xmlns="http://www.w3.org/2000/svg" viewBox="0 0 120 40" width="120" height="40">
    <defs>
      <linearGradient id="color_grad" x1="0%" x2="0%" y1="0%" y2="100%">
        <stop offset="0%" style="stop-color:#888888;stop-opacity:0.4;"></stop>
        <stop offset="100%" style="stop-color:#888888;stop-opacity:0.0;"></stop>
      </linearGradient>
    </defs>
    <g>
      <path stroke="#888888" stroke-width="2" stroke-linecap="round" stroke-linejoin="round" fill="none" d="M 0.000000 28.628369 L 0.839161 26.776860 L 1.678322 28.461298 L 2.517483 28.866552 L 3.356643 28.682951 L 4.195804 30.021185 L 5.034965 31.694706 L 5.874126 29.055976 L 6.713287 28.698233 L 7.552448 28.499557 L 8.391608 27.996575 L 9.230769 22.106347 L 10.069930 24.117442 L 10.909091 22.873503 L 11.748252 22.104164 L 12.587413 25.487177 L 13.426573 25.496326 L 14.265734 25.110825 L 15.104895 25.326032 L 15.944056 24.390661 L 16.783217 25.581993 L 17.622378 16.921000 L 18.461538 12.129472 L 19.300699 12.061375 L 20.139860 16.231506 L 20.979021 15.546898 L 21.818182 10.562307 L 22.657343 12.092460 L 23.496503 11.497158 L 24.335664 11.683463 L 25.174825 8.800000 L 26.013986 9.579424 L 26.853147 11.834628 L 27.692308 11.997956 L 28.531469 14.846695 L 29.370629 14.834739 L 30.209790 16.095208 L 31.048951 15.925745 L 31.888112 18.908183 L 32.727273 17.494366 L 33.566434 17.975619 L 34.405594 16.834086 L 35.244755 20.518701 L 36.083916 21.168065 L 36.923077 21.144569 L 37.762238 20.189133 L 38.601399 19.886595 L 39.440559 20.016655 L 40.279720 24.682802 L 41.118881 18.783841 L 41.958042 20.317425 L 42.797203 21.398867 L 43.636364 13.008598 L 44.475524 13.368420 L 45.314685 14.314084 L 46.153846 26.240506 L 46.993007 24.192192 L 47.832168 18.818773 L 48.671329 21.877832 L 49.510490 21.408432 L 50.349650 21.387119 L 51.188811 22.004462 L 52.027972 21.373084 L 52.867133 21.411550 L 53.706294 21.371940 L 54.545455 21.292199 L 55.384615 22.295043 L 56.223776 22.454941 L 57.062937 21.099032 L 57.902098 23.721440 L 58.741259 24.288983 L 59.580420 24.770132 L 60.419580 24.888444 L 61.258741 20.735156 L 62.097902 20.754285 L 62.937063 22.051870 L 63.776224 24.192400 L 64.615385 24.132828 L 65.454545 27.174110 L 66.293706 29.832905 L 67.132867 29.610524 L 67.972028 31.128722 L 68.811189 30.716813 L 69.650350 31.620787 L 70.489510 29.490653 L 71.328671 27.478727 L 72.167832 27.689879 L 73.006993 27.287431 L 73.846154 26.678510 L 74.685315 25.354414 L 75.524476 27.829712 L 76.363636 26.488878 L 77.202797 26.769687 L 78.041958 32.389710 L 78.881119 36.800000 L 79.720280 36.669316 L 80.559441 33.403055 L 81.398601 33.740109 L 82.237762 33.272059 L 83.076923 31.644075 L 83.916084 29.638595 L 84.755245 30.713175 L 85.594406 29.926993 L 86.433566 34.099411 L 87.272727 33.525006 L 88.111888 33.738030 L 88.951049 33.786789 L 89.790210 32.823244 L 90.629371 33.254385 L 91.468531 32.476313 L 92.307692 33.040426 L 93.146853 34.054394 L 93.986014 31.453196 L 94.825175 32.060038 L 95.664336 25.680448 L 96.503497 22.924550 L 97.342657 23.098795 L 98.181818 34.561638 L 99.020979 23.587325 L 99.860140 22.875582 L 100.699301 20.806268 L 101.538462 25.252425 L 102.377622 23.885496 L 103.216783 28.292251 L 104.055944 28.761756 L 104.895105 26.403211 L 105.734266 26.817303 L 106.573427 26.557183 L 107.412587 26.126769 L 108.251748 25.704048 L 109.090909 25.595509 L 109.930070 24.850393 L 110.769231 24.561683 L 111.608392 25.548517 L 112.447552 25.974460 L 113.286713 28.976755 L 114.125874 28.972908 L 114.965035 29.405506 L 115.804196 27.571151 L 116.643357 25.873303 L 117.482517 27.155812 L 118.321678 28.213030 L 119.160839 28.939847 L 120.000000 29.193314"></path>
      <path stroke="none" fill-opacity="0.6" fill="url(#color_grad)" d="M 0 40 L 0.000000 28.628369 L 0.839161 26.776860 L 1.678322 28.461298 L 2.517483 28.866552 L 3.356643 28.682951 L 4.195804 30.021185 L 5.034965 31.694706 L 5.874126 29.055976 L 6.713287 28.698233 L 7.552448 28.499557 L 8.391608 27.996575 L 9.230769 22.106347 L 10.069930 24.117442 L 10.909091 22.873503 L 11.748252 22.104164 L 12.587413 25.487177 L 13.426573 25.496326 L 14.265734 25.110825 L 15.104895 25.326032 L 15.944056 24.390661 L 16.783217 25.581993 L 17.622378 16.921000 L 18.461538 12.129472 L 19.300699 12.061375 L 20.139860 16.231506 L 20.979021 15.546898 L 21.818182 10.562307 L 22.657343 12.092460 L 23.496503 11.497158 L 24.335664 11.683463 L 25.174825 8.800000 L 26.013986 9.579424 L 26.853147 11.834628 L 27.692308 11.997956 L 28.531469 14.846695 L 29.370629 14.834739 L 30.209790 16.095208 L 31.048951 15.925745 L 31.888112 18.908183 L 32.727273 17.494366 L 33.566434 17.975619 L 34.405594 16.834086 L 35.244755 20.518701 L 36.083916 21.168065 L 36.923077 21.144569 L 37.762238 20.189133 L 38.601399 19.886595 L 39.440559 20.016655 L 40.279720 24.682802 L 41.118881 18.783841 L 41.958042 20.317425 L 42.797203 21.398867 L 43.636364 13.008598 L 44.475524 13.368420 L 45.314685 14.314084 L 46.153846 26.240506 L 46.993007 24.192192 L 47.832168 18.818773 L 48.671329 21.877832 L 49.510490 21.408432 L 50.349650 21.387119 L 51.188811 22.004462 L 52.027972 21.373084 L 52.867133 21.411550 L 53.706294 21.371940 L 54.545455 21.292199 L 55.384615 22.295043 L 56.223776 22.454941 L 57.062937 21.099032 L 57.902098 23.721440 L 58.741259 24.288983 L 59.580420 24.770132 L 60.419580 24.888444 L 61.258741 20.735156 L 62.097902 20.754285 L 62.937063 22.051870 L 63.776224 24.192400 L 64.615385 24.132828 L 65.454545 27.174110 L 66.293706 29.832905 L 67.132867 29.610524 L 67.972028 31.128722 L 68.811189 30.716813 L 69.650350 31.620787 L 70.489510 29.490653 L 71.328671 27.478727 L 72.167832 27.689879 L 73.006993 27.287431 L 73.846154 26.678510 L 74.685315 25.354414 L 75.524476 27.829712 L 76.363636 26.488878 L 77.202797 26.769687 L 78.041958 32.389710 L 78.881119 36.800000 L 79.720280 36.669316 L 80.559441 33.403055 L 81.398601 33.740109 L 82.237762 33.272059 L 83.076923 31.644075 L 83.916084 29.638595 L 84.755245 30.713175 L 85.594406 29.926993 L 86.433566 34.099411 L 87.272727 33.525006 L 88.111888 33.738030 L 88.951049 33.786789 L 89.790210 32.823244 L 90.629371 33.254385 L 91.468531 32.476313 L 92.307692 33.040426 L 93.146853 34.054394 L 93.986014 31.453196 L 94.825175 32.060038 L 95.664336 25.680448 L 96.503497 22.924550 L 97.342657 23.098795 L 98.181818 34.561638 L 99.020979 23.587325 L 99.860140 22.875582 L 100.699301 20.806268 L 101.538462 25.252425 L 102.377622 23.885496 L 103.216783 28.292251 L 104.055944 28.761756 L 104.895105 26.403211 L 105.734266 26.817303 L 106.573427 26.557183 L 107.412587 26.126769 L 108.251748 25.704048 L 109.090909 25.595509 L 109.930070 24.850393 L 110.769231 24.561683 L 111.608392 25.548517 L 112.447552 25.974460 L 113.286713 28.976755 L 114.125874 28.972908 L 114.965035 29.405506 L 115.804196 27.571151 L 116.643357 25.873303 L 117.482517 27.155812 L 118.321678 28.213030 L 119.160839 28.939847 L 120.000000 29.193314 L 120 40 Z"></path>
    </g>
  </svg>