<svg xmlns="http://www.w3.org/2000/svg" viewBox="0 0 120 40" width="120" height="40">
    <defs>
      <linearGradient id="color_grad" x1="0%" x2="0%" y1="0%" y2="100%">
        <stop offset="0%" style="stop-color:#EA3943;stop-opacity:0.4;"></stop>
        <stop offset="100%" style="stop-color:#EA3943;stop-opacity:0.0;"></stop>
      </linearGradient>
    </defs>
    <g>
      <path stroke="#EA3943" stroke-width="2" stroke-linecap="round" stroke-linejoin="round" fill="none" d="M 0.000000 9.309091 L 0.839161 18.981818 L 1.678322 18.981818 L 2.517483 18.981818 L 3.356643 18.981818 L 4.195804 18.981818 L 5.034965 18.981818 L 5.874126 18.981818 L 6.713287 18.981818 L 7.552448 18.981818 L 8.391608 18.981818 L 9.230769 18.981818 L 10.069930 13.890909 L 10.909091 13.890909 L 11.748252 13.890909 L 12.587413 13.890909 L 13.426573 13.890909 L 14.265734 13.890909 L 15.104895 13.890909 L 15.944056 13.374698 L 16.783217 11.754863 L 17.622378 11.345455 L 18.461538 8.800000 L 19.300699 8.800000 L 20.139860 8.800000 L 20.979021 8.800000 L 21.818182 8.800000 L 22.657343 8.800000 L 23.496503 8.800000 L 24.335664 8.800000 L 25.174825 13.890909 L 26.013986 13.890909 L 26.853147 10.341513 L 27.692308 16.436364 L 28.531469 21.527273 L 29.370629 26.618182 L 30.209790 26.618182 L 31.048951 18.981818 L 31.888112 18.981818 L 32.727273 18.981818 L 33.566434 18.981818 L 34.405594 18.981818 L 35.244755 18.981818 L 36.083916 18.981818 L 36.923077 8.800000 L 37.762238 8.800000 L 38.601399 8.800000 L 39.440559 8.800000 L 40.279720 8.800000 L 41.118881 8.800000 L 41.958042 11.345455 L 42.797203 8.800000 L 43.636364 8.800000 L 44.475524 16.703369 L 45.314685 8.800000 L 46.153846 8.800000 L 46.993007 8.800000 L 47.832168 13.890909 L 48.671329 19.202543 L 49.510490 19.490909 L 50.349650 19.490909 L 51.188811 19.490909 L 52.027972 24.072727 L 52.867133 24.072727 L 53.706294 18.981818 L 54.545455 18.981818 L 55.384615 18.981818 L 56.223776 18.981818 L 57.062937 23.325111 L 57.902098 18.981818 L 58.741259 18.981818 L 59.580420 18.981818 L 60.419580 18.981818 L 61.258741 18.981818 L 62.097902 17.454545 L 62.937063 18.981818 L 63.776224 19.683153 L 64.615385 20.744056 L 65.454545 21.388430 L 66.293706 23.111507 L 67.132867 21.018182 L 67.972028 21.018182 L 68.811189 21.018182 L 69.650350 21.018182 L 70.489510 21.018182 L 71.328671 21.018182 L 72.167832 21.018182 L 73.006993 21.018182 L 73.846154 21.018182 L 74.685315 21.018182 L 75.524476 24.072727 L 76.363636 21.018182 L 77.202797 20.509091 L 78.041958 21.527273 L 78.881119 29.163636 L 79.720280 21.527273 L 80.559441 21.527273 L 81.398601 22.036364 L 82.237762 22.036364 L 83.076923 23.759441 L 83.916084 22.435092 L 84.755245 24.072727 L 85.594406 24.072727 L 86.433566 23.417673 L 87.272727 22.036364 L 88.111888 22.036364 L 88.951049 22.036364 L 89.790210 24.072727 L 90.629371 24.072727 L 91.468531 24.072727 L 92.307692 26.618182 L 93.146853 26.618182 L 93.986014 22.036364 L 94.825175 22.036364 L 95.664336 22.036364 L 96.503497 22.036364 L 97.342657 22.036364 L 98.181818 23.887603 L 99.020979 29.163636 L 99.860140 29.163636 L 100.699301 28.985633 L 101.538462 21.527273 L 102.377622 21.829879 L 103.216783 23.663318 L 104.055944 19.490909 L 104.895105 26.618182 L 105.734266 26.618182 L 106.573427 26.618182 L 107.412587 26.618182 L 108.251748 26.618182 L 109.090909 21.018182 L 109.930070 21.018182 L 110.769231 21.018182 L 111.608392 34.254545 L 112.447552 34.254545 L 113.286713 34.592753 L 114.125874 34.254545 L 114.965035 35.917101 L 115.804196 34.254545 L 116.643357 34.763636 L 117.482517 34.254545 L 118.321678 34.254545 L 119.160839 36.800000 L 120.000000 34.763636"></path>
      <path stroke="none" fill-opacity="0.6" fill="url(#color_grad)" d="M 0 40 L 0.000000 9.309091 L 0.839161 18.981818 L 1.678322 18.981818 L 2.517483 18.981818 L 3.356643 18.981818 L 4.195804 18.981818 L 5.034965 18.981818 L 5.874126 18.981818 L 6.713287 18.981818 L 7.552448 18.981818 L 8.391608 18.981818 L 9.230769 18.981818 L 10.069930 13.890909 L 10.909091 13.890909 L 11.748252 13.890909 L 12.587413 13.890909 L 13.426573 13.890909 L 14.265734 13.890909 L 15.104895 13.890909 L 15.944056 13.374698 L 16.783217 11.754863 L 17.622378 11.345455 L 18.461538 8.800000 L 19.300699 8.800000 L 20.139860 8.800000 L 20.979021 8.800000 L 21.818182 8.800000 L 22.657343 8.800000 L 23.496503 8.800000 L 24.335664 8.800000 L 25.174825 13.890909 L 26.013986 13.890909 L 26.853147 10.341513 L 27.692308 16.436364 L 28.531469 21.527273 L 29.370629 26.618182 L 30.209790 26.618182 L 31.048951 18.981818 L 31.888112 18.981818 L 32.727273 18.981818 L 33.566434 18.981818 L 34.405594 18.981818 L 35.244755 18.981818 L 36.083916 18.981818 L 36.923077 8.800000 L 37.762238 8.800000 L 38.601399 8.800000 L 39.440559 8.800000 L 40.279720 8.800000 L 41.118881 8.800000 L 41.958042 11.345455 L 42.797203 8.800000 L 43.636364 8.800000 L 44.475524 16.703369 L 45.314685 8.800000 L 46.153846 8.800000 L 46.993007 8.800000 L 47.832168 13.890909 L 48.671329 19.202543 L 49.510490 19.490909 L 50.349650 19.490909 L 51.188811 19.490909 L 52.027972 24.072727 L 52.867133 24.072727 L 53.706294 18.981818 L 54.545455 18.981818 L 55.384615 18.981818 L 56.223776 18.981818 L 57.062937 23.325111 L 57.902098 18.981818 L 58.741259 18.981818 L 59.580420 18.981818 L 60.419580 18.981818 L 61.258741 18.981818 L 62.097902 17.454545 L 62.937063 18.981818 L 63.776224 19.683153 L 64.615385 20.744056 L 65.454545 21.388430 L 66.293706 23.111507 L 67.132867 21.018182 L 67.972028 21.018182 L 68.811189 21.018182 L 69.650350 21.018182 L 70.489510 21.018182 L 71.328671 21.018182 L 72.167832 21.018182 L 73.006993 21.018182 L 73.846154 21.018182 L 74.685315 21.018182 L 75.524476 24.072727 L 76.363636 21.018182 L 77.202797 20.509091 L 78.041958 21.527273 L 78.881119 29.163636 L 79.720280 21.527273 L 80.559441 21.527273 L 81.398601 22.036364 L 82.237762 22.036364 L 83.076923 23.759441 L 83.916084 22.435092 L 84.755245 24.072727 L 85.594406 24.072727 L 86.433566 23.417673 L 87.272727 22.036364 L 88.111888 22.036364 L 88.951049 22.036364 L 89.790210 24.072727 L 90.629371 24.072727 L 91.468531 24.072727 L 92.307692 26.618182 L 93.146853 26.618182 L 93.986014 22.036364 L 94.825175 22.036364 L 95.664336 22.036364 L 96.503497 22.036364 L 97.342657 22.036364 L 98.181818 23.887603 L 99.020979 29.163636 L 99.860140 29.163636 L 100.699301 28.985633 L 101.538462 21.527273 L 102.377622 21.829879 L 103.216783 23.663318 L 104.055944 19.490909 L 104.895105 26.618182 L 105.734266 26.618182 L 106.573427 26.618182 L 107.412587 26.618182 L 108.251748 26.618182 L 109.090909 21.018182 L 109.930070 21.018182 L 110.769231 21.018182 L 111.608392 34.254545 L 112.447552 34.254545 L 113.286713 34.592753 L 114.125874 34.254545 L 114.965035 35.917101 L 115.804196 34.254545 L 116.643357 34.763636 L 117.482517 34.254545 L 118.321678 34.254545 L 119.160839 36.800000 L 120.000000 34.763636 L 120 40 Z"></path>
    </g>
  </svg>