<svg xmlns="http://www.w3.org/2000/svg" viewBox="0 0 120 40" width="120" height="40">
    <defs>
      <linearGradient id="color_grad" x1="0%" x2="0%" y1="0%" y2="100%">
        <stop offset="0%" style="stop-color:#EA3943;stop-opacity:0.4;"></stop>
        <stop offset="100%" style="stop-color:#EA3943;stop-opacity:0.0;"></stop>
      </linearGradient>
    </defs>
    <g>
      <path stroke="#EA3943" stroke-width="2" stroke-linecap="round" stroke-linejoin="round" fill="none" d="M 0.000000 20.244828 L 0.839161 30.652198 L 1.678322 32.305356 L 2.517483 32.868547 L 3.356643 32.612298 L 4.195804 34.452501 L 5.034965 33.592651 L 5.874126 33.745699 L 6.713287 33.267440 L 7.552448 33.005746 L 8.391608 32.577575 L 9.230769 31.280238 L 10.069930 25.402236 L 10.909091 25.439862 L 11.748252 25.849038 L 12.587413 27.291680 L 13.426573 26.663519 L 14.265734 26.126581 L 15.104895 26.299108 L 15.944056 25.222571 L 16.783217 22.531108 L 17.622378 21.203403 L 18.461538 17.757469 L 19.300699 17.660317 L 20.139860 17.531466 L 20.979021 16.596000 L 21.818182 9.848468 L 22.657343 11.913948 L 23.496503 11.121971 L 24.335664 11.362129 L 25.174825 16.560672 L 26.013986 16.940448 L 26.853147 13.307227 L 27.692308 20.368597 L 28.531469 27.199851 L 29.370629 32.869878 L 30.209790 32.018013 L 31.048951 23.221093 L 31.888112 23.275779 L 32.727273 23.060181 L 33.566434 22.681131 L 34.405594 23.128539 L 35.244755 22.792075 L 36.083916 23.673824 L 36.923077 12.222463 L 37.762238 10.831482 L 38.601399 10.400529 L 39.440559 10.585517 L 40.279720 10.149603 L 41.118881 8.800000 L 41.958042 13.898366 L 42.797203 12.592923 L 43.636364 12.797511 L 44.475524 20.550198 L 45.314685 10.221469 L 46.153846 10.199570 L 46.993007 9.399850 L 47.832168 14.659613 L 48.671329 21.507442 L 49.510490 21.191909 L 50.349650 21.160574 L 51.188811 21.321244 L 52.027972 25.701314 L 52.867133 25.750313 L 53.706294 19.863600 L 54.545455 19.739952 L 55.384615 18.984513 L 56.223776 18.534323 L 57.062937 21.713966 L 57.902098 16.718075 L 58.741259 17.527353 L 59.580420 18.231131 L 60.419580 18.403052 L 61.258741 18.972414 L 62.097902 17.244366 L 62.937063 20.814674 L 63.776224 23.896802 L 64.615385 24.998625 L 65.454545 25.848796 L 66.293706 30.142482 L 67.132867 27.502438 L 67.972028 29.663134 L 68.811189 29.095950 L 69.650350 30.371993 L 70.489510 30.194990 L 71.328671 29.932934 L 72.167832 30.211081 L 73.006993 29.658416 L 73.846154 28.823489 L 74.685315 26.989577 L 75.524476 30.286940 L 76.363636 26.542411 L 77.202797 26.356576 L 78.041958 28.583936 L 78.881119 36.800000 L 79.720280 27.733038 L 80.559441 30.070737 L 81.398601 29.713223 L 82.237762 29.032190 L 83.076923 28.581274 L 83.916084 24.165634 L 84.755245 27.574546 L 85.594406 26.453607 L 86.433566 25.202850 L 87.272727 22.751908 L 88.111888 23.088976 L 88.951049 23.152736 L 89.790210 24.048640 L 90.629371 24.697248 L 91.468531 23.514001 L 92.307692 27.312974 L 93.146853 28.808365 L 93.986014 19.591018 L 94.825175 20.513539 L 95.664336 23.384909 L 96.503497 22.731703 L 97.342657 22.966780 L 98.181818 26.457479 L 99.020979 33.770380 L 99.860140 32.840963 L 100.699301 29.949025 L 101.538462 25.372594 L 102.377622 23.836430 L 103.216783 25.069886 L 104.055944 20.977764 L 104.895105 25.826051 L 105.734266 26.394929 L 106.573427 26.046851 L 107.412587 25.433087 L 108.251748 24.838923 L 109.090909 18.104216 L 109.930070 17.006990 L 110.769231 15.775833 L 111.608392 32.241717 L 112.447552 32.104518 L 113.286713 31.635333 L 114.125874 31.221802 L 114.965035 33.810184 L 115.804196 29.281301 L 116.643357 26.805194 L 117.482517 27.970898 L 118.321678 29.439914 L 119.160839 32.784341 L 120.000000 30.694664"></path>
      <path stroke="none" fill-opacity="0.6" fill="url(#color_grad)" d="M 0 40 L 0.000000 20.244828 L 0.839161 30.652198 L 1.678322 32.305356 L 2.517483 32.868547 L 3.356643 32.612298 L 4.195804 34.452501 L 5.034965 33.592651 L 5.874126 33.745699 L 6.713287 33.267440 L 7.552448 33.005746 L 8.391608 32.577575 L 9.230769 31.280238 L 10.069930 25.402236 L 10.909091 25.439862 L 11.748252 25.849038 L 12.587413 27.291680 L 13.426573 26.663519 L 14.265734 26.126581 L 15.104895 26.299108 L 15.944056 25.222571 L 16.783217 22.531108 L 17.622378 21.203403 L 18.461538 17.757469 L 19.300699 17.660317 L 20.139860 17.531466 L 20.979021 16.596000 L 21.818182 9.848468 L 22.657343 11.913948 L 23.496503 11.121971 L 24.335664 11.362129 L 25.174825 16.560672 L 26.013986 16.940448 L 26.853147 13.307227 L 27.692308 20.368597 L 28.531469 27.199851 L 29.370629 32.869878 L 30.209790 32.018013 L 31.048951 23.221093 L 31.888112 23.275779 L 32.727273 23.060181 L 33.566434 22.681131 L 34.405594 23.128539 L 35.244755 22.792075 L 36.083916 23.673824 L 36.923077 12.222463 L 37.762238 10.831482 L 38.601399 10.400529 L 39.440559 10.585517 L 40.279720 10.149603 L 41.118881 8.800000 L 41.958042 13.898366 L 42.797203 12.592923 L 43.636364 12.797511 L 44.475524 20.550198 L 45.314685 10.221469 L 46.153846 10.199570 L 46.993007 9.399850 L 47.832168 14.659613 L 48.671329 21.507442 L 49.510490 21.191909 L 50.349650 21.160574 L 51.188811 21.321244 L 52.027972 25.701314 L 52.867133 25.750313 L 53.706294 19.863600 L 54.545455 19.739952 L 55.384615 18.984513 L 56.223776 18.534323 L 57.062937 21.713966 L 57.902098 16.718075 L 58.741259 17.527353 L 59.580420 18.231131 L 60.419580 18.403052 L 61.258741 18.972414 L 62.097902 17.244366 L 62.937063 20.814674 L 63.776224 23.896802 L 64.615385 24.998625 L 65.454545 25.848796 L 66.293706 30.142482 L 67.132867 27.502438 L 67.972028 29.663134 L 68.811189 29.095950 L 69.650350 30.371993 L 70.489510 30.194990 L 71.328671 29.932934 L 72.167832 30.211081 L 73.006993 29.658416 L 73.846154 28.823489 L 74.685315 26.989577 L 75.524476 30.286940 L 76.363636 26.542411 L 77.202797 26.356576 L 78.041958 28.583936 L 78.881119 36.800000 L 79.720280 27.733038 L 80.559441 30.070737 L 81.398601 29.713223 L 82.237762 29.032190 L 83.076923 28.581274 L 83.916084 24.165634 L 84.755245 27.574546 L 85.594406 26.453607 L 86.433566 25.202850 L 87.272727 22.751908 L 88.111888 23.088976 L 88.951049 23.152736 L 89.790210 24.048640 L 90.629371 24.697248 L 91.468531 23.514001 L 92.307692 27.312974 L 93.146853 28.808365 L 93.986014 19.591018 L 94.825175 20.513539 L 95.664336 23.384909 L 96.503497 22.731703 L 97.342657 22.966780 L 98.181818 26.457479 L 99.020979 33.770380 L 99.860140 32.840963 L 100.699301 29.949025 L 101.538462 25.372594 L 102.377622 23.836430 L 103.216783 25.069886 L 104.055944 20.977764 L 104.895105 25.826051 L 105.734266 26.394929 L 106.573427 26.046851 L 107.412587 25.433087 L 108.251748 24.838923 L 109.090909 18.104216 L 109.930070 17.006990 L 110.769231 15.775833 L 111.608392 32.241717 L 112.447552 32.104518 L 113.286713 31.635333 L 114.125874 31.221802 L 114.965035 33.810184 L 115.804196 29.281301 L 116.643357 26.805194 L 117.482517 27.970898 L 118.321678 29.439914 L 119.160839 32.784341 L 120.000000 30.694664 L 120 40 Z"></path>
    </g>
  </svg>