<svg xmlns="http://www.w3.org/2000/svg" viewBox="0 0 120 40" width="120" height="40">
    <defs>
      <linearGradient id="color_grad" x1="0%" x2="0%" y1="0%" y2="100%">
        <stop offset="0%" style="stop-color:#888888;stop-opacity:0.4;"></stop>
        <stop offset="100%" style="stop-color:#888888;stop-opacity:0.0;"></stop>
      </linearGradient>
    </defs>
    <g>
      <path stroke="#888888" stroke-width="2" stroke-linecap="round" stroke-linejoin="round" fill="none" d="M 0.000000 21.445407 L 0.839161 21.473367 L 1.678322 22.431873 L 2.517483 24.523872 L 3.356643 24.372236 L 4.195804 25.565145 L 5.034965 25.639652 L 5.874126 25.724962 L 6.713287 25.451637 L 7.552448 25.299843 L 8.391608 25.063294 L 9.230769 24.333156 L 10.069930 24.087234 L 10.909091 27.692730 L 11.748252 24.337048 L 12.587413 25.122392 L 13.426573 24.777260 L 14.265734 24.485983 L 15.104895 24.574152 L 15.944056 22.512655 L 16.783217 21.982129 L 17.622378 20.779847 L 18.461538 20.402148 L 19.300699 20.350994 L 20.139860 20.277043 L 20.979021 19.776224 L 21.818182 16.126406 L 22.657343 17.241233 L 23.496503 23.223333 L 24.335664 23.340971 L 25.174825 23.061133 L 26.013986 23.256059 L 26.853147 23.449078 L 27.692308 24.999828 L 28.531469 24.171512 L 29.370629 24.160947 L 30.209790 24.052126 L 31.048951 23.934487 L 31.888112 25.330742 L 32.727273 8.800000 L 33.566434 9.315831 L 34.405594 12.980027 L 35.244755 10.140652 L 36.083916 10.681743 L 36.923077 10.671178 L 37.762238 15.521373 L 38.601399 15.288955 L 39.440559 15.388324 L 40.279720 15.147884 L 41.118881 14.411708 L 41.958042 15.629479 L 42.797203 16.489807 L 43.636364 20.336378 L 44.475524 21.608322 L 45.314685 22.772556 L 46.153846 24.655570 L 46.993007 26.170178 L 47.832168 25.513832 L 48.671329 26.082565 L 49.510490 26.345723 L 50.349650 25.948563 L 51.188811 30.227245 L 52.027972 29.796247 L 52.867133 25.984069 L 53.706294 25.957380 L 54.545455 25.892881 L 55.384615 25.507478 L 56.223776 25.284036 L 57.062937 24.301065 L 57.902098 25.907576 L 58.741259 26.320384 L 59.580420 28.577284 L 60.419580 28.696829 L 61.258741 28.974285 L 62.097902 28.989377 L 62.937063 29.877585 L 63.776224 31.007346 L 64.615385 30.965803 L 65.454545 31.022914 L 66.293706 32.228691 L 67.132867 32.062520 L 67.972028 36.800000 L 68.811189 36.528899 L 69.650350 33.494360 L 70.489510 33.409765 L 71.328671 33.279020 L 72.167832 33.418582 L 73.006993 33.139299 L 73.846154 33.230567 L 74.685315 35.530121 L 75.524476 35.474678 L 76.363636 35.309301 L 77.202797 35.495966 L 78.041958 36.018707 L 78.881119 35.903849 L 79.720280 35.608362 L 80.559441 36.725731 L 81.398601 32.609170 L 82.237762 32.261656 L 83.076923 31.062789 L 83.916084 29.582178 L 84.755245 30.373320 L 85.594406 29.794896 L 86.433566 29.544209 L 87.272727 29.105348 L 88.111888 29.274856 L 88.951049 28.924243 L 89.790210 28.177424 L 90.629371 32.754531 L 91.468531 28.690316 L 92.307692 29.121314 L 93.146853 29.896013 L 93.986014 27.116928 L 94.825175 31.885069 L 95.664336 33.261148 L 96.503497 32.943817 L 97.342657 33.054784 L 98.181818 32.678197 L 99.020979 34.279624 L 99.860140 33.906453 L 100.699301 32.541733 L 101.538462 34.488769 L 102.377622 33.579035 L 103.216783 28.946643 L 104.055944 26.999527 L 104.895105 25.223032 L 105.734266 23.582921 L 106.573427 23.391808 L 107.412587 23.055334 L 108.251748 22.725691 L 109.090909 21.399972 L 109.930070 19.297170 L 110.769231 18.625811 L 111.608392 26.175421 L 112.447552 26.505620 L 113.286713 26.016557 L 114.125874 26.013618 L 114.965035 26.344134 L 115.804196 27.770970 L 116.643357 27.151957 L 117.482517 28.298478 L 118.321678 29.069762 L 119.160839 29.214726 L 120.000000 29.407904"></path>
      <path stroke="none" fill-opacity="0.6" fill="url(#color_grad)" d="M 0 40 L 0.000000 21.445407 L 0.839161 21.473367 L 1.678322 22.431873 L 2.517483 24.523872 L 3.356643 24.372236 L 4.195804 25.565145 L 5.034965 25.639652 L 5.874126 25.724962 L 6.713287 25.451637 L 7.552448 25.299843 L 8.391608 25.063294 L 9.230769 24.333156 L 10.069930 24.087234 L 10.909091 27.692730 L 11.748252 24.337048 L 12.587413 25.122392 L 13.426573 24.777260 L 14.265734 24.485983 L 15.104895 24.574152 L 15.944056 22.512655 L 16.783217 21.982129 L 17.622378 20.779847 L 18.461538 20.402148 L 19.300699 20.350994 L 20.139860 20.277043 L 20.979021 19.776224 L 21.818182 16.126406 L 22.657343 17.241233 L 23.496503 23.223333 L 24.335664 23.340971 L 25.174825 23.061133 L 26.013986 23.256059 L 26.853147 23.449078 L 27.692308 24.999828 L 28.531469 24.171512 L 29.370629 24.160947 L 30.209790 24.052126 L 31.048951 23.934487 L 31.888112 25.330742 L 32.727273 8.800000 L 33.566434 9.315831 L 34.405594 12.980027 L 35.244755 10.140652 L 36.083916 10.681743 L 36.923077 10.671178 L 37.762238 15.521373 L 38.601399 15.288955 L 39.440559 15.388324 L 40.279720 15.147884 L 41.118881 14.411708 L 41.958042 15.629479 L 42.797203 16.489807 L 43.636364 20.336378 L 44.475524 21.608322 L 45.314685 22.772556 L 46.153846 24.655570 L 46.993007 26.170178 L 47.832168 25.513832 L 48.671329 26.082565 L 49.510490 26.345723 L 50.349650 25.948563 L 51.188811 30.227245 L 52.027972 29.796247 L 52.867133 25.984069 L 53.706294 25.957380 L 54.545455 25.892881 L 55.384615 25.507478 L 56.223776 25.284036 L 57.062937 24.301065 L 57.902098 25.907576 L 58.741259 26.320384 L 59.580420 28.577284 L 60.419580 28.696829 L 61.258741 28.974285 L 62.097902 28.989377 L 62.937063 29.877585 L 63.776224 31.007346 L 64.615385 30.965803 L 65.454545 31.022914 L 66.293706 32.228691 L 67.132867 32.062520 L 67.972028 36.800000 L 68.811189 36.528899 L 69.650350 33.494360 L 70.489510 33.409765 L 71.328671 33.279020 L 72.167832 33.418582 L 73.006993 33.139299 L 73.846154 33.230567 L 74.685315 35.530121 L 75.524476 35.474678 L 76.363636 35.309301 L 77.202797 35.495966 L 78.041958 36.018707 L 78.881119 35.903849 L 79.720280 35.608362 L 80.559441 36.725731 L 81.398601 32.609170 L 82.237762 32.261656 L 83.076923 31.062789 L 83.916084 29.582178 L 84.755245 30.373320 L 85.594406 29.794896 L 86.433566 29.544209 L 87.272727 29.105348 L 88.111888 29.274856 L 88.951049 28.924243 L 89.790210 28.177424 L 90.629371 32.754531 L 91.468531 28.690316 L 92.307692 29.121314 L 93.146853 29.896013 L 93.986014 27.116928 L 94.825175 31.885069 L 95.664336 33.261148 L 96.503497 32.943817 L 97.342657 33.054784 L 98.181818 32.678197 L 99.020979 34.279624 L 99.860140 33.906453 L 100.699301 32.541733 L 101.538462 34.488769 L 102.377622 33.579035 L 103.216783 28.946643 L 104.055944 26.999527 L 104.895105 25.223032 L 105.734266 23.582921 L 106.573427 23.391808 L 107.412587 23.055334 L 108.251748 22.725691 L 109.090909 21.399972 L 109.930070 19.297170 L 110.769231 18.625811 L 111.608392 26.175421 L 112.447552 26.505620 L 113.286713 26.016557 L 114.125874 26.013618 L 114.965035 26.344134 L 115.804196 27.770970 L 116.643357 27.151957 L 117.482517 28.298478 L 118.321678 29.069762 L 119.160839 29.214726 L 120.000000 29.407904 L 120 40 Z"></path>
    </g>
  </svg>