<svg xmlns="http://www.w3.org/2000/svg" viewBox="0 0 120 40" width="120" height="40">
    <defs>
      <linearGradient id="color_grad" x1="0%" x2="0%" y1="0%" y2="100%">
        <stop offset="0%" style="stop-color:#EA3943;stop-opacity:0.4;"></stop>
        <stop offset="100%" style="stop-color:#EA3943;stop-opacity:0.0;"></stop>
      </linearGradient>
    </defs>
    <g>
      <path stroke="#EA3943" stroke-width="2" stroke-linecap="round" stroke-linejoin="round" fill="none" d="M 0.000000 17.727536 L 0.839161 17.727536 L 1.678322 17.727536 L 2.517483 19.756522 L 3.356643 19.756522 L 4.195804 19.926786 L 5.034965 20.568116 L 5.874126 20.568116 L 6.713287 20.568116 L 7.552448 20.568116 L 8.391608 20.568116 L 9.230769 20.568116 L 10.069930 20.568116 L 10.909091 24.626087 L 11.748252 20.568116 L 12.587413 20.568116 L 13.426573 20.568116 L 14.265734 20.568116 L 15.104895 20.568116 L 15.944056 18.539130 L 16.783217 18.539130 L 17.622378 17.727536 L 18.461538 17.727536 L 19.300699 17.727536 L 20.139860 17.727536 L 20.979021 17.727536 L 21.818182 17.727536 L 22.657343 17.727536 L 23.496503 24.626087 L 24.335664 24.626087 L 25.174825 24.626087 L 26.013986 24.626087 L 26.853147 24.626087 L 27.692308 26.186845 L 28.531469 24.626087 L 29.370629 24.626087 L 30.209790 25.031884 L 31.048951 25.031884 L 31.888112 26.513185 L 32.727273 8.800000 L 33.566434 9.611594 L 34.405594 13.260930 L 35.244755 10.423188 L 36.083916 10.423188 L 36.923077 10.423188 L 37.762238 16.510145 L 38.601399 16.510145 L 39.440559 16.510145 L 40.279720 16.510145 L 41.118881 16.510145 L 41.958042 16.510145 L 42.797203 16.510145 L 43.636364 20.568116 L 44.475524 22.597101 L 45.314685 24.626087 L 46.153846 26.655072 L 46.993007 28.684058 L 47.832168 28.278261 L 48.671329 28.454201 L 49.510490 29.089855 L 50.349650 28.684058 L 51.188811 33.147826 L 52.027972 33.147826 L 52.867133 29.089855 L 53.706294 29.089855 L 54.545455 29.089855 L 55.384615 29.089855 L 56.223776 29.089855 L 57.062937 29.089855 L 57.902098 30.713043 L 58.741259 30.713043 L 59.580420 32.699463 L 60.419580 32.742029 L 61.258741 32.742029 L 62.097902 32.742029 L 62.937063 32.742029 L 63.776224 32.742029 L 64.615385 32.742029 L 65.454545 32.742029 L 66.293706 32.742029 L 67.132867 32.742029 L 67.972028 36.800000 L 68.811189 36.800000 L 69.650350 32.742029 L 70.489510 32.742029 L 71.328671 32.742029 L 72.167832 32.742029 L 73.006993 32.742029 L 73.846154 33.303902 L 74.685315 36.800000 L 75.524476 36.800000 L 76.363636 36.800000 L 77.202797 36.800000 L 78.041958 36.800000 L 78.881119 36.800000 L 79.720280 36.800000 L 80.559441 36.800000 L 81.398601 32.742029 L 82.237762 32.742029 L 83.076923 32.742029 L 83.916084 32.742029 L 84.755245 32.742029 L 85.594406 32.742029 L 86.433566 32.742029 L 87.272727 32.742029 L 88.111888 32.742029 L 88.951049 32.336232 L 89.790210 32.336232 L 90.629371 36.800000 L 91.468531 33.147826 L 92.307692 33.147826 L 93.146853 33.147826 L 93.986014 32.336232 L 94.825175 36.800000 L 95.664336 36.800000 L 96.503497 36.800000 L 97.342657 36.800000 L 98.181818 35.693281 L 99.020979 36.700679 L 99.860140 36.800000 L 100.699301 36.800000 L 101.538462 36.800000 L 102.377622 36.800000 L 103.216783 32.336232 L 104.055944 29.901449 L 104.895105 29.901449 L 105.734266 27.872464 L 106.573427 27.872464 L 107.412587 27.872464 L 108.251748 27.872464 L 109.090909 26.581291 L 109.930070 25.031884 L 110.769231 25.031884 L 111.608392 32.336232 L 112.447552 32.742029 L 113.286713 32.742029 L 114.125874 32.742029 L 114.965035 32.742029 L 115.804196 35.582609 L 116.643357 36.595683 L 117.482517 36.800000 L 118.321678 36.800000 L 119.160839 36.800000 L 120.000000 36.800000"></path>
      <path stroke="none" fill-opacity="0.6" fill="url(#color_grad)" d="M 0 40 L 0.000000 17.727536 L 0.839161 17.727536 L 1.678322 17.727536 L 2.517483 19.756522 L 3.356643 19.756522 L 4.195804 19.926786 L 5.034965 20.568116 L 5.874126 20.568116 L 6.713287 20.568116 L 7.552448 20.568116 L 8.391608 20.568116 L 9.230769 20.568116 L 10.069930 20.568116 L 10.909091 24.626087 L 11.748252 20.568116 L 12.587413 20.568116 L 13.426573 20.568116 L 14.265734 20.568116 L 15.104895 20.568116 L 15.944056 18.539130 L 16.783217 18.539130 L 17.622378 17.727536 L 18.461538 17.727536 L 19.300699 17.727536 L 20.139860 17.727536 L 20.979021 17.727536 L 21.818182 17.727536 L 22.657343 17.727536 L 23.496503 24.626087 L 24.335664 24.626087 L 25.174825 24.626087 L 26.013986 24.626087 L 26.853147 24.626087 L 27.692308 26.186845 L 28.531469 24.626087 L 29.370629 24.626087 L 30.209790 25.031884 L 31.048951 25.031884 L 31.888112 26.513185 L 32.727273 8.800000 L 33.566434 9.611594 L 34.405594 13.260930 L 35.244755 10.423188 L 36.083916 10.423188 L 36.923077 10.423188 L 37.762238 16.510145 L 38.601399 16.510145 L 39.440559 16.510145 L 40.279720 16.510145 L 41.118881 16.510145 L 41.958042 16.510145 L 42.797203 16.510145 L 43.636364 20.568116 L 44.475524 22.597101 L 45.314685 24.626087 L 46.153846 26.655072 L 46.993007 28.684058 L 47.832168 28.278261 L 48.671329 28.454201 L 49.510490 29.089855 L 50.349650 28.684058 L 51.188811 33.147826 L 52.027972 33.147826 L 52.867133 29.089855 L 53.706294 29.089855 L 54.545455 29.089855 L 55.384615 29.089855 L 56.223776 29.089855 L 57.062937 29.089855 L 57.902098 30.713043 L 58.741259 30.713043 L 59.580420 32.699463 L 60.419580 32.742029 L 61.258741 32.742029 L 62.097902 32.742029 L 62.937063 32.742029 L 63.776224 32.742029 L 64.615385 32.742029 L 65.454545 32.742029 L 66.293706 32.742029 L 67.132867 32.742029 L 67.972028 36.800000 L 68.811189 36.800000 L 69.650350 32.742029 L 70.489510 32.742029 L 71.328671 32.742029 L 72.167832 32.742029 L 73.006993 32.742029 L 73.846154 33.303902 L 74.685315 36.800000 L 75.524476 36.800000 L 76.363636 36.800000 L 77.202797 36.800000 L 78.041958 36.800000 L 78.881119 36.800000 L 79.720280 36.800000 L 80.559441 36.800000 L 81.398601 32.742029 L 82.237762 32.742029 L 83.076923 32.742029 L 83.916084 32.742029 L 84.755245 32.742029 L 85.594406 32.742029 L 86.433566 32.742029 L 87.272727 32.742029 L 88.111888 32.742029 L 88.951049 32.336232 L 89.790210 32.336232 L 90.629371 36.800000 L 91.468531 33.147826 L 92.307692 33.147826 L 93.146853 33.147826 L 93.986014 32.336232 L 94.825175 36.800000 L 95.664336 36.800000 L 96.503497 36.800000 L 97.342657 36.800000 L 98.181818 35.693281 L 99.020979 36.700679 L 99.860140 36.800000 L 100.699301 36.800000 L 101.538462 36.800000 L 102.377622 36.800000 L 103.216783 32.336232 L 104.055944 29.901449 L 104.895105 29.901449 L 105.734266 27.872464 L 106.573427 27.872464 L 107.412587 27.872464 L 108.251748 27.872464 L 109.090909 26.581291 L 109.930070 25.031884 L 110.769231 25.031884 L 111.608392 32.336232 L 112.447552 32.742029 L 113.286713 32.742029 L 114.125874 32.742029 L 114.965035 32.742029 L 115.804196 35.582609 L 116.643357 36.595683 L 117.482517 36.800000 L 118.321678 36.800000 L 119.160839 36.800000 L 120.000000 36.800000 L 120 40 Z"></path>
    </g>
  </svg>