<svg xmlns="http://www.w3.org/2000/svg" viewBox="0 0 120 40" width="120" height="40">
    <defs>
      <linearGradient id="color_grad" x1="0%" x2="0%" y1="0%" y2="100%">
        <stop offset="0%" style="stop-color:#16C784;stop-opacity:0.4;"></stop>
        <stop offset="100%" style="stop-color:#16C784;stop-opacity:0.0;"></stop>
      </linearGradient>
    </defs>
    <g>
      <path stroke="#16C784" stroke-width="2" stroke-linecap="round" stroke-linejoin="round" fill="none" d="M 0.000000 9.529337 L 0.839161 9.577977 L 1.678322 11.212510 L 2.517483 11.772561 L 3.356643 11.518400 L 4.195804 13.333204 L 5.034965 12.490250 L 5.874126 12.643368 L 6.713287 12.166139 L 7.552448 12.900105 L 8.391608 13.678625 L 9.230769 14.632067 L 10.069930 14.258545 L 10.909091 14.299151 L 11.748252 14.723772 L 12.587413 16.066222 L 13.426573 15.658332 L 14.265734 17.103650 L 15.104895 15.961942 L 15.944056 16.340261 L 16.783217 15.472168 L 17.622378 15.566607 L 18.461538 15.174716 L 19.300699 15.087315 L 20.139860 14.971625 L 20.979021 14.158667 L 21.818182 8.800000 L 22.657343 16.331921 L 23.496503 15.662092 L 24.335664 15.865450 L 25.174825 15.397519 L 26.013986 15.722054 L 26.853147 13.706045 L 27.692308 13.891705 L 28.531469 14.977962 L 29.370629 14.964548 L 30.209790 14.137466 L 31.048951 14.353004 L 31.888112 14.400944 L 32.727273 14.202787 L 33.566434 16.670383 L 34.405594 15.969661 L 35.244755 15.831634 L 36.083916 16.667491 L 36.923077 16.640456 L 37.762238 15.467775 L 38.601399 19.434029 L 39.440559 19.917328 L 40.279720 19.559017 L 41.118881 18.451618 L 41.958042 20.274515 L 42.797203 21.594135 L 43.636364 21.762661 L 44.475524 20.878064 L 45.314685 23.095971 L 46.153846 24.308666 L 46.993007 23.728776 L 47.832168 23.282737 L 48.671329 35.710072 L 49.510490 25.716793 L 50.349650 25.694259 L 51.188811 28.192720 L 52.027972 27.480834 L 52.867133 27.517236 L 53.706294 27.478662 L 54.545455 25.854336 L 55.384615 24.657838 L 56.223776 24.289370 L 57.062937 22.703607 L 57.902098 22.771238 L 58.741259 25.579132 L 59.580420 26.154847 L 60.419580 26.291018 L 61.258741 26.748694 L 62.097902 26.780417 L 62.937063 28.299408 L 63.776224 30.175062 L 64.615385 30.055996 L 65.454545 30.153367 L 66.293706 33.058335 L 67.132867 32.789034 L 67.972028 34.571305 L 68.811189 33.684873 L 69.650350 34.742150 L 70.489510 34.600442 L 71.328671 34.378054 L 72.167832 34.612968 L 73.006993 32.560655 L 73.846154 31.862657 L 74.685315 30.336885 L 75.524476 30.248852 L 76.363636 30.142460 L 77.202797 30.467667 L 78.041958 31.383315 L 78.881119 31.173650 L 79.720280 30.661974 L 80.559441 32.619630 L 81.398601 31.852530 L 82.237762 36.800000 L 83.076923 34.882081 L 83.916084 26.808834 L 84.755245 28.125572 L 85.594406 28.113530 L 86.433566 27.934740 L 87.272727 27.206508 L 88.111888 27.486529 L 88.951049 27.543392 L 89.790210 26.320589 L 90.629371 26.868115 L 91.468531 25.875577 L 92.307692 26.591421 L 93.146853 27.882516 L 93.986014 29.211483 L 94.825175 25.345334 L 95.664336 27.733790 L 96.503497 31.732507 L 97.342657 31.925274 L 98.181818 33.035683 L 99.020979 34.131425 L 99.860140 33.341406 L 100.699301 31.065699 L 101.538462 33.981574 L 102.377622 28.299230 L 103.216783 27.362074 L 104.055944 26.769175 L 104.895105 23.906787 L 105.734266 24.402523 L 106.573427 24.092122 L 107.412587 23.566074 L 108.251748 23.046787 L 109.090909 22.914407 L 109.930070 22.002321 L 110.769231 20.969059 L 111.608392 21.592990 L 112.447552 21.472878 L 113.286713 23.842413 L 114.125874 23.834299 L 114.965035 24.379653 L 115.804196 24.573595 L 116.643357 19.806534 L 117.482517 20.905089 L 118.321678 22.224275 L 119.160839 22.971240 L 120.000000 23.302300"></path>
      <path stroke="none" fill-opacity="0.6" fill="url(#color_grad)" d="M 0 40 L 0.000000 9.529337 L 0.839161 9.577977 L 1.678322 11.212510 L 2.517483 11.772561 L 3.356643 11.518400 L 4.195804 13.333204 L 5.034965 12.490250 L 5.874126 12.643368 L 6.713287 12.166139 L 7.552448 12.900105 L 8.391608 13.678625 L 9.230769 14.632067 L 10.069930 14.258545 L 10.909091 14.299151 L 11.748252 14.723772 L 12.587413 16.066222 L 13.426573 15.658332 L 14.265734 17.103650 L 15.104895 15.961942 L 15.944056 16.340261 L 16.783217 15.472168 L 17.622378 15.566607 L 18.461538 15.174716 L 19.300699 15.087315 L 20.139860 14.971625 L 20.979021 14.158667 L 21.818182 8.800000 L 22.657343 16.331921 L 23.496503 15.662092 L 24.335664 15.865450 L 25.174825 15.397519 L 26.013986 15.722054 L 26.853147 13.706045 L 27.692308 13.891705 L 28.531469 14.977962 L 29.370629 14.964548 L 30.209790 14.137466 L 31.048951 14.353004 L 31.888112 14.400944 L 32.727273 14.202787 L 33.566434 16.670383 L 34.405594 15.969661 L 35.244755 15.831634 L 36.083916 16.667491 L 36.923077 16.640456 L 37.762238 15.467775 L 38.601399 19.434029 L 39.440559 19.917328 L 40.279720 19.559017 L 41.118881 18.451618 L 41.958042 20.274515 L 42.797203 21.594135 L 43.636364 21.762661 L 44.475524 20.878064 L 45.314685 23.095971 L 46.153846 24.308666 L 46.993007 23.728776 L 47.832168 23.282737 L 48.671329 35.710072 L 49.510490 25.716793 L 50.349650 25.694259 L 51.188811 28.192720 L 52.027972 27.480834 L 52.867133 27.517236 L 53.706294 27.478662 L 54.545455 25.854336 L 55.384615 24.657838 L 56.223776 24.289370 L 57.062937 22.703607 L 57.902098 22.771238 L 58.741259 25.579132 L 59.580420 26.154847 L 60.419580 26.291018 L 61.258741 26.748694 L 62.097902 26.780417 L 62.937063 28.299408 L 63.776224 30.175062 L 64.615385 30.055996 L 65.454545 30.153367 L 66.293706 33.058335 L 67.132867 32.789034 L 67.972028 34.571305 L 68.811189 33.684873 L 69.650350 34.742150 L 70.489510 34.600442 L 71.328671 34.378054 L 72.167832 34.612968 L 73.006993 32.560655 L 73.846154 31.862657 L 74.685315 30.336885 L 75.524476 30.248852 L 76.363636 30.142460 L 77.202797 30.467667 L 78.041958 31.383315 L 78.881119 31.173650 L 79.720280 30.661974 L 80.559441 32.619630 L 81.398601 31.852530 L 82.237762 36.800000 L 83.076923 34.882081 L 83.916084 26.808834 L 84.755245 28.125572 L 85.594406 28.113530 L 86.433566 27.934740 L 87.272727 27.206508 L 88.111888 27.486529 L 88.951049 27.543392 L 89.790210 26.320589 L 90.629371 26.868115 L 91.468531 25.875577 L 92.307692 26.591421 L 93.146853 27.882516 L 93.986014 29.211483 L 94.825175 25.345334 L 95.664336 27.733790 L 96.503497 31.732507 L 97.342657 31.925274 L 98.181818 33.035683 L 99.020979 34.131425 L 99.860140 33.341406 L 100.699301 31.065699 L 101.538462 33.981574 L 102.377622 28.299230 L 103.216783 27.362074 L 104.055944 26.769175 L 104.895105 23.906787 L 105.734266 24.402523 L 106.573427 24.092122 L 107.412587 23.566074 L 108.251748 23.046787 L 109.090909 22.914407 L 109.930070 22.002321 L 110.769231 20.969059 L 111.608392 21.592990 L 112.447552 21.472878 L 113.286713 23.842413 L 114.125874 23.834299 L 114.965035 24.379653 L 115.804196 24.573595 L 116.643357 19.806534 L 117.482517 20.905089 L 118.321678 22.224275 L 119.160839 22.971240 L 120.000000 23.302300 L 120 40 Z"></path>
    </g>
  </svg>