<svg xmlns="http://www.w3.org/2000/svg" viewBox="0 0 120 40" width="120" height="40">
    <defs>
      <linearGradient id="color_grad" x1="0%" x2="0%" y1="0%" y2="100%">
        <stop offset="0%" style="stop-color:#EA3943;stop-opacity:0.4;"></stop>
        <stop offset="100%" style="stop-color:#EA3943;stop-opacity:0.0;"></stop>
      </linearGradient>
    </defs>
    <g>
      <path stroke="#EA3943" stroke-width="2" stroke-linecap="round" stroke-linejoin="round" fill="none" d="M 0.000000 8.800000 L 0.839161 8.800000 L 1.678322 8.800000 L 2.517483 8.800000 L 3.356643 8.800000 L 4.195804 8.800000 L 5.034965 8.800000 L 5.874126 8.800000 L 6.713287 8.800000 L 7.552448 9.644308 L 8.391608 10.666667 L 9.230769 12.533333 L 10.069930 12.570667 L 10.909091 12.570667 L 11.748252 12.608000 L 12.587413 12.608000 L 13.426573 12.757333 L 14.265734 14.400000 L 15.104895 13.308196 L 15.944056 14.026667 L 16.783217 14.026667 L 17.622378 14.773333 L 18.461538 14.960000 L 19.300699 14.960000 L 20.139860 14.960000 L 20.979021 14.960000 L 21.818182 15.418182 L 22.657343 20.000000 L 23.496503 20.000000 L 24.335664 20.000000 L 25.174825 20.000000 L 26.013986 20.000000 L 26.853147 18.133333 L 27.692308 18.133333 L 28.531469 18.170667 L 29.370629 18.170667 L 30.209790 18.170667 L 31.048951 18.506667 L 31.888112 18.506667 L 32.727273 18.506667 L 33.566434 20.746667 L 34.405594 19.864242 L 35.244755 20.000000 L 36.083916 20.037333 L 36.923077 20.037333 L 37.762238 20.037333 L 38.601399 23.474872 L 39.440559 23.733333 L 40.279720 23.733333 L 41.118881 23.733333 L 41.958042 23.733333 L 42.797203 23.770667 L 43.636364 23.770667 L 44.475524 23.808000 L 45.314685 26.494434 L 46.153846 27.466667 L 46.993007 27.504000 L 47.832168 27.504000 L 48.671329 36.800000 L 49.510490 29.333333 L 50.349650 29.333333 L 51.188811 31.200000 L 52.027972 31.200000 L 52.867133 31.200000 L 53.706294 31.200000 L 54.545455 30.005333 L 55.384615 29.557333 L 56.223776 29.557333 L 57.062937 29.557333 L 57.902098 29.557333 L 58.741259 31.200000 L 59.580420 31.200000 L 60.419580 31.200000 L 61.258741 31.200000 L 62.097902 31.200000 L 62.937063 31.237333 L 63.776224 31.237333 L 64.615385 31.200000 L 65.454545 31.200000 L 66.293706 31.946667 L 67.132867 31.946667 L 67.972028 31.946667 L 68.811189 31.610667 L 69.650350 31.610667 L 70.489510 31.610667 L 71.328671 31.610667 L 72.167832 31.610667 L 73.006993 30.304000 L 73.846154 30.304000 L 74.685315 30.304000 L 75.524476 30.304000 L 76.363636 30.453333 L 77.202797 30.453333 L 78.041958 30.453333 L 78.881119 30.453333 L 79.720280 30.453333 L 80.559441 30.453333 L 81.398601 30.453333 L 82.237762 34.933333 L 83.076923 34.933333 L 83.916084 30.453333 L 84.755245 30.453333 L 85.594406 31.200000 L 86.433566 31.386667 L 87.272727 31.386667 L 88.111888 31.386667 L 88.951049 31.386667 L 89.790210 31.386667 L 90.629371 31.386667 L 91.468531 31.386667 L 92.307692 31.386667 L 93.146853 31.386667 L 93.986014 34.933333 L 94.825175 31.386667 L 95.664336 31.386667 L 96.503497 34.933333 L 97.342657 34.933333 L 98.181818 34.933333 L 99.020979 34.933333 L 99.860140 34.933333 L 100.699301 34.933333 L 101.538462 34.660513 L 102.377622 31.386667 L 103.216783 31.212531 L 104.055944 30.304000 L 104.895105 30.304000 L 105.734266 30.304000 L 106.573427 30.304000 L 107.412587 30.304000 L 108.251748 30.304000 L 109.090909 30.304000 L 109.930070 30.304000 L 110.769231 30.304000 L 111.608392 30.304000 L 112.447552 30.304000 L 113.286713 32.693333 L 114.125874 32.693333 L 114.965035 32.693333 L 115.804196 34.541725 L 116.643357 33.069277 L 117.482517 32.693333 L 118.321678 32.693333 L 119.160839 33.066667 L 120.000000 33.066667"></path>
      <path stroke="none" fill-opacity="0.6" fill="url(#color_grad)" d="M 0 40 L 0.000000 8.800000 L 0.839161 8.800000 L 1.678322 8.800000 L 2.517483 8.800000 L 3.356643 8.800000 L 4.195804 8.800000 L 5.034965 8.800000 L 5.874126 8.800000 L 6.713287 8.800000 L 7.552448 9.644308 L 8.391608 10.666667 L 9.230769 12.533333 L 10.069930 12.570667 L 10.909091 12.570667 L 11.748252 12.608000 L 12.587413 12.608000 L 13.426573 12.757333 L 14.265734 14.400000 L 15.104895 13.308196 L 15.944056 14.026667 L 16.783217 14.026667 L 17.622378 14.773333 L 18.461538 14.960000 L 19.300699 14.960000 L 20.139860 14.960000 L 20.979021 14.960000 L 21.818182 15.418182 L 22.657343 20.000000 L 23.496503 20.000000 L 24.335664 20.000000 L 25.174825 20.000000 L 26.013986 20.000000 L 26.853147 18.133333 L 27.692308 18.133333 L 28.531469 18.170667 L 29.370629 18.170667 L 30.209790 18.170667 L 31.048951 18.506667 L 31.888112 18.506667 L 32.727273 18.506667 L 33.566434 20.746667 L 34.405594 19.864242 L 35.244755 20.000000 L 36.083916 20.037333 L 36.923077 20.037333 L 37.762238 20.037333 L 38.601399 23.474872 L 39.440559 23.733333 L 40.279720 23.733333 L 41.118881 23.733333 L 41.958042 23.733333 L 42.797203 23.770667 L 43.636364 23.770667 L 44.475524 23.808000 L 45.314685 26.494434 L 46.153846 27.466667 L 46.993007 27.504000 L 47.832168 27.504000 L 48.671329 36.800000 L 49.510490 29.333333 L 50.349650 29.333333 L 51.188811 31.200000 L 52.027972 31.200000 L 52.867133 31.200000 L 53.706294 31.200000 L 54.545455 30.005333 L 55.384615 29.557333 L 56.223776 29.557333 L 57.062937 29.557333 L 57.902098 29.557333 L 58.741259 31.200000 L 59.580420 31.200000 L 60.419580 31.200000 L 61.258741 31.200000 L 62.097902 31.200000 L 62.937063 31.237333 L 63.776224 31.237333 L 64.615385 31.200000 L 65.454545 31.200000 L 66.293706 31.946667 L 67.132867 31.946667 L 67.972028 31.946667 L 68.811189 31.610667 L 69.650350 31.610667 L 70.489510 31.610667 L 71.328671 31.610667 L 72.167832 31.610667 L 73.006993 30.304000 L 73.846154 30.304000 L 74.685315 30.304000 L 75.524476 30.304000 L 76.363636 30.453333 L 77.202797 30.453333 L 78.041958 30.453333 L 78.881119 30.453333 L 79.720280 30.453333 L 80.559441 30.453333 L 81.398601 30.453333 L 82.237762 34.933333 L 83.076923 34.933333 L 83.916084 30.453333 L 84.755245 30.453333 L 85.594406 31.200000 L 86.433566 31.386667 L 87.272727 31.386667 L 88.111888 31.386667 L 88.951049 31.386667 L 89.790210 31.386667 L 90.629371 31.386667 L 91.468531 31.386667 L 92.307692 31.386667 L 93.146853 31.386667 L 93.986014 34.933333 L 94.825175 31.386667 L 95.664336 31.386667 L 96.503497 34.933333 L 97.342657 34.933333 L 98.181818 34.933333 L 99.020979 34.933333 L 99.860140 34.933333 L 100.699301 34.933333 L 101.538462 34.660513 L 102.377622 31.386667 L 103.216783 31.212531 L 104.055944 30.304000 L 104.895105 30.304000 L 105.734266 30.304000 L 106.573427 30.304000 L 107.412587 30.304000 L 108.251748 30.304000 L 109.090909 30.304000 L 109.930070 30.304000 L 110.769231 30.304000 L 111.608392 30.304000 L 112.447552 30.304000 L 113.286713 32.693333 L 114.125874 32.693333 L 114.965035 32.693333 L 115.804196 34.541725 L 116.643357 33.069277 L 117.482517 32.693333 L 118.321678 32.693333 L 119.160839 33.066667 L 120.000000 33.066667 L 120 40 Z"></path>
    </g>
  </svg>