<svg xmlns="http://www.w3.org/2000/svg" viewBox="0 0 120 40" width="120" height="40">
    <defs>
      <linearGradient id="color_grad" x1="0%" x2="0%" y1="0%" y2="100%">
        <stop offset="0%" style="stop-color:#16C784;stop-opacity:0.4;"></stop>
        <stop offset="100%" style="stop-color:#16C784;stop-opacity:0.0;"></stop>
      </linearGradient>
    </defs>
    <g>
      <path stroke="#16C784" stroke-width="2" stroke-linecap="round" stroke-linejoin="round" fill="none" d="M 0.000000 32.115955 L 0.839161 21.712045 L 1.678322 26.905515 L 2.517483 27.475942 L 3.356643 27.211445 L 4.195804 22.983008 L 5.034965 22.108180 L 5.874126 28.343890 L 6.713287 27.860609 L 7.552448 27.605897 L 8.391608 20.373965 L 9.230769 19.025030 L 10.069930 18.584405 L 10.909091 18.626450 L 11.748252 19.032522 L 12.587413 20.484198 L 13.426573 19.850781 L 14.265734 26.159266 L 15.104895 22.899530 L 15.944056 18.957912 L 16.783217 18.016272 L 17.622378 17.129366 L 18.461538 16.445189 L 19.300699 16.346576 L 20.139860 16.224418 L 20.979021 15.327269 L 21.818182 8.800000 L 22.657343 10.799629 L 23.496503 10.658360 L 24.335664 24.750246 L 25.174825 24.261155 L 26.013986 24.597357 L 26.853147 24.946096 L 27.692308 25.133231 L 28.531469 26.203604 L 29.370629 26.191220 L 30.209790 25.327247 L 31.048951 25.122682 L 31.888112 25.176499 L 32.727273 25.696167 L 33.566434 25.333668 L 34.405594 25.034924 L 35.244755 24.721961 L 36.083916 11.853183 L 36.923077 11.818631 L 37.762238 10.476728 L 38.601399 10.056132 L 39.440559 15.341487 L 40.279720 14.923337 L 41.118881 13.660937 L 41.958042 15.737927 L 42.797203 17.202293 L 43.636364 17.392181 L 44.475524 17.781282 L 45.314685 23.740264 L 46.153846 16.431735 L 46.993007 23.027651 L 47.832168 22.521896 L 48.671329 19.599432 L 49.510490 22.647876 L 50.349650 22.615311 L 51.188811 30.097827 L 52.027972 29.321612 L 52.867133 29.359681 L 53.706294 29.307393 L 54.545455 21.824418 L 55.384615 21.110429 L 56.223776 20.680354 L 57.062937 18.872600 L 57.902098 26.471770 L 58.741259 19.723578 L 59.580420 20.406989 L 60.419580 20.559113 L 61.258741 21.093153 L 62.097902 21.122202 L 62.937063 30.174577 L 63.776224 25.006334 L 64.615385 32.174817 L 65.454545 32.272971 L 66.293706 34.469521 L 67.132867 34.178727 L 67.972028 36.155881 L 68.811189 35.634072 L 69.650350 36.800000 L 70.489510 36.649558 L 71.328671 36.396833 L 72.167832 36.665458 L 73.006993 36.149765 L 73.846154 35.385323 L 74.685315 33.711652 L 75.524476 33.604936 L 76.363636 33.286622 L 77.202797 33.645910 L 78.041958 34.652069 L 78.881119 34.430993 L 79.720280 33.862247 L 80.559441 36.012930 L 81.398601 35.176171 L 82.237762 34.545506 L 83.076923 32.346358 L 83.916084 29.635339 L 84.755245 31.083040 L 85.594406 30.028263 L 86.433566 29.557978 L 87.272727 28.749044 L 88.111888 29.066135 L 88.951049 29.129890 L 89.790210 27.768265 L 90.629371 28.369269 L 91.468531 27.280398 L 92.307692 28.066244 L 93.146853 29.499268 L 93.986014 25.841411 L 94.825175 26.695752 L 95.664336 29.344392 L 96.503497 28.733603 L 97.342657 28.947188 L 98.181818 30.229770 L 99.020979 31.483455 L 99.860140 30.586458 L 100.699301 27.959681 L 101.538462 31.707284 L 102.377622 29.956252 L 103.216783 29.173004 L 104.055944 29.802293 L 104.895105 26.662728 L 105.734266 27.197532 L 106.573427 26.861942 L 107.412587 26.275156 L 108.251748 25.716654 L 109.090909 25.559026 L 109.930070 24.559900 L 110.769231 23.431277 L 111.608392 24.123250 L 112.447552 23.979993 L 113.286713 23.103178 L 114.125874 23.090335 L 114.965035 23.699137 L 115.804196 21.116392 L 116.643357 17.985541 L 117.482517 19.792377 L 118.321678 21.276925 L 119.160839 21.555946 L 120.000000 21.927771"></path>
      <path stroke="none" fill-opacity="0.6" fill="url(#color_grad)" d="M 0 40 L 0.000000 32.115955 L 0.839161 21.712045 L 1.678322 26.905515 L 2.517483 27.475942 L 3.356643 27.211445 L 4.195804 22.983008 L 5.034965 22.108180 L 5.874126 28.343890 L 6.713287 27.860609 L 7.552448 27.605897 L 8.391608 20.373965 L 9.230769 19.025030 L 10.069930 18.584405 L 10.909091 18.626450 L 11.748252 19.032522 L 12.587413 20.484198 L 13.426573 19.850781 L 14.265734 26.159266 L 15.104895 22.899530 L 15.944056 18.957912 L 16.783217 18.016272 L 17.622378 17.129366 L 18.461538 16.445189 L 19.300699 16.346576 L 20.139860 16.224418 L 20.979021 15.327269 L 21.818182 8.800000 L 22.657343 10.799629 L 23.496503 10.658360 L 24.335664 24.750246 L 25.174825 24.261155 L 26.013986 24.597357 L 26.853147 24.946096 L 27.692308 25.133231 L 28.531469 26.203604 L 29.370629 26.191220 L 30.209790 25.327247 L 31.048951 25.122682 L 31.888112 25.176499 L 32.727273 25.696167 L 33.566434 25.333668 L 34.405594 25.034924 L 35.244755 24.721961 L 36.083916 11.853183 L 36.923077 11.818631 L 37.762238 10.476728 L 38.601399 10.056132 L 39.440559 15.341487 L 40.279720 14.923337 L 41.118881 13.660937 L 41.958042 15.737927 L 42.797203 17.202293 L 43.636364 17.392181 L 44.475524 17.781282 L 45.314685 23.740264 L 46.153846 16.431735 L 46.993007 23.027651 L 47.832168 22.521896 L 48.671329 19.599432 L 49.510490 22.647876 L 50.349650 22.615311 L 51.188811 30.097827 L 52.027972 29.321612 L 52.867133 29.359681 L 53.706294 29.307393 L 54.545455 21.824418 L 55.384615 21.110429 L 56.223776 20.680354 L 57.062937 18.872600 L 57.902098 26.471770 L 58.741259 19.723578 L 59.580420 20.406989 L 60.419580 20.559113 L 61.258741 21.093153 L 62.097902 21.122202 L 62.937063 30.174577 L 63.776224 25.006334 L 64.615385 32.174817 L 65.454545 32.272971 L 66.293706 34.469521 L 67.132867 34.178727 L 67.972028 36.155881 L 68.811189 35.634072 L 69.650350 36.800000 L 70.489510 36.649558 L 71.328671 36.396833 L 72.167832 36.665458 L 73.006993 36.149765 L 73.846154 35.385323 L 74.685315 33.711652 L 75.524476 33.604936 L 76.363636 33.286622 L 77.202797 33.645910 L 78.041958 34.652069 L 78.881119 34.430993 L 79.720280 33.862247 L 80.559441 36.012930 L 81.398601 35.176171 L 82.237762 34.545506 L 83.076923 32.346358 L 83.916084 29.635339 L 84.755245 31.083040 L 85.594406 30.028263 L 86.433566 29.557978 L 87.272727 28.749044 L 88.111888 29.066135 L 88.951049 29.129890 L 89.790210 27.768265 L 90.629371 28.369269 L 91.468531 27.280398 L 92.307692 28.066244 L 93.146853 29.499268 L 93.986014 25.841411 L 94.825175 26.695752 L 95.664336 29.344392 L 96.503497 28.733603 L 97.342657 28.947188 L 98.181818 30.229770 L 99.020979 31.483455 L 99.860140 30.586458 L 100.699301 27.959681 L 101.538462 31.707284 L 102.377622 29.956252 L 103.216783 29.173004 L 104.055944 29.802293 L 104.895105 26.662728 L 105.734266 27.197532 L 106.573427 26.861942 L 107.412587 26.275156 L 108.251748 25.716654 L 109.090909 25.559026 L 109.930070 24.559900 L 110.769231 23.431277 L 111.608392 24.123250 L 112.447552 23.979993 L 113.286713 23.103178 L 114.125874 23.090335 L 114.965035 23.699137 L 115.804196 21.116392 L 116.643357 17.985541 L 117.482517 19.792377 L 118.321678 21.276925 L 119.160839 21.555946 L 120.000000 21.927771 L 120 40 Z"></path>
    </g>
  </svg>