<svg xmlns="http://www.w3.org/2000/svg" viewBox="0 0 120 40" width="120" height="40">
    <defs>
      <linearGradient id="color_grad" x1="0%" x2="0%" y1="0%" y2="100%">
        <stop offset="0%" style="stop-color:#16C784;stop-opacity:0.4;"></stop>
        <stop offset="100%" style="stop-color:#16C784;stop-opacity:0.0;"></stop>
      </linearGradient>
    </defs>
    <g>
      <path stroke="#16C784" stroke-width="2" stroke-linecap="round" stroke-linejoin="round" fill="none" d="M 0.000000 32.838175 L 0.839161 32.889235 L 1.678322 34.591702 L 2.517483 35.174566 L 3.356643 34.909872 L 4.195804 36.800000 L 5.034965 35.921643 L 5.874126 36.081176 L 6.713287 35.584688 L 7.552448 35.316245 L 8.391608 34.871196 L 9.230769 33.536243 L 10.069930 33.087154 L 10.909091 33.130912 L 11.748252 33.538606 L 12.587413 34.980536 L 13.426573 34.353098 L 14.265734 33.813092 L 15.104895 33.978130 L 15.944056 33.465012 L 16.783217 32.521980 L 17.622378 31.650521 L 18.461538 30.975453 L 19.300699 30.880214 L 20.139860 30.753109 L 20.979021 29.862934 L 21.818182 23.364564 L 22.657343 25.349888 L 23.496503 24.584480 L 24.335664 24.816557 L 25.174825 24.282184 L 26.013986 24.653760 L 26.853147 25.020022 L 27.692308 25.228363 L 28.531469 26.397287 L 29.370629 26.382337 L 30.209790 25.452319 L 31.048951 25.221999 L 31.888112 25.276312 L 32.727273 25.052706 L 33.566434 24.666128 L 34.405594 25.129383 L 35.244755 24.778781 L 36.083916 25.680198 L 36.923077 25.649881 L 37.762238 24.309455 L 38.601399 23.890504 L 39.440559 24.077279 L 40.279720 23.653050 L 41.118881 22.346614 L 41.958042 24.497467 L 42.797203 26.000709 L 43.636364 26.199717 L 44.475524 25.099992 L 45.314685 23.722769 L 46.153846 23.699906 L 46.993007 22.933850 L 47.832168 22.388783 L 48.671329 23.197732 L 49.510490 22.523063 L 50.349650 22.494706 L 51.188811 22.653894 L 52.027972 21.753461 L 52.867133 21.800226 L 53.706294 21.750980 L 54.545455 21.626673 L 55.384615 20.849568 L 56.223776 20.390458 L 57.062937 18.416063 L 57.902098 18.501071 L 58.741259 19.349044 L 59.580420 20.076354 L 60.419580 20.248856 L 61.258741 20.828341 L 62.097902 20.867429 L 62.937063 22.729627 L 63.776224 25.101298 L 64.615385 25.010851 L 65.454545 25.134181 L 66.293706 27.643536 L 67.132867 27.300943 L 67.972028 29.571197 L 68.811189 28.965969 L 69.650350 30.308124 L 70.489510 30.127532 L 71.328671 29.845105 L 72.167832 30.144445 L 73.006993 29.558125 L 73.846154 28.682038 L 74.685315 26.769879 L 75.524476 26.658954 L 76.363636 26.293420 L 77.202797 26.701844 L 78.041958 27.851602 L 78.881119 27.587754 L 79.720280 26.945201 L 80.559441 29.402858 L 81.398601 28.440964 L 82.237762 27.725681 L 83.076923 25.210821 L 83.916084 22.106813 L 84.755245 23.759797 L 85.594406 22.553711 L 86.433566 22.026492 L 87.272727 21.104019 L 88.111888 21.459427 L 88.951049 21.531021 L 89.790210 19.982051 L 90.629371 20.674828 L 91.468531 19.417937 L 92.307692 20.324778 L 93.146853 21.960588 L 93.986014 17.772199 L 94.825175 18.745827 L 95.664336 21.771527 L 96.503497 21.078718 L 97.342657 21.331977 L 98.181818 22.789326 L 99.020979 24.224959 L 99.860140 23.189523 L 100.699301 20.205212 L 101.538462 24.480631 L 102.377622 22.488399 L 103.216783 21.583598 L 104.055944 22.295920 L 104.895105 18.706711 L 105.734266 19.327810 L 106.573427 18.938177 L 107.412587 18.279193 L 108.251748 17.627514 L 109.090909 17.461656 L 109.930070 16.318028 L 110.769231 15.022809 L 111.608392 15.805349 L 112.447552 15.654415 L 113.286713 14.639320 L 114.125874 14.628877 L 114.965035 15.329426 L 115.804196 12.381345 L 116.643357 8.800000 L 117.482517 10.871104 L 118.321678 12.563321 L 119.160839 12.878815 L 120.000000 13.305244"></path>
      <path stroke="none" fill-opacity="0.6" fill="url(#color_grad)" d="M 0 40 L 0.000000 32.838175 L 0.839161 32.889235 L 1.678322 34.591702 L 2.517483 35.174566 L 3.356643 34.909872 L 4.195804 36.800000 L 5.034965 35.921643 L 5.874126 36.081176 L 6.713287 35.584688 L 7.552448 35.316245 L 8.391608 34.871196 L 9.230769 33.536243 L 10.069930 33.087154 L 10.909091 33.130912 L 11.748252 33.538606 L 12.587413 34.980536 L 13.426573 34.353098 L 14.265734 33.813092 L 15.104895 33.978130 L 15.944056 33.465012 L 16.783217 32.521980 L 17.622378 31.650521 L 18.461538 30.975453 L 19.300699 30.880214 L 20.139860 30.753109 L 20.979021 29.862934 L 21.818182 23.364564 L 22.657343 25.349888 L 23.496503 24.584480 L 24.335664 24.816557 L 25.174825 24.282184 L 26.013986 24.653760 L 26.853147 25.020022 L 27.692308 25.228363 L 28.531469 26.397287 L 29.370629 26.382337 L 30.209790 25.452319 L 31.048951 25.221999 L 31.888112 25.276312 L 32.727273 25.052706 L 33.566434 24.666128 L 34.405594 25.129383 L 35.244755 24.778781 L 36.083916 25.680198 L 36.923077 25.649881 L 37.762238 24.309455 L 38.601399 23.890504 L 39.440559 24.077279 L 40.279720 23.653050 L 41.118881 22.346614 L 41.958042 24.497467 L 42.797203 26.000709 L 43.636364 26.199717 L 44.475524 25.099992 L 45.314685 23.722769 L 46.153846 23.699906 L 46.993007 22.933850 L 47.832168 22.388783 L 48.671329 23.197732 L 49.510490 22.523063 L 50.349650 22.494706 L 51.188811 22.653894 L 52.027972 21.753461 L 52.867133 21.800226 L 53.706294 21.750980 L 54.545455 21.626673 L 55.384615 20.849568 L 56.223776 20.390458 L 57.062937 18.416063 L 57.902098 18.501071 L 58.741259 19.349044 L 59.580420 20.076354 L 60.419580 20.248856 L 61.258741 20.828341 L 62.097902 20.867429 L 62.937063 22.729627 L 63.776224 25.101298 L 64.615385 25.010851 L 65.454545 25.134181 L 66.293706 27.643536 L 67.132867 27.300943 L 67.972028 29.571197 L 68.811189 28.965969 L 69.650350 30.308124 L 70.489510 30.127532 L 71.328671 29.845105 L 72.167832 30.144445 L 73.006993 29.558125 L 73.846154 28.682038 L 74.685315 26.769879 L 75.524476 26.658954 L 76.363636 26.293420 L 77.202797 26.701844 L 78.041958 27.851602 L 78.881119 27.587754 L 79.720280 26.945201 L 80.559441 29.402858 L 81.398601 28.440964 L 82.237762 27.725681 L 83.076923 25.210821 L 83.916084 22.106813 L 84.755245 23.759797 L 85.594406 22.553711 L 86.433566 22.026492 L 87.272727 21.104019 L 88.111888 21.459427 L 88.951049 21.531021 L 89.790210 19.982051 L 90.629371 20.674828 L 91.468531 19.417937 L 92.307692 20.324778 L 93.146853 21.960588 L 93.986014 17.772199 L 94.825175 18.745827 L 95.664336 21.771527 L 96.503497 21.078718 L 97.342657 21.331977 L 98.181818 22.789326 L 99.020979 24.224959 L 99.860140 23.189523 L 100.699301 20.205212 L 101.538462 24.480631 L 102.377622 22.488399 L 103.216783 21.583598 L 104.055944 22.295920 L 104.895105 18.706711 L 105.734266 19.327810 L 106.573427 18.938177 L 107.412587 18.279193 L 108.251748 17.627514 L 109.090909 17.461656 L 109.930070 16.318028 L 110.769231 15.022809 L 111.608392 15.805349 L 112.447552 15.654415 L 113.286713 14.639320 L 114.125874 14.628877 L 114.965035 15.329426 L 115.804196 12.381345 L 116.643357 8.800000 L 117.482517 10.871104 L 118.321678 12.563321 L 119.160839 12.878815 L 120.000000 13.305244 L 120 40 Z"></path>
    </g>
  </svg>