<svg xmlns="http://www.w3.org/2000/svg" viewBox="0 0 120 40" width="120" height="40">
    <defs>
      <linearGradient id="color_grad" x1="0%" x2="0%" y1="0%" y2="100%">
        <stop offset="0%" style="stop-color:#EA3943;stop-opacity:0.4;"></stop>
        <stop offset="100%" style="stop-color:#EA3943;stop-opacity:0.0;"></stop>
      </linearGradient>
    </defs>
    <g>
      <path stroke="#EA3943" stroke-width="2" stroke-linecap="round" stroke-linejoin="round" fill="none" d="M 0.000000 10.904478 L 0.839161 10.097533 L 1.678322 9.685530 L 2.517483 9.188781 L 3.356643 8.800000 L 4.195804 9.414188 L 5.034965 12.248262 L 5.874126 12.721194 L 6.713287 12.792133 L 7.552448 12.808595 L 8.391608 13.179918 L 9.230769 13.766565 L 10.069930 13.822727 L 10.909091 13.277140 L 11.748252 13.972292 L 12.587413 13.749025 L 13.426573 14.203106 L 14.265734 15.486484 L 15.104895 16.088525 L 15.944056 15.984999 L 16.783217 16.142181 L 17.622378 16.725154 L 18.461538 17.055125 L 19.300699 17.132072 L 20.139860 17.237165 L 20.979021 16.865327 L 21.818182 18.143443 L 22.657343 18.510226 L 23.496503 18.613391 L 24.335664 18.727910 L 25.174825 18.827771 L 26.013986 18.807630 L 26.853147 18.495859 L 27.692308 18.404599 L 28.531469 18.243666 L 29.370629 18.115165 L 30.209790 18.173747 L 31.048951 18.404357 L 31.888112 18.526037 L 32.727273 18.227822 L 33.566434 18.059804 L 34.405594 18.026998 L 35.244755 18.118929 L 36.083916 18.311137 L 36.923077 17.677283 L 37.762238 17.914336 L 38.601399 18.124527 L 39.440559 18.202770 L 40.279720 18.282884 L 41.118881 18.569724 L 41.958042 19.125492 L 42.797203 18.116648 L 43.636364 17.463736 L 44.475524 17.496176 L 45.314685 20.113442 L 46.153846 25.282466 L 46.993007 25.706023 L 47.832168 26.306119 L 48.671329 25.961297 L 49.510490 28.840889 L 50.349650 32.096870 L 51.188811 32.591953 L 52.027972 32.529829 L 52.867133 32.770792 L 53.706294 32.967152 L 54.545455 33.023275 L 55.384615 33.163147 L 56.223776 33.479171 L 57.062937 33.797475 L 57.902098 34.322378 L 58.741259 34.233091 L 59.580420 34.875579 L 60.419580 35.910015 L 61.258741 36.524667 L 62.097902 36.163971 L 62.937063 36.045488 L 63.776224 35.443339 L 64.615385 35.059450 L 65.454545 34.572224 L 66.293706 33.786828 L 67.132867 32.949431 L 67.972028 32.988348 L 68.811189 27.107026 L 69.650350 25.696078 L 70.489510 25.689256 L 71.328671 25.570145 L 72.167832 25.353003 L 73.006993 25.475137 L 73.846154 25.797516 L 74.685315 26.381719 L 75.524476 27.003115 L 76.363636 27.275986 L 77.202797 27.182255 L 78.041958 27.296029 L 78.881119 27.042948 L 79.720280 26.976861 L 80.559441 27.244526 L 81.398601 26.968559 L 82.237762 26.441621 L 83.076923 27.225971 L 83.916084 28.047697 L 84.755245 29.446617 L 85.594406 29.602882 L 86.433566 29.379343 L 87.272727 29.595081 L 88.111888 30.259040 L 88.951049 29.919375 L 89.790210 29.862366 L 90.629371 31.103469 L 91.468531 31.094544 L 92.307692 30.381417 L 93.146853 30.555768 L 93.986014 29.894406 L 94.825175 31.370893 L 95.664336 31.369639 L 96.503497 30.778706 L 97.342657 30.373552 L 98.181818 30.387157 L 99.020979 30.314676 L 99.860140 30.308051 L 100.699301 30.316070 L 101.538462 30.982912 L 102.377622 31.215663 L 103.216783 30.724879 L 104.055944 30.953602 L 104.895105 31.016268 L 105.734266 31.881895 L 106.573427 32.320757 L 107.412587 32.646118 L 108.251748 32.973329 L 109.090909 33.057430 L 109.930070 33.833745 L 110.769231 33.627788 L 111.608392 34.119931 L 112.447552 34.171825 L 113.286713 33.978256 L 114.125874 34.572105 L 114.965035 35.248601 L 115.804196 34.964173 L 116.643357 35.213657 L 117.482517 36.066235 L 118.321678 36.800000 L 119.160839 36.690079 L 120.000000 35.973771"></path>
      <path stroke="none" fill-opacity="0.6" fill="url(#color_grad)" d="M 0 40 L 0.000000 10.904478 L 0.839161 10.097533 L 1.678322 9.685530 L 2.517483 9.188781 L 3.356643 8.800000 L 4.195804 9.414188 L 5.034965 12.248262 L 5.874126 12.721194 L 6.713287 12.792133 L 7.552448 12.808595 L 8.391608 13.179918 L 9.230769 13.766565 L 10.069930 13.822727 L 10.909091 13.277140 L 11.748252 13.972292 L 12.587413 13.749025 L 13.426573 14.203106 L 14.265734 15.486484 L 15.104895 16.088525 L 15.944056 15.984999 L 16.783217 16.142181 L 17.622378 16.725154 L 18.461538 17.055125 L 19.300699 17.132072 L 20.139860 17.237165 L 20.979021 16.865327 L 21.818182 18.143443 L 22.657343 18.510226 L 23.496503 18.613391 L 24.335664 18.727910 L 25.174825 18.827771 L 26.013986 18.807630 L 26.853147 18.495859 L 27.692308 18.404599 L 28.531469 18.243666 L 29.370629 18.115165 L 30.209790 18.173747 L 31.048951 18.404357 L 31.888112 18.526037 L 32.727273 18.227822 L 33.566434 18.059804 L 34.405594 18.026998 L 35.244755 18.118929 L 36.083916 18.311137 L 36.923077 17.677283 L 37.762238 17.914336 L 38.601399 18.124527 L 39.440559 18.202770 L 40.279720 18.282884 L 41.118881 18.569724 L 41.958042 19.125492 L 42.797203 18.116648 L 43.636364 17.463736 L 44.475524 17.496176 L 45.314685 20.113442 L 46.153846 25.282466 L 46.993007 25.706023 L 47.832168 26.306119 L 48.671329 25.961297 L 49.510490 28.840889 L 50.349650 32.096870 L 51.188811 32.591953 L 52.027972 32.529829 L 52.867133 32.770792 L 53.706294 32.967152 L 54.545455 33.023275 L 55.384615 33.163147 L 56.223776 33.479171 L 57.062937 33.797475 L 57.902098 34.322378 L 58.741259 34.233091 L 59.580420 34.875579 L 60.419580 35.910015 L 61.258741 36.524667 L 62.097902 36.163971 L 62.937063 36.045488 L 63.776224 35.443339 L 64.615385 35.059450 L 65.454545 34.572224 L 66.293706 33.786828 L 67.132867 32.949431 L 67.972028 32.988348 L 68.811189 27.107026 L 69.650350 25.696078 L 70.489510 25.689256 L 71.328671 25.570145 L 72.167832 25.353003 L 73.006993 25.475137 L 73.846154 25.797516 L 74.685315 26.381719 L 75.524476 27.003115 L 76.363636 27.275986 L 77.202797 27.182255 L 78.041958 27.296029 L 78.881119 27.042948 L 79.720280 26.976861 L 80.559441 27.244526 L 81.398601 26.968559 L 82.237762 26.441621 L 83.076923 27.225971 L 83.916084 28.047697 L 84.755245 29.446617 L 85.594406 29.602882 L 86.433566 29.379343 L 87.272727 29.595081 L 88.111888 30.259040 L 88.951049 29.919375 L 89.790210 29.862366 L 90.629371 31.103469 L 91.468531 31.094544 L 92.307692 30.381417 L 93.146853 30.555768 L 93.986014 29.894406 L 94.825175 31.370893 L 95.664336 31.369639 L 96.503497 30.778706 L 97.342657 30.373552 L 98.181818 30.387157 L 99.020979 30.314676 L 99.860140 30.308051 L 100.699301 30.316070 L 101.538462 30.982912 L 102.377622 31.215663 L 103.216783 30.724879 L 104.055944 30.953602 L 104.895105 31.016268 L 105.734266 31.881895 L 106.573427 32.320757 L 107.412587 32.646118 L 108.251748 32.973329 L 109.090909 33.057430 L 109.930070 33.833745 L 110.769231 33.627788 L 111.608392 34.119931 L 112.447552 34.171825 L 113.286713 33.978256 L 114.125874 34.572105 L 114.965035 35.248601 L 115.804196 34.964173 L 116.643357 35.213657 L 117.482517 36.066235 L 118.321678 36.800000 L 119.160839 36.690079 L 120.000000 35.973771 L 120 40 Z"></path>
    </g>
  </svg>