<svg xmlns="http://www.w3.org/2000/svg" viewBox="0 0 120 40" width="120" height="40">
    <defs>
      <linearGradient id="color_grad" x1="0%" x2="0%" y1="0%" y2="100%">
        <stop offset="0%" style="stop-color:#EA3943;stop-opacity:0.4;"></stop>
        <stop offset="100%" style="stop-color:#EA3943;stop-opacity:0.0;"></stop>
      </linearGradient>
    </defs>
    <g>
      <path stroke="#EA3943" stroke-width="2" stroke-linecap="round" stroke-linejoin="round" fill="none" d="M 0.000000 14.340590 L 0.839161 14.340590 L 1.678322 14.340590 L 2.517483 16.187454 L 3.356643 16.187454 L 4.195804 14.340590 L 5.034965 14.340590 L 5.874126 13.724969 L 6.713287 13.724969 L 7.552448 13.848093 L 8.391608 13.724969 L 9.230769 13.724969 L 10.069930 13.724969 L 10.909091 13.724969 L 11.748252 13.724969 L 12.587413 8.800000 L 13.426573 8.800000 L 14.265734 8.800000 L 15.104895 8.800000 L 15.944056 11.262485 L 16.783217 11.262485 L 17.622378 11.262485 L 18.461538 8.800000 L 19.300699 8.800000 L 20.139860 10.031242 L 20.979021 10.031242 L 21.818182 10.501353 L 22.657343 10.031242 L 23.496503 10.031242 L 24.335664 10.031242 L 25.174825 10.031242 L 26.013986 13.724969 L 26.853147 10.031242 L 27.692308 10.031242 L 28.531469 10.031242 L 29.370629 10.031242 L 30.209790 11.262485 L 31.048951 18.649938 L 31.888112 18.649938 L 32.727273 19.881181 L 33.566434 18.649938 L 34.405594 19.536777 L 35.244755 18.649938 L 36.083916 19.265560 L 36.923077 18.649938 L 37.762238 17.418696 L 38.601399 19.265560 L 39.440559 19.265560 L 40.279720 19.265560 L 41.118881 24.313653 L 41.958042 19.881181 L 42.797203 20.496802 L 43.636364 22.343665 L 44.475524 22.959287 L 45.314685 22.959287 L 46.153846 33.424846 L 46.993007 23.002337 L 47.832168 32.193604 L 48.671329 23.082411 L 49.510490 21.618696 L 50.349650 22.343665 L 51.188811 22.343665 L 52.027972 20.004305 L 52.867133 21.112423 L 53.706294 21.112423 L 54.545455 21.112423 L 55.384615 22.533087 L 56.223776 21.112423 L 57.062937 21.112423 L 57.902098 21.112423 L 58.741259 21.112423 L 59.580420 22.343665 L 60.419580 22.356581 L 61.258741 23.153014 L 62.097902 26.037392 L 62.937063 26.037392 L 63.776224 26.653014 L 64.615385 32.193604 L 65.454545 32.193604 L 66.293706 32.193604 L 67.132867 32.193604 L 67.972028 21.481796 L 68.811189 21.481796 L 69.650350 21.481796 L 70.489510 21.481796 L 71.328671 21.481796 L 72.167832 21.481796 L 73.006993 21.481796 L 73.846154 21.851169 L 74.685315 26.037392 L 75.524476 26.037392 L 76.363636 26.037392 L 77.202797 26.037392 L 78.041958 26.160517 L 78.881119 26.037392 L 79.720280 26.037392 L 80.559441 26.037392 L 81.398601 26.037392 L 82.237762 32.193604 L 83.076923 32.809225 L 83.916084 23.574908 L 84.755245 28.499877 L 85.594406 28.499877 L 86.433566 28.499877 L 87.272727 30.962362 L 88.111888 30.962362 L 88.951049 30.962362 L 89.790210 30.962362 L 90.629371 30.962362 L 91.468531 30.962362 L 92.307692 30.962362 L 93.146853 30.962362 L 93.986014 27.884256 L 94.825175 27.884256 L 95.664336 27.884256 L 96.503497 29.408241 L 97.342657 28.499877 L 98.181818 28.499877 L 99.020979 27.914391 L 99.860140 29.731119 L 100.699301 29.731119 L 101.538462 29.731119 L 102.377622 29.731119 L 103.216783 29.731119 L 104.055944 26.945756 L 104.895105 28.499877 L 105.734266 28.535178 L 106.573427 28.623001 L 107.412587 28.623001 L 108.251748 28.623001 L 109.090909 28.623001 L 109.930070 30.962362 L 110.769231 30.962362 L 111.608392 28.499877 L 112.447552 28.746125 L 113.286713 28.951046 L 114.125874 28.992374 L 114.965035 36.800000 L 115.804196 33.424846 L 116.643357 34.532103 L 117.482517 34.656089 L 118.321678 34.656089 L 119.160839 35.271710 L 120.000000 35.271710"></path>
      <path stroke="none" fill-opacity="0.6" fill="url(#color_grad)" d="M 0 40 L 0.000000 14.340590 L 0.839161 14.340590 L 1.678322 14.340590 L 2.517483 16.187454 L 3.356643 16.187454 L 4.195804 14.340590 L 5.034965 14.340590 L 5.874126 13.724969 L 6.713287 13.724969 L 7.552448 13.848093 L 8.391608 13.724969 L 9.230769 13.724969 L 10.069930 13.724969 L 10.909091 13.724969 L 11.748252 13.724969 L 12.587413 8.800000 L 13.426573 8.800000 L 14.265734 8.800000 L 15.104895 8.800000 L 15.944056 11.262485 L 16.783217 11.262485 L 17.622378 11.262485 L 18.461538 8.800000 L 19.300699 8.800000 L 20.139860 10.031242 L 20.979021 10.031242 L 21.818182 10.501353 L 22.657343 10.031242 L 23.496503 10.031242 L 24.335664 10.031242 L 25.174825 10.031242 L 26.013986 13.724969 L 26.853147 10.031242 L 27.692308 10.031242 L 28.531469 10.031242 L 29.370629 10.031242 L 30.209790 11.262485 L 31.048951 18.649938 L 31.888112 18.649938 L 32.727273 19.881181 L 33.566434 18.649938 L 34.405594 19.536777 L 35.244755 18.649938 L 36.083916 19.265560 L 36.923077 18.649938 L 37.762238 17.418696 L 38.601399 19.265560 L 39.440559 19.265560 L 40.279720 19.265560 L 41.118881 24.313653 L 41.958042 19.881181 L 42.797203 20.496802 L 43.636364 22.343665 L 44.475524 22.959287 L 45.314685 22.959287 L 46.153846 33.424846 L 46.993007 23.002337 L 47.832168 32.193604 L 48.671329 23.082411 L 49.510490 21.618696 L 50.349650 22.343665 L 51.188811 22.343665 L 52.027972 20.004305 L 52.867133 21.112423 L 53.706294 21.112423 L 54.545455 21.112423 L 55.384615 22.533087 L 56.223776 21.112423 L 57.062937 21.112423 L 57.902098 21.112423 L 58.741259 21.112423 L 59.580420 22.343665 L 60.419580 22.356581 L 61.258741 23.153014 L 62.097902 26.037392 L 62.937063 26.037392 L 63.776224 26.653014 L 64.615385 32.193604 L 65.454545 32.193604 L 66.293706 32.193604 L 67.132867 32.193604 L 67.972028 21.481796 L 68.811189 21.481796 L 69.650350 21.481796 L 70.489510 21.481796 L 71.328671 21.481796 L 72.167832 21.481796 L 73.006993 21.481796 L 73.846154 21.851169 L 74.685315 26.037392 L 75.524476 26.037392 L 76.363636 26.037392 L 77.202797 26.037392 L 78.041958 26.160517 L 78.881119 26.037392 L 79.720280 26.037392 L 80.559441 26.037392 L 81.398601 26.037392 L 82.237762 32.193604 L 83.076923 32.809225 L 83.916084 23.574908 L 84.755245 28.499877 L 85.594406 28.499877 L 86.433566 28.499877 L 87.272727 30.962362 L 88.111888 30.962362 L 88.951049 30.962362 L 89.790210 30.962362 L 90.629371 30.962362 L 91.468531 30.962362 L 92.307692 30.962362 L 93.146853 30.962362 L 93.986014 27.884256 L 94.825175 27.884256 L 95.664336 27.884256 L 96.503497 29.408241 L 97.342657 28.499877 L 98.181818 28.499877 L 99.020979 27.914391 L 99.860140 29.731119 L 100.699301 29.731119 L 101.538462 29.731119 L 102.377622 29.731119 L 103.216783 29.731119 L 104.055944 26.945756 L 104.895105 28.499877 L 105.734266 28.535178 L 106.573427 28.623001 L 107.412587 28.623001 L 108.251748 28.623001 L 109.090909 28.623001 L 109.930070 30.962362 L 110.769231 30.962362 L 111.608392 28.499877 L 112.447552 28.746125 L 113.286713 28.951046 L 114.125874 28.992374 L 114.965035 36.800000 L 115.804196 33.424846 L 116.643357 34.532103 L 117.482517 34.656089 L 118.321678 34.656089 L 119.160839 35.271710 L 120.000000 35.271710 L 120 40 Z"></path>
    </g>
  </svg>