<svg xmlns="http://www.w3.org/2000/svg" viewBox="0 0 120 40" width="120" height="40">
    <defs>
      <linearGradient id="color_grad" x1="0%" x2="0%" y1="0%" y2="100%">
        <stop offset="0%" style="stop-color:#888888;stop-opacity:0.4;"></stop>
        <stop offset="100%" style="stop-color:#888888;stop-opacity:0.0;"></stop>
      </linearGradient>
    </defs>
    <g>
      <path stroke="#888888" stroke-width="2" stroke-linecap="round" stroke-linejoin="round" fill="none" d="M 0.000000 20.518244 L 0.839161 20.555359 L 1.678322 21.859912 L 2.517483 24.299742 L 3.356643 24.099364 L 4.195804 23.551194 L 5.034965 22.879030 L 5.874126 22.339085 L 6.713287 21.957200 L 7.552448 21.881893 L 8.391608 21.408402 L 9.230769 20.380402 L 10.069930 20.034106 L 10.909091 20.068799 L 11.748252 20.381897 L 12.587413 16.168808 L 13.426573 15.664154 L 14.265734 15.229273 L 15.104895 15.363886 L 15.944056 17.636804 L 16.783217 16.893131 L 17.622378 16.207718 L 18.461538 12.947443 L 19.300699 12.870491 L 20.139860 14.135297 L 20.979021 13.428470 L 21.818182 8.800000 L 22.657343 9.835089 L 23.496503 9.228092 L 24.335664 9.411961 L 25.174825 8.984916 L 26.013986 13.539994 L 26.853147 9.573700 L 27.692308 9.739236 L 28.531469 10.669560 L 29.370629 10.657567 L 30.209790 11.329462 L 31.048951 19.635682 L 31.888112 19.673874 L 32.727273 20.925311 L 33.566434 19.225864 L 34.405594 20.584309 L 35.244755 19.309873 L 36.083916 20.677231 L 36.923077 19.949768 L 37.762238 17.539516 L 38.601399 19.368102 L 39.440559 19.504988 L 40.279720 19.194790 L 41.118881 24.136479 L 41.958042 20.520068 L 42.797203 22.319436 L 43.636364 24.571808 L 44.475524 24.498595 L 45.314685 23.526521 L 46.153846 35.643398 L 46.993007 23.020850 L 47.832168 33.374667 L 48.671329 23.296893 L 49.510490 21.118093 L 50.349650 21.941349 L 51.188811 22.053980 L 52.027972 18.671354 L 52.867133 20.005066 L 53.706294 19.967443 L 54.545455 19.877512 L 55.384615 20.997567 L 56.223776 18.988879 L 57.062937 17.570470 L 57.902098 17.633424 L 58.741259 18.241857 L 59.580420 20.222223 L 60.419580 20.360783 L 61.258741 21.709239 L 62.097902 25.138849 L 62.937063 26.414421 L 63.776224 28.745300 L 64.615385 35.057157 L 65.454545 35.137279 L 66.293706 36.744911 L 67.132867 36.527456 L 67.972028 26.003287 L 68.811189 25.568137 L 69.650350 26.529474 L 70.489510 26.400275 L 71.328671 26.198671 L 72.167832 26.412208 L 73.006993 25.992520 L 73.846154 25.779282 L 74.685315 29.180659 L 75.524476 29.103887 L 76.363636 28.852039 L 77.202797 29.133705 L 78.041958 30.058795 L 78.881119 29.741479 L 79.720280 29.300497 L 80.559441 30.983197 L 81.398601 30.324610 L 82.237762 36.800000 L 83.076923 35.892436 L 83.916084 23.104650 L 84.755245 29.973170 L 85.594406 29.166662 L 86.433566 28.815103 L 87.272727 31.098489 L 88.111888 31.329313 L 88.951049 31.376955 L 89.790210 30.369411 L 90.629371 30.820561 L 91.468531 30.004752 L 92.307692 30.591921 L 93.146853 31.655959 L 93.986014 25.238589 L 94.825175 25.890297 L 95.664336 27.922792 L 96.503497 29.256414 L 97.342657 28.352588 L 98.181818 29.325201 L 99.020979 29.608242 L 99.860140 31.022644 L 100.699301 29.056783 L 101.538462 31.876256 L 102.377622 30.560967 L 103.216783 29.966441 L 104.055944 27.177743 L 104.895105 26.599876 L 105.734266 27.057486 L 106.573427 26.900832 L 107.412587 26.461854 L 108.251748 26.028289 L 109.090909 25.917423 L 109.930070 27.987929 L 110.769231 27.145862 L 111.608392 24.662816 L 112.447552 24.863792 L 113.286713 24.436986 L 114.125874 24.482744 L 114.965035 34.452972 L 115.804196 28.476015 L 116.643357 27.608257 L 117.482517 29.056006 L 118.321678 30.114213 L 119.160839 31.070795 L 120.000000 31.334098"></path>
      <path stroke="none" fill-opacity="0.6" fill="url(#color_grad)" d="M 0 40 L 0.000000 20.518244 L 0.839161 20.555359 L 1.678322 21.859912 L 2.517483 24.299742 L 3.356643 24.099364 L 4.195804 23.551194 L 5.034965 22.879030 L 5.874126 22.339085 L 6.713287 21.957200 L 7.552448 21.881893 L 8.391608 21.408402 L 9.230769 20.380402 L 10.069930 20.034106 L 10.909091 20.068799 L 11.748252 20.381897 L 12.587413 16.168808 L 13.426573 15.664154 L 14.265734 15.229273 L 15.104895 15.363886 L 15.944056 17.636804 L 16.783217 16.893131 L 17.622378 16.207718 L 18.461538 12.947443 L 19.300699 12.870491 L 20.139860 14.135297 L 20.979021 13.428470 L 21.818182 8.800000 L 22.657343 9.835089 L 23.496503 9.228092 L 24.335664 9.411961 L 25.174825 8.984916 L 26.013986 13.539994 L 26.853147 9.573700 L 27.692308 9.739236 L 28.531469 10.669560 L 29.370629 10.657567 L 30.209790 11.329462 L 31.048951 19.635682 L 31.888112 19.673874 L 32.727273 20.925311 L 33.566434 19.225864 L 34.405594 20.584309 L 35.244755 19.309873 L 36.083916 20.677231 L 36.923077 19.949768 L 37.762238 17.539516 L 38.601399 19.368102 L 39.440559 19.504988 L 40.279720 19.194790 L 41.118881 24.136479 L 41.958042 20.520068 L 42.797203 22.319436 L 43.636364 24.571808 L 44.475524 24.498595 L 45.314685 23.526521 L 46.153846 35.643398 L 46.993007 23.020850 L 47.832168 33.374667 L 48.671329 23.296893 L 49.510490 21.118093 L 50.349650 21.941349 L 51.188811 22.053980 L 52.027972 18.671354 L 52.867133 20.005066 L 53.706294 19.967443 L 54.545455 19.877512 L 55.384615 20.997567 L 56.223776 18.988879 L 57.062937 17.570470 L 57.902098 17.633424 L 58.741259 18.241857 L 59.580420 20.222223 L 60.419580 20.360783 L 61.258741 21.709239 L 62.097902 25.138849 L 62.937063 26.414421 L 63.776224 28.745300 L 64.615385 35.057157 L 65.454545 35.137279 L 66.293706 36.744911 L 67.132867 36.527456 L 67.972028 26.003287 L 68.811189 25.568137 L 69.650350 26.529474 L 70.489510 26.400275 L 71.328671 26.198671 L 72.167832 26.412208 L 73.006993 25.992520 L 73.846154 25.779282 L 74.685315 29.180659 L 75.524476 29.103887 L 76.363636 28.852039 L 77.202797 29.133705 L 78.041958 30.058795 L 78.881119 29.741479 L 79.720280 29.300497 L 80.559441 30.983197 L 81.398601 30.324610 L 82.237762 36.800000 L 83.076923 35.892436 L 83.916084 23.104650 L 84.755245 29.973170 L 85.594406 29.166662 L 86.433566 28.815103 L 87.272727 31.098489 L 88.111888 31.329313 L 88.951049 31.376955 L 89.790210 30.369411 L 90.629371 30.820561 L 91.468531 30.004752 L 92.307692 30.591921 L 93.146853 31.655959 L 93.986014 25.238589 L 94.825175 25.890297 L 95.664336 27.922792 L 96.503497 29.256414 L 97.342657 28.352588 L 98.181818 29.325201 L 99.020979 29.608242 L 99.860140 31.022644 L 100.699301 29.056783 L 101.538462 31.876256 L 102.377622 30.560967 L 103.216783 29.966441 L 104.055944 27.177743 L 104.895105 26.599876 L 105.734266 27.057486 L 106.573427 26.900832 L 107.412587 26.461854 L 108.251748 26.028289 L 109.090909 25.917423 L 109.930070 27.987929 L 110.769231 27.145862 L 111.608392 24.662816 L 112.447552 24.863792 L 113.286713 24.436986 L 114.125874 24.482744 L 114.965035 34.452972 L 115.804196 28.476015 L 116.643357 27.608257 L 117.482517 29.056006 L 118.321678 30.114213 L 119.160839 31.070795 L 120.000000 31.334098 L 120 40 Z"></path>
    </g>
  </svg>