<svg xmlns="http://www.w3.org/2000/svg" viewBox="0 0 120 40" width="120" height="40">
    <defs>
      <linearGradient id="color_grad" x1="0%" x2="0%" y1="0%" y2="100%">
        <stop offset="0%" style="stop-color:#16C784;stop-opacity:0.4;"></stop>
        <stop offset="100%" style="stop-color:#16C784;stop-opacity:0.0;"></stop>
      </linearGradient>
    </defs>
    <g>
      <path stroke="#16C784" stroke-width="2" stroke-linecap="round" stroke-linejoin="round" fill="none" d="M 0.000000 9.075885 L 0.839161 9.132626 L 1.678322 10.968502 L 2.517483 11.596686 L 3.356643 11.309804 L 4.195804 13.348755 L 5.034965 12.401896 L 5.874126 12.573117 L 6.713287 12.036623 L 7.552448 11.747134 L 8.391608 11.267767 L 9.230769 11.659639 L 10.069930 11.180416 L 10.909091 9.485210 L 11.748252 9.924597 L 12.587413 14.578097 L 13.426573 19.809068 L 14.265734 23.824139 L 15.104895 18.423963 L 15.944056 18.903859 L 16.783217 18.126959 L 17.622378 21.682053 L 18.461538 16.550470 L 19.300699 16.455032 L 20.139860 16.324809 L 20.979021 15.417624 L 21.818182 8.800000 L 22.657343 9.667063 L 23.496503 9.894557 L 24.335664 14.913614 L 25.174825 11.186200 L 26.013986 11.563204 L 26.853147 15.926807 L 27.692308 12.430755 L 28.531469 13.609690 L 29.370629 16.463097 L 30.209790 15.640739 L 31.048951 15.507277 L 31.888112 18.802861 L 32.727273 16.970630 L 33.566434 19.596177 L 34.405594 16.475704 L 35.244755 16.131001 L 36.083916 17.016129 L 36.923077 16.698554 L 37.762238 14.410134 L 38.601399 13.995350 L 39.440559 14.181785 L 40.279720 13.759425 L 41.118881 12.465114 L 41.958042 19.433754 L 42.797203 24.713544 L 43.636364 16.283037 L 44.475524 15.194407 L 45.314685 14.800764 L 46.153846 15.749557 L 46.993007 16.027682 L 47.832168 24.221408 L 48.671329 21.498937 L 49.510490 20.863992 L 50.349650 23.383225 L 51.188811 23.529171 L 52.027972 22.696385 L 52.867133 22.838096 L 53.706294 22.791314 L 54.545455 22.676304 L 55.384615 21.957917 L 56.223776 21.532929 L 57.062937 22.613148 L 57.902098 22.689644 L 58.741259 20.567578 L 59.580420 24.122366 L 60.419580 21.440913 L 61.258741 30.736100 L 62.097902 23.951002 L 62.937063 24.576254 L 63.776224 34.470765 L 64.615385 34.392110 L 65.454545 32.396601 L 66.293706 29.101119 L 67.132867 28.786477 L 67.972028 30.875468 L 68.811189 31.564548 L 69.650350 34.355471 L 70.489510 34.192661 L 71.328671 31.128542 L 72.167832 31.405160 L 73.006993 30.863839 L 73.846154 30.057998 L 74.685315 28.296092 L 75.524476 28.194382 L 76.363636 27.857744 L 77.202797 31.099092 L 78.041958 29.292686 L 78.881119 29.050141 L 79.720280 27.601737 L 80.559441 33.537410 L 81.398601 36.800000 L 82.237762 28.324015 L 83.076923 18.489462 L 83.916084 17.134336 L 84.755245 23.581880 L 85.594406 23.823203 L 86.433566 31.784975 L 87.272727 30.979317 L 88.111888 31.387237 L 88.951049 31.450740 L 89.790210 30.097020 L 90.629371 30.701253 L 91.468531 24.520938 L 92.307692 25.338551 L 93.146853 26.815876 L 93.986014 17.999668 L 94.825175 19.909190 L 95.664336 22.712597 L 96.503497 22.071195 L 97.342657 26.249117 L 98.181818 32.452201 L 99.020979 33.706126 L 99.860140 27.929393 L 100.699301 25.231077 L 101.538462 29.091078 L 102.377622 23.081577 L 103.216783 31.396300 L 104.055944 22.905162 L 104.895105 19.572430 L 105.734266 20.149677 L 106.573427 19.788131 L 107.412587 24.493830 L 108.251748 18.671050 L 109.090909 18.517384 L 109.930070 17.456758 L 110.769231 17.804822 L 111.608392 22.275491 L 112.447552 24.312691 L 113.286713 23.271413 L 114.125874 21.218531 L 114.965035 21.847999 L 115.804196 22.483698 L 116.643357 15.989862 L 117.482517 18.369422 L 118.321678 23.512512 L 119.160839 23.788254 L 120.000000 29.325863"></path>
      <path stroke="none" fill-opacity="0.6" fill="url(#color_grad)" d="M 0 40 L 0.000000 9.075885 L 0.839161 9.132626 L 1.678322 10.968502 L 2.517483 11.596686 L 3.356643 11.309804 L 4.195804 13.348755 L 5.034965 12.401896 L 5.874126 12.573117 L 6.713287 12.036623 L 7.552448 11.747134 L 8.391608 11.267767 L 9.230769 11.659639 L 10.069930 11.180416 L 10.909091 9.485210 L 11.748252 9.924597 L 12.587413 14.578097 L 13.426573 19.809068 L 14.265734 23.824139 L 15.104895 18.423963 L 15.944056 18.903859 L 16.783217 18.126959 L 17.622378 21.682053 L 18.461538 16.550470 L 19.300699 16.455032 L 20.139860 16.324809 L 20.979021 15.417624 L 21.818182 8.800000 L 22.657343 9.667063 L 23.496503 9.894557 L 24.335664 14.913614 L 25.174825 11.186200 L 26.013986 11.563204 L 26.853147 15.926807 L 27.692308 12.430755 L 28.531469 13.609690 L 29.370629 16.463097 L 30.209790 15.640739 L 31.048951 15.507277 L 31.888112 18.802861 L 32.727273 16.970630 L 33.566434 19.596177 L 34.405594 16.475704 L 35.244755 16.131001 L 36.083916 17.016129 L 36.923077 16.698554 L 37.762238 14.410134 L 38.601399 13.995350 L 39.440559 14.181785 L 40.279720 13.759425 L 41.118881 12.465114 L 41.958042 19.433754 L 42.797203 24.713544 L 43.636364 16.283037 L 44.475524 15.194407 L 45.314685 14.800764 L 46.153846 15.749557 L 46.993007 16.027682 L 47.832168 24.221408 L 48.671329 21.498937 L 49.510490 20.863992 L 50.349650 23.383225 L 51.188811 23.529171 L 52.027972 22.696385 L 52.867133 22.838096 L 53.706294 22.791314 L 54.545455 22.676304 L 55.384615 21.957917 L 56.223776 21.532929 L 57.062937 22.613148 L 57.902098 22.689644 L 58.741259 20.567578 L 59.580420 24.122366 L 60.419580 21.440913 L 61.258741 30.736100 L 62.097902 23.951002 L 62.937063 24.576254 L 63.776224 34.470765 L 64.615385 34.392110 L 65.454545 32.396601 L 66.293706 29.101119 L 67.132867 28.786477 L 67.972028 30.875468 L 68.811189 31.564548 L 69.650350 34.355471 L 70.489510 34.192661 L 71.328671 31.128542 L 72.167832 31.405160 L 73.006993 30.863839 L 73.846154 30.057998 L 74.685315 28.296092 L 75.524476 28.194382 L 76.363636 27.857744 L 77.202797 31.099092 L 78.041958 29.292686 L 78.881119 29.050141 L 79.720280 27.601737 L 80.559441 33.537410 L 81.398601 36.800000 L 82.237762 28.324015 L 83.076923 18.489462 L 83.916084 17.134336 L 84.755245 23.581880 L 85.594406 23.823203 L 86.433566 31.784975 L 87.272727 30.979317 L 88.111888 31.387237 L 88.951049 31.450740 L 89.790210 30.097020 L 90.629371 30.701253 L 91.468531 24.520938 L 92.307692 25.338551 L 93.146853 26.815876 L 93.986014 17.999668 L 94.825175 19.909190 L 95.664336 22.712597 L 96.503497 22.071195 L 97.342657 26.249117 L 98.181818 32.452201 L 99.020979 33.706126 L 99.860140 27.929393 L 100.699301 25.231077 L 101.538462 29.091078 L 102.377622 23.081577 L 103.216783 31.396300 L 104.055944 22.905162 L 104.895105 19.572430 L 105.734266 20.149677 L 106.573427 19.788131 L 107.412587 24.493830 L 108.251748 18.671050 L 109.090909 18.517384 L 109.930070 17.456758 L 110.769231 17.804822 L 111.608392 22.275491 L 112.447552 24.312691 L 113.286713 23.271413 L 114.125874 21.218531 L 114.965035 21.847999 L 115.804196 22.483698 L 116.643357 15.989862 L 117.482517 18.369422 L 118.321678 23.512512 L 119.160839 23.788254 L 120.000000 29.325863 L 120 40 Z"></path>
    </g>
  </svg>