<svg xmlns="http://www.w3.org/2000/svg" viewBox="0 0 120 40" width="120" height="40">
    <defs>
      <linearGradient id="color_grad" x1="0%" x2="0%" y1="0%" y2="100%">
        <stop offset="0%" style="stop-color:#EA3943;stop-opacity:0.4;"></stop>
        <stop offset="100%" style="stop-color:#EA3943;stop-opacity:0.0;"></stop>
      </linearGradient>
    </defs>
    <g>
      <path stroke="#EA3943" stroke-width="2" stroke-linecap="round" stroke-linejoin="round" fill="none" d="M 0.000000 8.800000 L 0.839161 8.800000 L 1.678322 8.800000 L 2.517483 8.800000 L 3.356643 8.800000 L 4.195804 8.800000 L 5.034965 8.800000 L 5.874126 8.800000 L 6.713287 8.800000 L 7.552448 8.800000 L 8.391608 8.800000 L 9.230769 10.200000 L 10.069930 10.200000 L 10.909091 8.870000 L 11.748252 8.870000 L 12.587413 11.262238 L 13.426573 15.800000 L 14.265734 19.300000 L 15.104895 15.029021 L 15.944056 15.800000 L 16.783217 15.940000 L 17.622378 19.300000 L 18.461538 15.940000 L 19.300699 15.940000 L 20.139860 15.940000 L 20.979021 15.940000 L 21.818182 15.940000 L 22.657343 15.100000 L 23.496503 15.834266 L 24.335664 19.300000 L 25.174825 16.990000 L 26.013986 16.990000 L 26.853147 19.888881 L 27.692308 17.200000 L 28.531469 17.200000 L 29.370629 19.300000 L 30.209790 19.371469 L 31.048951 19.440000 L 31.888112 21.796503 L 32.727273 20.623636 L 33.566434 22.800000 L 34.405594 20.210000 L 35.244755 20.210000 L 36.083916 20.210000 L 36.923077 20.000000 L 37.762238 19.300000 L 38.601399 19.300000 L 39.440559 19.300000 L 40.279720 19.300000 L 41.118881 19.300000 L 41.958042 22.800000 L 42.797203 25.600000 L 43.636364 19.300000 L 44.475524 19.300000 L 45.314685 20.000000 L 46.153846 20.700000 L 46.993007 21.434266 L 47.832168 27.670629 L 48.671329 25.180000 L 49.510490 25.180000 L 50.349650 27.000000 L 51.188811 27.000000 L 52.027972 27.000000 L 52.867133 27.070000 L 53.706294 27.070000 L 54.545455 27.070000 L 55.384615 27.070000 L 56.223776 27.070000 L 57.062937 29.100000 L 57.902098 29.100000 L 58.741259 27.070000 L 59.580420 29.100000 L 60.419580 27.097902 L 61.258741 33.300000 L 62.097902 28.470000 L 62.937063 27.700000 L 63.776224 33.300000 L 64.615385 33.300000 L 65.454545 31.772727 L 66.293706 27.700000 L 67.132867 27.700000 L 67.972028 27.700000 L 68.811189 28.625175 L 69.650350 29.800000 L 70.489510 29.800000 L 71.328671 27.700000 L 72.167832 27.700000 L 73.006993 27.700000 L 73.846154 27.700000 L 74.685315 27.700000 L 75.524476 27.700000 L 76.363636 27.700000 L 77.202797 29.800000 L 78.041958 27.700000 L 78.881119 27.700000 L 79.720280 27.070000 L 80.559441 29.800000 L 81.398601 32.864336 L 82.237762 27.070000 L 83.076923 21.615385 L 83.916084 22.800000 L 84.755245 26.300000 L 85.594406 27.279021 L 86.433566 33.300000 L 87.272727 33.300000 L 88.111888 33.370000 L 88.951049 33.370000 L 89.790210 33.370000 L 90.629371 33.370000 L 91.468531 29.800000 L 92.307692 29.800000 L 93.146853 29.800000 L 93.986014 26.300000 L 94.825175 27.000000 L 95.664336 27.000000 L 96.503497 27.000000 L 97.342657 29.800000 L 98.181818 33.300000 L 99.020979 33.300000 L 99.860140 29.802448 L 100.699301 29.800000 L 101.538462 29.800000 L 102.377622 26.790000 L 103.216783 33.300000 L 104.055944 26.790000 L 104.895105 26.790000 L 105.734266 26.790000 L 106.573427 26.790000 L 107.412587 30.500000 L 108.251748 26.860000 L 109.090909 26.860000 L 109.930070 26.860000 L 110.769231 27.920769 L 111.608392 30.500000 L 112.447552 31.993007 L 113.286713 31.890210 L 114.125874 30.500000 L 114.965035 30.500000 L 115.804196 32.712587 L 116.643357 30.500000 L 117.482517 30.850000 L 118.321678 33.300000 L 119.160839 33.300000 L 120.000000 36.800000"></path>
      <path stroke="none" fill-opacity="0.6" fill="url(#color_grad)" d="M 0 40 L 0.000000 8.800000 L 0.839161 8.800000 L 1.678322 8.800000 L 2.517483 8.800000 L 3.356643 8.800000 L 4.195804 8.800000 L 5.034965 8.800000 L 5.874126 8.800000 L 6.713287 8.800000 L 7.552448 8.800000 L 8.391608 8.800000 L 9.230769 10.200000 L 10.069930 10.200000 L 10.909091 8.870000 L 11.748252 8.870000 L 12.587413 11.262238 L 13.426573 15.800000 L 14.265734 19.300000 L 15.104895 15.029021 L 15.944056 15.800000 L 16.783217 15.940000 L 17.622378 19.300000 L 18.461538 15.940000 L 19.300699 15.940000 L 20.139860 15.940000 L 20.979021 15.940000 L 21.818182 15.940000 L 22.657343 15.100000 L 23.496503 15.834266 L 24.335664 19.300000 L 25.174825 16.990000 L 26.013986 16.990000 L 26.853147 19.888881 L 27.692308 17.200000 L 28.531469 17.200000 L 29.370629 19.300000 L 30.209790 19.371469 L 31.048951 19.440000 L 31.888112 21.796503 L 32.727273 20.623636 L 33.566434 22.800000 L 34.405594 20.210000 L 35.244755 20.210000 L 36.083916 20.210000 L 36.923077 20.000000 L 37.762238 19.300000 L 38.601399 19.300000 L 39.440559 19.300000 L 40.279720 19.300000 L 41.118881 19.300000 L 41.958042 22.800000 L 42.797203 25.600000 L 43.636364 19.300000 L 44.475524 19.300000 L 45.314685 20.000000 L 46.153846 20.700000 L 46.993007 21.434266 L 47.832168 27.670629 L 48.671329 25.180000 L 49.510490 25.180000 L 50.349650 27.000000 L 51.188811 27.000000 L 52.027972 27.000000 L 52.867133 27.070000 L 53.706294 27.070000 L 54.545455 27.070000 L 55.384615 27.070000 L 56.223776 27.070000 L 57.062937 29.100000 L 57.902098 29.100000 L 58.741259 27.070000 L 59.580420 29.100000 L 60.419580 27.097902 L 61.258741 33.300000 L 62.097902 28.470000 L 62.937063 27.700000 L 63.776224 33.300000 L 64.615385 33.300000 L 65.454545 31.772727 L 66.293706 27.700000 L 67.132867 27.700000 L 67.972028 27.700000 L 68.811189 28.625175 L 69.650350 29.800000 L 70.489510 29.800000 L 71.328671 27.700000 L 72.167832 27.700000 L 73.006993 27.700000 L 73.846154 27.700000 L 74.685315 27.700000 L 75.524476 27.700000 L 76.363636 27.700000 L 77.202797 29.800000 L 78.041958 27.700000 L 78.881119 27.700000 L 79.720280 27.070000 L 80.559441 29.800000 L 81.398601 32.864336 L 82.237762 27.070000 L 83.076923 21.615385 L 83.916084 22.800000 L 84.755245 26.300000 L 85.594406 27.279021 L 86.433566 33.300000 L 87.272727 33.300000 L 88.111888 33.370000 L 88.951049 33.370000 L 89.790210 33.370000 L 90.629371 33.370000 L 91.468531 29.800000 L 92.307692 29.800000 L 93.146853 29.800000 L 93.986014 26.300000 L 94.825175 27.000000 L 95.664336 27.000000 L 96.503497 27.000000 L 97.342657 29.800000 L 98.181818 33.300000 L 99.020979 33.300000 L 99.860140 29.802448 L 100.699301 29.800000 L 101.538462 29.800000 L 102.377622 26.790000 L 103.216783 33.300000 L 104.055944 26.790000 L 104.895105 26.790000 L 105.734266 26.790000 L 106.573427 26.790000 L 107.412587 30.500000 L 108.251748 26.860000 L 109.090909 26.860000 L 109.930070 26.860000 L 110.769231 27.920769 L 111.608392 30.500000 L 112.447552 31.993007 L 113.286713 31.890210 L 114.125874 30.500000 L 114.965035 30.500000 L 115.804196 32.712587 L 116.643357 30.500000 L 117.482517 30.850000 L 118.321678 33.300000 L 119.160839 33.300000 L 120.000000 36.800000 L 120 40 Z"></path>
    </g>
  </svg>