<svg xmlns="http://www.w3.org/2000/svg" viewBox="0 0 120 40" width="120" height="40">
    <defs>
      <linearGradient id="color_grad" x1="0%" x2="0%" y1="0%" y2="100%">
        <stop offset="0%" style="stop-color:#EA3943;stop-opacity:0.4;"></stop>
        <stop offset="100%" style="stop-color:#EA3943;stop-opacity:0.0;"></stop>
      </linearGradient>
    </defs>
    <g>
      <path stroke="#EA3943" stroke-width="2" stroke-linecap="round" stroke-linejoin="round" fill="none" d="M 0.000000 18.862500 L 0.839161 23.018750 L 1.678322 22.660795 L 2.517483 18.753125 L 3.356643 18.753125 L 4.195804 18.753125 L 5.034965 18.753125 L 5.874126 18.753125 L 6.713287 18.753125 L 7.552448 18.753125 L 8.391608 18.643750 L 9.230769 18.643750 L 10.069930 18.643750 L 10.909091 18.643750 L 11.748252 18.964991 L 12.587413 15.362500 L 13.426573 15.362500 L 14.265734 15.362500 L 15.104895 8.800000 L 15.944056 12.287762 L 16.783217 16.456250 L 17.622378 16.456250 L 18.461538 16.456250 L 19.300699 16.456250 L 20.139860 16.456250 L 20.979021 16.456250 L 21.818182 16.456250 L 22.657343 16.456250 L 23.496503 18.643750 L 24.335664 16.456250 L 25.174825 16.456250 L 26.013986 9.893750 L 26.853147 12.599825 L 27.692308 18.643750 L 28.531469 20.831250 L 29.370629 21.378125 L 30.209790 21.378125 L 31.048951 21.378125 L 31.888112 23.003453 L 32.727273 21.378125 L 33.566434 21.378125 L 34.405594 21.378125 L 35.244755 22.471875 L 36.083916 22.471875 L 36.923077 21.546394 L 37.762238 21.378125 L 38.601399 20.831250 L 39.440559 20.831250 L 40.279720 20.831250 L 41.118881 20.831250 L 41.958042 20.831250 L 42.797203 20.831250 L 43.636364 20.831250 L 44.475524 20.831250 L 45.314685 25.315625 L 46.153846 25.315625 L 46.993007 25.315625 L 47.832168 25.315625 L 48.671329 25.315625 L 49.510490 23.346875 L 50.349650 23.346875 L 51.188811 23.346875 L 52.027972 25.206250 L 52.867133 23.565625 L 53.706294 23.565625 L 54.545455 23.565625 L 55.384615 23.565625 L 56.223776 26.081250 L 57.062937 26.595236 L 57.902098 26.081250 L 58.741259 23.565625 L 59.580420 22.471875 L 60.419580 22.471875 L 61.258741 22.471875 L 62.097902 25.206250 L 62.937063 25.206250 L 63.776224 29.581250 L 64.615385 27.940625 L 65.454545 27.940625 L 66.293706 27.940625 L 67.132867 27.940625 L 67.972028 27.940625 L 68.811189 22.800000 L 69.650350 22.800000 L 70.489510 24.112500 L 71.328671 24.112500 L 72.167832 24.112500 L 73.006993 24.112500 L 73.846154 24.112500 L 74.685315 24.112500 L 75.524476 24.112500 L 76.363636 24.112500 L 77.202797 24.112500 L 78.041958 24.112500 L 78.881119 22.471875 L 79.720280 22.471875 L 80.559441 22.471875 L 81.398601 22.586604 L 82.237762 26.300000 L 83.076923 26.653365 L 83.916084 27.393750 L 84.755245 26.300000 L 85.594406 26.300000 L 86.433566 24.112500 L 87.272727 24.112500 L 88.111888 24.659375 L 88.951049 24.659375 L 89.790210 25.206250 L 90.629371 25.206250 L 91.468531 25.206250 L 92.307692 25.206250 L 93.146853 29.581250 L 93.986014 25.206250 L 94.825175 25.206250 L 95.664336 26.956250 L 96.503497 26.956250 L 97.342657 28.487500 L 98.181818 30.893750 L 99.020979 31.659375 L 99.860140 31.768750 L 100.699301 31.768750 L 101.538462 31.768750 L 102.377622 31.781753 L 103.216783 31.878125 L 104.055944 31.659375 L 104.895105 31.659375 L 105.734266 31.659375 L 106.573427 31.659375 L 107.412587 31.659375 L 108.251748 31.659375 L 109.090909 31.659375 L 109.930070 31.221875 L 110.769231 31.221875 L 111.608392 31.221875 L 112.447552 31.221875 L 113.286713 31.585184 L 114.125874 31.768750 L 114.965035 31.768750 L 115.804196 33.294646 L 116.643357 32.862500 L 117.482517 32.862500 L 118.321678 33.409375 L 119.160839 36.800000 L 120.000000 36.800000"></path>
      <path stroke="none" fill-opacity="0.6" fill="url(#color_grad)" d="M 0 40 L 0.000000 18.862500 L 0.839161 23.018750 L 1.678322 22.660795 L 2.517483 18.753125 L 3.356643 18.753125 L 4.195804 18.753125 L 5.034965 18.753125 L 5.874126 18.753125 L 6.713287 18.753125 L 7.552448 18.753125 L 8.391608 18.643750 L 9.230769 18.643750 L 10.069930 18.643750 L 10.909091 18.643750 L 11.748252 18.964991 L 12.587413 15.362500 L 13.426573 15.362500 L 14.265734 15.362500 L 15.104895 8.800000 L 15.944056 12.287762 L 16.783217 16.456250 L 17.622378 16.456250 L 18.461538 16.456250 L 19.300699 16.456250 L 20.139860 16.456250 L 20.979021 16.456250 L 21.818182 16.456250 L 22.657343 16.456250 L 23.496503 18.643750 L 24.335664 16.456250 L 25.174825 16.456250 L 26.013986 9.893750 L 26.853147 12.599825 L 27.692308 18.643750 L 28.531469 20.831250 L 29.370629 21.378125 L 30.209790 21.378125 L 31.048951 21.378125 L 31.888112 23.003453 L 32.727273 21.378125 L 33.566434 21.378125 L 34.405594 21.378125 L 35.244755 22.471875 L 36.083916 22.471875 L 36.923077 21.546394 L 37.762238 21.378125 L 38.601399 20.831250 L 39.440559 20.831250 L 40.279720 20.831250 L 41.118881 20.831250 L 41.958042 20.831250 L 42.797203 20.831250 L 43.636364 20.831250 L 44.475524 20.831250 L 45.314685 25.315625 L 46.153846 25.315625 L 46.993007 25.315625 L 47.832168 25.315625 L 48.671329 25.315625 L 49.510490 23.346875 L 50.349650 23.346875 L 51.188811 23.346875 L 52.027972 25.206250 L 52.867133 23.565625 L 53.706294 23.565625 L 54.545455 23.565625 L 55.384615 23.565625 L 56.223776 26.081250 L 57.062937 26.595236 L 57.902098 26.081250 L 58.741259 23.565625 L 59.580420 22.471875 L 60.419580 22.471875 L 61.258741 22.471875 L 62.097902 25.206250 L 62.937063 25.206250 L 63.776224 29.581250 L 64.615385 27.940625 L 65.454545 27.940625 L 66.293706 27.940625 L 67.132867 27.940625 L 67.972028 27.940625 L 68.811189 22.800000 L 69.650350 22.800000 L 70.489510 24.112500 L 71.328671 24.112500 L 72.167832 24.112500 L 73.006993 24.112500 L 73.846154 24.112500 L 74.685315 24.112500 L 75.524476 24.112500 L 76.363636 24.112500 L 77.202797 24.112500 L 78.041958 24.112500 L 78.881119 22.471875 L 79.720280 22.471875 L 80.559441 22.471875 L 81.398601 22.586604 L 82.237762 26.300000 L 83.076923 26.653365 L 83.916084 27.393750 L 84.755245 26.300000 L 85.594406 26.300000 L 86.433566 24.112500 L 87.272727 24.112500 L 88.111888 24.659375 L 88.951049 24.659375 L 89.790210 25.206250 L 90.629371 25.206250 L 91.468531 25.206250 L 92.307692 25.206250 L 93.146853 29.581250 L 93.986014 25.206250 L 94.825175 25.206250 L 95.664336 26.956250 L 96.503497 26.956250 L 97.342657 28.487500 L 98.181818 30.893750 L 99.020979 31.659375 L 99.860140 31.768750 L 100.699301 31.768750 L 101.538462 31.768750 L 102.377622 31.781753 L 103.216783 31.878125 L 104.055944 31.659375 L 104.895105 31.659375 L 105.734266 31.659375 L 106.573427 31.659375 L 107.412587 31.659375 L 108.251748 31.659375 L 109.090909 31.659375 L 109.930070 31.221875 L 110.769231 31.221875 L 111.608392 31.221875 L 112.447552 31.221875 L 113.286713 31.585184 L 114.125874 31.768750 L 114.965035 31.768750 L 115.804196 33.294646 L 116.643357 32.862500 L 117.482517 32.862500 L 118.321678 33.409375 L 119.160839 36.800000 L 120.000000 36.800000 L 120 40 Z"></path>
    </g>
  </svg>