<svg xmlns="http://www.w3.org/2000/svg" viewBox="0 0 120 40" width="120" height="40">
    <defs>
      <linearGradient id="color_grad" x1="0%" x2="0%" y1="0%" y2="100%">
        <stop offset="0%" style="stop-color:#EA3943;stop-opacity:0.4;"></stop>
        <stop offset="100%" style="stop-color:#EA3943;stop-opacity:0.0;"></stop>
      </linearGradient>
    </defs>
    <g>
      <path stroke="#EA3943" stroke-width="2" stroke-linecap="round" stroke-linejoin="round" fill="none" d="M 0.000000 24.364742 L 0.839161 29.223704 L 1.678322 29.718618 L 2.517483 25.556348 L 3.356643 25.407443 L 4.195804 26.472399 L 5.034965 25.975063 L 5.874126 26.065825 L 6.713287 25.787114 L 7.552448 25.635195 L 8.391608 25.258820 L 9.230769 24.506351 L 10.069930 24.252880 L 10.909091 24.278317 L 11.748252 24.877768 L 12.587413 21.560139 L 13.426573 21.190468 L 14.265734 20.874179 L 15.104895 13.401097 L 15.944056 17.109665 L 16.783217 21.386219 L 17.622378 20.882123 L 18.461538 20.488001 L 19.300699 20.433379 L 20.139860 20.362251 L 20.979021 19.845619 L 21.818182 16.074570 L 22.657343 17.226203 L 23.496503 19.456595 L 24.335664 16.916449 L 25.174825 16.605372 L 26.013986 8.800000 L 26.853147 12.330930 L 27.692308 19.818379 L 28.531469 23.122318 L 29.370629 23.777207 L 30.209790 23.270941 L 31.048951 23.145783 L 31.888112 25.154085 L 32.727273 23.054823 L 33.566434 22.842170 L 34.405594 23.095500 L 35.244755 24.240373 L 36.083916 24.723173 L 36.923077 23.582948 L 37.762238 22.650672 L 38.601399 21.750397 L 39.440559 21.852202 L 40.279720 21.620845 L 41.118881 20.903250 L 41.958042 22.083307 L 42.797203 22.907721 L 43.636364 23.016371 L 44.475524 22.411146 L 45.314685 27.169120 L 46.153846 27.156950 L 46.993007 26.762659 L 47.832168 26.482568 L 48.671329 26.898831 L 49.510490 24.115750 L 50.349650 24.100116 L 51.188811 24.182343 L 52.027972 26.020219 L 52.867133 24.002508 L 53.706294 23.976704 L 54.545455 23.912111 L 55.384615 23.501144 L 56.223776 26.412932 L 57.062937 26.056107 L 57.902098 25.450853 L 58.741259 22.710815 L 59.580420 21.719889 L 60.419580 21.812032 L 61.258741 22.124434 L 62.097902 25.562996 L 62.937063 26.523498 L 63.776224 33.078107 L 64.615385 31.035551 L 65.454545 31.095243 L 66.293706 32.339244 L 67.132867 32.170564 L 67.972028 33.294394 L 68.811189 26.876070 L 69.650350 27.590735 L 70.489510 29.045362 L 71.328671 28.897668 L 72.167832 29.055447 L 73.006993 28.748144 L 73.846154 28.287963 L 74.685315 27.286390 L 75.524476 27.230530 L 76.363636 27.036947 L 77.202797 27.252192 L 78.041958 27.852826 L 78.881119 25.745311 L 79.720280 25.402345 L 80.559441 26.719081 L 81.398601 26.340536 L 82.237762 30.410465 L 83.076923 29.564614 L 83.916084 28.916796 L 84.755245 28.397910 L 85.594406 27.785585 L 86.433566 24.802527 L 87.272727 24.318600 L 88.111888 25.186706 L 88.951049 25.222002 L 89.790210 25.104112 L 90.629371 25.462628 L 91.468531 24.815513 L 92.307692 25.281947 L 93.146853 31.561648 L 93.986014 23.964422 L 94.825175 24.467364 L 95.664336 28.204722 L 96.503497 27.856967 L 97.342657 29.891749 L 98.181818 33.584345 L 99.020979 35.201821 L 99.860140 34.850826 L 100.699301 33.455131 L 101.538462 35.455489 L 102.377622 34.539861 L 103.216783 34.236642 L 104.055944 34.297348 L 104.895105 32.615476 L 105.734266 32.909681 L 106.573427 32.724944 L 107.412587 32.416880 L 108.251748 32.111408 L 109.090909 32.036026 L 109.930070 30.937605 L 110.769231 30.325956 L 111.608392 30.695881 L 112.447552 30.625569 L 113.286713 30.617428 L 114.125874 30.849518 L 114.965035 31.175780 L 115.804196 31.803710 L 116.643357 29.590953 L 117.482517 30.539032 L 118.321678 32.035012 L 119.160839 36.616136 L 120.000000 36.800000"></path>
      <path stroke="none" fill-opacity="0.6" fill="url(#color_grad)" d="M 0 40 L 0.000000 24.364742 L 0.839161 29.223704 L 1.678322 29.718618 L 2.517483 25.556348 L 3.356643 25.407443 L 4.195804 26.472399 L 5.034965 25.975063 L 5.874126 26.065825 L 6.713287 25.787114 L 7.552448 25.635195 L 8.391608 25.258820 L 9.230769 24.506351 L 10.069930 24.252880 L 10.909091 24.278317 L 11.748252 24.877768 L 12.587413 21.560139 L 13.426573 21.190468 L 14.265734 20.874179 L 15.104895 13.401097 L 15.944056 17.109665 L 16.783217 21.386219 L 17.622378 20.882123 L 18.461538 20.488001 L 19.300699 20.433379 L 20.139860 20.362251 L 20.979021 19.845619 L 21.818182 16.074570 L 22.657343 17.226203 L 23.496503 19.456595 L 24.335664 16.916449 L 25.174825 16.605372 L 26.013986 8.800000 L 26.853147 12.330930 L 27.692308 19.818379 L 28.531469 23.122318 L 29.370629 23.777207 L 30.209790 23.270941 L 31.048951 23.145783 L 31.888112 25.154085 L 32.727273 23.054823 L 33.566434 22.842170 L 34.405594 23.095500 L 35.244755 24.240373 L 36.083916 24.723173 L 36.923077 23.582948 L 37.762238 22.650672 L 38.601399 21.750397 L 39.440559 21.852202 L 40.279720 21.620845 L 41.118881 20.903250 L 41.958042 22.083307 L 42.797203 22.907721 L 43.636364 23.016371 L 44.475524 22.411146 L 45.314685 27.169120 L 46.153846 27.156950 L 46.993007 26.762659 L 47.832168 26.482568 L 48.671329 26.898831 L 49.510490 24.115750 L 50.349650 24.100116 L 51.188811 24.182343 L 52.027972 26.020219 L 52.867133 24.002508 L 53.706294 23.976704 L 54.545455 23.912111 L 55.384615 23.501144 L 56.223776 26.412932 L 57.062937 26.056107 L 57.902098 25.450853 L 58.741259 22.710815 L 59.580420 21.719889 L 60.419580 21.812032 L 61.258741 22.124434 L 62.097902 25.562996 L 62.937063 26.523498 L 63.776224 33.078107 L 64.615385 31.035551 L 65.454545 31.095243 L 66.293706 32.339244 L 67.132867 32.170564 L 67.972028 33.294394 L 68.811189 26.876070 L 69.650350 27.590735 L 70.489510 29.045362 L 71.328671 28.897668 L 72.167832 29.055447 L 73.006993 28.748144 L 73.846154 28.287963 L 74.685315 27.286390 L 75.524476 27.230530 L 76.363636 27.036947 L 77.202797 27.252192 L 78.041958 27.852826 L 78.881119 25.745311 L 79.720280 25.402345 L 80.559441 26.719081 L 81.398601 26.340536 L 82.237762 30.410465 L 83.076923 29.564614 L 83.916084 28.916796 L 84.755245 28.397910 L 85.594406 27.785585 L 86.433566 24.802527 L 87.272727 24.318600 L 88.111888 25.186706 L 88.951049 25.222002 L 89.790210 25.104112 L 90.629371 25.462628 L 91.468531 24.815513 L 92.307692 25.281947 L 93.146853 31.561648 L 93.986014 23.964422 L 94.825175 24.467364 L 95.664336 28.204722 L 96.503497 27.856967 L 97.342657 29.891749 L 98.181818 33.584345 L 99.020979 35.201821 L 99.860140 34.850826 L 100.699301 33.455131 L 101.538462 35.455489 L 102.377622 34.539861 L 103.216783 34.236642 L 104.055944 34.297348 L 104.895105 32.615476 L 105.734266 32.909681 L 106.573427 32.724944 L 107.412587 32.416880 L 108.251748 32.111408 L 109.090909 32.036026 L 109.930070 30.937605 L 110.769231 30.325956 L 111.608392 30.695881 L 112.447552 30.625569 L 113.286713 30.617428 L 114.125874 30.849518 L 114.965035 31.175780 L 115.804196 31.803710 L 116.643357 29.590953 L 117.482517 30.539032 L 118.321678 32.035012 L 119.160839 36.616136 L 120.000000 36.800000 L 120 40 Z"></path>
    </g>
  </svg>