<svg xmlns="http://www.w3.org/2000/svg" viewBox="0 0 120 40" width="120" height="40">
    <defs>
      <linearGradient id="color_grad" x1="0%" x2="0%" y1="0%" y2="100%">
        <stop offset="0%" style="stop-color:#EA3943;stop-opacity:0.4;"></stop>
        <stop offset="100%" style="stop-color:#EA3943;stop-opacity:0.0;"></stop>
      </linearGradient>
    </defs>
    <g>
      <path stroke="#EA3943" stroke-width="2" stroke-linecap="round" stroke-linejoin="round" fill="none" d="M 0.000000 28.153367 L 0.839161 28.275151 L 1.678322 28.275151 L 2.517483 28.275151 L 3.356643 28.275151 L 4.195804 29.371203 L 5.034965 29.371203 L 5.874126 28.762285 L 6.713287 28.762285 L 7.552448 28.762285 L 8.391608 28.762285 L 9.230769 28.762285 L 10.069930 28.762285 L 10.909091 29.437630 L 11.748252 28.275151 L 12.587413 29.371203 L 13.426573 29.371203 L 14.265734 29.371203 L 15.104895 29.371203 L 15.944056 29.371203 L 16.783217 29.371203 L 17.622378 29.371203 L 18.461538 26.935531 L 19.300699 25.717696 L 20.139860 25.717696 L 20.979021 23.282024 L 21.818182 23.282024 L 22.657343 23.282024 L 23.496503 20.718608 L 24.335664 22.064189 L 25.174825 22.064189 L 26.013986 23.673776 L 26.853147 25.926346 L 27.692308 28.696709 L 28.531469 33.723049 L 29.370629 33.024710 L 30.209790 31.869043 L 31.048951 31.928657 L 31.888112 31.806874 L 32.727273 31.851159 L 33.566434 31.889482 L 34.405594 31.806874 L 35.244755 31.806874 L 36.083916 28.518718 L 36.923077 28.518718 L 37.762238 28.518718 L 38.601399 28.518718 L 39.440559 28.518718 L 40.279720 29.371203 L 41.118881 30.589038 L 41.958042 28.494872 L 42.797203 29.200876 L 43.636364 26.658751 L 44.475524 26.326614 L 45.314685 29.371203 L 46.153846 26.560813 L 46.993007 24.945264 L 47.832168 8.800000 L 48.671329 14.229162 L 49.510490 11.347235 L 50.349650 13.539339 L 51.188811 14.220646 L 52.027972 16.341213 L 52.867133 17.192846 L 53.706294 17.192846 L 54.545455 19.628518 L 55.384615 19.628518 L 56.223776 21.604307 L 57.062937 22.064189 L 57.902098 20.846353 L 58.741259 20.846353 L 59.580420 19.628518 L 60.419580 21.135909 L 61.258741 20.846353 L 62.097902 23.890942 L 62.937063 23.282024 L 63.776224 25.717696 L 64.615385 23.282024 L 65.454545 23.946298 L 66.293706 25.334461 L 67.132867 25.839479 L 67.972028 26.935531 L 68.811189 27.472060 L 69.650350 26.935531 L 70.489510 27.544449 L 71.328671 27.544449 L 72.167832 27.544449 L 73.006993 27.544449 L 73.846154 29.371203 L 74.685315 28.438664 L 75.524476 28.207872 L 76.363636 30.589038 L 77.202797 28.396934 L 78.041958 30.708267 L 78.881119 29.371203 L 79.720280 29.371203 L 80.559441 29.371203 L 81.398601 29.492986 L 82.237762 29.492986 L 83.076923 29.492986 L 83.916084 28.788685 L 84.755245 29.980120 L 85.594406 28.396934 L 86.433566 28.153367 L 87.272727 29.149778 L 88.111888 28.762285 L 88.951049 28.762285 L 89.790210 30.589038 L 90.629371 28.762285 L 91.468531 28.884068 L 92.307692 28.884068 L 93.146853 28.884068 L 93.986014 30.589038 L 94.825175 29.371203 L 95.664336 30.589038 L 96.503497 31.197956 L 97.342657 28.884068 L 98.181818 29.924764 L 99.020979 31.197956 L 99.860140 31.197956 L 100.699301 30.631620 L 101.538462 31.197956 L 102.377622 30.487694 L 103.216783 29.736553 L 104.055944 29.736553 L 104.895105 29.736553 L 105.734266 29.858337 L 106.573427 29.858337 L 107.412587 29.858337 L 108.251748 29.858337 L 109.090909 29.736553 L 109.930070 30.832605 L 110.769231 31.357212 L 111.608392 32.104946 L 112.447552 33.024710 L 113.286713 33.833761 L 114.125874 33.812470 L 114.965035 33.633627 L 115.804196 34.242545 L 116.643357 34.242545 L 117.482517 34.364329 L 118.321678 34.486112 L 119.160839 35.703948 L 120.000000 36.800000"></path>
      <path stroke="none" fill-opacity="0.6" fill="url(#color_grad)" d="M 0 40 L 0.000000 28.153367 L 0.839161 28.275151 L 1.678322 28.275151 L 2.517483 28.275151 L 3.356643 28.275151 L 4.195804 29.371203 L 5.034965 29.371203 L 5.874126 28.762285 L 6.713287 28.762285 L 7.552448 28.762285 L 8.391608 28.762285 L 9.230769 28.762285 L 10.069930 28.762285 L 10.909091 29.437630 L 11.748252 28.275151 L 12.587413 29.371203 L 13.426573 29.371203 L 14.265734 29.371203 L 15.104895 29.371203 L 15.944056 29.371203 L 16.783217 29.371203 L 17.622378 29.371203 L 18.461538 26.935531 L 19.300699 25.717696 L 20.139860 25.717696 L 20.979021 23.282024 L 21.818182 23.282024 L 22.657343 23.282024 L 23.496503 20.718608 L 24.335664 22.064189 L 25.174825 22.064189 L 26.013986 23.673776 L 26.853147 25.926346 L 27.692308 28.696709 L 28.531469 33.723049 L 29.370629 33.024710 L 30.209790 31.869043 L 31.048951 31.928657 L 31.888112 31.806874 L 32.727273 31.851159 L 33.566434 31.889482 L 34.405594 31.806874 L 35.244755 31.806874 L 36.083916 28.518718 L 36.923077 28.518718 L 37.762238 28.518718 L 38.601399 28.518718 L 39.440559 28.518718 L 40.279720 29.371203 L 41.118881 30.589038 L 41.958042 28.494872 L 42.797203 29.200876 L 43.636364 26.658751 L 44.475524 26.326614 L 45.314685 29.371203 L 46.153846 26.560813 L 46.993007 24.945264 L 47.832168 8.800000 L 48.671329 14.229162 L 49.510490 11.347235 L 50.349650 13.539339 L 51.188811 14.220646 L 52.027972 16.341213 L 52.867133 17.192846 L 53.706294 17.192846 L 54.545455 19.628518 L 55.384615 19.628518 L 56.223776 21.604307 L 57.062937 22.064189 L 57.902098 20.846353 L 58.741259 20.846353 L 59.580420 19.628518 L 60.419580 21.135909 L 61.258741 20.846353 L 62.097902 23.890942 L 62.937063 23.282024 L 63.776224 25.717696 L 64.615385 23.282024 L 65.454545 23.946298 L 66.293706 25.334461 L 67.132867 25.839479 L 67.972028 26.935531 L 68.811189 27.472060 L 69.650350 26.935531 L 70.489510 27.544449 L 71.328671 27.544449 L 72.167832 27.544449 L 73.006993 27.544449 L 73.846154 29.371203 L 74.685315 28.438664 L 75.524476 28.207872 L 76.363636 30.589038 L 77.202797 28.396934 L 78.041958 30.708267 L 78.881119 29.371203 L 79.720280 29.371203 L 80.559441 29.371203 L 81.398601 29.492986 L 82.237762 29.492986 L 83.076923 29.492986 L 83.916084 28.788685 L 84.755245 29.980120 L 85.594406 28.396934 L 86.433566 28.153367 L 87.272727 29.149778 L 88.111888 28.762285 L 88.951049 28.762285 L 89.790210 30.589038 L 90.629371 28.762285 L 91.468531 28.884068 L 92.307692 28.884068 L 93.146853 28.884068 L 93.986014 30.589038 L 94.825175 29.371203 L 95.664336 30.589038 L 96.503497 31.197956 L 97.342657 28.884068 L 98.181818 29.924764 L 99.020979 31.197956 L 99.860140 31.197956 L 100.699301 30.631620 L 101.538462 31.197956 L 102.377622 30.487694 L 103.216783 29.736553 L 104.055944 29.736553 L 104.895105 29.736553 L 105.734266 29.858337 L 106.573427 29.858337 L 107.412587 29.858337 L 108.251748 29.858337 L 109.090909 29.736553 L 109.930070 30.832605 L 110.769231 31.357212 L 111.608392 32.104946 L 112.447552 33.024710 L 113.286713 33.833761 L 114.125874 33.812470 L 114.965035 33.633627 L 115.804196 34.242545 L 116.643357 34.242545 L 117.482517 34.364329 L 118.321678 34.486112 L 119.160839 35.703948 L 120.000000 36.800000 L 120 40 Z"></path>
    </g>
  </svg>