<svg xmlns="http://www.w3.org/2000/svg" viewBox="0 0 120 40" width="120" height="40">
    <defs>
      <linearGradient id="color_grad" x1="0%" x2="0%" y1="0%" y2="100%">
        <stop offset="0%" style="stop-color:#EA3943;stop-opacity:0.4;"></stop>
        <stop offset="100%" style="stop-color:#EA3943;stop-opacity:0.0;"></stop>
      </linearGradient>
    </defs>
    <g>
      <path stroke="#EA3943" stroke-width="2" stroke-linecap="round" stroke-linejoin="round" fill="none" d="M 0.000000 32.770786 L 0.839161 32.910221 L 1.678322 33.414419 L 2.517483 33.585934 L 3.356643 33.508722 L 4.195804 35.147972 L 5.034965 34.895696 L 5.874126 34.336156 L 6.713287 34.190851 L 7.552448 34.113612 L 8.391608 33.983597 L 9.230769 33.591285 L 10.069930 33.460369 L 10.909091 34.155030 L 11.748252 33.102786 L 12.587413 34.621905 L 13.426573 34.441817 L 14.265734 34.286028 L 15.104895 34.332169 L 15.944056 34.183124 L 16.783217 33.912309 L 17.622378 33.661617 L 18.461538 30.972116 L 19.300699 29.696073 L 20.139860 29.656047 L 20.979021 26.868093 L 21.818182 24.735784 L 22.657343 25.389409 L 23.496503 22.409163 L 24.335664 23.920555 L 25.174825 23.739074 L 26.013986 25.574685 L 26.853147 28.086855 L 27.692308 31.089244 L 28.531469 36.724481 L 29.370629 35.984416 L 30.209790 34.511411 L 31.048951 34.513950 L 31.888112 34.399607 L 32.727273 34.383607 L 33.566434 34.320457 L 34.405594 34.359663 L 35.244755 34.262930 L 36.083916 31.031772 L 36.923077 31.024974 L 37.762238 30.630041 L 38.601399 30.506306 L 39.440559 30.559436 L 40.279720 31.347227 L 41.118881 32.283789 L 41.958042 30.658600 L 42.797203 31.847684 L 43.636364 29.227122 L 44.475524 28.535574 L 45.314685 31.369915 L 46.153846 28.355349 L 46.993007 26.382652 L 47.832168 8.800000 L 48.671329 14.967010 L 49.510490 11.600158 L 50.349650 13.951625 L 51.188811 14.747715 L 52.027972 16.693793 L 52.867133 17.634478 L 53.706294 17.617577 L 54.545455 20.207178 L 55.384615 19.936527 L 56.223776 21.929810 L 57.062937 21.770554 L 57.902098 20.452356 L 58.741259 20.746541 L 59.580420 19.663992 L 60.419580 21.369123 L 61.258741 21.252787 L 62.097902 24.580405 L 62.937063 24.527110 L 63.776224 27.891396 L 64.615385 25.275776 L 65.454545 26.023841 L 66.293706 28.283653 L 67.132867 28.705260 L 67.972028 30.546004 L 68.811189 30.916773 L 69.650350 30.769803 L 70.489510 31.340947 L 71.328671 31.257128 L 72.167832 31.344906 L 73.006993 31.168886 L 73.846154 32.801119 L 74.685315 31.270807 L 75.524476 30.993385 L 76.363636 33.394761 L 77.202797 31.207819 L 78.041958 33.956977 L 78.881119 32.485119 L 79.720280 32.301345 L 80.559441 33.011186 L 81.398601 32.857827 L 82.237762 32.653330 L 83.076923 31.927763 L 83.916084 30.273714 L 84.755245 32.032086 L 85.594406 29.979938 L 86.433566 29.561471 L 87.272727 30.371431 L 88.111888 30.054392 L 88.951049 30.075798 L 89.790210 31.619625 L 90.629371 29.823822 L 91.468531 29.590247 L 92.307692 29.853991 L 93.146853 30.333070 L 93.986014 30.999855 L 94.825175 29.929264 L 95.664336 32.123959 L 96.503497 32.589387 L 97.342657 30.150470 L 98.181818 31.692141 L 99.020979 33.463154 L 99.860140 33.177131 L 100.699301 31.727225 L 101.538462 33.533322 L 102.377622 32.215341 L 103.216783 31.147644 L 104.055944 31.351786 L 104.895105 30.322340 L 105.734266 30.633727 L 106.573427 30.520749 L 107.412587 30.333753 L 108.251748 30.146238 L 109.090909 29.965031 L 109.930070 30.862796 L 110.769231 31.091647 L 111.608392 32.143535 L 112.447552 33.134321 L 113.286713 33.779427 L 114.125874 33.750924 L 114.965035 33.732358 L 115.804196 33.656811 L 116.643357 32.733163 L 117.482517 33.406883 L 118.321678 33.982614 L 119.160839 35.450704 L 120.000000 36.800000"></path>
      <path stroke="none" fill-opacity="0.6" fill="url(#color_grad)" d="M 0 40 L 0.000000 32.770786 L 0.839161 32.910221 L 1.678322 33.414419 L 2.517483 33.585934 L 3.356643 33.508722 L 4.195804 35.147972 L 5.034965 34.895696 L 5.874126 34.336156 L 6.713287 34.190851 L 7.552448 34.113612 L 8.391608 33.983597 L 9.230769 33.591285 L 10.069930 33.460369 L 10.909091 34.155030 L 11.748252 33.102786 L 12.587413 34.621905 L 13.426573 34.441817 L 14.265734 34.286028 L 15.104895 34.332169 L 15.944056 34.183124 L 16.783217 33.912309 L 17.622378 33.661617 L 18.461538 30.972116 L 19.300699 29.696073 L 20.139860 29.656047 L 20.979021 26.868093 L 21.818182 24.735784 L 22.657343 25.389409 L 23.496503 22.409163 L 24.335664 23.920555 L 25.174825 23.739074 L 26.013986 25.574685 L 26.853147 28.086855 L 27.692308 31.089244 L 28.531469 36.724481 L 29.370629 35.984416 L 30.209790 34.511411 L 31.048951 34.513950 L 31.888112 34.399607 L 32.727273 34.383607 L 33.566434 34.320457 L 34.405594 34.359663 L 35.244755 34.262930 L 36.083916 31.031772 L 36.923077 31.024974 L 37.762238 30.630041 L 38.601399 30.506306 L 39.440559 30.559436 L 40.279720 31.347227 L 41.118881 32.283789 L 41.958042 30.658600 L 42.797203 31.847684 L 43.636364 29.227122 L 44.475524 28.535574 L 45.314685 31.369915 L 46.153846 28.355349 L 46.993007 26.382652 L 47.832168 8.800000 L 48.671329 14.967010 L 49.510490 11.600158 L 50.349650 13.951625 L 51.188811 14.747715 L 52.027972 16.693793 L 52.867133 17.634478 L 53.706294 17.617577 L 54.545455 20.207178 L 55.384615 19.936527 L 56.223776 21.929810 L 57.062937 21.770554 L 57.902098 20.452356 L 58.741259 20.746541 L 59.580420 19.663992 L 60.419580 21.369123 L 61.258741 21.252787 L 62.097902 24.580405 L 62.937063 24.527110 L 63.776224 27.891396 L 64.615385 25.275776 L 65.454545 26.023841 L 66.293706 28.283653 L 67.132867 28.705260 L 67.972028 30.546004 L 68.811189 30.916773 L 69.650350 30.769803 L 70.489510 31.340947 L 71.328671 31.257128 L 72.167832 31.344906 L 73.006993 31.168886 L 73.846154 32.801119 L 74.685315 31.270807 L 75.524476 30.993385 L 76.363636 33.394761 L 77.202797 31.207819 L 78.041958 33.956977 L 78.881119 32.485119 L 79.720280 32.301345 L 80.559441 33.011186 L 81.398601 32.857827 L 82.237762 32.653330 L 83.076923 31.927763 L 83.916084 30.273714 L 84.755245 32.032086 L 85.594406 29.979938 L 86.433566 29.561471 L 87.272727 30.371431 L 88.111888 30.054392 L 88.951049 30.075798 L 89.790210 31.619625 L 90.629371 29.823822 L 91.468531 29.590247 L 92.307692 29.853991 L 93.146853 30.333070 L 93.986014 30.999855 L 94.825175 29.929264 L 95.664336 32.123959 L 96.503497 32.589387 L 97.342657 30.150470 L 98.181818 31.692141 L 99.020979 33.463154 L 99.860140 33.177131 L 100.699301 31.727225 L 101.538462 33.533322 L 102.377622 32.215341 L 103.216783 31.147644 L 104.055944 31.351786 L 104.895105 30.322340 L 105.734266 30.633727 L 106.573427 30.520749 L 107.412587 30.333753 L 108.251748 30.146238 L 109.090909 29.965031 L 109.930070 30.862796 L 110.769231 31.091647 L 111.608392 32.143535 L 112.447552 33.134321 L 113.286713 33.779427 L 114.125874 33.750924 L 114.965035 33.732358 L 115.804196 33.656811 L 116.643357 32.733163 L 117.482517 33.406883 L 118.321678 33.982614 L 119.160839 35.450704 L 120.000000 36.800000 L 120 40 Z"></path>
    </g>
  </svg>