<svg xmlns="http://www.w3.org/2000/svg" viewBox="0 0 120 40" width="120" height="40">
    <defs>
      <linearGradient id="color_grad" x1="0%" x2="0%" y1="0%" y2="100%">
        <stop offset="0%" style="stop-color:#EA3943;stop-opacity:0.4;"></stop>
        <stop offset="100%" style="stop-color:#EA3943;stop-opacity:0.0;"></stop>
      </linearGradient>
    </defs>
    <g>
      <path stroke="#EA3943" stroke-width="2" stroke-linecap="round" stroke-linejoin="round" fill="none" d="M 0.000000 9.644987 L 0.839161 9.701742 L 1.678322 11.627354 L 2.517483 12.285056 L 3.356643 11.985563 L 4.195804 14.123165 L 5.034965 13.129574 L 5.874126 13.310069 L 6.713287 15.992594 L 7.552448 15.695194 L 8.391608 15.200953 L 9.230769 13.720188 L 10.069930 13.222404 L 10.909091 16.565558 L 11.748252 17.008533 L 12.587413 21.834471 L 13.426573 21.164550 L 14.265734 23.868647 L 15.104895 20.814039 L 15.944056 23.504878 L 16.783217 19.276139 L 17.622378 21.375573 L 18.461538 20.898235 L 19.300699 20.799185 L 20.139860 20.666605 L 20.979021 19.733808 L 21.818182 10.902200 L 22.657343 13.004678 L 23.496503 14.208576 L 24.335664 14.452001 L 25.174825 13.389640 L 26.013986 14.280917 L 26.853147 11.200639 L 27.692308 14.882990 L 28.531469 16.106133 L 29.370629 16.090254 L 30.209790 15.117401 L 31.048951 14.875907 L 31.888112 15.002823 L 32.727273 18.099595 L 33.566434 21.238472 L 34.405594 21.704365 L 35.244755 16.493656 L 36.083916 16.045925 L 36.923077 17.394373 L 37.762238 16.009366 L 38.601399 15.576328 L 39.440559 15.769292 L 40.279720 16.726793 L 41.118881 18.908330 L 41.958042 21.748461 L 42.797203 15.691858 L 43.636364 15.898900 L 44.475524 14.748421 L 45.314685 9.884051 L 46.153846 9.860386 L 46.993007 12.481049 L 47.832168 11.980499 L 48.671329 16.259773 L 49.510490 15.568176 L 50.349650 19.127169 L 51.188811 19.287496 L 52.027972 11.315188 L 52.867133 17.098276 L 53.706294 19.015503 L 54.545455 18.891061 L 55.384615 18.113820 L 56.223776 17.653429 L 57.062937 14.958390 L 57.902098 15.044167 L 58.741259 8.800000 L 59.580420 13.002161 L 60.419580 9.754457 L 61.258741 20.534187 L 62.097902 14.580527 L 62.937063 16.483133 L 63.776224 18.905784 L 64.615385 18.813143 L 65.454545 16.861026 L 66.293706 20.354219 L 67.132867 21.835613 L 67.972028 24.820017 L 68.811189 24.206133 L 69.650350 25.566231 L 70.489510 36.800000 L 71.328671 25.097557 L 72.167832 25.400737 L 73.006993 24.807650 L 73.846154 23.919783 L 74.685315 21.981510 L 75.524476 22.934387 L 76.363636 26.311816 L 77.202797 26.714750 L 78.041958 27.845003 L 78.881119 27.584616 L 79.720280 20.790272 L 80.559441 23.366942 L 81.398601 28.727251 L 82.237762 31.205163 L 83.076923 25.247435 L 83.916084 18.666822 L 84.755245 20.327261 L 85.594406 20.522552 L 86.433566 19.996815 L 87.272727 19.078083 L 88.111888 19.432457 L 88.951049 19.502954 L 89.790210 17.959976 L 90.629371 18.650430 L 91.468531 17.397812 L 92.307692 18.301691 L 93.146853 19.930665 L 93.986014 19.827121 L 94.825175 16.799413 L 95.664336 20.449903 L 96.503497 19.762142 L 97.342657 22.847381 L 98.181818 24.268464 L 99.020979 27.827880 L 99.860140 26.830191 L 100.699301 28.707069 L 101.538462 28.003999 L 102.377622 25.918044 L 103.216783 23.234640 L 104.055944 27.309037 L 104.895105 23.883122 L 105.734266 24.475243 L 106.573427 24.103994 L 107.412587 26.173456 L 108.251748 26.472261 L 109.090909 22.694093 L 109.930070 21.602871 L 110.769231 21.553287 L 111.608392 25.502012 L 112.447552 23.384914 L 113.286713 22.430193 L 114.125874 22.419509 L 114.965035 23.152538 L 115.804196 20.379348 L 116.643357 19.291506 L 117.482517 25.428749 L 118.321678 27.703658 L 119.160839 27.987257 L 120.000000 30.598290"></path>
      <path stroke="none" fill-opacity="0.6" fill="url(#color_grad)" d="M 0 40 L 0.000000 9.644987 L 0.839161 9.701742 L 1.678322 11.627354 L 2.517483 12.285056 L 3.356643 11.985563 L 4.195804 14.123165 L 5.034965 13.129574 L 5.874126 13.310069 L 6.713287 15.992594 L 7.552448 15.695194 L 8.391608 15.200953 L 9.230769 13.720188 L 10.069930 13.222404 L 10.909091 16.565558 L 11.748252 17.008533 L 12.587413 21.834471 L 13.426573 21.164550 L 14.265734 23.868647 L 15.104895 20.814039 L 15.944056 23.504878 L 16.783217 19.276139 L 17.622378 21.375573 L 18.461538 20.898235 L 19.300699 20.799185 L 20.139860 20.666605 L 20.979021 19.733808 L 21.818182 10.902200 L 22.657343 13.004678 L 23.496503 14.208576 L 24.335664 14.452001 L 25.174825 13.389640 L 26.013986 14.280917 L 26.853147 11.200639 L 27.692308 14.882990 L 28.531469 16.106133 L 29.370629 16.090254 L 30.209790 15.117401 L 31.048951 14.875907 L 31.888112 15.002823 L 32.727273 18.099595 L 33.566434 21.238472 L 34.405594 21.704365 L 35.244755 16.493656 L 36.083916 16.045925 L 36.923077 17.394373 L 37.762238 16.009366 L 38.601399 15.576328 L 39.440559 15.769292 L 40.279720 16.726793 L 41.118881 18.908330 L 41.958042 21.748461 L 42.797203 15.691858 L 43.636364 15.898900 L 44.475524 14.748421 L 45.314685 9.884051 L 46.153846 9.860386 L 46.993007 12.481049 L 47.832168 11.980499 L 48.671329 16.259773 L 49.510490 15.568176 L 50.349650 19.127169 L 51.188811 19.287496 L 52.027972 11.315188 L 52.867133 17.098276 L 53.706294 19.015503 L 54.545455 18.891061 L 55.384615 18.113820 L 56.223776 17.653429 L 57.062937 14.958390 L 57.902098 15.044167 L 58.741259 8.800000 L 59.580420 13.002161 L 60.419580 9.754457 L 61.258741 20.534187 L 62.097902 14.580527 L 62.937063 16.483133 L 63.776224 18.905784 L 64.615385 18.813143 L 65.454545 16.861026 L 66.293706 20.354219 L 67.132867 21.835613 L 67.972028 24.820017 L 68.811189 24.206133 L 69.650350 25.566231 L 70.489510 36.800000 L 71.328671 25.097557 L 72.167832 25.400737 L 73.006993 24.807650 L 73.846154 23.919783 L 74.685315 21.981510 L 75.524476 22.934387 L 76.363636 26.311816 L 77.202797 26.714750 L 78.041958 27.845003 L 78.881119 27.584616 L 79.720280 20.790272 L 80.559441 23.366942 L 81.398601 28.727251 L 82.237762 31.205163 L 83.076923 25.247435 L 83.916084 18.666822 L 84.755245 20.327261 L 85.594406 20.522552 L 86.433566 19.996815 L 87.272727 19.078083 L 88.111888 19.432457 L 88.951049 19.502954 L 89.790210 17.959976 L 90.629371 18.650430 L 91.468531 17.397812 L 92.307692 18.301691 L 93.146853 19.930665 L 93.986014 19.827121 L 94.825175 16.799413 L 95.664336 20.449903 L 96.503497 19.762142 L 97.342657 22.847381 L 98.181818 24.268464 L 99.020979 27.827880 L 99.860140 26.830191 L 100.699301 28.707069 L 101.538462 28.003999 L 102.377622 25.918044 L 103.216783 23.234640 L 104.055944 27.309037 L 104.895105 23.883122 L 105.734266 24.475243 L 106.573427 24.103994 L 107.412587 26.173456 L 108.251748 26.472261 L 109.090909 22.694093 L 109.930070 21.602871 L 110.769231 21.553287 L 111.608392 25.502012 L 112.447552 23.384914 L 113.286713 22.430193 L 114.125874 22.419509 L 114.965035 23.152538 L 115.804196 20.379348 L 116.643357 19.291506 L 117.482517 25.428749 L 118.321678 27.703658 L 119.160839 27.987257 L 120.000000 30.598290 L 120 40 Z"></path>
    </g>
  </svg>