<svg xmlns="http://www.w3.org/2000/svg" viewBox="0 0 120 40" width="120" height="40">
    <defs>
      <linearGradient id="color_grad" x1="0%" x2="0%" y1="0%" y2="100%">
        <stop offset="0%" style="stop-color:#EA3943;stop-opacity:0.4;"></stop>
        <stop offset="100%" style="stop-color:#EA3943;stop-opacity:0.0;"></stop>
      </linearGradient>
    </defs>
    <g>
      <path stroke="#EA3943" stroke-width="2" stroke-linecap="round" stroke-linejoin="round" fill="none" d="M 0.000000 8.800000 L 0.839161 8.800000 L 1.678322 8.800000 L 2.517483 8.800000 L 3.356643 8.800000 L 4.195804 8.800000 L 5.034965 8.800000 L 5.874126 8.800000 L 6.713287 11.213793 L 7.552448 11.213793 L 8.391608 11.213793 L 9.230769 11.213793 L 10.069930 11.213793 L 10.909091 13.627586 L 11.748252 13.627586 L 12.587413 16.041379 L 13.426573 16.041379 L 14.265734 18.455172 L 15.104895 16.077839 L 15.944056 18.455172 L 16.783217 16.089655 L 17.622378 18.288739 L 18.461538 18.455172 L 19.300699 18.455172 L 20.139860 18.455172 L 20.979021 18.455172 L 21.818182 17.055172 L 22.657343 17.055172 L 23.496503 18.455172 L 24.335664 18.455172 L 25.174825 18.105426 L 26.013986 18.455172 L 26.853147 16.041379 L 27.692308 18.455172 L 28.531469 18.455172 L 29.370629 18.455172 L 30.209790 18.455172 L 31.048951 18.455172 L 31.888112 18.503448 L 32.727273 20.825078 L 33.566434 23.282759 L 34.405594 23.282759 L 35.244755 19.903448 L 36.083916 18.937931 L 36.923077 19.903448 L 37.762238 19.903448 L 38.601399 19.903448 L 39.440559 19.903448 L 40.279720 20.868966 L 41.118881 23.282759 L 41.958042 23.755389 L 42.797203 18.455172 L 43.636364 18.455172 L 44.475524 18.455172 L 45.314685 16.089655 L 46.153846 16.089655 L 46.993007 18.455172 L 47.832168 18.503448 L 48.671329 20.868966 L 49.510490 20.868966 L 50.349650 23.331034 L 51.188811 23.331034 L 52.027972 18.503448 L 52.867133 22.421895 L 53.706294 23.765517 L 54.545455 23.765517 L 55.384615 23.765517 L 56.223776 23.765517 L 57.062937 23.282759 L 57.902098 23.282759 L 58.741259 18.503448 L 59.580420 20.830480 L 60.419580 18.512563 L 61.258741 25.423101 L 62.097902 21.351724 L 62.937063 21.351724 L 63.776224 21.351724 L 64.615385 21.351724 L 65.454545 19.903448 L 66.293706 20.538124 L 67.132867 21.834483 L 67.972028 22.317241 L 68.811189 22.317241 L 69.650350 22.317241 L 70.489510 30.524138 L 71.328671 22.317241 L 72.167832 22.317241 L 73.006993 22.317241 L 73.846154 22.317241 L 74.685315 22.317241 L 75.524476 23.066699 L 76.363636 25.696552 L 77.202797 25.696552 L 78.041958 25.696552 L 78.881119 25.696552 L 79.720280 21.351724 L 80.559441 21.400000 L 81.398601 25.910248 L 82.237762 28.164360 L 83.076923 25.696552 L 83.916084 23.282759 L 84.755245 23.282759 L 85.594406 24.248276 L 86.433566 24.248276 L 87.272727 24.248276 L 88.111888 24.248276 L 88.951049 24.248276 L 89.790210 24.248276 L 90.629371 24.248276 L 91.468531 24.248276 L 92.307692 24.248276 L 93.146853 24.248276 L 93.986014 26.963540 L 94.825175 24.296552 L 95.664336 24.731034 L 96.503497 24.731034 L 97.342657 26.662069 L 98.181818 26.662069 L 99.020979 28.158621 L 99.860140 28.158621 L 100.699301 31.373185 L 101.538462 28.110345 L 102.377622 27.995563 L 103.216783 26.758621 L 104.055944 29.075862 L 104.895105 29.075862 L 105.734266 29.075862 L 106.573427 29.075862 L 107.412587 30.881987 L 108.251748 31.489655 L 109.090909 29.075862 L 109.930070 29.075862 L 110.769231 29.855703 L 111.608392 31.972414 L 112.447552 30.668966 L 113.286713 30.668966 L 114.125874 30.668966 L 114.965035 30.717241 L 115.804196 30.717241 L 116.643357 32.163492 L 117.482517 34.868966 L 118.321678 35.351724 L 119.160839 35.351724 L 120.000000 36.800000"></path>
      <path stroke="none" fill-opacity="0.6" fill="url(#color_grad)" d="M 0 40 L 0.000000 8.800000 L 0.839161 8.800000 L 1.678322 8.800000 L 2.517483 8.800000 L 3.356643 8.800000 L 4.195804 8.800000 L 5.034965 8.800000 L 5.874126 8.800000 L 6.713287 11.213793 L 7.552448 11.213793 L 8.391608 11.213793 L 9.230769 11.213793 L 10.069930 11.213793 L 10.909091 13.627586 L 11.748252 13.627586 L 12.587413 16.041379 L 13.426573 16.041379 L 14.265734 18.455172 L 15.104895 16.077839 L 15.944056 18.455172 L 16.783217 16.089655 L 17.622378 18.288739 L 18.461538 18.455172 L 19.300699 18.455172 L 20.139860 18.455172 L 20.979021 18.455172 L 21.818182 17.055172 L 22.657343 17.055172 L 23.496503 18.455172 L 24.335664 18.455172 L 25.174825 18.105426 L 26.013986 18.455172 L 26.853147 16.041379 L 27.692308 18.455172 L 28.531469 18.455172 L 29.370629 18.455172 L 30.209790 18.455172 L 31.048951 18.455172 L 31.888112 18.503448 L 32.727273 20.825078 L 33.566434 23.282759 L 34.405594 23.282759 L 35.244755 19.903448 L 36.083916 18.937931 L 36.923077 19.903448 L 37.762238 19.903448 L 38.601399 19.903448 L 39.440559 19.903448 L 40.279720 20.868966 L 41.118881 23.282759 L 41.958042 23.755389 L 42.797203 18.455172 L 43.636364 18.455172 L 44.475524 18.455172 L 45.314685 16.089655 L 46.153846 16.089655 L 46.993007 18.455172 L 47.832168 18.503448 L 48.671329 20.868966 L 49.510490 20.868966 L 50.349650 23.331034 L 51.188811 23.331034 L 52.027972 18.503448 L 52.867133 22.421895 L 53.706294 23.765517 L 54.545455 23.765517 L 55.384615 23.765517 L 56.223776 23.765517 L 57.062937 23.282759 L 57.902098 23.282759 L 58.741259 18.503448 L 59.580420 20.830480 L 60.419580 18.512563 L 61.258741 25.423101 L 62.097902 21.351724 L 62.937063 21.351724 L 63.776224 21.351724 L 64.615385 21.351724 L 65.454545 19.903448 L 66.293706 20.538124 L 67.132867 21.834483 L 67.972028 22.317241 L 68.811189 22.317241 L 69.650350 22.317241 L 70.489510 30.524138 L 71.328671 22.317241 L 72.167832 22.317241 L 73.006993 22.317241 L 73.846154 22.317241 L 74.685315 22.317241 L 75.524476 23.066699 L 76.363636 25.696552 L 77.202797 25.696552 L 78.041958 25.696552 L 78.881119 25.696552 L 79.720280 21.351724 L 80.559441 21.400000 L 81.398601 25.910248 L 82.237762 28.164360 L 83.076923 25.696552 L 83.916084 23.282759 L 84.755245 23.282759 L 85.594406 24.248276 L 86.433566 24.248276 L 87.272727 24.248276 L 88.111888 24.248276 L 88.951049 24.248276 L 89.790210 24.248276 L 90.629371 24.248276 L 91.468531 24.248276 L 92.307692 24.248276 L 93.146853 24.248276 L 93.986014 26.963540 L 94.825175 24.296552 L 95.664336 24.731034 L 96.503497 24.731034 L 97.342657 26.662069 L 98.181818 26.662069 L 99.020979 28.158621 L 99.860140 28.158621 L 100.699301 31.373185 L 101.538462 28.110345 L 102.377622 27.995563 L 103.216783 26.758621 L 104.055944 29.075862 L 104.895105 29.075862 L 105.734266 29.075862 L 106.573427 29.075862 L 107.412587 30.881987 L 108.251748 31.489655 L 109.090909 29.075862 L 109.930070 29.075862 L 110.769231 29.855703 L 111.608392 31.972414 L 112.447552 30.668966 L 113.286713 30.668966 L 114.125874 30.668966 L 114.965035 30.717241 L 115.804196 30.717241 L 116.643357 32.163492 L 117.482517 34.868966 L 118.321678 35.351724 L 119.160839 35.351724 L 120.000000 36.800000 L 120 40 Z"></path>
    </g>
  </svg>