<svg xmlns="http://www.w3.org/2000/svg" viewBox="0 0 120 40" width="120" height="40">
    <defs>
      <linearGradient id="color_grad" x1="0%" x2="0%" y1="0%" y2="100%">
        <stop offset="0%" style="stop-color:#EA3943;stop-opacity:0.4;"></stop>
        <stop offset="100%" style="stop-color:#EA3943;stop-opacity:0.0;"></stop>
      </linearGradient>
    </defs>
    <g>
      <path stroke="#EA3943" stroke-width="2" stroke-linecap="round" stroke-linejoin="round" fill="none" d="M 0.000000 21.750535 L 0.839161 21.796861 L 1.678322 23.286531 L 2.517483 23.796009 L 3.356643 23.564238 L 4.195804 25.220463 L 5.034965 24.451225 L 5.874126 24.590099 L 6.713287 24.156615 L 7.552448 23.920152 L 8.391608 22.984401 L 9.230769 21.809584 L 10.069930 21.415049 L 10.909091 21.453282 L 11.748252 21.812473 L 12.587413 24.903191 L 13.426573 24.359127 L 14.265734 22.972619 L 15.104895 25.889755 L 15.944056 26.350408 L 16.783217 26.552327 L 17.622378 25.738239 L 18.461538 21.147648 L 19.300699 21.065159 L 20.139860 20.956015 L 20.979021 20.181245 L 21.818182 14.532277 L 22.657343 14.611036 L 23.496503 13.937892 L 24.335664 14.141880 L 25.174825 8.800000 L 26.013986 9.137924 L 26.853147 9.470460 L 27.692308 19.348451 L 28.531469 21.305618 L 29.370629 21.292689 L 30.209790 15.669209 L 31.048951 15.469196 L 31.888112 15.802858 L 32.727273 15.320425 L 33.566434 31.510264 L 34.405594 24.209886 L 35.244755 23.922201 L 36.083916 24.662180 L 36.923077 17.217948 L 37.762238 16.132218 L 38.601399 16.260069 L 39.440559 18.316095 L 40.279720 18.010645 L 41.118881 16.901210 L 41.958042 23.594869 L 42.797203 24.828304 L 43.636364 24.465506 L 44.475524 21.397039 L 45.314685 22.959138 L 46.153846 22.939407 L 46.993007 22.802377 L 47.832168 22.948504 L 48.671329 23.606998 L 49.510490 26.897688 L 50.349650 24.904933 L 51.188811 23.065967 L 52.027972 22.332196 L 52.867133 22.370039 L 53.706294 22.329983 L 54.545455 22.228911 L 55.384615 22.091984 L 56.223776 21.719699 L 57.062937 20.117422 L 57.902098 20.185282 L 58.741259 22.379444 L 59.580420 29.810337 L 60.419580 25.098389 L 61.258741 25.556195 L 62.097902 25.586805 L 62.937063 27.061559 L 63.776224 28.150711 L 64.615385 27.896156 L 65.454545 30.903873 L 66.293706 27.607979 L 67.132867 27.330415 L 67.972028 29.174032 L 68.811189 31.633116 L 69.650350 33.434218 L 70.489510 33.292127 L 71.328671 33.069679 L 72.167832 33.305199 L 73.006993 32.841083 L 73.846154 32.151302 L 74.685315 30.641778 L 75.524476 33.984080 L 76.363636 31.069547 L 77.202797 30.589736 L 78.041958 26.346720 L 78.881119 30.904898 L 79.720280 33.274425 L 80.559441 36.800000 L 81.398601 26.830853 L 82.237762 26.242411 L 83.076923 29.025753 L 83.916084 25.598771 L 84.755245 22.989195 L 85.594406 22.984892 L 86.433566 22.554378 L 87.272727 22.795451 L 88.111888 26.056371 L 88.951049 26.112388 L 89.790210 24.887927 L 90.629371 25.434265 L 91.468531 20.429346 L 92.307692 21.167932 L 93.146853 22.499181 L 93.986014 19.087381 L 94.825175 19.882311 L 95.664336 22.345453 L 96.503497 20.789316 L 97.342657 20.997279 L 98.181818 22.193220 L 99.020979 23.369286 L 99.860140 22.522006 L 100.699301 20.072060 L 101.538462 23.579933 L 102.377622 21.945775 L 103.216783 21.203767 L 104.055944 21.786350 L 104.895105 18.841882 L 105.734266 9.317981 L 106.573427 10.180648 L 107.412587 9.606322 L 108.251748 9.037406 L 109.090909 8.893245 L 109.930070 14.646052 L 110.769231 10.675211 L 111.608392 13.488754 L 112.447552 17.361330 L 113.286713 20.314383 L 114.125874 25.807061 L 114.965035 26.338463 L 115.804196 24.093119 L 116.643357 25.624710 L 117.482517 27.154272 L 118.321678 29.448543 L 119.160839 33.842440 L 120.000000 29.992402"></path>
      <path stroke="none" fill-opacity="0.6" fill="url(#color_grad)" d="M 0 40 L 0.000000 21.750535 L 0.839161 21.796861 L 1.678322 23.286531 L 2.517483 23.796009 L 3.356643 23.564238 L 4.195804 25.220463 L 5.034965 24.451225 L 5.874126 24.590099 L 6.713287 24.156615 L 7.552448 23.920152 L 8.391608 22.984401 L 9.230769 21.809584 L 10.069930 21.415049 L 10.909091 21.453282 L 11.748252 21.812473 L 12.587413 24.903191 L 13.426573 24.359127 L 14.265734 22.972619 L 15.104895 25.889755 L 15.944056 26.350408 L 16.783217 26.552327 L 17.622378 25.738239 L 18.461538 21.147648 L 19.300699 21.065159 L 20.139860 20.956015 L 20.979021 20.181245 L 21.818182 14.532277 L 22.657343 14.611036 L 23.496503 13.937892 L 24.335664 14.141880 L 25.174825 8.800000 L 26.013986 9.137924 L 26.853147 9.470460 L 27.692308 19.348451 L 28.531469 21.305618 L 29.370629 21.292689 L 30.209790 15.669209 L 31.048951 15.469196 L 31.888112 15.802858 L 32.727273 15.320425 L 33.566434 31.510264 L 34.405594 24.209886 L 35.244755 23.922201 L 36.083916 24.662180 L 36.923077 17.217948 L 37.762238 16.132218 L 38.601399 16.260069 L 39.440559 18.316095 L 40.279720 18.010645 L 41.118881 16.901210 L 41.958042 23.594869 L 42.797203 24.828304 L 43.636364 24.465506 L 44.475524 21.397039 L 45.314685 22.959138 L 46.153846 22.939407 L 46.993007 22.802377 L 47.832168 22.948504 L 48.671329 23.606998 L 49.510490 26.897688 L 50.349650 24.904933 L 51.188811 23.065967 L 52.027972 22.332196 L 52.867133 22.370039 L 53.706294 22.329983 L 54.545455 22.228911 L 55.384615 22.091984 L 56.223776 21.719699 L 57.062937 20.117422 L 57.902098 20.185282 L 58.741259 22.379444 L 59.580420 29.810337 L 60.419580 25.098389 L 61.258741 25.556195 L 62.097902 25.586805 L 62.937063 27.061559 L 63.776224 28.150711 L 64.615385 27.896156 L 65.454545 30.903873 L 66.293706 27.607979 L 67.132867 27.330415 L 67.972028 29.174032 L 68.811189 31.633116 L 69.650350 33.434218 L 70.489510 33.292127 L 71.328671 33.069679 L 72.167832 33.305199 L 73.006993 32.841083 L 73.846154 32.151302 L 74.685315 30.641778 L 75.524476 33.984080 L 76.363636 31.069547 L 77.202797 30.589736 L 78.041958 26.346720 L 78.881119 30.904898 L 79.720280 33.274425 L 80.559441 36.800000 L 81.398601 26.830853 L 82.237762 26.242411 L 83.076923 29.025753 L 83.916084 25.598771 L 84.755245 22.989195 L 85.594406 22.984892 L 86.433566 22.554378 L 87.272727 22.795451 L 88.111888 26.056371 L 88.951049 26.112388 L 89.790210 24.887927 L 90.629371 25.434265 L 91.468531 20.429346 L 92.307692 21.167932 L 93.146853 22.499181 L 93.986014 19.087381 L 94.825175 19.882311 L 95.664336 22.345453 L 96.503497 20.789316 L 97.342657 20.997279 L 98.181818 22.193220 L 99.020979 23.369286 L 99.860140 22.522006 L 100.699301 20.072060 L 101.538462 23.579933 L 102.377622 21.945775 L 103.216783 21.203767 L 104.055944 21.786350 L 104.895105 18.841882 L 105.734266 9.317981 L 106.573427 10.180648 L 107.412587 9.606322 L 108.251748 9.037406 L 109.090909 8.893245 L 109.930070 14.646052 L 110.769231 10.675211 L 111.608392 13.488754 L 112.447552 17.361330 L 113.286713 20.314383 L 114.125874 25.807061 L 114.965035 26.338463 L 115.804196 24.093119 L 116.643357 25.624710 L 117.482517 27.154272 L 118.321678 29.448543 L 119.160839 33.842440 L 120.000000 29.992402 L 120 40 Z"></path>
    </g>
  </svg>