<svg xmlns="http://www.w3.org/2000/svg" viewBox="0 0 120 40" width="120" height="40">
    <defs>
      <linearGradient id="color_grad" x1="0%" x2="0%" y1="0%" y2="100%">
        <stop offset="0%" style="stop-color:#EA3943;stop-opacity:0.4;"></stop>
        <stop offset="100%" style="stop-color:#EA3943;stop-opacity:0.0;"></stop>
      </linearGradient>
    </defs>
    <g>
      <path stroke="#EA3943" stroke-width="2" stroke-linecap="round" stroke-linejoin="round" fill="none" d="M 0.000000 13.411765 L 0.839161 13.411765 L 1.678322 13.411765 L 2.517483 13.411765 L 3.356643 13.411765 L 4.195804 13.411765 L 5.034965 13.411765 L 5.874126 13.411765 L 6.713287 13.411765 L 7.552448 13.411765 L 8.391608 12.917647 L 9.230769 12.917647 L 10.069930 12.917647 L 10.909091 12.917647 L 11.748252 12.917647 L 12.587413 14.564706 L 13.426573 14.564706 L 14.265734 13.741176 L 15.104895 16.229042 L 15.944056 17.035294 L 16.783217 17.927931 L 17.622378 17.858824 L 18.461538 14.317647 L 19.300699 14.317647 L 20.139860 14.317647 L 20.979021 14.317647 L 21.818182 14.317647 L 22.657343 12.917647 L 23.496503 12.917647 L 24.335664 12.917647 L 25.174825 8.800000 L 26.013986 8.800000 L 26.853147 8.800000 L 27.692308 17.035294 L 28.531469 17.858824 L 29.370629 17.858824 L 30.209790 13.741176 L 31.048951 13.741176 L 31.888112 13.985932 L 32.727273 13.741176 L 33.566434 27.741176 L 34.405594 21.235294 L 35.244755 21.235294 L 36.083916 21.235294 L 36.923077 14.913122 L 37.762238 14.976471 L 38.601399 15.388235 L 39.440559 16.989223 L 40.279720 17.035294 L 41.118881 17.035294 L 41.958042 21.152941 L 42.797203 21.152941 L 43.636364 20.703743 L 44.475524 18.866639 L 45.314685 21.152941 L 46.153846 21.152941 L 46.993007 21.564706 L 47.832168 22.058824 L 48.671329 22.058824 L 49.510490 25.270588 L 50.349650 23.623529 L 51.188811 21.976471 L 52.027972 21.976471 L 52.867133 21.976471 L 53.706294 21.976471 L 54.545455 21.976471 L 55.384615 22.388235 L 56.223776 22.388235 L 57.062937 22.388235 L 57.902098 22.388235 L 58.741259 23.623529 L 59.580420 29.267297 L 60.419580 25.270588 L 61.258741 25.270588 L 62.097902 25.270588 L 62.937063 25.270588 L 63.776224 24.602550 L 64.615385 24.447059 L 65.454545 26.917647 L 66.293706 22.388235 L 67.132867 22.388235 L 67.972028 22.388235 L 68.811189 24.954998 L 69.650350 25.600000 L 70.489510 25.600000 L 71.328671 25.600000 L 72.167832 25.600000 L 73.006993 25.600000 L 73.846154 25.600000 L 74.685315 25.600000 L 75.524476 28.540518 L 76.363636 26.288770 L 77.202797 25.600000 L 78.041958 21.152941 L 78.881119 25.270588 L 79.720280 27.741176 L 80.559441 29.157877 L 81.398601 21.152941 L 82.237762 21.152941 L 83.076923 25.270588 L 83.916084 24.464336 L 84.755245 21.152941 L 85.594406 21.976471 L 86.433566 21.976471 L 87.272727 22.800000 L 88.111888 25.270588 L 88.951049 25.270588 L 89.790210 25.270588 L 90.629371 25.270588 L 91.468531 21.976471 L 92.307692 21.976471 L 93.146853 21.976471 L 93.986014 21.976471 L 94.825175 21.976471 L 95.664336 21.976471 L 96.503497 21.152941 L 97.342657 21.152941 L 98.181818 21.152941 L 99.020979 21.152941 L 99.860140 21.152941 L 100.699301 21.152941 L 101.538462 21.152941 L 102.377622 21.152941 L 103.216783 21.152941 L 104.055944 21.152941 L 104.895105 21.152941 L 105.734266 12.917647 L 106.573427 13.905882 L 107.412587 13.905882 L 108.251748 13.905882 L 109.090909 13.905882 L 109.930070 19.337721 L 110.769231 17.035294 L 111.608392 18.762978 L 112.447552 21.976471 L 113.286713 24.994159 L 114.125874 29.388235 L 114.965035 29.388235 L 115.804196 29.388235 L 116.643357 32.682353 L 117.482517 32.682353 L 118.321678 33.505882 L 119.160839 36.800000 L 120.000000 33.505882"></path>
      <path stroke="none" fill-opacity="0.6" fill="url(#color_grad)" d="M 0 40 L 0.000000 13.411765 L 0.839161 13.411765 L 1.678322 13.411765 L 2.517483 13.411765 L 3.356643 13.411765 L 4.195804 13.411765 L 5.034965 13.411765 L 5.874126 13.411765 L 6.713287 13.411765 L 7.552448 13.411765 L 8.391608 12.917647 L 9.230769 12.917647 L 10.069930 12.917647 L 10.909091 12.917647 L 11.748252 12.917647 L 12.587413 14.564706 L 13.426573 14.564706 L 14.265734 13.741176 L 15.104895 16.229042 L 15.944056 17.035294 L 16.783217 17.927931 L 17.622378 17.858824 L 18.461538 14.317647 L 19.300699 14.317647 L 20.139860 14.317647 L 20.979021 14.317647 L 21.818182 14.317647 L 22.657343 12.917647 L 23.496503 12.917647 L 24.335664 12.917647 L 25.174825 8.800000 L 26.013986 8.800000 L 26.853147 8.800000 L 27.692308 17.035294 L 28.531469 17.858824 L 29.370629 17.858824 L 30.209790 13.741176 L 31.048951 13.741176 L 31.888112 13.985932 L 32.727273 13.741176 L 33.566434 27.741176 L 34.405594 21.235294 L 35.244755 21.235294 L 36.083916 21.235294 L 36.923077 14.913122 L 37.762238 14.976471 L 38.601399 15.388235 L 39.440559 16.989223 L 40.279720 17.035294 L 41.118881 17.035294 L 41.958042 21.152941 L 42.797203 21.152941 L 43.636364 20.703743 L 44.475524 18.866639 L 45.314685 21.152941 L 46.153846 21.152941 L 46.993007 21.564706 L 47.832168 22.058824 L 48.671329 22.058824 L 49.510490 25.270588 L 50.349650 23.623529 L 51.188811 21.976471 L 52.027972 21.976471 L 52.867133 21.976471 L 53.706294 21.976471 L 54.545455 21.976471 L 55.384615 22.388235 L 56.223776 22.388235 L 57.062937 22.388235 L 57.902098 22.388235 L 58.741259 23.623529 L 59.580420 29.267297 L 60.419580 25.270588 L 61.258741 25.270588 L 62.097902 25.270588 L 62.937063 25.270588 L 63.776224 24.602550 L 64.615385 24.447059 L 65.454545 26.917647 L 66.293706 22.388235 L 67.132867 22.388235 L 67.972028 22.388235 L 68.811189 24.954998 L 69.650350 25.600000 L 70.489510 25.600000 L 71.328671 25.600000 L 72.167832 25.600000 L 73.006993 25.600000 L 73.846154 25.600000 L 74.685315 25.600000 L 75.524476 28.540518 L 76.363636 26.288770 L 77.202797 25.600000 L 78.041958 21.152941 L 78.881119 25.270588 L 79.720280 27.741176 L 80.559441 29.157877 L 81.398601 21.152941 L 82.237762 21.152941 L 83.076923 25.270588 L 83.916084 24.464336 L 84.755245 21.152941 L 85.594406 21.976471 L 86.433566 21.976471 L 87.272727 22.800000 L 88.111888 25.270588 L 88.951049 25.270588 L 89.790210 25.270588 L 90.629371 25.270588 L 91.468531 21.976471 L 92.307692 21.976471 L 93.146853 21.976471 L 93.986014 21.976471 L 94.825175 21.976471 L 95.664336 21.976471 L 96.503497 21.152941 L 97.342657 21.152941 L 98.181818 21.152941 L 99.020979 21.152941 L 99.860140 21.152941 L 100.699301 21.152941 L 101.538462 21.152941 L 102.377622 21.152941 L 103.216783 21.152941 L 104.055944 21.152941 L 104.895105 21.152941 L 105.734266 12.917647 L 106.573427 13.905882 L 107.412587 13.905882 L 108.251748 13.905882 L 109.090909 13.905882 L 109.930070 19.337721 L 110.769231 17.035294 L 111.608392 18.762978 L 112.447552 21.976471 L 113.286713 24.994159 L 114.125874 29.388235 L 114.965035 29.388235 L 115.804196 29.388235 L 116.643357 32.682353 L 117.482517 32.682353 L 118.321678 33.505882 L 119.160839 36.800000 L 120.000000 33.505882 L 120 40 Z"></path>
    </g>
  </svg>