<svg xmlns="http://www.w3.org/2000/svg" viewBox="0 0 120 40" width="120" height="40">
    <defs>
      <linearGradient id="color_grad" x1="0%" x2="0%" y1="0%" y2="100%">
        <stop offset="0%" style="stop-color:#EA3943;stop-opacity:0.4;"></stop>
        <stop offset="100%" style="stop-color:#EA3943;stop-opacity:0.0;"></stop>
      </linearGradient>
    </defs>
    <g>
      <path stroke="#EA3943" stroke-width="2" stroke-linecap="round" stroke-linejoin="round" fill="none" d="M 0.000000 36.350459 L 0.839161 36.350459 L 1.678322 36.350459 L 2.517483 36.350459 L 3.356643 36.350459 L 4.195804 36.350459 L 5.034965 36.350459 L 5.874126 36.350459 L 6.713287 36.350459 L 7.552448 36.350459 L 8.391608 36.350459 L 9.230769 36.350459 L 10.069930 36.350459 L 10.909091 36.350459 L 11.748252 36.350459 L 12.587413 36.350459 L 13.426573 36.350459 L 14.265734 36.350459 L 15.104895 36.350459 L 15.944056 36.350459 L 16.783217 36.350459 L 17.622378 36.350459 L 18.461538 36.350459 L 19.300699 36.350459 L 20.139860 36.350459 L 20.979021 36.350459 L 21.818182 36.350459 L 22.657343 36.350459 L 23.496503 36.350459 L 24.335664 36.350459 L 25.174825 36.350459 L 26.013986 36.350459 L 26.853147 36.350459 L 27.692308 36.350459 L 28.531469 36.350459 L 29.370629 36.350459 L 30.209790 36.350459 L 31.048951 36.350459 L 31.888112 36.350459 L 32.727273 36.350459 L 33.566434 36.350459 L 34.405594 35.038532 L 35.244755 35.038532 L 36.083916 35.038532 L 36.923077 35.038532 L 37.762238 35.038532 L 38.601399 35.038532 L 39.440559 35.038532 L 40.279720 35.038532 L 41.118881 35.038532 L 41.958042 35.038532 L 42.797203 35.038532 L 43.636364 35.038532 L 44.475524 35.038532 L 45.314685 35.038532 L 46.153846 35.038532 L 46.993007 35.038532 L 47.832168 35.038532 L 48.671329 35.038532 L 49.510490 35.038532 L 50.349650 35.038532 L 51.188811 35.038532 L 52.027972 35.038532 L 52.867133 35.038532 L 53.706294 35.038532 L 54.545455 35.038532 L 55.384615 35.038532 L 56.223776 35.038532 L 57.062937 35.038532 L 57.902098 28.478899 L 58.741259 28.478899 L 59.580420 35.038532 L 60.419580 35.038532 L 61.258741 34.625688 L 62.097902 28.478899 L 62.937063 28.478899 L 63.776224 28.478899 L 64.615385 28.478899 L 65.454545 28.478899 L 66.293706 24.543119 L 67.132867 24.543119 L 67.972028 24.543119 L 68.811189 24.543119 L 69.650350 24.543119 L 70.489510 24.543119 L 71.328671 24.543119 L 72.167832 24.543119 L 73.006993 24.543119 L 73.846154 24.543119 L 74.685315 24.543119 L 75.524476 24.543119 L 76.363636 24.543119 L 77.202797 24.543119 L 78.041958 24.543119 L 78.881119 25.162385 L 79.720280 27.166972 L 80.559441 27.166972 L 81.398601 24.543119 L 82.237762 24.543119 L 83.076923 24.543119 L 83.916084 24.543119 L 84.755245 17.983486 L 85.594406 17.983486 L 86.433566 17.983486 L 87.272727 17.983486 L 88.111888 17.983486 L 88.951049 17.983486 L 89.790210 17.983486 L 90.629371 17.983486 L 91.468531 17.983486 L 92.307692 17.983486 L 93.146853 23.231193 L 93.986014 17.983486 L 94.825175 17.983486 L 95.664336 19.295413 L 96.503497 19.295413 L 97.342657 18.639450 L 98.181818 20.428440 L 99.020979 20.607339 L 99.860140 23.231193 L 100.699301 29.790826 L 101.538462 17.983486 L 102.377622 17.671560 L 103.216783 10.111927 L 104.055944 10.111927 L 104.895105 8.800000 L 105.734266 8.800000 L 106.573427 8.800000 L 107.412587 21.772477 L 108.251748 19.295413 L 109.090909 26.642202 L 109.930070 15.431376 L 110.769231 19.100642 L 111.608392 20.607339 L 112.447552 22.050459 L 113.286713 36.800000 L 114.125874 35.038532 L 114.965035 25.562110 L 115.804196 30.341284 L 116.643357 30.065596 L 117.482517 35.038532 L 118.321678 35.038532 L 119.160839 32.414679 L 120.000000 33.726606"></path>
      <path stroke="none" fill-opacity="0.6" fill="url(#color_grad)" d="M 0 40 L 0.000000 36.350459 L 0.839161 36.350459 L 1.678322 36.350459 L 2.517483 36.350459 L 3.356643 36.350459 L 4.195804 36.350459 L 5.034965 36.350459 L 5.874126 36.350459 L 6.713287 36.350459 L 7.552448 36.350459 L 8.391608 36.350459 L 9.230769 36.350459 L 10.069930 36.350459 L 10.909091 36.350459 L 11.748252 36.350459 L 12.587413 36.350459 L 13.426573 36.350459 L 14.265734 36.350459 L 15.104895 36.350459 L 15.944056 36.350459 L 16.783217 36.350459 L 17.622378 36.350459 L 18.461538 36.350459 L 19.300699 36.350459 L 20.139860 36.350459 L 20.979021 36.350459 L 21.818182 36.350459 L 22.657343 36.350459 L 23.496503 36.350459 L 24.335664 36.350459 L 25.174825 36.350459 L 26.013986 36.350459 L 26.853147 36.350459 L 27.692308 36.350459 L 28.531469 36.350459 L 29.370629 36.350459 L 30.209790 36.350459 L 31.048951 36.350459 L 31.888112 36.350459 L 32.727273 36.350459 L 33.566434 36.350459 L 34.405594 35.038532 L 35.244755 35.038532 L 36.083916 35.038532 L 36.923077 35.038532 L 37.762238 35.038532 L 38.601399 35.038532 L 39.440559 35.038532 L 40.279720 35.038532 L 41.118881 35.038532 L 41.958042 35.038532 L 42.797203 35.038532 L 43.636364 35.038532 L 44.475524 35.038532 L 45.314685 35.038532 L 46.153846 35.038532 L 46.993007 35.038532 L 47.832168 35.038532 L 48.671329 35.038532 L 49.510490 35.038532 L 50.349650 35.038532 L 51.188811 35.038532 L 52.027972 35.038532 L 52.867133 35.038532 L 53.706294 35.038532 L 54.545455 35.038532 L 55.384615 35.038532 L 56.223776 35.038532 L 57.062937 35.038532 L 57.902098 28.478899 L 58.741259 28.478899 L 59.580420 35.038532 L 60.419580 35.038532 L 61.258741 34.625688 L 62.097902 28.478899 L 62.937063 28.478899 L 63.776224 28.478899 L 64.615385 28.478899 L 65.454545 28.478899 L 66.293706 24.543119 L 67.132867 24.543119 L 67.972028 24.543119 L 68.811189 24.543119 L 69.650350 24.543119 L 70.489510 24.543119 L 71.328671 24.543119 L 72.167832 24.543119 L 73.006993 24.543119 L 73.846154 24.543119 L 74.685315 24.543119 L 75.524476 24.543119 L 76.363636 24.543119 L 77.202797 24.543119 L 78.041958 24.543119 L 78.881119 25.162385 L 79.720280 27.166972 L 80.559441 27.166972 L 81.398601 24.543119 L 82.237762 24.543119 L 83.076923 24.543119 L 83.916084 24.543119 L 84.755245 17.983486 L 85.594406 17.983486 L 86.433566 17.983486 L 87.272727 17.983486 L 88.111888 17.983486 L 88.951049 17.983486 L 89.790210 17.983486 L 90.629371 17.983486 L 91.468531 17.983486 L 92.307692 17.983486 L 93.146853 23.231193 L 93.986014 17.983486 L 94.825175 17.983486 L 95.664336 19.295413 L 96.503497 19.295413 L 97.342657 18.639450 L 98.181818 20.428440 L 99.020979 20.607339 L 99.860140 23.231193 L 100.699301 29.790826 L 101.538462 17.983486 L 102.377622 17.671560 L 103.216783 10.111927 L 104.055944 10.111927 L 104.895105 8.800000 L 105.734266 8.800000 L 106.573427 8.800000 L 107.412587 21.772477 L 108.251748 19.295413 L 109.090909 26.642202 L 109.930070 15.431376 L 110.769231 19.100642 L 111.608392 20.607339 L 112.447552 22.050459 L 113.286713 36.800000 L 114.125874 35.038532 L 114.965035 25.562110 L 115.804196 30.341284 L 116.643357 30.065596 L 117.482517 35.038532 L 118.321678 35.038532 L 119.160839 32.414679 L 120.000000 33.726606 L 120 40 Z"></path>
    </g>
  </svg>