<svg xmlns="http://www.w3.org/2000/svg" viewBox="0 0 120 40" width="120" height="40">
    <defs>
      <linearGradient id="color_grad" x1="0%" x2="0%" y1="0%" y2="100%">
        <stop offset="0%" style="stop-color:#EA3943;stop-opacity:0.4;"></stop>
        <stop offset="100%" style="stop-color:#EA3943;stop-opacity:0.0;"></stop>
      </linearGradient>
    </defs>
    <g>
      <path stroke="#EA3943" stroke-width="2" stroke-linecap="round" stroke-linejoin="round" fill="none" d="M 0.000000 35.493432 L 0.839161 35.510292 L 1.678322 36.071730 L 2.517483 36.264061 L 3.356643 36.176726 L 4.195804 36.800000 L 5.034965 36.510479 L 5.874126 36.563039 L 6.713287 36.399289 L 7.552448 36.310840 L 8.391608 36.164009 L 9.230769 35.723648 L 10.069930 35.575627 L 10.909091 35.590052 L 11.748252 35.724604 L 12.587413 36.200020 L 13.426573 35.993093 L 14.265734 35.815079 L 15.104895 35.869493 L 15.944056 35.700173 L 16.783217 35.389267 L 17.622378 35.101765 L 18.461538 34.879163 L 19.300699 34.847846 L 20.139860 34.806053 L 20.979021 34.512253 L 21.818182 32.369350 L 22.657343 33.024069 L 23.496503 32.771746 L 24.335664 32.848185 L 25.174825 32.672166 L 26.013986 32.794637 L 26.853147 32.915255 L 27.692308 32.984045 L 28.531469 33.369498 L 29.370629 33.364689 L 30.209790 33.057886 L 31.048951 32.981932 L 31.888112 32.999804 L 32.727273 32.926205 L 33.566434 32.798722 L 34.405594 31.941493 L 35.244755 31.823666 L 36.083916 32.126547 L 36.923077 32.116128 L 37.762238 31.666032 L 38.601399 31.525211 L 39.440559 31.588012 L 40.279720 31.445648 L 41.118881 31.006847 L 41.958042 31.729224 L 42.797203 32.233978 L 43.636364 32.300839 L 44.475524 31.931437 L 45.314685 31.468961 L 46.153846 31.461311 L 46.993007 31.203938 L 47.832168 31.021012 L 48.671329 31.292575 L 49.510490 31.065981 L 50.349650 31.056397 L 51.188811 31.109920 L 52.027972 30.807532 L 52.867133 30.823127 L 53.706294 30.806593 L 54.545455 30.764881 L 55.384615 30.503914 L 56.223776 30.349682 L 57.062937 29.686642 L 57.902098 24.462865 L 58.741259 24.773541 L 59.580420 30.244291 L 60.419580 30.302264 L 61.258741 30.172087 L 62.097902 25.330022 L 62.937063 26.012317 L 63.776224 26.881295 L 64.615385 26.848167 L 65.454545 26.893256 L 66.293706 24.828788 L 67.132867 24.697111 L 67.972028 25.570409 L 68.811189 25.337563 L 69.650350 25.854023 L 70.489510 25.784430 L 71.328671 25.675759 L 72.167832 25.791004 L 73.006993 25.565350 L 73.846154 25.228299 L 74.685315 24.492673 L 75.524476 24.450047 L 76.363636 24.309325 L 77.202797 24.466551 L 78.041958 24.908712 L 78.881119 25.277016 L 79.720280 26.557823 L 80.559441 27.473365 L 81.398601 25.135627 L 82.237762 24.860495 L 83.076923 23.892977 L 83.916084 22.698615 L 84.755245 18.242769 L 85.594406 17.741951 L 86.433566 17.523195 L 87.272727 17.139885 L 88.111888 17.287587 L 88.951049 17.317432 L 89.790210 16.674085 L 90.629371 16.961706 L 91.468531 16.439844 L 92.307692 16.816372 L 93.146853 21.612980 L 93.986014 15.756560 L 94.825175 16.160750 L 95.664336 18.447753 L 96.503497 18.164226 L 97.342657 17.751289 L 98.181818 19.750205 L 99.020979 20.467175 L 99.860140 22.093245 L 100.699301 26.127157 L 101.538462 18.542204 L 102.377622 17.470424 L 103.216783 11.149464 L 104.055944 11.471166 L 104.895105 8.800000 L 105.734266 9.084639 L 106.573427 8.905946 L 107.412587 19.002381 L 108.251748 16.752114 L 109.090909 22.602464 L 109.930070 13.082997 L 110.769231 15.526460 L 111.608392 17.073402 L 112.447552 18.187385 L 113.286713 29.854567 L 114.125874 28.414518 L 114.965035 20.918258 L 115.804196 23.764438 L 116.643357 22.250019 L 117.482517 27.152559 L 118.321678 27.720904 L 119.160839 25.657268 L 120.000000 26.887707"></path>
      <path stroke="none" fill-opacity="0.6" fill="url(#color_grad)" d="M 0 40 L 0.000000 35.493432 L 0.839161 35.510292 L 1.678322 36.071730 L 2.517483 36.264061 L 3.356643 36.176726 L 4.195804 36.800000 L 5.034965 36.510479 L 5.874126 36.563039 L 6.713287 36.399289 L 7.552448 36.310840 L 8.391608 36.164009 L 9.230769 35.723648 L 10.069930 35.575627 L 10.909091 35.590052 L 11.748252 35.724604 L 12.587413 36.200020 L 13.426573 35.993093 L 14.265734 35.815079 L 15.104895 35.869493 L 15.944056 35.700173 L 16.783217 35.389267 L 17.622378 35.101765 L 18.461538 34.879163 L 19.300699 34.847846 L 20.139860 34.806053 L 20.979021 34.512253 L 21.818182 32.369350 L 22.657343 33.024069 L 23.496503 32.771746 L 24.335664 32.848185 L 25.174825 32.672166 L 26.013986 32.794637 L 26.853147 32.915255 L 27.692308 32.984045 L 28.531469 33.369498 L 29.370629 33.364689 L 30.209790 33.057886 L 31.048951 32.981932 L 31.888112 32.999804 L 32.727273 32.926205 L 33.566434 32.798722 L 34.405594 31.941493 L 35.244755 31.823666 L 36.083916 32.126547 L 36.923077 32.116128 L 37.762238 31.666032 L 38.601399 31.525211 L 39.440559 31.588012 L 40.279720 31.445648 L 41.118881 31.006847 L 41.958042 31.729224 L 42.797203 32.233978 L 43.636364 32.300839 L 44.475524 31.931437 L 45.314685 31.468961 L 46.153846 31.461311 L 46.993007 31.203938 L 47.832168 31.021012 L 48.671329 31.292575 L 49.510490 31.065981 L 50.349650 31.056397 L 51.188811 31.109920 L 52.027972 30.807532 L 52.867133 30.823127 L 53.706294 30.806593 L 54.545455 30.764881 L 55.384615 30.503914 L 56.223776 30.349682 L 57.062937 29.686642 L 57.902098 24.462865 L 58.741259 24.773541 L 59.580420 30.244291 L 60.419580 30.302264 L 61.258741 30.172087 L 62.097902 25.330022 L 62.937063 26.012317 L 63.776224 26.881295 L 64.615385 26.848167 L 65.454545 26.893256 L 66.293706 24.828788 L 67.132867 24.697111 L 67.972028 25.570409 L 68.811189 25.337563 L 69.650350 25.854023 L 70.489510 25.784430 L 71.328671 25.675759 L 72.167832 25.791004 L 73.006993 25.565350 L 73.846154 25.228299 L 74.685315 24.492673 L 75.524476 24.450047 L 76.363636 24.309325 L 77.202797 24.466551 L 78.041958 24.908712 L 78.881119 25.277016 L 79.720280 26.557823 L 80.559441 27.473365 L 81.398601 25.135627 L 82.237762 24.860495 L 83.076923 23.892977 L 83.916084 22.698615 L 84.755245 18.242769 L 85.594406 17.741951 L 86.433566 17.523195 L 87.272727 17.139885 L 88.111888 17.287587 L 88.951049 17.317432 L 89.790210 16.674085 L 90.629371 16.961706 L 91.468531 16.439844 L 92.307692 16.816372 L 93.146853 21.612980 L 93.986014 15.756560 L 94.825175 16.160750 L 95.664336 18.447753 L 96.503497 18.164226 L 97.342657 17.751289 L 98.181818 19.750205 L 99.020979 20.467175 L 99.860140 22.093245 L 100.699301 26.127157 L 101.538462 18.542204 L 102.377622 17.470424 L 103.216783 11.149464 L 104.055944 11.471166 L 104.895105 8.800000 L 105.734266 9.084639 L 106.573427 8.905946 L 107.412587 19.002381 L 108.251748 16.752114 L 109.090909 22.602464 L 109.930070 13.082997 L 110.769231 15.526460 L 111.608392 17.073402 L 112.447552 18.187385 L 113.286713 29.854567 L 114.125874 28.414518 L 114.965035 20.918258 L 115.804196 23.764438 L 116.643357 22.250019 L 117.482517 27.152559 L 118.321678 27.720904 L 119.160839 25.657268 L 120.000000 26.887707 L 120 40 Z"></path>
    </g>
  </svg>