<svg xmlns="http://www.w3.org/2000/svg" viewBox="0 0 120 40" width="120" height="40">
    <defs>
      <linearGradient id="color_grad" x1="0%" x2="0%" y1="0%" y2="100%">
        <stop offset="0%" style="stop-color:#16C784;stop-opacity:0.4;"></stop>
        <stop offset="100%" style="stop-color:#16C784;stop-opacity:0.0;"></stop>
      </linearGradient>
    </defs>
    <g>
      <path stroke="#16C784" stroke-width="2" stroke-linecap="round" stroke-linejoin="round" fill="none" d="M 0.000000 22.375577 L 0.839161 27.163850 L 1.678322 28.591566 L 2.517483 29.079860 L 3.356643 28.854646 L 4.195804 30.439907 L 5.034965 29.699986 L 5.874126 25.184261 L 6.713287 24.754987 L 7.552448 24.530826 L 8.391608 23.623543 L 9.230769 22.464283 L 10.069930 24.700057 L 10.909091 27.374220 L 11.748252 27.709645 L 12.587413 28.911680 L 13.426573 28.392181 L 14.265734 17.459095 L 15.104895 18.129477 L 15.944056 19.767681 L 16.783217 18.939638 L 17.622378 18.690816 L 18.461538 18.100960 L 19.300699 17.489599 L 20.139860 16.294693 L 20.979021 15.507439 L 21.818182 9.705763 L 22.657343 10.371470 L 23.496503 9.685544 L 24.335664 9.894980 L 25.174825 14.420640 L 26.013986 14.732923 L 26.853147 20.593970 L 27.692308 20.760864 L 28.531469 15.309924 L 29.370629 21.734881 L 30.209790 20.954639 L 31.048951 20.764137 L 31.888112 20.807730 L 32.727273 13.429676 L 33.566434 11.977183 L 34.405594 12.939513 L 35.244755 12.627930 L 36.083916 13.424067 L 36.923077 13.394381 L 37.762238 11.655550 L 38.601399 10.175241 L 39.440559 14.231774 L 40.279720 9.966973 L 41.118881 8.800000 L 41.958042 14.603779 L 42.797203 15.905390 L 43.636364 16.083971 L 44.475524 15.683215 L 45.314685 14.344672 L 46.153846 14.300728 L 46.993007 18.847659 L 47.832168 18.394310 L 48.671329 19.072639 L 49.510490 12.887154 L 50.349650 15.770753 L 51.188811 15.813061 L 52.027972 23.505151 L 52.867133 20.713882 L 53.706294 20.680807 L 54.545455 20.579712 L 55.384615 19.941938 L 56.223776 22.408068 L 57.062937 20.818716 L 57.902098 20.888957 L 58.741259 21.574298 L 59.580420 22.150363 L 60.419580 22.299727 L 61.258741 25.602431 L 62.097902 28.463357 L 62.937063 27.096882 L 63.776224 31.728428 L 64.615385 31.657603 L 65.454545 31.749933 L 66.293706 28.405154 L 67.132867 28.499470 L 67.972028 30.313801 L 68.811189 29.830065 L 69.650350 30.904359 L 70.489510 30.761073 L 71.328671 35.907444 L 72.167832 36.138267 L 73.006993 35.681529 L 73.846154 35.019445 L 74.685315 33.552810 L 75.524476 33.467143 L 76.363636 32.638749 L 77.202797 32.954422 L 78.041958 33.838914 L 78.881119 30.913942 L 79.720280 33.136276 L 80.559441 35.029379 L 81.398601 34.286654 L 82.237762 33.747987 L 83.076923 31.801590 L 83.916084 26.609990 L 84.755245 27.902602 L 85.594406 26.958037 L 86.433566 26.537062 L 87.272727 25.809296 L 88.111888 26.100075 L 88.951049 26.152200 L 89.790210 24.936724 L 90.629371 25.480065 L 91.468531 24.492725 L 92.307692 24.634375 L 93.146853 29.310917 L 93.986014 26.079271 L 94.825175 26.830646 L 95.664336 29.153957 L 96.503497 28.631887 L 97.342657 28.827766 L 98.181818 29.941913 L 99.020979 31.599751 L 99.860140 35.846904 L 100.699301 33.654372 L 101.538462 36.800000 L 102.377622 35.329625 L 103.216783 29.491252 L 104.055944 21.131584 L 104.895105 18.182069 L 105.734266 18.692335 L 106.573427 18.375961 L 107.412587 18.414529 L 108.251748 17.881940 L 109.090909 17.744615 L 109.930070 16.807997 L 110.769231 18.685907 L 111.608392 19.314448 L 112.447552 18.606668 L 113.286713 17.792650 L 114.125874 23.320609 L 114.965035 24.206036 L 115.804196 26.644234 L 116.643357 19.183785 L 117.482517 16.575304 L 118.321678 16.134343 L 119.160839 16.388775 L 120.000000 16.726654"></path>
      <path stroke="none" fill-opacity="0.6" fill="url(#color_grad)" d="M 0 40 L 0.000000 22.375577 L 0.839161 27.163850 L 1.678322 28.591566 L 2.517483 29.079860 L 3.356643 28.854646 L 4.195804 30.439907 L 5.034965 29.699986 L 5.874126 25.184261 L 6.713287 24.754987 L 7.552448 24.530826 L 8.391608 23.623543 L 9.230769 22.464283 L 10.069930 24.700057 L 10.909091 27.374220 L 11.748252 27.709645 L 12.587413 28.911680 L 13.426573 28.392181 L 14.265734 17.459095 L 15.104895 18.129477 L 15.944056 19.767681 L 16.783217 18.939638 L 17.622378 18.690816 L 18.461538 18.100960 L 19.300699 17.489599 L 20.139860 16.294693 L 20.979021 15.507439 L 21.818182 9.705763 L 22.657343 10.371470 L 23.496503 9.685544 L 24.335664 9.894980 L 25.174825 14.420640 L 26.013986 14.732923 L 26.853147 20.593970 L 27.692308 20.760864 L 28.531469 15.309924 L 29.370629 21.734881 L 30.209790 20.954639 L 31.048951 20.764137 L 31.888112 20.807730 L 32.727273 13.429676 L 33.566434 11.977183 L 34.405594 12.939513 L 35.244755 12.627930 L 36.083916 13.424067 L 36.923077 13.394381 L 37.762238 11.655550 L 38.601399 10.175241 L 39.440559 14.231774 L 40.279720 9.966973 L 41.118881 8.800000 L 41.958042 14.603779 L 42.797203 15.905390 L 43.636364 16.083971 L 44.475524 15.683215 L 45.314685 14.344672 L 46.153846 14.300728 L 46.993007 18.847659 L 47.832168 18.394310 L 48.671329 19.072639 L 49.510490 12.887154 L 50.349650 15.770753 L 51.188811 15.813061 L 52.027972 23.505151 L 52.867133 20.713882 L 53.706294 20.680807 L 54.545455 20.579712 L 55.384615 19.941938 L 56.223776 22.408068 L 57.062937 20.818716 L 57.902098 20.888957 L 58.741259 21.574298 L 59.580420 22.150363 L 60.419580 22.299727 L 61.258741 25.602431 L 62.097902 28.463357 L 62.937063 27.096882 L 63.776224 31.728428 L 64.615385 31.657603 L 65.454545 31.749933 L 66.293706 28.405154 L 67.132867 28.499470 L 67.972028 30.313801 L 68.811189 29.830065 L 69.650350 30.904359 L 70.489510 30.761073 L 71.328671 35.907444 L 72.167832 36.138267 L 73.006993 35.681529 L 73.846154 35.019445 L 74.685315 33.552810 L 75.524476 33.467143 L 76.363636 32.638749 L 77.202797 32.954422 L 78.041958 33.838914 L 78.881119 30.913942 L 79.720280 33.136276 L 80.559441 35.029379 L 81.398601 34.286654 L 82.237762 33.747987 L 83.076923 31.801590 L 83.916084 26.609990 L 84.755245 27.902602 L 85.594406 26.958037 L 86.433566 26.537062 L 87.272727 25.809296 L 88.111888 26.100075 L 88.951049 26.152200 L 89.790210 24.936724 L 90.629371 25.480065 L 91.468531 24.492725 L 92.307692 24.634375 L 93.146853 29.310917 L 93.986014 26.079271 L 94.825175 26.830646 L 95.664336 29.153957 L 96.503497 28.631887 L 97.342657 28.827766 L 98.181818 29.941913 L 99.020979 31.599751 L 99.860140 35.846904 L 100.699301 33.654372 L 101.538462 36.800000 L 102.377622 35.329625 L 103.216783 29.491252 L 104.055944 21.131584 L 104.895105 18.182069 L 105.734266 18.692335 L 106.573427 18.375961 L 107.412587 18.414529 L 108.251748 17.881940 L 109.090909 17.744615 L 109.930070 16.807997 L 110.769231 18.685907 L 111.608392 19.314448 L 112.447552 18.606668 L 113.286713 17.792650 L 114.125874 23.320609 L 114.965035 24.206036 L 115.804196 26.644234 L 116.643357 19.183785 L 117.482517 16.575304 L 118.321678 16.134343 L 119.160839 16.388775 L 120.000000 16.726654 L 120 40 Z"></path>
    </g>
  </svg>