<svg xmlns="http://www.w3.org/2000/svg" viewBox="0 0 120 40" width="120" height="40">
    <defs>
      <linearGradient id="color_grad" x1="0%" x2="0%" y1="0%" y2="100%">
        <stop offset="0%" style="stop-color:#EA3943;stop-opacity:0.4;"></stop>
        <stop offset="100%" style="stop-color:#EA3943;stop-opacity:0.0;"></stop>
      </linearGradient>
    </defs>
    <g>
      <path stroke="#EA3943" stroke-width="2" stroke-linecap="round" stroke-linejoin="round" fill="none" d="M 0.000000 16.009000 L 0.839161 10.811251 L 1.678322 11.295889 L 2.517483 8.800000 L 3.356643 10.811251 L 4.195804 10.811251 L 5.034965 10.811251 L 5.874126 10.811251 L 6.713287 10.811251 L 7.552448 10.811251 L 8.391608 10.811251 L 9.230769 10.811251 L 10.069930 10.811251 L 10.909091 10.811251 L 11.748252 10.811251 L 12.587413 10.811251 L 13.426573 10.811251 L 14.265734 10.811251 L 15.104895 10.811251 L 15.944056 10.811251 L 16.783217 10.811251 L 17.622378 10.811251 L 18.461538 10.811251 L 19.300699 10.811251 L 20.139860 10.811251 L 20.979021 10.811251 L 21.818182 10.811251 L 22.657343 10.838148 L 23.496503 10.845902 L 24.335664 14.362441 L 25.174825 13.236867 L 26.013986 13.816010 L 26.853147 16.287668 L 27.692308 17.741584 L 28.531469 17.914842 L 29.370629 18.690264 L 30.209790 16.043652 L 31.048951 16.043652 L 31.888112 16.043652 L 32.727273 15.870394 L 33.566434 15.662484 L 34.405594 15.662484 L 35.244755 15.697135 L 36.083916 15.701497 L 36.923077 16.014331 L 37.762238 16.355517 L 38.601399 16.355517 L 39.440559 16.702034 L 40.279720 16.702034 L 41.118881 16.736685 L 41.958042 17.048550 L 42.797203 17.048550 L 43.636364 21.206750 L 44.475524 21.206750 L 45.314685 21.380009 L 46.153846 21.380009 L 46.993007 21.746395 L 47.832168 21.380009 L 48.671329 21.380009 L 49.510490 21.380009 L 50.349650 21.380009 L 51.188811 21.380009 L 52.027972 21.380009 L 52.867133 21.380009 L 53.706294 21.380009 L 54.545455 21.380009 L 55.384615 21.380009 L 56.223776 21.380009 L 57.062937 21.380009 L 57.902098 21.380009 L 58.741259 21.587919 L 59.580420 21.587919 L 60.419580 21.726525 L 61.258741 21.726525 L 62.097902 21.726525 L 62.937063 22.073042 L 63.776224 22.073042 L 64.615385 22.073042 L 65.454545 24.435656 L 66.293706 22.939334 L 67.132867 23.039412 L 67.972028 24.013535 L 68.811189 28.153319 L 69.650350 25.399602 L 70.489510 35.093345 L 71.328671 36.800000 L 72.167832 36.800000 L 73.006993 36.800000 L 73.846154 36.800000 L 74.685315 36.800000 L 75.524476 36.800000 L 76.363636 30.499697 L 77.202797 35.543090 L 78.041958 31.636902 L 78.881119 31.636902 L 79.720280 31.636902 L 80.559441 28.914202 L 81.398601 28.934072 L 82.237762 28.934072 L 83.076923 30.250835 L 83.916084 30.250835 L 84.755245 30.250835 L 85.594406 30.250835 L 86.433566 30.250835 L 87.272727 30.250835 L 88.111888 30.250835 L 88.951049 30.250835 L 89.790210 30.250835 L 90.629371 30.285487 L 91.468531 30.285487 L 92.307692 30.285487 L 93.146853 30.285487 L 93.986014 30.285487 L 94.825175 30.285487 L 95.664336 30.285487 L 96.503497 30.285487 L 97.342657 30.285487 L 98.181818 30.285487 L 99.020979 30.597352 L 99.860140 30.619645 L 100.699301 30.666655 L 101.538462 30.943868 L 102.377622 30.943868 L 103.216783 30.943868 L 104.055944 35.079290 L 104.895105 35.102068 L 105.734266 35.102068 L 106.573427 35.102068 L 107.412587 35.102068 L 108.251748 28.137084 L 109.090909 35.102068 L 109.930070 35.102068 L 110.769231 35.102068 L 111.608392 35.102068 L 112.447552 35.102068 L 113.286713 35.102068 L 114.125874 35.102068 L 114.965035 35.102068 L 115.804196 35.102068 L 116.643357 35.102068 L 117.482517 35.102068 L 118.321678 35.102068 L 119.160839 35.102068 L 120.000000 35.102068"></path>
      <path stroke="none" fill-opacity="0.6" fill="url(#color_grad)" d="M 0 40 L 0.000000 16.009000 L 0.839161 10.811251 L 1.678322 11.295889 L 2.517483 8.800000 L 3.356643 10.811251 L 4.195804 10.811251 L 5.034965 10.811251 L 5.874126 10.811251 L 6.713287 10.811251 L 7.552448 10.811251 L 8.391608 10.811251 L 9.230769 10.811251 L 10.069930 10.811251 L 10.909091 10.811251 L 11.748252 10.811251 L 12.587413 10.811251 L 13.426573 10.811251 L 14.265734 10.811251 L 15.104895 10.811251 L 15.944056 10.811251 L 16.783217 10.811251 L 17.622378 10.811251 L 18.461538 10.811251 L 19.300699 10.811251 L 20.139860 10.811251 L 20.979021 10.811251 L 21.818182 10.811251 L 22.657343 10.838148 L 23.496503 10.845902 L 24.335664 14.362441 L 25.174825 13.236867 L 26.013986 13.816010 L 26.853147 16.287668 L 27.692308 17.741584 L 28.531469 17.914842 L 29.370629 18.690264 L 30.209790 16.043652 L 31.048951 16.043652 L 31.888112 16.043652 L 32.727273 15.870394 L 33.566434 15.662484 L 34.405594 15.662484 L 35.244755 15.697135 L 36.083916 15.701497 L 36.923077 16.014331 L 37.762238 16.355517 L 38.601399 16.355517 L 39.440559 16.702034 L 40.279720 16.702034 L 41.118881 16.736685 L 41.958042 17.048550 L 42.797203 17.048550 L 43.636364 21.206750 L 44.475524 21.206750 L 45.314685 21.380009 L 46.153846 21.380009 L 46.993007 21.746395 L 47.832168 21.380009 L 48.671329 21.380009 L 49.510490 21.380009 L 50.349650 21.380009 L 51.188811 21.380009 L 52.027972 21.380009 L 52.867133 21.380009 L 53.706294 21.380009 L 54.545455 21.380009 L 55.384615 21.380009 L 56.223776 21.380009 L 57.062937 21.380009 L 57.902098 21.380009 L 58.741259 21.587919 L 59.580420 21.587919 L 60.419580 21.726525 L 61.258741 21.726525 L 62.097902 21.726525 L 62.937063 22.073042 L 63.776224 22.073042 L 64.615385 22.073042 L 65.454545 24.435656 L 66.293706 22.939334 L 67.132867 23.039412 L 67.972028 24.013535 L 68.811189 28.153319 L 69.650350 25.399602 L 70.489510 35.093345 L 71.328671 36.800000 L 72.167832 36.800000 L 73.006993 36.800000 L 73.846154 36.800000 L 74.685315 36.800000 L 75.524476 36.800000 L 76.363636 30.499697 L 77.202797 35.543090 L 78.041958 31.636902 L 78.881119 31.636902 L 79.720280 31.636902 L 80.559441 28.914202 L 81.398601 28.934072 L 82.237762 28.934072 L 83.076923 30.250835 L 83.916084 30.250835 L 84.755245 30.250835 L 85.594406 30.250835 L 86.433566 30.250835 L 87.272727 30.250835 L 88.111888 30.250835 L 88.951049 30.250835 L 89.790210 30.250835 L 90.629371 30.285487 L 91.468531 30.285487 L 92.307692 30.285487 L 93.146853 30.285487 L 93.986014 30.285487 L 94.825175 30.285487 L 95.664336 30.285487 L 96.503497 30.285487 L 97.342657 30.285487 L 98.181818 30.285487 L 99.020979 30.597352 L 99.860140 30.619645 L 100.699301 30.666655 L 101.538462 30.943868 L 102.377622 30.943868 L 103.216783 30.943868 L 104.055944 35.079290 L 104.895105 35.102068 L 105.734266 35.102068 L 106.573427 35.102068 L 107.412587 35.102068 L 108.251748 28.137084 L 109.090909 35.102068 L 109.930070 35.102068 L 110.769231 35.102068 L 111.608392 35.102068 L 112.447552 35.102068 L 113.286713 35.102068 L 114.125874 35.102068 L 114.965035 35.102068 L 115.804196 35.102068 L 116.643357 35.102068 L 117.482517 35.102068 L 118.321678 35.102068 L 119.160839 35.102068 L 120.000000 35.102068 L 120 40 Z"></path>
    </g>
  </svg>