<svg xmlns="http://www.w3.org/2000/svg" viewBox="0 0 120 40" width="120" height="40">
    <defs>
      <linearGradient id="color_grad" x1="0%" x2="0%" y1="0%" y2="100%">
        <stop offset="0%" style="stop-color:#16C784;stop-opacity:0.4;"></stop>
        <stop offset="100%" style="stop-color:#16C784;stop-opacity:0.0;"></stop>
      </linearGradient>
    </defs>
    <g>
      <path stroke="#16C784" stroke-width="2" stroke-linecap="round" stroke-linejoin="round" fill="none" d="M 0.000000 20.849262 L 0.839161 14.432419 L 1.678322 16.722495 L 2.517483 14.789533 L 3.356643 18.400198 L 4.195804 18.186426 L 5.034965 17.131897 L 5.874126 17.762109 L 6.713287 19.805332 L 7.552448 19.142395 L 8.391608 19.456881 L 9.230769 17.580335 L 10.069930 19.373282 L 10.909091 17.821594 L 11.748252 18.487086 L 12.587413 19.145434 L 13.426573 19.571142 L 14.265734 18.166386 L 15.104895 16.425826 L 15.944056 16.659041 L 16.783217 15.577071 L 17.622378 14.081187 L 18.461538 12.819137 L 19.300699 13.126948 L 20.139860 13.343487 L 20.979021 13.554848 L 21.818182 12.822191 L 22.657343 12.898405 L 23.496503 13.558046 L 24.335664 17.727336 L 25.174825 17.723858 L 26.013986 19.427982 L 26.853147 20.739341 L 27.692308 22.079684 L 28.531469 21.326034 L 29.370629 21.769310 L 30.209790 18.064417 L 31.048951 21.736426 L 31.888112 21.819995 L 32.727273 22.627302 L 33.566434 20.115328 L 34.405594 19.307507 L 35.244755 20.694915 L 36.083916 16.507460 L 36.923077 16.126980 L 37.762238 12.267581 L 38.601399 10.464678 L 39.440559 10.710737 L 40.279720 13.848894 L 41.118881 13.356127 L 41.958042 12.400067 L 42.797203 13.695181 L 43.636364 16.578450 L 44.475524 16.180569 L 45.314685 14.286553 L 46.153846 14.199567 L 46.993007 16.906679 L 47.832168 16.485613 L 48.671329 15.293972 L 49.510490 15.787669 L 50.349650 15.825821 L 51.188811 16.803826 L 52.027972 12.500826 L 52.867133 11.990067 L 53.706294 13.647232 L 54.545455 14.304038 L 55.384615 12.435634 L 56.223776 12.032355 L 57.062937 13.663764 L 57.902098 14.431308 L 58.741259 16.502675 L 59.580420 16.498094 L 60.419580 13.125210 L 61.258741 9.860123 L 62.097902 11.460425 L 62.937063 11.677010 L 63.776224 12.359170 L 64.615385 14.793449 L 65.454545 19.450357 L 66.293706 17.775852 L 67.132867 16.458460 L 67.972028 19.049135 L 68.811189 22.480135 L 69.650350 24.039405 L 70.489510 34.505238 L 71.328671 34.196043 L 72.167832 34.146575 L 73.006993 34.146575 L 73.846154 36.800000 L 74.685315 34.081896 L 75.524476 33.626110 L 76.363636 22.700220 L 77.202797 32.200686 L 78.041958 32.654175 L 78.881119 27.783690 L 79.720280 28.015174 L 80.559441 24.209991 L 81.398601 26.157429 L 82.237762 23.385502 L 83.076923 25.724381 L 83.916084 26.200464 L 84.755245 20.175969 L 85.594406 20.723663 L 86.433566 21.818756 L 87.272727 21.138969 L 88.111888 21.948498 L 88.951049 20.169430 L 89.790210 19.941084 L 90.629371 20.299036 L 91.468531 20.503344 L 92.307692 20.015733 L 93.146853 19.316669 L 93.986014 18.730869 L 94.825175 17.347672 L 95.664336 17.973606 L 96.503497 18.063578 L 97.342657 16.362032 L 98.181818 16.318029 L 99.020979 14.231196 L 99.860140 13.977903 L 100.699301 9.755198 L 101.538462 16.421177 L 102.377622 16.377385 L 103.216783 16.139967 L 104.055944 21.934974 L 104.895105 20.470287 L 105.734266 16.275908 L 106.573427 17.922459 L 107.412587 19.308331 L 108.251748 8.800000 L 109.090909 20.021221 L 109.930070 18.403910 L 110.769231 15.678284 L 111.608392 13.917291 L 112.447552 10.286617 L 113.286713 11.395279 L 114.125874 11.629507 L 114.965035 13.151086 L 115.804196 13.907933 L 116.643357 15.082505 L 117.482517 13.436506 L 118.321678 16.132582 L 119.160839 15.795387 L 120.000000 18.208393"></path>
      <path stroke="none" fill-opacity="0.6" fill="url(#color_grad)" d="M 0 40 L 0.000000 20.849262 L 0.839161 14.432419 L 1.678322 16.722495 L 2.517483 14.789533 L 3.356643 18.400198 L 4.195804 18.186426 L 5.034965 17.131897 L 5.874126 17.762109 L 6.713287 19.805332 L 7.552448 19.142395 L 8.391608 19.456881 L 9.230769 17.580335 L 10.069930 19.373282 L 10.909091 17.821594 L 11.748252 18.487086 L 12.587413 19.145434 L 13.426573 19.571142 L 14.265734 18.166386 L 15.104895 16.425826 L 15.944056 16.659041 L 16.783217 15.577071 L 17.622378 14.081187 L 18.461538 12.819137 L 19.300699 13.126948 L 20.139860 13.343487 L 20.979021 13.554848 L 21.818182 12.822191 L 22.657343 12.898405 L 23.496503 13.558046 L 24.335664 17.727336 L 25.174825 17.723858 L 26.013986 19.427982 L 26.853147 20.739341 L 27.692308 22.079684 L 28.531469 21.326034 L 29.370629 21.769310 L 30.209790 18.064417 L 31.048951 21.736426 L 31.888112 21.819995 L 32.727273 22.627302 L 33.566434 20.115328 L 34.405594 19.307507 L 35.244755 20.694915 L 36.083916 16.507460 L 36.923077 16.126980 L 37.762238 12.267581 L 38.601399 10.464678 L 39.440559 10.710737 L 40.279720 13.848894 L 41.118881 13.356127 L 41.958042 12.400067 L 42.797203 13.695181 L 43.636364 16.578450 L 44.475524 16.180569 L 45.314685 14.286553 L 46.153846 14.199567 L 46.993007 16.906679 L 47.832168 16.485613 L 48.671329 15.293972 L 49.510490 15.787669 L 50.349650 15.825821 L 51.188811 16.803826 L 52.027972 12.500826 L 52.867133 11.990067 L 53.706294 13.647232 L 54.545455 14.304038 L 55.384615 12.435634 L 56.223776 12.032355 L 57.062937 13.663764 L 57.902098 14.431308 L 58.741259 16.502675 L 59.580420 16.498094 L 60.419580 13.125210 L 61.258741 9.860123 L 62.097902 11.460425 L 62.937063 11.677010 L 63.776224 12.359170 L 64.615385 14.793449 L 65.454545 19.450357 L 66.293706 17.775852 L 67.132867 16.458460 L 67.972028 19.049135 L 68.811189 22.480135 L 69.650350 24.039405 L 70.489510 34.505238 L 71.328671 34.196043 L 72.167832 34.146575 L 73.006993 34.146575 L 73.846154 36.800000 L 74.685315 34.081896 L 75.524476 33.626110 L 76.363636 22.700220 L 77.202797 32.200686 L 78.041958 32.654175 L 78.881119 27.783690 L 79.720280 28.015174 L 80.559441 24.209991 L 81.398601 26.157429 L 82.237762 23.385502 L 83.076923 25.724381 L 83.916084 26.200464 L 84.755245 20.175969 L 85.594406 20.723663 L 86.433566 21.818756 L 87.272727 21.138969 L 88.111888 21.948498 L 88.951049 20.169430 L 89.790210 19.941084 L 90.629371 20.299036 L 91.468531 20.503344 L 92.307692 20.015733 L 93.146853 19.316669 L 93.986014 18.730869 L 94.825175 17.347672 L 95.664336 17.973606 L 96.503497 18.063578 L 97.342657 16.362032 L 98.181818 16.318029 L 99.020979 14.231196 L 99.860140 13.977903 L 100.699301 9.755198 L 101.538462 16.421177 L 102.377622 16.377385 L 103.216783 16.139967 L 104.055944 21.934974 L 104.895105 20.470287 L 105.734266 16.275908 L 106.573427 17.922459 L 107.412587 19.308331 L 108.251748 8.800000 L 109.090909 20.021221 L 109.930070 18.403910 L 110.769231 15.678284 L 111.608392 13.917291 L 112.447552 10.286617 L 113.286713 11.395279 L 114.125874 11.629507 L 114.965035 13.151086 L 115.804196 13.907933 L 116.643357 15.082505 L 117.482517 13.436506 L 118.321678 16.132582 L 119.160839 15.795387 L 120.000000 18.208393 L 120 40 Z"></path>
    </g>
  </svg>