<svg xmlns="http://www.w3.org/2000/svg" viewBox="0 0 120 40" width="120" height="40">
    <defs>
      <linearGradient id="color_grad" x1="0%" x2="0%" y1="0%" y2="100%">
        <stop offset="0%" style="stop-color:#EA3943;stop-opacity:0.4;"></stop>
        <stop offset="100%" style="stop-color:#EA3943;stop-opacity:0.0;"></stop>
      </linearGradient>
    </defs>
    <g>
      <path stroke="#EA3943" stroke-width="2" stroke-linecap="round" stroke-linejoin="round" fill="none" d="M 0.000000 34.431810 L 0.839161 34.341240 L 1.678322 34.053188 L 2.517483 34.643407 L 3.356643 34.347983 L 4.195804 34.917002 L 5.034965 34.085701 L 5.874126 35.465565 L 6.713287 34.983687 L 7.552448 34.319812 L 8.391608 34.730605 L 9.230769 34.137643 L 10.069930 36.107268 L 10.909091 36.800000 L 11.748252 34.297298 L 12.587413 34.055759 L 13.426573 34.167186 L 14.265734 33.677137 L 15.104895 33.471254 L 15.944056 33.232515 L 16.783217 32.890464 L 17.622378 32.652582 L 18.461538 32.750409 L 19.300699 32.544241 L 20.139860 32.566412 L 20.979021 32.593612 L 21.818182 33.629537 L 22.657343 32.453042 L 23.496503 33.904562 L 24.335664 33.433826 L 25.174825 33.068804 L 26.013986 33.202630 L 26.853147 33.588281 L 27.692308 32.776809 L 28.531469 32.653782 L 29.370629 33.414284 L 30.209790 32.482185 L 31.048951 33.552110 L 31.888112 33.330057 L 32.727273 32.547955 L 33.566434 32.258246 L 34.405594 32.156362 L 35.244755 32.327616 L 36.083916 31.798939 L 36.923077 31.718312 L 37.762238 30.641929 L 38.601399 30.017939 L 39.440559 29.563147 L 40.279720 30.245650 L 41.118881 30.219879 L 41.958042 30.011539 L 42.797203 29.907655 L 43.636364 29.640460 L 44.475524 29.112297 L 45.314685 29.262352 L 46.153846 28.904243 L 46.993007 29.411835 L 47.832168 30.987581 L 48.671329 29.150011 L 49.510490 28.476822 L 50.349650 28.595505 L 51.188811 28.895215 L 52.027972 28.218597 L 52.867133 28.240711 L 53.706294 28.199740 L 54.545455 28.506878 L 55.384615 26.884676 L 56.223776 27.970430 L 57.062937 28.619105 L 57.902098 29.961769 L 58.741259 29.648574 L 59.580420 29.353779 L 60.419580 28.585620 L 61.258741 28.025572 L 62.097902 28.680818 L 62.937063 28.802245 L 63.776224 28.753046 L 64.615385 29.097840 L 65.454545 29.415378 L 66.293706 26.336742 L 67.132867 25.837322 L 67.972028 26.982617 L 68.811189 27.038331 L 69.650350 27.948030 L 70.489510 27.667406 L 71.328671 27.180500 L 72.167832 27.143015 L 73.006993 27.143015 L 73.846154 26.732564 L 74.685315 26.830220 L 75.524476 27.611750 L 76.363636 26.499711 L 77.202797 27.358326 L 78.041958 28.530649 L 78.881119 27.827232 L 79.720280 27.862089 L 80.559441 28.625219 L 81.398601 31.312147 L 82.237762 30.022454 L 83.076923 29.622689 L 83.916084 30.554959 L 84.755245 29.857428 L 85.594406 31.747111 L 86.433566 31.364489 L 87.272727 31.430716 L 88.111888 31.099122 L 88.951049 29.460806 L 89.790210 30.285763 L 90.629371 29.478291 L 91.468531 29.782343 L 92.307692 29.721373 L 93.146853 30.489303 L 93.986014 31.242948 L 94.825175 31.012609 L 95.664336 31.411002 L 96.503497 29.790743 L 97.342657 29.892570 L 98.181818 29.588461 L 99.020979 30.043882 L 99.860140 28.755160 L 100.699301 28.251568 L 101.538462 29.123611 L 102.377622 29.706230 L 103.216783 29.277437 L 104.055944 29.763372 L 104.895105 29.200581 L 105.734266 29.046869 L 106.573427 29.736287 L 107.412587 30.072510 L 108.251748 8.800000 L 109.090909 32.947606 L 109.930070 32.737038 L 110.769231 32.206704 L 111.608392 31.988136 L 112.447552 31.538600 L 113.286713 32.860007 L 114.125874 33.180916 L 114.965035 33.611423 L 115.804196 33.390799 L 116.643357 32.714067 L 117.482517 33.273258 L 118.321678 33.713422 L 119.160839 32.804751 L 120.000000 33.957875"></path>
      <path stroke="none" fill-opacity="0.6" fill="url(#color_grad)" d="M 0 40 L 0.000000 34.431810 L 0.839161 34.341240 L 1.678322 34.053188 L 2.517483 34.643407 L 3.356643 34.347983 L 4.195804 34.917002 L 5.034965 34.085701 L 5.874126 35.465565 L 6.713287 34.983687 L 7.552448 34.319812 L 8.391608 34.730605 L 9.230769 34.137643 L 10.069930 36.107268 L 10.909091 36.800000 L 11.748252 34.297298 L 12.587413 34.055759 L 13.426573 34.167186 L 14.265734 33.677137 L 15.104895 33.471254 L 15.944056 33.232515 L 16.783217 32.890464 L 17.622378 32.652582 L 18.461538 32.750409 L 19.300699 32.544241 L 20.139860 32.566412 L 20.979021 32.593612 L 21.818182 33.629537 L 22.657343 32.453042 L 23.496503 33.904562 L 24.335664 33.433826 L 25.174825 33.068804 L 26.013986 33.202630 L 26.853147 33.588281 L 27.692308 32.776809 L 28.531469 32.653782 L 29.370629 33.414284 L 30.209790 32.482185 L 31.048951 33.552110 L 31.888112 33.330057 L 32.727273 32.547955 L 33.566434 32.258246 L 34.405594 32.156362 L 35.244755 32.327616 L 36.083916 31.798939 L 36.923077 31.718312 L 37.762238 30.641929 L 38.601399 30.017939 L 39.440559 29.563147 L 40.279720 30.245650 L 41.118881 30.219879 L 41.958042 30.011539 L 42.797203 29.907655 L 43.636364 29.640460 L 44.475524 29.112297 L 45.314685 29.262352 L 46.153846 28.904243 L 46.993007 29.411835 L 47.832168 30.987581 L 48.671329 29.150011 L 49.510490 28.476822 L 50.349650 28.595505 L 51.188811 28.895215 L 52.027972 28.218597 L 52.867133 28.240711 L 53.706294 28.199740 L 54.545455 28.506878 L 55.384615 26.884676 L 56.223776 27.970430 L 57.062937 28.619105 L 57.902098 29.961769 L 58.741259 29.648574 L 59.580420 29.353779 L 60.419580 28.585620 L 61.258741 28.025572 L 62.097902 28.680818 L 62.937063 28.802245 L 63.776224 28.753046 L 64.615385 29.097840 L 65.454545 29.415378 L 66.293706 26.336742 L 67.132867 25.837322 L 67.972028 26.982617 L 68.811189 27.038331 L 69.650350 27.948030 L 70.489510 27.667406 L 71.328671 27.180500 L 72.167832 27.143015 L 73.006993 27.143015 L 73.846154 26.732564 L 74.685315 26.830220 L 75.524476 27.611750 L 76.363636 26.499711 L 77.202797 27.358326 L 78.041958 28.530649 L 78.881119 27.827232 L 79.720280 27.862089 L 80.559441 28.625219 L 81.398601 31.312147 L 82.237762 30.022454 L 83.076923 29.622689 L 83.916084 30.554959 L 84.755245 29.857428 L 85.594406 31.747111 L 86.433566 31.364489 L 87.272727 31.430716 L 88.111888 31.099122 L 88.951049 29.460806 L 89.790210 30.285763 L 90.629371 29.478291 L 91.468531 29.782343 L 92.307692 29.721373 L 93.146853 30.489303 L 93.986014 31.242948 L 94.825175 31.012609 L 95.664336 31.411002 L 96.503497 29.790743 L 97.342657 29.892570 L 98.181818 29.588461 L 99.020979 30.043882 L 99.860140 28.755160 L 100.699301 28.251568 L 101.538462 29.123611 L 102.377622 29.706230 L 103.216783 29.277437 L 104.055944 29.763372 L 104.895105 29.200581 L 105.734266 29.046869 L 106.573427 29.736287 L 107.412587 30.072510 L 108.251748 8.800000 L 109.090909 32.947606 L 109.930070 32.737038 L 110.769231 32.206704 L 111.608392 31.988136 L 112.447552 31.538600 L 113.286713 32.860007 L 114.125874 33.180916 L 114.965035 33.611423 L 115.804196 33.390799 L 116.643357 32.714067 L 117.482517 33.273258 L 118.321678 33.713422 L 119.160839 32.804751 L 120.000000 33.957875 L 120 40 Z"></path>
    </g>
  </svg>