<svg xmlns="http://www.w3.org/2000/svg" viewBox="0 0 120 40" width="120" height="40">
    <defs>
      <linearGradient id="color_grad" x1="0%" x2="0%" y1="0%" y2="100%">
        <stop offset="0%" style="stop-color:#EA3943;stop-opacity:0.4;"></stop>
        <stop offset="100%" style="stop-color:#EA3943;stop-opacity:0.0;"></stop>
      </linearGradient>
    </defs>
    <g>
      <path stroke="#EA3943" stroke-width="2" stroke-linecap="round" stroke-linejoin="round" fill="none" d="M 0.000000 33.949944 L 0.839161 33.995039 L 1.678322 33.395265 L 2.517483 34.033371 L 3.356643 33.447125 L 4.195804 34.175423 L 5.034965 33.305073 L 5.874126 34.903720 L 6.713287 34.026607 L 7.552448 33.305073 L 8.391608 33.758286 L 9.230769 33.305073 L 10.069930 35.469673 L 10.909091 36.529425 L 11.748252 33.372717 L 12.587413 32.982638 L 13.426573 33.059301 L 14.265734 32.660203 L 15.104895 32.660203 L 15.944056 32.337768 L 16.783217 32.080722 L 17.622378 32.015333 L 18.461538 32.312965 L 19.300699 32.015333 L 20.139860 32.015333 L 20.979021 32.015333 L 21.818182 33.363698 L 22.657343 31.943179 L 23.496503 33.600451 L 24.335664 32.946561 L 25.174825 32.337768 L 26.013986 32.340023 L 26.853147 32.982638 L 27.692308 32.015333 L 28.531469 32.015333 L 29.370629 32.982638 L 30.209790 32.004059 L 31.048951 32.757159 L 31.888112 32.475310 L 32.727273 31.370462 L 33.566434 31.370462 L 34.405594 31.370462 L 35.244755 31.370462 L 36.083916 31.370462 L 36.923077 31.370462 L 37.762238 30.725592 L 38.601399 30.263360 L 39.440559 29.758286 L 40.279720 30.080722 L 41.118881 30.128072 L 41.958042 30.080722 L 42.797203 29.758286 L 43.636364 29.670349 L 44.475524 29.113416 L 45.314685 29.613980 L 46.153846 29.212627 L 46.993007 29.435851 L 47.832168 31.289290 L 48.671329 29.327621 L 49.510490 28.468546 L 50.349650 28.594814 L 51.188811 28.790981 L 52.027972 28.685006 L 52.867133 28.790981 L 53.706294 28.484329 L 54.545455 28.732356 L 55.384615 27.154002 L 56.223776 28.468546 L 57.062937 28.962345 L 57.902098 30.403157 L 58.741259 29.758286 L 59.580420 29.413303 L 60.419580 29.068320 L 61.258741 28.926268 L 62.097902 29.435851 L 62.937063 29.600451 L 63.776224 29.435851 L 64.615385 29.460654 L 65.454545 29.494476 L 66.293706 25.904848 L 67.132867 25.566629 L 67.972028 26.635400 L 68.811189 26.856370 L 69.650350 27.178805 L 70.489510 26.775197 L 71.328671 26.570011 L 72.167832 26.533935 L 73.006993 26.533935 L 73.846154 25.566629 L 74.685315 26.177678 L 75.524476 27.178805 L 76.363636 26.621871 L 77.202797 26.899211 L 78.041958 27.501240 L 78.881119 27.501240 L 79.720280 27.501240 L 80.559441 28.558737 L 81.398601 31.413303 L 82.237762 30.326494 L 83.076923 29.708681 L 83.916084 30.721082 L 84.755245 30.847351 L 85.594406 32.937542 L 86.433566 32.337768 L 87.272727 32.513641 L 88.111888 32.015333 L 88.951049 30.403157 L 89.790210 31.381736 L 90.629371 30.403157 L 91.468531 30.725592 L 92.307692 30.725592 L 93.146853 31.708681 L 93.986014 32.657948 L 94.825175 32.597069 L 95.664336 32.964600 L 96.503497 31.102142 L 97.342657 31.476437 L 98.181818 31.135964 L 99.020979 32.010823 L 99.860140 30.610598 L 100.699301 30.682751 L 101.538462 30.700789 L 102.377622 31.370462 L 103.216783 30.917249 L 104.055944 31.268997 L 104.895105 30.869899 L 105.734266 31.327621 L 106.573427 31.846223 L 107.412587 32.015333 L 108.251748 8.800000 L 109.090909 35.151747 L 109.930070 35.135964 L 110.769231 34.917249 L 111.608392 34.917249 L 112.447552 34.917249 L 113.286713 36.206990 L 114.125874 36.529425 L 114.965035 36.800000 L 115.804196 36.464036 L 116.643357 35.562120 L 117.482517 36.394138 L 118.321678 36.529425 L 119.160839 35.562120 L 120.000000 36.529425"></path>
      <path stroke="none" fill-opacity="0.6" fill="url(#color_grad)" d="M 0 40 L 0.000000 33.949944 L 0.839161 33.995039 L 1.678322 33.395265 L 2.517483 34.033371 L 3.356643 33.447125 L 4.195804 34.175423 L 5.034965 33.305073 L 5.874126 34.903720 L 6.713287 34.026607 L 7.552448 33.305073 L 8.391608 33.758286 L 9.230769 33.305073 L 10.069930 35.469673 L 10.909091 36.529425 L 11.748252 33.372717 L 12.587413 32.982638 L 13.426573 33.059301 L 14.265734 32.660203 L 15.104895 32.660203 L 15.944056 32.337768 L 16.783217 32.080722 L 17.622378 32.015333 L 18.461538 32.312965 L 19.300699 32.015333 L 20.139860 32.015333 L 20.979021 32.015333 L 21.818182 33.363698 L 22.657343 31.943179 L 23.496503 33.600451 L 24.335664 32.946561 L 25.174825 32.337768 L 26.013986 32.340023 L 26.853147 32.982638 L 27.692308 32.015333 L 28.531469 32.015333 L 29.370629 32.982638 L 30.209790 32.004059 L 31.048951 32.757159 L 31.888112 32.475310 L 32.727273 31.370462 L 33.566434 31.370462 L 34.405594 31.370462 L 35.244755 31.370462 L 36.083916 31.370462 L 36.923077 31.370462 L 37.762238 30.725592 L 38.601399 30.263360 L 39.440559 29.758286 L 40.279720 30.080722 L 41.118881 30.128072 L 41.958042 30.080722 L 42.797203 29.758286 L 43.636364 29.670349 L 44.475524 29.113416 L 45.314685 29.613980 L 46.153846 29.212627 L 46.993007 29.435851 L 47.832168 31.289290 L 48.671329 29.327621 L 49.510490 28.468546 L 50.349650 28.594814 L 51.188811 28.790981 L 52.027972 28.685006 L 52.867133 28.790981 L 53.706294 28.484329 L 54.545455 28.732356 L 55.384615 27.154002 L 56.223776 28.468546 L 57.062937 28.962345 L 57.902098 30.403157 L 58.741259 29.758286 L 59.580420 29.413303 L 60.419580 29.068320 L 61.258741 28.926268 L 62.097902 29.435851 L 62.937063 29.600451 L 63.776224 29.435851 L 64.615385 29.460654 L 65.454545 29.494476 L 66.293706 25.904848 L 67.132867 25.566629 L 67.972028 26.635400 L 68.811189 26.856370 L 69.650350 27.178805 L 70.489510 26.775197 L 71.328671 26.570011 L 72.167832 26.533935 L 73.006993 26.533935 L 73.846154 25.566629 L 74.685315 26.177678 L 75.524476 27.178805 L 76.363636 26.621871 L 77.202797 26.899211 L 78.041958 27.501240 L 78.881119 27.501240 L 79.720280 27.501240 L 80.559441 28.558737 L 81.398601 31.413303 L 82.237762 30.326494 L 83.076923 29.708681 L 83.916084 30.721082 L 84.755245 30.847351 L 85.594406 32.937542 L 86.433566 32.337768 L 87.272727 32.513641 L 88.111888 32.015333 L 88.951049 30.403157 L 89.790210 31.381736 L 90.629371 30.403157 L 91.468531 30.725592 L 92.307692 30.725592 L 93.146853 31.708681 L 93.986014 32.657948 L 94.825175 32.597069 L 95.664336 32.964600 L 96.503497 31.102142 L 97.342657 31.476437 L 98.181818 31.135964 L 99.020979 32.010823 L 99.860140 30.610598 L 100.699301 30.682751 L 101.538462 30.700789 L 102.377622 31.370462 L 103.216783 30.917249 L 104.055944 31.268997 L 104.895105 30.869899 L 105.734266 31.327621 L 106.573427 31.846223 L 107.412587 32.015333 L 108.251748 8.800000 L 109.090909 35.151747 L 109.930070 35.135964 L 110.769231 34.917249 L 111.608392 34.917249 L 112.447552 34.917249 L 113.286713 36.206990 L 114.125874 36.529425 L 114.965035 36.800000 L 115.804196 36.464036 L 116.643357 35.562120 L 117.482517 36.394138 L 118.321678 36.529425 L 119.160839 35.562120 L 120.000000 36.529425 L 120 40 Z"></path>
    </g>
  </svg>