<svg xmlns="http://www.w3.org/2000/svg" viewBox="0 0 120 40" width="120" height="40">
    <defs>
      <linearGradient id="color_grad" x1="0%" x2="0%" y1="0%" y2="100%">
        <stop offset="0%" style="stop-color:#EA3943;stop-opacity:0.4;"></stop>
        <stop offset="100%" style="stop-color:#EA3943;stop-opacity:0.0;"></stop>
      </linearGradient>
    </defs>
    <g>
      <path stroke="#EA3943" stroke-width="2" stroke-linecap="round" stroke-linejoin="round" fill="none" d="M 0.000000 10.663708 L 0.839161 10.663708 L 1.678322 10.663708 L 2.517483 10.663708 L 3.356643 10.663708 L 4.195804 10.663708 L 5.034965 10.663708 L 5.874126 10.229278 L 6.713287 10.219968 L 7.552448 10.219968 L 8.391608 10.219968 L 9.230769 10.219968 L 10.069930 10.219968 L 10.909091 10.175594 L 11.748252 10.175594 L 12.587413 9.731854 L 13.426573 8.800000 L 14.265734 8.800000 L 15.104895 8.800000 L 15.944056 8.800000 L 16.783217 9.731854 L 17.622378 10.147667 L 18.461538 10.175594 L 19.300699 17.126488 L 20.139860 10.175594 L 20.979021 10.619334 L 21.818182 10.175594 L 22.657343 10.175594 L 23.496503 10.175594 L 24.335664 10.175594 L 25.174825 10.175594 L 26.013986 9.731854 L 26.853147 9.731854 L 27.692308 9.731854 L 28.531469 9.731854 L 29.370629 9.731854 L 30.209790 12.409810 L 31.048951 13.015531 L 31.888112 14.169255 L 32.727273 14.169255 L 33.566434 14.169255 L 34.405594 14.169255 L 35.244755 14.169255 L 36.083916 14.169255 L 36.923077 13.896184 L 37.762238 13.045941 L 38.601399 10.663708 L 39.440559 10.663708 L 40.279720 10.663708 L 41.118881 12.083677 L 41.958042 10.172491 L 42.797203 10.240449 L 43.636364 10.663708 L 44.475524 12.879306 L 45.314685 10.663708 L 46.153846 10.940193 L 46.993007 15.056735 L 47.832168 15.056735 L 48.671329 15.056735 L 49.510490 14.051338 L 50.349650 11.732719 L 51.188811 12.083677 L 52.027972 12.083677 L 52.867133 12.083677 L 53.706294 12.394295 L 54.545455 12.083677 L 55.384615 17.343704 L 56.223776 12.394295 L 57.062937 13.526918 L 57.902098 14.612995 L 58.741259 18.584935 L 59.580420 19.050396 L 60.419580 23.569718 L 61.258741 23.487797 L 62.097902 23.953259 L 62.937063 21.269097 L 63.776224 18.476327 L 64.615385 18.128782 L 65.454545 19.050396 L 66.293706 12.394295 L 67.132867 16.338306 L 67.972028 15.056735 L 68.811189 15.500475 L 69.650350 15.500475 L 70.489510 15.168446 L 71.328671 12.394295 L 72.167832 12.394295 L 73.006993 12.394295 L 73.846154 14.435499 L 74.685315 13.702242 L 75.524476 15.367353 L 76.363636 18.110474 L 77.202797 19.562404 L 78.041958 19.627258 L 78.881119 19.139144 L 79.720280 19.139144 L 80.559441 18.363685 L 81.398601 14.435499 L 82.237762 19.627258 L 83.076923 19.627258 L 83.916084 19.627258 L 84.755245 19.627258 L 85.594406 19.627258 L 86.433566 21.337054 L 87.272727 23.842789 L 88.111888 23.842789 L 88.951049 23.842789 L 89.790210 23.842789 L 90.629371 23.842789 L 91.468531 23.842789 L 92.307692 23.842789 L 93.146853 23.842789 L 93.986014 23.842789 L 94.825175 23.842789 L 95.664336 23.842789 L 96.503497 23.842789 L 97.342657 23.842789 L 98.181818 22.132373 L 99.020979 21.753177 L 99.860140 24.774643 L 100.699301 24.427099 L 101.538462 23.842789 L 102.377622 23.842789 L 103.216783 23.842789 L 104.055944 23.931537 L 104.895105 31.642685 L 105.734266 27.925198 L 106.573427 23.931537 L 107.412587 24.375277 L 108.251748 32.362599 L 109.090909 26.109898 L 109.930070 27.925198 L 110.769231 30.143899 L 111.608392 28.809575 L 112.447552 23.842789 L 113.286713 23.842789 L 114.125874 24.364106 L 114.965035 25.936125 L 115.804196 31.738880 L 116.643357 26.857739 L 117.482517 26.593978 L 118.321678 28.546434 L 119.160839 28.546434 L 120.000000 36.800000"></path>
      <path stroke="none" fill-opacity="0.6" fill="url(#color_grad)" d="M 0 40 L 0.000000 10.663708 L 0.839161 10.663708 L 1.678322 10.663708 L 2.517483 10.663708 L 3.356643 10.663708 L 4.195804 10.663708 L 5.034965 10.663708 L 5.874126 10.229278 L 6.713287 10.219968 L 7.552448 10.219968 L 8.391608 10.219968 L 9.230769 10.219968 L 10.069930 10.219968 L 10.909091 10.175594 L 11.748252 10.175594 L 12.587413 9.731854 L 13.426573 8.800000 L 14.265734 8.800000 L 15.104895 8.800000 L 15.944056 8.800000 L 16.783217 9.731854 L 17.622378 10.147667 L 18.461538 10.175594 L 19.300699 17.126488 L 20.139860 10.175594 L 20.979021 10.619334 L 21.818182 10.175594 L 22.657343 10.175594 L 23.496503 10.175594 L 24.335664 10.175594 L 25.174825 10.175594 L 26.013986 9.731854 L 26.853147 9.731854 L 27.692308 9.731854 L 28.531469 9.731854 L 29.370629 9.731854 L 30.209790 12.409810 L 31.048951 13.015531 L 31.888112 14.169255 L 32.727273 14.169255 L 33.566434 14.169255 L 34.405594 14.169255 L 35.244755 14.169255 L 36.083916 14.169255 L 36.923077 13.896184 L 37.762238 13.045941 L 38.601399 10.663708 L 39.440559 10.663708 L 40.279720 10.663708 L 41.118881 12.083677 L 41.958042 10.172491 L 42.797203 10.240449 L 43.636364 10.663708 L 44.475524 12.879306 L 45.314685 10.663708 L 46.153846 10.940193 L 46.993007 15.056735 L 47.832168 15.056735 L 48.671329 15.056735 L 49.510490 14.051338 L 50.349650 11.732719 L 51.188811 12.083677 L 52.027972 12.083677 L 52.867133 12.083677 L 53.706294 12.394295 L 54.545455 12.083677 L 55.384615 17.343704 L 56.223776 12.394295 L 57.062937 13.526918 L 57.902098 14.612995 L 58.741259 18.584935 L 59.580420 19.050396 L 60.419580 23.569718 L 61.258741 23.487797 L 62.097902 23.953259 L 62.937063 21.269097 L 63.776224 18.476327 L 64.615385 18.128782 L 65.454545 19.050396 L 66.293706 12.394295 L 67.132867 16.338306 L 67.972028 15.056735 L 68.811189 15.500475 L 69.650350 15.500475 L 70.489510 15.168446 L 71.328671 12.394295 L 72.167832 12.394295 L 73.006993 12.394295 L 73.846154 14.435499 L 74.685315 13.702242 L 75.524476 15.367353 L 76.363636 18.110474 L 77.202797 19.562404 L 78.041958 19.627258 L 78.881119 19.139144 L 79.720280 19.139144 L 80.559441 18.363685 L 81.398601 14.435499 L 82.237762 19.627258 L 83.076923 19.627258 L 83.916084 19.627258 L 84.755245 19.627258 L 85.594406 19.627258 L 86.433566 21.337054 L 87.272727 23.842789 L 88.111888 23.842789 L 88.951049 23.842789 L 89.790210 23.842789 L 90.629371 23.842789 L 91.468531 23.842789 L 92.307692 23.842789 L 93.146853 23.842789 L 93.986014 23.842789 L 94.825175 23.842789 L 95.664336 23.842789 L 96.503497 23.842789 L 97.342657 23.842789 L 98.181818 22.132373 L 99.020979 21.753177 L 99.860140 24.774643 L 100.699301 24.427099 L 101.538462 23.842789 L 102.377622 23.842789 L 103.216783 23.842789 L 104.055944 23.931537 L 104.895105 31.642685 L 105.734266 27.925198 L 106.573427 23.931537 L 107.412587 24.375277 L 108.251748 32.362599 L 109.090909 26.109898 L 109.930070 27.925198 L 110.769231 30.143899 L 111.608392 28.809575 L 112.447552 23.842789 L 113.286713 23.842789 L 114.125874 24.364106 L 114.965035 25.936125 L 115.804196 31.738880 L 116.643357 26.857739 L 117.482517 26.593978 L 118.321678 28.546434 L 119.160839 28.546434 L 120.000000 36.800000 L 120 40 Z"></path>
    </g>
  </svg>