<svg xmlns="http://www.w3.org/2000/svg" viewBox="0 0 120 40" width="120" height="40">
    <defs>
      <linearGradient id="color_grad" x1="0%" x2="0%" y1="0%" y2="100%">
        <stop offset="0%" style="stop-color:#EA3943;stop-opacity:0.4;"></stop>
        <stop offset="100%" style="stop-color:#EA3943;stop-opacity:0.0;"></stop>
      </linearGradient>
    </defs>
    <g>
      <path stroke="#EA3943" stroke-width="2" stroke-linecap="round" stroke-linejoin="round" fill="none" d="M 0.000000 18.224222 L 0.839161 17.342878 L 1.678322 18.722051 L 2.517483 19.154558 L 3.356643 20.357932 L 4.195804 20.182628 L 5.034965 19.393451 L 5.874126 19.274314 L 6.713287 20.819017 L 7.552448 20.305105 L 8.391608 20.551669 L 9.230769 19.125114 L 10.069930 20.487585 L 10.909091 19.282479 L 11.748252 19.785008 L 12.587413 19.709171 L 13.426573 18.821889 L 14.265734 17.742972 L 15.104895 16.425780 L 15.944056 16.614940 L 16.783217 17.000559 L 17.622378 16.411058 L 18.461538 15.484806 L 19.300699 24.805479 L 20.139860 15.878837 L 20.979021 16.625332 L 21.818182 15.488517 L 22.657343 15.521425 L 23.496503 16.009604 L 24.335664 16.464132 L 25.174825 17.332362 L 26.013986 17.617401 L 26.853147 16.682117 L 27.692308 16.585744 L 28.531469 15.866466 L 29.370629 15.593922 L 30.209790 18.325545 L 31.048951 21.909934 L 31.888112 23.446348 L 32.727273 24.182946 L 33.566434 22.470114 L 34.405594 21.856736 L 35.244755 22.872064 L 36.083916 19.717584 L 36.923077 18.836611 L 37.762238 14.527500 L 38.601399 9.959208 L 39.440559 9.857762 L 40.279720 12.284304 L 41.118881 13.762077 L 41.958042 10.208369 L 42.797203 11.292606 L 43.636364 10.737621 L 44.475524 13.394520 L 45.314685 8.800000 L 46.153846 9.092833 L 46.993007 16.448791 L 47.832168 16.401532 L 48.671329 15.485300 L 49.510490 14.525274 L 50.349650 11.430548 L 51.188811 12.667325 L 52.027972 9.304509 L 52.867133 8.916787 L 53.706294 10.618236 L 54.545455 10.708672 L 55.384615 16.433327 L 56.223776 9.385790 L 57.062937 12.181992 L 57.902098 14.243204 L 58.741259 20.991723 L 59.580420 21.615987 L 60.419580 25.146313 L 61.258741 22.686368 L 62.097902 24.465758 L 62.937063 20.683549 L 63.776224 17.369972 L 64.615385 18.714133 L 65.454545 21.579120 L 66.293706 12.566745 L 67.132867 16.786780 L 67.972028 16.254435 L 68.811189 16.125648 L 69.650350 19.573951 L 70.489510 19.462855 L 71.328671 14.072972 L 72.167832 14.031404 L 73.006993 14.031404 L 73.846154 18.914180 L 74.685315 15.727905 L 75.524476 17.590926 L 76.363636 17.891306 L 77.202797 23.085101 L 78.041958 26.672583 L 78.881119 22.288996 L 79.720280 22.470114 L 80.559441 15.601964 L 81.398601 16.944517 L 82.237762 21.726960 L 83.076923 22.464671 L 83.916084 22.824929 L 84.755245 18.207521 L 85.594406 18.631368 L 86.433566 21.802797 L 87.272727 24.720116 L 88.111888 25.321617 L 88.951049 24.002199 L 89.790210 23.833204 L 90.629371 24.067025 L 91.468531 24.221545 L 92.307692 23.856834 L 93.146853 23.338469 L 93.986014 22.894209 L 94.825175 21.865891 L 95.664336 22.328337 L 96.503497 22.404669 L 97.342657 21.136716 L 98.181818 18.713143 L 99.020979 16.347716 L 99.860140 20.402345 L 100.699301 16.705994 L 101.538462 20.650641 L 102.377622 20.614640 L 103.216783 20.421769 L 104.055944 21.524191 L 104.895105 31.166523 L 105.734266 22.869095 L 106.573427 18.460394 L 107.412587 20.131781 L 108.251748 29.335667 L 109.090909 23.098957 L 109.930070 24.448809 L 110.769231 25.575603 L 111.608392 22.378071 L 112.447552 12.528517 L 113.286713 13.375592 L 114.125874 14.310628 L 114.965035 17.707713 L 115.804196 26.567425 L 116.643357 20.448243 L 117.482517 18.860488 L 118.321678 23.639343 L 119.160839 21.014857 L 120.000000 36.800000"></path>
      <path stroke="none" fill-opacity="0.6" fill="url(#color_grad)" d="M 0 40 L 0.000000 18.224222 L 0.839161 17.342878 L 1.678322 18.722051 L 2.517483 19.154558 L 3.356643 20.357932 L 4.195804 20.182628 L 5.034965 19.393451 L 5.874126 19.274314 L 6.713287 20.819017 L 7.552448 20.305105 L 8.391608 20.551669 L 9.230769 19.125114 L 10.069930 20.487585 L 10.909091 19.282479 L 11.748252 19.785008 L 12.587413 19.709171 L 13.426573 18.821889 L 14.265734 17.742972 L 15.104895 16.425780 L 15.944056 16.614940 L 16.783217 17.000559 L 17.622378 16.411058 L 18.461538 15.484806 L 19.300699 24.805479 L 20.139860 15.878837 L 20.979021 16.625332 L 21.818182 15.488517 L 22.657343 15.521425 L 23.496503 16.009604 L 24.335664 16.464132 L 25.174825 17.332362 L 26.013986 17.617401 L 26.853147 16.682117 L 27.692308 16.585744 L 28.531469 15.866466 L 29.370629 15.593922 L 30.209790 18.325545 L 31.048951 21.909934 L 31.888112 23.446348 L 32.727273 24.182946 L 33.566434 22.470114 L 34.405594 21.856736 L 35.244755 22.872064 L 36.083916 19.717584 L 36.923077 18.836611 L 37.762238 14.527500 L 38.601399 9.959208 L 39.440559 9.857762 L 40.279720 12.284304 L 41.118881 13.762077 L 41.958042 10.208369 L 42.797203 11.292606 L 43.636364 10.737621 L 44.475524 13.394520 L 45.314685 8.800000 L 46.153846 9.092833 L 46.993007 16.448791 L 47.832168 16.401532 L 48.671329 15.485300 L 49.510490 14.525274 L 50.349650 11.430548 L 51.188811 12.667325 L 52.027972 9.304509 L 52.867133 8.916787 L 53.706294 10.618236 L 54.545455 10.708672 L 55.384615 16.433327 L 56.223776 9.385790 L 57.062937 12.181992 L 57.902098 14.243204 L 58.741259 20.991723 L 59.580420 21.615987 L 60.419580 25.146313 L 61.258741 22.686368 L 62.097902 24.465758 L 62.937063 20.683549 L 63.776224 17.369972 L 64.615385 18.714133 L 65.454545 21.579120 L 66.293706 12.566745 L 67.132867 16.786780 L 67.972028 16.254435 L 68.811189 16.125648 L 69.650350 19.573951 L 70.489510 19.462855 L 71.328671 14.072972 L 72.167832 14.031404 L 73.006993 14.031404 L 73.846154 18.914180 L 74.685315 15.727905 L 75.524476 17.590926 L 76.363636 17.891306 L 77.202797 23.085101 L 78.041958 26.672583 L 78.881119 22.288996 L 79.720280 22.470114 L 80.559441 15.601964 L 81.398601 16.944517 L 82.237762 21.726960 L 83.076923 22.464671 L 83.916084 22.824929 L 84.755245 18.207521 L 85.594406 18.631368 L 86.433566 21.802797 L 87.272727 24.720116 L 88.111888 25.321617 L 88.951049 24.002199 L 89.790210 23.833204 L 90.629371 24.067025 L 91.468531 24.221545 L 92.307692 23.856834 L 93.146853 23.338469 L 93.986014 22.894209 L 94.825175 21.865891 L 95.664336 22.328337 L 96.503497 22.404669 L 97.342657 21.136716 L 98.181818 18.713143 L 99.020979 16.347716 L 99.860140 20.402345 L 100.699301 16.705994 L 101.538462 20.650641 L 102.377622 20.614640 L 103.216783 20.421769 L 104.055944 21.524191 L 104.895105 31.166523 L 105.734266 22.869095 L 106.573427 18.460394 L 107.412587 20.131781 L 108.251748 29.335667 L 109.090909 23.098957 L 109.930070 24.448809 L 110.769231 25.575603 L 111.608392 22.378071 L 112.447552 12.528517 L 113.286713 13.375592 L 114.125874 14.310628 L 114.965035 17.707713 L 115.804196 26.567425 L 116.643357 20.448243 L 117.482517 18.860488 L 118.321678 23.639343 L 119.160839 21.014857 L 120.000000 36.800000 L 120 40 Z"></path>
    </g>
  </svg>