<svg xmlns="http://www.w3.org/2000/svg" viewBox="0 0 120 40" width="120" height="40">
    <defs>
      <linearGradient id="color_grad" x1="0%" x2="0%" y1="0%" y2="100%">
        <stop offset="0%" style="stop-color:#EA3943;stop-opacity:0.4;"></stop>
        <stop offset="100%" style="stop-color:#EA3943;stop-opacity:0.0;"></stop>
      </linearGradient>
    </defs>
    <g>
      <path stroke="#EA3943" stroke-width="2" stroke-linecap="round" stroke-linejoin="round" fill="none" d="M 0.000000 17.150877 L 0.839161 17.150877 L 1.678322 17.150877 L 2.517483 18.133333 L 3.356643 18.133333 L 4.195804 21.424218 L 5.034965 22.063158 L 5.874126 23.025003 L 6.713287 13.712281 L 7.552448 14.203509 L 8.391608 14.203509 L 9.230769 14.203509 L 10.069930 14.203509 L 10.909091 14.203509 L 11.748252 14.203509 L 12.587413 14.203509 L 13.426573 14.203509 L 14.265734 14.203509 L 15.104895 14.203509 L 15.944056 14.203509 L 16.783217 14.203509 L 17.622378 14.694737 L 18.461538 14.694737 L 19.300699 14.694737 L 20.139860 16.168421 L 20.979021 16.168421 L 21.818182 16.168421 L 22.657343 16.168421 L 23.496503 16.659649 L 24.335664 17.642105 L 25.174825 17.642105 L 26.013986 18.624561 L 26.853147 20.098246 L 27.692308 20.098246 L 28.531469 19.727248 L 29.370629 19.607018 L 30.209790 19.607018 L 31.048951 16.659649 L 31.888112 18.624561 L 32.727273 18.624561 L 33.566434 18.916550 L 34.405594 19.607018 L 35.244755 19.607018 L 36.083916 19.607018 L 36.923077 19.607018 L 37.762238 19.607018 L 38.601399 19.607018 L 39.440559 19.607018 L 40.279720 19.607018 L 41.118881 19.607018 L 41.958042 20.094810 L 42.797203 20.098246 L 43.636364 19.607018 L 44.475524 22.063158 L 45.314685 19.607018 L 46.153846 19.607018 L 46.993007 19.607018 L 47.832168 19.607018 L 48.671329 23.536842 L 49.510490 23.660508 L 50.349650 19.607018 L 51.188811 19.607018 L 52.027972 19.607018 L 52.867133 19.607018 L 53.706294 19.607018 L 54.545455 20.098246 L 55.384615 20.098246 L 56.223776 20.098246 L 57.062937 20.599779 L 57.902098 20.098246 L 58.741259 20.098246 L 59.580420 20.589474 L 60.419580 20.589474 L 61.258741 20.589474 L 62.097902 20.589474 L 62.937063 20.829935 L 63.776224 20.589474 L 64.615385 20.211606 L 65.454545 20.098246 L 66.293706 20.098246 L 67.132867 20.098246 L 67.972028 20.098246 L 68.811189 20.098246 L 69.650350 20.695964 L 70.489510 20.098246 L 71.328671 21.080702 L 72.167832 21.080702 L 73.006993 21.080702 L 73.846154 22.063158 L 74.685315 22.722709 L 75.524476 23.536842 L 76.363636 24.028070 L 77.202797 24.028070 L 78.041958 24.028070 L 78.881119 22.554386 L 79.720280 22.554386 L 80.559441 23.536842 L 81.398601 23.815090 L 82.237762 24.028070 L 83.076923 24.028070 L 83.916084 24.028070 L 84.755245 24.028070 L 85.594406 24.028070 L 86.433566 24.028070 L 87.272727 24.028070 L 88.111888 24.364716 L 88.951049 24.519298 L 89.790210 24.519298 L 90.629371 24.519298 L 91.468531 24.519298 L 92.307692 24.519298 L 93.146853 24.519298 L 93.986014 24.519298 L 94.825175 24.519298 L 95.664336 24.519298 L 96.503497 25.010526 L 97.342657 25.340302 L 98.181818 24.519298 L 99.020979 24.519298 L 99.860140 24.519298 L 100.699301 24.519298 L 101.538462 28.449123 L 102.377622 25.010526 L 103.216783 30.101435 L 104.055944 25.501754 L 104.895105 26.484211 L 105.734266 31.516722 L 106.573427 33.361404 L 107.412587 33.361404 L 108.251748 8.800000 L 109.090909 33.361404 L 109.930070 33.028193 L 110.769231 33.361404 L 111.608392 33.361404 L 112.447552 33.361404 L 113.286713 35.817544 L 114.125874 35.817544 L 114.965035 35.817544 L 115.804196 35.817544 L 116.643357 35.817544 L 117.482517 35.817544 L 118.321678 36.800000 L 119.160839 33.361404 L 120.000000 28.449123"></path>
      <path stroke="none" fill-opacity="0.6" fill="url(#color_grad)" d="M 0 40 L 0.000000 17.150877 L 0.839161 17.150877 L 1.678322 17.150877 L 2.517483 18.133333 L 3.356643 18.133333 L 4.195804 21.424218 L 5.034965 22.063158 L 5.874126 23.025003 L 6.713287 13.712281 L 7.552448 14.203509 L 8.391608 14.203509 L 9.230769 14.203509 L 10.069930 14.203509 L 10.909091 14.203509 L 11.748252 14.203509 L 12.587413 14.203509 L 13.426573 14.203509 L 14.265734 14.203509 L 15.104895 14.203509 L 15.944056 14.203509 L 16.783217 14.203509 L 17.622378 14.694737 L 18.461538 14.694737 L 19.300699 14.694737 L 20.139860 16.168421 L 20.979021 16.168421 L 21.818182 16.168421 L 22.657343 16.168421 L 23.496503 16.659649 L 24.335664 17.642105 L 25.174825 17.642105 L 26.013986 18.624561 L 26.853147 20.098246 L 27.692308 20.098246 L 28.531469 19.727248 L 29.370629 19.607018 L 30.209790 19.607018 L 31.048951 16.659649 L 31.888112 18.624561 L 32.727273 18.624561 L 33.566434 18.916550 L 34.405594 19.607018 L 35.244755 19.607018 L 36.083916 19.607018 L 36.923077 19.607018 L 37.762238 19.607018 L 38.601399 19.607018 L 39.440559 19.607018 L 40.279720 19.607018 L 41.118881 19.607018 L 41.958042 20.094810 L 42.797203 20.098246 L 43.636364 19.607018 L 44.475524 22.063158 L 45.314685 19.607018 L 46.153846 19.607018 L 46.993007 19.607018 L 47.832168 19.607018 L 48.671329 23.536842 L 49.510490 23.660508 L 50.349650 19.607018 L 51.188811 19.607018 L 52.027972 19.607018 L 52.867133 19.607018 L 53.706294 19.607018 L 54.545455 20.098246 L 55.384615 20.098246 L 56.223776 20.098246 L 57.062937 20.599779 L 57.902098 20.098246 L 58.741259 20.098246 L 59.580420 20.589474 L 60.419580 20.589474 L 61.258741 20.589474 L 62.097902 20.589474 L 62.937063 20.829935 L 63.776224 20.589474 L 64.615385 20.211606 L 65.454545 20.098246 L 66.293706 20.098246 L 67.132867 20.098246 L 67.972028 20.098246 L 68.811189 20.098246 L 69.650350 20.695964 L 70.489510 20.098246 L 71.328671 21.080702 L 72.167832 21.080702 L 73.006993 21.080702 L 73.846154 22.063158 L 74.685315 22.722709 L 75.524476 23.536842 L 76.363636 24.028070 L 77.202797 24.028070 L 78.041958 24.028070 L 78.881119 22.554386 L 79.720280 22.554386 L 80.559441 23.536842 L 81.398601 23.815090 L 82.237762 24.028070 L 83.076923 24.028070 L 83.916084 24.028070 L 84.755245 24.028070 L 85.594406 24.028070 L 86.433566 24.028070 L 87.272727 24.028070 L 88.111888 24.364716 L 88.951049 24.519298 L 89.790210 24.519298 L 90.629371 24.519298 L 91.468531 24.519298 L 92.307692 24.519298 L 93.146853 24.519298 L 93.986014 24.519298 L 94.825175 24.519298 L 95.664336 24.519298 L 96.503497 25.010526 L 97.342657 25.340302 L 98.181818 24.519298 L 99.020979 24.519298 L 99.860140 24.519298 L 100.699301 24.519298 L 101.538462 28.449123 L 102.377622 25.010526 L 103.216783 30.101435 L 104.055944 25.501754 L 104.895105 26.484211 L 105.734266 31.516722 L 106.573427 33.361404 L 107.412587 33.361404 L 108.251748 8.800000 L 109.090909 33.361404 L 109.930070 33.028193 L 110.769231 33.361404 L 111.608392 33.361404 L 112.447552 33.361404 L 113.286713 35.817544 L 114.125874 35.817544 L 114.965035 35.817544 L 115.804196 35.817544 L 116.643357 35.817544 L 117.482517 35.817544 L 118.321678 36.800000 L 119.160839 33.361404 L 120.000000 28.449123 L 120 40 Z"></path>
    </g>
  </svg>