<svg xmlns="http://www.w3.org/2000/svg" viewBox="0 0 120 40" width="120" height="40">
    <defs>
      <linearGradient id="color_grad" x1="0%" x2="0%" y1="0%" y2="100%">
        <stop offset="0%" style="stop-color:#888888;stop-opacity:0.4;"></stop>
        <stop offset="100%" style="stop-color:#888888;stop-opacity:0.0;"></stop>
      </linearGradient>
    </defs>
    <g>
      <path stroke="#888888" stroke-width="2" stroke-linecap="round" stroke-linejoin="round" fill="none" d="M 0.000000 24.816766 L 0.839161 24.483899 L 1.678322 24.998198 L 2.517483 26.078246 L 3.356643 26.531486 L 4.195804 29.468176 L 5.034965 29.758137 L 5.874126 30.819838 L 6.713287 22.935176 L 7.552448 23.179706 L 8.391608 23.283964 L 9.230769 22.713167 L 10.069930 23.254647 L 10.909091 22.788788 L 11.748252 22.985946 L 12.587413 23.185239 L 13.426573 23.309106 L 14.265734 22.892754 L 15.104895 22.358749 L 15.944056 22.436311 L 16.783217 22.105968 L 17.622378 22.094416 L 18.461538 21.722233 L 19.300699 21.821346 L 20.139860 23.244163 L 20.979021 23.311436 L 21.818182 23.086612 L 22.657343 23.098552 L 23.496503 23.759336 L 24.335664 24.827638 L 25.174825 25.169243 L 26.013986 26.404124 L 26.853147 27.404183 L 27.692308 27.372052 L 28.531469 26.745631 L 29.370629 26.540319 L 30.209790 26.256766 L 31.048951 24.613298 L 31.888112 26.442177 L 32.727273 26.731167 L 33.566434 26.324523 L 34.405594 26.725925 L 35.244755 27.119173 L 36.083916 25.895455 L 36.923077 25.696647 L 37.762238 24.466813 L 38.601399 23.940962 L 39.440559 23.901162 L 40.279720 24.820455 L 41.118881 24.666398 L 41.958042 24.758813 L 42.797203 25.137014 L 43.636364 24.237524 L 44.475524 26.454797 L 45.314685 23.504613 L 46.153846 23.477724 L 46.993007 24.168795 L 47.832168 24.150060 L 48.671329 27.561152 L 49.510490 27.815681 L 50.349650 23.958630 L 51.188811 24.251017 L 52.027972 22.967016 L 52.867133 22.812765 L 53.706294 23.310756 L 54.545455 23.978821 L 55.384615 23.425401 L 56.223776 23.307262 L 57.062937 24.265773 L 57.902098 24.013865 L 58.741259 24.564664 L 59.580420 25.024020 L 60.419580 23.986102 L 61.258741 23.041472 L 62.097902 23.501410 L 62.937063 23.690899 L 63.776224 23.659932 L 64.615385 24.011632 L 65.454545 24.550491 L 66.293706 24.512147 L 67.132867 24.094437 L 67.972028 24.566897 L 68.811189 24.285382 L 69.650350 26.178621 L 70.489510 25.746543 L 71.328671 26.024564 L 72.167832 26.010585 L 73.006993 26.010585 L 73.846154 27.757533 L 74.685315 27.545815 L 75.524476 28.170584 L 76.363636 27.369722 L 77.202797 28.607904 L 78.041958 29.949858 L 78.881119 27.119464 L 79.720280 27.190523 L 80.559441 27.837426 L 81.398601 28.663236 L 82.237762 28.056037 L 83.076923 28.329883 L 83.916084 28.481902 L 84.755245 26.719810 L 85.594406 26.887069 L 86.433566 27.190911 L 87.272727 27.003752 L 88.111888 27.556881 L 88.951049 27.194697 L 89.790210 27.128395 L 90.629371 27.215374 L 91.468531 27.287694 L 92.307692 27.140335 L 93.146853 26.937936 L 93.986014 26.769221 L 94.825175 26.371799 L 95.664336 26.538766 L 96.503497 27.048018 L 97.342657 26.882506 L 98.181818 26.064850 L 99.020979 25.365041 L 99.860140 25.282625 L 100.699301 24.044443 L 101.538462 29.773572 L 102.377622 26.365392 L 103.216783 31.329089 L 104.055944 27.157323 L 104.895105 27.692688 L 105.734266 31.534984 L 106.573427 33.822733 L 107.412587 34.193945 L 108.251748 8.800000 L 109.090909 34.374891 L 109.930070 33.615285 L 110.769231 33.225823 L 111.608392 32.764429 L 112.447552 31.804947 L 113.286713 34.610587 L 114.125874 34.671259 L 114.965035 35.060138 L 115.804196 35.250210 L 116.643357 35.543083 L 117.482517 35.129449 L 118.321678 36.800000 L 119.160839 33.263197 L 120.000000 28.995133"></path>
      <path stroke="none" fill-opacity="0.6" fill="url(#color_grad)" d="M 0 40 L 0.000000 24.816766 L 0.839161 24.483899 L 1.678322 24.998198 L 2.517483 26.078246 L 3.356643 26.531486 L 4.195804 29.468176 L 5.034965 29.758137 L 5.874126 30.819838 L 6.713287 22.935176 L 7.552448 23.179706 L 8.391608 23.283964 L 9.230769 22.713167 L 10.069930 23.254647 L 10.909091 22.788788 L 11.748252 22.985946 L 12.587413 23.185239 L 13.426573 23.309106 L 14.265734 22.892754 L 15.104895 22.358749 L 15.944056 22.436311 L 16.783217 22.105968 L 17.622378 22.094416 L 18.461538 21.722233 L 19.300699 21.821346 L 20.139860 23.244163 L 20.979021 23.311436 L 21.818182 23.086612 L 22.657343 23.098552 L 23.496503 23.759336 L 24.335664 24.827638 L 25.174825 25.169243 L 26.013986 26.404124 L 26.853147 27.404183 L 27.692308 27.372052 L 28.531469 26.745631 L 29.370629 26.540319 L 30.209790 26.256766 L 31.048951 24.613298 L 31.888112 26.442177 L 32.727273 26.731167 L 33.566434 26.324523 L 34.405594 26.725925 L 35.244755 27.119173 L 36.083916 25.895455 L 36.923077 25.696647 L 37.762238 24.466813 L 38.601399 23.940962 L 39.440559 23.901162 L 40.279720 24.820455 L 41.118881 24.666398 L 41.958042 24.758813 L 42.797203 25.137014 L 43.636364 24.237524 L 44.475524 26.454797 L 45.314685 23.504613 L 46.153846 23.477724 L 46.993007 24.168795 L 47.832168 24.150060 L 48.671329 27.561152 L 49.510490 27.815681 L 50.349650 23.958630 L 51.188811 24.251017 L 52.027972 22.967016 L 52.867133 22.812765 L 53.706294 23.310756 L 54.545455 23.978821 L 55.384615 23.425401 L 56.223776 23.307262 L 57.062937 24.265773 L 57.902098 24.013865 L 58.741259 24.564664 L 59.580420 25.024020 L 60.419580 23.986102 L 61.258741 23.041472 L 62.097902 23.501410 L 62.937063 23.690899 L 63.776224 23.659932 L 64.615385 24.011632 L 65.454545 24.550491 L 66.293706 24.512147 L 67.132867 24.094437 L 67.972028 24.566897 L 68.811189 24.285382 L 69.650350 26.178621 L 70.489510 25.746543 L 71.328671 26.024564 L 72.167832 26.010585 L 73.006993 26.010585 L 73.846154 27.757533 L 74.685315 27.545815 L 75.524476 28.170584 L 76.363636 27.369722 L 77.202797 28.607904 L 78.041958 29.949858 L 78.881119 27.119464 L 79.720280 27.190523 L 80.559441 27.837426 L 81.398601 28.663236 L 82.237762 28.056037 L 83.076923 28.329883 L 83.916084 28.481902 L 84.755245 26.719810 L 85.594406 26.887069 L 86.433566 27.190911 L 87.272727 27.003752 L 88.111888 27.556881 L 88.951049 27.194697 L 89.790210 27.128395 L 90.629371 27.215374 L 91.468531 27.287694 L 92.307692 27.140335 L 93.146853 26.937936 L 93.986014 26.769221 L 94.825175 26.371799 L 95.664336 26.538766 L 96.503497 27.048018 L 97.342657 26.882506 L 98.181818 26.064850 L 99.020979 25.365041 L 99.860140 25.282625 L 100.699301 24.044443 L 101.538462 29.773572 L 102.377622 26.365392 L 103.216783 31.329089 L 104.055944 27.157323 L 104.895105 27.692688 L 105.734266 31.534984 L 106.573427 33.822733 L 107.412587 34.193945 L 108.251748 8.800000 L 109.090909 34.374891 L 109.930070 33.615285 L 110.769231 33.225823 L 111.608392 32.764429 L 112.447552 31.804947 L 113.286713 34.610587 L 114.125874 34.671259 L 114.965035 35.060138 L 115.804196 35.250210 L 116.643357 35.543083 L 117.482517 35.129449 L 118.321678 36.800000 L 119.160839 33.263197 L 120.000000 28.995133 L 120 40 Z"></path>
    </g>
  </svg>