<svg xmlns="http://www.w3.org/2000/svg" viewBox="0 0 120 40" width="120" height="40">
    <defs>
      <linearGradient id="color_grad" x1="0%" x2="0%" y1="0%" y2="100%">
        <stop offset="0%" style="stop-color:#16C784;stop-opacity:0.4;"></stop>
        <stop offset="100%" style="stop-color:#16C784;stop-opacity:0.0;"></stop>
      </linearGradient>
    </defs>
    <g>
      <path stroke="#16C784" stroke-width="2" stroke-linecap="round" stroke-linejoin="round" fill="none" d="M 0.000000 34.572856 L 0.839161 30.239169 L 1.678322 31.471469 L 2.517483 31.689823 L 3.356643 32.296311 L 4.195804 31.362075 L 5.034965 31.845645 L 5.874126 32.247059 L 6.713287 33.046573 L 7.552448 32.965737 L 8.391608 36.800000 L 9.230769 31.768591 L 10.069930 32.712261 L 10.909091 31.748960 L 11.748252 31.971639 L 12.587413 31.700224 L 13.426573 31.859354 L 14.265734 31.334073 L 15.104895 32.024805 L 15.944056 32.111184 L 16.783217 31.712105 L 17.622378 31.159352 L 18.461538 31.458240 L 19.300699 31.851310 L 20.139860 32.943880 L 20.979021 33.083560 L 21.818182 32.818949 L 22.657343 32.836300 L 23.496503 33.242048 L 24.335664 34.044612 L 25.174825 34.459159 L 26.013986 34.864486 L 26.853147 30.236278 L 27.692308 30.184732 L 28.531469 29.827635 L 29.370629 29.693854 L 30.209790 29.311308 L 31.048951 30.711013 L 31.888112 30.756315 L 32.727273 33.248015 L 33.566434 32.427263 L 34.405594 29.565141 L 35.244755 29.165357 L 36.083916 27.526463 L 36.923077 25.567627 L 37.762238 21.742684 L 38.601399 21.021662 L 39.440559 21.484425 L 40.279720 23.311875 L 41.118881 22.917665 L 41.958042 22.397750 L 42.797203 20.914634 L 43.636364 21.383795 L 44.475524 21.441955 L 45.314685 19.146960 L 46.153846 19.110557 L 46.993007 20.067754 L 47.832168 20.053629 L 48.671329 19.561982 L 49.510490 19.766044 L 50.349650 19.781078 L 51.188811 20.184156 L 52.027972 18.410930 L 52.867133 18.200779 L 53.706294 19.071819 L 54.545455 20.410853 L 55.384615 21.679121 L 56.223776 21.518082 L 57.062937 22.171266 L 57.902098 22.478912 L 58.741259 23.220872 L 59.580420 23.218904 L 60.419580 21.900375 L 61.258741 23.832903 L 62.097902 24.473066 L 62.937063 23.856534 L 63.776224 23.151632 L 64.615385 26.676403 L 65.454545 27.565463 L 66.293706 23.793985 L 67.132867 23.223700 L 67.972028 24.502886 L 68.811189 25.040405 L 69.650350 28.962449 L 70.489510 29.123909 L 71.328671 28.275210 L 72.167832 28.255086 L 73.006993 28.255086 L 73.846154 12.706589 L 74.685315 11.421821 L 75.524476 16.072922 L 76.363636 15.815699 L 77.202797 19.004637 L 78.041958 21.699291 L 78.881119 16.553991 L 79.720280 16.656657 L 80.559441 17.129456 L 81.398601 19.146009 L 82.237762 18.042757 L 83.076923 18.664488 L 83.916084 22.303901 L 84.755245 19.832022 L 85.594406 20.061542 L 86.433566 20.519573 L 87.272727 16.709063 L 88.111888 17.967640 L 88.951049 17.626382 L 89.790210 17.529000 L 90.629371 17.666142 L 91.468531 17.752643 L 92.307692 17.545211 L 93.146853 17.258748 L 93.986014 17.019089 L 94.825175 9.180683 L 95.664336 8.800000 L 96.503497 8.841583 L 97.342657 11.502200 L 98.181818 13.688896 L 99.020979 12.873099 L 99.860140 12.845179 L 100.699301 11.819261 L 101.538462 15.613823 L 102.377622 16.281856 L 103.216783 18.012191 L 104.055944 19.522656 L 104.895105 18.893633 L 105.734266 17.122940 L 106.573427 17.818300 L 107.412587 18.402710 L 108.251748 16.243802 L 109.090909 18.681590 L 109.930070 17.998202 L 110.769231 15.250519 L 111.608392 11.395484 L 112.447552 9.801988 L 113.286713 10.288468 L 114.125874 9.292945 L 114.965035 10.687144 L 115.804196 11.640595 L 116.643357 14.309315 L 117.482517 11.267898 L 118.321678 12.459727 L 119.160839 13.463865 L 120.000000 12.684841"></path>
      <path stroke="none" fill-opacity="0.6" fill="url(#color_grad)" d="M 0 40 L 0.000000 34.572856 L 0.839161 30.239169 L 1.678322 31.471469 L 2.517483 31.689823 L 3.356643 32.296311 L 4.195804 31.362075 L 5.034965 31.845645 L 5.874126 32.247059 L 6.713287 33.046573 L 7.552448 32.965737 L 8.391608 36.800000 L 9.230769 31.768591 L 10.069930 32.712261 L 10.909091 31.748960 L 11.748252 31.971639 L 12.587413 31.700224 L 13.426573 31.859354 L 14.265734 31.334073 L 15.104895 32.024805 L 15.944056 32.111184 L 16.783217 31.712105 L 17.622378 31.159352 L 18.461538 31.458240 L 19.300699 31.851310 L 20.139860 32.943880 L 20.979021 33.083560 L 21.818182 32.818949 L 22.657343 32.836300 L 23.496503 33.242048 L 24.335664 34.044612 L 25.174825 34.459159 L 26.013986 34.864486 L 26.853147 30.236278 L 27.692308 30.184732 L 28.531469 29.827635 L 29.370629 29.693854 L 30.209790 29.311308 L 31.048951 30.711013 L 31.888112 30.756315 L 32.727273 33.248015 L 33.566434 32.427263 L 34.405594 29.565141 L 35.244755 29.165357 L 36.083916 27.526463 L 36.923077 25.567627 L 37.762238 21.742684 L 38.601399 21.021662 L 39.440559 21.484425 L 40.279720 23.311875 L 41.118881 22.917665 L 41.958042 22.397750 L 42.797203 20.914634 L 43.636364 21.383795 L 44.475524 21.441955 L 45.314685 19.146960 L 46.153846 19.110557 L 46.993007 20.067754 L 47.832168 20.053629 L 48.671329 19.561982 L 49.510490 19.766044 L 50.349650 19.781078 L 51.188811 20.184156 L 52.027972 18.410930 L 52.867133 18.200779 L 53.706294 19.071819 L 54.545455 20.410853 L 55.384615 21.679121 L 56.223776 21.518082 L 57.062937 22.171266 L 57.902098 22.478912 L 58.741259 23.220872 L 59.580420 23.218904 L 60.419580 21.900375 L 61.258741 23.832903 L 62.097902 24.473066 L 62.937063 23.856534 L 63.776224 23.151632 L 64.615385 26.676403 L 65.454545 27.565463 L 66.293706 23.793985 L 67.132867 23.223700 L 67.972028 24.502886 L 68.811189 25.040405 L 69.650350 28.962449 L 70.489510 29.123909 L 71.328671 28.275210 L 72.167832 28.255086 L 73.006993 28.255086 L 73.846154 12.706589 L 74.685315 11.421821 L 75.524476 16.072922 L 76.363636 15.815699 L 77.202797 19.004637 L 78.041958 21.699291 L 78.881119 16.553991 L 79.720280 16.656657 L 80.559441 17.129456 L 81.398601 19.146009 L 82.237762 18.042757 L 83.076923 18.664488 L 83.916084 22.303901 L 84.755245 19.832022 L 85.594406 20.061542 L 86.433566 20.519573 L 87.272727 16.709063 L 88.111888 17.967640 L 88.951049 17.626382 L 89.790210 17.529000 L 90.629371 17.666142 L 91.468531 17.752643 L 92.307692 17.545211 L 93.146853 17.258748 L 93.986014 17.019089 L 94.825175 9.180683 L 95.664336 8.800000 L 96.503497 8.841583 L 97.342657 11.502200 L 98.181818 13.688896 L 99.020979 12.873099 L 99.860140 12.845179 L 100.699301 11.819261 L 101.538462 15.613823 L 102.377622 16.281856 L 103.216783 18.012191 L 104.055944 19.522656 L 104.895105 18.893633 L 105.734266 17.122940 L 106.573427 17.818300 L 107.412587 18.402710 L 108.251748 16.243802 L 109.090909 18.681590 L 109.930070 17.998202 L 110.769231 15.250519 L 111.608392 11.395484 L 112.447552 9.801988 L 113.286713 10.288468 L 114.125874 9.292945 L 114.965035 10.687144 L 115.804196 11.640595 L 116.643357 14.309315 L 117.482517 11.267898 L 118.321678 12.459727 L 119.160839 13.463865 L 120.000000 12.684841 L 120 40 Z"></path>
    </g>
  </svg>