<svg xmlns="http://www.w3.org/2000/svg" viewBox="0 0 120 40" width="120" height="40">
    <defs>
      <linearGradient id="color_grad" x1="0%" x2="0%" y1="0%" y2="100%">
        <stop offset="0%" style="stop-color:#888888;stop-opacity:0.4;"></stop>
        <stop offset="100%" style="stop-color:#888888;stop-opacity:0.0;"></stop>
      </linearGradient>
    </defs>
    <g>
      <path stroke="#888888" stroke-width="2" stroke-linecap="round" stroke-linejoin="round" fill="none" d="M 0.000000 35.630973 L 0.839161 30.238055 L 1.678322 31.013955 L 2.517483 31.013955 L 3.356643 31.042993 L 4.195804 29.852441 L 5.034965 31.070812 L 5.874126 31.304333 L 6.713287 31.364440 L 7.552448 31.594712 L 8.391608 36.800000 L 9.230769 30.732511 L 10.069930 31.119547 L 10.909091 30.581027 L 11.748252 30.545694 L 12.587413 29.823403 L 13.426573 29.823403 L 14.265734 29.823403 L 15.104895 31.681825 L 15.944056 31.681825 L 16.783217 31.681825 L 17.622378 31.681825 L 18.461538 32.727188 L 19.300699 33.111178 L 20.139860 34.498497 L 20.979021 34.585610 L 21.818182 34.585610 L 22.657343 34.585610 L 23.496503 34.817913 L 24.335664 35.630973 L 25.174825 35.630973 L 26.013986 35.630973 L 26.853147 29.852441 L 27.692308 29.852441 L 28.531469 29.852441 L 29.370629 29.852441 L 30.209790 29.852441 L 31.048951 29.852441 L 31.888112 29.870716 L 32.727273 32.814301 L 33.566434 32.866082 L 34.405594 29.346614 L 35.244755 28.081132 L 36.083916 28.048642 L 36.923077 25.758104 L 37.762238 22.854319 L 38.601399 22.854319 L 39.440559 23.532749 L 40.279720 24.306212 L 41.118881 24.058476 L 41.958042 24.044668 L 42.797203 21.366891 L 43.636364 22.793604 L 44.475524 23.086622 L 45.314685 21.170124 L 46.153846 21.170124 L 46.993007 21.170124 L 47.832168 21.170124 L 48.671329 21.170124 L 49.510490 21.170124 L 50.349650 21.170124 L 51.188811 21.170124 L 52.027972 21.170124 L 52.867133 21.170124 L 53.706294 21.418672 L 54.545455 22.830561 L 55.384615 25.496763 L 56.223776 25.496763 L 57.062937 25.496763 L 57.902098 25.496763 L 58.741259 25.496763 L 59.580420 25.496763 L 60.419580 25.618600 L 61.258741 29.829495 L 62.097902 29.852441 L 62.937063 29.127510 L 63.776224 27.852281 L 64.615385 31.237323 L 65.454545 31.304333 L 66.293706 26.338861 L 67.132867 26.338861 L 67.972028 27.205935 L 68.811189 28.416184 L 69.650350 31.304333 L 70.489510 31.304333 L 71.328671 31.304333 L 72.167832 31.304333 L 73.006993 31.304333 L 73.846154 8.800000 L 74.685315 8.800000 L 75.524476 15.304478 L 76.363636 17.495516 L 77.202797 19.277181 L 78.041958 20.269950 L 78.881119 16.204652 L 79.720280 16.204652 L 80.559441 17.388096 L 81.398601 18.969948 L 82.237762 19.087927 L 83.076923 19.369777 L 83.916084 23.950853 L 84.755245 24.015833 L 85.594406 24.015833 L 86.433566 24.015833 L 87.272727 19.398815 L 88.111888 20.592819 L 88.951049 21.141086 L 89.790210 21.141086 L 90.629371 21.141086 L 91.468531 21.141086 L 92.307692 21.141086 L 93.146853 21.156316 L 93.986014 21.170124 L 94.825175 11.805925 L 95.664336 10.948801 L 96.503497 10.948801 L 97.342657 15.369458 L 98.181818 18.208263 L 99.020979 18.513262 L 99.860140 18.631444 L 100.699301 19.672339 L 101.538462 21.022701 L 102.377622 21.904396 L 103.216783 24.253212 L 104.055944 25.496763 L 104.895105 25.496763 L 105.734266 25.496763 L 106.573427 25.496763 L 107.412587 25.496763 L 108.251748 24.259507 L 109.090909 25.467725 L 109.930070 25.467725 L 110.769231 23.457413 L 111.608392 19.573042 L 112.447552 19.573042 L 113.286713 19.573042 L 114.125874 18.208872 L 114.965035 19.108436 L 115.804196 19.885554 L 116.643357 22.592978 L 117.482517 19.677010 L 118.321678 19.689193 L 119.160839 21.141086 L 120.000000 18.818058"></path>
      <path stroke="none" fill-opacity="0.6" fill="url(#color_grad)" d="M 0 40 L 0.000000 35.630973 L 0.839161 30.238055 L 1.678322 31.013955 L 2.517483 31.013955 L 3.356643 31.042993 L 4.195804 29.852441 L 5.034965 31.070812 L 5.874126 31.304333 L 6.713287 31.364440 L 7.552448 31.594712 L 8.391608 36.800000 L 9.230769 30.732511 L 10.069930 31.119547 L 10.909091 30.581027 L 11.748252 30.545694 L 12.587413 29.823403 L 13.426573 29.823403 L 14.265734 29.823403 L 15.104895 31.681825 L 15.944056 31.681825 L 16.783217 31.681825 L 17.622378 31.681825 L 18.461538 32.727188 L 19.300699 33.111178 L 20.139860 34.498497 L 20.979021 34.585610 L 21.818182 34.585610 L 22.657343 34.585610 L 23.496503 34.817913 L 24.335664 35.630973 L 25.174825 35.630973 L 26.013986 35.630973 L 26.853147 29.852441 L 27.692308 29.852441 L 28.531469 29.852441 L 29.370629 29.852441 L 30.209790 29.852441 L 31.048951 29.852441 L 31.888112 29.870716 L 32.727273 32.814301 L 33.566434 32.866082 L 34.405594 29.346614 L 35.244755 28.081132 L 36.083916 28.048642 L 36.923077 25.758104 L 37.762238 22.854319 L 38.601399 22.854319 L 39.440559 23.532749 L 40.279720 24.306212 L 41.118881 24.058476 L 41.958042 24.044668 L 42.797203 21.366891 L 43.636364 22.793604 L 44.475524 23.086622 L 45.314685 21.170124 L 46.153846 21.170124 L 46.993007 21.170124 L 47.832168 21.170124 L 48.671329 21.170124 L 49.510490 21.170124 L 50.349650 21.170124 L 51.188811 21.170124 L 52.027972 21.170124 L 52.867133 21.170124 L 53.706294 21.418672 L 54.545455 22.830561 L 55.384615 25.496763 L 56.223776 25.496763 L 57.062937 25.496763 L 57.902098 25.496763 L 58.741259 25.496763 L 59.580420 25.496763 L 60.419580 25.618600 L 61.258741 29.829495 L 62.097902 29.852441 L 62.937063 29.127510 L 63.776224 27.852281 L 64.615385 31.237323 L 65.454545 31.304333 L 66.293706 26.338861 L 67.132867 26.338861 L 67.972028 27.205935 L 68.811189 28.416184 L 69.650350 31.304333 L 70.489510 31.304333 L 71.328671 31.304333 L 72.167832 31.304333 L 73.006993 31.304333 L 73.846154 8.800000 L 74.685315 8.800000 L 75.524476 15.304478 L 76.363636 17.495516 L 77.202797 19.277181 L 78.041958 20.269950 L 78.881119 16.204652 L 79.720280 16.204652 L 80.559441 17.388096 L 81.398601 18.969948 L 82.237762 19.087927 L 83.076923 19.369777 L 83.916084 23.950853 L 84.755245 24.015833 L 85.594406 24.015833 L 86.433566 24.015833 L 87.272727 19.398815 L 88.111888 20.592819 L 88.951049 21.141086 L 89.790210 21.141086 L 90.629371 21.141086 L 91.468531 21.141086 L 92.307692 21.141086 L 93.146853 21.156316 L 93.986014 21.170124 L 94.825175 11.805925 L 95.664336 10.948801 L 96.503497 10.948801 L 97.342657 15.369458 L 98.181818 18.208263 L 99.020979 18.513262 L 99.860140 18.631444 L 100.699301 19.672339 L 101.538462 21.022701 L 102.377622 21.904396 L 103.216783 24.253212 L 104.055944 25.496763 L 104.895105 25.496763 L 105.734266 25.496763 L 106.573427 25.496763 L 107.412587 25.496763 L 108.251748 24.259507 L 109.090909 25.467725 L 109.930070 25.467725 L 110.769231 23.457413 L 111.608392 19.573042 L 112.447552 19.573042 L 113.286713 19.573042 L 114.125874 18.208872 L 114.965035 19.108436 L 115.804196 19.885554 L 116.643357 22.592978 L 117.482517 19.677010 L 118.321678 19.689193 L 119.160839 21.141086 L 120.000000 18.818058 L 120 40 Z"></path>
    </g>
  </svg>