<svg xmlns="http://www.w3.org/2000/svg" viewBox="0 0 120 40" width="120" height="40">
    <defs>
      <linearGradient id="color_grad" x1="0%" x2="0%" y1="0%" y2="100%">
        <stop offset="0%" style="stop-color:#EA3943;stop-opacity:0.4;"></stop>
        <stop offset="100%" style="stop-color:#EA3943;stop-opacity:0.0;"></stop>
      </linearGradient>
    </defs>
    <g>
      <path stroke="#EA3943" stroke-width="2" stroke-linecap="round" stroke-linejoin="round" fill="none" d="M 0.000000 9.137349 L 0.839161 11.114264 L 1.678322 12.510843 L 2.517483 8.800000 L 3.356643 10.418333 L 4.195804 11.161446 L 5.034965 11.736591 L 5.874126 11.161446 L 6.713287 11.161446 L 7.552448 10.323970 L 8.391608 10.824096 L 9.230769 11.161446 L 10.069930 11.052928 L 10.909091 10.824096 L 11.748252 11.484641 L 12.587413 11.194473 L 13.426573 11.241655 L 14.265734 11.371404 L 15.104895 10.998669 L 15.944056 10.824096 L 16.783217 10.824096 L 17.622378 11.836145 L 18.461538 12.147544 L 19.300699 11.616750 L 20.139860 11.279872 L 20.979021 11.496436 L 21.818182 14.737349 L 22.657343 12.284371 L 23.496503 12.791575 L 24.335664 11.836145 L 25.174825 11.836145 L 26.013986 12.510843 L 26.853147 14.662330 L 27.692308 12.173494 L 28.531469 13.860241 L 29.370629 14.197590 L 30.209790 12.510843 L 31.048951 12.746752 L 31.888112 13.860241 L 32.727273 15.546988 L 33.566434 15.546988 L 34.405594 13.860241 L 35.244755 17.443694 L 36.083916 17.233735 L 36.923077 12.510843 L 37.762238 12.709007 L 38.601399 15.884337 L 39.440559 16.658118 L 40.279720 17.233735 L 41.118881 15.794692 L 41.958042 15.546988 L 42.797203 15.884337 L 43.636364 17.233735 L 44.475524 18.823759 L 45.314685 20.607229 L 46.153846 20.607229 L 46.993007 20.607229 L 47.832168 20.607229 L 48.671329 17.908434 L 49.510490 17.908434 L 50.349650 17.908434 L 51.188811 17.908434 L 52.027972 17.908434 L 52.867133 17.908434 L 53.706294 18.583133 L 54.545455 18.583133 L 55.384615 19.050232 L 56.223776 20.607229 L 57.062937 18.583133 L 57.902098 18.583133 L 58.741259 18.583133 L 59.580420 18.583133 L 60.419580 18.653905 L 61.258741 19.595181 L 62.097902 20.319420 L 62.937063 21.619277 L 63.776224 19.920735 L 64.615385 19.257831 L 65.454545 20.147207 L 66.293706 20.269880 L 67.132867 20.269880 L 67.972028 20.269880 L 68.811189 20.470402 L 69.650350 19.932530 L 70.489510 19.932530 L 71.328671 19.932530 L 72.167832 19.932530 L 73.006993 19.932530 L 73.846154 20.269880 L 74.685315 20.234493 L 75.524476 20.607229 L 76.363636 20.269880 L 77.202797 20.269880 L 78.041958 20.269880 L 78.881119 20.607229 L 79.720280 20.607229 L 80.559441 26.004819 L 81.398601 25.959997 L 82.237762 19.415890 L 83.076923 20.295829 L 83.916084 20.607229 L 84.755245 20.607229 L 85.594406 20.607229 L 86.433566 20.607229 L 87.272727 20.607229 L 88.111888 20.944578 L 88.951049 20.944578 L 89.790210 19.772584 L 90.629371 19.730120 L 91.468531 19.730120 L 92.307692 19.730120 L 93.146853 19.730120 L 93.986014 19.730120 L 94.825175 19.730120 L 95.664336 20.569484 L 96.503497 20.944578 L 97.342657 20.944578 L 98.181818 21.619277 L 99.020979 21.619277 L 99.860140 20.968169 L 100.699301 22.367108 L 101.538462 23.980723 L 102.377622 24.318072 L 103.216783 23.980723 L 104.055944 25.136675 L 104.895105 21.574926 L 105.734266 21.281928 L 106.573427 23.579678 L 107.412587 22.429387 L 108.251748 27.691566 L 109.090909 27.814239 L 109.930070 23.390951 L 110.769231 23.980723 L 111.608392 26.545050 L 112.447552 28.604533 L 113.286713 29.338209 L 114.125874 29.378313 L 114.965035 30.510675 L 115.804196 29.479754 L 116.643357 34.650872 L 117.482517 32.616867 L 118.321678 32.616867 L 119.160839 32.152599 L 120.000000 36.800000"></path>
      <path stroke="none" fill-opacity="0.6" fill="url(#color_grad)" d="M 0 40 L 0.000000 9.137349 L 0.839161 11.114264 L 1.678322 12.510843 L 2.517483 8.800000 L 3.356643 10.418333 L 4.195804 11.161446 L 5.034965 11.736591 L 5.874126 11.161446 L 6.713287 11.161446 L 7.552448 10.323970 L 8.391608 10.824096 L 9.230769 11.161446 L 10.069930 11.052928 L 10.909091 10.824096 L 11.748252 11.484641 L 12.587413 11.194473 L 13.426573 11.241655 L 14.265734 11.371404 L 15.104895 10.998669 L 15.944056 10.824096 L 16.783217 10.824096 L 17.622378 11.836145 L 18.461538 12.147544 L 19.300699 11.616750 L 20.139860 11.279872 L 20.979021 11.496436 L 21.818182 14.737349 L 22.657343 12.284371 L 23.496503 12.791575 L 24.335664 11.836145 L 25.174825 11.836145 L 26.013986 12.510843 L 26.853147 14.662330 L 27.692308 12.173494 L 28.531469 13.860241 L 29.370629 14.197590 L 30.209790 12.510843 L 31.048951 12.746752 L 31.888112 13.860241 L 32.727273 15.546988 L 33.566434 15.546988 L 34.405594 13.860241 L 35.244755 17.443694 L 36.083916 17.233735 L 36.923077 12.510843 L 37.762238 12.709007 L 38.601399 15.884337 L 39.440559 16.658118 L 40.279720 17.233735 L 41.118881 15.794692 L 41.958042 15.546988 L 42.797203 15.884337 L 43.636364 17.233735 L 44.475524 18.823759 L 45.314685 20.607229 L 46.153846 20.607229 L 46.993007 20.607229 L 47.832168 20.607229 L 48.671329 17.908434 L 49.510490 17.908434 L 50.349650 17.908434 L 51.188811 17.908434 L 52.027972 17.908434 L 52.867133 17.908434 L 53.706294 18.583133 L 54.545455 18.583133 L 55.384615 19.050232 L 56.223776 20.607229 L 57.062937 18.583133 L 57.902098 18.583133 L 58.741259 18.583133 L 59.580420 18.583133 L 60.419580 18.653905 L 61.258741 19.595181 L 62.097902 20.319420 L 62.937063 21.619277 L 63.776224 19.920735 L 64.615385 19.257831 L 65.454545 20.147207 L 66.293706 20.269880 L 67.132867 20.269880 L 67.972028 20.269880 L 68.811189 20.470402 L 69.650350 19.932530 L 70.489510 19.932530 L 71.328671 19.932530 L 72.167832 19.932530 L 73.006993 19.932530 L 73.846154 20.269880 L 74.685315 20.234493 L 75.524476 20.607229 L 76.363636 20.269880 L 77.202797 20.269880 L 78.041958 20.269880 L 78.881119 20.607229 L 79.720280 20.607229 L 80.559441 26.004819 L 81.398601 25.959997 L 82.237762 19.415890 L 83.076923 20.295829 L 83.916084 20.607229 L 84.755245 20.607229 L 85.594406 20.607229 L 86.433566 20.607229 L 87.272727 20.607229 L 88.111888 20.944578 L 88.951049 20.944578 L 89.790210 19.772584 L 90.629371 19.730120 L 91.468531 19.730120 L 92.307692 19.730120 L 93.146853 19.730120 L 93.986014 19.730120 L 94.825175 19.730120 L 95.664336 20.569484 L 96.503497 20.944578 L 97.342657 20.944578 L 98.181818 21.619277 L 99.020979 21.619277 L 99.860140 20.968169 L 100.699301 22.367108 L 101.538462 23.980723 L 102.377622 24.318072 L 103.216783 23.980723 L 104.055944 25.136675 L 104.895105 21.574926 L 105.734266 21.281928 L 106.573427 23.579678 L 107.412587 22.429387 L 108.251748 27.691566 L 109.090909 27.814239 L 109.930070 23.390951 L 110.769231 23.980723 L 111.608392 26.545050 L 112.447552 28.604533 L 113.286713 29.338209 L 114.125874 29.378313 L 114.965035 30.510675 L 115.804196 29.479754 L 116.643357 34.650872 L 117.482517 32.616867 L 118.321678 32.616867 L 119.160839 32.152599 L 120.000000 36.800000 L 120 40 Z"></path>
    </g>
  </svg>