<svg xmlns="http://www.w3.org/2000/svg" viewBox="0 0 120 40" width="120" height="40">
    <defs>
      <linearGradient id="color_grad" x1="0%" x2="0%" y1="0%" y2="100%">
        <stop offset="0%" style="stop-color:#EA3943;stop-opacity:0.4;"></stop>
        <stop offset="100%" style="stop-color:#EA3943;stop-opacity:0.0;"></stop>
      </linearGradient>
    </defs>
    <g>
      <path stroke="#EA3943" stroke-width="2" stroke-linecap="round" stroke-linejoin="round" fill="none" d="M 0.000000 8.800000 L 0.839161 10.891299 L 1.678322 13.708971 L 2.517483 9.001508 L 3.356643 12.001905 L 4.195804 12.888187 L 5.034965 13.128345 L 5.874126 12.662978 L 6.713287 13.738278 L 7.552448 12.268911 L 8.391608 13.102873 L 9.230769 12.567879 L 10.069930 13.356996 L 10.909091 12.246783 L 11.748252 13.488483 L 12.587413 13.434983 L 13.426573 13.718904 L 14.265734 13.167781 L 15.104895 11.759682 L 15.944056 11.642062 L 16.783217 11.086710 L 17.622378 11.683268 L 18.461538 11.462288 L 19.300699 10.895036 L 20.139860 10.532243 L 20.979021 10.956993 L 21.818182 15.013415 L 22.657343 11.683957 L 23.496503 12.704184 L 24.335664 11.701069 L 25.174825 12.293202 L 26.013986 13.788139 L 26.853147 16.087535 L 27.692308 12.641440 L 28.531469 14.446753 L 29.370629 14.715529 L 30.209790 11.899037 L 31.048951 14.141098 L 31.888112 15.685502 L 32.727273 18.458920 L 33.566434 17.294224 L 34.405594 14.584632 L 35.244755 20.136974 L 36.083916 17.765688 L 36.923077 10.918147 L 37.762238 8.992165 L 38.601399 12.531196 L 39.440559 13.560176 L 40.279720 15.937658 L 41.118881 13.667273 L 41.958042 12.668878 L 42.797203 13.796302 L 43.636364 14.931592 L 44.475524 16.970965 L 45.314685 18.455969 L 46.153846 18.403060 L 46.993007 19.551135 L 47.832168 19.529893 L 48.671329 15.148049 L 49.510490 15.395090 L 50.349650 15.416038 L 51.188811 15.911498 L 52.027972 13.734934 L 52.867133 13.476583 L 53.706294 15.272160 L 54.545455 15.606630 L 55.384615 15.337264 L 56.223776 17.352542 L 57.062937 15.278355 L 57.902098 15.665243 L 58.741259 16.583586 L 59.580420 16.587126 L 60.419580 14.926872 L 61.258741 14.651212 L 62.097902 16.479734 L 62.937063 18.263607 L 63.776224 16.163851 L 64.615385 16.433118 L 65.454545 18.775983 L 66.293706 18.888686 L 67.132867 18.186112 L 67.972028 18.958314 L 68.811189 18.778245 L 69.650350 20.256562 L 70.489510 20.468494 L 71.328671 19.374213 L 72.167832 19.347464 L 73.006993 19.347464 L 73.846154 21.205981 L 74.685315 19.739859 L 75.524476 20.018666 L 76.363636 17.346642 L 77.202797 19.504028 L 78.041958 21.817291 L 78.881119 19.804078 L 79.720280 19.924058 L 80.559441 27.022673 L 81.398601 27.885943 L 82.237762 17.328743 L 83.076923 19.047807 L 83.916084 19.727959 L 84.755245 16.685176 L 85.594406 16.954050 L 86.433566 17.514319 L 87.272727 17.171490 L 88.111888 18.048134 L 88.951049 17.164507 L 89.790210 15.384076 L 90.629371 15.485273 L 91.468531 15.592567 L 92.307692 15.329691 L 93.146853 14.983026 L 93.986014 14.682780 L 94.825175 13.975879 L 95.664336 15.499041 L 96.503497 16.083208 L 97.342657 15.220234 L 98.181818 16.179389 L 99.020979 14.959620 L 99.860140 13.859734 L 100.699301 13.782140 L 101.538462 19.307437 L 102.377622 19.773689 L 103.216783 19.164838 L 104.055944 21.493541 L 104.895105 15.546345 L 105.734266 12.973944 L 106.573427 17.201485 L 107.412587 16.002074 L 108.251748 22.585953 L 109.090909 24.433259 L 109.930070 17.170900 L 110.769231 16.674358 L 111.608392 19.627647 L 112.447552 20.982345 L 113.286713 22.608572 L 114.125874 22.775955 L 114.965035 25.199757 L 115.804196 24.008410 L 116.643357 32.238775 L 117.482517 28.477682 L 118.321678 29.706597 L 119.160839 28.538066 L 120.000000 36.800000"></path>
      <path stroke="none" fill-opacity="0.6" fill="url(#color_grad)" d="M 0 40 L 0.000000 8.800000 L 0.839161 10.891299 L 1.678322 13.708971 L 2.517483 9.001508 L 3.356643 12.001905 L 4.195804 12.888187 L 5.034965 13.128345 L 5.874126 12.662978 L 6.713287 13.738278 L 7.552448 12.268911 L 8.391608 13.102873 L 9.230769 12.567879 L 10.069930 13.356996 L 10.909091 12.246783 L 11.748252 13.488483 L 12.587413 13.434983 L 13.426573 13.718904 L 14.265734 13.167781 L 15.104895 11.759682 L 15.944056 11.642062 L 16.783217 11.086710 L 17.622378 11.683268 L 18.461538 11.462288 L 19.300699 10.895036 L 20.139860 10.532243 L 20.979021 10.956993 L 21.818182 15.013415 L 22.657343 11.683957 L 23.496503 12.704184 L 24.335664 11.701069 L 25.174825 12.293202 L 26.013986 13.788139 L 26.853147 16.087535 L 27.692308 12.641440 L 28.531469 14.446753 L 29.370629 14.715529 L 30.209790 11.899037 L 31.048951 14.141098 L 31.888112 15.685502 L 32.727273 18.458920 L 33.566434 17.294224 L 34.405594 14.584632 L 35.244755 20.136974 L 36.083916 17.765688 L 36.923077 10.918147 L 37.762238 8.992165 L 38.601399 12.531196 L 39.440559 13.560176 L 40.279720 15.937658 L 41.118881 13.667273 L 41.958042 12.668878 L 42.797203 13.796302 L 43.636364 14.931592 L 44.475524 16.970965 L 45.314685 18.455969 L 46.153846 18.403060 L 46.993007 19.551135 L 47.832168 19.529893 L 48.671329 15.148049 L 49.510490 15.395090 L 50.349650 15.416038 L 51.188811 15.911498 L 52.027972 13.734934 L 52.867133 13.476583 L 53.706294 15.272160 L 54.545455 15.606630 L 55.384615 15.337264 L 56.223776 17.352542 L 57.062937 15.278355 L 57.902098 15.665243 L 58.741259 16.583586 L 59.580420 16.587126 L 60.419580 14.926872 L 61.258741 14.651212 L 62.097902 16.479734 L 62.937063 18.263607 L 63.776224 16.163851 L 64.615385 16.433118 L 65.454545 18.775983 L 66.293706 18.888686 L 67.132867 18.186112 L 67.972028 18.958314 L 68.811189 18.778245 L 69.650350 20.256562 L 70.489510 20.468494 L 71.328671 19.374213 L 72.167832 19.347464 L 73.006993 19.347464 L 73.846154 21.205981 L 74.685315 19.739859 L 75.524476 20.018666 L 76.363636 17.346642 L 77.202797 19.504028 L 78.041958 21.817291 L 78.881119 19.804078 L 79.720280 19.924058 L 80.559441 27.022673 L 81.398601 27.885943 L 82.237762 17.328743 L 83.076923 19.047807 L 83.916084 19.727959 L 84.755245 16.685176 L 85.594406 16.954050 L 86.433566 17.514319 L 87.272727 17.171490 L 88.111888 18.048134 L 88.951049 17.164507 L 89.790210 15.384076 L 90.629371 15.485273 L 91.468531 15.592567 L 92.307692 15.329691 L 93.146853 14.983026 L 93.986014 14.682780 L 94.825175 13.975879 L 95.664336 15.499041 L 96.503497 16.083208 L 97.342657 15.220234 L 98.181818 16.179389 L 99.020979 14.959620 L 99.860140 13.859734 L 100.699301 13.782140 L 101.538462 19.307437 L 102.377622 19.773689 L 103.216783 19.164838 L 104.055944 21.493541 L 104.895105 15.546345 L 105.734266 12.973944 L 106.573427 17.201485 L 107.412587 16.002074 L 108.251748 22.585953 L 109.090909 24.433259 L 109.930070 17.170900 L 110.769231 16.674358 L 111.608392 19.627647 L 112.447552 20.982345 L 113.286713 22.608572 L 114.125874 22.775955 L 114.965035 25.199757 L 115.804196 24.008410 L 116.643357 32.238775 L 117.482517 28.477682 L 118.321678 29.706597 L 119.160839 28.538066 L 120.000000 36.800000 L 120 40 Z"></path>
    </g>
  </svg>