<svg xmlns="http://www.w3.org/2000/svg" viewBox="0 0 120 40" width="120" height="40">
    <defs>
      <linearGradient id="color_grad" x1="0%" x2="0%" y1="0%" y2="100%">
        <stop offset="0%" style="stop-color:#EA3943;stop-opacity:0.4;"></stop>
        <stop offset="100%" style="stop-color:#EA3943;stop-opacity:0.0;"></stop>
      </linearGradient>
    </defs>
    <g>
      <path stroke="#EA3943" stroke-width="2" stroke-linecap="round" stroke-linejoin="round" fill="none" d="M 0.000000 8.977995 L 0.839161 8.977995 L 1.678322 11.852616 L 2.517483 8.977995 L 3.356643 8.977995 L 4.195804 8.977995 L 5.034965 8.977995 L 5.874126 8.977995 L 6.713287 15.830807 L 7.552448 9.121760 L 8.391608 10.935941 L 9.230769 13.571638 L 10.069930 15.830807 L 10.909091 15.830807 L 11.748252 15.830807 L 12.587413 15.830807 L 13.426573 17.812714 L 14.265734 16.505134 L 15.104895 10.935941 L 15.944056 10.935941 L 16.783217 10.935941 L 17.622378 16.289487 L 18.461538 16.320293 L 19.300699 10.935941 L 20.139860 10.935941 L 20.979021 9.720782 L 21.818182 8.800000 L 22.657343 9.614328 L 23.496503 9.614328 L 24.335664 10.152763 L 25.174825 10.152763 L 26.013986 10.152763 L 26.853147 10.152763 L 27.692308 17.803814 L 28.531469 10.152763 L 29.370629 10.152763 L 30.209790 10.180147 L 31.048951 11.158435 L 31.888112 12.208606 L 32.727273 12.208606 L 33.566434 14.924059 L 34.405594 13.236528 L 35.244755 13.236528 L 36.083916 12.208606 L 36.923077 13.383374 L 37.762238 13.383374 L 38.601399 11.914914 L 39.440559 11.914914 L 40.279720 14.708068 L 41.118881 19.746699 L 41.958042 19.746699 L 42.797203 19.746699 L 43.636364 17.397164 L 44.475524 17.397164 L 45.314685 17.397164 L 46.153846 15.830807 L 46.993007 15.830807 L 47.832168 15.830807 L 48.671329 15.830807 L 49.510490 15.830807 L 50.349650 13.849927 L 51.188811 13.236528 L 52.027972 13.236528 L 52.867133 13.236528 L 53.706294 13.236528 L 54.545455 13.236528 L 55.384615 13.236528 L 56.223776 13.236528 L 57.062937 13.236528 L 57.902098 16.001956 L 58.741259 15.830807 L 59.580420 14.802885 L 60.419580 20.236186 L 61.258741 20.236186 L 62.097902 20.236186 L 62.937063 17.397164 L 63.776224 17.397164 L 64.615385 18.654768 L 65.454545 18.278240 L 66.293706 19.246944 L 67.132867 27.578484 L 67.972028 19.257213 L 68.811189 19.746699 L 69.650350 21.023472 L 70.489510 21.714914 L 71.328671 20.236186 L 72.167832 20.236186 L 73.006993 20.236186 L 73.846154 20.236186 L 74.685315 25.107090 L 75.524476 21.704645 L 76.363636 21.704645 L 77.202797 22.129095 L 78.041958 22.194132 L 78.881119 21.215159 L 79.720280 21.215159 L 80.559441 21.215159 L 81.398601 20.725672 L 82.237762 20.725672 L 83.076923 20.725672 L 83.916084 20.725672 L 84.755245 20.725672 L 85.594406 20.725672 L 86.433566 20.725672 L 87.272727 20.725672 L 88.111888 20.725672 L 88.951049 20.725672 L 89.790210 20.725672 L 90.629371 20.725672 L 91.468531 20.725672 L 92.307692 20.725672 L 93.146853 20.725672 L 93.986014 20.725672 L 94.825175 20.725672 L 95.664336 20.725672 L 96.503497 20.725672 L 97.342657 20.725672 L 98.181818 20.903667 L 99.020979 21.215159 L 99.860140 21.215159 L 100.699301 21.215159 L 101.538462 20.763325 L 102.377622 20.236186 L 103.216783 20.236186 L 104.055944 20.403912 L 104.895105 20.725672 L 105.734266 23.173105 L 106.573427 23.173105 L 107.412587 28.547188 L 108.251748 30.515403 L 109.090909 23.173105 L 109.930070 23.173105 L 110.769231 27.766748 L 111.608392 28.557457 L 112.447552 28.194621 L 113.286713 27.774279 L 114.125874 24.193154 L 114.965035 31.223961 L 115.804196 36.046944 L 116.643357 35.899756 L 117.482517 36.800000 L 118.321678 31.494377 L 119.160839 29.731540 L 120.000000 31.004890"></path>
      <path stroke="none" fill-opacity="0.6" fill="url(#color_grad)" d="M 0 40 L 0.000000 8.977995 L 0.839161 8.977995 L 1.678322 11.852616 L 2.517483 8.977995 L 3.356643 8.977995 L 4.195804 8.977995 L 5.034965 8.977995 L 5.874126 8.977995 L 6.713287 15.830807 L 7.552448 9.121760 L 8.391608 10.935941 L 9.230769 13.571638 L 10.069930 15.830807 L 10.909091 15.830807 L 11.748252 15.830807 L 12.587413 15.830807 L 13.426573 17.812714 L 14.265734 16.505134 L 15.104895 10.935941 L 15.944056 10.935941 L 16.783217 10.935941 L 17.622378 16.289487 L 18.461538 16.320293 L 19.300699 10.935941 L 20.139860 10.935941 L 20.979021 9.720782 L 21.818182 8.800000 L 22.657343 9.614328 L 23.496503 9.614328 L 24.335664 10.152763 L 25.174825 10.152763 L 26.013986 10.152763 L 26.853147 10.152763 L 27.692308 17.803814 L 28.531469 10.152763 L 29.370629 10.152763 L 30.209790 10.180147 L 31.048951 11.158435 L 31.888112 12.208606 L 32.727273 12.208606 L 33.566434 14.924059 L 34.405594 13.236528 L 35.244755 13.236528 L 36.083916 12.208606 L 36.923077 13.383374 L 37.762238 13.383374 L 38.601399 11.914914 L 39.440559 11.914914 L 40.279720 14.708068 L 41.118881 19.746699 L 41.958042 19.746699 L 42.797203 19.746699 L 43.636364 17.397164 L 44.475524 17.397164 L 45.314685 17.397164 L 46.153846 15.830807 L 46.993007 15.830807 L 47.832168 15.830807 L 48.671329 15.830807 L 49.510490 15.830807 L 50.349650 13.849927 L 51.188811 13.236528 L 52.027972 13.236528 L 52.867133 13.236528 L 53.706294 13.236528 L 54.545455 13.236528 L 55.384615 13.236528 L 56.223776 13.236528 L 57.062937 13.236528 L 57.902098 16.001956 L 58.741259 15.830807 L 59.580420 14.802885 L 60.419580 20.236186 L 61.258741 20.236186 L 62.097902 20.236186 L 62.937063 17.397164 L 63.776224 17.397164 L 64.615385 18.654768 L 65.454545 18.278240 L 66.293706 19.246944 L 67.132867 27.578484 L 67.972028 19.257213 L 68.811189 19.746699 L 69.650350 21.023472 L 70.489510 21.714914 L 71.328671 20.236186 L 72.167832 20.236186 L 73.006993 20.236186 L 73.846154 20.236186 L 74.685315 25.107090 L 75.524476 21.704645 L 76.363636 21.704645 L 77.202797 22.129095 L 78.041958 22.194132 L 78.881119 21.215159 L 79.720280 21.215159 L 80.559441 21.215159 L 81.398601 20.725672 L 82.237762 20.725672 L 83.076923 20.725672 L 83.916084 20.725672 L 84.755245 20.725672 L 85.594406 20.725672 L 86.433566 20.725672 L 87.272727 20.725672 L 88.111888 20.725672 L 88.951049 20.725672 L 89.790210 20.725672 L 90.629371 20.725672 L 91.468531 20.725672 L 92.307692 20.725672 L 93.146853 20.725672 L 93.986014 20.725672 L 94.825175 20.725672 L 95.664336 20.725672 L 96.503497 20.725672 L 97.342657 20.725672 L 98.181818 20.903667 L 99.020979 21.215159 L 99.860140 21.215159 L 100.699301 21.215159 L 101.538462 20.763325 L 102.377622 20.236186 L 103.216783 20.236186 L 104.055944 20.403912 L 104.895105 20.725672 L 105.734266 23.173105 L 106.573427 23.173105 L 107.412587 28.547188 L 108.251748 30.515403 L 109.090909 23.173105 L 109.930070 23.173105 L 110.769231 27.766748 L 111.608392 28.557457 L 112.447552 28.194621 L 113.286713 27.774279 L 114.125874 24.193154 L 114.965035 31.223961 L 115.804196 36.046944 L 116.643357 35.899756 L 117.482517 36.800000 L 118.321678 31.494377 L 119.160839 29.731540 L 120.000000 31.004890 L 120 40 Z"></path>
    </g>
  </svg>