<svg xmlns="http://www.w3.org/2000/svg" viewBox="0 0 120 40" width="120" height="40">
    <defs>
      <linearGradient id="color_grad" x1="0%" x2="0%" y1="0%" y2="100%">
        <stop offset="0%" style="stop-color:#EA3943;stop-opacity:0.4;"></stop>
        <stop offset="100%" style="stop-color:#EA3943;stop-opacity:0.0;"></stop>
      </linearGradient>
    </defs>
    <g>
      <path stroke="#EA3943" stroke-width="2" stroke-linecap="round" stroke-linejoin="round" fill="none" d="M 0.000000 14.361279 L 0.839161 13.398886 L 1.678322 19.309395 L 2.517483 15.394805 L 3.356643 16.735557 L 4.195804 16.540664 L 5.034965 15.667751 L 5.874126 16.172605 L 6.713287 28.224404 L 7.552448 17.554717 L 8.391608 20.565012 L 9.230769 23.010906 L 10.069930 27.863104 L 10.909091 26.625512 L 11.748252 27.156437 L 12.587413 27.694283 L 13.426573 31.010354 L 14.265734 27.924903 L 15.104895 18.064078 L 15.944056 18.237566 L 16.783217 17.357572 L 17.622378 24.366624 L 18.461538 23.398599 L 19.300699 15.332845 L 20.139860 15.513575 L 20.979021 13.812973 L 21.818182 11.802569 L 22.657343 13.077659 L 23.496503 13.626449 L 24.335664 14.898481 L 25.174825 15.866185 L 26.013986 16.793655 L 26.853147 15.803903 L 27.692308 27.411841 L 28.531469 14.902665 L 29.370629 14.603647 L 30.209790 13.768715 L 31.048951 18.405904 L 31.888112 20.089931 L 32.727273 20.892998 L 33.566434 23.137562 L 34.405594 19.909039 L 35.244755 21.020297 L 36.083916 15.937962 L 36.923077 17.202591 L 37.762238 13.707077 L 38.601399 9.877783 L 39.440559 9.773336 L 40.279720 16.793815 L 41.118881 24.286639 L 41.958042 23.270011 L 42.797203 24.292594 L 43.636364 19.401289 L 44.475524 19.079096 L 45.314685 17.377367 L 46.153846 14.803851 L 46.993007 16.735074 L 47.832168 16.708037 L 48.671329 15.707663 L 49.510490 16.126578 L 50.349650 13.006526 L 51.188811 12.868765 L 52.027972 9.242250 L 52.867133 8.800000 L 53.706294 10.200781 L 54.545455 10.748121 L 55.384615 9.172565 L 56.223776 8.832831 L 57.062937 10.210919 L 57.902098 15.252056 L 58.741259 16.517168 L 59.580420 14.885767 L 60.419580 20.679276 L 61.258741 18.044926 L 62.097902 19.341260 L 62.937063 14.613304 L 63.776224 15.159840 L 64.615385 19.192395 L 65.454545 20.361589 L 66.293706 21.821755 L 67.132867 33.946940 L 67.972028 21.970942 L 68.811189 21.963056 L 69.650350 27.633771 L 70.489510 29.047748 L 71.328671 24.945348 L 72.167832 24.901573 L 73.006993 24.901573 L 73.846154 27.192326 L 74.685315 32.544872 L 75.524476 26.782424 L 76.363636 23.198556 L 77.202797 27.364365 L 78.041958 31.221823 L 78.881119 25.648796 L 79.720280 25.845137 L 80.559441 25.057198 L 81.398601 25.880381 L 82.237762 23.592365 L 83.076923 24.370487 L 83.916084 24.764778 L 84.755245 19.765324 L 85.594406 20.225438 L 86.433566 21.142286 L 87.272727 20.570805 L 88.111888 21.240618 L 88.951049 19.764359 L 89.790210 19.582502 L 90.629371 19.847079 L 91.468531 20.022660 L 92.307692 19.606642 L 93.146853 19.025183 L 93.986014 18.533848 L 94.825175 17.404565 L 95.664336 17.911511 L 96.503497 17.996807 L 97.342657 16.582668 L 98.181818 16.834210 L 99.020979 15.327695 L 99.860140 15.097236 L 100.699301 11.564224 L 101.538462 16.083769 L 102.377622 15.195406 L 103.216783 14.982972 L 104.055944 16.355106 L 104.895105 15.611263 L 105.734266 16.166007 L 106.573427 17.542969 L 107.412587 27.561511 L 108.251748 28.614189 L 109.090909 19.288312 L 109.930070 17.938870 L 110.769231 23.356112 L 111.608392 23.273874 L 112.447552 19.761623 L 113.286713 15.977552 L 114.125874 14.034259 L 114.965035 27.162714 L 115.804196 35.895866 L 116.643357 36.534618 L 117.482517 36.800000 L 118.321678 29.949147 L 119.160839 26.745730 L 120.000000 30.770078"></path>
      <path stroke="none" fill-opacity="0.6" fill="url(#color_grad)" d="M 0 40 L 0.000000 14.361279 L 0.839161 13.398886 L 1.678322 19.309395 L 2.517483 15.394805 L 3.356643 16.735557 L 4.195804 16.540664 L 5.034965 15.667751 L 5.874126 16.172605 L 6.713287 28.224404 L 7.552448 17.554717 L 8.391608 20.565012 L 9.230769 23.010906 L 10.069930 27.863104 L 10.909091 26.625512 L 11.748252 27.156437 L 12.587413 27.694283 L 13.426573 31.010354 L 14.265734 27.924903 L 15.104895 18.064078 L 15.944056 18.237566 L 16.783217 17.357572 L 17.622378 24.366624 L 18.461538 23.398599 L 19.300699 15.332845 L 20.139860 15.513575 L 20.979021 13.812973 L 21.818182 11.802569 L 22.657343 13.077659 L 23.496503 13.626449 L 24.335664 14.898481 L 25.174825 15.866185 L 26.013986 16.793655 L 26.853147 15.803903 L 27.692308 27.411841 L 28.531469 14.902665 L 29.370629 14.603647 L 30.209790 13.768715 L 31.048951 18.405904 L 31.888112 20.089931 L 32.727273 20.892998 L 33.566434 23.137562 L 34.405594 19.909039 L 35.244755 21.020297 L 36.083916 15.937962 L 36.923077 17.202591 L 37.762238 13.707077 L 38.601399 9.877783 L 39.440559 9.773336 L 40.279720 16.793815 L 41.118881 24.286639 L 41.958042 23.270011 L 42.797203 24.292594 L 43.636364 19.401289 L 44.475524 19.079096 L 45.314685 17.377367 L 46.153846 14.803851 L 46.993007 16.735074 L 47.832168 16.708037 L 48.671329 15.707663 L 49.510490 16.126578 L 50.349650 13.006526 L 51.188811 12.868765 L 52.027972 9.242250 L 52.867133 8.800000 L 53.706294 10.200781 L 54.545455 10.748121 L 55.384615 9.172565 L 56.223776 8.832831 L 57.062937 10.210919 L 57.902098 15.252056 L 58.741259 16.517168 L 59.580420 14.885767 L 60.419580 20.679276 L 61.258741 18.044926 L 62.097902 19.341260 L 62.937063 14.613304 L 63.776224 15.159840 L 64.615385 19.192395 L 65.454545 20.361589 L 66.293706 21.821755 L 67.132867 33.946940 L 67.972028 21.970942 L 68.811189 21.963056 L 69.650350 27.633771 L 70.489510 29.047748 L 71.328671 24.945348 L 72.167832 24.901573 L 73.006993 24.901573 L 73.846154 27.192326 L 74.685315 32.544872 L 75.524476 26.782424 L 76.363636 23.198556 L 77.202797 27.364365 L 78.041958 31.221823 L 78.881119 25.648796 L 79.720280 25.845137 L 80.559441 25.057198 L 81.398601 25.880381 L 82.237762 23.592365 L 83.076923 24.370487 L 83.916084 24.764778 L 84.755245 19.765324 L 85.594406 20.225438 L 86.433566 21.142286 L 87.272727 20.570805 L 88.111888 21.240618 L 88.951049 19.764359 L 89.790210 19.582502 L 90.629371 19.847079 L 91.468531 20.022660 L 92.307692 19.606642 L 93.146853 19.025183 L 93.986014 18.533848 L 94.825175 17.404565 L 95.664336 17.911511 L 96.503497 17.996807 L 97.342657 16.582668 L 98.181818 16.834210 L 99.020979 15.327695 L 99.860140 15.097236 L 100.699301 11.564224 L 101.538462 16.083769 L 102.377622 15.195406 L 103.216783 14.982972 L 104.055944 16.355106 L 104.895105 15.611263 L 105.734266 16.166007 L 106.573427 17.542969 L 107.412587 27.561511 L 108.251748 28.614189 L 109.090909 19.288312 L 109.930070 17.938870 L 110.769231 23.356112 L 111.608392 23.273874 L 112.447552 19.761623 L 113.286713 15.977552 L 114.125874 14.034259 L 114.965035 27.162714 L 115.804196 35.895866 L 116.643357 36.534618 L 117.482517 36.800000 L 118.321678 29.949147 L 119.160839 26.745730 L 120.000000 30.770078 L 120 40 Z"></path>
    </g>
  </svg>