<svg xmlns="http://www.w3.org/2000/svg" viewBox="0 0 120 40" width="120" height="40">
    <defs>
      <linearGradient id="color_grad" x1="0%" x2="0%" y1="0%" y2="100%">
        <stop offset="0%" style="stop-color:#EA3943;stop-opacity:0.4;"></stop>
        <stop offset="100%" style="stop-color:#EA3943;stop-opacity:0.0;"></stop>
      </linearGradient>
    </defs>
    <g>
      <path stroke="#EA3943" stroke-width="2" stroke-linecap="round" stroke-linejoin="round" fill="none" d="M 0.000000 32.683968 L 0.839161 31.702435 L 1.678322 31.702435 L 2.517483 31.702435 L 3.356643 30.720902 L 4.195804 29.412192 L 5.034965 30.668279 L 5.874126 31.375257 L 6.713287 28.430659 L 7.552448 28.673182 L 8.391608 28.430659 L 9.230769 28.606831 L 10.069930 28.757836 L 10.909091 29.025527 L 11.748252 29.085014 L 12.587413 29.085014 L 13.426573 30.393724 L 14.265734 30.393724 L 15.104895 30.393724 L 15.944056 30.393724 L 16.783217 30.393724 L 17.622378 30.393724 L 18.461538 30.393724 L 19.300699 30.393724 L 20.139860 30.720902 L 20.979021 30.396012 L 21.818182 31.137310 L 22.657343 31.702435 L 23.496503 31.702435 L 24.335664 29.775976 L 25.174825 28.494721 L 26.013986 28.757836 L 26.853147 30.222128 L 27.692308 28.833339 L 28.531469 30.887923 L 29.370629 31.048080 L 30.209790 30.032227 L 31.048951 30.720902 L 31.888112 30.206112 L 32.727273 31.048080 L 33.566434 29.174244 L 34.405594 28.911129 L 35.244755 30.965713 L 36.083916 30.398300 L 36.923077 30.418892 L 37.762238 29.757673 L 38.601399 29.652427 L 39.440559 29.455663 L 40.279720 29.085014 L 41.118881 29.364144 L 41.958042 29.412192 L 42.797203 29.739369 L 43.636364 29.739369 L 44.475524 30.393724 L 45.314685 31.375257 L 46.153846 30.368557 L 46.993007 29.522013 L 47.832168 30.066547 L 48.671329 30.066547 L 49.510490 30.393724 L 50.349650 29.412192 L 51.188811 29.739369 L 52.027972 30.393724 L 52.867133 29.862919 L 53.706294 29.739369 L 54.545455 29.739369 L 55.384615 29.739369 L 56.223776 29.618108 L 57.062937 29.412192 L 57.902098 29.412192 L 58.741259 29.412192 L 59.580420 28.803595 L 60.419580 29.085014 L 61.258741 28.757836 L 62.097902 30.066547 L 62.937063 30.206112 L 63.776224 31.739042 L 64.615385 28.808171 L 65.454545 28.430659 L 66.293706 27.121948 L 67.132867 27.060173 L 67.972028 26.687236 L 68.811189 27.101356 L 69.650350 26.467593 L 70.489510 26.140415 L 71.328671 26.394378 L 72.167832 26.467593 L 73.006993 26.467593 L 73.846154 25.813237 L 74.685315 26.794770 L 75.524476 27.121948 L 76.363636 25.813237 L 77.202797 26.380650 L 78.041958 26.797058 L 78.881119 27.449126 L 79.720280 27.449126 L 80.559441 29.830887 L 81.398601 30.263311 L 82.237762 28.430659 L 83.076923 29.034679 L 83.916084 30.370845 L 84.755245 30.352541 L 85.594406 30.306782 L 86.433566 30.066547 L 87.272727 30.066547 L 88.111888 30.066547 L 88.951049 30.393724 L 89.790210 30.393724 L 90.629371 30.428044 L 91.468531 30.720902 L 92.307692 30.720902 L 93.146853 30.720902 L 93.986014 30.830724 L 94.825175 30.720902 L 95.664336 31.048080 L 96.503497 30.393724 L 97.342657 30.432620 L 98.181818 30.393724 L 99.020979 30.878771 L 99.860140 30.277039 L 100.699301 30.322798 L 101.538462 30.066547 L 102.377622 31.620069 L 103.216783 30.853604 L 104.055944 31.702435 L 104.895105 32.029613 L 105.734266 31.418729 L 106.573427 31.967838 L 107.412587 31.343226 L 108.251748 8.800000 L 109.090909 30.839876 L 109.930070 32.356790 L 110.769231 32.205785 L 111.608392 32.947083 L 112.447552 32.599314 L 113.286713 32.972250 L 114.125874 33.992679 L 114.965035 35.248766 L 115.804196 34.580683 L 116.643357 35.118353 L 117.482517 36.800000 L 118.321678 33.338323 L 119.160839 33.665501 L 120.000000 34.319856"></path>
      <path stroke="none" fill-opacity="0.6" fill="url(#color_grad)" d="M 0 40 L 0.000000 32.683968 L 0.839161 31.702435 L 1.678322 31.702435 L 2.517483 31.702435 L 3.356643 30.720902 L 4.195804 29.412192 L 5.034965 30.668279 L 5.874126 31.375257 L 6.713287 28.430659 L 7.552448 28.673182 L 8.391608 28.430659 L 9.230769 28.606831 L 10.069930 28.757836 L 10.909091 29.025527 L 11.748252 29.085014 L 12.587413 29.085014 L 13.426573 30.393724 L 14.265734 30.393724 L 15.104895 30.393724 L 15.944056 30.393724 L 16.783217 30.393724 L 17.622378 30.393724 L 18.461538 30.393724 L 19.300699 30.393724 L 20.139860 30.720902 L 20.979021 30.396012 L 21.818182 31.137310 L 22.657343 31.702435 L 23.496503 31.702435 L 24.335664 29.775976 L 25.174825 28.494721 L 26.013986 28.757836 L 26.853147 30.222128 L 27.692308 28.833339 L 28.531469 30.887923 L 29.370629 31.048080 L 30.209790 30.032227 L 31.048951 30.720902 L 31.888112 30.206112 L 32.727273 31.048080 L 33.566434 29.174244 L 34.405594 28.911129 L 35.244755 30.965713 L 36.083916 30.398300 L 36.923077 30.418892 L 37.762238 29.757673 L 38.601399 29.652427 L 39.440559 29.455663 L 40.279720 29.085014 L 41.118881 29.364144 L 41.958042 29.412192 L 42.797203 29.739369 L 43.636364 29.739369 L 44.475524 30.393724 L 45.314685 31.375257 L 46.153846 30.368557 L 46.993007 29.522013 L 47.832168 30.066547 L 48.671329 30.066547 L 49.510490 30.393724 L 50.349650 29.412192 L 51.188811 29.739369 L 52.027972 30.393724 L 52.867133 29.862919 L 53.706294 29.739369 L 54.545455 29.739369 L 55.384615 29.739369 L 56.223776 29.618108 L 57.062937 29.412192 L 57.902098 29.412192 L 58.741259 29.412192 L 59.580420 28.803595 L 60.419580 29.085014 L 61.258741 28.757836 L 62.097902 30.066547 L 62.937063 30.206112 L 63.776224 31.739042 L 64.615385 28.808171 L 65.454545 28.430659 L 66.293706 27.121948 L 67.132867 27.060173 L 67.972028 26.687236 L 68.811189 27.101356 L 69.650350 26.467593 L 70.489510 26.140415 L 71.328671 26.394378 L 72.167832 26.467593 L 73.006993 26.467593 L 73.846154 25.813237 L 74.685315 26.794770 L 75.524476 27.121948 L 76.363636 25.813237 L 77.202797 26.380650 L 78.041958 26.797058 L 78.881119 27.449126 L 79.720280 27.449126 L 80.559441 29.830887 L 81.398601 30.263311 L 82.237762 28.430659 L 83.076923 29.034679 L 83.916084 30.370845 L 84.755245 30.352541 L 85.594406 30.306782 L 86.433566 30.066547 L 87.272727 30.066547 L 88.111888 30.066547 L 88.951049 30.393724 L 89.790210 30.393724 L 90.629371 30.428044 L 91.468531 30.720902 L 92.307692 30.720902 L 93.146853 30.720902 L 93.986014 30.830724 L 94.825175 30.720902 L 95.664336 31.048080 L 96.503497 30.393724 L 97.342657 30.432620 L 98.181818 30.393724 L 99.020979 30.878771 L 99.860140 30.277039 L 100.699301 30.322798 L 101.538462 30.066547 L 102.377622 31.620069 L 103.216783 30.853604 L 104.055944 31.702435 L 104.895105 32.029613 L 105.734266 31.418729 L 106.573427 31.967838 L 107.412587 31.343226 L 108.251748 8.800000 L 109.090909 30.839876 L 109.930070 32.356790 L 110.769231 32.205785 L 111.608392 32.947083 L 112.447552 32.599314 L 113.286713 32.972250 L 114.125874 33.992679 L 114.965035 35.248766 L 115.804196 34.580683 L 116.643357 35.118353 L 117.482517 36.800000 L 118.321678 33.338323 L 119.160839 33.665501 L 120.000000 34.319856 L 120 40 Z"></path>
    </g>
  </svg>