<svg xmlns="http://www.w3.org/2000/svg" viewBox="0 0 120 40" width="120" height="40">
    <defs>
      <linearGradient id="color_grad" x1="0%" x2="0%" y1="0%" y2="100%">
        <stop offset="0%" style="stop-color:#EA3943;stop-opacity:0.4;"></stop>
        <stop offset="100%" style="stop-color:#EA3943;stop-opacity:0.0;"></stop>
      </linearGradient>
    </defs>
    <g>
      <path stroke="#EA3943" stroke-width="2" stroke-linecap="round" stroke-linejoin="round" fill="none" d="M 0.000000 36.610997 L 0.839161 35.538693 L 1.678322 35.788235 L 2.517483 35.868844 L 3.356643 35.186641 L 4.195804 33.955930 L 5.034965 34.960896 L 5.874126 35.702788 L 6.713287 33.290398 L 7.552448 33.416247 L 8.391608 33.245288 L 9.230769 33.121008 L 10.069930 33.527583 L 10.909091 33.546281 L 11.748252 33.699523 L 12.587413 33.797719 L 13.426573 35.054711 L 14.265734 34.855902 L 15.104895 34.600345 L 15.944056 34.637348 L 16.783217 34.480249 L 17.622378 34.258100 L 18.461538 34.075307 L 19.300699 34.124209 L 20.139860 34.458086 L 20.979021 34.187493 L 21.818182 34.780326 L 22.657343 35.313602 L 23.496503 35.406502 L 24.335664 33.687167 L 25.174825 32.662588 L 26.013986 33.083481 L 26.853147 34.259865 L 27.692308 32.950571 L 28.531469 34.720115 L 29.370629 34.819487 L 30.209790 33.723451 L 31.048951 34.902450 L 31.888112 34.443638 L 32.727273 35.362503 L 33.566434 33.288110 L 34.405594 32.920629 L 35.244755 35.032745 L 36.083916 33.883493 L 36.923077 33.802753 L 37.762238 32.555632 L 38.601399 32.175338 L 39.440559 31.967114 L 40.279720 32.083353 L 41.118881 32.273141 L 41.958042 32.124017 L 42.797203 32.639641 L 43.636364 32.412523 L 44.475524 32.983652 L 45.314685 33.624798 L 46.153846 32.632711 L 46.993007 32.170957 L 47.832168 32.684228 L 48.671329 32.505031 L 49.510490 32.892321 L 50.349650 31.953712 L 51.188811 32.417427 L 52.027972 32.399121 L 52.867133 31.799750 L 53.706294 31.933380 L 54.545455 32.032621 L 55.384615 31.756798 L 56.223776 31.568775 L 57.062937 31.624084 L 57.902098 31.736597 L 58.741259 32.026606 L 59.580420 31.437499 L 60.419580 31.163442 L 61.258741 30.333553 L 62.097902 31.863623 L 62.937063 31.980254 L 63.776224 33.587403 L 64.615385 31.100942 L 65.454545 31.074791 L 66.293706 29.792563 L 67.132867 29.503927 L 67.972028 29.404489 L 68.811189 29.646578 L 69.650350 29.778181 L 70.489510 29.536092 L 71.328671 29.416126 L 72.167832 29.477841 L 73.006993 29.477841 L 73.846154 29.316754 L 74.685315 29.774520 L 75.524476 30.004775 L 76.363636 28.007526 L 77.202797 29.278378 L 78.041958 30.450512 L 78.881119 30.251310 L 79.720280 30.291189 L 80.559441 32.426383 L 81.398601 33.142386 L 82.237762 30.936781 L 83.076923 31.677692 L 83.916084 33.045955 L 84.755245 32.084464 L 85.594406 32.127025 L 86.433566 32.054587 L 87.272727 31.951881 L 88.111888 32.078188 L 88.951049 32.118656 L 89.790210 32.080738 L 90.629371 32.165270 L 91.468531 32.488164 L 92.307692 32.409058 L 93.146853 32.309163 L 93.986014 32.326749 L 94.825175 32.004051 L 95.664336 32.424749 L 96.503497 31.788440 L 97.342657 31.561911 L 98.181818 31.513336 L 99.020979 31.626960 L 99.860140 30.976400 L 100.699301 30.355324 L 101.538462 31.095908 L 102.377622 32.636568 L 103.216783 31.839368 L 104.055944 32.887287 L 104.895105 32.980121 L 105.734266 31.716199 L 106.573427 32.529286 L 107.412587 32.114995 L 108.251748 8.800000 L 109.090909 31.716461 L 109.930070 32.991628 L 110.769231 32.428475 L 111.608392 32.919060 L 112.447552 32.014708 L 113.286713 32.566354 L 114.125874 33.655787 L 114.965035 35.167551 L 115.804196 34.587924 L 116.643357 35.304057 L 117.482517 36.800000 L 118.321678 33.645588 L 119.160839 33.934813 L 120.000000 34.946905"></path>
      <path stroke="none" fill-opacity="0.6" fill="url(#color_grad)" d="M 0 40 L 0.000000 36.610997 L 0.839161 35.538693 L 1.678322 35.788235 L 2.517483 35.868844 L 3.356643 35.186641 L 4.195804 33.955930 L 5.034965 34.960896 L 5.874126 35.702788 L 6.713287 33.290398 L 7.552448 33.416247 L 8.391608 33.245288 L 9.230769 33.121008 L 10.069930 33.527583 L 10.909091 33.546281 L 11.748252 33.699523 L 12.587413 33.797719 L 13.426573 35.054711 L 14.265734 34.855902 L 15.104895 34.600345 L 15.944056 34.637348 L 16.783217 34.480249 L 17.622378 34.258100 L 18.461538 34.075307 L 19.300699 34.124209 L 20.139860 34.458086 L 20.979021 34.187493 L 21.818182 34.780326 L 22.657343 35.313602 L 23.496503 35.406502 L 24.335664 33.687167 L 25.174825 32.662588 L 26.013986 33.083481 L 26.853147 34.259865 L 27.692308 32.950571 L 28.531469 34.720115 L 29.370629 34.819487 L 30.209790 33.723451 L 31.048951 34.902450 L 31.888112 34.443638 L 32.727273 35.362503 L 33.566434 33.288110 L 34.405594 32.920629 L 35.244755 35.032745 L 36.083916 33.883493 L 36.923077 33.802753 L 37.762238 32.555632 L 38.601399 32.175338 L 39.440559 31.967114 L 40.279720 32.083353 L 41.118881 32.273141 L 41.958042 32.124017 L 42.797203 32.639641 L 43.636364 32.412523 L 44.475524 32.983652 L 45.314685 33.624798 L 46.153846 32.632711 L 46.993007 32.170957 L 47.832168 32.684228 L 48.671329 32.505031 L 49.510490 32.892321 L 50.349650 31.953712 L 51.188811 32.417427 L 52.027972 32.399121 L 52.867133 31.799750 L 53.706294 31.933380 L 54.545455 32.032621 L 55.384615 31.756798 L 56.223776 31.568775 L 57.062937 31.624084 L 57.902098 31.736597 L 58.741259 32.026606 L 59.580420 31.437499 L 60.419580 31.163442 L 61.258741 30.333553 L 62.097902 31.863623 L 62.937063 31.980254 L 63.776224 33.587403 L 64.615385 31.100942 L 65.454545 31.074791 L 66.293706 29.792563 L 67.132867 29.503927 L 67.972028 29.404489 L 68.811189 29.646578 L 69.650350 29.778181 L 70.489510 29.536092 L 71.328671 29.416126 L 72.167832 29.477841 L 73.006993 29.477841 L 73.846154 29.316754 L 74.685315 29.774520 L 75.524476 30.004775 L 76.363636 28.007526 L 77.202797 29.278378 L 78.041958 30.450512 L 78.881119 30.251310 L 79.720280 30.291189 L 80.559441 32.426383 L 81.398601 33.142386 L 82.237762 30.936781 L 83.076923 31.677692 L 83.916084 33.045955 L 84.755245 32.084464 L 85.594406 32.127025 L 86.433566 32.054587 L 87.272727 31.951881 L 88.111888 32.078188 L 88.951049 32.118656 L 89.790210 32.080738 L 90.629371 32.165270 L 91.468531 32.488164 L 92.307692 32.409058 L 93.146853 32.309163 L 93.986014 32.326749 L 94.825175 32.004051 L 95.664336 32.424749 L 96.503497 31.788440 L 97.342657 31.561911 L 98.181818 31.513336 L 99.020979 31.626960 L 99.860140 30.976400 L 100.699301 30.355324 L 101.538462 31.095908 L 102.377622 32.636568 L 103.216783 31.839368 L 104.055944 32.887287 L 104.895105 32.980121 L 105.734266 31.716199 L 106.573427 32.529286 L 107.412587 32.114995 L 108.251748 8.800000 L 109.090909 31.716461 L 109.930070 32.991628 L 110.769231 32.428475 L 111.608392 32.919060 L 112.447552 32.014708 L 113.286713 32.566354 L 114.125874 33.655787 L 114.965035 35.167551 L 115.804196 34.587924 L 116.643357 35.304057 L 117.482517 36.800000 L 118.321678 33.645588 L 119.160839 33.934813 L 120.000000 34.946905 L 120 40 Z"></path>
    </g>
  </svg>