<svg xmlns="http://www.w3.org/2000/svg" viewBox="0 0 120 40" width="120" height="40">
    <defs>
      <linearGradient id="color_grad" x1="0%" x2="0%" y1="0%" y2="100%">
        <stop offset="0%" style="stop-color:#16C784;stop-opacity:0.4;"></stop>
        <stop offset="100%" style="stop-color:#16C784;stop-opacity:0.0;"></stop>
      </linearGradient>
    </defs>
    <g>
      <path stroke="#16C784" stroke-width="2" stroke-linecap="round" stroke-linejoin="round" fill="none" d="M 0.000000 27.845925 L 0.839161 26.265420 L 1.678322 22.462702 L 2.517483 24.379353 L 3.356643 26.048109 L 4.195804 25.988507 L 5.034965 25.711410 L 5.874126 25.880635 L 6.713287 26.430776 L 7.552448 26.249484 L 8.391608 26.346578 L 9.230769 25.836509 L 10.069930 25.055146 L 10.909091 23.774216 L 11.748252 25.172876 L 12.587413 25.415060 L 13.426573 24.257939 L 14.265734 24.191244 L 15.104895 24.228737 L 15.944056 24.300498 L 16.783217 23.310391 L 17.622378 22.706084 L 18.461538 22.365884 L 19.300699 22.447779 L 20.139860 22.933252 L 20.979021 22.998933 L 21.818182 22.792216 L 22.657343 24.153290 L 23.496503 26.810127 L 24.335664 20.571476 L 25.174825 24.349230 L 26.013986 23.370270 L 26.853147 25.163756 L 27.692308 25.133264 L 28.531469 25.069978 L 29.370629 24.765521 L 30.209790 24.511638 L 31.048951 25.516484 L 31.888112 25.674470 L 32.727273 26.237600 L 33.566434 26.366016 L 34.405594 27.092383 L 35.244755 27.462061 L 36.083916 25.463975 L 36.923077 25.703764 L 37.762238 24.027547 L 38.601399 22.526173 L 39.440559 22.242259 L 40.279720 23.430332 L 41.118881 24.916690 L 41.958042 25.277893 L 42.797203 26.951070 L 43.636364 34.977404 L 44.475524 32.099756 L 45.314685 26.785162 L 46.153846 26.754578 L 46.993007 27.228720 L 47.832168 27.358794 L 48.671329 27.200440 L 49.510490 27.180357 L 50.349650 27.192517 L 51.188811 27.447782 L 52.027972 26.301531 L 52.867133 26.159943 L 53.706294 27.027806 L 54.545455 26.776503 L 55.384615 26.288450 L 56.223776 26.171458 L 57.062937 26.608752 L 57.902098 26.816575 L 58.741259 27.306470 L 59.580420 25.215251 L 60.419580 23.690295 L 61.258741 23.223614 L 62.097902 24.129892 L 62.937063 25.425377 L 63.776224 26.967191 L 64.615385 26.818417 L 65.454545 28.105796 L 66.293706 28.957078 L 67.132867 27.170777 L 67.972028 26.871110 L 68.811189 26.848172 L 69.650350 28.271981 L 70.489510 27.951034 L 71.328671 26.512947 L 72.167832 26.449569 L 73.006993 26.449569 L 73.846154 28.771087 L 74.685315 26.526857 L 75.524476 25.859263 L 76.363636 25.074768 L 77.202797 27.101042 L 78.041958 28.435770 L 78.881119 27.067142 L 79.720280 27.134574 L 80.559441 26.228204 L 81.398601 27.778493 L 82.237762 24.107875 L 83.076923 26.622846 L 83.916084 24.362495 L 84.755245 22.698438 L 85.594406 25.055054 L 86.433566 25.174903 L 87.272727 24.717895 L 88.111888 25.562912 L 88.951049 25.346983 L 89.790210 25.716292 L 90.629371 25.826284 L 91.468531 25.883122 L 92.307692 25.743284 L 93.146853 25.799293 L 93.986014 25.852170 L 94.825175 25.384752 L 95.664336 26.094538 L 96.503497 26.078048 L 97.342657 25.202262 L 98.181818 25.519063 L 99.020979 25.441774 L 99.860140 26.558547 L 100.699301 28.140802 L 101.538462 26.468822 L 102.377622 29.606156 L 103.216783 29.644110 L 104.055944 31.266161 L 104.895105 26.267447 L 105.734266 23.524294 L 106.573427 30.575536 L 107.412587 31.040559 L 108.251748 8.800000 L 109.090909 30.848212 L 109.930070 30.804178 L 110.769231 33.133435 L 111.608392 29.940184 L 112.447552 30.259380 L 113.286713 29.486308 L 114.125874 30.622241 L 114.965035 35.633483 L 115.804196 35.691887 L 116.643357 36.800000 L 117.482517 36.156910 L 118.321678 25.536474 L 119.160839 32.014729 L 120.000000 26.107066"></path>
      <path stroke="none" fill-opacity="0.6" fill="url(#color_grad)" d="M 0 40 L 0.000000 27.845925 L 0.839161 26.265420 L 1.678322 22.462702 L 2.517483 24.379353 L 3.356643 26.048109 L 4.195804 25.988507 L 5.034965 25.711410 L 5.874126 25.880635 L 6.713287 26.430776 L 7.552448 26.249484 L 8.391608 26.346578 L 9.230769 25.836509 L 10.069930 25.055146 L 10.909091 23.774216 L 11.748252 25.172876 L 12.587413 25.415060 L 13.426573 24.257939 L 14.265734 24.191244 L 15.104895 24.228737 L 15.944056 24.300498 L 16.783217 23.310391 L 17.622378 22.706084 L 18.461538 22.365884 L 19.300699 22.447779 L 20.139860 22.933252 L 20.979021 22.998933 L 21.818182 22.792216 L 22.657343 24.153290 L 23.496503 26.810127 L 24.335664 20.571476 L 25.174825 24.349230 L 26.013986 23.370270 L 26.853147 25.163756 L 27.692308 25.133264 L 28.531469 25.069978 L 29.370629 24.765521 L 30.209790 24.511638 L 31.048951 25.516484 L 31.888112 25.674470 L 32.727273 26.237600 L 33.566434 26.366016 L 34.405594 27.092383 L 35.244755 27.462061 L 36.083916 25.463975 L 36.923077 25.703764 L 37.762238 24.027547 L 38.601399 22.526173 L 39.440559 22.242259 L 40.279720 23.430332 L 41.118881 24.916690 L 41.958042 25.277893 L 42.797203 26.951070 L 43.636364 34.977404 L 44.475524 32.099756 L 45.314685 26.785162 L 46.153846 26.754578 L 46.993007 27.228720 L 47.832168 27.358794 L 48.671329 27.200440 L 49.510490 27.180357 L 50.349650 27.192517 L 51.188811 27.447782 L 52.027972 26.301531 L 52.867133 26.159943 L 53.706294 27.027806 L 54.545455 26.776503 L 55.384615 26.288450 L 56.223776 26.171458 L 57.062937 26.608752 L 57.902098 26.816575 L 58.741259 27.306470 L 59.580420 25.215251 L 60.419580 23.690295 L 61.258741 23.223614 L 62.097902 24.129892 L 62.937063 25.425377 L 63.776224 26.967191 L 64.615385 26.818417 L 65.454545 28.105796 L 66.293706 28.957078 L 67.132867 27.170777 L 67.972028 26.871110 L 68.811189 26.848172 L 69.650350 28.271981 L 70.489510 27.951034 L 71.328671 26.512947 L 72.167832 26.449569 L 73.006993 26.449569 L 73.846154 28.771087 L 74.685315 26.526857 L 75.524476 25.859263 L 76.363636 25.074768 L 77.202797 27.101042 L 78.041958 28.435770 L 78.881119 27.067142 L 79.720280 27.134574 L 80.559441 26.228204 L 81.398601 27.778493 L 82.237762 24.107875 L 83.076923 26.622846 L 83.916084 24.362495 L 84.755245 22.698438 L 85.594406 25.055054 L 86.433566 25.174903 L 87.272727 24.717895 L 88.111888 25.562912 L 88.951049 25.346983 L 89.790210 25.716292 L 90.629371 25.826284 L 91.468531 25.883122 L 92.307692 25.743284 L 93.146853 25.799293 L 93.986014 25.852170 L 94.825175 25.384752 L 95.664336 26.094538 L 96.503497 26.078048 L 97.342657 25.202262 L 98.181818 25.519063 L 99.020979 25.441774 L 99.860140 26.558547 L 100.699301 28.140802 L 101.538462 26.468822 L 102.377622 29.606156 L 103.216783 29.644110 L 104.055944 31.266161 L 104.895105 26.267447 L 105.734266 23.524294 L 106.573427 30.575536 L 107.412587 31.040559 L 108.251748 8.800000 L 109.090909 30.848212 L 109.930070 30.804178 L 110.769231 33.133435 L 111.608392 29.940184 L 112.447552 30.259380 L 113.286713 29.486308 L 114.125874 30.622241 L 114.965035 35.633483 L 115.804196 35.691887 L 116.643357 36.800000 L 117.482517 36.156910 L 118.321678 25.536474 L 119.160839 32.014729 L 120.000000 26.107066 L 120 40 Z"></path>
    </g>
  </svg>