<svg xmlns="http://www.w3.org/2000/svg" viewBox="0 0 120 40" width="120" height="40">
    <defs>
      <linearGradient id="color_grad" x1="0%" x2="0%" y1="0%" y2="100%">
        <stop offset="0%" style="stop-color:#EA3943;stop-opacity:0.4;"></stop>
        <stop offset="100%" style="stop-color:#EA3943;stop-opacity:0.0;"></stop>
      </linearGradient>
    </defs>
    <g>
      <path stroke="#EA3943" stroke-width="2" stroke-linecap="round" stroke-linejoin="round" fill="none" d="M 0.000000 20.821247 L 0.839161 19.434180 L 1.678322 14.810624 L 2.517483 16.705312 L 3.356643 18.047113 L 4.195804 18.047113 L 5.034965 18.047113 L 5.874126 18.047113 L 6.713287 18.047113 L 7.552448 18.047113 L 8.391608 18.047113 L 9.230769 18.047113 L 10.069930 16.660046 L 10.909091 15.735335 L 11.748252 17.064203 L 12.587413 17.122402 L 13.426573 15.735335 L 14.265734 16.084527 L 15.104895 16.660046 L 15.944056 16.660046 L 16.783217 15.922864 L 17.622378 15.735335 L 18.461538 15.735335 L 19.300699 15.735335 L 20.139860 16.197691 L 20.979021 16.197691 L 21.818182 16.197691 L 22.657343 17.633256 L 23.496503 20.281293 L 24.335664 13.423557 L 25.174825 17.141801 L 26.013986 15.738568 L 26.853147 18.047113 L 27.692308 18.047113 L 28.531469 18.273441 L 29.370629 18.047113 L 30.209790 18.063279 L 31.048951 18.047113 L 31.888112 18.192610 L 32.727273 18.509469 L 33.566434 19.333949 L 34.405594 20.358891 L 35.244755 20.358891 L 36.083916 19.440647 L 36.923077 19.896536 L 37.762238 19.353349 L 38.601399 18.309007 L 39.440559 18.047113 L 40.279720 18.376905 L 41.118881 20.087298 L 41.958042 20.821247 L 42.797203 22.208314 L 43.636364 30.993072 L 44.475524 28.102540 L 45.314685 23.133025 L 46.153846 23.133025 L 46.993007 22.981062 L 47.832168 23.120092 L 48.671329 23.288222 L 49.510490 23.133025 L 50.349650 23.133025 L 51.188811 23.133025 L 52.027972 23.133025 L 52.867133 23.133025 L 53.706294 23.572748 L 54.545455 23.133025 L 55.384615 23.133025 L 56.223776 23.133025 L 57.062937 23.133025 L 57.902098 23.133025 L 58.741259 23.133025 L 59.580420 20.950577 L 60.419580 20.391224 L 61.258741 20.821247 L 62.097902 21.306236 L 62.937063 22.670670 L 63.776224 24.057737 L 64.615385 23.239723 L 65.454545 23.973672 L 66.293706 24.891917 L 67.132867 23.420785 L 67.972028 22.670670 L 68.811189 22.916397 L 69.650350 23.133025 L 70.489510 22.670670 L 71.328671 21.797691 L 72.167832 21.745958 L 73.006993 21.745958 L 73.846154 23.381986 L 74.685315 21.842956 L 75.524476 21.283603 L 76.363636 21.745958 L 77.202797 22.609238 L 78.041958 22.670670 L 78.881119 22.670670 L 79.720280 22.670670 L 80.559441 22.004619 L 81.398601 23.071594 L 82.237762 20.058199 L 83.076923 22.386143 L 83.916084 19.890069 L 84.755245 19.954734 L 85.594406 22.208314 L 86.433566 22.020785 L 87.272727 21.745958 L 88.111888 22.379677 L 88.951049 22.670670 L 89.790210 23.116859 L 90.629371 23.133025 L 91.468531 23.133025 L 92.307692 23.133025 L 93.146853 23.375520 L 93.986014 23.595381 L 94.825175 23.504850 L 95.664336 24.057737 L 96.503497 24.018938 L 97.342657 23.595381 L 98.181818 23.931640 L 99.020979 24.520092 L 99.860140 25.709931 L 100.699301 28.380600 L 101.538462 25.053580 L 102.377622 28.218938 L 103.216783 28.312702 L 104.055944 29.606005 L 104.895105 24.982448 L 105.734266 23.420785 L 106.573427 29.958430 L 107.412587 30.068360 L 108.251748 8.800000 L 109.090909 29.690069 L 109.930070 30.068360 L 110.769231 33.055889 L 111.608392 30.346420 L 112.447552 31.558891 L 113.286713 30.530716 L 114.125874 31.581524 L 114.965035 36.095150 L 115.804196 35.985219 L 116.643357 36.800000 L 117.482517 36.541339 L 118.321678 25.444804 L 119.160839 31.917783 L 120.000000 25.444804"></path>
      <path stroke="none" fill-opacity="0.6" fill="url(#color_grad)" d="M 0 40 L 0.000000 20.821247 L 0.839161 19.434180 L 1.678322 14.810624 L 2.517483 16.705312 L 3.356643 18.047113 L 4.195804 18.047113 L 5.034965 18.047113 L 5.874126 18.047113 L 6.713287 18.047113 L 7.552448 18.047113 L 8.391608 18.047113 L 9.230769 18.047113 L 10.069930 16.660046 L 10.909091 15.735335 L 11.748252 17.064203 L 12.587413 17.122402 L 13.426573 15.735335 L 14.265734 16.084527 L 15.104895 16.660046 L 15.944056 16.660046 L 16.783217 15.922864 L 17.622378 15.735335 L 18.461538 15.735335 L 19.300699 15.735335 L 20.139860 16.197691 L 20.979021 16.197691 L 21.818182 16.197691 L 22.657343 17.633256 L 23.496503 20.281293 L 24.335664 13.423557 L 25.174825 17.141801 L 26.013986 15.738568 L 26.853147 18.047113 L 27.692308 18.047113 L 28.531469 18.273441 L 29.370629 18.047113 L 30.209790 18.063279 L 31.048951 18.047113 L 31.888112 18.192610 L 32.727273 18.509469 L 33.566434 19.333949 L 34.405594 20.358891 L 35.244755 20.358891 L 36.083916 19.440647 L 36.923077 19.896536 L 37.762238 19.353349 L 38.601399 18.309007 L 39.440559 18.047113 L 40.279720 18.376905 L 41.118881 20.087298 L 41.958042 20.821247 L 42.797203 22.208314 L 43.636364 30.993072 L 44.475524 28.102540 L 45.314685 23.133025 L 46.153846 23.133025 L 46.993007 22.981062 L 47.832168 23.120092 L 48.671329 23.288222 L 49.510490 23.133025 L 50.349650 23.133025 L 51.188811 23.133025 L 52.027972 23.133025 L 52.867133 23.133025 L 53.706294 23.572748 L 54.545455 23.133025 L 55.384615 23.133025 L 56.223776 23.133025 L 57.062937 23.133025 L 57.902098 23.133025 L 58.741259 23.133025 L 59.580420 20.950577 L 60.419580 20.391224 L 61.258741 20.821247 L 62.097902 21.306236 L 62.937063 22.670670 L 63.776224 24.057737 L 64.615385 23.239723 L 65.454545 23.973672 L 66.293706 24.891917 L 67.132867 23.420785 L 67.972028 22.670670 L 68.811189 22.916397 L 69.650350 23.133025 L 70.489510 22.670670 L 71.328671 21.797691 L 72.167832 21.745958 L 73.006993 21.745958 L 73.846154 23.381986 L 74.685315 21.842956 L 75.524476 21.283603 L 76.363636 21.745958 L 77.202797 22.609238 L 78.041958 22.670670 L 78.881119 22.670670 L 79.720280 22.670670 L 80.559441 22.004619 L 81.398601 23.071594 L 82.237762 20.058199 L 83.076923 22.386143 L 83.916084 19.890069 L 84.755245 19.954734 L 85.594406 22.208314 L 86.433566 22.020785 L 87.272727 21.745958 L 88.111888 22.379677 L 88.951049 22.670670 L 89.790210 23.116859 L 90.629371 23.133025 L 91.468531 23.133025 L 92.307692 23.133025 L 93.146853 23.375520 L 93.986014 23.595381 L 94.825175 23.504850 L 95.664336 24.057737 L 96.503497 24.018938 L 97.342657 23.595381 L 98.181818 23.931640 L 99.020979 24.520092 L 99.860140 25.709931 L 100.699301 28.380600 L 101.538462 25.053580 L 102.377622 28.218938 L 103.216783 28.312702 L 104.055944 29.606005 L 104.895105 24.982448 L 105.734266 23.420785 L 106.573427 29.958430 L 107.412587 30.068360 L 108.251748 8.800000 L 109.090909 29.690069 L 109.930070 30.068360 L 110.769231 33.055889 L 111.608392 30.346420 L 112.447552 31.558891 L 113.286713 30.530716 L 114.125874 31.581524 L 114.965035 36.095150 L 115.804196 35.985219 L 116.643357 36.800000 L 117.482517 36.541339 L 118.321678 25.444804 L 119.160839 31.917783 L 120.000000 25.444804 L 120 40 Z"></path>
    </g>
  </svg>