<svg xmlns="http://www.w3.org/2000/svg" viewBox="0 0 120 40" width="120" height="40">
    <defs>
      <linearGradient id="color_grad" x1="0%" x2="0%" y1="0%" y2="100%">
        <stop offset="0%" style="stop-color:#EA3943;stop-opacity:0.4;"></stop>
        <stop offset="100%" style="stop-color:#EA3943;stop-opacity:0.0;"></stop>
      </linearGradient>
    </defs>
    <g>
      <path stroke="#EA3943" stroke-width="2" stroke-linecap="round" stroke-linejoin="round" fill="none" d="M 0.000000 18.436364 L 0.839161 19.527273 L 1.678322 17.890909 L 2.517483 17.738334 L 3.356643 17.222123 L 4.195804 17.163636 L 5.034965 16.494851 L 5.874126 14.254545 L 6.713287 14.007883 L 7.552448 13.574317 L 8.391608 13.890909 L 9.230769 13.890909 L 10.069930 13.157279 L 10.909091 13.824793 L 11.748252 13.337826 L 12.587413 13.363255 L 13.426573 13.431914 L 14.265734 13.595931 L 15.104895 11.978640 L 15.944056 11.953210 L 16.783217 11.345455 L 17.622378 11.345455 L 18.461538 11.359441 L 19.300699 11.527273 L 20.139860 9.709091 L 20.979021 12.424921 L 21.818182 11.841322 L 22.657343 13.938970 L 23.496503 11.527273 L 24.335664 11.435728 L 25.174825 10.254545 L 26.013986 10.254545 L 26.853147 11.300445 L 27.692308 9.527273 L 28.531469 9.709091 L 29.370629 9.527273 L 30.209790 8.800000 L 31.048951 10.981818 L 31.888112 10.981818 L 32.727273 11.080992 L 33.566434 10.981818 L 34.405594 13.183725 L 35.244755 12.254545 L 36.083916 12.520280 L 36.923077 18.436364 L 37.762238 18.436364 L 38.601399 14.981818 L 39.440559 14.981818 L 40.279720 15.890909 L 41.118881 12.618182 L 41.958042 14.243102 L 42.797203 12.618182 L 43.636364 13.153719 L 44.475524 16.035855 L 45.314685 18.005340 L 46.153846 18.981818 L 46.993007 16.800000 L 47.832168 16.800000 L 48.671329 16.800000 L 49.510490 16.800000 L 50.349650 16.800000 L 51.188811 12.618182 L 52.027972 14.072727 L 52.867133 14.072727 L 53.706294 14.072727 L 54.545455 14.072727 L 55.384615 16.981818 L 56.223776 16.981818 L 57.062937 19.654418 L 57.902098 23.163636 L 58.741259 19.709091 L 59.580420 24.896631 L 60.419580 19.527273 L 61.258741 19.527273 L 62.097902 19.527273 L 62.937063 23.163636 L 63.776224 23.837508 L 64.615385 22.786014 L 65.454545 19.246281 L 66.293706 21.607374 L 67.132867 23.345455 L 67.972028 23.345455 L 68.811189 22.424921 L 69.650350 22.618182 L 70.489510 25.345455 L 71.328671 25.345455 L 72.167832 25.345455 L 73.006993 25.345455 L 73.846154 26.981818 L 74.685315 25.345455 L 75.524476 25.527273 L 76.363636 25.527273 L 77.202797 26.981818 L 78.041958 25.327654 L 78.881119 22.618182 L 79.720280 22.618182 L 80.559441 19.345455 L 81.398601 19.242467 L 82.237762 19.537444 L 83.076923 19.163636 L 83.916084 19.706548 L 84.755245 19.709091 L 85.594406 19.709091 L 86.433566 19.709091 L 87.272727 19.709091 L 88.111888 19.709091 L 88.951049 19.709091 L 89.790210 20.072727 L 90.629371 19.940496 L 91.468531 20.363636 L 92.307692 20.363636 L 93.146853 20.878576 L 93.986014 21.345455 L 94.825175 21.345455 L 95.664336 23.345455 L 96.503497 23.542530 L 97.342657 23.711634 L 98.181818 24.981818 L 99.020979 22.863318 L 99.860140 20.363636 L 100.699301 20.363636 L 101.538462 20.363636 L 102.377622 20.363636 L 103.216783 22.290909 L 104.055944 22.340750 L 104.895105 23.402670 L 105.734266 21.327273 L 106.573427 27.937953 L 107.412587 20.363636 L 108.251748 26.800000 L 109.090909 20.730579 L 109.930070 22.290909 L 110.769231 20.436364 L 111.608392 23.532359 L 112.447552 25.163636 L 113.286713 28.207502 L 114.125874 32.216402 L 114.965035 30.436364 L 115.804196 29.616275 L 116.643357 28.910617 L 117.482517 34.300318 L 118.321678 35.527273 L 119.160839 36.800000 L 120.000000 32.254545"></path>
      <path stroke="none" fill-opacity="0.6" fill="url(#color_grad)" d="M 0 40 L 0.000000 18.436364 L 0.839161 19.527273 L 1.678322 17.890909 L 2.517483 17.738334 L 3.356643 17.222123 L 4.195804 17.163636 L 5.034965 16.494851 L 5.874126 14.254545 L 6.713287 14.007883 L 7.552448 13.574317 L 8.391608 13.890909 L 9.230769 13.890909 L 10.069930 13.157279 L 10.909091 13.824793 L 11.748252 13.337826 L 12.587413 13.363255 L 13.426573 13.431914 L 14.265734 13.595931 L 15.104895 11.978640 L 15.944056 11.953210 L 16.783217 11.345455 L 17.622378 11.345455 L 18.461538 11.359441 L 19.300699 11.527273 L 20.139860 9.709091 L 20.979021 12.424921 L 21.818182 11.841322 L 22.657343 13.938970 L 23.496503 11.527273 L 24.335664 11.435728 L 25.174825 10.254545 L 26.013986 10.254545 L 26.853147 11.300445 L 27.692308 9.527273 L 28.531469 9.709091 L 29.370629 9.527273 L 30.209790 8.800000 L 31.048951 10.981818 L 31.888112 10.981818 L 32.727273 11.080992 L 33.566434 10.981818 L 34.405594 13.183725 L 35.244755 12.254545 L 36.083916 12.520280 L 36.923077 18.436364 L 37.762238 18.436364 L 38.601399 14.981818 L 39.440559 14.981818 L 40.279720 15.890909 L 41.118881 12.618182 L 41.958042 14.243102 L 42.797203 12.618182 L 43.636364 13.153719 L 44.475524 16.035855 L 45.314685 18.005340 L 46.153846 18.981818 L 46.993007 16.800000 L 47.832168 16.800000 L 48.671329 16.800000 L 49.510490 16.800000 L 50.349650 16.800000 L 51.188811 12.618182 L 52.027972 14.072727 L 52.867133 14.072727 L 53.706294 14.072727 L 54.545455 14.072727 L 55.384615 16.981818 L 56.223776 16.981818 L 57.062937 19.654418 L 57.902098 23.163636 L 58.741259 19.709091 L 59.580420 24.896631 L 60.419580 19.527273 L 61.258741 19.527273 L 62.097902 19.527273 L 62.937063 23.163636 L 63.776224 23.837508 L 64.615385 22.786014 L 65.454545 19.246281 L 66.293706 21.607374 L 67.132867 23.345455 L 67.972028 23.345455 L 68.811189 22.424921 L 69.650350 22.618182 L 70.489510 25.345455 L 71.328671 25.345455 L 72.167832 25.345455 L 73.006993 25.345455 L 73.846154 26.981818 L 74.685315 25.345455 L 75.524476 25.527273 L 76.363636 25.527273 L 77.202797 26.981818 L 78.041958 25.327654 L 78.881119 22.618182 L 79.720280 22.618182 L 80.559441 19.345455 L 81.398601 19.242467 L 82.237762 19.537444 L 83.076923 19.163636 L 83.916084 19.706548 L 84.755245 19.709091 L 85.594406 19.709091 L 86.433566 19.709091 L 87.272727 19.709091 L 88.111888 19.709091 L 88.951049 19.709091 L 89.790210 20.072727 L 90.629371 19.940496 L 91.468531 20.363636 L 92.307692 20.363636 L 93.146853 20.878576 L 93.986014 21.345455 L 94.825175 21.345455 L 95.664336 23.345455 L 96.503497 23.542530 L 97.342657 23.711634 L 98.181818 24.981818 L 99.020979 22.863318 L 99.860140 20.363636 L 100.699301 20.363636 L 101.538462 20.363636 L 102.377622 20.363636 L 103.216783 22.290909 L 104.055944 22.340750 L 104.895105 23.402670 L 105.734266 21.327273 L 106.573427 27.937953 L 107.412587 20.363636 L 108.251748 26.800000 L 109.090909 20.730579 L 109.930070 22.290909 L 110.769231 20.436364 L 111.608392 23.532359 L 112.447552 25.163636 L 113.286713 28.207502 L 114.125874 32.216402 L 114.965035 30.436364 L 115.804196 29.616275 L 116.643357 28.910617 L 117.482517 34.300318 L 118.321678 35.527273 L 119.160839 36.800000 L 120.000000 32.254545 L 120 40 Z"></path>
    </g>
  </svg>