<svg xmlns="http://www.w3.org/2000/svg" viewBox="0 0 120 40" width="120" height="40">
    <defs>
      <linearGradient id="color_grad" x1="0%" x2="0%" y1="0%" y2="100%">
        <stop offset="0%" style="stop-color:#EA3943;stop-opacity:0.4;"></stop>
        <stop offset="100%" style="stop-color:#EA3943;stop-opacity:0.0;"></stop>
      </linearGradient>
    </defs>
    <g>
      <path stroke="#EA3943" stroke-width="2" stroke-linecap="round" stroke-linejoin="round" fill="none" d="M 0.000000 24.067412 L 0.839161 24.939500 L 1.678322 23.683901 L 2.517483 23.812322 L 3.356643 24.009765 L 4.195804 23.804610 L 5.034965 22.261926 L 5.874126 19.518391 L 6.713287 20.398355 L 7.552448 19.406051 L 8.391608 20.026439 L 9.230769 18.904238 L 10.069930 18.969433 L 10.909091 18.960900 L 11.748252 18.685683 L 12.587413 19.119894 L 13.426573 19.463479 L 14.265734 18.847138 L 15.104895 15.555465 L 15.944056 15.657906 L 16.783217 14.155039 L 17.622378 13.238376 L 18.461538 12.479449 L 19.300699 12.911692 L 20.139860 10.480895 L 20.979021 14.436874 L 21.818182 13.166126 L 22.657343 16.160868 L 23.496503 13.156664 L 24.335664 13.378610 L 25.174825 12.429350 L 26.013986 13.123465 L 26.853147 13.842684 L 27.692308 11.271380 L 28.531469 10.937640 L 29.370629 10.457431 L 30.209790 8.800000 L 31.048951 14.170298 L 31.888112 14.231664 L 32.727273 14.972105 L 33.566434 13.402511 L 34.405594 15.995584 L 35.244755 15.519422 L 36.083916 13.307126 L 36.923077 21.292702 L 37.762238 18.825643 L 38.601399 12.747830 L 39.440559 12.676510 L 40.279720 15.881439 L 41.118881 10.852373 L 41.958042 12.407090 L 42.797203 10.853904 L 43.636364 10.717389 L 44.475524 14.644710 L 45.314685 16.256417 L 46.153846 17.629388 L 46.993007 15.854858 L 47.832168 15.823464 L 48.671329 15.105338 L 49.510490 15.406699 L 50.349650 15.425240 L 51.188811 9.970331 L 52.027972 9.403214 L 52.867133 9.085445 L 53.706294 10.108870 L 54.545455 10.516172 L 55.384615 13.642397 L 56.223776 13.390916 L 57.062937 18.292273 L 57.902098 23.871391 L 58.741259 19.929522 L 59.580420 27.446157 L 60.419580 17.574694 L 61.258741 15.638435 L 62.097902 16.583976 L 62.937063 21.865070 L 63.776224 23.255214 L 64.615385 23.101197 L 65.454545 19.226820 L 66.293706 22.588282 L 67.132867 24.297398 L 67.972028 25.196121 L 68.811189 23.317236 L 69.650350 26.211287 L 70.489510 30.349177 L 71.328671 29.110534 L 72.167832 29.080781 L 73.006993 29.080781 L 73.846154 32.999186 L 74.685315 29.044683 L 75.524476 29.032815 L 76.363636 26.514727 L 77.202797 31.074139 L 78.041958 31.340934 L 78.881119 24.575296 L 79.720280 24.708748 L 80.559441 19.397901 L 81.398601 20.426686 L 82.237762 19.156703 L 83.076923 19.199637 L 83.916084 20.279123 L 84.755245 16.599181 L 85.594406 16.929475 L 86.433566 17.604830 L 87.272727 17.184784 L 88.111888 17.681237 L 88.951049 16.594696 L 89.790210 16.996475 L 90.629371 16.917661 L 91.468531 17.747908 L 92.307692 17.443484 L 93.146853 17.785592 L 93.986014 18.125512 L 94.825175 17.294937 L 95.664336 20.652843 L 96.503497 21.004468 L 97.342657 20.249643 L 98.181818 22.127762 L 99.020979 17.502827 L 99.860140 13.556528 L 100.699301 10.944969 L 101.538462 14.825198 L 102.377622 14.794843 L 103.216783 17.554184 L 104.055944 18.405980 L 104.895105 19.098455 L 105.734266 13.397206 L 106.573427 17.216780 L 107.412587 13.797781 L 108.251748 21.904066 L 109.090909 14.799328 L 109.930070 15.259355 L 110.769231 11.659430 L 111.608392 15.358678 L 112.447552 15.705873 L 113.286713 21.099634 L 114.125874 27.461690 L 114.965035 25.559669 L 115.804196 24.724609 L 116.643357 24.316267 L 117.482517 31.684683 L 118.321678 35.033455 L 119.160839 36.800000 L 120.000000 31.176854"></path>
      <path stroke="none" fill-opacity="0.6" fill="url(#color_grad)" d="M 0 40 L 0.000000 24.067412 L 0.839161 24.939500 L 1.678322 23.683901 L 2.517483 23.812322 L 3.356643 24.009765 L 4.195804 23.804610 L 5.034965 22.261926 L 5.874126 19.518391 L 6.713287 20.398355 L 7.552448 19.406051 L 8.391608 20.026439 L 9.230769 18.904238 L 10.069930 18.969433 L 10.909091 18.960900 L 11.748252 18.685683 L 12.587413 19.119894 L 13.426573 19.463479 L 14.265734 18.847138 L 15.104895 15.555465 L 15.944056 15.657906 L 16.783217 14.155039 L 17.622378 13.238376 L 18.461538 12.479449 L 19.300699 12.911692 L 20.139860 10.480895 L 20.979021 14.436874 L 21.818182 13.166126 L 22.657343 16.160868 L 23.496503 13.156664 L 24.335664 13.378610 L 25.174825 12.429350 L 26.013986 13.123465 L 26.853147 13.842684 L 27.692308 11.271380 L 28.531469 10.937640 L 29.370629 10.457431 L 30.209790 8.800000 L 31.048951 14.170298 L 31.888112 14.231664 L 32.727273 14.972105 L 33.566434 13.402511 L 34.405594 15.995584 L 35.244755 15.519422 L 36.083916 13.307126 L 36.923077 21.292702 L 37.762238 18.825643 L 38.601399 12.747830 L 39.440559 12.676510 L 40.279720 15.881439 L 41.118881 10.852373 L 41.958042 12.407090 L 42.797203 10.853904 L 43.636364 10.717389 L 44.475524 14.644710 L 45.314685 16.256417 L 46.153846 17.629388 L 46.993007 15.854858 L 47.832168 15.823464 L 48.671329 15.105338 L 49.510490 15.406699 L 50.349650 15.425240 L 51.188811 9.970331 L 52.027972 9.403214 L 52.867133 9.085445 L 53.706294 10.108870 L 54.545455 10.516172 L 55.384615 13.642397 L 56.223776 13.390916 L 57.062937 18.292273 L 57.902098 23.871391 L 58.741259 19.929522 L 59.580420 27.446157 L 60.419580 17.574694 L 61.258741 15.638435 L 62.097902 16.583976 L 62.937063 21.865070 L 63.776224 23.255214 L 64.615385 23.101197 L 65.454545 19.226820 L 66.293706 22.588282 L 67.132867 24.297398 L 67.972028 25.196121 L 68.811189 23.317236 L 69.650350 26.211287 L 70.489510 30.349177 L 71.328671 29.110534 L 72.167832 29.080781 L 73.006993 29.080781 L 73.846154 32.999186 L 74.685315 29.044683 L 75.524476 29.032815 L 76.363636 26.514727 L 77.202797 31.074139 L 78.041958 31.340934 L 78.881119 24.575296 L 79.720280 24.708748 L 80.559441 19.397901 L 81.398601 20.426686 L 82.237762 19.156703 L 83.076923 19.199637 L 83.916084 20.279123 L 84.755245 16.599181 L 85.594406 16.929475 L 86.433566 17.604830 L 87.272727 17.184784 L 88.111888 17.681237 L 88.951049 16.594696 L 89.790210 16.996475 L 90.629371 16.917661 L 91.468531 17.747908 L 92.307692 17.443484 L 93.146853 17.785592 L 93.986014 18.125512 L 94.825175 17.294937 L 95.664336 20.652843 L 96.503497 21.004468 L 97.342657 20.249643 L 98.181818 22.127762 L 99.020979 17.502827 L 99.860140 13.556528 L 100.699301 10.944969 L 101.538462 14.825198 L 102.377622 14.794843 L 103.216783 17.554184 L 104.055944 18.405980 L 104.895105 19.098455 L 105.734266 13.397206 L 106.573427 17.216780 L 107.412587 13.797781 L 108.251748 21.904066 L 109.090909 14.799328 L 109.930070 15.259355 L 110.769231 11.659430 L 111.608392 15.358678 L 112.447552 15.705873 L 113.286713 21.099634 L 114.125874 27.461690 L 114.965035 25.559669 L 115.804196 24.724609 L 116.643357 24.316267 L 117.482517 31.684683 L 118.321678 35.033455 L 119.160839 36.800000 L 120.000000 31.176854 L 120 40 Z"></path>
    </g>
  </svg>