<svg xmlns="http://www.w3.org/2000/svg" viewBox="0 0 120 40" width="120" height="40">
    <defs>
      <linearGradient id="color_grad" x1="0%" x2="0%" y1="0%" y2="100%">
        <stop offset="0%" style="stop-color:#EA3943;stop-opacity:0.4;"></stop>
        <stop offset="100%" style="stop-color:#EA3943;stop-opacity:0.0;"></stop>
      </linearGradient>
    </defs>
    <g>
      <path stroke="#EA3943" stroke-width="2" stroke-linecap="round" stroke-linejoin="round" fill="none" d="M 0.000000 13.096032 L 0.839161 14.264178 L 1.678322 13.512883 L 2.517483 11.289678 L 3.356643 10.377899 L 4.195804 11.015506 L 5.034965 11.289678 L 5.874126 11.289678 L 6.713287 11.375694 L 7.552448 11.375694 L 8.391608 11.375694 L 9.230769 11.289678 L 10.069930 11.289678 L 10.909091 11.289678 L 11.748252 11.289678 L 12.587413 11.289678 L 13.426573 11.289678 L 14.265734 11.322159 L 15.104895 11.776305 L 15.944056 11.289678 L 16.783217 12.149846 L 17.622378 13.096032 L 18.461538 11.289678 L 19.300699 12.201457 L 20.139860 12.201457 L 20.979021 12.201457 L 21.818182 13.119491 L 22.657343 13.440100 L 23.496503 14.086730 L 24.335664 8.800000 L 25.174825 12.149846 L 26.013986 9.710696 L 26.853147 10.020477 L 27.692308 11.177194 L 28.531469 13.220546 L 29.370629 11.805779 L 30.209790 11.820817 L 31.048951 13.014226 L 31.888112 13.526117 L 32.727273 13.010015 L 33.566434 13.147161 L 34.405594 14.208838 L 35.244755 13.418445 L 36.083916 13.446115 L 36.923077 13.109266 L 37.762238 13.379346 L 38.601399 13.870184 L 39.440559 13.870184 L 40.279720 14.582380 L 41.118881 14.803738 L 41.958042 14.386285 L 42.797203 14.282825 L 43.636364 14.261170 L 44.475524 13.870184 L 45.314685 14.386285 L 46.153846 14.412752 L 46.993007 13.906035 L 47.832168 14.300269 L 48.671329 14.300269 L 49.510490 14.300269 L 50.349650 14.300269 L 51.188811 14.300269 L 52.027972 13.896049 L 52.867133 13.698150 L 53.706294 13.698150 L 54.545455 15.512325 L 55.384615 14.485536 L 56.223776 15.106301 L 57.062937 15.418488 L 57.902098 15.646463 L 58.741259 17.740944 L 59.580420 17.362590 L 60.419580 17.580941 L 61.258741 17.826961 L 62.097902 17.319882 L 62.937063 17.440787 L 63.776224 17.310860 L 64.615385 13.526117 L 65.454545 13.870184 L 66.293706 13.014226 L 67.132867 13.456341 L 67.972028 13.440100 L 68.811189 13.722211 L 69.650350 14.990689 L 70.489510 15.048315 L 71.328671 16.325575 L 72.167832 16.450691 L 73.006993 16.450691 L 73.846154 12.765198 L 74.685315 13.410625 L 75.524476 14.300269 L 76.363636 14.964944 L 77.202797 16.422419 L 78.041958 19.276015 L 78.881119 17.710267 L 79.720280 19.031197 L 80.559441 19.067890 L 81.398601 17.505149 L 82.237762 19.410754 L 83.076923 17.747561 L 83.916084 17.300032 L 84.755245 17.310860 L 85.594406 17.310860 L 86.433566 17.345747 L 87.272727 17.451614 L 88.111888 17.310860 L 88.951049 17.310860 L 89.790210 17.310860 L 90.629371 17.328905 L 91.468531 17.482893 L 92.307692 17.482893 L 93.146853 17.482893 L 93.986014 17.482893 L 94.825175 19.090747 L 95.664336 20.058588 L 96.503497 20.844770 L 97.342657 21.277862 L 98.181818 23.410239 L 99.020979 22.945266 L 99.860140 26.496621 L 100.699301 25.425320 L 101.538462 30.345726 L 102.377622 28.171243 L 103.216783 32.445019 L 104.055944 34.673639 L 104.895105 34.721760 L 105.734266 31.088599 L 106.573427 31.659438 L 107.412587 33.301579 L 108.251748 33.726250 L 109.090909 34.303104 L 109.930070 32.879916 L 110.769231 31.073561 L 111.608392 32.793899 L 112.447552 32.363814 L 113.286713 32.363814 L 114.125874 31.581241 L 114.965035 35.446587 L 115.804196 34.369271 L 116.643357 34.407768 L 117.482517 36.800000 L 118.321678 35.460422 L 119.160839 35.226432 L 120.000000 33.654068"></path>
      <path stroke="none" fill-opacity="0.6" fill="url(#color_grad)" d="M 0 40 L 0.000000 13.096032 L 0.839161 14.264178 L 1.678322 13.512883 L 2.517483 11.289678 L 3.356643 10.377899 L 4.195804 11.015506 L 5.034965 11.289678 L 5.874126 11.289678 L 6.713287 11.375694 L 7.552448 11.375694 L 8.391608 11.375694 L 9.230769 11.289678 L 10.069930 11.289678 L 10.909091 11.289678 L 11.748252 11.289678 L 12.587413 11.289678 L 13.426573 11.289678 L 14.265734 11.322159 L 15.104895 11.776305 L 15.944056 11.289678 L 16.783217 12.149846 L 17.622378 13.096032 L 18.461538 11.289678 L 19.300699 12.201457 L 20.139860 12.201457 L 20.979021 12.201457 L 21.818182 13.119491 L 22.657343 13.440100 L 23.496503 14.086730 L 24.335664 8.800000 L 25.174825 12.149846 L 26.013986 9.710696 L 26.853147 10.020477 L 27.692308 11.177194 L 28.531469 13.220546 L 29.370629 11.805779 L 30.209790 11.820817 L 31.048951 13.014226 L 31.888112 13.526117 L 32.727273 13.010015 L 33.566434 13.147161 L 34.405594 14.208838 L 35.244755 13.418445 L 36.083916 13.446115 L 36.923077 13.109266 L 37.762238 13.379346 L 38.601399 13.870184 L 39.440559 13.870184 L 40.279720 14.582380 L 41.118881 14.803738 L 41.958042 14.386285 L 42.797203 14.282825 L 43.636364 14.261170 L 44.475524 13.870184 L 45.314685 14.386285 L 46.153846 14.412752 L 46.993007 13.906035 L 47.832168 14.300269 L 48.671329 14.300269 L 49.510490 14.300269 L 50.349650 14.300269 L 51.188811 14.300269 L 52.027972 13.896049 L 52.867133 13.698150 L 53.706294 13.698150 L 54.545455 15.512325 L 55.384615 14.485536 L 56.223776 15.106301 L 57.062937 15.418488 L 57.902098 15.646463 L 58.741259 17.740944 L 59.580420 17.362590 L 60.419580 17.580941 L 61.258741 17.826961 L 62.097902 17.319882 L 62.937063 17.440787 L 63.776224 17.310860 L 64.615385 13.526117 L 65.454545 13.870184 L 66.293706 13.014226 L 67.132867 13.456341 L 67.972028 13.440100 L 68.811189 13.722211 L 69.650350 14.990689 L 70.489510 15.048315 L 71.328671 16.325575 L 72.167832 16.450691 L 73.006993 16.450691 L 73.846154 12.765198 L 74.685315 13.410625 L 75.524476 14.300269 L 76.363636 14.964944 L 77.202797 16.422419 L 78.041958 19.276015 L 78.881119 17.710267 L 79.720280 19.031197 L 80.559441 19.067890 L 81.398601 17.505149 L 82.237762 19.410754 L 83.076923 17.747561 L 83.916084 17.300032 L 84.755245 17.310860 L 85.594406 17.310860 L 86.433566 17.345747 L 87.272727 17.451614 L 88.111888 17.310860 L 88.951049 17.310860 L 89.790210 17.310860 L 90.629371 17.328905 L 91.468531 17.482893 L 92.307692 17.482893 L 93.146853 17.482893 L 93.986014 17.482893 L 94.825175 19.090747 L 95.664336 20.058588 L 96.503497 20.844770 L 97.342657 21.277862 L 98.181818 23.410239 L 99.020979 22.945266 L 99.860140 26.496621 L 100.699301 25.425320 L 101.538462 30.345726 L 102.377622 28.171243 L 103.216783 32.445019 L 104.055944 34.673639 L 104.895105 34.721760 L 105.734266 31.088599 L 106.573427 31.659438 L 107.412587 33.301579 L 108.251748 33.726250 L 109.090909 34.303104 L 109.930070 32.879916 L 110.769231 31.073561 L 111.608392 32.793899 L 112.447552 32.363814 L 113.286713 32.363814 L 114.125874 31.581241 L 114.965035 35.446587 L 115.804196 34.369271 L 116.643357 34.407768 L 117.482517 36.800000 L 118.321678 35.460422 L 119.160839 35.226432 L 120.000000 33.654068 L 120 40 Z"></path>
    </g>
  </svg>