<svg xmlns="http://www.w3.org/2000/svg" viewBox="0 0 120 40" width="120" height="40">
    <defs>
      <linearGradient id="color_grad" x1="0%" x2="0%" y1="0%" y2="100%">
        <stop offset="0%" style="stop-color:#EA3943;stop-opacity:0.4;"></stop>
        <stop offset="100%" style="stop-color:#EA3943;stop-opacity:0.0;"></stop>
      </linearGradient>
    </defs>
    <g>
      <path stroke="#EA3943" stroke-width="2" stroke-linecap="round" stroke-linejoin="round" fill="none" d="M 0.000000 14.992865 L 0.839161 16.042484 L 1.678322 15.804537 L 2.517483 13.179389 L 3.356643 12.672393 L 4.195804 13.397200 L 5.034965 13.305833 L 5.874126 13.571793 L 6.713287 14.540795 L 7.552448 14.260589 L 8.391608 14.394670 L 9.230769 13.497426 L 10.069930 14.248378 L 10.909091 13.599663 L 11.748252 13.877427 L 12.587413 14.152366 L 13.426573 14.332753 L 14.265734 13.785414 L 15.104895 13.641132 L 15.944056 13.108039 L 16.783217 13.770066 L 17.622378 14.379586 L 18.461538 11.500521 L 19.300699 12.818255 L 20.139860 12.907467 L 20.979021 12.994500 L 21.818182 13.891936 L 22.657343 14.330934 L 23.496503 15.439788 L 24.335664 8.800000 L 25.174825 13.638283 L 26.013986 10.959574 L 26.853147 10.841008 L 27.692308 12.282216 L 28.531469 14.538449 L 29.370629 12.551888 L 30.209790 12.145046 L 31.048951 15.244436 L 31.888112 15.940989 L 32.727273 15.687599 L 33.566434 14.900493 L 34.405594 15.941875 L 35.244755 15.476852 L 36.083916 13.765948 L 36.923077 13.029409 L 37.762238 11.621625 L 38.601399 11.529229 L 39.440559 11.479331 L 40.279720 13.733768 L 41.118881 13.810075 L 41.958042 12.724111 L 42.797203 13.117927 L 43.636364 12.474144 L 44.475524 11.783289 L 45.314685 11.600484 L 46.153846 11.597970 L 46.993007 11.900539 L 47.832168 12.414406 L 48.671329 11.907506 L 49.510490 12.119738 L 50.349650 12.133793 L 51.188811 12.546620 L 52.027972 10.180369 L 52.867133 9.696622 L 53.706294 10.398922 L 54.545455 13.132149 L 55.384615 10.955600 L 56.223776 11.631658 L 57.062937 12.736585 L 57.902098 13.362841 L 58.741259 16.946576 L 59.580420 16.437833 L 60.419580 15.300295 L 61.258741 14.309840 L 62.097902 14.265258 L 62.937063 14.367447 L 63.776224 14.468583 L 64.615385 10.340620 L 65.454545 11.732099 L 66.293706 10.537074 L 67.132867 10.518781 L 67.972028 11.169436 L 68.811189 11.147073 L 69.650350 14.753889 L 70.489510 15.007997 L 71.328671 15.786197 L 72.167832 15.931005 L 73.006993 15.931005 L 73.846154 12.225327 L 74.685315 11.846930 L 75.524476 12.830849 L 76.363636 11.838239 L 77.202797 15.620295 L 78.041958 21.318902 L 78.881119 17.203630 L 79.720280 19.067267 L 80.559441 18.727179 L 81.398601 17.436118 L 82.237762 18.842130 L 83.076923 16.999515 L 83.916084 16.601795 L 84.755245 14.074599 L 85.594406 14.305937 L 86.433566 14.814681 L 87.272727 14.673823 L 88.111888 14.820499 L 88.951049 14.072372 L 89.790210 13.976120 L 90.629371 14.137737 L 91.468531 14.434775 L 92.307692 14.229606 L 93.146853 13.934292 L 93.986014 13.685786 L 94.825175 15.329554 L 95.664336 16.925075 L 96.503497 18.046140 L 97.342657 17.959275 L 98.181818 20.907128 L 99.020979 19.298701 L 99.860140 24.169643 L 100.699301 21.037762 L 101.538462 30.312562 L 102.377622 27.270349 L 103.216783 33.135529 L 104.055944 36.681841 L 104.895105 36.235493 L 105.734266 29.659107 L 106.573427 31.057170 L 107.412587 33.850949 L 108.251748 33.475760 L 109.090909 35.495291 L 109.930070 32.942763 L 110.769231 29.423937 L 111.608392 31.243304 L 112.447552 29.349235 L 113.286713 29.738167 L 114.125874 28.695085 L 114.965035 34.769503 L 115.804196 33.488019 L 116.643357 33.947416 L 117.482517 36.800000 L 118.321678 35.797190 L 119.160839 35.352949 L 120.000000 33.961088"></path>
      <path stroke="none" fill-opacity="0.6" fill="url(#color_grad)" d="M 0 40 L 0.000000 14.992865 L 0.839161 16.042484 L 1.678322 15.804537 L 2.517483 13.179389 L 3.356643 12.672393 L 4.195804 13.397200 L 5.034965 13.305833 L 5.874126 13.571793 L 6.713287 14.540795 L 7.552448 14.260589 L 8.391608 14.394670 L 9.230769 13.497426 L 10.069930 14.248378 L 10.909091 13.599663 L 11.748252 13.877427 L 12.587413 14.152366 L 13.426573 14.332753 L 14.265734 13.785414 L 15.104895 13.641132 L 15.944056 13.108039 L 16.783217 13.770066 L 17.622378 14.379586 L 18.461538 11.500521 L 19.300699 12.818255 L 20.139860 12.907467 L 20.979021 12.994500 L 21.818182 13.891936 L 22.657343 14.330934 L 23.496503 15.439788 L 24.335664 8.800000 L 25.174825 13.638283 L 26.013986 10.959574 L 26.853147 10.841008 L 27.692308 12.282216 L 28.531469 14.538449 L 29.370629 12.551888 L 30.209790 12.145046 L 31.048951 15.244436 L 31.888112 15.940989 L 32.727273 15.687599 L 33.566434 14.900493 L 34.405594 15.941875 L 35.244755 15.476852 L 36.083916 13.765948 L 36.923077 13.029409 L 37.762238 11.621625 L 38.601399 11.529229 L 39.440559 11.479331 L 40.279720 13.733768 L 41.118881 13.810075 L 41.958042 12.724111 L 42.797203 13.117927 L 43.636364 12.474144 L 44.475524 11.783289 L 45.314685 11.600484 L 46.153846 11.597970 L 46.993007 11.900539 L 47.832168 12.414406 L 48.671329 11.907506 L 49.510490 12.119738 L 50.349650 12.133793 L 51.188811 12.546620 L 52.027972 10.180369 L 52.867133 9.696622 L 53.706294 10.398922 L 54.545455 13.132149 L 55.384615 10.955600 L 56.223776 11.631658 L 57.062937 12.736585 L 57.902098 13.362841 L 58.741259 16.946576 L 59.580420 16.437833 L 60.419580 15.300295 L 61.258741 14.309840 L 62.097902 14.265258 L 62.937063 14.367447 L 63.776224 14.468583 L 64.615385 10.340620 L 65.454545 11.732099 L 66.293706 10.537074 L 67.132867 10.518781 L 67.972028 11.169436 L 68.811189 11.147073 L 69.650350 14.753889 L 70.489510 15.007997 L 71.328671 15.786197 L 72.167832 15.931005 L 73.006993 15.931005 L 73.846154 12.225327 L 74.685315 11.846930 L 75.524476 12.830849 L 76.363636 11.838239 L 77.202797 15.620295 L 78.041958 21.318902 L 78.881119 17.203630 L 79.720280 19.067267 L 80.559441 18.727179 L 81.398601 17.436118 L 82.237762 18.842130 L 83.076923 16.999515 L 83.916084 16.601795 L 84.755245 14.074599 L 85.594406 14.305937 L 86.433566 14.814681 L 87.272727 14.673823 L 88.111888 14.820499 L 88.951049 14.072372 L 89.790210 13.976120 L 90.629371 14.137737 L 91.468531 14.434775 L 92.307692 14.229606 L 93.146853 13.934292 L 93.986014 13.685786 L 94.825175 15.329554 L 95.664336 16.925075 L 96.503497 18.046140 L 97.342657 17.959275 L 98.181818 20.907128 L 99.020979 19.298701 L 99.860140 24.169643 L 100.699301 21.037762 L 101.538462 30.312562 L 102.377622 27.270349 L 103.216783 33.135529 L 104.055944 36.681841 L 104.895105 36.235493 L 105.734266 29.659107 L 106.573427 31.057170 L 107.412587 33.850949 L 108.251748 33.475760 L 109.090909 35.495291 L 109.930070 32.942763 L 110.769231 29.423937 L 111.608392 31.243304 L 112.447552 29.349235 L 113.286713 29.738167 L 114.125874 28.695085 L 114.965035 34.769503 L 115.804196 33.488019 L 116.643357 33.947416 L 117.482517 36.800000 L 118.321678 35.797190 L 119.160839 35.352949 L 120.000000 33.961088 L 120 40 Z"></path>
    </g>
  </svg>