<svg xmlns="http://www.w3.org/2000/svg" viewBox="0 0 120 40" width="120" height="40">
    <defs>
      <linearGradient id="color_grad" x1="0%" x2="0%" y1="0%" y2="100%">
        <stop offset="0%" style="stop-color:#EA3943;stop-opacity:0.4;"></stop>
        <stop offset="100%" style="stop-color:#EA3943;stop-opacity:0.0;"></stop>
      </linearGradient>
    </defs>
    <g>
      <path stroke="#EA3943" stroke-width="2" stroke-linecap="round" stroke-linejoin="round" fill="none" d="M 0.000000 35.428819 L 0.839161 34.445085 L 1.678322 34.502782 L 2.517483 36.523389 L 3.356643 35.523222 L 4.195804 35.713287 L 5.034965 36.171927 L 5.874126 36.800000 L 6.713287 35.111903 L 7.552448 34.479332 L 8.391608 34.524734 L 9.230769 34.288127 L 10.069930 34.515737 L 10.909091 34.039405 L 11.748252 34.180889 L 12.587413 34.210757 L 13.426573 34.260418 L 14.265734 34.084567 L 15.104895 33.726567 L 15.944056 33.612552 L 16.783217 33.253533 L 17.622378 32.720823 L 18.461538 31.734270 L 19.300699 32.032473 L 20.139860 32.322039 L 20.979021 32.226797 L 21.818182 32.399709 L 22.657343 31.590387 L 23.496503 33.326345 L 24.335664 32.197108 L 25.174825 34.435549 L 26.013986 33.389260 L 26.853147 32.755129 L 27.692308 31.856322 L 28.531469 32.587195 L 29.370629 32.112841 L 30.209790 31.156217 L 31.048951 31.084066 L 31.888112 31.003937 L 32.727273 31.105417 L 33.566434 31.466415 L 34.405594 30.928307 L 35.244755 31.333867 L 36.083916 31.249541 L 36.923077 30.017625 L 37.762238 30.659252 L 38.601399 29.328255 L 39.440559 29.435253 L 40.279720 29.591672 L 41.118881 30.249913 L 41.958042 29.331254 L 42.797203 28.271830 L 43.636364 28.782710 L 44.475524 28.378828 L 45.314685 29.402566 L 46.153846 29.520180 L 46.993007 30.718749 L 47.832168 30.711432 L 48.671329 30.870310 L 49.510490 30.902337 L 50.349650 30.912713 L 51.188811 31.332908 L 52.027972 29.277695 L 52.867133 29.205064 L 53.706294 29.716723 L 54.545455 29.245848 L 55.384615 26.044006 L 56.223776 26.719100 L 57.062937 27.265186 L 57.902098 28.666955 L 58.741259 30.331781 L 59.580420 29.235892 L 60.419580 26.654266 L 61.258741 25.887587 L 62.097902 26.442309 L 62.937063 27.280900 L 63.776224 26.398166 L 64.615385 26.722219 L 65.454545 26.919242 L 66.293706 27.150391 L 67.132867 26.107820 L 67.972028 26.544749 L 68.811189 25.363873 L 69.650350 28.217612 L 70.489510 26.965663 L 71.328671 28.861579 L 72.167832 28.919156 L 73.006993 28.919156 L 73.846154 27.339077 L 74.685315 27.759032 L 75.524476 27.970269 L 76.363636 26.712623 L 77.202797 27.341476 L 78.041958 27.251031 L 78.881119 27.656052 L 79.720280 27.941420 L 80.559441 31.427611 L 81.398601 28.870815 L 82.237762 28.242082 L 83.076923 28.516714 L 83.916084 32.759147 L 84.755245 29.351226 L 85.594406 28.902962 L 86.433566 30.133799 L 87.272727 30.335859 L 88.111888 31.252299 L 88.951049 30.192576 L 89.790210 27.641658 L 90.629371 29.743892 L 91.468531 31.715138 L 92.307692 31.642566 L 93.146853 30.743759 L 93.986014 29.393630 L 94.825175 29.787255 L 95.664336 30.173203 L 96.503497 29.297128 L 97.342657 30.674366 L 98.181818 29.560844 L 99.020979 29.592392 L 99.860140 31.214994 L 100.699301 28.398141 L 101.538462 31.054737 L 102.377622 28.942187 L 103.216783 29.279315 L 104.055944 29.711025 L 104.895105 29.633176 L 105.734266 28.754521 L 106.573427 30.798098 L 107.412587 30.401234 L 108.251748 8.800000 L 109.090909 31.195082 L 109.930070 31.959602 L 110.769231 32.659227 L 111.608392 33.015307 L 112.447552 33.359512 L 113.286713 34.016793 L 114.125874 33.153373 L 114.965035 34.274332 L 115.804196 33.752957 L 116.643357 33.559653 L 117.482517 35.981382 L 118.321678 36.169528 L 119.160839 35.478959 L 120.000000 36.415131"></path>
      <path stroke="none" fill-opacity="0.6" fill="url(#color_grad)" d="M 0 40 L 0.000000 35.428819 L 0.839161 34.445085 L 1.678322 34.502782 L 2.517483 36.523389 L 3.356643 35.523222 L 4.195804 35.713287 L 5.034965 36.171927 L 5.874126 36.800000 L 6.713287 35.111903 L 7.552448 34.479332 L 8.391608 34.524734 L 9.230769 34.288127 L 10.069930 34.515737 L 10.909091 34.039405 L 11.748252 34.180889 L 12.587413 34.210757 L 13.426573 34.260418 L 14.265734 34.084567 L 15.104895 33.726567 L 15.944056 33.612552 L 16.783217 33.253533 L 17.622378 32.720823 L 18.461538 31.734270 L 19.300699 32.032473 L 20.139860 32.322039 L 20.979021 32.226797 L 21.818182 32.399709 L 22.657343 31.590387 L 23.496503 33.326345 L 24.335664 32.197108 L 25.174825 34.435549 L 26.013986 33.389260 L 26.853147 32.755129 L 27.692308 31.856322 L 28.531469 32.587195 L 29.370629 32.112841 L 30.209790 31.156217 L 31.048951 31.084066 L 31.888112 31.003937 L 32.727273 31.105417 L 33.566434 31.466415 L 34.405594 30.928307 L 35.244755 31.333867 L 36.083916 31.249541 L 36.923077 30.017625 L 37.762238 30.659252 L 38.601399 29.328255 L 39.440559 29.435253 L 40.279720 29.591672 L 41.118881 30.249913 L 41.958042 29.331254 L 42.797203 28.271830 L 43.636364 28.782710 L 44.475524 28.378828 L 45.314685 29.402566 L 46.153846 29.520180 L 46.993007 30.718749 L 47.832168 30.711432 L 48.671329 30.870310 L 49.510490 30.902337 L 50.349650 30.912713 L 51.188811 31.332908 L 52.027972 29.277695 L 52.867133 29.205064 L 53.706294 29.716723 L 54.545455 29.245848 L 55.384615 26.044006 L 56.223776 26.719100 L 57.062937 27.265186 L 57.902098 28.666955 L 58.741259 30.331781 L 59.580420 29.235892 L 60.419580 26.654266 L 61.258741 25.887587 L 62.097902 26.442309 L 62.937063 27.280900 L 63.776224 26.398166 L 64.615385 26.722219 L 65.454545 26.919242 L 66.293706 27.150391 L 67.132867 26.107820 L 67.972028 26.544749 L 68.811189 25.363873 L 69.650350 28.217612 L 70.489510 26.965663 L 71.328671 28.861579 L 72.167832 28.919156 L 73.006993 28.919156 L 73.846154 27.339077 L 74.685315 27.759032 L 75.524476 27.970269 L 76.363636 26.712623 L 77.202797 27.341476 L 78.041958 27.251031 L 78.881119 27.656052 L 79.720280 27.941420 L 80.559441 31.427611 L 81.398601 28.870815 L 82.237762 28.242082 L 83.076923 28.516714 L 83.916084 32.759147 L 84.755245 29.351226 L 85.594406 28.902962 L 86.433566 30.133799 L 87.272727 30.335859 L 88.111888 31.252299 L 88.951049 30.192576 L 89.790210 27.641658 L 90.629371 29.743892 L 91.468531 31.715138 L 92.307692 31.642566 L 93.146853 30.743759 L 93.986014 29.393630 L 94.825175 29.787255 L 95.664336 30.173203 L 96.503497 29.297128 L 97.342657 30.674366 L 98.181818 29.560844 L 99.020979 29.592392 L 99.860140 31.214994 L 100.699301 28.398141 L 101.538462 31.054737 L 102.377622 28.942187 L 103.216783 29.279315 L 104.055944 29.711025 L 104.895105 29.633176 L 105.734266 28.754521 L 106.573427 30.798098 L 107.412587 30.401234 L 108.251748 8.800000 L 109.090909 31.195082 L 109.930070 31.959602 L 110.769231 32.659227 L 111.608392 33.015307 L 112.447552 33.359512 L 113.286713 34.016793 L 114.125874 33.153373 L 114.965035 34.274332 L 115.804196 33.752957 L 116.643357 33.559653 L 117.482517 35.981382 L 118.321678 36.169528 L 119.160839 35.478959 L 120.000000 36.415131 L 120 40 Z"></path>
    </g>
  </svg>