<svg xmlns="http://www.w3.org/2000/svg" viewBox="0 0 120 40" width="120" height="40">
    <defs>
      <linearGradient id="color_grad" x1="0%" x2="0%" y1="0%" y2="100%">
        <stop offset="0%" style="stop-color:#EA3943;stop-opacity:0.4;"></stop>
        <stop offset="100%" style="stop-color:#EA3943;stop-opacity:0.0;"></stop>
      </linearGradient>
    </defs>
    <g>
      <path stroke="#EA3943" stroke-width="2" stroke-linecap="round" stroke-linejoin="round" fill="none" d="M 0.000000 32.644393 L 0.839161 31.715391 L 1.678322 31.529157 L 2.517483 33.703326 L 3.356643 32.371539 L 4.195804 32.614076 L 5.034965 33.263728 L 5.874126 33.883063 L 6.713287 31.715391 L 7.552448 31.096056 L 8.391608 31.096056 L 9.230769 31.096056 L 10.069930 31.096056 L 10.909091 30.786388 L 11.748252 30.851353 L 12.587413 30.786388 L 13.426573 30.786388 L 14.265734 30.786388 L 15.104895 30.636968 L 15.944056 30.476721 L 16.783217 30.229853 L 17.622378 29.857386 L 18.461538 28.952204 L 19.300699 29.238051 L 20.139860 29.526063 L 20.979021 29.393968 L 21.818182 29.688476 L 22.657343 28.789791 L 23.496503 30.604486 L 24.335664 29.272699 L 25.174825 31.587626 L 26.013986 30.268832 L 26.853147 29.740449 L 27.692308 28.761640 L 28.531469 29.712297 L 29.370629 29.238051 L 30.209790 28.330704 L 31.048951 27.689714 L 31.888112 27.592266 L 32.727273 27.548956 L 33.566434 28.309049 L 34.405594 27.834803 L 35.244755 28.077340 L 36.083916 28.627378 L 36.923077 27.380046 L 37.762238 28.709667 L 38.601399 27.555452 L 39.440559 27.689714 L 40.279720 27.380046 L 41.118881 28.172622 L 41.958042 27.380046 L 42.797203 26.037432 L 43.636364 26.817015 L 44.475524 26.451044 L 45.314685 27.860789 L 46.153846 27.999381 L 46.993007 28.928384 L 47.832168 28.928384 L 48.671329 29.272699 L 49.510490 29.238051 L 50.349650 29.238051 L 51.188811 29.547718 L 52.027972 27.999381 L 52.867133 27.999381 L 53.706294 28.293890 L 54.545455 27.689714 L 55.384615 24.593039 L 56.223776 25.372622 L 57.062937 25.686620 L 57.902098 27.055220 L 58.741259 28.553751 L 59.580420 27.380046 L 60.419580 25.190719 L 61.258741 24.902707 L 62.097902 25.227533 L 62.937063 26.134880 L 63.776224 25.097602 L 64.615385 25.045630 L 65.454545 24.902707 L 66.293706 25.166899 L 67.132867 24.283372 L 67.972028 24.491261 L 68.811189 23.393349 L 69.650350 25.710441 L 70.489510 24.283372 L 71.328671 26.691415 L 72.167832 26.760712 L 73.006993 26.760712 L 73.846154 24.593039 L 74.685315 25.522042 L 75.524476 25.831709 L 76.363636 25.212374 L 77.202797 25.171230 L 78.041958 24.289869 L 78.881119 25.567517 L 79.720280 25.831709 L 80.559441 29.720959 L 81.398601 26.678422 L 82.237762 26.451044 L 83.076923 26.593968 L 83.916084 31.065739 L 84.755245 28.348028 L 85.594406 27.791493 L 86.433566 28.928384 L 87.272727 29.238051 L 88.111888 30.086930 L 88.951049 29.238051 L 89.790210 26.591802 L 90.629371 28.748647 L 91.468531 30.786388 L 92.307692 30.786388 L 93.146853 29.944006 L 93.986014 28.618716 L 94.825175 29.238051 L 95.664336 29.547718 L 96.503497 28.618716 L 97.342657 30.305646 L 98.181818 29.153596 L 99.020979 29.547718 L 99.860140 31.251972 L 100.699301 28.995514 L 101.538462 30.786388 L 102.377622 28.618716 L 103.216783 28.995514 L 104.055944 29.246713 L 104.895105 29.398299 L 105.734266 29.121114 L 106.573427 30.963960 L 107.412587 30.355452 L 108.251748 8.800000 L 109.090909 31.067904 L 109.930070 32.081361 L 110.769231 33.168445 L 111.608392 33.759629 L 112.447552 34.571694 L 113.286713 35.084919 L 114.125874 34.199227 L 114.965035 35.121732 L 115.804196 34.502398 L 116.643357 34.155916 L 117.482517 36.800000 L 118.321678 36.670070 L 119.160839 36.007425 L 120.000000 36.670070"></path>
      <path stroke="none" fill-opacity="0.6" fill="url(#color_grad)" d="M 0 40 L 0.000000 32.644393 L 0.839161 31.715391 L 1.678322 31.529157 L 2.517483 33.703326 L 3.356643 32.371539 L 4.195804 32.614076 L 5.034965 33.263728 L 5.874126 33.883063 L 6.713287 31.715391 L 7.552448 31.096056 L 8.391608 31.096056 L 9.230769 31.096056 L 10.069930 31.096056 L 10.909091 30.786388 L 11.748252 30.851353 L 12.587413 30.786388 L 13.426573 30.786388 L 14.265734 30.786388 L 15.104895 30.636968 L 15.944056 30.476721 L 16.783217 30.229853 L 17.622378 29.857386 L 18.461538 28.952204 L 19.300699 29.238051 L 20.139860 29.526063 L 20.979021 29.393968 L 21.818182 29.688476 L 22.657343 28.789791 L 23.496503 30.604486 L 24.335664 29.272699 L 25.174825 31.587626 L 26.013986 30.268832 L 26.853147 29.740449 L 27.692308 28.761640 L 28.531469 29.712297 L 29.370629 29.238051 L 30.209790 28.330704 L 31.048951 27.689714 L 31.888112 27.592266 L 32.727273 27.548956 L 33.566434 28.309049 L 34.405594 27.834803 L 35.244755 28.077340 L 36.083916 28.627378 L 36.923077 27.380046 L 37.762238 28.709667 L 38.601399 27.555452 L 39.440559 27.689714 L 40.279720 27.380046 L 41.118881 28.172622 L 41.958042 27.380046 L 42.797203 26.037432 L 43.636364 26.817015 L 44.475524 26.451044 L 45.314685 27.860789 L 46.153846 27.999381 L 46.993007 28.928384 L 47.832168 28.928384 L 48.671329 29.272699 L 49.510490 29.238051 L 50.349650 29.238051 L 51.188811 29.547718 L 52.027972 27.999381 L 52.867133 27.999381 L 53.706294 28.293890 L 54.545455 27.689714 L 55.384615 24.593039 L 56.223776 25.372622 L 57.062937 25.686620 L 57.902098 27.055220 L 58.741259 28.553751 L 59.580420 27.380046 L 60.419580 25.190719 L 61.258741 24.902707 L 62.097902 25.227533 L 62.937063 26.134880 L 63.776224 25.097602 L 64.615385 25.045630 L 65.454545 24.902707 L 66.293706 25.166899 L 67.132867 24.283372 L 67.972028 24.491261 L 68.811189 23.393349 L 69.650350 25.710441 L 70.489510 24.283372 L 71.328671 26.691415 L 72.167832 26.760712 L 73.006993 26.760712 L 73.846154 24.593039 L 74.685315 25.522042 L 75.524476 25.831709 L 76.363636 25.212374 L 77.202797 25.171230 L 78.041958 24.289869 L 78.881119 25.567517 L 79.720280 25.831709 L 80.559441 29.720959 L 81.398601 26.678422 L 82.237762 26.451044 L 83.076923 26.593968 L 83.916084 31.065739 L 84.755245 28.348028 L 85.594406 27.791493 L 86.433566 28.928384 L 87.272727 29.238051 L 88.111888 30.086930 L 88.951049 29.238051 L 89.790210 26.591802 L 90.629371 28.748647 L 91.468531 30.786388 L 92.307692 30.786388 L 93.146853 29.944006 L 93.986014 28.618716 L 94.825175 29.238051 L 95.664336 29.547718 L 96.503497 28.618716 L 97.342657 30.305646 L 98.181818 29.153596 L 99.020979 29.547718 L 99.860140 31.251972 L 100.699301 28.995514 L 101.538462 30.786388 L 102.377622 28.618716 L 103.216783 28.995514 L 104.055944 29.246713 L 104.895105 29.398299 L 105.734266 29.121114 L 106.573427 30.963960 L 107.412587 30.355452 L 108.251748 8.800000 L 109.090909 31.067904 L 109.930070 32.081361 L 110.769231 33.168445 L 111.608392 33.759629 L 112.447552 34.571694 L 113.286713 35.084919 L 114.125874 34.199227 L 114.965035 35.121732 L 115.804196 34.502398 L 116.643357 34.155916 L 117.482517 36.800000 L 118.321678 36.670070 L 119.160839 36.007425 L 120.000000 36.670070 L 120 40 Z"></path>
    </g>
  </svg>