<svg xmlns="http://www.w3.org/2000/svg" viewBox="0 0 120 40" width="120" height="40">
    <defs>
      <linearGradient id="color_grad" x1="0%" x2="0%" y1="0%" y2="100%">
        <stop offset="0%" style="stop-color:#EA3943;stop-opacity:0.4;"></stop>
        <stop offset="100%" style="stop-color:#EA3943;stop-opacity:0.0;"></stop>
      </linearGradient>
    </defs>
    <g>
      <path stroke="#EA3943" stroke-width="2" stroke-linecap="round" stroke-linejoin="round" fill="none" d="M 0.000000 8.800000 L 0.839161 8.800000 L 1.678322 11.009332 L 2.517483 11.212349 L 3.356643 13.393759 L 4.195804 14.456542 L 5.034965 12.044193 L 5.874126 12.458370 L 6.713287 12.876038 L 7.552448 12.876038 L 8.391608 12.876038 L 9.230769 12.876038 L 10.069930 12.876038 L 10.909091 12.876038 L 11.748252 12.876038 L 12.587413 12.876038 L 13.426573 13.022628 L 14.265734 12.959222 L 15.104895 12.959222 L 15.944056 14.490281 L 16.783217 15.288387 L 17.622378 15.288387 L 18.461538 15.109220 L 19.300699 13.482179 L 20.139860 15.371571 L 20.979021 15.288387 L 21.818182 16.120231 L 22.657343 15.288387 L 23.496503 15.225562 L 24.335664 15.288387 L 25.174825 15.208692 L 26.013986 13.934749 L 26.853147 15.925358 L 27.692308 15.832285 L 28.531469 17.783920 L 29.370629 18.615764 L 30.209790 16.286600 L 31.048951 19.622122 L 31.888112 21.220659 L 32.727273 21.943142 L 33.566434 21.976881 L 34.405594 20.305630 L 35.244755 19.863531 L 36.083916 19.780347 L 36.923077 19.780347 L 37.762238 20.191615 L 38.601399 19.780347 L 39.440559 19.780347 L 40.279720 19.871849 L 41.118881 20.246877 L 41.958042 20.779142 L 42.797203 24.438675 L 43.636364 24.665542 L 44.475524 24.521860 L 45.314685 26.185549 L 46.153846 27.337333 L 46.993007 27.849238 L 47.832168 22.593493 L 48.671329 22.608618 L 49.510490 22.691802 L 50.349650 22.576042 L 51.188811 22.525433 L 52.027972 22.525433 L 52.867133 22.359064 L 53.706294 22.359064 L 54.545455 22.359064 L 55.384615 22.551028 L 56.223776 23.190909 L 57.062937 22.129289 L 57.902098 24.521860 L 58.741259 25.768463 L 59.580420 27.763726 L 60.419580 27.932422 L 61.258741 27.849238 L 62.097902 27.849238 L 62.937063 29.095259 L 63.776224 23.364142 L 64.615385 20.778560 L 65.454545 21.081049 L 66.293706 20.279453 L 67.132867 20.295159 L 67.972028 20.362638 L 68.811189 21.111298 L 69.650350 19.936245 L 70.489510 21.943142 L 71.328671 19.752424 L 72.167832 19.780347 L 73.006993 19.780347 L 73.846154 20.599393 L 74.685315 20.362638 L 75.524476 19.530793 L 76.363636 20.718062 L 77.202797 19.808269 L 78.041958 20.110757 L 78.881119 20.423717 L 79.720280 20.778560 L 80.559441 20.778560 L 81.398601 18.016836 L 82.237762 17.900262 L 83.076923 17.201629 L 83.916084 17.119608 L 84.755245 19.447609 L 85.594406 19.447609 L 86.433566 19.447609 L 87.272727 19.447609 L 88.111888 19.447609 L 88.951049 19.447609 L 89.790210 19.447609 L 90.629371 19.447609 L 91.468531 19.447609 L 92.307692 19.447609 L 93.146853 19.447609 L 93.986014 19.447609 L 94.825175 19.863531 L 95.664336 20.672107 L 96.503497 21.360851 L 97.342657 21.211933 L 98.181818 21.149109 L 99.020979 21.314896 L 99.860140 20.962962 L 100.699301 21.111298 L 101.538462 21.188083 L 102.377622 27.352458 L 103.216783 21.228221 L 104.055944 21.560377 L 104.895105 25.828961 L 105.734266 28.597898 L 106.573427 27.785831 L 107.412587 27.774197 L 108.251748 23.781344 L 109.090909 27.781178 L 109.930070 31.715860 L 110.769231 31.605335 L 111.608392 27.849238 L 112.447552 34.436515 L 113.286713 28.798006 L 114.125874 31.874667 L 114.965035 29.872423 L 115.804196 30.594324 L 116.643357 30.677509 L 117.482517 34.422554 L 118.321678 36.167682 L 119.160839 36.800000 L 120.000000 28.514713"></path>
      <path stroke="none" fill-opacity="0.6" fill="url(#color_grad)" d="M 0 40 L 0.000000 8.800000 L 0.839161 8.800000 L 1.678322 11.009332 L 2.517483 11.212349 L 3.356643 13.393759 L 4.195804 14.456542 L 5.034965 12.044193 L 5.874126 12.458370 L 6.713287 12.876038 L 7.552448 12.876038 L 8.391608 12.876038 L 9.230769 12.876038 L 10.069930 12.876038 L 10.909091 12.876038 L 11.748252 12.876038 L 12.587413 12.876038 L 13.426573 13.022628 L 14.265734 12.959222 L 15.104895 12.959222 L 15.944056 14.490281 L 16.783217 15.288387 L 17.622378 15.288387 L 18.461538 15.109220 L 19.300699 13.482179 L 20.139860 15.371571 L 20.979021 15.288387 L 21.818182 16.120231 L 22.657343 15.288387 L 23.496503 15.225562 L 24.335664 15.288387 L 25.174825 15.208692 L 26.013986 13.934749 L 26.853147 15.925358 L 27.692308 15.832285 L 28.531469 17.783920 L 29.370629 18.615764 L 30.209790 16.286600 L 31.048951 19.622122 L 31.888112 21.220659 L 32.727273 21.943142 L 33.566434 21.976881 L 34.405594 20.305630 L 35.244755 19.863531 L 36.083916 19.780347 L 36.923077 19.780347 L 37.762238 20.191615 L 38.601399 19.780347 L 39.440559 19.780347 L 40.279720 19.871849 L 41.118881 20.246877 L 41.958042 20.779142 L 42.797203 24.438675 L 43.636364 24.665542 L 44.475524 24.521860 L 45.314685 26.185549 L 46.153846 27.337333 L 46.993007 27.849238 L 47.832168 22.593493 L 48.671329 22.608618 L 49.510490 22.691802 L 50.349650 22.576042 L 51.188811 22.525433 L 52.027972 22.525433 L 52.867133 22.359064 L 53.706294 22.359064 L 54.545455 22.359064 L 55.384615 22.551028 L 56.223776 23.190909 L 57.062937 22.129289 L 57.902098 24.521860 L 58.741259 25.768463 L 59.580420 27.763726 L 60.419580 27.932422 L 61.258741 27.849238 L 62.097902 27.849238 L 62.937063 29.095259 L 63.776224 23.364142 L 64.615385 20.778560 L 65.454545 21.081049 L 66.293706 20.279453 L 67.132867 20.295159 L 67.972028 20.362638 L 68.811189 21.111298 L 69.650350 19.936245 L 70.489510 21.943142 L 71.328671 19.752424 L 72.167832 19.780347 L 73.006993 19.780347 L 73.846154 20.599393 L 74.685315 20.362638 L 75.524476 19.530793 L 76.363636 20.718062 L 77.202797 19.808269 L 78.041958 20.110757 L 78.881119 20.423717 L 79.720280 20.778560 L 80.559441 20.778560 L 81.398601 18.016836 L 82.237762 17.900262 L 83.076923 17.201629 L 83.916084 17.119608 L 84.755245 19.447609 L 85.594406 19.447609 L 86.433566 19.447609 L 87.272727 19.447609 L 88.111888 19.447609 L 88.951049 19.447609 L 89.790210 19.447609 L 90.629371 19.447609 L 91.468531 19.447609 L 92.307692 19.447609 L 93.146853 19.447609 L 93.986014 19.447609 L 94.825175 19.863531 L 95.664336 20.672107 L 96.503497 21.360851 L 97.342657 21.211933 L 98.181818 21.149109 L 99.020979 21.314896 L 99.860140 20.962962 L 100.699301 21.111298 L 101.538462 21.188083 L 102.377622 27.352458 L 103.216783 21.228221 L 104.055944 21.560377 L 104.895105 25.828961 L 105.734266 28.597898 L 106.573427 27.785831 L 107.412587 27.774197 L 108.251748 23.781344 L 109.090909 27.781178 L 109.930070 31.715860 L 110.769231 31.605335 L 111.608392 27.849238 L 112.447552 34.436515 L 113.286713 28.798006 L 114.125874 31.874667 L 114.965035 29.872423 L 115.804196 30.594324 L 116.643357 30.677509 L 117.482517 34.422554 L 118.321678 36.167682 L 119.160839 36.800000 L 120.000000 28.514713 L 120 40 Z"></path>
    </g>
  </svg>