<svg xmlns="http://www.w3.org/2000/svg" viewBox="0 0 120 40" width="120" height="40">
    <defs>
      <linearGradient id="color_grad" x1="0%" x2="0%" y1="0%" y2="100%">
        <stop offset="0%" style="stop-color:#EA3943;stop-opacity:0.4;"></stop>
        <stop offset="100%" style="stop-color:#EA3943;stop-opacity:0.0;"></stop>
      </linearGradient>
    </defs>
    <g>
      <path stroke="#EA3943" stroke-width="2" stroke-linecap="round" stroke-linejoin="round" fill="none" d="M 0.000000 11.300453 L 0.839161 10.321503 L 1.678322 15.326524 L 2.517483 16.142283 L 3.356643 20.868884 L 4.195804 22.346821 L 5.034965 17.704929 L 5.874126 18.878689 L 6.713287 21.224405 L 7.552448 20.674131 L 8.391608 20.932431 L 9.230769 19.378267 L 10.069930 20.864967 L 10.909091 19.577951 L 11.748252 20.133523 L 12.587413 20.674864 L 13.426573 21.256333 L 14.265734 19.994567 L 15.104895 18.551348 L 15.944056 21.145783 L 16.783217 21.518719 L 17.622378 20.297616 L 18.461538 18.986450 L 19.300699 16.650681 L 20.139860 19.829121 L 20.979021 19.868038 L 21.818182 20.596016 L 22.657343 19.312100 L 23.496503 19.741819 L 24.335664 20.319484 L 25.174825 21.135159 L 26.013986 20.054929 L 26.853147 22.197861 L 27.692308 21.934686 L 28.531469 24.251067 L 29.370629 25.284264 L 30.209790 20.764280 L 31.048951 29.028448 L 31.888112 31.609553 L 32.727273 33.520929 L 33.566434 31.749891 L 34.405594 28.466846 L 35.244755 28.856042 L 36.083916 25.353277 L 36.923077 24.784038 L 37.762238 22.055128 L 38.601399 19.934290 L 39.440559 19.839379 L 40.279720 22.516832 L 41.118881 22.698284 L 41.958042 22.538869 L 42.797203 29.515909 L 43.636364 28.727344 L 44.475524 28.173773 L 45.314685 29.260540 L 46.153846 31.087206 L 46.993007 33.731040 L 47.832168 25.127047 L 48.671329 24.190282 L 49.510490 24.723648 L 50.349650 24.563528 L 51.188811 25.268286 L 52.027972 21.803254 L 52.867133 21.115771 L 53.706294 22.453004 L 54.545455 22.982368 L 55.384615 21.791474 L 56.223776 22.529879 L 57.062937 22.089790 L 57.902098 26.643167 L 58.741259 30.147764 L 59.580420 33.401079 L 60.419580 30.949687 L 61.258741 28.282745 L 62.097902 29.522249 L 62.937063 31.476092 L 63.776224 22.487693 L 64.615385 20.182359 L 65.454545 22.453736 L 66.293706 21.062088 L 67.132867 19.915296 L 67.972028 21.314187 L 68.811189 21.765549 L 69.650350 23.561498 L 70.489510 27.137588 L 71.328671 21.795730 L 72.167832 21.797984 L 73.006993 21.797984 L 73.846154 25.428180 L 74.685315 22.688872 L 75.524476 20.940856 L 76.363636 19.205748 L 77.202797 21.301506 L 78.041958 25.666049 L 78.881119 22.019790 L 79.720280 22.793335 L 80.559441 21.997753 L 81.398601 19.136143 L 82.237762 16.572538 L 83.076923 16.244662 L 83.916084 16.526125 L 84.755245 15.187821 L 85.594406 15.656345 L 86.433566 16.590263 L 87.272727 16.008681 L 88.111888 16.697658 L 88.951049 15.181847 L 89.790210 14.992561 L 90.629371 15.263880 L 91.468531 15.434989 L 92.307692 15.019304 L 93.146853 14.423491 L 93.986014 13.927238 L 94.825175 13.447584 L 95.664336 15.339290 L 96.503497 16.570396 L 97.342657 14.889393 L 98.181818 14.749197 L 99.020979 12.981315 L 99.860140 12.148873 L 100.699301 8.800000 L 101.538462 14.291467 L 102.377622 24.695186 L 103.216783 14.122414 L 104.055944 15.785494 L 104.895105 21.754587 L 105.734266 23.043209 L 106.573427 22.987215 L 107.412587 24.099542 L 108.251748 14.947501 L 109.090909 24.696116 L 109.930070 30.090699 L 110.769231 27.749943 L 111.608392 19.826050 L 112.447552 28.447684 L 113.286713 19.427864 L 114.125874 25.004604 L 114.965035 22.725083 L 115.804196 24.584212 L 116.643357 25.669205 L 117.482517 30.866386 L 118.321678 35.968601 L 119.160839 36.800000 L 120.000000 24.469716"></path>
      <path stroke="none" fill-opacity="0.6" fill="url(#color_grad)" d="M 0 40 L 0.000000 11.300453 L 0.839161 10.321503 L 1.678322 15.326524 L 2.517483 16.142283 L 3.356643 20.868884 L 4.195804 22.346821 L 5.034965 17.704929 L 5.874126 18.878689 L 6.713287 21.224405 L 7.552448 20.674131 L 8.391608 20.932431 L 9.230769 19.378267 L 10.069930 20.864967 L 10.909091 19.577951 L 11.748252 20.133523 L 12.587413 20.674864 L 13.426573 21.256333 L 14.265734 19.994567 L 15.104895 18.551348 L 15.944056 21.145783 L 16.783217 21.518719 L 17.622378 20.297616 L 18.461538 18.986450 L 19.300699 16.650681 L 20.139860 19.829121 L 20.979021 19.868038 L 21.818182 20.596016 L 22.657343 19.312100 L 23.496503 19.741819 L 24.335664 20.319484 L 25.174825 21.135159 L 26.013986 20.054929 L 26.853147 22.197861 L 27.692308 21.934686 L 28.531469 24.251067 L 29.370629 25.284264 L 30.209790 20.764280 L 31.048951 29.028448 L 31.888112 31.609553 L 32.727273 33.520929 L 33.566434 31.749891 L 34.405594 28.466846 L 35.244755 28.856042 L 36.083916 25.353277 L 36.923077 24.784038 L 37.762238 22.055128 L 38.601399 19.934290 L 39.440559 19.839379 L 40.279720 22.516832 L 41.118881 22.698284 L 41.958042 22.538869 L 42.797203 29.515909 L 43.636364 28.727344 L 44.475524 28.173773 L 45.314685 29.260540 L 46.153846 31.087206 L 46.993007 33.731040 L 47.832168 25.127047 L 48.671329 24.190282 L 49.510490 24.723648 L 50.349650 24.563528 L 51.188811 25.268286 L 52.027972 21.803254 L 52.867133 21.115771 L 53.706294 22.453004 L 54.545455 22.982368 L 55.384615 21.791474 L 56.223776 22.529879 L 57.062937 22.089790 L 57.902098 26.643167 L 58.741259 30.147764 L 59.580420 33.401079 L 60.419580 30.949687 L 61.258741 28.282745 L 62.097902 29.522249 L 62.937063 31.476092 L 63.776224 22.487693 L 64.615385 20.182359 L 65.454545 22.453736 L 66.293706 21.062088 L 67.132867 19.915296 L 67.972028 21.314187 L 68.811189 21.765549 L 69.650350 23.561498 L 70.489510 27.137588 L 71.328671 21.795730 L 72.167832 21.797984 L 73.006993 21.797984 L 73.846154 25.428180 L 74.685315 22.688872 L 75.524476 20.940856 L 76.363636 19.205748 L 77.202797 21.301506 L 78.041958 25.666049 L 78.881119 22.019790 L 79.720280 22.793335 L 80.559441 21.997753 L 81.398601 19.136143 L 82.237762 16.572538 L 83.076923 16.244662 L 83.916084 16.526125 L 84.755245 15.187821 L 85.594406 15.656345 L 86.433566 16.590263 L 87.272727 16.008681 L 88.111888 16.697658 L 88.951049 15.181847 L 89.790210 14.992561 L 90.629371 15.263880 L 91.468531 15.434989 L 92.307692 15.019304 L 93.146853 14.423491 L 93.986014 13.927238 L 94.825175 13.447584 L 95.664336 15.339290 L 96.503497 16.570396 L 97.342657 14.889393 L 98.181818 14.749197 L 99.020979 12.981315 L 99.860140 12.148873 L 100.699301 8.800000 L 101.538462 14.291467 L 102.377622 24.695186 L 103.216783 14.122414 L 104.055944 15.785494 L 104.895105 21.754587 L 105.734266 23.043209 L 106.573427 22.987215 L 107.412587 24.099542 L 108.251748 14.947501 L 109.090909 24.696116 L 109.930070 30.090699 L 110.769231 27.749943 L 111.608392 19.826050 L 112.447552 28.447684 L 113.286713 19.427864 L 114.125874 25.004604 L 114.965035 22.725083 L 115.804196 24.584212 L 116.643357 25.669205 L 117.482517 30.866386 L 118.321678 35.968601 L 119.160839 36.800000 L 120.000000 24.469716 L 120 40 Z"></path>
    </g>
  </svg>