<svg xmlns="http://www.w3.org/2000/svg" viewBox="0 0 120 40" width="120" height="40">
    <defs>
      <linearGradient id="color_grad" x1="0%" x2="0%" y1="0%" y2="100%">
        <stop offset="0%" style="stop-color:#EA3943;stop-opacity:0.4;"></stop>
        <stop offset="100%" style="stop-color:#EA3943;stop-opacity:0.0;"></stop>
      </linearGradient>
    </defs>
    <g>
      <path stroke="#EA3943" stroke-width="2" stroke-linecap="round" stroke-linejoin="round" fill="none" d="M 0.000000 13.612500 L 0.839161 13.612500 L 1.678322 12.741875 L 2.517483 14.925000 L 3.356643 14.925000 L 4.195804 14.925000 L 5.034965 14.925000 L 5.874126 13.640035 L 6.713287 13.612500 L 7.552448 13.612500 L 8.391608 13.614244 L 9.230769 13.616875 L 10.069930 13.616875 L 10.909091 13.616875 L 11.748252 13.616875 L 12.587413 13.616875 L 13.426573 13.616875 L 14.265734 13.616875 L 15.104895 13.616875 L 15.944056 13.616875 L 16.783217 13.616875 L 17.622378 13.616875 L 18.461538 13.616875 L 19.300699 13.616875 L 20.139860 13.616875 L 20.979021 13.612500 L 21.818182 14.050000 L 22.657343 14.050000 L 23.496503 14.050000 L 24.335664 14.925000 L 25.174825 14.925000 L 26.013986 14.925000 L 26.853147 14.925000 L 27.692308 14.925000 L 28.531469 14.925000 L 29.370629 14.925000 L 30.209790 13.612500 L 31.048951 12.737500 L 31.888112 12.737500 L 32.727273 8.800000 L 33.566434 8.800000 L 34.405594 8.800000 L 35.244755 8.800000 L 36.083916 8.800000 L 36.923077 9.405769 L 37.762238 11.581031 L 38.601399 9.179371 L 39.440559 9.692500 L 40.279720 9.692500 L 41.118881 9.692500 L 41.958042 9.692500 L 42.797203 12.737500 L 43.636364 10.116875 L 44.475524 10.375000 L 45.314685 10.375000 L 46.153846 10.375000 L 46.993007 10.375000 L 47.832168 10.375000 L 48.671329 10.375000 L 49.510490 10.375000 L 50.349650 10.375000 L 51.188811 10.375000 L 52.027972 10.375000 L 52.867133 10.375000 L 53.706294 10.375000 L 54.545455 10.987500 L 55.384615 17.112500 L 56.223776 17.112500 L 57.062937 10.703584 L 57.902098 10.725000 L 58.741259 10.725000 L 59.580420 10.725000 L 60.419580 10.725000 L 61.258741 10.768750 L 62.097902 10.768750 L 62.937063 10.768750 L 63.776224 10.812500 L 64.615385 10.812500 L 65.454545 10.812500 L 66.293706 10.812500 L 67.132867 10.991875 L 67.972028 10.991875 L 68.811189 10.996250 L 69.650350 11.017544 L 70.489510 11.500568 L 71.328671 11.846805 L 72.167832 11.866875 L 73.006993 11.866875 L 73.846154 13.612500 L 74.685315 19.300000 L 75.524476 14.050000 L 76.363636 14.959205 L 77.202797 13.086276 L 78.041958 16.258916 L 78.881119 18.657517 L 79.720280 14.925000 L 80.559441 14.929375 L 81.398601 14.929375 L 82.237762 14.929375 L 83.076923 15.295865 L 83.916084 15.800000 L 84.755245 15.800000 L 85.594406 15.800000 L 86.433566 15.800000 L 87.272727 15.800000 L 88.111888 15.800000 L 88.951049 15.800000 L 89.790210 15.800000 L 90.629371 15.804375 L 91.468531 15.804375 L 92.307692 15.804375 L 93.146853 15.804375 L 93.986014 15.804375 L 94.825175 16.856364 L 95.664336 17.112500 L 96.503497 17.112500 L 97.342657 17.112500 L 98.181818 17.112500 L 99.020979 17.112500 L 99.860140 18.519843 L 100.699301 19.300000 L 101.538462 19.312452 L 102.377622 11.118670 L 103.216783 23.675000 L 104.055944 35.362063 L 104.895105 36.800000 L 105.734266 31.354196 L 106.573427 28.050000 L 107.412587 25.866875 L 108.251748 25.906250 L 109.090909 25.866875 L 109.930070 22.366875 L 110.769231 22.366875 L 111.608392 22.366875 L 112.447552 22.375625 L 113.286713 11.842510 L 114.125874 22.375625 L 114.965035 22.375625 L 115.804196 22.375625 L 116.643357 22.375625 L 117.482517 22.366875 L 118.321678 22.366875 L 119.160839 22.366875 L 120.000000 22.366875"></path>
      <path stroke="none" fill-opacity="0.6" fill="url(#color_grad)" d="M 0 40 L 0.000000 13.612500 L 0.839161 13.612500 L 1.678322 12.741875 L 2.517483 14.925000 L 3.356643 14.925000 L 4.195804 14.925000 L 5.034965 14.925000 L 5.874126 13.640035 L 6.713287 13.612500 L 7.552448 13.612500 L 8.391608 13.614244 L 9.230769 13.616875 L 10.069930 13.616875 L 10.909091 13.616875 L 11.748252 13.616875 L 12.587413 13.616875 L 13.426573 13.616875 L 14.265734 13.616875 L 15.104895 13.616875 L 15.944056 13.616875 L 16.783217 13.616875 L 17.622378 13.616875 L 18.461538 13.616875 L 19.300699 13.616875 L 20.139860 13.616875 L 20.979021 13.612500 L 21.818182 14.050000 L 22.657343 14.050000 L 23.496503 14.050000 L 24.335664 14.925000 L 25.174825 14.925000 L 26.013986 14.925000 L 26.853147 14.925000 L 27.692308 14.925000 L 28.531469 14.925000 L 29.370629 14.925000 L 30.209790 13.612500 L 31.048951 12.737500 L 31.888112 12.737500 L 32.727273 8.800000 L 33.566434 8.800000 L 34.405594 8.800000 L 35.244755 8.800000 L 36.083916 8.800000 L 36.923077 9.405769 L 37.762238 11.581031 L 38.601399 9.179371 L 39.440559 9.692500 L 40.279720 9.692500 L 41.118881 9.692500 L 41.958042 9.692500 L 42.797203 12.737500 L 43.636364 10.116875 L 44.475524 10.375000 L 45.314685 10.375000 L 46.153846 10.375000 L 46.993007 10.375000 L 47.832168 10.375000 L 48.671329 10.375000 L 49.510490 10.375000 L 50.349650 10.375000 L 51.188811 10.375000 L 52.027972 10.375000 L 52.867133 10.375000 L 53.706294 10.375000 L 54.545455 10.987500 L 55.384615 17.112500 L 56.223776 17.112500 L 57.062937 10.703584 L 57.902098 10.725000 L 58.741259 10.725000 L 59.580420 10.725000 L 60.419580 10.725000 L 61.258741 10.768750 L 62.097902 10.768750 L 62.937063 10.768750 L 63.776224 10.812500 L 64.615385 10.812500 L 65.454545 10.812500 L 66.293706 10.812500 L 67.132867 10.991875 L 67.972028 10.991875 L 68.811189 10.996250 L 69.650350 11.017544 L 70.489510 11.500568 L 71.328671 11.846805 L 72.167832 11.866875 L 73.006993 11.866875 L 73.846154 13.612500 L 74.685315 19.300000 L 75.524476 14.050000 L 76.363636 14.959205 L 77.202797 13.086276 L 78.041958 16.258916 L 78.881119 18.657517 L 79.720280 14.925000 L 80.559441 14.929375 L 81.398601 14.929375 L 82.237762 14.929375 L 83.076923 15.295865 L 83.916084 15.800000 L 84.755245 15.800000 L 85.594406 15.800000 L 86.433566 15.800000 L 87.272727 15.800000 L 88.111888 15.800000 L 88.951049 15.800000 L 89.790210 15.800000 L 90.629371 15.804375 L 91.468531 15.804375 L 92.307692 15.804375 L 93.146853 15.804375 L 93.986014 15.804375 L 94.825175 16.856364 L 95.664336 17.112500 L 96.503497 17.112500 L 97.342657 17.112500 L 98.181818 17.112500 L 99.020979 17.112500 L 99.860140 18.519843 L 100.699301 19.300000 L 101.538462 19.312452 L 102.377622 11.118670 L 103.216783 23.675000 L 104.055944 35.362063 L 104.895105 36.800000 L 105.734266 31.354196 L 106.573427 28.050000 L 107.412587 25.866875 L 108.251748 25.906250 L 109.090909 25.866875 L 109.930070 22.366875 L 110.769231 22.366875 L 111.608392 22.366875 L 112.447552 22.375625 L 113.286713 11.842510 L 114.125874 22.375625 L 114.965035 22.375625 L 115.804196 22.375625 L 116.643357 22.375625 L 117.482517 22.366875 L 118.321678 22.366875 L 119.160839 22.366875 L 120.000000 22.366875 L 120 40 Z"></path>
    </g>
  </svg>