<svg xmlns="http://www.w3.org/2000/svg" viewBox="0 0 120 40" width="120" height="40">
    <defs>
      <linearGradient id="color_grad" x1="0%" x2="0%" y1="0%" y2="100%">
        <stop offset="0%" style="stop-color:#16C784;stop-opacity:0.4;"></stop>
        <stop offset="100%" style="stop-color:#16C784;stop-opacity:0.0;"></stop>
      </linearGradient>
    </defs>
    <g>
      <path stroke="#16C784" stroke-width="2" stroke-linecap="round" stroke-linejoin="round" fill="none" d="M 0.000000 33.607959 L 0.839161 32.763938 L 1.678322 33.426179 L 2.517483 35.528594 L 3.356643 36.686567 L 4.195804 36.529682 L 5.034965 35.756232 L 5.874126 35.240439 L 6.713287 36.726449 L 7.552448 36.237058 L 8.391608 36.470937 L 9.230769 35.088930 L 10.069930 36.410784 L 10.909091 35.266625 L 11.748252 35.757624 L 12.587413 36.242850 L 13.426573 36.556624 L 14.265734 35.520961 L 15.104895 34.236961 L 15.944056 34.409416 L 16.783217 33.611703 L 17.622378 32.507660 L 18.461538 31.577439 L 19.300699 31.804177 L 20.139860 31.963923 L 20.979021 32.115984 L 21.818182 31.915085 L 22.657343 31.950617 L 23.496503 32.430506 L 24.335664 33.535114 L 25.174825 34.382652 L 26.013986 35.210969 L 26.853147 34.319153 L 27.692308 34.217940 L 28.531469 33.517449 L 29.370629 33.255178 L 30.209790 31.488011 L 31.048951 33.578947 L 31.888112 33.642655 L 32.727273 31.383132 L 33.566434 29.624142 L 34.405594 29.007370 L 35.244755 30.040051 L 36.083916 26.837288 L 36.923077 26.771542 L 37.762238 25.269005 L 38.601399 21.993938 L 39.440559 22.313273 L 40.279720 24.711647 L 41.118881 24.307800 L 41.958042 23.326541 L 42.797203 26.722834 L 43.636364 23.518990 L 44.475524 23.415775 L 45.314685 21.804719 L 46.153846 21.736941 L 46.993007 23.538362 L 47.832168 23.511111 L 48.671329 22.586131 L 49.510490 22.969873 L 50.349650 22.999095 L 51.188811 23.757779 L 52.027972 20.418872 L 52.867133 20.022881 L 53.706294 21.308458 L 54.545455 22.310463 L 55.384615 25.801102 L 56.223776 25.496229 L 57.062937 21.585573 L 57.902098 22.197511 L 58.741259 23.633285 L 59.580420 23.629754 L 60.419580 20.899191 L 61.258741 18.401194 L 62.097902 19.643003 L 62.937063 19.522422 L 63.776224 20.088004 L 64.615385 21.978301 L 65.454545 23.665684 L 66.293706 23.587231 L 67.132867 22.621194 L 67.972028 23.840918 L 68.811189 23.110902 L 69.650350 26.637930 L 70.489510 27.342096 L 71.328671 25.911555 L 72.167832 25.886993 L 73.006993 25.886993 L 73.846154 29.425302 L 74.685315 31.710290 L 75.524476 27.189158 L 76.363636 24.484617 L 77.202797 26.347535 L 78.041958 32.441656 L 78.881119 30.499217 L 79.720280 27.721588 L 80.559441 26.978260 L 81.398601 28.490850 L 82.237762 26.314139 L 83.076923 27.354166 L 83.916084 28.130109 L 84.755245 23.390060 L 85.594406 23.821480 L 86.433566 24.683002 L 87.272727 24.147892 L 88.111888 24.784495 L 88.951049 23.384957 L 89.790210 23.205645 L 90.629371 23.462298 L 91.468531 23.622441 L 92.307692 23.238632 L 93.146853 22.688663 L 93.986014 22.227348 L 94.825175 22.001875 L 95.664336 22.701798 L 96.503497 22.772550 L 97.342657 21.439879 L 98.181818 21.405926 L 99.020979 19.503823 L 99.860140 20.456600 L 100.699301 17.779143 L 101.538462 22.737828 L 102.377622 15.946564 L 103.216783 26.120016 L 104.055944 36.722462 L 104.895105 36.800000 L 105.734266 29.130659 L 106.573427 27.622772 L 107.412587 26.871978 L 108.251748 24.750931 L 109.090909 27.422271 L 109.930070 23.260842 L 110.769231 21.129278 L 111.608392 19.751509 L 112.447552 16.919151 L 113.286713 8.800000 L 114.125874 17.969539 L 114.965035 19.159748 L 115.804196 19.751488 L 116.643357 20.670118 L 117.482517 19.375731 L 118.321678 21.484453 L 119.160839 21.221191 L 120.000000 23.108164"></path>
      <path stroke="none" fill-opacity="0.6" fill="url(#color_grad)" d="M 0 40 L 0.000000 33.607959 L 0.839161 32.763938 L 1.678322 33.426179 L 2.517483 35.528594 L 3.356643 36.686567 L 4.195804 36.529682 L 5.034965 35.756232 L 5.874126 35.240439 L 6.713287 36.726449 L 7.552448 36.237058 L 8.391608 36.470937 L 9.230769 35.088930 L 10.069930 36.410784 L 10.909091 35.266625 L 11.748252 35.757624 L 12.587413 36.242850 L 13.426573 36.556624 L 14.265734 35.520961 L 15.104895 34.236961 L 15.944056 34.409416 L 16.783217 33.611703 L 17.622378 32.507660 L 18.461538 31.577439 L 19.300699 31.804177 L 20.139860 31.963923 L 20.979021 32.115984 L 21.818182 31.915085 L 22.657343 31.950617 L 23.496503 32.430506 L 24.335664 33.535114 L 25.174825 34.382652 L 26.013986 35.210969 L 26.853147 34.319153 L 27.692308 34.217940 L 28.531469 33.517449 L 29.370629 33.255178 L 30.209790 31.488011 L 31.048951 33.578947 L 31.888112 33.642655 L 32.727273 31.383132 L 33.566434 29.624142 L 34.405594 29.007370 L 35.244755 30.040051 L 36.083916 26.837288 L 36.923077 26.771542 L 37.762238 25.269005 L 38.601399 21.993938 L 39.440559 22.313273 L 40.279720 24.711647 L 41.118881 24.307800 L 41.958042 23.326541 L 42.797203 26.722834 L 43.636364 23.518990 L 44.475524 23.415775 L 45.314685 21.804719 L 46.153846 21.736941 L 46.993007 23.538362 L 47.832168 23.511111 L 48.671329 22.586131 L 49.510490 22.969873 L 50.349650 22.999095 L 51.188811 23.757779 L 52.027972 20.418872 L 52.867133 20.022881 L 53.706294 21.308458 L 54.545455 22.310463 L 55.384615 25.801102 L 56.223776 25.496229 L 57.062937 21.585573 L 57.902098 22.197511 L 58.741259 23.633285 L 59.580420 23.629754 L 60.419580 20.899191 L 61.258741 18.401194 L 62.097902 19.643003 L 62.937063 19.522422 L 63.776224 20.088004 L 64.615385 21.978301 L 65.454545 23.665684 L 66.293706 23.587231 L 67.132867 22.621194 L 67.972028 23.840918 L 68.811189 23.110902 L 69.650350 26.637930 L 70.489510 27.342096 L 71.328671 25.911555 L 72.167832 25.886993 L 73.006993 25.886993 L 73.846154 29.425302 L 74.685315 31.710290 L 75.524476 27.189158 L 76.363636 24.484617 L 77.202797 26.347535 L 78.041958 32.441656 L 78.881119 30.499217 L 79.720280 27.721588 L 80.559441 26.978260 L 81.398601 28.490850 L 82.237762 26.314139 L 83.076923 27.354166 L 83.916084 28.130109 L 84.755245 23.390060 L 85.594406 23.821480 L 86.433566 24.683002 L 87.272727 24.147892 L 88.111888 24.784495 L 88.951049 23.384957 L 89.790210 23.205645 L 90.629371 23.462298 L 91.468531 23.622441 L 92.307692 23.238632 L 93.146853 22.688663 L 93.986014 22.227348 L 94.825175 22.001875 L 95.664336 22.701798 L 96.503497 22.772550 L 97.342657 21.439879 L 98.181818 21.405926 L 99.020979 19.503823 L 99.860140 20.456600 L 100.699301 17.779143 L 101.538462 22.737828 L 102.377622 15.946564 L 103.216783 26.120016 L 104.055944 36.722462 L 104.895105 36.800000 L 105.734266 29.130659 L 106.573427 27.622772 L 107.412587 26.871978 L 108.251748 24.750931 L 109.090909 27.422271 L 109.930070 23.260842 L 110.769231 21.129278 L 111.608392 19.751509 L 112.447552 16.919151 L 113.286713 8.800000 L 114.125874 17.969539 L 114.965035 19.159748 L 115.804196 19.751488 L 116.643357 20.670118 L 117.482517 19.375731 L 118.321678 21.484453 L 119.160839 21.221191 L 120.000000 23.108164 L 120 40 Z"></path>
    </g>
  </svg>