<svg xmlns="http://www.w3.org/2000/svg" viewBox="0 0 120 40" width="120" height="40">
    <defs>
      <linearGradient id="color_grad" x1="0%" x2="0%" y1="0%" y2="100%">
        <stop offset="0%" style="stop-color:#EA3943;stop-opacity:0.4;"></stop>
        <stop offset="100%" style="stop-color:#EA3943;stop-opacity:0.0;"></stop>
      </linearGradient>
    </defs>
    <g>
      <path stroke="#EA3943" stroke-width="2" stroke-linecap="round" stroke-linejoin="round" fill="none" d="M 0.000000 19.202252 L 0.839161 19.202252 L 1.678322 19.202252 L 2.517483 19.202252 L 3.356643 14.867980 L 4.195804 14.867980 L 5.034965 19.202252 L 5.874126 19.202252 L 6.713287 19.202252 L 7.552448 19.202252 L 8.391608 19.202252 L 9.230769 19.202252 L 10.069930 19.202252 L 10.909091 15.656029 L 11.748252 14.867980 L 12.587413 10.533709 L 13.426573 10.533709 L 14.265734 10.861052 L 15.104895 11.400563 L 15.944056 11.103529 L 16.783217 16.428318 L 17.622378 16.428318 L 18.461538 16.428318 L 19.300699 16.428318 L 20.139860 11.400563 L 20.979021 11.400563 L 21.818182 11.400563 L 22.657343 15.109244 L 23.496503 18.969474 L 24.335664 19.202252 L 25.174825 19.202252 L 26.013986 19.202252 L 26.853147 23.536523 L 27.692308 20.935960 L 28.531469 17.107253 L 29.370629 15.734834 L 30.209790 16.631998 L 31.048951 19.917558 L 31.888112 19.796320 L 32.727273 19.202252 L 33.566434 19.202252 L 34.405594 14.867980 L 35.244755 20.069106 L 36.083916 22.657545 L 36.923077 21.802814 L 37.762238 19.202252 L 38.601399 15.734834 L 39.440559 19.699329 L 40.279720 17.472180 L 41.118881 16.428318 L 41.958042 16.428318 L 42.797203 16.670188 L 43.636364 18.248712 L 44.475524 18.248712 L 45.314685 18.248712 L 46.153846 18.248712 L 46.993007 19.042217 L 47.832168 18.275384 L 48.671329 18.248712 L 49.510490 18.248712 L 50.349650 18.248712 L 51.188811 18.248712 L 52.027972 18.248712 L 52.867133 18.248712 L 53.706294 18.248712 L 54.545455 18.248712 L 55.384615 18.248712 L 56.223776 17.468543 L 57.062937 17.468543 L 57.902098 17.468543 L 58.741259 17.468543 L 59.580420 19.141632 L 60.419580 18.335397 L 61.258741 18.335397 L 62.097902 17.468543 L 62.937063 18.353583 L 63.776224 20.069106 L 64.615385 20.069106 L 65.454545 16.680494 L 66.293706 11.400563 L 67.132867 11.400563 L 67.972028 11.673349 L 68.811189 14.001126 L 69.650350 14.001126 L 70.489510 18.111106 L 71.328671 14.346049 L 72.167832 14.607924 L 73.006993 14.607924 L 73.846154 8.800000 L 74.685315 8.800000 L 75.524476 9.666854 L 76.363636 9.666854 L 77.202797 11.339944 L 78.041958 11.435722 L 78.881119 11.400563 L 79.720280 11.400563 L 80.559441 14.867980 L 81.398601 15.474172 L 82.237762 16.856289 L 83.076923 16.601689 L 83.916084 16.601689 L 84.755245 15.734834 L 85.594406 14.867980 L 86.433566 14.867980 L 87.272727 14.867980 L 88.111888 14.867980 L 88.951049 14.867980 L 89.790210 14.867980 L 90.629371 20.069106 L 91.468531 20.069106 L 92.307692 20.069106 L 93.146853 20.069106 L 93.986014 20.069106 L 94.825175 20.069106 L 95.664336 20.069106 L 96.503497 26.925135 L 97.342657 16.601689 L 98.181818 16.601689 L 99.020979 17.892877 L 99.860140 19.759948 L 100.699301 20.141849 L 101.538462 19.202252 L 102.377622 23.536523 L 103.216783 26.300758 L 104.055944 24.403377 L 104.895105 23.985105 L 105.734266 23.536523 L 106.573427 26.137086 L 107.412587 27.701061 L 108.251748 29.604503 L 109.090909 32.205066 L 109.930070 32.205066 L 110.769231 32.205066 L 111.608392 33.769041 L 112.447552 32.205066 L 113.286713 32.205066 L 114.125874 34.805629 L 114.965035 36.539338 L 115.804196 36.800000 L 116.643357 36.539338 L 117.482517 34.805629 L 118.321678 34.805629 L 119.160839 35.048106 L 120.000000 34.805629"></path>
      <path stroke="none" fill-opacity="0.6" fill="url(#color_grad)" d="M 0 40 L 0.000000 19.202252 L 0.839161 19.202252 L 1.678322 19.202252 L 2.517483 19.202252 L 3.356643 14.867980 L 4.195804 14.867980 L 5.034965 19.202252 L 5.874126 19.202252 L 6.713287 19.202252 L 7.552448 19.202252 L 8.391608 19.202252 L 9.230769 19.202252 L 10.069930 19.202252 L 10.909091 15.656029 L 11.748252 14.867980 L 12.587413 10.533709 L 13.426573 10.533709 L 14.265734 10.861052 L 15.104895 11.400563 L 15.944056 11.103529 L 16.783217 16.428318 L 17.622378 16.428318 L 18.461538 16.428318 L 19.300699 16.428318 L 20.139860 11.400563 L 20.979021 11.400563 L 21.818182 11.400563 L 22.657343 15.109244 L 23.496503 18.969474 L 24.335664 19.202252 L 25.174825 19.202252 L 26.013986 19.202252 L 26.853147 23.536523 L 27.692308 20.935960 L 28.531469 17.107253 L 29.370629 15.734834 L 30.209790 16.631998 L 31.048951 19.917558 L 31.888112 19.796320 L 32.727273 19.202252 L 33.566434 19.202252 L 34.405594 14.867980 L 35.244755 20.069106 L 36.083916 22.657545 L 36.923077 21.802814 L 37.762238 19.202252 L 38.601399 15.734834 L 39.440559 19.699329 L 40.279720 17.472180 L 41.118881 16.428318 L 41.958042 16.428318 L 42.797203 16.670188 L 43.636364 18.248712 L 44.475524 18.248712 L 45.314685 18.248712 L 46.153846 18.248712 L 46.993007 19.042217 L 47.832168 18.275384 L 48.671329 18.248712 L 49.510490 18.248712 L 50.349650 18.248712 L 51.188811 18.248712 L 52.027972 18.248712 L 52.867133 18.248712 L 53.706294 18.248712 L 54.545455 18.248712 L 55.384615 18.248712 L 56.223776 17.468543 L 57.062937 17.468543 L 57.902098 17.468543 L 58.741259 17.468543 L 59.580420 19.141632 L 60.419580 18.335397 L 61.258741 18.335397 L 62.097902 17.468543 L 62.937063 18.353583 L 63.776224 20.069106 L 64.615385 20.069106 L 65.454545 16.680494 L 66.293706 11.400563 L 67.132867 11.400563 L 67.972028 11.673349 L 68.811189 14.001126 L 69.650350 14.001126 L 70.489510 18.111106 L 71.328671 14.346049 L 72.167832 14.607924 L 73.006993 14.607924 L 73.846154 8.800000 L 74.685315 8.800000 L 75.524476 9.666854 L 76.363636 9.666854 L 77.202797 11.339944 L 78.041958 11.435722 L 78.881119 11.400563 L 79.720280 11.400563 L 80.559441 14.867980 L 81.398601 15.474172 L 82.237762 16.856289 L 83.076923 16.601689 L 83.916084 16.601689 L 84.755245 15.734834 L 85.594406 14.867980 L 86.433566 14.867980 L 87.272727 14.867980 L 88.111888 14.867980 L 88.951049 14.867980 L 89.790210 14.867980 L 90.629371 20.069106 L 91.468531 20.069106 L 92.307692 20.069106 L 93.146853 20.069106 L 93.986014 20.069106 L 94.825175 20.069106 L 95.664336 20.069106 L 96.503497 26.925135 L 97.342657 16.601689 L 98.181818 16.601689 L 99.020979 17.892877 L 99.860140 19.759948 L 100.699301 20.141849 L 101.538462 19.202252 L 102.377622 23.536523 L 103.216783 26.300758 L 104.055944 24.403377 L 104.895105 23.985105 L 105.734266 23.536523 L 106.573427 26.137086 L 107.412587 27.701061 L 108.251748 29.604503 L 109.090909 32.205066 L 109.930070 32.205066 L 110.769231 32.205066 L 111.608392 33.769041 L 112.447552 32.205066 L 113.286713 32.205066 L 114.125874 34.805629 L 114.965035 36.539338 L 115.804196 36.800000 L 116.643357 36.539338 L 117.482517 34.805629 L 118.321678 34.805629 L 119.160839 35.048106 L 120.000000 34.805629 L 120 40 Z"></path>
    </g>
  </svg>