<svg xmlns="http://www.w3.org/2000/svg" viewBox="0 0 120 40" width="120" height="40">
    <defs>
      <linearGradient id="color_grad" x1="0%" x2="0%" y1="0%" y2="100%">
        <stop offset="0%" style="stop-color:#EA3943;stop-opacity:0.4;"></stop>
        <stop offset="100%" style="stop-color:#EA3943;stop-opacity:0.0;"></stop>
      </linearGradient>
    </defs>
    <g>
      <path stroke="#EA3943" stroke-width="2" stroke-linecap="round" stroke-linejoin="round" fill="none" d="M 0.000000 32.020327 L 0.839161 31.075140 L 1.678322 32.569702 L 2.517483 33.050269 L 3.356643 29.364104 L 4.195804 29.146539 L 5.034965 33.309994 L 5.874126 33.825511 L 6.713287 35.549434 L 7.552448 34.998093 L 8.391608 35.261968 L 9.230769 33.690297 L 10.069930 35.177651 L 10.909091 29.774115 L 11.748252 29.415437 L 12.587413 24.987671 L 13.426573 25.343508 L 14.265734 24.511473 L 15.104895 23.614342 L 15.944056 23.487647 L 16.783217 28.788735 L 17.622378 27.499287 L 18.461538 26.467379 L 19.300699 26.716837 L 20.139860 20.964672 L 20.979021 21.136802 L 21.818182 20.510973 L 22.657343 24.939614 L 23.496503 30.076217 L 24.335664 30.800562 L 25.174825 31.751428 L 26.013986 32.708193 L 26.853147 36.800000 L 27.692308 33.603795 L 28.531469 28.319745 L 29.370629 26.396168 L 30.209790 26.590361 L 31.048951 33.592217 L 31.888112 33.528433 L 32.727273 33.656002 L 33.566434 31.707959 L 34.405594 25.931110 L 35.244755 33.183299 L 36.083916 32.743799 L 36.923077 31.140890 L 37.762238 24.445504 L 38.601399 18.703387 L 39.440559 23.442867 L 40.279720 23.420368 L 41.118881 21.714575 L 41.958042 20.590485 L 42.797203 22.000730 L 43.636364 22.654956 L 44.475524 22.305672 L 45.314685 20.502236 L 46.153846 20.431462 L 46.993007 23.391971 L 47.832168 22.431711 L 48.671329 21.383857 L 49.510490 21.812654 L 50.349650 21.853720 L 51.188811 22.711532 L 52.027972 18.973815 L 52.867133 18.537592 L 53.706294 19.974268 L 54.545455 20.522332 L 55.384615 18.917676 L 56.223776 17.573837 L 57.062937 18.998499 L 57.902098 19.650978 L 58.741259 21.282938 L 59.580420 23.318138 L 60.419580 19.301038 L 61.258741 16.423535 L 62.097902 16.765611 L 62.937063 17.716041 L 63.776224 20.425564 L 64.615385 22.531538 L 65.454545 20.269598 L 66.293706 13.799641 L 67.132867 12.500364 L 67.972028 14.237175 L 68.811189 16.207717 L 69.650350 20.243822 L 70.489510 25.520881 L 71.328671 19.041313 L 72.167832 19.306935 L 73.006993 19.306935 L 73.846154 14.892930 L 74.685315 12.252216 L 75.524476 12.861662 L 76.363636 8.800000 L 77.202797 14.815384 L 78.041958 19.152062 L 78.881119 14.568985 L 79.720280 14.808831 L 80.559441 18.121246 L 81.398601 20.593107 L 82.237762 19.751023 L 83.076923 20.306514 L 83.916084 20.745141 L 84.755245 14.225598 L 85.594406 13.640836 L 86.433566 14.647623 L 87.272727 14.025071 L 88.111888 14.757279 L 88.951049 13.151750 L 89.790210 12.956465 L 90.629371 19.665395 L 91.468531 19.837962 L 92.307692 19.415063 L 93.146853 18.799501 L 93.986014 18.306701 L 94.825175 17.046306 L 95.664336 17.609443 L 96.503497 26.240421 L 97.342657 11.823201 L 98.181818 11.767499 L 99.020979 11.220527 L 99.860140 13.329560 L 100.699301 10.011902 L 101.538462 14.472435 L 102.377622 19.913979 L 103.216783 23.193409 L 104.055944 21.945465 L 104.895105 20.098997 L 105.734266 15.774333 L 106.573427 20.568641 L 107.412587 23.782104 L 108.251748 23.757638 L 109.090909 30.077964 L 109.930070 28.698956 L 110.769231 26.392891 L 111.608392 26.905350 L 112.447552 21.786441 L 113.286713 22.724420 L 114.125874 26.299399 L 114.965035 29.863238 L 115.804196 30.793572 L 116.643357 31.447142 L 117.482517 27.836557 L 118.321678 30.106361 L 119.160839 30.140875 L 120.000000 31.832906"></path>
      <path stroke="none" fill-opacity="0.6" fill="url(#color_grad)" d="M 0 40 L 0.000000 32.020327 L 0.839161 31.075140 L 1.678322 32.569702 L 2.517483 33.050269 L 3.356643 29.364104 L 4.195804 29.146539 L 5.034965 33.309994 L 5.874126 33.825511 L 6.713287 35.549434 L 7.552448 34.998093 L 8.391608 35.261968 L 9.230769 33.690297 L 10.069930 35.177651 L 10.909091 29.774115 L 11.748252 29.415437 L 12.587413 24.987671 L 13.426573 25.343508 L 14.265734 24.511473 L 15.104895 23.614342 L 15.944056 23.487647 L 16.783217 28.788735 L 17.622378 27.499287 L 18.461538 26.467379 L 19.300699 26.716837 L 20.139860 20.964672 L 20.979021 21.136802 L 21.818182 20.510973 L 22.657343 24.939614 L 23.496503 30.076217 L 24.335664 30.800562 L 25.174825 31.751428 L 26.013986 32.708193 L 26.853147 36.800000 L 27.692308 33.603795 L 28.531469 28.319745 L 29.370629 26.396168 L 30.209790 26.590361 L 31.048951 33.592217 L 31.888112 33.528433 L 32.727273 33.656002 L 33.566434 31.707959 L 34.405594 25.931110 L 35.244755 33.183299 L 36.083916 32.743799 L 36.923077 31.140890 L 37.762238 24.445504 L 38.601399 18.703387 L 39.440559 23.442867 L 40.279720 23.420368 L 41.118881 21.714575 L 41.958042 20.590485 L 42.797203 22.000730 L 43.636364 22.654956 L 44.475524 22.305672 L 45.314685 20.502236 L 46.153846 20.431462 L 46.993007 23.391971 L 47.832168 22.431711 L 48.671329 21.383857 L 49.510490 21.812654 L 50.349650 21.853720 L 51.188811 22.711532 L 52.027972 18.973815 L 52.867133 18.537592 L 53.706294 19.974268 L 54.545455 20.522332 L 55.384615 18.917676 L 56.223776 17.573837 L 57.062937 18.998499 L 57.902098 19.650978 L 58.741259 21.282938 L 59.580420 23.318138 L 60.419580 19.301038 L 61.258741 16.423535 L 62.097902 16.765611 L 62.937063 17.716041 L 63.776224 20.425564 L 64.615385 22.531538 L 65.454545 20.269598 L 66.293706 13.799641 L 67.132867 12.500364 L 67.972028 14.237175 L 68.811189 16.207717 L 69.650350 20.243822 L 70.489510 25.520881 L 71.328671 19.041313 L 72.167832 19.306935 L 73.006993 19.306935 L 73.846154 14.892930 L 74.685315 12.252216 L 75.524476 12.861662 L 76.363636 8.800000 L 77.202797 14.815384 L 78.041958 19.152062 L 78.881119 14.568985 L 79.720280 14.808831 L 80.559441 18.121246 L 81.398601 20.593107 L 82.237762 19.751023 L 83.076923 20.306514 L 83.916084 20.745141 L 84.755245 14.225598 L 85.594406 13.640836 L 86.433566 14.647623 L 87.272727 14.025071 L 88.111888 14.757279 L 88.951049 13.151750 L 89.790210 12.956465 L 90.629371 19.665395 L 91.468531 19.837962 L 92.307692 19.415063 L 93.146853 18.799501 L 93.986014 18.306701 L 94.825175 17.046306 L 95.664336 17.609443 L 96.503497 26.240421 L 97.342657 11.823201 L 98.181818 11.767499 L 99.020979 11.220527 L 99.860140 13.329560 L 100.699301 10.011902 L 101.538462 14.472435 L 102.377622 19.913979 L 103.216783 23.193409 L 104.055944 21.945465 L 104.895105 20.098997 L 105.734266 15.774333 L 106.573427 20.568641 L 107.412587 23.782104 L 108.251748 23.757638 L 109.090909 30.077964 L 109.930070 28.698956 L 110.769231 26.392891 L 111.608392 26.905350 L 112.447552 21.786441 L 113.286713 22.724420 L 114.125874 26.299399 L 114.965035 29.863238 L 115.804196 30.793572 L 116.643357 31.447142 L 117.482517 27.836557 L 118.321678 30.106361 L 119.160839 30.140875 L 120.000000 31.832906 L 120 40 Z"></path>
    </g>
  </svg>