<svg xmlns="http://www.w3.org/2000/svg" viewBox="0 0 120 40" width="120" height="40">
    <defs>
      <linearGradient id="color_grad" x1="0%" x2="0%" y1="0%" y2="100%">
        <stop offset="0%" style="stop-color:#16C784;stop-opacity:0.4;"></stop>
        <stop offset="100%" style="stop-color:#16C784;stop-opacity:0.0;"></stop>
      </linearGradient>
    </defs>
    <g>
      <path stroke="#16C784" stroke-width="2" stroke-linecap="round" stroke-linejoin="round" fill="none" d="M 0.000000 21.368497 L 0.839161 20.458145 L 1.678322 29.195388 L 2.517483 24.014287 L 3.356643 25.260134 L 4.195804 33.578761 L 5.034965 22.038161 L 5.874126 30.278283 L 6.713287 27.257263 L 7.552448 27.791152 L 8.391608 28.098431 L 9.230769 25.929779 L 10.069930 27.807343 L 10.909091 26.573501 L 11.748252 25.091581 L 12.587413 26.001219 L 13.426573 26.740389 L 14.265734 26.274219 L 15.104895 23.479701 L 15.944056 23.482259 L 16.783217 23.498612 L 17.622378 20.908392 L 18.461538 19.847020 L 19.300699 26.803026 L 20.139860 26.972151 L 20.979021 27.132258 L 21.818182 26.569547 L 22.657343 26.607047 L 23.496503 27.183266 L 24.335664 27.643228 L 25.174825 29.329393 L 26.013986 33.460197 L 26.853147 32.585716 L 27.692308 32.524224 L 28.531469 31.804036 L 29.370629 31.533773 L 30.209790 30.681029 L 31.048951 35.989336 L 31.888112 36.056178 L 32.727273 36.800000 L 33.566434 35.054079 L 34.405594 34.440951 L 35.244755 28.815202 L 36.083916 18.865568 L 36.923077 18.298385 L 37.762238 14.892903 L 38.601399 13.435154 L 39.440559 16.277710 L 40.279720 18.787760 L 41.118881 18.363294 L 41.958042 18.362721 L 42.797203 19.401872 L 43.636364 18.220702 L 44.475524 17.899717 L 45.314685 16.217381 L 46.153846 16.146944 L 46.993007 18.026333 L 47.832168 17.998405 L 48.671329 17.034128 L 49.510490 17.432670 L 50.349650 17.464409 L 51.188811 18.254766 L 52.027972 14.770993 L 52.867133 14.357101 L 53.706294 15.701456 L 54.545455 16.229315 L 55.384615 14.718751 L 56.223776 16.243306 L 57.062937 15.800930 L 57.902098 16.508022 L 58.741259 20.680710 L 59.580420 20.569034 L 60.419580 17.948041 L 61.258741 16.323995 L 62.097902 20.634783 L 62.937063 20.843215 L 63.776224 21.334952 L 64.615385 24.206777 L 65.454545 25.906915 L 66.293706 25.828158 L 67.132867 24.707925 L 67.972028 25.938475 L 68.811189 25.199715 L 69.650350 28.824559 L 70.489510 29.152986 L 71.328671 27.518670 L 72.167832 27.478022 L 73.006993 27.478022 L 73.846154 29.672759 L 74.685315 26.736507 L 75.524476 26.358057 L 76.363636 22.845408 L 77.202797 28.133748 L 78.041958 32.080578 L 78.881119 28.241667 L 79.720280 28.427198 L 80.559441 27.669546 L 81.398601 29.206194 L 82.237762 26.995409 L 83.076923 27.755906 L 83.916084 28.136611 L 84.755245 23.310988 L 85.594406 23.750125 L 86.433566 24.627486 L 87.272727 24.216027 L 88.111888 24.903993 L 88.951049 23.481400 L 89.790210 23.299323 L 90.629371 23.642850 L 91.468531 23.806678 L 92.307692 23.415633 L 93.146853 22.856321 L 93.986014 22.387879 L 94.825175 22.494223 L 95.664336 23.290180 L 96.503497 23.235290 L 97.342657 20.491118 L 98.181818 20.455837 L 99.020979 18.511843 L 99.860140 18.288419 L 100.699301 14.679588 L 101.538462 19.783060 L 102.377622 16.887457 L 103.216783 16.693535 L 104.055944 20.426227 L 104.895105 19.298032 L 105.734266 15.872763 L 106.573427 18.030054 L 107.412587 19.156943 L 108.251748 8.800000 L 109.090909 19.593181 L 109.930070 17.610687 L 110.769231 15.385911 L 111.608392 13.944532 L 112.447552 10.980746 L 113.286713 11.885714 L 114.125874 9.210654 L 114.965035 10.468703 L 115.804196 11.094158 L 116.643357 12.067380 L 117.482517 11.625541 L 118.321678 13.845093 L 119.160839 16.700298 L 120.000000 19.165692"></path>
      <path stroke="none" fill-opacity="0.6" fill="url(#color_grad)" d="M 0 40 L 0.000000 21.368497 L 0.839161 20.458145 L 1.678322 29.195388 L 2.517483 24.014287 L 3.356643 25.260134 L 4.195804 33.578761 L 5.034965 22.038161 L 5.874126 30.278283 L 6.713287 27.257263 L 7.552448 27.791152 L 8.391608 28.098431 L 9.230769 25.929779 L 10.069930 27.807343 L 10.909091 26.573501 L 11.748252 25.091581 L 12.587413 26.001219 L 13.426573 26.740389 L 14.265734 26.274219 L 15.104895 23.479701 L 15.944056 23.482259 L 16.783217 23.498612 L 17.622378 20.908392 L 18.461538 19.847020 L 19.300699 26.803026 L 20.139860 26.972151 L 20.979021 27.132258 L 21.818182 26.569547 L 22.657343 26.607047 L 23.496503 27.183266 L 24.335664 27.643228 L 25.174825 29.329393 L 26.013986 33.460197 L 26.853147 32.585716 L 27.692308 32.524224 L 28.531469 31.804036 L 29.370629 31.533773 L 30.209790 30.681029 L 31.048951 35.989336 L 31.888112 36.056178 L 32.727273 36.800000 L 33.566434 35.054079 L 34.405594 34.440951 L 35.244755 28.815202 L 36.083916 18.865568 L 36.923077 18.298385 L 37.762238 14.892903 L 38.601399 13.435154 L 39.440559 16.277710 L 40.279720 18.787760 L 41.118881 18.363294 L 41.958042 18.362721 L 42.797203 19.401872 L 43.636364 18.220702 L 44.475524 17.899717 L 45.314685 16.217381 L 46.153846 16.146944 L 46.993007 18.026333 L 47.832168 17.998405 L 48.671329 17.034128 L 49.510490 17.432670 L 50.349650 17.464409 L 51.188811 18.254766 L 52.027972 14.770993 L 52.867133 14.357101 L 53.706294 15.701456 L 54.545455 16.229315 L 55.384615 14.718751 L 56.223776 16.243306 L 57.062937 15.800930 L 57.902098 16.508022 L 58.741259 20.680710 L 59.580420 20.569034 L 60.419580 17.948041 L 61.258741 16.323995 L 62.097902 20.634783 L 62.937063 20.843215 L 63.776224 21.334952 L 64.615385 24.206777 L 65.454545 25.906915 L 66.293706 25.828158 L 67.132867 24.707925 L 67.972028 25.938475 L 68.811189 25.199715 L 69.650350 28.824559 L 70.489510 29.152986 L 71.328671 27.518670 L 72.167832 27.478022 L 73.006993 27.478022 L 73.846154 29.672759 L 74.685315 26.736507 L 75.524476 26.358057 L 76.363636 22.845408 L 77.202797 28.133748 L 78.041958 32.080578 L 78.881119 28.241667 L 79.720280 28.427198 L 80.559441 27.669546 L 81.398601 29.206194 L 82.237762 26.995409 L 83.076923 27.755906 L 83.916084 28.136611 L 84.755245 23.310988 L 85.594406 23.750125 L 86.433566 24.627486 L 87.272727 24.216027 L 88.111888 24.903993 L 88.951049 23.481400 L 89.790210 23.299323 L 90.629371 23.642850 L 91.468531 23.806678 L 92.307692 23.415633 L 93.146853 22.856321 L 93.986014 22.387879 L 94.825175 22.494223 L 95.664336 23.290180 L 96.503497 23.235290 L 97.342657 20.491118 L 98.181818 20.455837 L 99.020979 18.511843 L 99.860140 18.288419 L 100.699301 14.679588 L 101.538462 19.783060 L 102.377622 16.887457 L 103.216783 16.693535 L 104.055944 20.426227 L 104.895105 19.298032 L 105.734266 15.872763 L 106.573427 18.030054 L 107.412587 19.156943 L 108.251748 8.800000 L 109.090909 19.593181 L 109.930070 17.610687 L 110.769231 15.385911 L 111.608392 13.944532 L 112.447552 10.980746 L 113.286713 11.885714 L 114.125874 9.210654 L 114.965035 10.468703 L 115.804196 11.094158 L 116.643357 12.067380 L 117.482517 11.625541 L 118.321678 13.845093 L 119.160839 16.700298 L 120.000000 19.165692 L 120 40 Z"></path>
    </g>
  </svg>