<svg xmlns="http://www.w3.org/2000/svg" viewBox="0 0 120 40" width="120" height="40">
    <defs>
      <linearGradient id="color_grad" x1="0%" x2="0%" y1="0%" y2="100%">
        <stop offset="0%" style="stop-color:#EA3943;stop-opacity:0.4;"></stop>
        <stop offset="100%" style="stop-color:#EA3943;stop-opacity:0.0;"></stop>
      </linearGradient>
    </defs>
    <g>
      <path stroke="#EA3943" stroke-width="2" stroke-linecap="round" stroke-linejoin="round" fill="none" d="M 0.000000 9.777825 L 0.839161 9.777825 L 1.678322 22.359579 L 2.517483 12.637315 L 3.356643 12.637315 L 4.195804 27.358686 L 5.034965 8.800000 L 5.874126 22.200607 L 6.713287 14.189038 L 7.552448 16.021710 L 8.391608 16.126692 L 9.230769 14.913908 L 10.069930 15.735761 L 10.909091 15.704767 L 11.748252 12.221389 L 12.587413 12.903267 L 13.426573 13.604142 L 14.265734 14.714944 L 15.104895 12.253383 L 15.944056 11.938440 L 16.783217 13.433173 L 17.622378 11.029602 L 18.461538 10.921621 L 19.300699 22.359579 L 20.139860 22.359579 L 20.979021 22.359579 L 21.818182 22.359579 L 22.657343 22.359579 L 23.496503 22.490555 L 24.335664 22.502553 L 25.174825 23.874308 L 26.013986 29.508302 L 26.853147 29.576290 L 27.692308 29.651277 L 28.531469 29.651277 L 29.370629 29.651277 L 30.209790 29.508302 L 31.048951 33.797536 L 31.888112 33.797536 L 32.727273 33.797536 L 33.566434 33.797536 L 34.405594 33.797536 L 35.244755 22.359579 L 36.083916 11.064596 L 36.923077 11.064596 L 37.762238 11.064596 L 38.601399 11.064596 L 39.440559 15.925728 L 40.279720 15.925728 L 41.118881 15.925728 L 41.958042 17.629423 L 42.797203 17.641421 L 43.636364 17.641421 L 44.475524 17.641421 L 45.314685 17.641421 L 46.153846 17.641421 L 46.993007 17.641421 L 47.832168 17.641421 L 48.671329 17.641421 L 49.510490 17.641421 L 50.349650 17.641421 L 51.188811 17.641421 L 52.027972 17.641421 L 52.867133 17.641421 L 53.706294 17.641421 L 54.545455 17.641421 L 55.384615 17.641421 L 56.223776 20.663881 L 57.062937 17.784396 L 57.902098 17.927370 L 58.741259 22.359579 L 59.580420 22.182610 L 60.419580 22.502553 L 61.258741 24.105267 L 62.097902 29.043385 L 62.937063 29.581289 L 63.776224 29.508302 L 64.615385 31.081021 L 65.454545 31.081021 L 66.293706 31.081021 L 67.132867 31.081021 L 67.972028 31.081021 L 68.811189 31.081021 L 69.650350 31.223996 L 70.489510 31.223996 L 71.328671 31.366970 L 72.167832 31.366970 L 73.006993 31.366970 L 73.846154 31.366970 L 74.685315 30.223174 L 75.524476 30.223174 L 76.363636 30.223174 L 77.202797 33.322621 L 78.041958 33.798536 L 78.881119 33.940511 L 79.720280 33.940511 L 80.559441 33.940511 L 81.398601 33.940511 L 82.237762 33.940511 L 83.076923 33.940511 L 83.916084 33.940511 L 84.755245 33.940511 L 85.594406 33.940511 L 86.433566 33.940511 L 87.272727 34.161471 L 88.111888 34.226460 L 88.951049 34.226460 L 89.790210 34.226460 L 90.629371 34.369434 L 91.468531 34.369434 L 92.307692 34.369434 L 93.146853 34.369434 L 93.986014 34.369434 L 94.825175 36.324085 L 95.664336 36.800000 L 96.503497 36.596036 L 97.342657 34.369434 L 98.181818 34.369434 L 99.020979 34.369434 L 99.860140 34.369434 L 100.699301 34.083485 L 101.538462 34.083485 L 102.377622 29.508302 L 103.216783 29.682271 L 104.055944 33.797536 L 104.895105 33.940511 L 105.734266 33.940511 L 106.573427 35.227281 L 107.412587 35.227281 L 108.251748 22.502553 L 109.090909 34.993323 L 109.930070 33.940511 L 110.769231 33.940511 L 111.608392 33.940511 L 112.447552 33.940511 L 113.286713 33.940511 L 114.125874 29.508302 L 114.965035 29.508302 L 115.804196 29.508302 L 116.643357 29.508302 L 117.482517 30.938047 L 118.321678 30.938047 L 119.160839 35.857168 L 120.000000 36.657026"></path>
      <path stroke="none" fill-opacity="0.6" fill="url(#color_grad)" d="M 0 40 L 0.000000 9.777825 L 0.839161 9.777825 L 1.678322 22.359579 L 2.517483 12.637315 L 3.356643 12.637315 L 4.195804 27.358686 L 5.034965 8.800000 L 5.874126 22.200607 L 6.713287 14.189038 L 7.552448 16.021710 L 8.391608 16.126692 L 9.230769 14.913908 L 10.069930 15.735761 L 10.909091 15.704767 L 11.748252 12.221389 L 12.587413 12.903267 L 13.426573 13.604142 L 14.265734 14.714944 L 15.104895 12.253383 L 15.944056 11.938440 L 16.783217 13.433173 L 17.622378 11.029602 L 18.461538 10.921621 L 19.300699 22.359579 L 20.139860 22.359579 L 20.979021 22.359579 L 21.818182 22.359579 L 22.657343 22.359579 L 23.496503 22.490555 L 24.335664 22.502553 L 25.174825 23.874308 L 26.013986 29.508302 L 26.853147 29.576290 L 27.692308 29.651277 L 28.531469 29.651277 L 29.370629 29.651277 L 30.209790 29.508302 L 31.048951 33.797536 L 31.888112 33.797536 L 32.727273 33.797536 L 33.566434 33.797536 L 34.405594 33.797536 L 35.244755 22.359579 L 36.083916 11.064596 L 36.923077 11.064596 L 37.762238 11.064596 L 38.601399 11.064596 L 39.440559 15.925728 L 40.279720 15.925728 L 41.118881 15.925728 L 41.958042 17.629423 L 42.797203 17.641421 L 43.636364 17.641421 L 44.475524 17.641421 L 45.314685 17.641421 L 46.153846 17.641421 L 46.993007 17.641421 L 47.832168 17.641421 L 48.671329 17.641421 L 49.510490 17.641421 L 50.349650 17.641421 L 51.188811 17.641421 L 52.027972 17.641421 L 52.867133 17.641421 L 53.706294 17.641421 L 54.545455 17.641421 L 55.384615 17.641421 L 56.223776 20.663881 L 57.062937 17.784396 L 57.902098 17.927370 L 58.741259 22.359579 L 59.580420 22.182610 L 60.419580 22.502553 L 61.258741 24.105267 L 62.097902 29.043385 L 62.937063 29.581289 L 63.776224 29.508302 L 64.615385 31.081021 L 65.454545 31.081021 L 66.293706 31.081021 L 67.132867 31.081021 L 67.972028 31.081021 L 68.811189 31.081021 L 69.650350 31.223996 L 70.489510 31.223996 L 71.328671 31.366970 L 72.167832 31.366970 L 73.006993 31.366970 L 73.846154 31.366970 L 74.685315 30.223174 L 75.524476 30.223174 L 76.363636 30.223174 L 77.202797 33.322621 L 78.041958 33.798536 L 78.881119 33.940511 L 79.720280 33.940511 L 80.559441 33.940511 L 81.398601 33.940511 L 82.237762 33.940511 L 83.076923 33.940511 L 83.916084 33.940511 L 84.755245 33.940511 L 85.594406 33.940511 L 86.433566 33.940511 L 87.272727 34.161471 L 88.111888 34.226460 L 88.951049 34.226460 L 89.790210 34.226460 L 90.629371 34.369434 L 91.468531 34.369434 L 92.307692 34.369434 L 93.146853 34.369434 L 93.986014 34.369434 L 94.825175 36.324085 L 95.664336 36.800000 L 96.503497 36.596036 L 97.342657 34.369434 L 98.181818 34.369434 L 99.020979 34.369434 L 99.860140 34.369434 L 100.699301 34.083485 L 101.538462 34.083485 L 102.377622 29.508302 L 103.216783 29.682271 L 104.055944 33.797536 L 104.895105 33.940511 L 105.734266 33.940511 L 106.573427 35.227281 L 107.412587 35.227281 L 108.251748 22.502553 L 109.090909 34.993323 L 109.930070 33.940511 L 110.769231 33.940511 L 111.608392 33.940511 L 112.447552 33.940511 L 113.286713 33.940511 L 114.125874 29.508302 L 114.965035 29.508302 L 115.804196 29.508302 L 116.643357 29.508302 L 117.482517 30.938047 L 118.321678 30.938047 L 119.160839 35.857168 L 120.000000 36.657026 L 120 40 Z"></path>
    </g>
  </svg>