<svg xmlns="http://www.w3.org/2000/svg" viewBox="0 0 120 40" width="120" height="40">
    <defs>
      <linearGradient id="color_grad" x1="0%" x2="0%" y1="0%" y2="100%">
        <stop offset="0%" style="stop-color:#EA3943;stop-opacity:0.4;"></stop>
        <stop offset="100%" style="stop-color:#EA3943;stop-opacity:0.0;"></stop>
      </linearGradient>
    </defs>
    <g>
      <path stroke="#EA3943" stroke-width="2" stroke-linecap="round" stroke-linejoin="round" fill="none" d="M 0.000000 13.877217 L 0.839161 14.011762 L 1.678322 14.839216 L 2.517483 17.511435 L 3.356643 14.839216 L 4.195804 14.839216 L 5.034965 14.839216 L 5.874126 14.839216 L 6.713287 14.839216 L 7.552448 14.839216 L 8.391608 11.146321 L 9.230769 8.800000 L 10.069930 8.800000 L 10.909091 8.800000 L 11.748252 8.800000 L 12.587413 8.800000 L 13.426573 12.166996 L 14.265734 12.166996 L 15.104895 12.166996 L 15.944056 12.701440 L 16.783217 14.839216 L 17.622378 9.180090 L 18.461538 8.800000 L 19.300699 8.800000 L 20.139860 12.701440 L 20.979021 10.764362 L 21.818182 8.800000 L 22.657343 9.339302 L 23.496503 8.960333 L 24.335664 9.438716 L 25.174825 12.166996 L 26.013986 13.877217 L 26.853147 9.334444 L 27.692308 11.044664 L 28.531469 11.044664 L 29.370629 12.166996 L 30.209790 12.682753 L 31.048951 12.701440 L 31.888112 12.701440 L 32.727273 12.701440 L 33.566434 12.701440 L 34.405594 13.706793 L 35.244755 13.770328 L 36.083916 14.839216 L 36.923077 14.962549 L 37.762238 14.304772 L 38.601399 14.304772 L 39.440559 13.691843 L 40.279720 18.961534 L 41.118881 16.820022 L 41.958042 18.034667 L 42.797203 21.786986 L 43.636364 17.997293 L 44.475524 18.486889 L 45.314685 17.933758 L 46.153846 17.881435 L 46.993007 15.641255 L 47.832168 17.021840 L 48.671329 18.045879 L 49.510490 18.180424 L 50.349650 18.371030 L 51.188811 18.580323 L 52.027972 18.580323 L 52.867133 18.580323 L 53.706294 19.114767 L 54.545455 19.114767 L 55.384615 19.649210 L 56.223776 20.183654 L 57.062937 20.183654 L 57.902098 20.183654 L 58.741259 20.183654 L 59.580420 20.718098 L 60.419580 20.718098 L 61.258741 20.942340 L 62.097902 22.747490 L 62.937063 26.596981 L 63.776224 31.941419 L 64.615385 32.475863 L 65.454545 36.800000 L 66.293706 23.390318 L 67.132867 23.390318 L 67.972028 23.390318 L 68.811189 23.356681 L 69.650350 28.525464 L 70.489510 28.734756 L 71.328671 20.111897 L 72.167832 20.183654 L 73.006993 20.183654 L 73.846154 27.049202 L 74.685315 25.232841 L 75.524476 25.528093 L 76.363636 22.078501 L 77.202797 21.252542 L 78.041958 20.198604 L 78.881119 20.639613 L 79.720280 20.183654 L 80.559441 19.114767 L 81.398601 24.672235 L 82.237762 26.533445 L 83.076923 26.062537 L 83.916084 26.589506 L 84.755245 26.529708 L 85.594406 26.062537 L 86.433566 26.929607 L 87.272727 28.200312 L 88.111888 27.527586 L 88.951049 28.200312 L 89.790210 28.200312 L 90.629371 28.200312 L 91.468531 28.200312 L 92.307692 28.200312 L 93.146853 28.200312 L 93.986014 28.200312 L 94.825175 28.200312 L 95.664336 28.734756 L 96.503497 28.734756 L 97.342657 28.854352 L 98.181818 28.734756 L 99.020979 28.465666 L 99.860140 28.200312 L 100.699301 19.301635 L 101.538462 19.640988 L 102.377622 28.200312 L 103.216783 26.712839 L 104.055944 20.148523 L 104.895105 20.975977 L 105.734266 20.755846 L 106.573427 23.898600 L 107.412587 24.459205 L 108.251748 23.924761 L 109.090909 23.924761 L 109.930070 26.996879 L 110.769231 24.459205 L 111.608392 26.694152 L 112.447552 29.489705 L 113.286713 22.867086 L 114.125874 21.786986 L 114.965035 22.792712 L 115.804196 29.302836 L 116.643357 30.872532 L 117.482517 36.537637 L 118.321678 36.537637 L 119.160839 29.734129 L 120.000000 28.627867"></path>
      <path stroke="none" fill-opacity="0.6" fill="url(#color_grad)" d="M 0 40 L 0.000000 13.877217 L 0.839161 14.011762 L 1.678322 14.839216 L 2.517483 17.511435 L 3.356643 14.839216 L 4.195804 14.839216 L 5.034965 14.839216 L 5.874126 14.839216 L 6.713287 14.839216 L 7.552448 14.839216 L 8.391608 11.146321 L 9.230769 8.800000 L 10.069930 8.800000 L 10.909091 8.800000 L 11.748252 8.800000 L 12.587413 8.800000 L 13.426573 12.166996 L 14.265734 12.166996 L 15.104895 12.166996 L 15.944056 12.701440 L 16.783217 14.839216 L 17.622378 9.180090 L 18.461538 8.800000 L 19.300699 8.800000 L 20.139860 12.701440 L 20.979021 10.764362 L 21.818182 8.800000 L 22.657343 9.339302 L 23.496503 8.960333 L 24.335664 9.438716 L 25.174825 12.166996 L 26.013986 13.877217 L 26.853147 9.334444 L 27.692308 11.044664 L 28.531469 11.044664 L 29.370629 12.166996 L 30.209790 12.682753 L 31.048951 12.701440 L 31.888112 12.701440 L 32.727273 12.701440 L 33.566434 12.701440 L 34.405594 13.706793 L 35.244755 13.770328 L 36.083916 14.839216 L 36.923077 14.962549 L 37.762238 14.304772 L 38.601399 14.304772 L 39.440559 13.691843 L 40.279720 18.961534 L 41.118881 16.820022 L 41.958042 18.034667 L 42.797203 21.786986 L 43.636364 17.997293 L 44.475524 18.486889 L 45.314685 17.933758 L 46.153846 17.881435 L 46.993007 15.641255 L 47.832168 17.021840 L 48.671329 18.045879 L 49.510490 18.180424 L 50.349650 18.371030 L 51.188811 18.580323 L 52.027972 18.580323 L 52.867133 18.580323 L 53.706294 19.114767 L 54.545455 19.114767 L 55.384615 19.649210 L 56.223776 20.183654 L 57.062937 20.183654 L 57.902098 20.183654 L 58.741259 20.183654 L 59.580420 20.718098 L 60.419580 20.718098 L 61.258741 20.942340 L 62.097902 22.747490 L 62.937063 26.596981 L 63.776224 31.941419 L 64.615385 32.475863 L 65.454545 36.800000 L 66.293706 23.390318 L 67.132867 23.390318 L 67.972028 23.390318 L 68.811189 23.356681 L 69.650350 28.525464 L 70.489510 28.734756 L 71.328671 20.111897 L 72.167832 20.183654 L 73.006993 20.183654 L 73.846154 27.049202 L 74.685315 25.232841 L 75.524476 25.528093 L 76.363636 22.078501 L 77.202797 21.252542 L 78.041958 20.198604 L 78.881119 20.639613 L 79.720280 20.183654 L 80.559441 19.114767 L 81.398601 24.672235 L 82.237762 26.533445 L 83.076923 26.062537 L 83.916084 26.589506 L 84.755245 26.529708 L 85.594406 26.062537 L 86.433566 26.929607 L 87.272727 28.200312 L 88.111888 27.527586 L 88.951049 28.200312 L 89.790210 28.200312 L 90.629371 28.200312 L 91.468531 28.200312 L 92.307692 28.200312 L 93.146853 28.200312 L 93.986014 28.200312 L 94.825175 28.200312 L 95.664336 28.734756 L 96.503497 28.734756 L 97.342657 28.854352 L 98.181818 28.734756 L 99.020979 28.465666 L 99.860140 28.200312 L 100.699301 19.301635 L 101.538462 19.640988 L 102.377622 28.200312 L 103.216783 26.712839 L 104.055944 20.148523 L 104.895105 20.975977 L 105.734266 20.755846 L 106.573427 23.898600 L 107.412587 24.459205 L 108.251748 23.924761 L 109.090909 23.924761 L 109.930070 26.996879 L 110.769231 24.459205 L 111.608392 26.694152 L 112.447552 29.489705 L 113.286713 22.867086 L 114.125874 21.786986 L 114.965035 22.792712 L 115.804196 29.302836 L 116.643357 30.872532 L 117.482517 36.537637 L 118.321678 36.537637 L 119.160839 29.734129 L 120.000000 28.627867 L 120 40 Z"></path>
    </g>
  </svg>