<svg xmlns="http://www.w3.org/2000/svg" viewBox="0 0 120 40" width="120" height="40">
    <defs>
      <linearGradient id="color_grad" x1="0%" x2="0%" y1="0%" y2="100%">
        <stop offset="0%" style="stop-color:#EA3943;stop-opacity:0.4;"></stop>
        <stop offset="100%" style="stop-color:#EA3943;stop-opacity:0.0;"></stop>
      </linearGradient>
    </defs>
    <g>
      <path stroke="#EA3943" stroke-width="2" stroke-linecap="round" stroke-linejoin="round" fill="none" d="M 0.000000 15.779063 L 0.839161 15.918644 L 1.678322 16.197807 L 2.517483 16.882048 L 3.356643 16.476969 L 4.195804 16.616550 L 5.034965 17.710750 L 5.874126 21.362313 L 6.713287 20.930880 L 7.552448 17.593619 L 8.391608 17.593619 L 9.230769 17.593619 L 10.069930 17.593619 L 10.909091 17.593619 L 11.748252 17.593619 L 12.587413 17.593619 L 13.426573 17.872782 L 14.265734 17.872782 L 15.104895 17.593619 L 15.944056 17.593619 L 16.783217 17.733200 L 17.622378 17.733200 L 18.461538 18.151944 L 19.300699 18.654632 L 20.139860 19.966500 L 20.979021 20.244687 L 21.818182 21.996773 L 22.657343 23.316451 L 23.496503 23.444319 L 24.335664 23.595613 L 25.174825 23.316451 L 26.013986 21.961634 L 26.853147 18.041646 L 27.692308 15.918644 L 28.531469 8.800000 L 29.370629 8.800000 L 30.209790 10.195813 L 31.048951 10.195813 L 31.888112 11.221686 L 32.727273 12.708275 L 33.566434 15.779063 L 34.405594 17.174875 L 35.244755 17.174875 L 36.083916 17.184636 L 36.923077 17.872782 L 37.762238 20.049468 L 38.601399 19.966500 L 39.440559 17.314457 L 40.279720 16.219281 L 41.118881 15.779063 L 41.958042 15.789800 L 42.797203 17.174875 L 43.636364 17.174875 L 44.475524 17.174875 L 45.314685 16.480873 L 46.153846 15.918644 L 46.993007 15.918644 L 47.832168 15.918644 L 48.671329 15.918644 L 49.510490 15.918644 L 50.349650 15.918644 L 51.188811 18.811783 L 52.027972 15.779063 L 52.867133 15.918644 L 53.706294 15.918644 L 54.545455 17.174875 L 55.384615 17.496986 L 56.223776 18.570688 L 57.062937 18.641943 L 57.902098 21.342791 L 58.741259 20.000664 L 59.580420 19.268594 L 60.419580 20.008472 L 61.258741 20.112914 L 62.097902 20.106082 L 62.937063 20.792275 L 63.776224 18.710269 L 64.615385 19.408175 L 65.454545 19.408175 L 66.293706 19.408175 L 67.132867 19.268594 L 67.972028 19.268594 L 68.811189 19.966500 L 69.650350 19.966500 L 70.489510 20.070942 L 71.328671 20.106082 L 72.167832 20.106082 L 73.006993 20.106082 L 73.846154 26.838193 L 74.685315 26.008514 L 75.524476 24.851844 L 76.363636 22.758126 L 77.202797 22.943583 L 78.041958 22.758126 L 78.881119 23.373064 L 79.720280 26.945563 L 80.559441 25.218855 L 81.398601 26.771819 L 82.237762 22.897707 L 83.076923 22.897707 L 83.916084 22.897707 L 84.755245 23.037288 L 85.594406 23.037288 L 86.433566 23.037288 L 87.272727 23.037288 L 88.111888 23.037288 L 88.951049 23.037288 L 89.790210 23.037288 L 90.629371 23.037288 L 91.468531 23.037288 L 92.307692 23.037288 L 93.146853 22.897707 L 93.986014 22.897707 L 94.825175 24.017285 L 95.664336 24.851844 L 96.503497 24.851844 L 97.342657 28.653726 L 98.181818 28.595160 L 99.020979 28.341376 L 99.860140 28.341376 L 100.699301 28.341376 L 101.538462 25.764491 L 102.377622 25.549751 L 103.216783 25.549751 L 104.055944 25.549751 L 104.895105 25.549751 L 105.734266 25.549751 L 106.573427 33.561520 L 107.412587 25.549751 L 108.251748 27.643470 L 109.090909 27.922632 L 109.930070 28.435081 L 110.769231 35.320439 L 111.608392 35.320439 L 112.447552 35.320439 L 113.286713 35.320439 L 114.125874 35.351478 L 114.965035 36.800000 L 115.804196 36.800000 L 116.643357 36.800000 L 117.482517 35.941234 L 118.321678 34.078849 L 119.160839 35.320439 L 120.000000 30.881755"></path>
      <path stroke="none" fill-opacity="0.6" fill="url(#color_grad)" d="M 0 40 L 0.000000 15.779063 L 0.839161 15.918644 L 1.678322 16.197807 L 2.517483 16.882048 L 3.356643 16.476969 L 4.195804 16.616550 L 5.034965 17.710750 L 5.874126 21.362313 L 6.713287 20.930880 L 7.552448 17.593619 L 8.391608 17.593619 L 9.230769 17.593619 L 10.069930 17.593619 L 10.909091 17.593619 L 11.748252 17.593619 L 12.587413 17.593619 L 13.426573 17.872782 L 14.265734 17.872782 L 15.104895 17.593619 L 15.944056 17.593619 L 16.783217 17.733200 L 17.622378 17.733200 L 18.461538 18.151944 L 19.300699 18.654632 L 20.139860 19.966500 L 20.979021 20.244687 L 21.818182 21.996773 L 22.657343 23.316451 L 23.496503 23.444319 L 24.335664 23.595613 L 25.174825 23.316451 L 26.013986 21.961634 L 26.853147 18.041646 L 27.692308 15.918644 L 28.531469 8.800000 L 29.370629 8.800000 L 30.209790 10.195813 L 31.048951 10.195813 L 31.888112 11.221686 L 32.727273 12.708275 L 33.566434 15.779063 L 34.405594 17.174875 L 35.244755 17.174875 L 36.083916 17.184636 L 36.923077 17.872782 L 37.762238 20.049468 L 38.601399 19.966500 L 39.440559 17.314457 L 40.279720 16.219281 L 41.118881 15.779063 L 41.958042 15.789800 L 42.797203 17.174875 L 43.636364 17.174875 L 44.475524 17.174875 L 45.314685 16.480873 L 46.153846 15.918644 L 46.993007 15.918644 L 47.832168 15.918644 L 48.671329 15.918644 L 49.510490 15.918644 L 50.349650 15.918644 L 51.188811 18.811783 L 52.027972 15.779063 L 52.867133 15.918644 L 53.706294 15.918644 L 54.545455 17.174875 L 55.384615 17.496986 L 56.223776 18.570688 L 57.062937 18.641943 L 57.902098 21.342791 L 58.741259 20.000664 L 59.580420 19.268594 L 60.419580 20.008472 L 61.258741 20.112914 L 62.097902 20.106082 L 62.937063 20.792275 L 63.776224 18.710269 L 64.615385 19.408175 L 65.454545 19.408175 L 66.293706 19.408175 L 67.132867 19.268594 L 67.972028 19.268594 L 68.811189 19.966500 L 69.650350 19.966500 L 70.489510 20.070942 L 71.328671 20.106082 L 72.167832 20.106082 L 73.006993 20.106082 L 73.846154 26.838193 L 74.685315 26.008514 L 75.524476 24.851844 L 76.363636 22.758126 L 77.202797 22.943583 L 78.041958 22.758126 L 78.881119 23.373064 L 79.720280 26.945563 L 80.559441 25.218855 L 81.398601 26.771819 L 82.237762 22.897707 L 83.076923 22.897707 L 83.916084 22.897707 L 84.755245 23.037288 L 85.594406 23.037288 L 86.433566 23.037288 L 87.272727 23.037288 L 88.111888 23.037288 L 88.951049 23.037288 L 89.790210 23.037288 L 90.629371 23.037288 L 91.468531 23.037288 L 92.307692 23.037288 L 93.146853 22.897707 L 93.986014 22.897707 L 94.825175 24.017285 L 95.664336 24.851844 L 96.503497 24.851844 L 97.342657 28.653726 L 98.181818 28.595160 L 99.020979 28.341376 L 99.860140 28.341376 L 100.699301 28.341376 L 101.538462 25.764491 L 102.377622 25.549751 L 103.216783 25.549751 L 104.055944 25.549751 L 104.895105 25.549751 L 105.734266 25.549751 L 106.573427 33.561520 L 107.412587 25.549751 L 108.251748 27.643470 L 109.090909 27.922632 L 109.930070 28.435081 L 110.769231 35.320439 L 111.608392 35.320439 L 112.447552 35.320439 L 113.286713 35.320439 L 114.125874 35.351478 L 114.965035 36.800000 L 115.804196 36.800000 L 116.643357 36.800000 L 117.482517 35.941234 L 118.321678 34.078849 L 119.160839 35.320439 L 120.000000 30.881755 L 120 40 Z"></path>
    </g>
  </svg>