<svg xmlns="http://www.w3.org/2000/svg" viewBox="0 0 120 40" width="120" height="40">
    <defs>
      <linearGradient id="color_grad" x1="0%" x2="0%" y1="0%" y2="100%">
        <stop offset="0%" style="stop-color:#16C784;stop-opacity:0.4;"></stop>
        <stop offset="100%" style="stop-color:#16C784;stop-opacity:0.0;"></stop>
      </linearGradient>
    </defs>
    <g>
      <path stroke="#16C784" stroke-width="2" stroke-linecap="round" stroke-linejoin="round" fill="none" d="M 0.000000 18.736567 L 0.839161 18.214330 L 1.678322 20.077022 L 2.517483 23.091565 L 3.356643 21.307778 L 4.195804 21.174371 L 5.034965 20.574624 L 5.874126 20.941840 L 6.713287 22.101708 L 7.552448 21.712877 L 8.391608 18.213052 L 9.230769 14.747043 L 10.069930 15.795352 L 10.909091 14.882773 L 11.748252 15.278344 L 12.587413 15.669731 L 13.426573 19.299477 L 14.265734 18.481724 L 15.104895 17.487916 L 15.944056 18.151229 L 16.783217 19.706785 L 17.622378 13.072955 L 18.461538 11.952713 L 19.300699 12.126328 L 20.139860 16.245075 L 20.979021 14.390053 L 21.818182 11.947484 L 22.657343 12.544443 L 23.496503 12.540724 L 24.335664 13.376257 L 25.174825 16.815422 L 26.013986 19.196750 L 26.853147 13.904305 L 27.692308 15.554918 L 28.531469 14.989684 L 29.370629 15.922134 L 30.209790 15.880067 L 31.048951 18.033860 L 31.888112 18.087199 L 32.727273 18.659522 L 33.566434 17.314186 L 34.405594 17.855248 L 35.244755 18.709142 L 36.083916 17.366014 L 36.923077 17.106755 L 37.762238 13.974843 L 38.601399 12.925604 L 39.440559 12.216621 L 40.279720 19.523642 L 41.118881 16.996590 L 41.958042 17.530216 L 42.797203 22.168760 L 43.636364 17.381470 L 44.475524 17.657347 L 45.314685 15.893663 L 46.153846 15.779896 L 46.993007 14.762266 L 47.832168 16.191155 L 48.671329 16.593814 L 49.510490 17.016926 L 50.349650 17.243183 L 51.188811 18.025493 L 52.027972 15.539230 L 52.867133 15.245457 L 53.706294 16.779282 L 54.545455 17.144290 L 55.384615 16.635068 L 56.223776 16.977532 L 57.062937 17.916257 L 57.902098 18.352152 L 58.741259 19.392443 L 59.580420 19.962790 L 60.419580 17.965529 L 61.258741 16.335950 L 62.097902 19.188499 L 62.937063 23.205216 L 63.776224 29.273347 L 64.615385 31.129532 L 65.454545 36.800000 L 66.293706 22.677982 L 67.132867 21.881146 L 67.972028 22.757817 L 68.811189 22.196999 L 69.650350 30.078201 L 70.489510 30.505497 L 71.328671 20.338954 L 72.167832 20.381719 L 73.006993 20.381719 L 73.846154 29.079164 L 74.685315 25.625938 L 75.524476 25.654757 L 76.363636 19.531195 L 77.202797 21.140555 L 78.041958 22.717493 L 78.881119 20.304092 L 79.720280 19.949659 L 80.559441 18.283938 L 81.398601 25.197829 L 82.237762 25.586195 L 83.076923 25.634188 L 83.916084 26.440437 L 84.755245 22.987211 L 85.594406 22.792563 L 86.433566 24.333592 L 87.272727 25.306599 L 88.111888 25.049083 L 88.951049 24.767976 L 89.790210 24.649212 L 90.629371 24.826545 L 91.468531 24.934967 L 92.307692 24.663971 L 93.146853 24.264565 L 93.986014 23.931979 L 94.825175 23.164079 L 95.664336 24.094669 L 96.503497 24.142431 L 97.342657 23.332696 L 98.181818 23.176513 L 99.020979 21.534499 L 99.860140 21.078151 L 100.699301 8.800000 L 101.538462 12.962558 L 102.377622 22.231396 L 103.216783 20.474801 L 104.055944 14.084310 L 104.895105 14.103601 L 105.734266 11.347272 L 106.573427 15.812086 L 107.412587 17.224706 L 108.251748 15.005023 L 109.090909 17.059691 L 109.930070 19.478437 L 110.769231 15.104962 L 111.608392 16.553374 L 112.447552 17.634454 L 113.286713 10.843860 L 114.125874 9.759527 L 114.965035 11.799203 L 115.804196 19.444620 L 116.643357 21.878009 L 117.482517 27.281780 L 118.321678 28.733911 L 119.160839 19.758265 L 120.000000 21.146133"></path>
      <path stroke="none" fill-opacity="0.6" fill="url(#color_grad)" d="M 0 40 L 0.000000 18.736567 L 0.839161 18.214330 L 1.678322 20.077022 L 2.517483 23.091565 L 3.356643 21.307778 L 4.195804 21.174371 L 5.034965 20.574624 L 5.874126 20.941840 L 6.713287 22.101708 L 7.552448 21.712877 L 8.391608 18.213052 L 9.230769 14.747043 L 10.069930 15.795352 L 10.909091 14.882773 L 11.748252 15.278344 L 12.587413 15.669731 L 13.426573 19.299477 L 14.265734 18.481724 L 15.104895 17.487916 L 15.944056 18.151229 L 16.783217 19.706785 L 17.622378 13.072955 L 18.461538 11.952713 L 19.300699 12.126328 L 20.139860 16.245075 L 20.979021 14.390053 L 21.818182 11.947484 L 22.657343 12.544443 L 23.496503 12.540724 L 24.335664 13.376257 L 25.174825 16.815422 L 26.013986 19.196750 L 26.853147 13.904305 L 27.692308 15.554918 L 28.531469 14.989684 L 29.370629 15.922134 L 30.209790 15.880067 L 31.048951 18.033860 L 31.888112 18.087199 L 32.727273 18.659522 L 33.566434 17.314186 L 34.405594 17.855248 L 35.244755 18.709142 L 36.083916 17.366014 L 36.923077 17.106755 L 37.762238 13.974843 L 38.601399 12.925604 L 39.440559 12.216621 L 40.279720 19.523642 L 41.118881 16.996590 L 41.958042 17.530216 L 42.797203 22.168760 L 43.636364 17.381470 L 44.475524 17.657347 L 45.314685 15.893663 L 46.153846 15.779896 L 46.993007 14.762266 L 47.832168 16.191155 L 48.671329 16.593814 L 49.510490 17.016926 L 50.349650 17.243183 L 51.188811 18.025493 L 52.027972 15.539230 L 52.867133 15.245457 L 53.706294 16.779282 L 54.545455 17.144290 L 55.384615 16.635068 L 56.223776 16.977532 L 57.062937 17.916257 L 57.902098 18.352152 L 58.741259 19.392443 L 59.580420 19.962790 L 60.419580 17.965529 L 61.258741 16.335950 L 62.097902 19.188499 L 62.937063 23.205216 L 63.776224 29.273347 L 64.615385 31.129532 L 65.454545 36.800000 L 66.293706 22.677982 L 67.132867 21.881146 L 67.972028 22.757817 L 68.811189 22.196999 L 69.650350 30.078201 L 70.489510 30.505497 L 71.328671 20.338954 L 72.167832 20.381719 L 73.006993 20.381719 L 73.846154 29.079164 L 74.685315 25.625938 L 75.524476 25.654757 L 76.363636 19.531195 L 77.202797 21.140555 L 78.041958 22.717493 L 78.881119 20.304092 L 79.720280 19.949659 L 80.559441 18.283938 L 81.398601 25.197829 L 82.237762 25.586195 L 83.076923 25.634188 L 83.916084 26.440437 L 84.755245 22.987211 L 85.594406 22.792563 L 86.433566 24.333592 L 87.272727 25.306599 L 88.111888 25.049083 L 88.951049 24.767976 L 89.790210 24.649212 L 90.629371 24.826545 L 91.468531 24.934967 L 92.307692 24.663971 L 93.146853 24.264565 L 93.986014 23.931979 L 94.825175 23.164079 L 95.664336 24.094669 L 96.503497 24.142431 L 97.342657 23.332696 L 98.181818 23.176513 L 99.020979 21.534499 L 99.860140 21.078151 L 100.699301 8.800000 L 101.538462 12.962558 L 102.377622 22.231396 L 103.216783 20.474801 L 104.055944 14.084310 L 104.895105 14.103601 L 105.734266 11.347272 L 106.573427 15.812086 L 107.412587 17.224706 L 108.251748 15.005023 L 109.090909 17.059691 L 109.930070 19.478437 L 110.769231 15.104962 L 111.608392 16.553374 L 112.447552 17.634454 L 113.286713 10.843860 L 114.125874 9.759527 L 114.965035 11.799203 L 115.804196 19.444620 L 116.643357 21.878009 L 117.482517 27.281780 L 118.321678 28.733911 L 119.160839 19.758265 L 120.000000 21.146133 L 120 40 Z"></path>
    </g>
  </svg>