<svg xmlns="http://www.w3.org/2000/svg" viewBox="0 0 120 40" width="120" height="40">
    <defs>
      <linearGradient id="color_grad" x1="0%" x2="0%" y1="0%" y2="100%">
        <stop offset="0%" style="stop-color:#16C784;stop-opacity:0.4;"></stop>
        <stop offset="100%" style="stop-color:#16C784;stop-opacity:0.0;"></stop>
      </linearGradient>
    </defs>
    <g>
      <path stroke="#16C784" stroke-width="2" stroke-linecap="round" stroke-linejoin="round" fill="none" d="M 0.000000 23.483015 L 0.839161 22.568450 L 1.678322 24.849399 L 2.517483 26.583076 L 3.356643 27.482516 L 4.195804 27.501233 L 5.034965 28.277196 L 5.874126 35.012349 L 6.713287 36.278223 L 7.552448 30.081186 L 8.391608 30.393038 L 9.230769 28.533710 L 10.069930 30.314531 L 10.909091 28.772721 L 11.748252 29.429002 L 12.587413 30.083614 L 13.426573 30.969548 L 14.265734 29.581969 L 15.104895 27.382359 L 15.944056 27.618689 L 16.783217 26.781114 L 17.622378 25.293327 L 18.461538 24.754452 L 19.300699 25.909849 L 20.139860 28.357878 L 20.979021 29.032269 L 21.818182 31.302494 L 22.657343 33.585922 L 23.496503 34.437155 L 24.335664 35.249438 L 25.174825 35.878202 L 26.013986 34.686485 L 26.853147 26.895789 L 27.692308 23.180318 L 28.531469 10.163046 L 29.370629 9.785079 L 30.209790 11.094455 L 31.048951 14.974729 L 31.888112 16.787621 L 32.727273 20.306167 L 33.566434 23.091037 L 34.405594 24.629661 L 35.244755 26.004088 L 36.083916 21.771595 L 36.923077 22.236617 L 37.762238 21.753941 L 38.601399 19.818433 L 39.440559 15.056878 L 40.279720 16.348296 L 41.118881 15.041450 L 41.958042 13.746794 L 42.797203 17.477389 L 43.636364 15.967346 L 44.475524 15.559282 L 45.314685 12.185458 L 46.153846 11.107506 L 46.993007 13.529079 L 47.832168 13.492659 L 48.671329 12.246969 L 49.510490 12.765256 L 50.349650 12.801626 L 51.188811 18.876147 L 52.027972 9.085498 L 52.867133 8.800000 L 53.706294 10.526747 L 54.545455 13.423105 L 55.384615 12.061779 L 56.223776 13.552905 L 57.062937 15.348547 L 57.902098 20.885914 L 58.741259 20.410978 L 59.580420 19.128563 L 60.419580 16.836890 L 61.258741 13.696918 L 62.097902 15.313189 L 62.937063 16.385931 L 63.776224 13.371711 L 64.615385 17.107466 L 65.454545 19.327663 L 66.293706 19.218907 L 67.132867 17.521600 L 67.972028 19.128108 L 68.811189 19.383913 L 69.650350 23.997913 L 70.489510 24.602750 L 71.328671 22.422464 L 72.167832 22.369047 L 73.006993 22.369047 L 73.846154 36.800000 L 74.685315 32.552332 L 75.524476 30.067427 L 76.363636 21.931088 L 77.202797 26.642412 L 78.041958 31.031362 L 78.881119 27.040156 L 79.720280 33.501496 L 80.559441 29.526174 L 81.398601 34.172599 L 82.237762 24.603205 L 83.076923 25.583530 L 83.916084 26.081280 L 84.755245 20.106005 L 85.594406 20.667541 L 86.433566 21.799012 L 87.272727 21.093967 L 88.111888 21.930936 L 88.951049 20.093763 L 89.790210 19.855865 L 90.629371 20.189519 L 91.468531 20.401518 L 92.307692 19.894056 L 93.146853 18.926985 L 93.986014 18.319922 L 94.825175 18.904728 L 95.664336 21.053803 L 96.503497 21.140960 L 97.342657 26.275827 L 98.181818 26.123922 L 99.020979 23.240463 L 99.860140 22.962654 L 100.699301 18.689795 L 101.538462 20.382600 L 102.377622 19.947018 L 103.216783 19.706034 L 104.055944 21.035593 L 104.895105 19.488218 L 105.734266 15.145856 L 106.573427 21.198626 L 107.412587 18.290634 L 108.251748 19.249865 L 109.090909 22.551201 L 109.930070 22.624498 L 110.769231 32.566698 L 111.608392 30.856239 L 112.447552 27.325098 L 113.286713 28.402039 L 114.125874 28.692443 L 114.965035 32.871317 L 115.804196 33.592700 L 116.643357 34.726649 L 117.482517 25.596783 L 118.321678 24.829874 L 119.160839 25.639425 L 120.000000 26.904489"></path>
      <path stroke="none" fill-opacity="0.6" fill="url(#color_grad)" d="M 0 40 L 0.000000 23.483015 L 0.839161 22.568450 L 1.678322 24.849399 L 2.517483 26.583076 L 3.356643 27.482516 L 4.195804 27.501233 L 5.034965 28.277196 L 5.874126 35.012349 L 6.713287 36.278223 L 7.552448 30.081186 L 8.391608 30.393038 L 9.230769 28.533710 L 10.069930 30.314531 L 10.909091 28.772721 L 11.748252 29.429002 L 12.587413 30.083614 L 13.426573 30.969548 L 14.265734 29.581969 L 15.104895 27.382359 L 15.944056 27.618689 L 16.783217 26.781114 L 17.622378 25.293327 L 18.461538 24.754452 L 19.300699 25.909849 L 20.139860 28.357878 L 20.979021 29.032269 L 21.818182 31.302494 L 22.657343 33.585922 L 23.496503 34.437155 L 24.335664 35.249438 L 25.174825 35.878202 L 26.013986 34.686485 L 26.853147 26.895789 L 27.692308 23.180318 L 28.531469 10.163046 L 29.370629 9.785079 L 30.209790 11.094455 L 31.048951 14.974729 L 31.888112 16.787621 L 32.727273 20.306167 L 33.566434 23.091037 L 34.405594 24.629661 L 35.244755 26.004088 L 36.083916 21.771595 L 36.923077 22.236617 L 37.762238 21.753941 L 38.601399 19.818433 L 39.440559 15.056878 L 40.279720 16.348296 L 41.118881 15.041450 L 41.958042 13.746794 L 42.797203 17.477389 L 43.636364 15.967346 L 44.475524 15.559282 L 45.314685 12.185458 L 46.153846 11.107506 L 46.993007 13.529079 L 47.832168 13.492659 L 48.671329 12.246969 L 49.510490 12.765256 L 50.349650 12.801626 L 51.188811 18.876147 L 52.027972 9.085498 L 52.867133 8.800000 L 53.706294 10.526747 L 54.545455 13.423105 L 55.384615 12.061779 L 56.223776 13.552905 L 57.062937 15.348547 L 57.902098 20.885914 L 58.741259 20.410978 L 59.580420 19.128563 L 60.419580 16.836890 L 61.258741 13.696918 L 62.097902 15.313189 L 62.937063 16.385931 L 63.776224 13.371711 L 64.615385 17.107466 L 65.454545 19.327663 L 66.293706 19.218907 L 67.132867 17.521600 L 67.972028 19.128108 L 68.811189 19.383913 L 69.650350 23.997913 L 70.489510 24.602750 L 71.328671 22.422464 L 72.167832 22.369047 L 73.006993 22.369047 L 73.846154 36.800000 L 74.685315 32.552332 L 75.524476 30.067427 L 76.363636 21.931088 L 77.202797 26.642412 L 78.041958 31.031362 L 78.881119 27.040156 L 79.720280 33.501496 L 80.559441 29.526174 L 81.398601 34.172599 L 82.237762 24.603205 L 83.076923 25.583530 L 83.916084 26.081280 L 84.755245 20.106005 L 85.594406 20.667541 L 86.433566 21.799012 L 87.272727 21.093967 L 88.111888 21.930936 L 88.951049 20.093763 L 89.790210 19.855865 L 90.629371 20.189519 L 91.468531 20.401518 L 92.307692 19.894056 L 93.146853 18.926985 L 93.986014 18.319922 L 94.825175 18.904728 L 95.664336 21.053803 L 96.503497 21.140960 L 97.342657 26.275827 L 98.181818 26.123922 L 99.020979 23.240463 L 99.860140 22.962654 L 100.699301 18.689795 L 101.538462 20.382600 L 102.377622 19.947018 L 103.216783 19.706034 L 104.055944 21.035593 L 104.895105 19.488218 L 105.734266 15.145856 L 106.573427 21.198626 L 107.412587 18.290634 L 108.251748 19.249865 L 109.090909 22.551201 L 109.930070 22.624498 L 110.769231 32.566698 L 111.608392 30.856239 L 112.447552 27.325098 L 113.286713 28.402039 L 114.125874 28.692443 L 114.965035 32.871317 L 115.804196 33.592700 L 116.643357 34.726649 L 117.482517 25.596783 L 118.321678 24.829874 L 119.160839 25.639425 L 120.000000 26.904489 L 120 40 Z"></path>
    </g>
  </svg>