<svg xmlns="http://www.w3.org/2000/svg" viewBox="0 0 120 40" width="120" height="40">
    <defs>
      <linearGradient id="color_grad" x1="0%" x2="0%" y1="0%" y2="100%">
        <stop offset="0%" style="stop-color:#EA3943;stop-opacity:0.4;"></stop>
        <stop offset="100%" style="stop-color:#EA3943;stop-opacity:0.0;"></stop>
      </linearGradient>
    </defs>
    <g>
      <path stroke="#EA3943" stroke-width="2" stroke-linecap="round" stroke-linejoin="round" fill="none" d="M 0.000000 15.911111 L 0.839161 15.911111 L 1.678322 15.911111 L 2.517483 15.022222 L 3.356643 9.048640 L 4.195804 9.244444 L 5.034965 8.800000 L 5.874126 11.429371 L 6.713287 11.466667 L 7.552448 11.466667 L 8.391608 11.466667 L 9.230769 11.466667 L 10.069930 11.768143 L 10.909091 11.911111 L 11.748252 12.336908 L 12.587413 15.022222 L 13.426573 15.022222 L 14.265734 15.022222 L 15.104895 15.482207 L 15.944056 15.911111 L 16.783217 15.466667 L 17.622378 15.883139 L 18.461538 16.560684 L 19.300699 19.022222 L 20.139860 19.022222 L 20.979021 23.466667 L 21.818182 18.214141 L 22.657343 20.311111 L 23.496503 20.355556 L 24.335664 23.911111 L 25.174825 20.311111 L 26.013986 20.311111 L 26.853147 20.311111 L 27.692308 20.885470 L 28.531469 28.800000 L 29.370629 21.244444 L 30.209790 23.482207 L 31.048951 23.911111 L 31.888112 23.771251 L 32.727273 27.911111 L 33.566434 23.466667 L 34.405594 24.237451 L 35.244755 25.521057 L 36.083916 24.355556 L 36.923077 24.355556 L 37.762238 24.800000 L 38.601399 24.800000 L 39.440559 24.800000 L 40.279720 24.355556 L 41.118881 25.113908 L 41.958042 25.244444 L 42.797203 29.039316 L 43.636364 24.800000 L 44.475524 24.800000 L 45.314685 25.244444 L 46.153846 25.688889 L 46.993007 28.800000 L 47.832168 28.800000 L 48.671329 28.800000 L 49.510490 28.800000 L 50.349650 28.800000 L 51.188811 28.800000 L 52.027972 28.800000 L 52.867133 28.800000 L 53.706294 24.800000 L 54.545455 24.355556 L 55.384615 24.355556 L 56.223776 23.911111 L 57.062937 23.911111 L 57.902098 23.911111 L 58.741259 24.051593 L 59.580420 23.911111 L 60.419580 24.355556 L 61.258741 25.077234 L 62.097902 24.355556 L 62.937063 29.288889 L 63.776224 23.386791 L 64.615385 20.013675 L 65.454545 19.911111 L 66.293706 23.292618 L 67.132867 19.911111 L 67.972028 19.618959 L 68.811189 19.022222 L 69.650350 16.800000 L 70.489510 15.466667 L 71.328671 15.466667 L 72.167832 15.466667 L 73.006993 15.466667 L 73.846154 19.377778 L 74.685315 19.377778 L 75.524476 19.377778 L 76.363636 16.533333 L 77.202797 15.466667 L 78.041958 15.466667 L 78.881119 15.466667 L 79.720280 15.466667 L 80.559441 16.800000 L 81.398601 16.044755 L 82.237762 15.466667 L 83.076923 15.466667 L 83.916084 16.800000 L 84.755245 16.800000 L 85.594406 16.800000 L 86.433566 16.800000 L 87.272727 16.800000 L 88.111888 16.800000 L 88.951049 16.800000 L 89.790210 16.800000 L 90.629371 16.800000 L 91.468531 16.800000 L 92.307692 16.800000 L 93.146853 16.800000 L 93.986014 17.244444 L 94.825175 19.911111 L 95.664336 19.911111 L 96.503497 19.911111 L 97.342657 19.466667 L 98.181818 23.466667 L 99.020979 19.377778 L 99.860140 19.183838 L 100.699301 22.417716 L 101.538462 23.500855 L 102.377622 19.022222 L 103.216783 19.022222 L 104.055944 28.800000 L 104.895105 28.800000 L 105.734266 28.800000 L 106.573427 28.800000 L 107.412587 24.790676 L 108.251748 32.355556 L 109.090909 25.098990 L 109.930070 26.444444 L 110.769231 26.646154 L 111.608392 24.800000 L 112.447552 27.435587 L 113.286713 25.169852 L 114.125874 28.800000 L 114.965035 29.918881 L 115.804196 28.800000 L 116.643357 32.995804 L 117.482517 35.121678 L 118.321678 36.800000 L 119.160839 36.585548 L 120.000000 29.688889"></path>
      <path stroke="none" fill-opacity="0.6" fill="url(#color_grad)" d="M 0 40 L 0.000000 15.911111 L 0.839161 15.911111 L 1.678322 15.911111 L 2.517483 15.022222 L 3.356643 9.048640 L 4.195804 9.244444 L 5.034965 8.800000 L 5.874126 11.429371 L 6.713287 11.466667 L 7.552448 11.466667 L 8.391608 11.466667 L 9.230769 11.466667 L 10.069930 11.768143 L 10.909091 11.911111 L 11.748252 12.336908 L 12.587413 15.022222 L 13.426573 15.022222 L 14.265734 15.022222 L 15.104895 15.482207 L 15.944056 15.911111 L 16.783217 15.466667 L 17.622378 15.883139 L 18.461538 16.560684 L 19.300699 19.022222 L 20.139860 19.022222 L 20.979021 23.466667 L 21.818182 18.214141 L 22.657343 20.311111 L 23.496503 20.355556 L 24.335664 23.911111 L 25.174825 20.311111 L 26.013986 20.311111 L 26.853147 20.311111 L 27.692308 20.885470 L 28.531469 28.800000 L 29.370629 21.244444 L 30.209790 23.482207 L 31.048951 23.911111 L 31.888112 23.771251 L 32.727273 27.911111 L 33.566434 23.466667 L 34.405594 24.237451 L 35.244755 25.521057 L 36.083916 24.355556 L 36.923077 24.355556 L 37.762238 24.800000 L 38.601399 24.800000 L 39.440559 24.800000 L 40.279720 24.355556 L 41.118881 25.113908 L 41.958042 25.244444 L 42.797203 29.039316 L 43.636364 24.800000 L 44.475524 24.800000 L 45.314685 25.244444 L 46.153846 25.688889 L 46.993007 28.800000 L 47.832168 28.800000 L 48.671329 28.800000 L 49.510490 28.800000 L 50.349650 28.800000 L 51.188811 28.800000 L 52.027972 28.800000 L 52.867133 28.800000 L 53.706294 24.800000 L 54.545455 24.355556 L 55.384615 24.355556 L 56.223776 23.911111 L 57.062937 23.911111 L 57.902098 23.911111 L 58.741259 24.051593 L 59.580420 23.911111 L 60.419580 24.355556 L 61.258741 25.077234 L 62.097902 24.355556 L 62.937063 29.288889 L 63.776224 23.386791 L 64.615385 20.013675 L 65.454545 19.911111 L 66.293706 23.292618 L 67.132867 19.911111 L 67.972028 19.618959 L 68.811189 19.022222 L 69.650350 16.800000 L 70.489510 15.466667 L 71.328671 15.466667 L 72.167832 15.466667 L 73.006993 15.466667 L 73.846154 19.377778 L 74.685315 19.377778 L 75.524476 19.377778 L 76.363636 16.533333 L 77.202797 15.466667 L 78.041958 15.466667 L 78.881119 15.466667 L 79.720280 15.466667 L 80.559441 16.800000 L 81.398601 16.044755 L 82.237762 15.466667 L 83.076923 15.466667 L 83.916084 16.800000 L 84.755245 16.800000 L 85.594406 16.800000 L 86.433566 16.800000 L 87.272727 16.800000 L 88.111888 16.800000 L 88.951049 16.800000 L 89.790210 16.800000 L 90.629371 16.800000 L 91.468531 16.800000 L 92.307692 16.800000 L 93.146853 16.800000 L 93.986014 17.244444 L 94.825175 19.911111 L 95.664336 19.911111 L 96.503497 19.911111 L 97.342657 19.466667 L 98.181818 23.466667 L 99.020979 19.377778 L 99.860140 19.183838 L 100.699301 22.417716 L 101.538462 23.500855 L 102.377622 19.022222 L 103.216783 19.022222 L 104.055944 28.800000 L 104.895105 28.800000 L 105.734266 28.800000 L 106.573427 28.800000 L 107.412587 24.790676 L 108.251748 32.355556 L 109.090909 25.098990 L 109.930070 26.444444 L 110.769231 26.646154 L 111.608392 24.800000 L 112.447552 27.435587 L 113.286713 25.169852 L 114.125874 28.800000 L 114.965035 29.918881 L 115.804196 28.800000 L 116.643357 32.995804 L 117.482517 35.121678 L 118.321678 36.800000 L 119.160839 36.585548 L 120.000000 29.688889 L 120 40 Z"></path>
    </g>
  </svg>