<svg xmlns="http://www.w3.org/2000/svg" viewBox="0 0 120 40" width="120" height="40">
    <defs>
      <linearGradient id="color_grad" x1="0%" x2="0%" y1="0%" y2="100%">
        <stop offset="0%" style="stop-color:#EA3943;stop-opacity:0.4;"></stop>
        <stop offset="100%" style="stop-color:#EA3943;stop-opacity:0.0;"></stop>
      </linearGradient>
    </defs>
    <g>
      <path stroke="#EA3943" stroke-width="2" stroke-linecap="round" stroke-linejoin="round" fill="none" d="M 0.000000 20.474528 L 0.839161 19.668969 L 1.678322 20.905042 L 2.517483 20.202118 L 3.356643 13.849332 L 4.195804 13.943063 L 5.034965 12.630105 L 5.874126 16.378029 L 6.713287 17.872795 L 7.552448 17.388136 L 8.391608 17.621080 L 9.230769 16.292119 L 10.069930 17.933558 L 10.909091 17.012971 L 11.748252 18.014896 L 12.587413 21.813837 L 13.426573 22.108627 L 14.265734 21.135579 L 15.104895 20.509181 L 15.944056 21.209578 L 16.783217 19.903598 L 17.622378 19.378871 L 18.461538 19.391866 L 19.300699 22.715052 L 20.139860 22.867381 L 20.979021 28.640693 L 21.818182 21.483432 L 22.657343 24.191048 L 23.496503 24.672579 L 24.335664 29.565251 L 25.174825 25.797955 L 26.013986 26.554542 L 26.853147 25.735026 L 27.692308 26.380195 L 28.531469 35.732379 L 29.370629 25.970617 L 30.209790 28.106943 L 31.048951 31.089616 L 31.888112 30.978559 L 32.727273 36.800000 L 33.566434 29.714210 L 34.405594 30.141355 L 35.244755 32.667405 L 36.083916 28.414607 L 36.923077 27.938010 L 37.762238 25.726242 L 38.601399 24.523980 L 39.440559 24.438190 L 40.279720 25.957743 L 41.118881 26.590759 L 41.958042 25.913584 L 42.797203 31.682204 L 43.636364 25.192131 L 44.475524 24.930911 L 45.314685 24.104175 L 46.153846 24.631789 L 46.993007 30.250126 L 47.832168 30.212706 L 48.671329 29.438070 L 49.510490 29.760775 L 50.349650 29.800481 L 51.188811 30.430249 L 52.027972 27.613019 L 52.867133 27.284418 L 53.706294 23.091902 L 54.545455 22.961593 L 55.384615 21.684250 L 56.223776 20.825629 L 57.062937 21.931512 L 57.902098 22.454434 L 58.741259 23.907689 L 59.580420 23.705667 L 60.419580 21.908170 L 61.258741 20.650319 L 62.097902 20.774612 L 62.937063 27.201636 L 63.776224 19.830201 L 64.615385 17.070365 L 65.454545 18.453592 L 66.293706 22.808543 L 67.132867 17.386933 L 67.972028 18.099483 L 68.811189 16.661268 L 69.650350 16.986740 L 70.489510 15.570064 L 71.328671 13.989989 L 72.167832 13.953411 L 73.006993 13.953411 L 73.846154 21.001299 L 74.685315 18.962556 L 75.524476 18.632872 L 76.363636 11.727566 L 77.202797 13.478739 L 78.041958 16.870629 L 78.881119 13.224137 L 79.720280 13.385609 L 80.559441 14.438672 L 81.398601 14.873156 L 82.237762 12.060618 L 83.076923 12.763542 L 83.916084 14.866298 L 84.755245 10.412080 L 85.594406 10.814078 L 86.433566 11.631549 L 87.272727 11.125352 L 88.111888 11.719745 L 88.951049 10.405102 L 89.790210 10.254939 L 90.629371 10.482349 L 91.468531 10.632631 L 92.307692 10.267332 L 93.146853 9.756564 L 93.986014 9.920924 L 94.825175 12.491614 L 95.664336 12.938010 L 96.503497 13.010805 L 97.342657 11.176850 L 98.181818 16.543713 L 99.020979 9.255902 L 99.860140 8.800000 L 100.699301 10.148213 L 101.538462 16.153146 L 102.377622 10.066875 L 103.216783 9.893009 L 104.055944 24.023198 L 104.895105 22.983732 L 105.734266 20.088293 L 106.573427 17.062062 L 107.412587 16.196222 L 108.251748 25.136542 L 109.090909 17.658982 L 109.930070 17.607123 L 110.769231 16.701095 L 111.608392 12.894333 L 112.447552 14.009722 L 113.286713 11.615546 L 114.125874 16.804452 L 114.965035 19.478739 L 115.804196 18.442522 L 116.643357 25.052316 L 117.482517 26.907207 L 118.321678 30.991072 L 119.160839 30.485958 L 120.000000 22.642498"></path>
      <path stroke="none" fill-opacity="0.6" fill="url(#color_grad)" d="M 0 40 L 0.000000 20.474528 L 0.839161 19.668969 L 1.678322 20.905042 L 2.517483 20.202118 L 3.356643 13.849332 L 4.195804 13.943063 L 5.034965 12.630105 L 5.874126 16.378029 L 6.713287 17.872795 L 7.552448 17.388136 L 8.391608 17.621080 L 9.230769 16.292119 L 10.069930 17.933558 L 10.909091 17.012971 L 11.748252 18.014896 L 12.587413 21.813837 L 13.426573 22.108627 L 14.265734 21.135579 L 15.104895 20.509181 L 15.944056 21.209578 L 16.783217 19.903598 L 17.622378 19.378871 L 18.461538 19.391866 L 19.300699 22.715052 L 20.139860 22.867381 L 20.979021 28.640693 L 21.818182 21.483432 L 22.657343 24.191048 L 23.496503 24.672579 L 24.335664 29.565251 L 25.174825 25.797955 L 26.013986 26.554542 L 26.853147 25.735026 L 27.692308 26.380195 L 28.531469 35.732379 L 29.370629 25.970617 L 30.209790 28.106943 L 31.048951 31.089616 L 31.888112 30.978559 L 32.727273 36.800000 L 33.566434 29.714210 L 34.405594 30.141355 L 35.244755 32.667405 L 36.083916 28.414607 L 36.923077 27.938010 L 37.762238 25.726242 L 38.601399 24.523980 L 39.440559 24.438190 L 40.279720 25.957743 L 41.118881 26.590759 L 41.958042 25.913584 L 42.797203 31.682204 L 43.636364 25.192131 L 44.475524 24.930911 L 45.314685 24.104175 L 46.153846 24.631789 L 46.993007 30.250126 L 47.832168 30.212706 L 48.671329 29.438070 L 49.510490 29.760775 L 50.349650 29.800481 L 51.188811 30.430249 L 52.027972 27.613019 L 52.867133 27.284418 L 53.706294 23.091902 L 54.545455 22.961593 L 55.384615 21.684250 L 56.223776 20.825629 L 57.062937 21.931512 L 57.902098 22.454434 L 58.741259 23.907689 L 59.580420 23.705667 L 60.419580 21.908170 L 61.258741 20.650319 L 62.097902 20.774612 L 62.937063 27.201636 L 63.776224 19.830201 L 64.615385 17.070365 L 65.454545 18.453592 L 66.293706 22.808543 L 67.132867 17.386933 L 67.972028 18.099483 L 68.811189 16.661268 L 69.650350 16.986740 L 70.489510 15.570064 L 71.328671 13.989989 L 72.167832 13.953411 L 73.006993 13.953411 L 73.846154 21.001299 L 74.685315 18.962556 L 75.524476 18.632872 L 76.363636 11.727566 L 77.202797 13.478739 L 78.041958 16.870629 L 78.881119 13.224137 L 79.720280 13.385609 L 80.559441 14.438672 L 81.398601 14.873156 L 82.237762 12.060618 L 83.076923 12.763542 L 83.916084 14.866298 L 84.755245 10.412080 L 85.594406 10.814078 L 86.433566 11.631549 L 87.272727 11.125352 L 88.111888 11.719745 L 88.951049 10.405102 L 89.790210 10.254939 L 90.629371 10.482349 L 91.468531 10.632631 L 92.307692 10.267332 L 93.146853 9.756564 L 93.986014 9.920924 L 94.825175 12.491614 L 95.664336 12.938010 L 96.503497 13.010805 L 97.342657 11.176850 L 98.181818 16.543713 L 99.020979 9.255902 L 99.860140 8.800000 L 100.699301 10.148213 L 101.538462 16.153146 L 102.377622 10.066875 L 103.216783 9.893009 L 104.055944 24.023198 L 104.895105 22.983732 L 105.734266 20.088293 L 106.573427 17.062062 L 107.412587 16.196222 L 108.251748 25.136542 L 109.090909 17.658982 L 109.930070 17.607123 L 110.769231 16.701095 L 111.608392 12.894333 L 112.447552 14.009722 L 113.286713 11.615546 L 114.125874 16.804452 L 114.965035 19.478739 L 115.804196 18.442522 L 116.643357 25.052316 L 117.482517 26.907207 L 118.321678 30.991072 L 119.160839 30.485958 L 120.000000 22.642498 L 120 40 Z"></path>
    </g>
  </svg>