<svg xmlns="http://www.w3.org/2000/svg" viewBox="0 0 120 40" width="120" height="40">
    <defs>
      <linearGradient id="color_grad" x1="0%" x2="0%" y1="0%" y2="100%">
        <stop offset="0%" style="stop-color:#EA3943;stop-opacity:0.4;"></stop>
        <stop offset="100%" style="stop-color:#EA3943;stop-opacity:0.0;"></stop>
      </linearGradient>
    </defs>
    <g>
      <path stroke="#EA3943" stroke-width="2" stroke-linecap="round" stroke-linejoin="round" fill="none" d="M 0.000000 18.986644 L 0.839161 18.700438 L 1.678322 20.747069 L 2.517483 20.996941 L 3.356643 22.418047 L 4.195804 22.251179 L 5.034965 22.073401 L 5.874126 22.127503 L 6.713287 22.996838 L 7.552448 22.714811 L 8.391608 22.847260 L 9.230769 22.055601 L 10.069930 23.543027 L 10.909091 22.891856 L 11.748252 23.173818 L 12.587413 23.445509 L 13.426573 23.625425 L 14.265734 23.036171 L 15.104895 22.306111 L 15.944056 22.408094 L 16.783217 21.953107 L 17.622378 21.324743 L 18.461538 20.795525 L 19.300699 20.928324 L 20.139860 21.015921 L 20.979021 21.481117 L 21.818182 20.794313 L 22.657343 20.069803 L 23.496503 20.480354 L 24.335664 21.491420 L 25.174825 23.366334 L 26.013986 22.587659 L 26.853147 22.080770 L 27.692308 26.924667 L 28.531469 28.035643 L 29.370629 21.699822 L 30.209790 21.045907 L 31.048951 22.826620 L 31.888112 23.919573 L 32.727273 22.919226 L 33.566434 21.937189 L 34.405594 21.754371 L 35.244755 22.172099 L 36.083916 20.385707 L 36.923077 20.079692 L 37.762238 18.281179 L 38.601399 18.130292 L 39.440559 18.075807 L 40.279720 19.415697 L 41.118881 19.192270 L 41.958042 18.641296 L 42.797203 19.191983 L 43.636364 18.562408 L 44.475524 18.387182 L 45.314685 18.266058 L 46.153846 18.226247 L 46.993007 19.227424 L 47.832168 19.209911 L 48.671329 17.463809 L 49.510490 18.908585 L 50.349650 18.926704 L 51.188811 19.349473 L 52.027972 17.601616 L 52.867133 17.276684 L 53.706294 17.987381 L 54.545455 18.424313 L 55.384615 17.622000 L 56.223776 17.450187 L 57.062937 18.549552 L 57.902098 19.254858 L 58.741259 21.429726 L 59.580420 22.145846 L 60.419580 20.731948 L 61.258741 23.289392 L 62.097902 20.332467 L 62.937063 20.426507 L 63.776224 16.758949 L 64.615385 15.683988 L 65.454545 16.646088 L 66.293706 16.601587 L 67.132867 15.707530 L 67.972028 15.276372 L 68.811189 14.858069 L 69.650350 15.352262 L 70.489510 14.329839 L 71.328671 13.787000 L 72.167832 13.763521 L 73.006993 13.763521 L 73.846154 14.580062 L 74.685315 13.800940 L 75.524476 14.580604 L 76.363636 12.570020 L 77.202797 14.534987 L 78.041958 20.117813 L 78.881119 17.906036 L 79.720280 18.015006 L 80.559441 17.586176 L 81.398601 18.451077 L 82.237762 17.206983 L 83.076923 21.709966 L 83.916084 12.965929 L 84.755245 10.143654 L 85.594406 10.401405 L 86.433566 11.975981 L 87.272727 13.078855 L 88.111888 14.373957 L 88.951049 15.131355 L 89.790210 15.028989 L 90.629371 10.184071 L 91.468531 10.278399 L 92.307692 10.048911 L 93.146853 9.721970 L 93.986014 9.444792 L 94.825175 8.800000 L 95.664336 9.097275 L 96.503497 9.418219 L 97.342657 12.602431 L 98.181818 9.893144 L 99.020979 10.688663 L 99.860140 9.424121 L 100.699301 8.983424 L 101.538462 13.893003 L 102.377622 13.877500 L 103.216783 12.969056 L 104.055944 26.570419 L 104.895105 21.276064 L 105.734266 19.056760 L 106.573427 24.025002 L 107.412587 25.175247 L 108.251748 23.372491 L 109.090909 23.387420 L 109.930070 23.124788 L 110.769231 24.488730 L 111.608392 23.763041 L 112.447552 25.770243 L 113.286713 27.308007 L 114.125874 32.887132 L 114.965035 33.286008 L 115.804196 34.065066 L 116.643357 35.642195 L 117.482517 35.034311 L 118.321678 36.029172 L 119.160839 35.905209 L 120.000000 36.800000"></path>
      <path stroke="none" fill-opacity="0.6" fill="url(#color_grad)" d="M 0 40 L 0.000000 18.986644 L 0.839161 18.700438 L 1.678322 20.747069 L 2.517483 20.996941 L 3.356643 22.418047 L 4.195804 22.251179 L 5.034965 22.073401 L 5.874126 22.127503 L 6.713287 22.996838 L 7.552448 22.714811 L 8.391608 22.847260 L 9.230769 22.055601 L 10.069930 23.543027 L 10.909091 22.891856 L 11.748252 23.173818 L 12.587413 23.445509 L 13.426573 23.625425 L 14.265734 23.036171 L 15.104895 22.306111 L 15.944056 22.408094 L 16.783217 21.953107 L 17.622378 21.324743 L 18.461538 20.795525 L 19.300699 20.928324 L 20.139860 21.015921 L 20.979021 21.481117 L 21.818182 20.794313 L 22.657343 20.069803 L 23.496503 20.480354 L 24.335664 21.491420 L 25.174825 23.366334 L 26.013986 22.587659 L 26.853147 22.080770 L 27.692308 26.924667 L 28.531469 28.035643 L 29.370629 21.699822 L 30.209790 21.045907 L 31.048951 22.826620 L 31.888112 23.919573 L 32.727273 22.919226 L 33.566434 21.937189 L 34.405594 21.754371 L 35.244755 22.172099 L 36.083916 20.385707 L 36.923077 20.079692 L 37.762238 18.281179 L 38.601399 18.130292 L 39.440559 18.075807 L 40.279720 19.415697 L 41.118881 19.192270 L 41.958042 18.641296 L 42.797203 19.191983 L 43.636364 18.562408 L 44.475524 18.387182 L 45.314685 18.266058 L 46.153846 18.226247 L 46.993007 19.227424 L 47.832168 19.209911 L 48.671329 17.463809 L 49.510490 18.908585 L 50.349650 18.926704 L 51.188811 19.349473 L 52.027972 17.601616 L 52.867133 17.276684 L 53.706294 17.987381 L 54.545455 18.424313 L 55.384615 17.622000 L 56.223776 17.450187 L 57.062937 18.549552 L 57.902098 19.254858 L 58.741259 21.429726 L 59.580420 22.145846 L 60.419580 20.731948 L 61.258741 23.289392 L 62.097902 20.332467 L 62.937063 20.426507 L 63.776224 16.758949 L 64.615385 15.683988 L 65.454545 16.646088 L 66.293706 16.601587 L 67.132867 15.707530 L 67.972028 15.276372 L 68.811189 14.858069 L 69.650350 15.352262 L 70.489510 14.329839 L 71.328671 13.787000 L 72.167832 13.763521 L 73.006993 13.763521 L 73.846154 14.580062 L 74.685315 13.800940 L 75.524476 14.580604 L 76.363636 12.570020 L 77.202797 14.534987 L 78.041958 20.117813 L 78.881119 17.906036 L 79.720280 18.015006 L 80.559441 17.586176 L 81.398601 18.451077 L 82.237762 17.206983 L 83.076923 21.709966 L 83.916084 12.965929 L 84.755245 10.143654 L 85.594406 10.401405 L 86.433566 11.975981 L 87.272727 13.078855 L 88.111888 14.373957 L 88.951049 15.131355 L 89.790210 15.028989 L 90.629371 10.184071 L 91.468531 10.278399 L 92.307692 10.048911 L 93.146853 9.721970 L 93.986014 9.444792 L 94.825175 8.800000 L 95.664336 9.097275 L 96.503497 9.418219 L 97.342657 12.602431 L 98.181818 9.893144 L 99.020979 10.688663 L 99.860140 9.424121 L 100.699301 8.983424 L 101.538462 13.893003 L 102.377622 13.877500 L 103.216783 12.969056 L 104.055944 26.570419 L 104.895105 21.276064 L 105.734266 19.056760 L 106.573427 24.025002 L 107.412587 25.175247 L 108.251748 23.372491 L 109.090909 23.387420 L 109.930070 23.124788 L 110.769231 24.488730 L 111.608392 23.763041 L 112.447552 25.770243 L 113.286713 27.308007 L 114.125874 32.887132 L 114.965035 33.286008 L 115.804196 34.065066 L 116.643357 35.642195 L 117.482517 35.034311 L 118.321678 36.029172 L 119.160839 35.905209 L 120.000000 36.800000 L 120 40 Z"></path>
    </g>
  </svg>