<svg xmlns="http://www.w3.org/2000/svg" viewBox="0 0 120 40" width="120" height="40">
    <defs>
      <linearGradient id="color_grad" x1="0%" x2="0%" y1="0%" y2="100%">
        <stop offset="0%" style="stop-color:#EA3943;stop-opacity:0.4;"></stop>
        <stop offset="100%" style="stop-color:#EA3943;stop-opacity:0.0;"></stop>
      </linearGradient>
    </defs>
    <g>
      <path stroke="#EA3943" stroke-width="2" stroke-linecap="round" stroke-linejoin="round" fill="none" d="M 0.000000 10.736170 L 0.839161 10.944473 L 1.678322 12.225532 L 2.517483 12.225532 L 3.356643 12.987918 L 4.195804 12.910847 L 5.034965 13.180598 L 5.874126 12.967088 L 6.713287 12.970213 L 7.552448 12.970213 L 8.391608 12.970213 L 9.230769 12.970213 L 10.069930 13.714894 L 10.909091 13.714894 L 11.748252 13.714894 L 12.587413 13.714894 L 13.426573 13.714894 L 14.265734 13.714894 L 15.104895 13.714894 L 15.944056 13.714894 L 16.783217 13.714894 L 17.622378 13.714894 L 18.461538 13.714894 L 19.300699 13.714894 L 20.139860 13.714894 L 20.979021 14.089838 L 21.818182 13.714894 L 22.657343 12.970213 L 23.496503 13.106651 L 24.335664 13.872162 L 25.174825 15.266746 L 26.013986 14.012766 L 26.853147 14.012766 L 27.692308 18.927660 L 28.531469 20.417021 L 29.370629 14.238774 L 30.209790 14.012766 L 31.048951 14.228359 L 31.888112 15.292784 L 32.727273 13.863830 L 33.566434 13.863830 L 34.405594 14.022140 L 35.244755 13.863830 L 36.083916 13.863830 L 36.923077 13.863830 L 37.762238 13.863830 L 38.601399 14.459574 L 39.440559 14.459574 L 40.279720 14.459574 L 41.118881 14.466136 L 41.958042 14.459574 L 42.797203 14.459574 L 43.636364 14.459574 L 44.475524 14.459574 L 45.314685 15.204255 L 46.153846 15.204255 L 46.993007 15.204255 L 47.832168 15.204255 L 48.671329 14.013807 L 49.510490 15.204255 L 50.349650 15.204255 L 51.188811 15.204255 L 52.027972 15.304240 L 52.867133 15.204255 L 53.706294 15.204255 L 54.545455 15.353191 L 55.384615 15.353191 L 56.223776 15.353191 L 57.062937 15.733343 L 57.902098 16.097872 L 58.741259 17.438298 L 59.580420 18.130903 L 60.419580 18.193394 L 61.258741 21.906383 L 62.097902 18.480851 L 62.937063 18.629787 L 63.776224 14.863681 L 64.615385 12.821277 L 65.454545 12.821277 L 66.293706 12.821277 L 67.132867 12.568189 L 67.972028 11.480851 L 68.811189 11.480851 L 69.650350 9.991489 L 70.489510 8.800000 L 71.328671 9.246809 L 72.167832 9.246809 L 73.006993 9.246809 L 73.846154 8.800000 L 74.685315 9.313465 L 75.524476 10.289362 L 76.363636 10.289362 L 77.202797 10.289362 L 78.041958 13.714894 L 78.881119 13.714894 L 79.720280 13.714894 L 80.559441 13.714894 L 81.398601 13.714894 L 82.237762 13.714894 L 83.076923 17.661702 L 83.916084 8.978723 L 84.755245 8.978723 L 85.594406 8.978723 L 86.433566 9.991489 L 87.272727 11.345455 L 88.111888 12.224490 L 88.951049 13.714894 L 89.790210 13.714894 L 90.629371 8.978723 L 91.468531 8.978723 L 92.307692 8.978723 L 93.146853 8.978723 L 93.986014 8.978723 L 94.825175 8.978723 L 95.664336 8.978723 L 96.503497 9.243684 L 97.342657 12.970213 L 98.181818 10.451838 L 99.020979 12.235947 L 99.860140 11.182979 L 100.699301 12.582770 L 101.538462 14.459574 L 102.377622 14.459574 L 103.216783 13.714894 L 104.055944 25.905788 L 104.895105 21.547061 L 105.734266 21.161702 L 106.573427 25.098616 L 107.412587 25.629787 L 108.251748 25.034043 L 109.090909 23.693617 L 109.930070 24.076893 L 110.769231 26.374468 L 111.608392 26.374468 L 112.447552 29.519833 L 113.286713 30.506145 L 114.125874 35.462699 L 114.965035 35.310638 L 115.804196 35.758488 L 116.643357 36.800000 L 117.482517 36.800000 L 118.321678 36.800000 L 119.160839 36.800000 L 120.000000 36.800000"></path>
      <path stroke="none" fill-opacity="0.6" fill="url(#color_grad)" d="M 0 40 L 0.000000 10.736170 L 0.839161 10.944473 L 1.678322 12.225532 L 2.517483 12.225532 L 3.356643 12.987918 L 4.195804 12.910847 L 5.034965 13.180598 L 5.874126 12.967088 L 6.713287 12.970213 L 7.552448 12.970213 L 8.391608 12.970213 L 9.230769 12.970213 L 10.069930 13.714894 L 10.909091 13.714894 L 11.748252 13.714894 L 12.587413 13.714894 L 13.426573 13.714894 L 14.265734 13.714894 L 15.104895 13.714894 L 15.944056 13.714894 L 16.783217 13.714894 L 17.622378 13.714894 L 18.461538 13.714894 L 19.300699 13.714894 L 20.139860 13.714894 L 20.979021 14.089838 L 21.818182 13.714894 L 22.657343 12.970213 L 23.496503 13.106651 L 24.335664 13.872162 L 25.174825 15.266746 L 26.013986 14.012766 L 26.853147 14.012766 L 27.692308 18.927660 L 28.531469 20.417021 L 29.370629 14.238774 L 30.209790 14.012766 L 31.048951 14.228359 L 31.888112 15.292784 L 32.727273 13.863830 L 33.566434 13.863830 L 34.405594 14.022140 L 35.244755 13.863830 L 36.083916 13.863830 L 36.923077 13.863830 L 37.762238 13.863830 L 38.601399 14.459574 L 39.440559 14.459574 L 40.279720 14.459574 L 41.118881 14.466136 L 41.958042 14.459574 L 42.797203 14.459574 L 43.636364 14.459574 L 44.475524 14.459574 L 45.314685 15.204255 L 46.153846 15.204255 L 46.993007 15.204255 L 47.832168 15.204255 L 48.671329 14.013807 L 49.510490 15.204255 L 50.349650 15.204255 L 51.188811 15.204255 L 52.027972 15.304240 L 52.867133 15.204255 L 53.706294 15.204255 L 54.545455 15.353191 L 55.384615 15.353191 L 56.223776 15.353191 L 57.062937 15.733343 L 57.902098 16.097872 L 58.741259 17.438298 L 59.580420 18.130903 L 60.419580 18.193394 L 61.258741 21.906383 L 62.097902 18.480851 L 62.937063 18.629787 L 63.776224 14.863681 L 64.615385 12.821277 L 65.454545 12.821277 L 66.293706 12.821277 L 67.132867 12.568189 L 67.972028 11.480851 L 68.811189 11.480851 L 69.650350 9.991489 L 70.489510 8.800000 L 71.328671 9.246809 L 72.167832 9.246809 L 73.006993 9.246809 L 73.846154 8.800000 L 74.685315 9.313465 L 75.524476 10.289362 L 76.363636 10.289362 L 77.202797 10.289362 L 78.041958 13.714894 L 78.881119 13.714894 L 79.720280 13.714894 L 80.559441 13.714894 L 81.398601 13.714894 L 82.237762 13.714894 L 83.076923 17.661702 L 83.916084 8.978723 L 84.755245 8.978723 L 85.594406 8.978723 L 86.433566 9.991489 L 87.272727 11.345455 L 88.111888 12.224490 L 88.951049 13.714894 L 89.790210 13.714894 L 90.629371 8.978723 L 91.468531 8.978723 L 92.307692 8.978723 L 93.146853 8.978723 L 93.986014 8.978723 L 94.825175 8.978723 L 95.664336 8.978723 L 96.503497 9.243684 L 97.342657 12.970213 L 98.181818 10.451838 L 99.020979 12.235947 L 99.860140 11.182979 L 100.699301 12.582770 L 101.538462 14.459574 L 102.377622 14.459574 L 103.216783 13.714894 L 104.055944 25.905788 L 104.895105 21.547061 L 105.734266 21.161702 L 106.573427 25.098616 L 107.412587 25.629787 L 108.251748 25.034043 L 109.090909 23.693617 L 109.930070 24.076893 L 110.769231 26.374468 L 111.608392 26.374468 L 112.447552 29.519833 L 113.286713 30.506145 L 114.125874 35.462699 L 114.965035 35.310638 L 115.804196 35.758488 L 116.643357 36.800000 L 117.482517 36.800000 L 118.321678 36.800000 L 119.160839 36.800000 L 120.000000 36.800000 L 120 40 Z"></path>
    </g>
  </svg>