<svg xmlns="http://www.w3.org/2000/svg" viewBox="0 0 120 40" width="120" height="40">
    <defs>
      <linearGradient id="color_grad" x1="0%" x2="0%" y1="0%" y2="100%">
        <stop offset="0%" style="stop-color:#888888;stop-opacity:0.4;"></stop>
        <stop offset="100%" style="stop-color:#888888;stop-opacity:0.0;"></stop>
      </linearGradient>
    </defs>
    <g>
      <path stroke="#888888" stroke-width="2" stroke-linecap="round" stroke-linejoin="round" fill="none" d="M 0.000000 17.458462 L 0.839161 17.544615 L 1.678322 18.110941 L 2.517483 17.544615 L 3.356643 17.501538 L 4.195804 23.876923 L 5.034965 23.876923 L 5.874126 23.876923 L 6.713287 23.876923 L 7.552448 23.876923 L 8.391608 23.876923 L 9.230769 21.723077 L 10.069930 21.723077 L 10.909091 21.723077 L 11.748252 21.723077 L 12.587413 21.723077 L 13.426573 21.723077 L 14.265734 21.723077 L 15.104895 21.723077 L 15.944056 21.723077 L 16.783217 21.723077 L 17.622378 21.766154 L 18.461538 21.766154 L 19.300699 21.766154 L 20.139860 21.766154 L 20.979021 21.766154 L 21.818182 21.723077 L 22.657343 21.723077 L 23.496503 21.723077 L 24.335664 21.723077 L 25.174825 21.723077 L 26.013986 21.723077 L 26.853147 15.577838 L 27.692308 8.800000 L 28.531469 12.053362 L 29.370629 8.800000 L 30.209790 8.800000 L 31.048951 8.800000 L 31.888112 8.800000 L 32.727273 8.800000 L 33.566434 8.800000 L 34.405594 8.800000 L 35.244755 8.800000 L 36.083916 17.415385 L 36.923077 11.815385 L 37.762238 13.107692 L 38.601399 13.107692 L 39.440559 13.107692 L 40.279720 14.400000 L 41.118881 16.843034 L 41.958042 15.692308 L 42.797203 17.846154 L 43.636364 17.846154 L 44.475524 17.846154 L 45.314685 18.322109 L 46.153846 18.707692 L 46.993007 18.707692 L 47.832168 19.138462 L 48.671329 19.138462 L 49.510490 21.958042 L 50.349650 26.030769 L 51.188811 26.030769 L 52.027972 26.030769 L 52.867133 26.030769 L 53.706294 26.461538 L 54.545455 26.461538 L 55.384615 26.461538 L 56.223776 26.461538 L 57.062937 26.461538 L 57.902098 26.461538 L 58.741259 26.461538 L 59.580420 26.461538 L 60.419580 26.461538 L 61.258741 26.461538 L 62.097902 26.461538 L 62.937063 26.482625 L 63.776224 27.128176 L 64.615385 28.217751 L 65.454545 29.476923 L 66.293706 33.353846 L 67.132867 33.353846 L 67.972028 33.353846 L 68.811189 33.353846 L 69.650350 29.684777 L 70.489510 27.323077 L 71.328671 27.323077 L 72.167832 27.323077 L 73.006993 27.323077 L 73.846154 28.250888 L 74.685315 32.492308 L 75.524476 30.338462 L 76.363636 30.338462 L 77.202797 19.319204 L 78.041958 17.846154 L 78.881119 18.061538 L 79.720280 18.061538 L 80.559441 26.073846 L 81.398601 26.030769 L 82.237762 26.030769 L 83.076923 26.030769 L 83.916084 18.172996 L 84.755245 18.061538 L 85.594406 18.061538 L 86.433566 18.061538 L 87.272727 18.061538 L 88.111888 18.061538 L 88.951049 22.240000 L 89.790210 22.240000 L 90.629371 22.240000 L 91.468531 22.240000 L 92.307692 22.240000 L 93.146853 22.240000 L 93.986014 18.061538 L 94.825175 18.061538 L 95.664336 18.061538 L 96.503497 18.061538 L 97.342657 18.061538 L 98.181818 22.584615 L 99.020979 22.584615 L 99.860140 22.584615 L 100.699301 22.584615 L 101.538462 19.608994 L 102.377622 19.784615 L 103.216783 19.836428 L 104.055944 25.985282 L 104.895105 30.338462 L 105.734266 30.606563 L 106.573427 30.769231 L 107.412587 30.812308 L 108.251748 17.415385 L 109.090909 31.117762 L 109.930070 34.646154 L 110.769231 35.640237 L 111.608392 36.800000 L 112.447552 30.812308 L 113.286713 25.212308 L 114.125874 21.723077 L 114.965035 32.447122 L 115.804196 22.153846 L 116.643357 22.153846 L 117.482517 22.153846 L 118.321678 22.196923 L 119.160839 23.641958 L 120.000000 27.323077"></path>
      <path stroke="none" fill-opacity="0.6" fill="url(#color_grad)" d="M 0 40 L 0.000000 17.458462 L 0.839161 17.544615 L 1.678322 18.110941 L 2.517483 17.544615 L 3.356643 17.501538 L 4.195804 23.876923 L 5.034965 23.876923 L 5.874126 23.876923 L 6.713287 23.876923 L 7.552448 23.876923 L 8.391608 23.876923 L 9.230769 21.723077 L 10.069930 21.723077 L 10.909091 21.723077 L 11.748252 21.723077 L 12.587413 21.723077 L 13.426573 21.723077 L 14.265734 21.723077 L 15.104895 21.723077 L 15.944056 21.723077 L 16.783217 21.723077 L 17.622378 21.766154 L 18.461538 21.766154 L 19.300699 21.766154 L 20.139860 21.766154 L 20.979021 21.766154 L 21.818182 21.723077 L 22.657343 21.723077 L 23.496503 21.723077 L 24.335664 21.723077 L 25.174825 21.723077 L 26.013986 21.723077 L 26.853147 15.577838 L 27.692308 8.800000 L 28.531469 12.053362 L 29.370629 8.800000 L 30.209790 8.800000 L 31.048951 8.800000 L 31.888112 8.800000 L 32.727273 8.800000 L 33.566434 8.800000 L 34.405594 8.800000 L 35.244755 8.800000 L 36.083916 17.415385 L 36.923077 11.815385 L 37.762238 13.107692 L 38.601399 13.107692 L 39.440559 13.107692 L 40.279720 14.400000 L 41.118881 16.843034 L 41.958042 15.692308 L 42.797203 17.846154 L 43.636364 17.846154 L 44.475524 17.846154 L 45.314685 18.322109 L 46.153846 18.707692 L 46.993007 18.707692 L 47.832168 19.138462 L 48.671329 19.138462 L 49.510490 21.958042 L 50.349650 26.030769 L 51.188811 26.030769 L 52.027972 26.030769 L 52.867133 26.030769 L 53.706294 26.461538 L 54.545455 26.461538 L 55.384615 26.461538 L 56.223776 26.461538 L 57.062937 26.461538 L 57.902098 26.461538 L 58.741259 26.461538 L 59.580420 26.461538 L 60.419580 26.461538 L 61.258741 26.461538 L 62.097902 26.461538 L 62.937063 26.482625 L 63.776224 27.128176 L 64.615385 28.217751 L 65.454545 29.476923 L 66.293706 33.353846 L 67.132867 33.353846 L 67.972028 33.353846 L 68.811189 33.353846 L 69.650350 29.684777 L 70.489510 27.323077 L 71.328671 27.323077 L 72.167832 27.323077 L 73.006993 27.323077 L 73.846154 28.250888 L 74.685315 32.492308 L 75.524476 30.338462 L 76.363636 30.338462 L 77.202797 19.319204 L 78.041958 17.846154 L 78.881119 18.061538 L 79.720280 18.061538 L 80.559441 26.073846 L 81.398601 26.030769 L 82.237762 26.030769 L 83.076923 26.030769 L 83.916084 18.172996 L 84.755245 18.061538 L 85.594406 18.061538 L 86.433566 18.061538 L 87.272727 18.061538 L 88.111888 18.061538 L 88.951049 22.240000 L 89.790210 22.240000 L 90.629371 22.240000 L 91.468531 22.240000 L 92.307692 22.240000 L 93.146853 22.240000 L 93.986014 18.061538 L 94.825175 18.061538 L 95.664336 18.061538 L 96.503497 18.061538 L 97.342657 18.061538 L 98.181818 22.584615 L 99.020979 22.584615 L 99.860140 22.584615 L 100.699301 22.584615 L 101.538462 19.608994 L 102.377622 19.784615 L 103.216783 19.836428 L 104.055944 25.985282 L 104.895105 30.338462 L 105.734266 30.606563 L 106.573427 30.769231 L 107.412587 30.812308 L 108.251748 17.415385 L 109.090909 31.117762 L 109.930070 34.646154 L 110.769231 35.640237 L 111.608392 36.800000 L 112.447552 30.812308 L 113.286713 25.212308 L 114.125874 21.723077 L 114.965035 32.447122 L 115.804196 22.153846 L 116.643357 22.153846 L 117.482517 22.153846 L 118.321678 22.196923 L 119.160839 23.641958 L 120.000000 27.323077 L 120 40 Z"></path>
    </g>
  </svg>