<svg xmlns="http://www.w3.org/2000/svg" viewBox="0 0 120 40" width="120" height="40">
    <defs>
      <linearGradient id="color_grad" x1="0%" x2="0%" y1="0%" y2="100%">
        <stop offset="0%" style="stop-color:#16C784;stop-opacity:0.4;"></stop>
        <stop offset="100%" style="stop-color:#16C784;stop-opacity:0.0;"></stop>
      </linearGradient>
    </defs>
    <g>
      <path stroke="#16C784" stroke-width="2" stroke-linecap="round" stroke-linejoin="round" fill="none" d="M 0.000000 28.827320 L 0.839161 28.030344 L 1.678322 29.813082 L 2.517483 29.830804 L 3.356643 30.987383 L 4.195804 35.607471 L 5.034965 34.832250 L 5.874126 35.295832 L 6.713287 36.800000 L 7.552448 36.311233 L 8.391608 36.543424 L 9.230769 33.542382 L 10.069930 34.873145 L 10.909091 33.721517 L 11.748252 34.215959 L 12.587413 34.703471 L 13.426573 35.019598 L 14.265734 33.977322 L 15.104895 32.685582 L 15.944056 32.859008 L 16.783217 32.055713 L 17.622378 30.977480 L 18.461538 30.042229 L 19.300699 30.270492 L 20.139860 30.430867 L 20.979021 30.587524 L 21.818182 30.010935 L 22.657343 30.047215 L 23.496503 30.529993 L 24.335664 30.963587 L 25.174825 31.820619 L 26.013986 32.658665 L 26.853147 27.091095 L 27.692308 21.852009 L 28.531469 23.589889 L 29.370629 20.833081 L 30.209790 20.038707 L 31.048951 22.946849 L 31.888112 23.014023 L 32.727273 23.790983 L 33.566434 21.969672 L 34.405594 21.331085 L 35.244755 22.399864 L 36.083916 25.702781 L 36.923077 20.850642 L 37.762238 18.556596 L 38.601399 17.147901 L 39.440559 17.055711 L 40.279720 20.515201 L 41.118881 22.000278 L 41.958042 20.115447 L 42.797203 22.799821 L 43.636364 21.657977 L 44.475524 21.346557 L 45.314685 20.098895 L 46.153846 20.335301 L 46.993007 22.146359 L 47.832168 22.457226 L 48.671329 21.528406 L 49.510490 24.135668 L 50.349650 27.362694 L 51.188811 28.105064 L 52.027972 24.836134 L 52.867133 24.449361 L 53.706294 26.048567 L 54.545455 26.546613 L 55.384615 25.129671 L 56.223776 24.824309 L 57.062937 26.061976 L 57.902098 26.644520 L 58.741259 28.048642 L 59.580420 28.045948 L 60.419580 25.372971 L 61.258741 22.894024 L 62.097902 24.109053 L 62.937063 24.008404 L 63.776224 25.042600 L 64.615385 27.750195 L 65.454545 30.380371 L 66.293706 33.349782 L 67.132867 32.290934 L 67.972028 33.455880 L 68.811189 32.754888 L 69.650350 33.265642 L 70.489510 31.751025 L 71.328671 30.082457 L 72.167832 30.042846 L 73.006993 30.042846 L 73.846154 32.889257 L 74.685315 34.024319 L 75.524476 31.982220 L 76.363636 28.626373 L 77.202797 23.301753 L 78.041958 25.826209 L 78.881119 22.032063 L 79.720280 22.221157 L 80.559441 27.744683 L 81.398601 29.216505 L 82.237762 27.050515 L 83.076923 27.795789 L 83.916084 22.014683 L 84.755245 17.054638 L 85.594406 17.498099 L 86.433566 18.383710 L 87.272727 17.833702 L 88.111888 18.487487 L 88.951049 20.395511 L 89.790210 20.213017 L 90.629371 20.470175 L 91.468531 20.631545 L 92.307692 20.243805 L 93.146853 19.686791 L 93.986014 15.855439 L 94.825175 14.736893 L 95.664336 15.242423 L 96.503497 15.316336 L 97.342657 13.939658 L 98.181818 17.577595 L 99.020979 15.643902 L 99.860140 15.422904 L 100.699301 12.016407 L 101.538462 14.665855 L 102.377622 14.774190 L 103.216783 14.624322 L 104.055944 20.651505 L 104.895105 23.015692 L 105.734266 19.932714 L 106.573427 21.362722 L 107.412587 22.488176 L 108.251748 9.214019 L 109.090909 23.298646 L 109.930070 24.925694 L 110.769231 23.637650 L 111.608392 23.244720 L 112.447552 15.391001 L 113.286713 11.547410 L 114.125874 8.800000 L 114.965035 19.014435 L 115.804196 11.012390 L 116.643357 11.966942 L 117.482517 10.630029 L 118.321678 12.855639 L 119.160839 13.779865 L 120.000000 18.755102"></path>
      <path stroke="none" fill-opacity="0.6" fill="url(#color_grad)" d="M 0 40 L 0.000000 28.827320 L 0.839161 28.030344 L 1.678322 29.813082 L 2.517483 29.830804 L 3.356643 30.987383 L 4.195804 35.607471 L 5.034965 34.832250 L 5.874126 35.295832 L 6.713287 36.800000 L 7.552448 36.311233 L 8.391608 36.543424 L 9.230769 33.542382 L 10.069930 34.873145 L 10.909091 33.721517 L 11.748252 34.215959 L 12.587413 34.703471 L 13.426573 35.019598 L 14.265734 33.977322 L 15.104895 32.685582 L 15.944056 32.859008 L 16.783217 32.055713 L 17.622378 30.977480 L 18.461538 30.042229 L 19.300699 30.270492 L 20.139860 30.430867 L 20.979021 30.587524 L 21.818182 30.010935 L 22.657343 30.047215 L 23.496503 30.529993 L 24.335664 30.963587 L 25.174825 31.820619 L 26.013986 32.658665 L 26.853147 27.091095 L 27.692308 21.852009 L 28.531469 23.589889 L 29.370629 20.833081 L 30.209790 20.038707 L 31.048951 22.946849 L 31.888112 23.014023 L 32.727273 23.790983 L 33.566434 21.969672 L 34.405594 21.331085 L 35.244755 22.399864 L 36.083916 25.702781 L 36.923077 20.850642 L 37.762238 18.556596 L 38.601399 17.147901 L 39.440559 17.055711 L 40.279720 20.515201 L 41.118881 22.000278 L 41.958042 20.115447 L 42.797203 22.799821 L 43.636364 21.657977 L 44.475524 21.346557 L 45.314685 20.098895 L 46.153846 20.335301 L 46.993007 22.146359 L 47.832168 22.457226 L 48.671329 21.528406 L 49.510490 24.135668 L 50.349650 27.362694 L 51.188811 28.105064 L 52.027972 24.836134 L 52.867133 24.449361 L 53.706294 26.048567 L 54.545455 26.546613 L 55.384615 25.129671 L 56.223776 24.824309 L 57.062937 26.061976 L 57.902098 26.644520 L 58.741259 28.048642 L 59.580420 28.045948 L 60.419580 25.372971 L 61.258741 22.894024 L 62.097902 24.109053 L 62.937063 24.008404 L 63.776224 25.042600 L 64.615385 27.750195 L 65.454545 30.380371 L 66.293706 33.349782 L 67.132867 32.290934 L 67.972028 33.455880 L 68.811189 32.754888 L 69.650350 33.265642 L 70.489510 31.751025 L 71.328671 30.082457 L 72.167832 30.042846 L 73.006993 30.042846 L 73.846154 32.889257 L 74.685315 34.024319 L 75.524476 31.982220 L 76.363636 28.626373 L 77.202797 23.301753 L 78.041958 25.826209 L 78.881119 22.032063 L 79.720280 22.221157 L 80.559441 27.744683 L 81.398601 29.216505 L 82.237762 27.050515 L 83.076923 27.795789 L 83.916084 22.014683 L 84.755245 17.054638 L 85.594406 17.498099 L 86.433566 18.383710 L 87.272727 17.833702 L 88.111888 18.487487 L 88.951049 20.395511 L 89.790210 20.213017 L 90.629371 20.470175 L 91.468531 20.631545 L 92.307692 20.243805 L 93.146853 19.686791 L 93.986014 15.855439 L 94.825175 14.736893 L 95.664336 15.242423 L 96.503497 15.316336 L 97.342657 13.939658 L 98.181818 17.577595 L 99.020979 15.643902 L 99.860140 15.422904 L 100.699301 12.016407 L 101.538462 14.665855 L 102.377622 14.774190 L 103.216783 14.624322 L 104.055944 20.651505 L 104.895105 23.015692 L 105.734266 19.932714 L 106.573427 21.362722 L 107.412587 22.488176 L 108.251748 9.214019 L 109.090909 23.298646 L 109.930070 24.925694 L 110.769231 23.637650 L 111.608392 23.244720 L 112.447552 15.391001 L 113.286713 11.547410 L 114.125874 8.800000 L 114.965035 19.014435 L 115.804196 11.012390 L 116.643357 11.966942 L 117.482517 10.630029 L 118.321678 12.855639 L 119.160839 13.779865 L 120.000000 18.755102 L 120 40 Z"></path>
    </g>
  </svg>