<svg xmlns="http://www.w3.org/2000/svg" viewBox="0 0 120 40" width="120" height="40">
    <defs>
      <linearGradient id="color_grad" x1="0%" x2="0%" y1="0%" y2="100%">
        <stop offset="0%" style="stop-color:#16C784;stop-opacity:0.4;"></stop>
        <stop offset="100%" style="stop-color:#16C784;stop-opacity:0.0;"></stop>
      </linearGradient>
    </defs>
    <g>
      <path stroke="#16C784" stroke-width="2" stroke-linecap="round" stroke-linejoin="round" fill="none" d="M 0.000000 23.969895 L 0.839161 26.562377 L 1.678322 26.782291 L 2.517483 26.782291 L 3.356643 27.378860 L 4.195804 27.634532 L 5.034965 30.020808 L 5.874126 27.773990 L 6.713287 27.634532 L 7.552448 27.634532 L 8.391608 27.634532 L 9.230769 27.634532 L 10.069930 27.634532 L 10.909091 27.634532 L 11.748252 27.634532 L 12.587413 27.634532 L 13.426573 27.675059 L 14.265734 27.804981 L 15.104895 27.760879 L 15.944056 27.804981 L 16.783217 28.316325 L 17.622378 28.316325 L 18.461538 28.316325 L 19.300699 28.316325 L 20.139860 28.431944 L 20.979021 28.486774 L 21.818182 28.920642 L 22.657343 29.168567 L 23.496503 29.168567 L 24.335664 29.168567 L 25.174825 33.212243 L 26.013986 29.168567 L 26.853147 30.022000 L 27.692308 29.083343 L 28.531469 29.083343 L 29.370629 29.168567 L 30.209790 29.168567 L 31.048951 29.168567 L 31.888112 35.475152 L 32.727273 35.475152 L 33.566434 35.475152 L 34.405594 32.721757 L 35.244755 31.725291 L 36.083916 35.560376 L 36.923077 25.772713 L 37.762238 30.045839 L 38.601399 26.611843 L 39.440559 26.697067 L 40.279720 26.757856 L 41.118881 26.867515 L 41.958042 26.782291 L 42.797203 8.800000 L 43.636364 8.800000 L 44.475524 8.800000 L 45.314685 8.800000 L 46.153846 8.800000 L 46.993007 17.151965 L 47.832168 17.151965 L 48.671329 17.151965 L 49.510490 17.151965 L 50.349650 17.151965 L 51.188811 17.151965 L 52.027972 17.151965 L 52.867133 17.151965 L 53.706294 17.237189 L 54.545455 17.237189 L 55.384615 17.237189 L 56.223776 17.237189 L 57.062937 17.237189 L 57.902098 17.292614 L 58.741259 17.322413 L 59.580420 17.407637 L 60.419580 17.578085 L 61.258741 19.293295 L 62.097902 17.407637 L 62.937063 17.407637 L 63.776224 17.407637 L 64.615385 17.407637 L 65.454545 25.844826 L 66.293706 25.844826 L 67.132867 25.844826 L 67.972028 25.844826 L 68.811189 25.844826 L 69.650350 33.032259 L 70.489510 36.800000 L 71.328671 36.090792 L 72.167832 36.071721 L 73.006993 36.071721 L 73.846154 32.872538 L 74.685315 25.844826 L 75.524476 18.771223 L 76.363636 18.771223 L 77.202797 19.699749 L 78.041958 32.321859 L 78.881119 26.015274 L 79.720280 26.015274 L 80.559441 25.674377 L 81.398601 25.674377 L 82.237762 17.748533 L 83.076923 17.748533 L 83.916084 17.748533 L 84.755245 22.127743 L 85.594406 22.947205 L 86.433566 22.947205 L 87.272727 22.947205 L 88.111888 22.947205 L 88.951049 22.947205 L 89.790210 22.947205 L 90.629371 24.907360 L 91.468531 24.907360 L 92.307692 24.907360 L 93.146853 24.907360 L 93.986014 24.907360 L 94.825175 24.907360 L 95.664336 24.907360 L 96.503497 24.907360 L 97.342657 24.907360 L 98.181818 24.907360 L 99.020979 21.302916 L 99.860140 17.748533 L 100.699301 17.748533 L 101.538462 17.748533 L 102.377622 17.748533 L 103.216783 17.748533 L 104.055944 21.413171 L 104.895105 23.469278 L 105.734266 25.674377 L 106.573427 25.674377 L 107.412587 17.918982 L 108.251748 29.765136 L 109.090909 19.344549 L 109.930070 23.815538 L 110.769231 23.924005 L 111.608392 25.759602 L 112.447552 18.045328 L 113.286713 27.932519 L 114.125874 29.168567 L 114.965035 29.253791 L 115.804196 29.168567 L 116.643357 23.381848 L 117.482517 23.381848 L 118.321678 23.381848 L 119.160839 23.381848 L 120.000000 23.381848"></path>
      <path stroke="none" fill-opacity="0.6" fill="url(#color_grad)" d="M 0 40 L 0.000000 23.969895 L 0.839161 26.562377 L 1.678322 26.782291 L 2.517483 26.782291 L 3.356643 27.378860 L 4.195804 27.634532 L 5.034965 30.020808 L 5.874126 27.773990 L 6.713287 27.634532 L 7.552448 27.634532 L 8.391608 27.634532 L 9.230769 27.634532 L 10.069930 27.634532 L 10.909091 27.634532 L 11.748252 27.634532 L 12.587413 27.634532 L 13.426573 27.675059 L 14.265734 27.804981 L 15.104895 27.760879 L 15.944056 27.804981 L 16.783217 28.316325 L 17.622378 28.316325 L 18.461538 28.316325 L 19.300699 28.316325 L 20.139860 28.431944 L 20.979021 28.486774 L 21.818182 28.920642 L 22.657343 29.168567 L 23.496503 29.168567 L 24.335664 29.168567 L 25.174825 33.212243 L 26.013986 29.168567 L 26.853147 30.022000 L 27.692308 29.083343 L 28.531469 29.083343 L 29.370629 29.168567 L 30.209790 29.168567 L 31.048951 29.168567 L 31.888112 35.475152 L 32.727273 35.475152 L 33.566434 35.475152 L 34.405594 32.721757 L 35.244755 31.725291 L 36.083916 35.560376 L 36.923077 25.772713 L 37.762238 30.045839 L 38.601399 26.611843 L 39.440559 26.697067 L 40.279720 26.757856 L 41.118881 26.867515 L 41.958042 26.782291 L 42.797203 8.800000 L 43.636364 8.800000 L 44.475524 8.800000 L 45.314685 8.800000 L 46.153846 8.800000 L 46.993007 17.151965 L 47.832168 17.151965 L 48.671329 17.151965 L 49.510490 17.151965 L 50.349650 17.151965 L 51.188811 17.151965 L 52.027972 17.151965 L 52.867133 17.151965 L 53.706294 17.237189 L 54.545455 17.237189 L 55.384615 17.237189 L 56.223776 17.237189 L 57.062937 17.237189 L 57.902098 17.292614 L 58.741259 17.322413 L 59.580420 17.407637 L 60.419580 17.578085 L 61.258741 19.293295 L 62.097902 17.407637 L 62.937063 17.407637 L 63.776224 17.407637 L 64.615385 17.407637 L 65.454545 25.844826 L 66.293706 25.844826 L 67.132867 25.844826 L 67.972028 25.844826 L 68.811189 25.844826 L 69.650350 33.032259 L 70.489510 36.800000 L 71.328671 36.090792 L 72.167832 36.071721 L 73.006993 36.071721 L 73.846154 32.872538 L 74.685315 25.844826 L 75.524476 18.771223 L 76.363636 18.771223 L 77.202797 19.699749 L 78.041958 32.321859 L 78.881119 26.015274 L 79.720280 26.015274 L 80.559441 25.674377 L 81.398601 25.674377 L 82.237762 17.748533 L 83.076923 17.748533 L 83.916084 17.748533 L 84.755245 22.127743 L 85.594406 22.947205 L 86.433566 22.947205 L 87.272727 22.947205 L 88.111888 22.947205 L 88.951049 22.947205 L 89.790210 22.947205 L 90.629371 24.907360 L 91.468531 24.907360 L 92.307692 24.907360 L 93.146853 24.907360 L 93.986014 24.907360 L 94.825175 24.907360 L 95.664336 24.907360 L 96.503497 24.907360 L 97.342657 24.907360 L 98.181818 24.907360 L 99.020979 21.302916 L 99.860140 17.748533 L 100.699301 17.748533 L 101.538462 17.748533 L 102.377622 17.748533 L 103.216783 17.748533 L 104.055944 21.413171 L 104.895105 23.469278 L 105.734266 25.674377 L 106.573427 25.674377 L 107.412587 17.918982 L 108.251748 29.765136 L 109.090909 19.344549 L 109.930070 23.815538 L 110.769231 23.924005 L 111.608392 25.759602 L 112.447552 18.045328 L 113.286713 27.932519 L 114.125874 29.168567 L 114.965035 29.253791 L 115.804196 29.168567 L 116.643357 23.381848 L 117.482517 23.381848 L 118.321678 23.381848 L 119.160839 23.381848 L 120.000000 23.381848 L 120 40 Z"></path>
    </g>
  </svg>