<svg xmlns="http://www.w3.org/2000/svg" viewBox="0 0 120 40" width="120" height="40">
    <defs>
      <linearGradient id="color_grad" x1="0%" x2="0%" y1="0%" y2="100%">
        <stop offset="0%" style="stop-color:#16C784;stop-opacity:0.4;"></stop>
        <stop offset="100%" style="stop-color:#16C784;stop-opacity:0.0;"></stop>
      </linearGradient>
    </defs>
    <g>
      <path stroke="#16C784" stroke-width="2" stroke-linecap="round" stroke-linejoin="round" fill="none" d="M 0.000000 30.400286 L 0.839161 30.959145 L 1.678322 32.070930 L 2.517483 32.400880 L 3.356643 33.558333 L 4.195804 33.556770 L 5.034965 34.067581 L 5.874126 33.383573 L 6.713287 34.461358 L 7.552448 34.090406 L 8.391608 34.267282 L 9.230769 33.217787 L 10.069930 34.218657 L 10.909091 33.351910 L 11.748252 33.724646 L 12.587413 34.092956 L 13.426573 34.349083 L 14.265734 33.623623 L 15.104895 32.630698 L 15.944056 32.781545 L 16.783217 32.414969 L 17.622378 31.579962 L 18.461538 30.876179 L 19.300699 31.048033 L 20.139860 31.223456 L 20.979021 31.366740 L 21.818182 31.160894 L 22.657343 31.303473 L 23.496503 31.665723 L 24.335664 31.991126 L 25.174825 34.510289 L 26.013986 33.261305 L 26.853147 32.980898 L 27.692308 32.469594 L 28.531469 31.938864 L 29.370629 31.779111 L 30.209790 31.209689 L 31.048951 33.292560 L 31.888112 36.253999 L 32.727273 36.800000 L 33.566434 35.521196 L 34.405594 33.790395 L 35.244755 34.085605 L 36.083916 33.533995 L 36.923077 28.527654 L 37.762238 28.157620 L 38.601399 25.482995 L 39.440559 25.456575 L 40.279720 27.282018 L 41.118881 27.031821 L 41.958042 26.256988 L 42.797203 18.411001 L 43.636364 17.516346 L 44.475524 17.272846 L 45.314685 16.000254 L 46.153846 15.946165 L 46.993007 21.381320 L 47.832168 21.361146 L 48.671329 20.647208 L 49.510490 20.943149 L 50.349650 20.966493 L 51.188811 21.551806 L 52.027972 18.974329 L 52.867133 18.669075 L 53.706294 19.701838 L 54.545455 20.095233 L 55.384615 18.976794 L 56.223776 18.735146 L 57.062937 19.712647 L 57.902098 20.199256 L 58.741259 21.322812 L 59.580420 21.361239 L 60.419580 19.334115 L 61.258741 18.224080 L 62.097902 18.254469 L 62.937063 18.161510 L 63.776224 18.571042 L 64.615385 20.031031 L 65.454545 25.392645 L 66.293706 25.333873 L 67.132867 24.496044 L 67.972028 25.416159 L 68.811189 24.863393 L 69.650350 30.922399 L 70.489510 32.949524 L 71.328671 31.363808 L 72.167832 31.325057 L 73.006993 31.325057 L 73.846154 31.403298 L 74.685315 26.397510 L 75.524476 22.728413 L 76.363636 20.052038 L 77.202797 23.115970 L 78.041958 31.858439 L 78.881119 25.932978 L 79.720280 26.072939 L 80.559441 25.338573 L 81.398601 26.497012 L 82.237762 21.007223 L 83.076923 21.594066 L 83.916084 21.888604 L 84.755245 20.310324 L 85.594406 21.046467 L 86.433566 21.713368 L 87.272727 21.298728 L 88.111888 21.792399 L 88.951049 20.708708 L 89.790210 20.569733 L 90.629371 21.726056 L 91.468531 21.850100 L 92.307692 21.554525 L 93.146853 21.131064 L 93.986014 20.775417 L 94.825175 19.937027 L 95.664336 20.316783 L 96.503497 20.371739 L 97.342657 19.340446 L 98.181818 19.314408 L 99.020979 16.034195 L 99.860140 14.078589 L 100.699301 11.430597 L 101.538462 15.373148 L 102.377622 15.345853 L 103.216783 15.198303 L 104.055944 17.825833 L 104.895105 17.924086 L 105.734266 16.441093 L 106.573427 17.455280 L 107.412587 14.420572 L 108.251748 18.661376 L 109.090909 15.583286 L 109.930070 16.812861 L 110.769231 15.183763 L 111.608392 15.031030 L 112.447552 8.800000 L 113.286713 14.598204 L 114.125874 15.378851 L 114.965035 16.350548 L 115.804196 16.767176 L 116.643357 14.536832 L 117.482517 13.515201 L 118.321678 15.187630 L 119.160839 14.978428 L 120.000000 16.475246"></path>
      <path stroke="none" fill-opacity="0.6" fill="url(#color_grad)" d="M 0 40 L 0.000000 30.400286 L 0.839161 30.959145 L 1.678322 32.070930 L 2.517483 32.400880 L 3.356643 33.558333 L 4.195804 33.556770 L 5.034965 34.067581 L 5.874126 33.383573 L 6.713287 34.461358 L 7.552448 34.090406 L 8.391608 34.267282 L 9.230769 33.217787 L 10.069930 34.218657 L 10.909091 33.351910 L 11.748252 33.724646 L 12.587413 34.092956 L 13.426573 34.349083 L 14.265734 33.623623 L 15.104895 32.630698 L 15.944056 32.781545 L 16.783217 32.414969 L 17.622378 31.579962 L 18.461538 30.876179 L 19.300699 31.048033 L 20.139860 31.223456 L 20.979021 31.366740 L 21.818182 31.160894 L 22.657343 31.303473 L 23.496503 31.665723 L 24.335664 31.991126 L 25.174825 34.510289 L 26.013986 33.261305 L 26.853147 32.980898 L 27.692308 32.469594 L 28.531469 31.938864 L 29.370629 31.779111 L 30.209790 31.209689 L 31.048951 33.292560 L 31.888112 36.253999 L 32.727273 36.800000 L 33.566434 35.521196 L 34.405594 33.790395 L 35.244755 34.085605 L 36.083916 33.533995 L 36.923077 28.527654 L 37.762238 28.157620 L 38.601399 25.482995 L 39.440559 25.456575 L 40.279720 27.282018 L 41.118881 27.031821 L 41.958042 26.256988 L 42.797203 18.411001 L 43.636364 17.516346 L 44.475524 17.272846 L 45.314685 16.000254 L 46.153846 15.946165 L 46.993007 21.381320 L 47.832168 21.361146 L 48.671329 20.647208 L 49.510490 20.943149 L 50.349650 20.966493 L 51.188811 21.551806 L 52.027972 18.974329 L 52.867133 18.669075 L 53.706294 19.701838 L 54.545455 20.095233 L 55.384615 18.976794 L 56.223776 18.735146 L 57.062937 19.712647 L 57.902098 20.199256 L 58.741259 21.322812 L 59.580420 21.361239 L 60.419580 19.334115 L 61.258741 18.224080 L 62.097902 18.254469 L 62.937063 18.161510 L 63.776224 18.571042 L 64.615385 20.031031 L 65.454545 25.392645 L 66.293706 25.333873 L 67.132867 24.496044 L 67.972028 25.416159 L 68.811189 24.863393 L 69.650350 30.922399 L 70.489510 32.949524 L 71.328671 31.363808 L 72.167832 31.325057 L 73.006993 31.325057 L 73.846154 31.403298 L 74.685315 26.397510 L 75.524476 22.728413 L 76.363636 20.052038 L 77.202797 23.115970 L 78.041958 31.858439 L 78.881119 25.932978 L 79.720280 26.072939 L 80.559441 25.338573 L 81.398601 26.497012 L 82.237762 21.007223 L 83.076923 21.594066 L 83.916084 21.888604 L 84.755245 20.310324 L 85.594406 21.046467 L 86.433566 21.713368 L 87.272727 21.298728 L 88.111888 21.792399 L 88.951049 20.708708 L 89.790210 20.569733 L 90.629371 21.726056 L 91.468531 21.850100 L 92.307692 21.554525 L 93.146853 21.131064 L 93.986014 20.775417 L 94.825175 19.937027 L 95.664336 20.316783 L 96.503497 20.371739 L 97.342657 19.340446 L 98.181818 19.314408 L 99.020979 16.034195 L 99.860140 14.078589 L 100.699301 11.430597 L 101.538462 15.373148 L 102.377622 15.345853 L 103.216783 15.198303 L 104.055944 17.825833 L 104.895105 17.924086 L 105.734266 16.441093 L 106.573427 17.455280 L 107.412587 14.420572 L 108.251748 18.661376 L 109.090909 15.583286 L 109.930070 16.812861 L 110.769231 15.183763 L 111.608392 15.031030 L 112.447552 8.800000 L 113.286713 14.598204 L 114.125874 15.378851 L 114.965035 16.350548 L 115.804196 16.767176 L 116.643357 14.536832 L 117.482517 13.515201 L 118.321678 15.187630 L 119.160839 14.978428 L 120.000000 16.475246 L 120 40 Z"></path>
    </g>
  </svg>