<svg xmlns="http://www.w3.org/2000/svg" viewBox="0 0 120 40" width="120" height="40">
    <defs>
      <linearGradient id="color_grad" x1="0%" x2="0%" y1="0%" y2="100%">
        <stop offset="0%" style="stop-color:#EA3943;stop-opacity:0.4;"></stop>
        <stop offset="100%" style="stop-color:#EA3943;stop-opacity:0.0;"></stop>
      </linearGradient>
    </defs>
    <g>
      <path stroke="#EA3943" stroke-width="2" stroke-linecap="round" stroke-linejoin="round" fill="none" d="M 0.000000 23.964113 L 0.839161 23.413202 L 1.678322 24.452245 L 2.517483 24.580354 L 3.356643 27.791238 L 4.195804 24.875798 L 5.034965 26.163482 L 5.874126 25.467211 L 6.713287 21.437724 L 7.552448 21.291389 L 8.391608 21.363994 L 9.230769 20.933691 L 10.069930 21.348618 L 10.909091 20.992120 L 11.748252 21.144455 L 12.587413 21.984884 L 13.426573 22.072415 L 14.265734 21.758895 L 15.104895 21.362194 L 15.944056 21.420623 L 16.783217 21.178807 L 17.622378 20.476386 L 18.461538 21.604460 L 19.300699 21.517679 L 20.139860 21.015296 L 20.979021 20.882763 L 21.818182 21.250512 L 22.657343 20.909689 L 23.496503 20.712351 L 24.335664 21.183832 L 25.174825 21.241961 L 26.013986 21.132379 L 26.853147 21.426323 L 27.692308 21.830524 L 28.531469 21.876502 L 29.370629 21.799247 L 30.209790 22.642002 L 31.048951 22.348808 L 31.888112 22.080741 L 32.727273 22.467391 L 33.566434 22.130019 L 34.405594 22.299455 L 35.244755 23.863832 L 36.083916 23.070880 L 36.923077 22.917120 L 37.762238 21.884378 L 38.601399 22.162796 L 39.440559 21.197333 L 40.279720 22.506393 L 41.118881 22.850441 L 41.958042 22.932571 L 42.797203 23.838630 L 43.636364 23.616016 L 44.475524 23.227865 L 45.314685 23.078981 L 46.153846 23.054079 L 46.993007 23.561787 L 47.832168 23.556237 L 48.671329 23.295895 L 49.510490 23.400752 L 50.349650 23.414853 L 51.188811 23.629217 L 52.027972 23.049879 L 52.867133 22.567897 L 53.706294 22.929721 L 54.545455 23.071930 L 55.384615 22.666304 L 56.223776 22.579298 L 57.062937 22.935346 L 57.902098 23.469231 L 58.741259 24.230531 L 59.580420 23.891584 L 60.419580 23.811628 L 61.258741 22.764035 L 62.097902 22.740259 L 62.937063 22.701181 L 63.776224 22.855766 L 64.615385 23.021902 L 65.454545 23.855881 L 66.293706 36.800000 L 67.132867 21.277813 L 67.972028 22.051939 L 68.811189 18.587538 L 69.650350 19.867196 L 70.489510 20.110662 L 71.328671 19.235355 L 72.167832 19.223354 L 73.006993 19.223354 L 73.846154 23.328822 L 74.685315 19.206103 L 75.524476 20.527614 L 76.363636 19.122923 L 77.202797 20.139764 L 78.041958 21.237311 L 78.881119 22.236001 L 79.720280 22.290904 L 80.559441 21.696716 L 81.398601 23.159611 L 82.237762 21.778921 L 83.076923 21.665514 L 83.916084 22.200298 L 84.755245 20.846910 L 85.594406 20.662473 L 86.433566 21.551131 L 87.272727 21.395796 L 88.111888 21.573258 L 88.951049 21.167931 L 89.790210 21.481752 L 90.629371 21.558182 L 91.468531 21.604460 L 92.307692 21.490602 L 93.146853 21.334217 L 93.986014 21.203858 L 94.825175 20.886063 L 95.664336 21.389871 L 96.503497 21.042973 L 97.342657 21.488052 L 98.181818 21.395796 L 99.020979 23.486782 L 99.860140 21.910780 L 100.699301 21.696266 L 101.538462 24.774316 L 102.377622 25.341503 L 103.216783 26.821500 L 104.055944 25.587069 L 104.895105 24.122074 L 105.734266 23.648343 L 106.573427 25.106738 L 107.412587 25.405782 L 108.251748 8.800000 L 109.090909 28.560563 L 109.930070 28.982540 L 110.769231 28.820380 L 111.608392 28.470332 L 112.447552 29.763416 L 113.286713 28.604966 L 114.125874 31.051775 L 114.965035 28.379876 L 115.804196 31.156782 L 116.643357 31.381797 L 117.482517 29.063396 L 118.321678 30.434335 L 119.160839 29.397768 L 120.000000 30.463887"></path>
      <path stroke="none" fill-opacity="0.6" fill="url(#color_grad)" d="M 0 40 L 0.000000 23.964113 L 0.839161 23.413202 L 1.678322 24.452245 L 2.517483 24.580354 L 3.356643 27.791238 L 4.195804 24.875798 L 5.034965 26.163482 L 5.874126 25.467211 L 6.713287 21.437724 L 7.552448 21.291389 L 8.391608 21.363994 L 9.230769 20.933691 L 10.069930 21.348618 L 10.909091 20.992120 L 11.748252 21.144455 L 12.587413 21.984884 L 13.426573 22.072415 L 14.265734 21.758895 L 15.104895 21.362194 L 15.944056 21.420623 L 16.783217 21.178807 L 17.622378 20.476386 L 18.461538 21.604460 L 19.300699 21.517679 L 20.139860 21.015296 L 20.979021 20.882763 L 21.818182 21.250512 L 22.657343 20.909689 L 23.496503 20.712351 L 24.335664 21.183832 L 25.174825 21.241961 L 26.013986 21.132379 L 26.853147 21.426323 L 27.692308 21.830524 L 28.531469 21.876502 L 29.370629 21.799247 L 30.209790 22.642002 L 31.048951 22.348808 L 31.888112 22.080741 L 32.727273 22.467391 L 33.566434 22.130019 L 34.405594 22.299455 L 35.244755 23.863832 L 36.083916 23.070880 L 36.923077 22.917120 L 37.762238 21.884378 L 38.601399 22.162796 L 39.440559 21.197333 L 40.279720 22.506393 L 41.118881 22.850441 L 41.958042 22.932571 L 42.797203 23.838630 L 43.636364 23.616016 L 44.475524 23.227865 L 45.314685 23.078981 L 46.153846 23.054079 L 46.993007 23.561787 L 47.832168 23.556237 L 48.671329 23.295895 L 49.510490 23.400752 L 50.349650 23.414853 L 51.188811 23.629217 L 52.027972 23.049879 L 52.867133 22.567897 L 53.706294 22.929721 L 54.545455 23.071930 L 55.384615 22.666304 L 56.223776 22.579298 L 57.062937 22.935346 L 57.902098 23.469231 L 58.741259 24.230531 L 59.580420 23.891584 L 60.419580 23.811628 L 61.258741 22.764035 L 62.097902 22.740259 L 62.937063 22.701181 L 63.776224 22.855766 L 64.615385 23.021902 L 65.454545 23.855881 L 66.293706 36.800000 L 67.132867 21.277813 L 67.972028 22.051939 L 68.811189 18.587538 L 69.650350 19.867196 L 70.489510 20.110662 L 71.328671 19.235355 L 72.167832 19.223354 L 73.006993 19.223354 L 73.846154 23.328822 L 74.685315 19.206103 L 75.524476 20.527614 L 76.363636 19.122923 L 77.202797 20.139764 L 78.041958 21.237311 L 78.881119 22.236001 L 79.720280 22.290904 L 80.559441 21.696716 L 81.398601 23.159611 L 82.237762 21.778921 L 83.076923 21.665514 L 83.916084 22.200298 L 84.755245 20.846910 L 85.594406 20.662473 L 86.433566 21.551131 L 87.272727 21.395796 L 88.111888 21.573258 L 88.951049 21.167931 L 89.790210 21.481752 L 90.629371 21.558182 L 91.468531 21.604460 L 92.307692 21.490602 L 93.146853 21.334217 L 93.986014 21.203858 L 94.825175 20.886063 L 95.664336 21.389871 L 96.503497 21.042973 L 97.342657 21.488052 L 98.181818 21.395796 L 99.020979 23.486782 L 99.860140 21.910780 L 100.699301 21.696266 L 101.538462 24.774316 L 102.377622 25.341503 L 103.216783 26.821500 L 104.055944 25.587069 L 104.895105 24.122074 L 105.734266 23.648343 L 106.573427 25.106738 L 107.412587 25.405782 L 108.251748 8.800000 L 109.090909 28.560563 L 109.930070 28.982540 L 110.769231 28.820380 L 111.608392 28.470332 L 112.447552 29.763416 L 113.286713 28.604966 L 114.125874 31.051775 L 114.965035 28.379876 L 115.804196 31.156782 L 116.643357 31.381797 L 117.482517 29.063396 L 118.321678 30.434335 L 119.160839 29.397768 L 120.000000 30.463887 L 120 40 Z"></path>
    </g>
  </svg>