<svg xmlns="http://www.w3.org/2000/svg" viewBox="0 0 120 40" width="120" height="40">
    <defs>
      <linearGradient id="color_grad" x1="0%" x2="0%" y1="0%" y2="100%">
        <stop offset="0%" style="stop-color:#EA3943;stop-opacity:0.4;"></stop>
        <stop offset="100%" style="stop-color:#EA3943;stop-opacity:0.0;"></stop>
      </linearGradient>
    </defs>
    <g>
      <path stroke="#EA3943" stroke-width="2" stroke-linecap="round" stroke-linejoin="round" fill="none" d="M 0.000000 19.270492 L 0.839161 18.910249 L 1.678322 19.689312 L 2.517483 19.689312 L 3.356643 23.174595 L 4.195804 19.689312 L 5.034965 21.513960 L 5.874126 20.518165 L 6.713287 15.082295 L 7.552448 15.082295 L 8.391608 15.082295 L 9.230769 15.082295 L 10.069930 15.082295 L 10.909091 15.082295 L 11.748252 15.082295 L 12.587413 15.919935 L 13.426573 15.919935 L 14.265734 15.919935 L 15.104895 15.919935 L 15.944056 15.919935 L 16.783217 15.919935 L 17.622378 15.501115 L 18.461538 17.176394 L 19.300699 16.994808 L 20.139860 16.338754 L 20.979021 16.124951 L 21.818182 16.757574 L 22.657343 16.338754 L 23.496503 15.919935 L 24.335664 16.338754 L 25.174825 16.092734 L 26.013986 15.644627 L 26.853147 16.338754 L 27.692308 16.854225 L 28.531469 17.176394 L 29.370629 17.176394 L 30.209790 18.432853 L 31.048951 17.103174 L 31.888112 16.757574 L 32.727273 16.947947 L 33.566434 17.176394 L 34.405594 17.595213 L 35.244755 19.112337 L 36.083916 19.270492 L 36.923077 19.270492 L 37.762238 19.147482 L 38.601399 19.941190 L 39.440559 18.851673 L 40.279720 19.569231 L 41.118881 20.108132 L 41.958042 20.524023 L 42.797203 21.253296 L 43.636364 21.364591 L 44.475524 21.018991 L 45.314685 21.364591 L 46.153846 21.364591 L 46.993007 21.364591 L 47.832168 21.364591 L 48.671329 21.364591 L 49.510490 21.364591 L 50.349650 21.364591 L 51.188811 21.364591 L 52.027972 21.783410 L 52.867133 21.364591 L 53.706294 21.364591 L 54.545455 21.364591 L 55.384615 21.364591 L 56.223776 21.364591 L 57.062937 21.364591 L 57.902098 21.783410 L 58.741259 22.202230 L 59.580420 21.812698 L 60.419580 22.591762 L 61.258741 22.202230 L 62.097902 21.783410 L 62.937063 21.783410 L 63.776224 21.783410 L 64.615385 21.364591 L 65.454545 21.783410 L 66.293706 36.800000 L 67.132867 19.191414 L 67.972028 19.677597 L 68.811189 15.919935 L 69.650350 16.174741 L 70.489510 16.338754 L 71.328671 15.919935 L 72.167832 15.919935 L 73.006993 15.919935 L 73.846154 19.979264 L 74.685315 15.919935 L 75.524476 17.595213 L 76.363636 17.176394 L 77.202797 17.176394 L 78.041958 17.176394 L 78.881119 19.689312 L 79.720280 19.689312 L 80.559441 19.270492 L 81.398601 20.456660 L 82.237762 19.589732 L 83.076923 19.206058 L 83.916084 19.683454 L 84.755245 19.742031 L 85.594406 19.381787 L 86.433566 20.108132 L 87.272727 20.108132 L 88.111888 20.108132 L 88.951049 20.108132 L 89.790210 20.526951 L 90.629371 20.526951 L 91.468531 20.526951 L 92.307692 20.526951 L 93.146853 20.526951 L 93.986014 20.526951 L 94.825175 20.526951 L 95.664336 20.945771 L 96.503497 20.526951 L 97.342657 21.458313 L 98.181818 21.364591 L 99.020979 24.296329 L 99.860140 22.621050 L 100.699301 23.423543 L 101.538462 25.295052 L 102.377622 25.945248 L 103.216783 27.646886 L 104.055944 25.959892 L 104.895105 24.685860 L 105.734266 25.180829 L 106.573427 26.390427 L 107.412587 26.390427 L 108.251748 8.800000 L 109.090909 29.740984 L 109.930070 30.578624 L 110.769231 30.997444 L 111.608392 30.997444 L 112.447552 33.170620 L 113.286713 31.685714 L 114.125874 34.277710 L 114.965035 31.064806 L 115.804196 33.929181 L 116.643357 33.929181 L 117.482517 31.741361 L 118.321678 32.672722 L 119.160839 31.600778 L 120.000000 32.253903"></path>
      <path stroke="none" fill-opacity="0.6" fill="url(#color_grad)" d="M 0 40 L 0.000000 19.270492 L 0.839161 18.910249 L 1.678322 19.689312 L 2.517483 19.689312 L 3.356643 23.174595 L 4.195804 19.689312 L 5.034965 21.513960 L 5.874126 20.518165 L 6.713287 15.082295 L 7.552448 15.082295 L 8.391608 15.082295 L 9.230769 15.082295 L 10.069930 15.082295 L 10.909091 15.082295 L 11.748252 15.082295 L 12.587413 15.919935 L 13.426573 15.919935 L 14.265734 15.919935 L 15.104895 15.919935 L 15.944056 15.919935 L 16.783217 15.919935 L 17.622378 15.501115 L 18.461538 17.176394 L 19.300699 16.994808 L 20.139860 16.338754 L 20.979021 16.124951 L 21.818182 16.757574 L 22.657343 16.338754 L 23.496503 15.919935 L 24.335664 16.338754 L 25.174825 16.092734 L 26.013986 15.644627 L 26.853147 16.338754 L 27.692308 16.854225 L 28.531469 17.176394 L 29.370629 17.176394 L 30.209790 18.432853 L 31.048951 17.103174 L 31.888112 16.757574 L 32.727273 16.947947 L 33.566434 17.176394 L 34.405594 17.595213 L 35.244755 19.112337 L 36.083916 19.270492 L 36.923077 19.270492 L 37.762238 19.147482 L 38.601399 19.941190 L 39.440559 18.851673 L 40.279720 19.569231 L 41.118881 20.108132 L 41.958042 20.524023 L 42.797203 21.253296 L 43.636364 21.364591 L 44.475524 21.018991 L 45.314685 21.364591 L 46.153846 21.364591 L 46.993007 21.364591 L 47.832168 21.364591 L 48.671329 21.364591 L 49.510490 21.364591 L 50.349650 21.364591 L 51.188811 21.364591 L 52.027972 21.783410 L 52.867133 21.364591 L 53.706294 21.364591 L 54.545455 21.364591 L 55.384615 21.364591 L 56.223776 21.364591 L 57.062937 21.364591 L 57.902098 21.783410 L 58.741259 22.202230 L 59.580420 21.812698 L 60.419580 22.591762 L 61.258741 22.202230 L 62.097902 21.783410 L 62.937063 21.783410 L 63.776224 21.783410 L 64.615385 21.364591 L 65.454545 21.783410 L 66.293706 36.800000 L 67.132867 19.191414 L 67.972028 19.677597 L 68.811189 15.919935 L 69.650350 16.174741 L 70.489510 16.338754 L 71.328671 15.919935 L 72.167832 15.919935 L 73.006993 15.919935 L 73.846154 19.979264 L 74.685315 15.919935 L 75.524476 17.595213 L 76.363636 17.176394 L 77.202797 17.176394 L 78.041958 17.176394 L 78.881119 19.689312 L 79.720280 19.689312 L 80.559441 19.270492 L 81.398601 20.456660 L 82.237762 19.589732 L 83.076923 19.206058 L 83.916084 19.683454 L 84.755245 19.742031 L 85.594406 19.381787 L 86.433566 20.108132 L 87.272727 20.108132 L 88.111888 20.108132 L 88.951049 20.108132 L 89.790210 20.526951 L 90.629371 20.526951 L 91.468531 20.526951 L 92.307692 20.526951 L 93.146853 20.526951 L 93.986014 20.526951 L 94.825175 20.526951 L 95.664336 20.945771 L 96.503497 20.526951 L 97.342657 21.458313 L 98.181818 21.364591 L 99.020979 24.296329 L 99.860140 22.621050 L 100.699301 23.423543 L 101.538462 25.295052 L 102.377622 25.945248 L 103.216783 27.646886 L 104.055944 25.959892 L 104.895105 24.685860 L 105.734266 25.180829 L 106.573427 26.390427 L 107.412587 26.390427 L 108.251748 8.800000 L 109.090909 29.740984 L 109.930070 30.578624 L 110.769231 30.997444 L 111.608392 30.997444 L 112.447552 33.170620 L 113.286713 31.685714 L 114.125874 34.277710 L 114.965035 31.064806 L 115.804196 33.929181 L 116.643357 33.929181 L 117.482517 31.741361 L 118.321678 32.672722 L 119.160839 31.600778 L 120.000000 32.253903 L 120 40 Z"></path>
    </g>
  </svg>