<svg xmlns="http://www.w3.org/2000/svg" viewBox="0 0 120 40" width="120" height="40">
    <defs>
      <linearGradient id="color_grad" x1="0%" x2="0%" y1="0%" y2="100%">
        <stop offset="0%" style="stop-color:#EA3943;stop-opacity:0.4;"></stop>
        <stop offset="100%" style="stop-color:#EA3943;stop-opacity:0.0;"></stop>
      </linearGradient>
    </defs>
    <g>
      <path stroke="#EA3943" stroke-width="2" stroke-linecap="round" stroke-linejoin="round" fill="none" d="M 0.000000 34.106237 L 0.839161 31.769542 L 1.678322 26.406380 L 2.517483 26.771480 L 3.356643 31.046660 L 4.195804 30.892891 L 5.034965 33.369254 L 5.874126 33.731320 L 6.713287 29.466403 L 7.552448 29.063731 L 8.391608 29.253554 L 9.230769 28.106135 L 10.069930 29.204381 L 10.909091 28.257762 L 11.748252 28.654901 L 12.587413 29.069443 L 13.426573 29.012504 L 14.265734 27.157999 L 15.104895 26.083314 L 15.944056 26.232174 L 16.783217 25.559090 L 17.622378 24.649151 L 18.461538 23.875042 L 19.300699 24.065312 L 20.139860 26.939439 L 20.979021 27.069736 L 21.818182 26.625386 L 22.657343 26.656086 L 23.496503 27.429124 L 24.335664 31.574542 L 25.174825 34.154429 L 26.013986 32.511434 L 26.853147 31.173387 L 27.692308 30.040068 L 28.531469 29.482646 L 29.370629 29.269529 L 30.209790 28.860431 L 31.048951 32.737847 L 31.888112 31.763652 L 32.727273 31.538755 L 33.566434 30.973390 L 34.405594 29.647124 L 35.244755 30.470228 L 36.083916 22.867112 L 36.923077 21.706484 L 37.762238 19.057611 L 38.601399 15.627133 L 39.440559 15.551543 L 40.279720 15.730925 L 41.118881 18.940968 L 41.958042 18.117418 L 42.797203 17.093602 L 43.636364 15.846140 L 44.475524 14.698720 L 45.314685 10.989620 L 46.153846 10.019440 L 46.993007 11.557573 L 47.832168 11.542669 L 48.671329 10.754281 L 49.510490 11.079578 L 50.349650 11.099926 L 51.188811 11.754625 L 52.027972 9.148679 L 52.867133 8.800000 L 53.706294 9.652019 L 54.545455 10.090479 L 55.384615 9.047565 L 56.223776 8.837929 L 57.062937 12.358902 L 57.902098 22.335213 L 58.741259 15.970011 L 59.580420 15.966977 L 60.419580 14.008858 L 61.258741 12.661709 L 62.097902 14.340938 L 62.937063 14.250087 L 63.776224 12.935423 L 64.615385 11.924904 L 65.454545 14.227686 L 66.293706 13.723989 L 67.132867 10.175172 L 67.972028 11.236560 L 68.811189 11.948643 L 69.650350 13.633049 L 70.489510 13.909707 L 71.328671 12.433778 L 72.167832 12.398080 L 73.006993 12.398080 L 73.846154 17.220151 L 74.685315 21.593679 L 75.524476 21.289087 L 76.363636 23.055508 L 77.202797 19.375769 L 78.041958 21.439375 L 78.881119 25.369177 L 79.720280 17.464593 L 80.559441 18.434326 L 81.398601 21.788322 L 82.237762 19.977100 L 83.076923 20.609934 L 83.916084 25.423884 L 84.755245 14.939859 L 85.594406 15.185907 L 86.433566 15.773227 L 87.272727 15.588579 L 88.111888 16.427569 L 88.951049 15.377069 L 89.790210 15.668899 L 90.629371 15.884158 L 91.468531 21.803672 L 92.307692 21.495420 L 93.146853 21.051160 L 93.986014 20.667408 L 94.825175 19.782814 L 95.664336 20.190484 L 96.503497 14.404391 L 97.342657 13.372365 L 98.181818 13.702124 L 99.020979 12.098039 L 99.860140 17.396767 L 100.699301 18.442358 L 101.538462 24.447369 L 102.377622 24.419792 L 103.216783 23.286830 L 104.055944 24.097440 L 104.895105 27.724346 L 105.734266 24.118859 L 106.573427 22.530124 L 107.412587 23.396690 L 108.251748 31.616041 L 109.090909 33.225659 L 109.930070 36.155296 L 110.769231 36.800000 L 111.608392 32.594967 L 112.447552 22.805890 L 113.286713 27.941835 L 114.125874 32.004345 L 114.965035 20.891591 L 115.804196 21.822859 L 116.643357 24.095030 L 117.482517 25.659401 L 118.321678 22.762517 L 119.160839 29.698350 L 120.000000 24.521977"></path>
      <path stroke="none" fill-opacity="0.6" fill="url(#color_grad)" d="M 0 40 L 0.000000 34.106237 L 0.839161 31.769542 L 1.678322 26.406380 L 2.517483 26.771480 L 3.356643 31.046660 L 4.195804 30.892891 L 5.034965 33.369254 L 5.874126 33.731320 L 6.713287 29.466403 L 7.552448 29.063731 L 8.391608 29.253554 L 9.230769 28.106135 L 10.069930 29.204381 L 10.909091 28.257762 L 11.748252 28.654901 L 12.587413 29.069443 L 13.426573 29.012504 L 14.265734 27.157999 L 15.104895 26.083314 L 15.944056 26.232174 L 16.783217 25.559090 L 17.622378 24.649151 L 18.461538 23.875042 L 19.300699 24.065312 L 20.139860 26.939439 L 20.979021 27.069736 L 21.818182 26.625386 L 22.657343 26.656086 L 23.496503 27.429124 L 24.335664 31.574542 L 25.174825 34.154429 L 26.013986 32.511434 L 26.853147 31.173387 L 27.692308 30.040068 L 28.531469 29.482646 L 29.370629 29.269529 L 30.209790 28.860431 L 31.048951 32.737847 L 31.888112 31.763652 L 32.727273 31.538755 L 33.566434 30.973390 L 34.405594 29.647124 L 35.244755 30.470228 L 36.083916 22.867112 L 36.923077 21.706484 L 37.762238 19.057611 L 38.601399 15.627133 L 39.440559 15.551543 L 40.279720 15.730925 L 41.118881 18.940968 L 41.958042 18.117418 L 42.797203 17.093602 L 43.636364 15.846140 L 44.475524 14.698720 L 45.314685 10.989620 L 46.153846 10.019440 L 46.993007 11.557573 L 47.832168 11.542669 L 48.671329 10.754281 L 49.510490 11.079578 L 50.349650 11.099926 L 51.188811 11.754625 L 52.027972 9.148679 L 52.867133 8.800000 L 53.706294 9.652019 L 54.545455 10.090479 L 55.384615 9.047565 L 56.223776 8.837929 L 57.062937 12.358902 L 57.902098 22.335213 L 58.741259 15.970011 L 59.580420 15.966977 L 60.419580 14.008858 L 61.258741 12.661709 L 62.097902 14.340938 L 62.937063 14.250087 L 63.776224 12.935423 L 64.615385 11.924904 L 65.454545 14.227686 L 66.293706 13.723989 L 67.132867 10.175172 L 67.972028 11.236560 L 68.811189 11.948643 L 69.650350 13.633049 L 70.489510 13.909707 L 71.328671 12.433778 L 72.167832 12.398080 L 73.006993 12.398080 L 73.846154 17.220151 L 74.685315 21.593679 L 75.524476 21.289087 L 76.363636 23.055508 L 77.202797 19.375769 L 78.041958 21.439375 L 78.881119 25.369177 L 79.720280 17.464593 L 80.559441 18.434326 L 81.398601 21.788322 L 82.237762 19.977100 L 83.076923 20.609934 L 83.916084 25.423884 L 84.755245 14.939859 L 85.594406 15.185907 L 86.433566 15.773227 L 87.272727 15.588579 L 88.111888 16.427569 L 88.951049 15.377069 L 89.790210 15.668899 L 90.629371 15.884158 L 91.468531 21.803672 L 92.307692 21.495420 L 93.146853 21.051160 L 93.986014 20.667408 L 94.825175 19.782814 L 95.664336 20.190484 L 96.503497 14.404391 L 97.342657 13.372365 L 98.181818 13.702124 L 99.020979 12.098039 L 99.860140 17.396767 L 100.699301 18.442358 L 101.538462 24.447369 L 102.377622 24.419792 L 103.216783 23.286830 L 104.055944 24.097440 L 104.895105 27.724346 L 105.734266 24.118859 L 106.573427 22.530124 L 107.412587 23.396690 L 108.251748 31.616041 L 109.090909 33.225659 L 109.930070 36.155296 L 110.769231 36.800000 L 111.608392 32.594967 L 112.447552 22.805890 L 113.286713 27.941835 L 114.125874 32.004345 L 114.965035 20.891591 L 115.804196 21.822859 L 116.643357 24.095030 L 117.482517 25.659401 L 118.321678 22.762517 L 119.160839 29.698350 L 120.000000 24.521977 L 120 40 Z"></path>
    </g>
  </svg>