<svg xmlns="http://www.w3.org/2000/svg" viewBox="0 0 120 40" width="120" height="40">
    <defs>
      <linearGradient id="color_grad" x1="0%" x2="0%" y1="0%" y2="100%">
        <stop offset="0%" style="stop-color:#EA3943;stop-opacity:0.4;"></stop>
        <stop offset="100%" style="stop-color:#EA3943;stop-opacity:0.0;"></stop>
      </linearGradient>
    </defs>
    <g>
      <path stroke="#EA3943" stroke-width="2" stroke-linecap="round" stroke-linejoin="round" fill="none" d="M 0.000000 21.616901 L 0.839161 20.302347 L 1.678322 15.208451 L 2.517483 15.208451 L 3.356643 17.847441 L 4.195804 17.829055 L 5.034965 20.302347 L 5.874126 20.302347 L 6.713287 15.898592 L 7.552448 15.898592 L 8.391608 15.898592 L 9.230769 15.898592 L 10.069930 15.898592 L 10.909091 15.898592 L 11.748252 15.898592 L 12.587413 15.898592 L 13.426573 15.648551 L 14.265734 14.846948 L 15.104895 14.846948 L 15.944056 14.846948 L 16.783217 14.846948 L 17.622378 14.846948 L 18.461538 14.846948 L 19.300699 14.846948 L 20.139860 17.015962 L 20.979021 17.015962 L 21.818182 17.015962 L 22.657343 17.015962 L 23.496503 17.317023 L 24.335664 20.302347 L 25.174825 21.809948 L 26.013986 19.973709 L 26.853147 19.488795 L 27.692308 18.659155 L 28.531469 18.659155 L 29.370629 18.659155 L 30.209790 18.831518 L 31.048951 20.129985 L 31.888112 19.316432 L 32.727273 18.659155 L 33.566434 19.325625 L 34.405594 18.659155 L 35.244755 18.659155 L 36.083916 14.715493 L 36.923077 14.156808 L 37.762238 14.156808 L 38.601399 12.415023 L 39.440559 12.415023 L 40.279720 11.008543 L 41.118881 13.729577 L 41.958042 13.729577 L 42.797203 12.304711 L 43.636364 12.086385 L 44.475524 11.408424 L 45.314685 9.621596 L 46.153846 8.931455 L 46.993007 8.931455 L 47.832168 8.931455 L 48.671329 8.931455 L 49.510490 8.931455 L 50.349650 8.931455 L 51.188811 8.931455 L 52.027972 9.128638 L 52.867133 9.128638 L 53.706294 8.931455 L 54.545455 8.931455 L 55.384615 9.083135 L 56.223776 9.128638 L 57.062937 10.967176 L 57.902098 18.164129 L 58.741259 12.415023 L 59.580420 12.415023 L 60.419580 12.658630 L 61.258741 13.242365 L 62.097902 13.729577 L 62.937063 13.729577 L 63.776224 12.415023 L 64.615385 10.443192 L 65.454545 11.100469 L 66.293706 10.771831 L 67.132867 8.800000 L 67.972028 8.800000 L 68.811189 9.827283 L 69.650350 8.800000 L 70.489510 8.800000 L 71.328671 8.800000 L 72.167832 8.800000 L 73.006993 8.800000 L 73.846154 11.075190 L 74.685315 15.898592 L 75.524476 15.898592 L 76.363636 19.382160 L 77.202797 14.480620 L 78.041958 13.729577 L 78.881119 19.240592 L 79.720280 13.072300 L 80.559441 14.294928 L 81.398601 15.898592 L 82.237762 15.898592 L 83.076923 15.898592 L 83.916084 19.349066 L 84.755245 14.386854 L 85.594406 14.299524 L 86.433566 14.191510 L 87.272727 14.386854 L 88.111888 14.612075 L 88.951049 14.715493 L 89.790210 15.044131 L 90.629371 15.044131 L 91.468531 19.382160 L 92.307692 19.382160 L 93.146853 19.382160 L 93.986014 19.382160 L 94.825175 19.382160 L 95.664336 19.382160 L 96.503497 15.044131 L 97.342657 15.117673 L 98.181818 15.372770 L 99.020979 15.372770 L 99.860140 19.382160 L 100.699301 22.110549 L 101.538462 23.588732 L 102.377622 23.588732 L 103.216783 22.865728 L 104.055944 22.865728 L 104.895105 26.227493 L 105.734266 29.832864 L 106.573427 23.588732 L 107.412587 23.588732 L 108.251748 30.818779 L 109.090909 30.466240 L 109.930070 33.316432 L 110.769231 34.924233 L 111.608392 36.800000 L 112.447552 27.203756 L 113.286713 30.372934 L 114.125874 33.316432 L 114.965035 24.574648 L 115.804196 24.903286 L 116.643357 26.006409 L 117.482517 27.861033 L 118.321678 24.574648 L 119.160839 29.747832 L 120.000000 24.903286"></path>
      <path stroke="none" fill-opacity="0.6" fill="url(#color_grad)" d="M 0 40 L 0.000000 21.616901 L 0.839161 20.302347 L 1.678322 15.208451 L 2.517483 15.208451 L 3.356643 17.847441 L 4.195804 17.829055 L 5.034965 20.302347 L 5.874126 20.302347 L 6.713287 15.898592 L 7.552448 15.898592 L 8.391608 15.898592 L 9.230769 15.898592 L 10.069930 15.898592 L 10.909091 15.898592 L 11.748252 15.898592 L 12.587413 15.898592 L 13.426573 15.648551 L 14.265734 14.846948 L 15.104895 14.846948 L 15.944056 14.846948 L 16.783217 14.846948 L 17.622378 14.846948 L 18.461538 14.846948 L 19.300699 14.846948 L 20.139860 17.015962 L 20.979021 17.015962 L 21.818182 17.015962 L 22.657343 17.015962 L 23.496503 17.317023 L 24.335664 20.302347 L 25.174825 21.809948 L 26.013986 19.973709 L 26.853147 19.488795 L 27.692308 18.659155 L 28.531469 18.659155 L 29.370629 18.659155 L 30.209790 18.831518 L 31.048951 20.129985 L 31.888112 19.316432 L 32.727273 18.659155 L 33.566434 19.325625 L 34.405594 18.659155 L 35.244755 18.659155 L 36.083916 14.715493 L 36.923077 14.156808 L 37.762238 14.156808 L 38.601399 12.415023 L 39.440559 12.415023 L 40.279720 11.008543 L 41.118881 13.729577 L 41.958042 13.729577 L 42.797203 12.304711 L 43.636364 12.086385 L 44.475524 11.408424 L 45.314685 9.621596 L 46.153846 8.931455 L 46.993007 8.931455 L 47.832168 8.931455 L 48.671329 8.931455 L 49.510490 8.931455 L 50.349650 8.931455 L 51.188811 8.931455 L 52.027972 9.128638 L 52.867133 9.128638 L 53.706294 8.931455 L 54.545455 8.931455 L 55.384615 9.083135 L 56.223776 9.128638 L 57.062937 10.967176 L 57.902098 18.164129 L 58.741259 12.415023 L 59.580420 12.415023 L 60.419580 12.658630 L 61.258741 13.242365 L 62.097902 13.729577 L 62.937063 13.729577 L 63.776224 12.415023 L 64.615385 10.443192 L 65.454545 11.100469 L 66.293706 10.771831 L 67.132867 8.800000 L 67.972028 8.800000 L 68.811189 9.827283 L 69.650350 8.800000 L 70.489510 8.800000 L 71.328671 8.800000 L 72.167832 8.800000 L 73.006993 8.800000 L 73.846154 11.075190 L 74.685315 15.898592 L 75.524476 15.898592 L 76.363636 19.382160 L 77.202797 14.480620 L 78.041958 13.729577 L 78.881119 19.240592 L 79.720280 13.072300 L 80.559441 14.294928 L 81.398601 15.898592 L 82.237762 15.898592 L 83.076923 15.898592 L 83.916084 19.349066 L 84.755245 14.386854 L 85.594406 14.299524 L 86.433566 14.191510 L 87.272727 14.386854 L 88.111888 14.612075 L 88.951049 14.715493 L 89.790210 15.044131 L 90.629371 15.044131 L 91.468531 19.382160 L 92.307692 19.382160 L 93.146853 19.382160 L 93.986014 19.382160 L 94.825175 19.382160 L 95.664336 19.382160 L 96.503497 15.044131 L 97.342657 15.117673 L 98.181818 15.372770 L 99.020979 15.372770 L 99.860140 19.382160 L 100.699301 22.110549 L 101.538462 23.588732 L 102.377622 23.588732 L 103.216783 22.865728 L 104.055944 22.865728 L 104.895105 26.227493 L 105.734266 29.832864 L 106.573427 23.588732 L 107.412587 23.588732 L 108.251748 30.818779 L 109.090909 30.466240 L 109.930070 33.316432 L 110.769231 34.924233 L 111.608392 36.800000 L 112.447552 27.203756 L 113.286713 30.372934 L 114.125874 33.316432 L 114.965035 24.574648 L 115.804196 24.903286 L 116.643357 26.006409 L 117.482517 27.861033 L 118.321678 24.574648 L 119.160839 29.747832 L 120.000000 24.903286 L 120 40 Z"></path>
    </g>
  </svg>