<svg xmlns="http://www.w3.org/2000/svg" viewBox="0 0 120 40" width="120" height="40">
    <defs>
      <linearGradient id="color_grad" x1="0%" x2="0%" y1="0%" y2="100%">
        <stop offset="0%" style="stop-color:#16C784;stop-opacity:0.4;"></stop>
        <stop offset="100%" style="stop-color:#16C784;stop-opacity:0.0;"></stop>
      </linearGradient>
    </defs>
    <g>
      <path stroke="#16C784" stroke-width="2" stroke-linecap="round" stroke-linejoin="round" fill="none" d="M 0.000000 33.131488 L 0.839161 32.732860 L 1.678322 33.360233 L 2.517483 33.565162 L 3.356643 34.114673 L 4.195804 34.040185 L 5.034965 33.673149 L 5.874126 33.892486 L 6.713287 34.604153 L 7.552448 34.373065 L 8.391608 34.482881 L 9.230769 33.829289 L 10.069930 34.453561 L 10.909091 33.913161 L 11.748252 34.145060 L 12.587413 34.374234 L 13.426573 34.522373 L 14.265734 34.033284 L 15.104895 33.426941 L 15.944056 33.508357 L 16.783217 33.131644 L 17.622378 32.610269 L 18.461538 32.170952 L 19.300699 32.278010 L 20.139860 32.353471 L 20.979021 32.426868 L 21.818182 32.171950 L 22.657343 33.130496 L 23.496503 33.825130 L 24.335664 34.213128 L 25.174825 34.608836 L 26.013986 34.995519 L 26.853147 34.859425 L 27.692308 34.812270 L 28.531469 32.610736 L 29.370629 32.955713 L 30.209790 32.130295 L 31.048951 33.433691 L 31.888112 32.879817 L 32.727273 36.590815 L 33.566434 35.797980 L 34.405594 35.519938 L 35.244755 36.800000 L 36.083916 35.488203 L 36.923077 35.248190 L 37.762238 32.845299 L 38.601399 32.222959 L 39.440559 32.181946 L 40.279720 33.266531 L 41.118881 33.083868 L 41.958042 32.640122 L 42.797203 33.088198 L 43.636364 32.574764 L 44.475524 32.435053 L 45.314685 31.704712 L 46.153846 31.674000 L 46.993007 32.490659 L 47.832168 32.478309 L 48.671329 32.059004 L 49.510490 32.232923 L 50.349650 32.246156 L 51.188811 32.590112 L 52.027972 31.076441 L 52.867133 30.896956 L 53.706294 31.479770 L 54.545455 31.710703 L 55.384615 31.053538 L 56.223776 30.911828 L 57.062937 31.485786 L 57.902098 31.755745 L 58.741259 32.407455 L 59.580420 32.405884 L 60.419580 31.166399 L 61.258741 30.016388 L 62.097902 30.580082 L 62.937063 30.525405 L 63.776224 30.766129 L 64.615385 31.624411 L 65.454545 32.390577 L 66.293706 32.354965 L 67.132867 31.851160 L 67.972028 32.629213 L 68.811189 34.013264 L 69.650350 35.576967 L 70.489510 35.722007 L 71.328671 34.962317 L 72.167832 34.944262 L 73.006993 34.944262 L 73.846154 35.915038 L 74.685315 34.920111 L 75.524476 27.432189 L 76.363636 27.332399 L 77.202797 28.935255 L 78.041958 30.660690 L 78.881119 26.878637 L 79.720280 26.968481 L 80.559441 25.866120 L 81.398601 26.864255 L 82.237762 25.393788 L 83.076923 26.012627 L 83.916084 26.346300 L 84.755245 24.014312 L 85.594406 24.226558 L 86.433566 24.650398 L 87.272727 24.387149 L 88.111888 24.700369 L 88.951049 24.011770 L 89.790210 23.923544 L 90.629371 24.048065 L 91.468531 24.126856 L 92.307692 23.938049 L 93.146853 24.162451 L 93.986014 23.936508 L 94.825175 23.403867 L 95.664336 23.644843 L 96.503497 23.679664 L 97.342657 21.738741 L 98.181818 23.507454 L 99.020979 22.822672 L 99.860140 21.151441 L 100.699301 22.365550 L 101.538462 26.163930 L 102.377622 22.158346 L 103.216783 23.664996 L 104.055944 24.163351 L 104.895105 20.771051 L 105.734266 19.096818 L 106.573427 19.855643 L 107.412587 20.408239 L 108.251748 8.800000 L 109.090909 20.692672 L 109.930070 20.047422 L 110.769231 18.960515 L 111.608392 18.195944 L 112.447552 18.866589 L 113.286713 17.833117 L 114.125874 23.254781 L 114.965035 23.830175 L 115.804196 24.116242 L 116.643357 24.560331 L 117.482517 23.938150 L 118.321678 24.957508 L 119.160839 24.830237 L 120.000000 25.742466"></path>
      <path stroke="none" fill-opacity="0.6" fill="url(#color_grad)" d="M 0 40 L 0.000000 33.131488 L 0.839161 32.732860 L 1.678322 33.360233 L 2.517483 33.565162 L 3.356643 34.114673 L 4.195804 34.040185 L 5.034965 33.673149 L 5.874126 33.892486 L 6.713287 34.604153 L 7.552448 34.373065 L 8.391608 34.482881 L 9.230769 33.829289 L 10.069930 34.453561 L 10.909091 33.913161 L 11.748252 34.145060 L 12.587413 34.374234 L 13.426573 34.522373 L 14.265734 34.033284 L 15.104895 33.426941 L 15.944056 33.508357 L 16.783217 33.131644 L 17.622378 32.610269 L 18.461538 32.170952 L 19.300699 32.278010 L 20.139860 32.353471 L 20.979021 32.426868 L 21.818182 32.171950 L 22.657343 33.130496 L 23.496503 33.825130 L 24.335664 34.213128 L 25.174825 34.608836 L 26.013986 34.995519 L 26.853147 34.859425 L 27.692308 34.812270 L 28.531469 32.610736 L 29.370629 32.955713 L 30.209790 32.130295 L 31.048951 33.433691 L 31.888112 32.879817 L 32.727273 36.590815 L 33.566434 35.797980 L 34.405594 35.519938 L 35.244755 36.800000 L 36.083916 35.488203 L 36.923077 35.248190 L 37.762238 32.845299 L 38.601399 32.222959 L 39.440559 32.181946 L 40.279720 33.266531 L 41.118881 33.083868 L 41.958042 32.640122 L 42.797203 33.088198 L 43.636364 32.574764 L 44.475524 32.435053 L 45.314685 31.704712 L 46.153846 31.674000 L 46.993007 32.490659 L 47.832168 32.478309 L 48.671329 32.059004 L 49.510490 32.232923 L 50.349650 32.246156 L 51.188811 32.590112 L 52.027972 31.076441 L 52.867133 30.896956 L 53.706294 31.479770 L 54.545455 31.710703 L 55.384615 31.053538 L 56.223776 30.911828 L 57.062937 31.485786 L 57.902098 31.755745 L 58.741259 32.407455 L 59.580420 32.405884 L 60.419580 31.166399 L 61.258741 30.016388 L 62.097902 30.580082 L 62.937063 30.525405 L 63.776224 30.766129 L 64.615385 31.624411 L 65.454545 32.390577 L 66.293706 32.354965 L 67.132867 31.851160 L 67.972028 32.629213 L 68.811189 34.013264 L 69.650350 35.576967 L 70.489510 35.722007 L 71.328671 34.962317 L 72.167832 34.944262 L 73.006993 34.944262 L 73.846154 35.915038 L 74.685315 34.920111 L 75.524476 27.432189 L 76.363636 27.332399 L 77.202797 28.935255 L 78.041958 30.660690 L 78.881119 26.878637 L 79.720280 26.968481 L 80.559441 25.866120 L 81.398601 26.864255 L 82.237762 25.393788 L 83.076923 26.012627 L 83.916084 26.346300 L 84.755245 24.014312 L 85.594406 24.226558 L 86.433566 24.650398 L 87.272727 24.387149 L 88.111888 24.700369 L 88.951049 24.011770 L 89.790210 23.923544 L 90.629371 24.048065 L 91.468531 24.126856 L 92.307692 23.938049 L 93.146853 24.162451 L 93.986014 23.936508 L 94.825175 23.403867 L 95.664336 23.644843 L 96.503497 23.679664 L 97.342657 21.738741 L 98.181818 23.507454 L 99.020979 22.822672 L 99.860140 21.151441 L 100.699301 22.365550 L 101.538462 26.163930 L 102.377622 22.158346 L 103.216783 23.664996 L 104.055944 24.163351 L 104.895105 20.771051 L 105.734266 19.096818 L 106.573427 19.855643 L 107.412587 20.408239 L 108.251748 8.800000 L 109.090909 20.692672 L 109.930070 20.047422 L 110.769231 18.960515 L 111.608392 18.195944 L 112.447552 18.866589 L 113.286713 17.833117 L 114.125874 23.254781 L 114.965035 23.830175 L 115.804196 24.116242 L 116.643357 24.560331 L 117.482517 23.938150 L 118.321678 24.957508 L 119.160839 24.830237 L 120.000000 25.742466 L 120 40 Z"></path>
    </g>
  </svg>