<svg xmlns="http://www.w3.org/2000/svg" viewBox="0 0 120 40" width="120" height="40">
    <defs>
      <linearGradient id="color_grad" x1="0%" x2="0%" y1="0%" y2="100%">
        <stop offset="0%" style="stop-color:#EA3943;stop-opacity:0.4;"></stop>
        <stop offset="100%" style="stop-color:#EA3943;stop-opacity:0.0;"></stop>
      </linearGradient>
    </defs>
    <g>
      <path stroke="#EA3943" stroke-width="2" stroke-linecap="round" stroke-linejoin="round" fill="none" d="M 0.000000 29.798950 L 0.839161 29.798950 L 1.678322 29.798950 L 2.517483 29.798950 L 3.356643 29.798950 L 4.195804 29.798950 L 5.034965 29.798950 L 5.874126 29.798950 L 6.713287 29.798950 L 7.552448 29.798950 L 8.391608 29.798950 L 9.230769 29.798950 L 10.069930 29.798950 L 10.909091 29.798950 L 11.748252 29.798950 L 12.587413 29.798950 L 13.426573 29.798950 L 14.265734 29.798950 L 15.104895 29.798950 L 15.944056 29.798950 L 16.783217 29.798950 L 17.622378 29.798950 L 18.461538 29.798950 L 19.300699 29.798950 L 20.139860 29.798950 L 20.979021 29.798950 L 21.818182 29.798950 L 22.657343 31.198880 L 23.496503 31.898845 L 24.335664 32.178831 L 25.174825 32.178831 L 26.013986 32.178831 L 26.853147 32.598810 L 27.692308 32.598810 L 28.531469 29.798950 L 29.370629 30.498915 L 30.209790 29.798950 L 31.048951 29.798950 L 31.888112 28.918316 L 32.727273 33.998740 L 33.566434 33.998740 L 34.405594 33.998740 L 35.244755 35.222455 L 36.083916 35.398670 L 36.923077 35.398670 L 37.762238 33.998740 L 38.601399 33.998740 L 39.440559 33.998740 L 40.279720 33.998740 L 41.118881 33.998740 L 41.958042 33.998740 L 42.797203 33.998740 L 43.636364 33.998740 L 44.475524 33.998740 L 45.314685 33.998740 L 46.153846 33.998740 L 46.993007 33.998740 L 47.832168 33.998740 L 48.671329 33.998740 L 49.510490 33.998740 L 50.349650 33.998740 L 51.188811 33.998740 L 52.027972 33.998740 L 52.867133 33.998740 L 53.706294 33.998740 L 54.545455 33.998740 L 55.384615 33.998740 L 56.223776 33.998740 L 57.062937 33.998740 L 57.902098 33.998740 L 58.741259 33.998740 L 59.580420 33.998740 L 60.419580 33.998740 L 61.258741 33.998740 L 62.097902 33.998740 L 62.937063 33.998740 L 63.776224 33.998740 L 64.615385 33.998740 L 65.454545 33.998740 L 66.293706 33.998740 L 67.132867 33.998740 L 67.972028 34.322780 L 68.811189 36.798600 L 69.650350 36.798600 L 70.489510 36.798600 L 71.328671 36.800000 L 72.167832 36.800000 L 73.006993 36.800000 L 73.846154 36.800000 L 74.685315 36.800000 L 75.524476 26.159132 L 76.363636 28.399020 L 77.202797 28.400234 L 78.041958 28.400420 L 78.881119 25.599160 L 79.720280 25.599160 L 80.559441 24.532873 L 81.398601 24.903111 L 82.237762 24.321602 L 83.076923 24.683821 L 83.916084 24.899195 L 84.755245 24.899195 L 85.594406 24.899195 L 86.433566 24.899195 L 87.272727 24.899195 L 88.111888 24.899195 L 88.951049 24.899195 L 89.790210 24.899195 L 90.629371 24.899195 L 91.468531 24.899195 L 92.307692 24.899195 L 93.146853 25.599160 L 93.986014 25.599160 L 94.825175 25.599160 L 95.664336 25.599160 L 96.503497 25.599160 L 97.342657 23.799809 L 98.181818 26.299125 L 99.020979 26.641765 L 99.860140 24.477258 L 100.699301 28.399020 L 101.538462 30.337385 L 102.377622 24.768992 L 103.216783 26.999090 L 104.055944 26.999090 L 104.895105 23.079286 L 105.734266 23.079286 L 106.573427 23.219279 L 107.412587 23.219279 L 108.251748 8.800000 L 109.090909 23.219279 L 109.930070 23.219279 L 110.769231 23.219279 L 111.608392 23.135087 L 112.447552 25.984875 L 113.286713 24.002711 L 114.125874 31.198880 L 114.965035 31.198880 L 115.804196 31.198880 L 116.643357 31.198880 L 117.482517 31.198880 L 118.321678 31.198880 L 119.160839 31.198880 L 120.000000 31.198880"></path>
      <path stroke="none" fill-opacity="0.6" fill="url(#color_grad)" d="M 0 40 L 0.000000 29.798950 L 0.839161 29.798950 L 1.678322 29.798950 L 2.517483 29.798950 L 3.356643 29.798950 L 4.195804 29.798950 L 5.034965 29.798950 L 5.874126 29.798950 L 6.713287 29.798950 L 7.552448 29.798950 L 8.391608 29.798950 L 9.230769 29.798950 L 10.069930 29.798950 L 10.909091 29.798950 L 11.748252 29.798950 L 12.587413 29.798950 L 13.426573 29.798950 L 14.265734 29.798950 L 15.104895 29.798950 L 15.944056 29.798950 L 16.783217 29.798950 L 17.622378 29.798950 L 18.461538 29.798950 L 19.300699 29.798950 L 20.139860 29.798950 L 20.979021 29.798950 L 21.818182 29.798950 L 22.657343 31.198880 L 23.496503 31.898845 L 24.335664 32.178831 L 25.174825 32.178831 L 26.013986 32.178831 L 26.853147 32.598810 L 27.692308 32.598810 L 28.531469 29.798950 L 29.370629 30.498915 L 30.209790 29.798950 L 31.048951 29.798950 L 31.888112 28.918316 L 32.727273 33.998740 L 33.566434 33.998740 L 34.405594 33.998740 L 35.244755 35.222455 L 36.083916 35.398670 L 36.923077 35.398670 L 37.762238 33.998740 L 38.601399 33.998740 L 39.440559 33.998740 L 40.279720 33.998740 L 41.118881 33.998740 L 41.958042 33.998740 L 42.797203 33.998740 L 43.636364 33.998740 L 44.475524 33.998740 L 45.314685 33.998740 L 46.153846 33.998740 L 46.993007 33.998740 L 47.832168 33.998740 L 48.671329 33.998740 L 49.510490 33.998740 L 50.349650 33.998740 L 51.188811 33.998740 L 52.027972 33.998740 L 52.867133 33.998740 L 53.706294 33.998740 L 54.545455 33.998740 L 55.384615 33.998740 L 56.223776 33.998740 L 57.062937 33.998740 L 57.902098 33.998740 L 58.741259 33.998740 L 59.580420 33.998740 L 60.419580 33.998740 L 61.258741 33.998740 L 62.097902 33.998740 L 62.937063 33.998740 L 63.776224 33.998740 L 64.615385 33.998740 L 65.454545 33.998740 L 66.293706 33.998740 L 67.132867 33.998740 L 67.972028 34.322780 L 68.811189 36.798600 L 69.650350 36.798600 L 70.489510 36.798600 L 71.328671 36.800000 L 72.167832 36.800000 L 73.006993 36.800000 L 73.846154 36.800000 L 74.685315 36.800000 L 75.524476 26.159132 L 76.363636 28.399020 L 77.202797 28.400234 L 78.041958 28.400420 L 78.881119 25.599160 L 79.720280 25.599160 L 80.559441 24.532873 L 81.398601 24.903111 L 82.237762 24.321602 L 83.076923 24.683821 L 83.916084 24.899195 L 84.755245 24.899195 L 85.594406 24.899195 L 86.433566 24.899195 L 87.272727 24.899195 L 88.111888 24.899195 L 88.951049 24.899195 L 89.790210 24.899195 L 90.629371 24.899195 L 91.468531 24.899195 L 92.307692 24.899195 L 93.146853 25.599160 L 93.986014 25.599160 L 94.825175 25.599160 L 95.664336 25.599160 L 96.503497 25.599160 L 97.342657 23.799809 L 98.181818 26.299125 L 99.020979 26.641765 L 99.860140 24.477258 L 100.699301 28.399020 L 101.538462 30.337385 L 102.377622 24.768992 L 103.216783 26.999090 L 104.055944 26.999090 L 104.895105 23.079286 L 105.734266 23.079286 L 106.573427 23.219279 L 107.412587 23.219279 L 108.251748 8.800000 L 109.090909 23.219279 L 109.930070 23.219279 L 110.769231 23.219279 L 111.608392 23.135087 L 112.447552 25.984875 L 113.286713 24.002711 L 114.125874 31.198880 L 114.965035 31.198880 L 115.804196 31.198880 L 116.643357 31.198880 L 117.482517 31.198880 L 118.321678 31.198880 L 119.160839 31.198880 L 120.000000 31.198880 L 120 40 Z"></path>
    </g>
  </svg>