<svg xmlns="http://www.w3.org/2000/svg" viewBox="0 0 120 40" width="120" height="40">
    <defs>
      <linearGradient id="color_grad" x1="0%" x2="0%" y1="0%" y2="100%">
        <stop offset="0%" style="stop-color:#888888;stop-opacity:0.4;"></stop>
        <stop offset="100%" style="stop-color:#888888;stop-opacity:0.0;"></stop>
      </linearGradient>
    </defs>
    <g>
      <path stroke="#888888" stroke-width="2" stroke-linecap="round" stroke-linejoin="round" fill="none" d="M 0.000000 24.668128 L 0.839161 29.081809 L 1.678322 30.383306 L 2.517483 30.808343 L 3.356643 31.948626 L 4.195804 31.793908 L 5.034965 31.041509 L 5.874126 31.498425 L 6.713287 32.974800 L 7.552448 32.495327 L 8.391608 32.723299 L 9.230769 31.367150 L 10.069930 32.662415 L 10.909091 31.541316 L 11.748252 32.022352 L 12.587413 32.497781 L 13.426573 32.805078 L 14.265734 31.790292 L 15.104895 30.532359 L 15.944056 30.701250 L 16.783217 29.919906 L 17.622378 28.838175 L 18.461538 27.926817 L 19.300699 28.148758 L 20.139860 28.305286 L 20.979021 28.457454 L 21.818182 27.928611 L 22.657343 27.963498 L 23.496503 30.397859 L 24.335664 30.995871 L 25.174825 31.821545 L 26.013986 32.628619 L 26.853147 31.765040 L 27.692308 31.667740 L 28.531469 30.989302 L 29.370629 30.734127 L 30.209790 30.002992 L 31.048951 32.678802 L 31.888112 32.740509 L 32.727273 33.455438 L 33.566434 33.683608 L 34.405594 34.411845 L 35.244755 35.906429 L 36.083916 32.912474 L 36.923077 32.409902 L 37.762238 29.393976 L 38.601399 28.547421 L 39.440559 28.584861 L 40.279720 30.828283 L 41.118881 26.687481 L 41.958042 26.201866 L 42.797203 27.143621 L 43.636364 26.064696 L 44.475524 25.770825 L 45.314685 24.235691 L 46.153846 24.170915 L 46.993007 25.887728 L 47.832168 25.872759 L 48.671329 24.991639 L 49.510490 25.356928 L 50.349650 25.384901 L 51.188811 26.107802 L 52.027972 22.926167 L 52.867133 22.548753 L 53.706294 23.773892 L 54.545455 24.259211 L 55.384615 23.420352 L 56.223776 24.933253 L 57.062937 26.126376 L 57.902098 26.687538 L 58.741259 28.041893 L 59.580420 28.038710 L 60.419580 25.574621 L 61.258741 23.185960 L 62.097902 26.249931 L 62.937063 29.668644 L 63.776224 30.155545 L 64.615385 31.892397 L 65.454545 33.442729 L 66.293706 33.370466 L 67.132867 32.351027 L 67.972028 36.800000 L 68.811189 33.677342 L 69.650350 31.660699 L 70.489510 30.967661 L 71.328671 29.355105 L 72.167832 29.316866 L 73.006993 29.316866 L 73.846154 31.276619 L 74.685315 29.768563 L 75.524476 28.812795 L 76.363636 25.529351 L 77.202797 16.666254 L 78.041958 26.861194 L 78.881119 24.272464 L 79.720280 24.480968 L 80.559441 26.424251 L 81.398601 29.444203 L 82.237762 27.406181 L 83.076923 28.123819 L 83.916084 28.484384 L 84.755245 23.927332 L 85.594406 24.342103 L 86.433566 25.170507 L 87.272727 24.656047 L 88.111888 25.268035 L 88.951049 23.922308 L 89.790210 23.750053 L 90.629371 23.993418 L 91.468531 24.147435 L 92.307692 23.778707 L 93.146853 23.249862 L 93.986014 22.813825 L 94.825175 21.771989 L 95.664336 23.602353 L 96.503497 23.670347 L 97.342657 22.391151 L 98.181818 22.358665 L 99.020979 25.397465 L 99.860140 22.338708 L 100.699301 20.282141 L 101.538462 25.000421 L 102.377622 25.040276 L 103.216783 25.954059 L 104.055944 26.915373 L 104.895105 26.473192 L 105.734266 23.457558 L 106.573427 24.688363 L 107.412587 27.227608 L 108.251748 8.800000 L 109.090909 26.915842 L 109.930070 26.556381 L 110.769231 24.534128 L 111.608392 26.776715 L 112.447552 24.127738 L 113.286713 24.936878 L 114.125874 27.473179 L 114.965035 29.144274 L 115.804196 25.933231 L 116.643357 28.005205 L 117.482517 27.004860 L 118.321678 28.966050 L 119.160839 26.964160 L 120.000000 28.734335"></path>
      <path stroke="none" fill-opacity="0.6" fill="url(#color_grad)" d="M 0 40 L 0.000000 24.668128 L 0.839161 29.081809 L 1.678322 30.383306 L 2.517483 30.808343 L 3.356643 31.948626 L 4.195804 31.793908 L 5.034965 31.041509 L 5.874126 31.498425 L 6.713287 32.974800 L 7.552448 32.495327 L 8.391608 32.723299 L 9.230769 31.367150 L 10.069930 32.662415 L 10.909091 31.541316 L 11.748252 32.022352 L 12.587413 32.497781 L 13.426573 32.805078 L 14.265734 31.790292 L 15.104895 30.532359 L 15.944056 30.701250 L 16.783217 29.919906 L 17.622378 28.838175 L 18.461538 27.926817 L 19.300699 28.148758 L 20.139860 28.305286 L 20.979021 28.457454 L 21.818182 27.928611 L 22.657343 27.963498 L 23.496503 30.397859 L 24.335664 30.995871 L 25.174825 31.821545 L 26.013986 32.628619 L 26.853147 31.765040 L 27.692308 31.667740 L 28.531469 30.989302 L 29.370629 30.734127 L 30.209790 30.002992 L 31.048951 32.678802 L 31.888112 32.740509 L 32.727273 33.455438 L 33.566434 33.683608 L 34.405594 34.411845 L 35.244755 35.906429 L 36.083916 32.912474 L 36.923077 32.409902 L 37.762238 29.393976 L 38.601399 28.547421 L 39.440559 28.584861 L 40.279720 30.828283 L 41.118881 26.687481 L 41.958042 26.201866 L 42.797203 27.143621 L 43.636364 26.064696 L 44.475524 25.770825 L 45.314685 24.235691 L 46.153846 24.170915 L 46.993007 25.887728 L 47.832168 25.872759 L 48.671329 24.991639 L 49.510490 25.356928 L 50.349650 25.384901 L 51.188811 26.107802 L 52.027972 22.926167 L 52.867133 22.548753 L 53.706294 23.773892 L 54.545455 24.259211 L 55.384615 23.420352 L 56.223776 24.933253 L 57.062937 26.126376 L 57.902098 26.687538 L 58.741259 28.041893 L 59.580420 28.038710 L 60.419580 25.574621 L 61.258741 23.185960 L 62.097902 26.249931 L 62.937063 29.668644 L 63.776224 30.155545 L 64.615385 31.892397 L 65.454545 33.442729 L 66.293706 33.370466 L 67.132867 32.351027 L 67.972028 36.800000 L 68.811189 33.677342 L 69.650350 31.660699 L 70.489510 30.967661 L 71.328671 29.355105 L 72.167832 29.316866 L 73.006993 29.316866 L 73.846154 31.276619 L 74.685315 29.768563 L 75.524476 28.812795 L 76.363636 25.529351 L 77.202797 16.666254 L 78.041958 26.861194 L 78.881119 24.272464 L 79.720280 24.480968 L 80.559441 26.424251 L 81.398601 29.444203 L 82.237762 27.406181 L 83.076923 28.123819 L 83.916084 28.484384 L 84.755245 23.927332 L 85.594406 24.342103 L 86.433566 25.170507 L 87.272727 24.656047 L 88.111888 25.268035 L 88.951049 23.922308 L 89.790210 23.750053 L 90.629371 23.993418 L 91.468531 24.147435 L 92.307692 23.778707 L 93.146853 23.249862 L 93.986014 22.813825 L 94.825175 21.771989 L 95.664336 23.602353 L 96.503497 23.670347 L 97.342657 22.391151 L 98.181818 22.358665 L 99.020979 25.397465 L 99.860140 22.338708 L 100.699301 20.282141 L 101.538462 25.000421 L 102.377622 25.040276 L 103.216783 25.954059 L 104.055944 26.915373 L 104.895105 26.473192 L 105.734266 23.457558 L 106.573427 24.688363 L 107.412587 27.227608 L 108.251748 8.800000 L 109.090909 26.915842 L 109.930070 26.556381 L 110.769231 24.534128 L 111.608392 26.776715 L 112.447552 24.127738 L 113.286713 24.936878 L 114.125874 27.473179 L 114.965035 29.144274 L 115.804196 25.933231 L 116.643357 28.005205 L 117.482517 27.004860 L 118.321678 28.966050 L 119.160839 26.964160 L 120.000000 28.734335 L 120 40 Z"></path>
    </g>
  </svg>