<svg xmlns="http://www.w3.org/2000/svg" viewBox="0 0 120 40" width="120" height="40">
    <defs>
      <linearGradient id="color_grad" x1="0%" x2="0%" y1="0%" y2="100%">
        <stop offset="0%" style="stop-color:#EA3943;stop-opacity:0.4;"></stop>
        <stop offset="100%" style="stop-color:#EA3943;stop-opacity:0.0;"></stop>
      </linearGradient>
    </defs>
    <g>
      <path stroke="#EA3943" stroke-width="2" stroke-linecap="round" stroke-linejoin="round" fill="none" d="M 0.000000 10.012614 L 0.839161 15.876510 L 1.678322 15.876510 L 2.517483 15.876510 L 3.356643 15.876510 L 4.195804 15.876510 L 5.034965 15.886553 L 5.874126 15.888477 L 6.713287 15.888477 L 7.552448 15.888477 L 8.391608 15.888477 L 9.230769 15.888477 L 10.069930 15.888477 L 10.909091 15.888477 L 11.748252 15.888477 L 12.587413 15.888477 L 13.426573 15.888477 L 14.265734 15.888477 L 15.104895 15.888477 L 15.944056 15.888477 L 16.783217 15.888477 L 17.622378 15.888477 L 18.461538 15.888477 L 19.300699 15.888477 L 20.139860 15.888477 L 20.979021 15.888477 L 21.818182 15.888477 L 22.657343 15.888477 L 23.496503 18.070094 L 24.335664 18.269937 L 25.174825 18.269937 L 26.013986 18.269937 L 26.853147 18.275628 L 27.692308 18.277302 L 28.531469 18.281904 L 29.370629 18.281904 L 30.209790 18.281904 L 31.048951 18.281904 L 31.888112 18.281904 L 32.727273 18.281904 L 33.566434 20.408791 L 34.405594 21.868865 L 35.244755 22.458435 L 36.083916 22.458435 L 36.923077 22.458435 L 37.762238 22.458435 L 38.601399 22.937120 L 39.440559 23.068758 L 40.279720 23.068758 L 41.118881 18.984869 L 41.958042 19.466651 L 42.797203 19.466651 L 43.636364 19.466651 L 44.475524 19.466651 L 45.314685 19.466651 L 46.153846 19.466651 L 46.993007 19.466651 L 47.832168 19.478618 L 48.671329 19.478618 L 49.510490 19.478618 L 50.349650 19.478618 L 51.188811 19.478618 L 52.027972 19.478618 L 52.867133 19.478618 L 53.706294 19.478618 L 54.545455 19.478618 L 55.384615 20.055802 L 56.223776 21.979749 L 57.062937 21.979749 L 57.902098 21.979749 L 58.741259 21.979749 L 59.580420 21.979749 L 60.419580 22.099420 L 61.258741 22.099420 L 62.097902 24.107891 L 62.937063 27.843645 L 63.776224 27.843645 L 64.615385 27.843645 L 65.454545 27.843645 L 66.293706 27.843645 L 67.132867 27.843645 L 67.972028 31.433786 L 68.811189 28.792145 L 69.650350 23.073445 L 70.489510 21.979749 L 71.328671 21.979749 L 72.167832 21.979749 L 73.006993 21.979749 L 73.846154 21.872045 L 74.685315 22.526555 L 75.524476 21.872045 L 76.363636 21.872045 L 77.202797 8.800000 L 78.041958 16.003713 L 78.881119 17.317839 L 79.720280 17.348468 L 80.559441 20.232380 L 81.398601 21.927864 L 82.237762 21.979749 L 83.076923 21.979749 L 83.916084 21.979749 L 84.755245 21.979749 L 85.594406 21.979749 L 86.433566 21.979749 L 87.272727 21.979749 L 88.111888 21.979749 L 88.951049 21.979749 L 89.790210 21.979749 L 90.629371 21.979749 L 91.468531 21.979749 L 92.307692 21.979749 L 93.146853 21.979749 L 93.986014 21.987699 L 94.825175 21.991716 L 95.664336 23.415805 L 96.503497 23.415805 L 97.342657 23.415805 L 98.181818 23.415805 L 99.020979 28.446186 L 99.860140 25.494572 L 100.699301 26.646932 L 101.538462 26.646932 L 102.377622 26.722249 L 103.216783 27.855613 L 104.055944 27.855613 L 104.895105 28.557489 L 105.734266 28.681345 L 106.573427 28.681345 L 107.412587 30.237072 L 108.251748 13.483083 L 109.090909 29.364559 L 109.930070 30.237072 L 110.769231 30.237072 L 111.608392 33.839180 L 112.447552 33.839180 L 113.286713 33.839180 L 114.125874 36.220640 L 114.965035 36.800000 L 115.804196 32.990350 L 116.643357 34.224723 L 117.482517 34.425570 L 118.321678 34.425570 L 119.160839 32.630499 L 120.000000 32.630499"></path>
      <path stroke="none" fill-opacity="0.6" fill="url(#color_grad)" d="M 0 40 L 0.000000 10.012614 L 0.839161 15.876510 L 1.678322 15.876510 L 2.517483 15.876510 L 3.356643 15.876510 L 4.195804 15.876510 L 5.034965 15.886553 L 5.874126 15.888477 L 6.713287 15.888477 L 7.552448 15.888477 L 8.391608 15.888477 L 9.230769 15.888477 L 10.069930 15.888477 L 10.909091 15.888477 L 11.748252 15.888477 L 12.587413 15.888477 L 13.426573 15.888477 L 14.265734 15.888477 L 15.104895 15.888477 L 15.944056 15.888477 L 16.783217 15.888477 L 17.622378 15.888477 L 18.461538 15.888477 L 19.300699 15.888477 L 20.139860 15.888477 L 20.979021 15.888477 L 21.818182 15.888477 L 22.657343 15.888477 L 23.496503 18.070094 L 24.335664 18.269937 L 25.174825 18.269937 L 26.013986 18.269937 L 26.853147 18.275628 L 27.692308 18.277302 L 28.531469 18.281904 L 29.370629 18.281904 L 30.209790 18.281904 L 31.048951 18.281904 L 31.888112 18.281904 L 32.727273 18.281904 L 33.566434 20.408791 L 34.405594 21.868865 L 35.244755 22.458435 L 36.083916 22.458435 L 36.923077 22.458435 L 37.762238 22.458435 L 38.601399 22.937120 L 39.440559 23.068758 L 40.279720 23.068758 L 41.118881 18.984869 L 41.958042 19.466651 L 42.797203 19.466651 L 43.636364 19.466651 L 44.475524 19.466651 L 45.314685 19.466651 L 46.153846 19.466651 L 46.993007 19.466651 L 47.832168 19.478618 L 48.671329 19.478618 L 49.510490 19.478618 L 50.349650 19.478618 L 51.188811 19.478618 L 52.027972 19.478618 L 52.867133 19.478618 L 53.706294 19.478618 L 54.545455 19.478618 L 55.384615 20.055802 L 56.223776 21.979749 L 57.062937 21.979749 L 57.902098 21.979749 L 58.741259 21.979749 L 59.580420 21.979749 L 60.419580 22.099420 L 61.258741 22.099420 L 62.097902 24.107891 L 62.937063 27.843645 L 63.776224 27.843645 L 64.615385 27.843645 L 65.454545 27.843645 L 66.293706 27.843645 L 67.132867 27.843645 L 67.972028 31.433786 L 68.811189 28.792145 L 69.650350 23.073445 L 70.489510 21.979749 L 71.328671 21.979749 L 72.167832 21.979749 L 73.006993 21.979749 L 73.846154 21.872045 L 74.685315 22.526555 L 75.524476 21.872045 L 76.363636 21.872045 L 77.202797 8.800000 L 78.041958 16.003713 L 78.881119 17.317839 L 79.720280 17.348468 L 80.559441 20.232380 L 81.398601 21.927864 L 82.237762 21.979749 L 83.076923 21.979749 L 83.916084 21.979749 L 84.755245 21.979749 L 85.594406 21.979749 L 86.433566 21.979749 L 87.272727 21.979749 L 88.111888 21.979749 L 88.951049 21.979749 L 89.790210 21.979749 L 90.629371 21.979749 L 91.468531 21.979749 L 92.307692 21.979749 L 93.146853 21.979749 L 93.986014 21.987699 L 94.825175 21.991716 L 95.664336 23.415805 L 96.503497 23.415805 L 97.342657 23.415805 L 98.181818 23.415805 L 99.020979 28.446186 L 99.860140 25.494572 L 100.699301 26.646932 L 101.538462 26.646932 L 102.377622 26.722249 L 103.216783 27.855613 L 104.055944 27.855613 L 104.895105 28.557489 L 105.734266 28.681345 L 106.573427 28.681345 L 107.412587 30.237072 L 108.251748 13.483083 L 109.090909 29.364559 L 109.930070 30.237072 L 110.769231 30.237072 L 111.608392 33.839180 L 112.447552 33.839180 L 113.286713 33.839180 L 114.125874 36.220640 L 114.965035 36.800000 L 115.804196 32.990350 L 116.643357 34.224723 L 117.482517 34.425570 L 118.321678 34.425570 L 119.160839 32.630499 L 120.000000 32.630499 L 120 40 Z"></path>
    </g>
  </svg>