<svg xmlns="http://www.w3.org/2000/svg" viewBox="0 0 120 40" width="120" height="40">
    <defs>
      <linearGradient id="color_grad" x1="0%" x2="0%" y1="0%" y2="100%">
        <stop offset="0%" style="stop-color:#EA3943;stop-opacity:0.4;"></stop>
        <stop offset="100%" style="stop-color:#EA3943;stop-opacity:0.0;"></stop>
      </linearGradient>
    </defs>
    <g>
      <path stroke="#EA3943" stroke-width="2" stroke-linecap="round" stroke-linejoin="round" fill="none" d="M 0.000000 8.800000 L 0.839161 12.593548 L 1.678322 12.593548 L 2.517483 12.593548 L 3.356643 12.593548 L 4.195804 12.593548 L 5.034965 17.863839 L 5.874126 13.316129 L 6.713287 12.713978 L 7.552448 15.724731 L 8.391608 15.724731 L 9.230769 15.724731 L 10.069930 15.724731 L 10.909091 15.724731 L 11.748252 15.724731 L 12.587413 16.326882 L 13.426573 9.703226 L 14.265734 9.703226 L 15.104895 9.703226 L 15.944056 8.800000 L 16.783217 13.316129 L 17.622378 14.520430 L 18.461538 14.520430 L 19.300699 19.337634 L 20.139860 13.918280 L 20.979021 13.320340 L 21.818182 9.703226 L 22.657343 9.703226 L 23.496503 12.461328 L 24.335664 24.083254 L 25.174825 14.271990 L 26.013986 16.326882 L 26.853147 17.788044 L 27.692308 18.735484 L 28.531469 17.371171 L 29.370629 16.929032 L 30.209790 17.531183 L 31.048951 17.531183 L 31.888112 15.724731 L 32.727273 14.520430 L 33.566434 15.724731 L 34.405594 16.166870 L 35.244755 16.326882 L 36.083916 16.301617 L 36.923077 14.520430 L 37.762238 14.520430 L 38.601399 14.520430 L 39.440559 13.918280 L 40.279720 13.918280 L 41.118881 14.255147 L 41.958042 13.316129 L 42.797203 13.316129 L 43.636364 13.316129 L 44.475524 15.724731 L 45.314685 13.316129 L 46.153846 13.316129 L 46.993007 13.316129 L 47.832168 13.316129 L 48.671329 12.713978 L 49.510490 12.713978 L 50.349650 12.713978 L 51.188811 13.034003 L 52.027972 12.911888 L 52.867133 12.713978 L 53.706294 12.713978 L 54.545455 12.713978 L 55.384615 12.713978 L 56.223776 13.316129 L 57.062937 13.930912 L 57.902098 14.520430 L 58.741259 14.996255 L 59.580420 15.122581 L 60.419580 13.876171 L 61.258741 17.910159 L 62.097902 22.651568 L 62.937063 18.735484 L 63.776224 15.303647 L 64.615385 12.111828 L 65.454545 12.111828 L 66.293706 12.684503 L 67.132867 13.316129 L 67.972028 13.918280 L 68.811189 15.122581 L 69.650350 18.341770 L 70.489510 16.710068 L 71.328671 17.329062 L 72.167832 17.531183 L 73.006993 17.531183 L 73.846154 18.133333 L 74.685315 17.863839 L 75.524476 17.531183 L 76.363636 17.531183 L 77.202797 17.531183 L 78.041958 17.560659 L 78.881119 21.746237 L 79.720280 21.746237 L 80.559441 22.830108 L 81.398601 22.830108 L 82.237762 22.830108 L 83.076923 23.552688 L 83.916084 24.740146 L 84.755245 24.756989 L 85.594406 24.756989 L 86.433566 24.756989 L 87.272727 24.756989 L 88.111888 24.756989 L 88.951049 24.756989 L 89.790210 24.756989 L 90.629371 24.756989 L 91.468531 24.756989 L 92.307692 24.756989 L 93.146853 25.359140 L 93.986014 25.359140 L 94.825175 25.359140 L 95.664336 26.563441 L 96.503497 26.563441 L 97.342657 26.563441 L 98.181818 26.563441 L 99.020979 26.563441 L 99.860140 28.757290 L 100.699301 28.972043 L 101.538462 31.195368 L 102.377622 32.285976 L 103.216783 36.800000 L 104.055944 27.767742 L 104.895105 27.767742 L 105.734266 26.643447 L 106.573427 25.961290 L 107.412587 25.961290 L 108.251748 31.380645 L 109.090909 26.399218 L 109.930070 28.369892 L 110.769231 29.875269 L 111.608392 29.875269 L 112.447552 28.369892 L 113.286713 28.369892 L 114.125874 30.753230 L 114.965035 30.757440 L 115.804196 34.993548 L 116.643357 35.789398 L 117.482517 31.380645 L 118.321678 30.778495 L 119.160839 31.296428 L 120.000000 32.584946"></path>
      <path stroke="none" fill-opacity="0.6" fill="url(#color_grad)" d="M 0 40 L 0.000000 8.800000 L 0.839161 12.593548 L 1.678322 12.593548 L 2.517483 12.593548 L 3.356643 12.593548 L 4.195804 12.593548 L 5.034965 17.863839 L 5.874126 13.316129 L 6.713287 12.713978 L 7.552448 15.724731 L 8.391608 15.724731 L 9.230769 15.724731 L 10.069930 15.724731 L 10.909091 15.724731 L 11.748252 15.724731 L 12.587413 16.326882 L 13.426573 9.703226 L 14.265734 9.703226 L 15.104895 9.703226 L 15.944056 8.800000 L 16.783217 13.316129 L 17.622378 14.520430 L 18.461538 14.520430 L 19.300699 19.337634 L 20.139860 13.918280 L 20.979021 13.320340 L 21.818182 9.703226 L 22.657343 9.703226 L 23.496503 12.461328 L 24.335664 24.083254 L 25.174825 14.271990 L 26.013986 16.326882 L 26.853147 17.788044 L 27.692308 18.735484 L 28.531469 17.371171 L 29.370629 16.929032 L 30.209790 17.531183 L 31.048951 17.531183 L 31.888112 15.724731 L 32.727273 14.520430 L 33.566434 15.724731 L 34.405594 16.166870 L 35.244755 16.326882 L 36.083916 16.301617 L 36.923077 14.520430 L 37.762238 14.520430 L 38.601399 14.520430 L 39.440559 13.918280 L 40.279720 13.918280 L 41.118881 14.255147 L 41.958042 13.316129 L 42.797203 13.316129 L 43.636364 13.316129 L 44.475524 15.724731 L 45.314685 13.316129 L 46.153846 13.316129 L 46.993007 13.316129 L 47.832168 13.316129 L 48.671329 12.713978 L 49.510490 12.713978 L 50.349650 12.713978 L 51.188811 13.034003 L 52.027972 12.911888 L 52.867133 12.713978 L 53.706294 12.713978 L 54.545455 12.713978 L 55.384615 12.713978 L 56.223776 13.316129 L 57.062937 13.930912 L 57.902098 14.520430 L 58.741259 14.996255 L 59.580420 15.122581 L 60.419580 13.876171 L 61.258741 17.910159 L 62.097902 22.651568 L 62.937063 18.735484 L 63.776224 15.303647 L 64.615385 12.111828 L 65.454545 12.111828 L 66.293706 12.684503 L 67.132867 13.316129 L 67.972028 13.918280 L 68.811189 15.122581 L 69.650350 18.341770 L 70.489510 16.710068 L 71.328671 17.329062 L 72.167832 17.531183 L 73.006993 17.531183 L 73.846154 18.133333 L 74.685315 17.863839 L 75.524476 17.531183 L 76.363636 17.531183 L 77.202797 17.531183 L 78.041958 17.560659 L 78.881119 21.746237 L 79.720280 21.746237 L 80.559441 22.830108 L 81.398601 22.830108 L 82.237762 22.830108 L 83.076923 23.552688 L 83.916084 24.740146 L 84.755245 24.756989 L 85.594406 24.756989 L 86.433566 24.756989 L 87.272727 24.756989 L 88.111888 24.756989 L 88.951049 24.756989 L 89.790210 24.756989 L 90.629371 24.756989 L 91.468531 24.756989 L 92.307692 24.756989 L 93.146853 25.359140 L 93.986014 25.359140 L 94.825175 25.359140 L 95.664336 26.563441 L 96.503497 26.563441 L 97.342657 26.563441 L 98.181818 26.563441 L 99.020979 26.563441 L 99.860140 28.757290 L 100.699301 28.972043 L 101.538462 31.195368 L 102.377622 32.285976 L 103.216783 36.800000 L 104.055944 27.767742 L 104.895105 27.767742 L 105.734266 26.643447 L 106.573427 25.961290 L 107.412587 25.961290 L 108.251748 31.380645 L 109.090909 26.399218 L 109.930070 28.369892 L 110.769231 29.875269 L 111.608392 29.875269 L 112.447552 28.369892 L 113.286713 28.369892 L 114.125874 30.753230 L 114.965035 30.757440 L 115.804196 34.993548 L 116.643357 35.789398 L 117.482517 31.380645 L 118.321678 30.778495 L 119.160839 31.296428 L 120.000000 32.584946 L 120 40 Z"></path>
    </g>
  </svg>