<svg xmlns="http://www.w3.org/2000/svg" viewBox="0 0 120 40" width="120" height="40">
    <defs>
      <linearGradient id="color_grad" x1="0%" x2="0%" y1="0%" y2="100%">
        <stop offset="0%" style="stop-color:#EA3943;stop-opacity:0.4;"></stop>
        <stop offset="100%" style="stop-color:#EA3943;stop-opacity:0.0;"></stop>
      </linearGradient>
    </defs>
    <g>
      <path stroke="#EA3943" stroke-width="2" stroke-linecap="round" stroke-linejoin="round" fill="none" d="M 0.000000 13.848539 L 0.839161 17.861795 L 1.678322 19.066338 L 2.517483 19.461763 L 3.356643 20.525983 L 4.195804 20.383882 L 5.034965 26.185119 L 5.874126 20.962955 L 6.713287 21.586970 L 7.552448 24.843002 L 8.391608 25.050738 L 9.230769 23.822916 L 10.069930 24.993024 L 10.909091 23.974069 L 11.748252 24.403282 L 12.587413 25.591335 L 13.426573 17.727131 L 14.265734 16.759261 L 15.104895 15.567975 L 15.944056 14.583777 L 16.783217 19.502178 L 17.622378 20.028549 L 18.461538 19.197607 L 19.300699 25.435493 L 20.139860 18.789088 L 20.979021 18.155535 L 21.818182 13.115079 L 22.657343 13.155009 L 23.496503 17.055587 L 24.335664 32.051829 L 25.174825 20.492196 L 26.013986 23.789613 L 26.853147 24.821663 L 27.692308 25.923065 L 28.531469 23.588183 L 29.370629 22.814630 L 30.209790 22.911789 L 31.048951 25.325078 L 31.888112 23.134074 L 32.727273 22.294887 L 33.566434 22.240246 L 34.405594 22.270153 L 35.244755 23.375435 L 36.083916 20.557830 L 36.923077 17.824775 L 37.762238 14.991650 L 38.601399 13.778701 L 39.440559 12.915265 L 40.279720 15.033521 L 41.118881 15.119525 L 41.958042 13.018567 L 42.797203 13.910294 L 43.636364 12.892309 L 44.475524 15.744186 L 45.314685 11.206499 L 46.153846 11.145552 L 46.993007 12.734689 L 47.832168 12.715128 L 48.671329 11.119201 L 49.510490 11.443495 L 50.349650 11.469684 L 51.188811 12.564782 L 52.027972 9.413507 L 52.867133 8.800000 L 53.706294 9.972049 L 54.545455 10.420822 L 55.384615 9.121869 L 56.223776 9.629972 L 57.062937 11.556173 L 57.902098 12.853672 L 58.741259 14.753037 L 59.580420 14.908718 L 60.419580 10.853268 L 61.258741 13.966229 L 62.097902 21.293877 L 62.937063 16.029843 L 63.776224 11.950305 L 64.615385 9.461520 L 65.454545 10.975646 L 66.293706 11.656404 L 67.132867 11.478414 L 67.972028 13.355147 L 68.811189 14.259645 L 69.650350 21.475908 L 70.489510 19.676450 L 71.328671 18.986800 L 72.167832 19.211834 L 73.006993 19.211834 L 73.846154 21.863250 L 74.685315 19.590607 L 75.524476 18.834191 L 76.363636 15.811438 L 77.202797 18.756917 L 78.041958 21.970109 L 78.881119 23.974716 L 79.720280 24.112775 L 80.559441 24.886489 L 81.398601 26.169438 L 82.237762 24.326169 L 83.076923 25.908839 L 83.916084 27.767142 L 84.755245 23.776519 L 85.594406 24.143814 L 86.433566 24.871940 L 87.272727 24.434321 L 88.111888 24.953094 L 88.951049 23.787997 L 89.790210 23.643471 L 90.629371 23.846357 L 91.468531 23.974069 L 92.307692 23.661092 L 93.146853 23.991529 L 93.986014 23.626820 L 94.825175 22.694031 L 95.664336 24.705913 L 96.503497 24.778822 L 97.342657 23.660122 L 98.181818 23.627305 L 99.020979 22.043665 L 99.860140 24.827806 L 100.699301 22.370384 L 101.538462 29.438726 L 102.377622 30.887540 L 103.216783 36.800000 L 104.055944 25.510666 L 104.895105 24.534551 L 105.734266 20.221897 L 106.573427 20.394390 L 107.412587 21.320551 L 108.251748 26.851813 L 109.090909 22.385256 L 109.930070 23.982153 L 110.769231 24.214137 L 111.608392 23.074744 L 112.447552 18.659758 L 113.286713 19.380285 L 114.125874 22.847771 L 114.965035 23.828089 L 115.804196 30.144219 L 116.643357 31.980859 L 117.482517 24.867413 L 118.321678 25.787592 L 119.160839 26.279530 L 120.000000 29.568541"></path>
      <path stroke="none" fill-opacity="0.6" fill="url(#color_grad)" d="M 0 40 L 0.000000 13.848539 L 0.839161 17.861795 L 1.678322 19.066338 L 2.517483 19.461763 L 3.356643 20.525983 L 4.195804 20.383882 L 5.034965 26.185119 L 5.874126 20.962955 L 6.713287 21.586970 L 7.552448 24.843002 L 8.391608 25.050738 L 9.230769 23.822916 L 10.069930 24.993024 L 10.909091 23.974069 L 11.748252 24.403282 L 12.587413 25.591335 L 13.426573 17.727131 L 14.265734 16.759261 L 15.104895 15.567975 L 15.944056 14.583777 L 16.783217 19.502178 L 17.622378 20.028549 L 18.461538 19.197607 L 19.300699 25.435493 L 20.139860 18.789088 L 20.979021 18.155535 L 21.818182 13.115079 L 22.657343 13.155009 L 23.496503 17.055587 L 24.335664 32.051829 L 25.174825 20.492196 L 26.013986 23.789613 L 26.853147 24.821663 L 27.692308 25.923065 L 28.531469 23.588183 L 29.370629 22.814630 L 30.209790 22.911789 L 31.048951 25.325078 L 31.888112 23.134074 L 32.727273 22.294887 L 33.566434 22.240246 L 34.405594 22.270153 L 35.244755 23.375435 L 36.083916 20.557830 L 36.923077 17.824775 L 37.762238 14.991650 L 38.601399 13.778701 L 39.440559 12.915265 L 40.279720 15.033521 L 41.118881 15.119525 L 41.958042 13.018567 L 42.797203 13.910294 L 43.636364 12.892309 L 44.475524 15.744186 L 45.314685 11.206499 L 46.153846 11.145552 L 46.993007 12.734689 L 47.832168 12.715128 L 48.671329 11.119201 L 49.510490 11.443495 L 50.349650 11.469684 L 51.188811 12.564782 L 52.027972 9.413507 L 52.867133 8.800000 L 53.706294 9.972049 L 54.545455 10.420822 L 55.384615 9.121869 L 56.223776 9.629972 L 57.062937 11.556173 L 57.902098 12.853672 L 58.741259 14.753037 L 59.580420 14.908718 L 60.419580 10.853268 L 61.258741 13.966229 L 62.097902 21.293877 L 62.937063 16.029843 L 63.776224 11.950305 L 64.615385 9.461520 L 65.454545 10.975646 L 66.293706 11.656404 L 67.132867 11.478414 L 67.972028 13.355147 L 68.811189 14.259645 L 69.650350 21.475908 L 70.489510 19.676450 L 71.328671 18.986800 L 72.167832 19.211834 L 73.006993 19.211834 L 73.846154 21.863250 L 74.685315 19.590607 L 75.524476 18.834191 L 76.363636 15.811438 L 77.202797 18.756917 L 78.041958 21.970109 L 78.881119 23.974716 L 79.720280 24.112775 L 80.559441 24.886489 L 81.398601 26.169438 L 82.237762 24.326169 L 83.076923 25.908839 L 83.916084 27.767142 L 84.755245 23.776519 L 85.594406 24.143814 L 86.433566 24.871940 L 87.272727 24.434321 L 88.111888 24.953094 L 88.951049 23.787997 L 89.790210 23.643471 L 90.629371 23.846357 L 91.468531 23.974069 L 92.307692 23.661092 L 93.146853 23.991529 L 93.986014 23.626820 L 94.825175 22.694031 L 95.664336 24.705913 L 96.503497 24.778822 L 97.342657 23.660122 L 98.181818 23.627305 L 99.020979 22.043665 L 99.860140 24.827806 L 100.699301 22.370384 L 101.538462 29.438726 L 102.377622 30.887540 L 103.216783 36.800000 L 104.055944 25.510666 L 104.895105 24.534551 L 105.734266 20.221897 L 106.573427 20.394390 L 107.412587 21.320551 L 108.251748 26.851813 L 109.090909 22.385256 L 109.930070 23.982153 L 110.769231 24.214137 L 111.608392 23.074744 L 112.447552 18.659758 L 113.286713 19.380285 L 114.125874 22.847771 L 114.965035 23.828089 L 115.804196 30.144219 L 116.643357 31.980859 L 117.482517 24.867413 L 118.321678 25.787592 L 119.160839 26.279530 L 120.000000 29.568541 L 120 40 Z"></path>
    </g>
  </svg>