<svg xmlns="http://www.w3.org/2000/svg" viewBox="0 0 120 40" width="120" height="40">
    <defs>
      <linearGradient id="color_grad" x1="0%" x2="0%" y1="0%" y2="100%">
        <stop offset="0%" style="stop-color:#EA3943;stop-opacity:0.4;"></stop>
        <stop offset="100%" style="stop-color:#EA3943;stop-opacity:0.0;"></stop>
      </linearGradient>
    </defs>
    <g>
      <path stroke="#EA3943" stroke-width="2" stroke-linecap="round" stroke-linejoin="round" fill="none" d="M 0.000000 24.764860 L 0.839161 24.505380 L 1.678322 23.441319 L 2.517483 23.589063 L 3.356643 20.885204 L 4.195804 20.993308 L 5.034965 20.735011 L 5.874126 23.441556 L 6.713287 23.913138 L 7.552448 23.757734 L 8.391608 23.840963 L 9.230769 23.403731 L 10.069930 23.817984 L 10.909091 23.453953 L 11.748252 23.603988 L 12.587413 23.765156 L 13.426573 23.859994 L 14.265734 23.538525 L 15.104895 23.126720 L 15.944056 25.011707 L 16.783217 24.763834 L 17.622378 22.687356 L 18.461538 22.280604 L 19.300699 22.350804 L 20.139860 22.401579 L 20.979021 22.450617 L 21.818182 23.221952 L 22.657343 25.458810 L 23.496503 22.821360 L 24.335664 23.047360 L 25.174825 25.124548 L 26.013986 23.961465 L 26.853147 21.903544 L 27.692308 21.615240 L 28.531469 21.096279 L 29.370629 20.272431 L 30.209790 21.163557 L 31.048951 23.989734 L 31.888112 25.828131 L 32.727273 25.769855 L 33.566434 22.833916 L 34.405594 24.090179 L 35.244755 26.266548 L 36.083916 25.299378 L 36.923077 22.057368 L 37.762238 20.859461 L 38.601399 20.732563 L 39.440559 20.920344 L 40.279720 21.136551 L 41.118881 20.776231 L 41.958042 24.060093 L 42.797203 25.489843 L 43.636364 25.158030 L 44.475524 25.069746 L 45.314685 25.230915 L 46.153846 26.582884 L 46.993007 26.622288 L 47.832168 26.616445 L 48.671329 26.352384 L 49.510490 26.455592 L 50.349650 26.474465 L 51.188811 26.687987 L 52.027972 25.729582 L 52.867133 21.361840 L 53.706294 21.755641 L 54.545455 22.055789 L 55.384615 22.834784 L 56.223776 22.143836 L 57.062937 23.861652 L 57.902098 23.367881 L 58.741259 25.732662 L 59.580420 27.300523 L 60.419580 26.167683 L 61.258741 25.609476 L 62.097902 26.309269 L 62.937063 27.319475 L 63.776224 23.693140 L 64.615385 24.924687 L 65.454545 24.380930 L 66.293706 22.694778 L 67.132867 19.115507 L 67.972028 18.070398 L 68.811189 19.770289 L 69.650350 22.546007 L 70.489510 22.311874 L 71.328671 21.299536 L 72.167832 21.286902 L 73.006993 21.286902 L 73.846154 26.549877 L 74.685315 26.310532 L 75.524476 26.456145 L 76.363636 25.836581 L 77.202797 26.812911 L 78.041958 27.870418 L 78.881119 27.112269 L 79.720280 27.170072 L 80.559441 25.426592 L 81.398601 26.253519 L 82.237762 25.615714 L 83.076923 26.152048 L 83.916084 27.080604 L 84.755245 25.715842 L 85.594406 25.839187 L 86.433566 26.081769 L 87.272727 25.928970 L 88.111888 26.109644 L 88.951049 25.705498 L 89.790210 25.651565 L 90.629371 25.722318 L 91.468531 25.769855 L 92.307692 25.661277 L 93.146853 25.507926 L 93.986014 25.370684 L 94.825175 25.058691 L 95.664336 25.194512 L 96.503497 24.434389 L 97.342657 24.122870 L 98.181818 24.425072 L 99.020979 23.460586 L 99.860140 23.284256 L 100.699301 22.004856 L 101.538462 23.489725 L 102.377622 23.483881 L 103.216783 24.216129 L 104.055944 24.523305 L 104.895105 24.168355 L 105.734266 28.800632 L 106.573427 29.466232 L 107.412587 25.909861 L 108.251748 8.800000 L 109.090909 27.196762 L 109.930070 30.850025 L 110.769231 33.101017 L 111.608392 29.840450 L 112.447552 29.568651 L 113.286713 30.203613 L 114.125874 30.260152 L 114.965035 32.665916 L 115.804196 34.124884 L 116.643357 36.604165 L 117.482517 36.304254 L 118.321678 36.800000 L 119.160839 33.241891 L 120.000000 33.200039"></path>
      <path stroke="none" fill-opacity="0.6" fill="url(#color_grad)" d="M 0 40 L 0.000000 24.764860 L 0.839161 24.505380 L 1.678322 23.441319 L 2.517483 23.589063 L 3.356643 20.885204 L 4.195804 20.993308 L 5.034965 20.735011 L 5.874126 23.441556 L 6.713287 23.913138 L 7.552448 23.757734 L 8.391608 23.840963 L 9.230769 23.403731 L 10.069930 23.817984 L 10.909091 23.453953 L 11.748252 23.603988 L 12.587413 23.765156 L 13.426573 23.859994 L 14.265734 23.538525 L 15.104895 23.126720 L 15.944056 25.011707 L 16.783217 24.763834 L 17.622378 22.687356 L 18.461538 22.280604 L 19.300699 22.350804 L 20.139860 22.401579 L 20.979021 22.450617 L 21.818182 23.221952 L 22.657343 25.458810 L 23.496503 22.821360 L 24.335664 23.047360 L 25.174825 25.124548 L 26.013986 23.961465 L 26.853147 21.903544 L 27.692308 21.615240 L 28.531469 21.096279 L 29.370629 20.272431 L 30.209790 21.163557 L 31.048951 23.989734 L 31.888112 25.828131 L 32.727273 25.769855 L 33.566434 22.833916 L 34.405594 24.090179 L 35.244755 26.266548 L 36.083916 25.299378 L 36.923077 22.057368 L 37.762238 20.859461 L 38.601399 20.732563 L 39.440559 20.920344 L 40.279720 21.136551 L 41.118881 20.776231 L 41.958042 24.060093 L 42.797203 25.489843 L 43.636364 25.158030 L 44.475524 25.069746 L 45.314685 25.230915 L 46.153846 26.582884 L 46.993007 26.622288 L 47.832168 26.616445 L 48.671329 26.352384 L 49.510490 26.455592 L 50.349650 26.474465 L 51.188811 26.687987 L 52.027972 25.729582 L 52.867133 21.361840 L 53.706294 21.755641 L 54.545455 22.055789 L 55.384615 22.834784 L 56.223776 22.143836 L 57.062937 23.861652 L 57.902098 23.367881 L 58.741259 25.732662 L 59.580420 27.300523 L 60.419580 26.167683 L 61.258741 25.609476 L 62.097902 26.309269 L 62.937063 27.319475 L 63.776224 23.693140 L 64.615385 24.924687 L 65.454545 24.380930 L 66.293706 22.694778 L 67.132867 19.115507 L 67.972028 18.070398 L 68.811189 19.770289 L 69.650350 22.546007 L 70.489510 22.311874 L 71.328671 21.299536 L 72.167832 21.286902 L 73.006993 21.286902 L 73.846154 26.549877 L 74.685315 26.310532 L 75.524476 26.456145 L 76.363636 25.836581 L 77.202797 26.812911 L 78.041958 27.870418 L 78.881119 27.112269 L 79.720280 27.170072 L 80.559441 25.426592 L 81.398601 26.253519 L 82.237762 25.615714 L 83.076923 26.152048 L 83.916084 27.080604 L 84.755245 25.715842 L 85.594406 25.839187 L 86.433566 26.081769 L 87.272727 25.928970 L 88.111888 26.109644 L 88.951049 25.705498 L 89.790210 25.651565 L 90.629371 25.722318 L 91.468531 25.769855 L 92.307692 25.661277 L 93.146853 25.507926 L 93.986014 25.370684 L 94.825175 25.058691 L 95.664336 25.194512 L 96.503497 24.434389 L 97.342657 24.122870 L 98.181818 24.425072 L 99.020979 23.460586 L 99.860140 23.284256 L 100.699301 22.004856 L 101.538462 23.489725 L 102.377622 23.483881 L 103.216783 24.216129 L 104.055944 24.523305 L 104.895105 24.168355 L 105.734266 28.800632 L 106.573427 29.466232 L 107.412587 25.909861 L 108.251748 8.800000 L 109.090909 27.196762 L 109.930070 30.850025 L 110.769231 33.101017 L 111.608392 29.840450 L 112.447552 29.568651 L 113.286713 30.203613 L 114.125874 30.260152 L 114.965035 32.665916 L 115.804196 34.124884 L 116.643357 36.604165 L 117.482517 36.304254 L 118.321678 36.800000 L 119.160839 33.241891 L 120.000000 33.200039 L 120 40 Z"></path>
    </g>
  </svg>