<svg xmlns="http://www.w3.org/2000/svg" viewBox="0 0 120 40" width="120" height="40">
    <defs>
      <linearGradient id="color_grad" x1="0%" x2="0%" y1="0%" y2="100%">
        <stop offset="0%" style="stop-color:#EA3943;stop-opacity:0.4;"></stop>
        <stop offset="100%" style="stop-color:#EA3943;stop-opacity:0.0;"></stop>
      </linearGradient>
    </defs>
    <g>
      <path stroke="#EA3943" stroke-width="2" stroke-linecap="round" stroke-linejoin="round" fill="none" d="M 0.000000 18.800000 L 0.839161 18.800000 L 1.678322 17.200000 L 2.517483 17.200000 L 3.356643 13.823776 L 4.195804 14.000000 L 5.034965 14.000000 L 5.874126 16.800000 L 6.713287 16.800000 L 7.552448 16.800000 L 8.391608 16.800000 L 9.230769 16.800000 L 10.069930 16.800000 L 10.909091 16.800000 L 11.748252 16.800000 L 12.587413 16.800000 L 13.426573 16.800000 L 14.265734 16.800000 L 15.104895 16.800000 L 15.944056 18.800000 L 16.783217 18.800000 L 17.622378 16.925874 L 18.461538 16.800000 L 19.300699 16.800000 L 20.139860 16.800000 L 20.979021 16.800000 L 21.818182 17.818182 L 22.657343 20.220979 L 23.496503 17.202797 L 24.335664 17.311888 L 25.174825 19.278322 L 26.013986 17.723077 L 26.853147 15.790210 L 27.692308 15.507692 L 28.531469 15.200000 L 29.370629 14.400000 L 30.209790 15.627972 L 31.048951 17.739860 L 31.888112 19.725874 L 32.727273 19.418182 L 33.566434 16.800000 L 34.405594 18.374825 L 35.244755 20.400000 L 36.083916 20.383217 L 36.923077 17.076923 L 37.762238 16.869930 L 38.601399 17.200000 L 39.440559 17.429371 L 40.279720 16.858741 L 41.118881 16.623776 L 41.958042 20.394406 L 42.797203 21.600000 L 43.636364 21.600000 L 44.475524 21.600000 L 45.314685 22.262937 L 46.153846 23.692308 L 46.993007 23.200000 L 47.832168 23.200000 L 48.671329 23.200000 L 49.510490 23.200000 L 50.349650 23.200000 L 51.188811 23.200000 L 52.027972 23.200000 L 52.867133 18.800000 L 53.706294 18.800000 L 54.545455 18.945455 L 55.384615 20.215385 L 56.223776 19.600000 L 57.062937 20.987413 L 57.902098 20.279720 L 58.741259 22.316084 L 59.580420 23.972028 L 60.419580 23.600000 L 61.258741 23.767832 L 62.097902 24.120280 L 62.937063 25.200000 L 63.776224 21.303497 L 64.615385 22.000000 L 65.454545 20.909091 L 66.293706 19.160839 L 67.132867 15.773427 L 67.972028 14.268531 L 68.811189 16.299301 L 69.650350 18.069930 L 70.489510 17.703497 L 71.328671 17.200000 L 72.167832 17.200000 L 73.006993 17.200000 L 73.846154 22.092308 L 74.685315 22.525874 L 75.524476 22.800000 L 76.363636 23.200000 L 77.202797 23.200000 L 78.041958 23.202797 L 78.881119 23.600000 L 79.720280 23.600000 L 80.559441 22.000000 L 81.398601 22.400000 L 82.237762 22.400000 L 83.076923 22.738462 L 83.916084 23.588811 L 84.755245 23.600000 L 85.594406 23.600000 L 86.433566 23.600000 L 87.272727 23.600000 L 88.111888 23.600000 L 88.951049 23.600000 L 89.790210 23.600000 L 90.629371 23.600000 L 91.468531 23.600000 L 92.307692 23.600000 L 93.146853 23.600000 L 93.986014 23.600000 L 94.825175 23.600000 L 95.664336 23.600000 L 96.503497 22.800000 L 97.342657 22.889510 L 98.181818 23.200000 L 99.020979 22.800000 L 99.860140 22.685315 L 100.699301 22.400000 L 101.538462 22.400000 L 102.377622 22.400000 L 103.216783 23.200000 L 104.055944 23.200000 L 104.895105 23.200000 L 105.734266 28.800000 L 106.573427 29.102098 L 107.412587 25.230769 L 108.251748 8.800000 L 109.090909 26.363636 L 109.930070 30.400000 L 110.769231 33.200000 L 111.608392 30.321678 L 112.447552 30.800000 L 113.286713 31.200000 L 114.125874 31.208392 L 114.965035 33.264336 L 115.804196 34.562238 L 116.643357 36.800000 L 117.482517 36.800000 L 118.321678 36.800000 L 119.160839 33.320280 L 120.000000 32.800000"></path>
      <path stroke="none" fill-opacity="0.6" fill="url(#color_grad)" d="M 0 40 L 0.000000 18.800000 L 0.839161 18.800000 L 1.678322 17.200000 L 2.517483 17.200000 L 3.356643 13.823776 L 4.195804 14.000000 L 5.034965 14.000000 L 5.874126 16.800000 L 6.713287 16.800000 L 7.552448 16.800000 L 8.391608 16.800000 L 9.230769 16.800000 L 10.069930 16.800000 L 10.909091 16.800000 L 11.748252 16.800000 L 12.587413 16.800000 L 13.426573 16.800000 L 14.265734 16.800000 L 15.104895 16.800000 L 15.944056 18.800000 L 16.783217 18.800000 L 17.622378 16.925874 L 18.461538 16.800000 L 19.300699 16.800000 L 20.139860 16.800000 L 20.979021 16.800000 L 21.818182 17.818182 L 22.657343 20.220979 L 23.496503 17.202797 L 24.335664 17.311888 L 25.174825 19.278322 L 26.013986 17.723077 L 26.853147 15.790210 L 27.692308 15.507692 L 28.531469 15.200000 L 29.370629 14.400000 L 30.209790 15.627972 L 31.048951 17.739860 L 31.888112 19.725874 L 32.727273 19.418182 L 33.566434 16.800000 L 34.405594 18.374825 L 35.244755 20.400000 L 36.083916 20.383217 L 36.923077 17.076923 L 37.762238 16.869930 L 38.601399 17.200000 L 39.440559 17.429371 L 40.279720 16.858741 L 41.118881 16.623776 L 41.958042 20.394406 L 42.797203 21.600000 L 43.636364 21.600000 L 44.475524 21.600000 L 45.314685 22.262937 L 46.153846 23.692308 L 46.993007 23.200000 L 47.832168 23.200000 L 48.671329 23.200000 L 49.510490 23.200000 L 50.349650 23.200000 L 51.188811 23.200000 L 52.027972 23.200000 L 52.867133 18.800000 L 53.706294 18.800000 L 54.545455 18.945455 L 55.384615 20.215385 L 56.223776 19.600000 L 57.062937 20.987413 L 57.902098 20.279720 L 58.741259 22.316084 L 59.580420 23.972028 L 60.419580 23.600000 L 61.258741 23.767832 L 62.097902 24.120280 L 62.937063 25.200000 L 63.776224 21.303497 L 64.615385 22.000000 L 65.454545 20.909091 L 66.293706 19.160839 L 67.132867 15.773427 L 67.972028 14.268531 L 68.811189 16.299301 L 69.650350 18.069930 L 70.489510 17.703497 L 71.328671 17.200000 L 72.167832 17.200000 L 73.006993 17.200000 L 73.846154 22.092308 L 74.685315 22.525874 L 75.524476 22.800000 L 76.363636 23.200000 L 77.202797 23.200000 L 78.041958 23.202797 L 78.881119 23.600000 L 79.720280 23.600000 L 80.559441 22.000000 L 81.398601 22.400000 L 82.237762 22.400000 L 83.076923 22.738462 L 83.916084 23.588811 L 84.755245 23.600000 L 85.594406 23.600000 L 86.433566 23.600000 L 87.272727 23.600000 L 88.111888 23.600000 L 88.951049 23.600000 L 89.790210 23.600000 L 90.629371 23.600000 L 91.468531 23.600000 L 92.307692 23.600000 L 93.146853 23.600000 L 93.986014 23.600000 L 94.825175 23.600000 L 95.664336 23.600000 L 96.503497 22.800000 L 97.342657 22.889510 L 98.181818 23.200000 L 99.020979 22.800000 L 99.860140 22.685315 L 100.699301 22.400000 L 101.538462 22.400000 L 102.377622 22.400000 L 103.216783 23.200000 L 104.055944 23.200000 L 104.895105 23.200000 L 105.734266 28.800000 L 106.573427 29.102098 L 107.412587 25.230769 L 108.251748 8.800000 L 109.090909 26.363636 L 109.930070 30.400000 L 110.769231 33.200000 L 111.608392 30.321678 L 112.447552 30.800000 L 113.286713 31.200000 L 114.125874 31.208392 L 114.965035 33.264336 L 115.804196 34.562238 L 116.643357 36.800000 L 117.482517 36.800000 L 118.321678 36.800000 L 119.160839 33.320280 L 120.000000 32.800000 L 120 40 Z"></path>
    </g>
  </svg>