<svg xmlns="http://www.w3.org/2000/svg" viewBox="0 0 120 40" width="120" height="40">
    <defs>
      <linearGradient id="color_grad" x1="0%" x2="0%" y1="0%" y2="100%">
        <stop offset="0%" style="stop-color:#EA3943;stop-opacity:0.4;"></stop>
        <stop offset="100%" style="stop-color:#EA3943;stop-opacity:0.0;"></stop>
      </linearGradient>
    </defs>
    <g>
      <path stroke="#EA3943" stroke-width="2" stroke-linecap="round" stroke-linejoin="round" fill="none" d="M 0.000000 29.964005 L 0.839161 29.645818 L 1.678322 29.775015 L 2.517483 30.300450 L 3.356643 30.728721 L 4.195804 30.666365 L 5.034965 29.899941 L 5.874126 30.068323 L 6.713287 30.631129 L 7.552448 30.445769 L 8.391608 30.540905 L 9.230769 30.016858 L 10.069930 30.852792 L 10.909091 30.980067 L 11.748252 31.252768 L 12.587413 31.432468 L 13.426573 31.545542 L 14.265734 31.164786 L 15.104895 30.680566 L 15.944056 30.751036 L 16.783217 30.454098 L 17.622378 30.033835 L 18.461538 29.702088 L 19.300699 29.784091 L 20.139860 28.845013 L 20.979021 28.895944 L 21.818182 28.695316 L 22.657343 29.707854 L 23.496503 29.441239 L 24.335664 27.561802 L 25.174825 27.878174 L 26.013986 28.362181 L 26.853147 28.350756 L 27.692308 27.827563 L 28.531469 27.542156 L 29.370629 27.448729 L 30.209790 27.668576 L 31.048951 28.212590 L 31.888112 29.930371 L 32.727273 27.669537 L 33.566434 25.973325 L 34.405594 26.498440 L 35.244755 25.660797 L 36.083916 18.248436 L 36.923077 18.533629 L 37.762238 18.625668 L 38.601399 22.820928 L 39.440559 22.779606 L 40.279720 23.701387 L 41.118881 23.546991 L 41.958042 18.036489 L 42.797203 17.629787 L 43.636364 20.032417 L 44.475524 21.326945 L 45.314685 19.267914 L 46.153846 20.270736 L 46.993007 20.993490 L 47.832168 22.008591 L 48.671329 21.810525 L 49.510490 25.782947 L 50.349650 22.496014 L 51.188811 24.670468 L 52.027972 21.320539 L 52.867133 19.137116 L 53.706294 24.766671 L 54.545455 24.450620 L 55.384615 24.141936 L 56.223776 24.822407 L 57.062937 24.254796 L 57.902098 25.004884 L 58.741259 25.729239 L 59.580420 26.054153 L 60.419580 25.554877 L 61.258741 24.090471 L 62.097902 24.708052 L 62.937063 24.501338 L 63.776224 24.706451 L 64.615385 24.897149 L 65.454545 26.448042 L 66.293706 26.500255 L 67.132867 36.800000 L 67.972028 26.060239 L 68.811189 21.134432 L 69.650350 23.146482 L 70.489510 25.446181 L 71.328671 26.070596 L 72.167832 26.055220 L 73.006993 26.055220 L 73.846154 27.894510 L 74.685315 27.058897 L 75.524476 26.913150 L 76.363636 25.100233 L 77.202797 26.372339 L 78.041958 27.743318 L 78.881119 24.943703 L 79.720280 23.276319 L 80.559441 27.300099 L 81.398601 29.378990 L 82.237762 29.934322 L 83.076923 30.718043 L 83.916084 25.294669 L 84.755245 24.374597 L 85.594406 29.556875 L 86.433566 29.094117 L 87.272727 27.858314 L 88.111888 28.077735 L 88.951049 28.627621 L 89.790210 28.551491 L 90.629371 28.647694 L 91.468531 28.711972 L 92.307692 28.571031 L 93.146853 27.319532 L 93.986014 27.154353 L 94.825175 27.814430 L 95.664336 26.927137 L 96.503497 26.954578 L 97.342657 27.353593 L 98.181818 28.784152 L 99.020979 28.444717 L 99.860140 28.902671 L 100.699301 28.257435 L 101.538462 30.545390 L 102.377622 27.866429 L 103.216783 28.336448 L 104.055944 28.177248 L 104.895105 27.692173 L 105.734266 28.687521 L 106.573427 29.158502 L 107.412587 29.544276 L 108.251748 8.800000 L 109.090909 31.553337 L 109.930070 32.517079 L 110.769231 31.784503 L 111.608392 31.312775 L 112.447552 31.055770 L 113.286713 30.630382 L 114.125874 32.908940 L 114.965035 32.955280 L 115.804196 31.312241 L 116.643357 31.621886 L 117.482517 31.184005 L 118.321678 31.911137 L 119.160839 32.295630 L 120.000000 35.170628"></path>
      <path stroke="none" fill-opacity="0.6" fill="url(#color_grad)" d="M 0 40 L 0.000000 29.964005 L 0.839161 29.645818 L 1.678322 29.775015 L 2.517483 30.300450 L 3.356643 30.728721 L 4.195804 30.666365 L 5.034965 29.899941 L 5.874126 30.068323 L 6.713287 30.631129 L 7.552448 30.445769 L 8.391608 30.540905 L 9.230769 30.016858 L 10.069930 30.852792 L 10.909091 30.980067 L 11.748252 31.252768 L 12.587413 31.432468 L 13.426573 31.545542 L 14.265734 31.164786 L 15.104895 30.680566 L 15.944056 30.751036 L 16.783217 30.454098 L 17.622378 30.033835 L 18.461538 29.702088 L 19.300699 29.784091 L 20.139860 28.845013 L 20.979021 28.895944 L 21.818182 28.695316 L 22.657343 29.707854 L 23.496503 29.441239 L 24.335664 27.561802 L 25.174825 27.878174 L 26.013986 28.362181 L 26.853147 28.350756 L 27.692308 27.827563 L 28.531469 27.542156 L 29.370629 27.448729 L 30.209790 27.668576 L 31.048951 28.212590 L 31.888112 29.930371 L 32.727273 27.669537 L 33.566434 25.973325 L 34.405594 26.498440 L 35.244755 25.660797 L 36.083916 18.248436 L 36.923077 18.533629 L 37.762238 18.625668 L 38.601399 22.820928 L 39.440559 22.779606 L 40.279720 23.701387 L 41.118881 23.546991 L 41.958042 18.036489 L 42.797203 17.629787 L 43.636364 20.032417 L 44.475524 21.326945 L 45.314685 19.267914 L 46.153846 20.270736 L 46.993007 20.993490 L 47.832168 22.008591 L 48.671329 21.810525 L 49.510490 25.782947 L 50.349650 22.496014 L 51.188811 24.670468 L 52.027972 21.320539 L 52.867133 19.137116 L 53.706294 24.766671 L 54.545455 24.450620 L 55.384615 24.141936 L 56.223776 24.822407 L 57.062937 24.254796 L 57.902098 25.004884 L 58.741259 25.729239 L 59.580420 26.054153 L 60.419580 25.554877 L 61.258741 24.090471 L 62.097902 24.708052 L 62.937063 24.501338 L 63.776224 24.706451 L 64.615385 24.897149 L 65.454545 26.448042 L 66.293706 26.500255 L 67.132867 36.800000 L 67.972028 26.060239 L 68.811189 21.134432 L 69.650350 23.146482 L 70.489510 25.446181 L 71.328671 26.070596 L 72.167832 26.055220 L 73.006993 26.055220 L 73.846154 27.894510 L 74.685315 27.058897 L 75.524476 26.913150 L 76.363636 25.100233 L 77.202797 26.372339 L 78.041958 27.743318 L 78.881119 24.943703 L 79.720280 23.276319 L 80.559441 27.300099 L 81.398601 29.378990 L 82.237762 29.934322 L 83.076923 30.718043 L 83.916084 25.294669 L 84.755245 24.374597 L 85.594406 29.556875 L 86.433566 29.094117 L 87.272727 27.858314 L 88.111888 28.077735 L 88.951049 28.627621 L 89.790210 28.551491 L 90.629371 28.647694 L 91.468531 28.711972 L 92.307692 28.571031 L 93.146853 27.319532 L 93.986014 27.154353 L 94.825175 27.814430 L 95.664336 26.927137 L 96.503497 26.954578 L 97.342657 27.353593 L 98.181818 28.784152 L 99.020979 28.444717 L 99.860140 28.902671 L 100.699301 28.257435 L 101.538462 30.545390 L 102.377622 27.866429 L 103.216783 28.336448 L 104.055944 28.177248 L 104.895105 27.692173 L 105.734266 28.687521 L 106.573427 29.158502 L 107.412587 29.544276 L 108.251748 8.800000 L 109.090909 31.553337 L 109.930070 32.517079 L 110.769231 31.784503 L 111.608392 31.312775 L 112.447552 31.055770 L 113.286713 30.630382 L 114.125874 32.908940 L 114.965035 32.955280 L 115.804196 31.312241 L 116.643357 31.621886 L 117.482517 31.184005 L 118.321678 31.911137 L 119.160839 32.295630 L 120.000000 35.170628 L 120 40 Z"></path>
    </g>
  </svg>