<svg xmlns="http://www.w3.org/2000/svg" viewBox="0 0 120 40" width="120" height="40">
    <defs>
      <linearGradient id="color_grad" x1="0%" x2="0%" y1="0%" y2="100%">
        <stop offset="0%" style="stop-color:#EA3943;stop-opacity:0.4;"></stop>
        <stop offset="100%" style="stop-color:#EA3943;stop-opacity:0.0;"></stop>
      </linearGradient>
    </defs>
    <g>
      <path stroke="#EA3943" stroke-width="2" stroke-linecap="round" stroke-linejoin="round" fill="none" d="M 0.000000 23.912971 L 0.839161 23.912971 L 1.678322 23.491050 L 2.517483 23.912971 L 3.356643 23.912971 L 4.195804 23.912971 L 5.034965 23.327197 L 5.874126 23.327197 L 6.713287 23.327197 L 7.552448 23.327197 L 8.391608 23.327197 L 9.230769 23.327197 L 10.069930 23.724540 L 10.909091 24.392240 L 11.748252 24.498745 L 12.587413 24.498745 L 13.426573 24.498745 L 14.265734 24.498745 L 15.104895 24.498745 L 15.944056 24.498745 L 16.783217 24.498745 L 17.622378 24.498745 L 18.461538 24.498745 L 19.300699 24.498745 L 20.139860 23.327197 L 20.979021 23.327197 L 21.818182 23.327197 L 22.657343 24.498745 L 23.496503 23.962127 L 24.335664 21.569874 L 25.174825 21.569874 L 26.013986 21.766498 L 26.853147 22.155649 L 27.692308 21.569874 L 28.531469 21.569874 L 29.370629 21.569874 L 30.209790 22.155649 L 31.048951 21.569874 L 31.888112 23.577072 L 32.727273 20.558083 L 33.566434 19.337379 L 34.405594 20.242666 L 35.244755 18.788472 L 36.083916 11.611715 L 36.923077 12.197490 L 37.762238 13.815537 L 38.601399 19.226778 L 39.440559 19.226778 L 40.279720 19.226778 L 41.118881 19.226778 L 41.958042 13.364941 L 42.797203 12.426884 L 43.636364 15.712134 L 44.475524 17.330181 L 45.314685 15.712134 L 46.153846 16.883682 L 46.993007 16.883682 L 47.832168 18.055230 L 48.671329 18.251854 L 49.510490 22.593955 L 50.349650 18.845820 L 51.188811 20.984100 L 52.027972 18.649197 L 52.867133 16.375738 L 53.706294 22.155649 L 54.545455 21.569874 L 55.384615 21.840232 L 56.223776 22.741423 L 57.062937 21.569874 L 57.902098 22.155649 L 58.741259 22.372754 L 59.580420 22.741423 L 60.419580 23.327197 L 61.258741 22.741423 L 62.097902 22.917564 L 62.937063 22.741423 L 63.776224 22.741423 L 64.615385 22.155649 L 65.454545 23.220692 L 66.293706 23.298522 L 67.132867 35.428551 L 67.972028 22.741423 L 68.811189 17.469456 L 69.650350 18.182216 L 70.489510 20.689165 L 71.328671 22.155649 L 72.167832 22.155649 L 73.006993 22.155649 L 73.846154 23.327197 L 74.685315 23.327197 L 75.524476 23.327197 L 76.363636 22.741423 L 77.202797 22.741423 L 78.041958 22.737326 L 78.881119 21.225783 L 79.720280 19.226778 L 80.559441 24.162846 L 81.398601 25.903783 L 82.237762 27.427615 L 83.076923 28.013389 L 83.916084 21.659994 L 84.755245 22.671785 L 85.594406 28.287843 L 86.433566 27.427615 L 87.272727 26.256067 L 88.111888 26.256067 L 88.951049 27.427615 L 89.790210 27.427615 L 90.629371 27.427615 L 91.468531 27.427615 L 92.307692 27.427615 L 93.146853 26.256067 L 93.986014 26.256067 L 94.825175 27.427615 L 95.664336 26.256067 L 96.503497 26.256067 L 97.342657 27.235088 L 98.181818 28.812172 L 99.020979 29.184937 L 99.860140 29.770711 L 100.699301 30.356485 L 101.538462 30.942259 L 102.377622 28.013389 L 103.216783 28.599163 L 104.055944 28.013389 L 104.895105 27.972426 L 105.734266 30.356485 L 106.573427 30.356485 L 107.412587 30.356485 L 108.251748 8.800000 L 109.090909 32.326816 L 109.930070 33.871130 L 110.769231 33.871130 L 111.608392 33.871130 L 112.447552 34.628949 L 113.286713 33.871130 L 114.125874 36.214226 L 114.965035 35.837364 L 115.804196 33.871130 L 116.643357 33.871130 L 117.482517 33.871130 L 118.321678 33.871130 L 119.160839 34.374977 L 120.000000 36.800000"></path>
      <path stroke="none" fill-opacity="0.6" fill="url(#color_grad)" d="M 0 40 L 0.000000 23.912971 L 0.839161 23.912971 L 1.678322 23.491050 L 2.517483 23.912971 L 3.356643 23.912971 L 4.195804 23.912971 L 5.034965 23.327197 L 5.874126 23.327197 L 6.713287 23.327197 L 7.552448 23.327197 L 8.391608 23.327197 L 9.230769 23.327197 L 10.069930 23.724540 L 10.909091 24.392240 L 11.748252 24.498745 L 12.587413 24.498745 L 13.426573 24.498745 L 14.265734 24.498745 L 15.104895 24.498745 L 15.944056 24.498745 L 16.783217 24.498745 L 17.622378 24.498745 L 18.461538 24.498745 L 19.300699 24.498745 L 20.139860 23.327197 L 20.979021 23.327197 L 21.818182 23.327197 L 22.657343 24.498745 L 23.496503 23.962127 L 24.335664 21.569874 L 25.174825 21.569874 L 26.013986 21.766498 L 26.853147 22.155649 L 27.692308 21.569874 L 28.531469 21.569874 L 29.370629 21.569874 L 30.209790 22.155649 L 31.048951 21.569874 L 31.888112 23.577072 L 32.727273 20.558083 L 33.566434 19.337379 L 34.405594 20.242666 L 35.244755 18.788472 L 36.083916 11.611715 L 36.923077 12.197490 L 37.762238 13.815537 L 38.601399 19.226778 L 39.440559 19.226778 L 40.279720 19.226778 L 41.118881 19.226778 L 41.958042 13.364941 L 42.797203 12.426884 L 43.636364 15.712134 L 44.475524 17.330181 L 45.314685 15.712134 L 46.153846 16.883682 L 46.993007 16.883682 L 47.832168 18.055230 L 48.671329 18.251854 L 49.510490 22.593955 L 50.349650 18.845820 L 51.188811 20.984100 L 52.027972 18.649197 L 52.867133 16.375738 L 53.706294 22.155649 L 54.545455 21.569874 L 55.384615 21.840232 L 56.223776 22.741423 L 57.062937 21.569874 L 57.902098 22.155649 L 58.741259 22.372754 L 59.580420 22.741423 L 60.419580 23.327197 L 61.258741 22.741423 L 62.097902 22.917564 L 62.937063 22.741423 L 63.776224 22.741423 L 64.615385 22.155649 L 65.454545 23.220692 L 66.293706 23.298522 L 67.132867 35.428551 L 67.972028 22.741423 L 68.811189 17.469456 L 69.650350 18.182216 L 70.489510 20.689165 L 71.328671 22.155649 L 72.167832 22.155649 L 73.006993 22.155649 L 73.846154 23.327197 L 74.685315 23.327197 L 75.524476 23.327197 L 76.363636 22.741423 L 77.202797 22.741423 L 78.041958 22.737326 L 78.881119 21.225783 L 79.720280 19.226778 L 80.559441 24.162846 L 81.398601 25.903783 L 82.237762 27.427615 L 83.076923 28.013389 L 83.916084 21.659994 L 84.755245 22.671785 L 85.594406 28.287843 L 86.433566 27.427615 L 87.272727 26.256067 L 88.111888 26.256067 L 88.951049 27.427615 L 89.790210 27.427615 L 90.629371 27.427615 L 91.468531 27.427615 L 92.307692 27.427615 L 93.146853 26.256067 L 93.986014 26.256067 L 94.825175 27.427615 L 95.664336 26.256067 L 96.503497 26.256067 L 97.342657 27.235088 L 98.181818 28.812172 L 99.020979 29.184937 L 99.860140 29.770711 L 100.699301 30.356485 L 101.538462 30.942259 L 102.377622 28.013389 L 103.216783 28.599163 L 104.055944 28.013389 L 104.895105 27.972426 L 105.734266 30.356485 L 106.573427 30.356485 L 107.412587 30.356485 L 108.251748 8.800000 L 109.090909 32.326816 L 109.930070 33.871130 L 110.769231 33.871130 L 111.608392 33.871130 L 112.447552 34.628949 L 113.286713 33.871130 L 114.125874 36.214226 L 114.965035 35.837364 L 115.804196 33.871130 L 116.643357 33.871130 L 117.482517 33.871130 L 118.321678 33.871130 L 119.160839 34.374977 L 120.000000 36.800000 L 120 40 Z"></path>
    </g>
  </svg>