<svg xmlns="http://www.w3.org/2000/svg" viewBox="0 0 120 40" width="120" height="40">
    <defs>
      <linearGradient id="color_grad" x1="0%" x2="0%" y1="0%" y2="100%">
        <stop offset="0%" style="stop-color:#EA3943;stop-opacity:0.4;"></stop>
        <stop offset="100%" style="stop-color:#EA3943;stop-opacity:0.0;"></stop>
      </linearGradient>
    </defs>
    <g>
      <path stroke="#EA3943" stroke-width="2" stroke-linecap="round" stroke-linejoin="round" fill="none" d="M 0.000000 26.452174 L 0.839161 27.060870 L 1.678322 28.278261 L 2.517483 29.555245 L 3.356643 28.618790 L 4.195804 29.738279 L 5.034965 31.125935 L 5.874126 17.321739 L 6.713287 17.321739 L 7.552448 18.539130 L 8.391608 16.104348 L 9.230769 16.947157 L 10.069930 16.104348 L 10.909091 16.104348 L 11.748252 16.104348 L 12.587413 16.104348 L 13.426573 15.495652 L 14.265734 15.495652 L 15.104895 15.495652 L 15.944056 15.495652 L 16.783217 15.495652 L 17.622378 15.495652 L 18.461538 15.495652 L 19.300699 15.495652 L 20.139860 15.495652 L 20.979021 15.495652 L 21.818182 15.495652 L 22.657343 16.104348 L 23.496503 15.546732 L 24.335664 15.495652 L 25.174825 20.735543 L 26.013986 19.756522 L 26.853147 19.756522 L 27.692308 19.756522 L 28.531469 16.402311 L 29.370629 16.104348 L 30.209790 17.321739 L 31.048951 16.713043 L 31.888112 16.713043 L 32.727273 16.713043 L 33.566434 17.321739 L 34.405594 17.321739 L 35.244755 17.321739 L 36.083916 17.321739 L 36.923077 22.191304 L 37.762238 17.500517 L 38.601399 20.973913 L 39.440559 20.973913 L 40.279720 20.973913 L 41.118881 20.973913 L 41.958042 21.582609 L 42.797203 21.582609 L 43.636364 21.582609 L 44.475524 21.582609 L 45.314685 21.582609 L 46.153846 21.582609 L 46.993007 21.582609 L 47.832168 21.582609 L 48.671329 21.582609 L 49.510490 21.582609 L 50.349650 17.930435 L 51.188811 17.930435 L 52.027972 18.339070 L 52.867133 16.713043 L 53.706294 16.713043 L 54.545455 16.713043 L 55.384615 16.713043 L 56.223776 16.713043 L 57.062937 17.930435 L 57.902098 17.930435 L 58.741259 20.463119 L 59.580420 21.540043 L 60.419580 17.406871 L 61.258741 19.147826 L 62.097902 22.587169 L 62.937063 23.991852 L 63.776224 25.234783 L 64.615385 26.592642 L 65.454545 26.452174 L 66.293706 15.763819 L 67.132867 15.495652 L 67.972028 16.304409 L 68.811189 19.164853 L 69.650350 27.060870 L 70.489510 27.060870 L 71.328671 27.060870 L 72.167832 27.060870 L 73.006993 27.060870 L 73.846154 27.060870 L 74.685315 27.060870 L 75.524476 27.060870 L 76.363636 27.060870 L 77.202797 27.060870 L 78.041958 27.060870 L 78.881119 27.060870 L 79.720280 27.060870 L 80.559441 21.867802 L 81.398601 14.886957 L 82.237762 14.027121 L 83.076923 13.669565 L 83.916084 13.686592 L 84.755245 13.669565 L 85.594406 13.669565 L 86.433566 13.669565 L 87.272727 13.669565 L 88.111888 14.086713 L 88.951049 14.278261 L 89.790210 14.886957 L 90.629371 14.886957 L 91.468531 14.886957 L 92.307692 14.886957 L 93.146853 14.886957 L 93.986014 14.886957 L 94.825175 15.865978 L 95.664336 16.308665 L 96.503497 16.104348 L 97.342657 18.539130 L 98.181818 18.539130 L 99.020979 18.539130 L 99.860140 18.539130 L 100.699301 18.062390 L 101.538462 17.930435 L 102.377622 21.088842 L 103.216783 23.046884 L 104.055944 24.017391 L 104.895105 24.017391 L 105.734266 24.017391 L 106.573427 24.017391 L 107.412587 25.115597 L 108.251748 8.800000 L 109.090909 26.064822 L 109.930070 27.060870 L 110.769231 27.060870 L 111.608392 27.060870 L 112.447552 26.158468 L 113.286713 26.452174 L 114.125874 27.060870 L 114.965035 32.070903 L 115.804196 32.905199 L 116.643357 34.169413 L 117.482517 34.756826 L 118.321678 36.800000 L 119.160839 35.850775 L 120.000000 36.800000"></path>
      <path stroke="none" fill-opacity="0.6" fill="url(#color_grad)" d="M 0 40 L 0.000000 26.452174 L 0.839161 27.060870 L 1.678322 28.278261 L 2.517483 29.555245 L 3.356643 28.618790 L 4.195804 29.738279 L 5.034965 31.125935 L 5.874126 17.321739 L 6.713287 17.321739 L 7.552448 18.539130 L 8.391608 16.104348 L 9.230769 16.947157 L 10.069930 16.104348 L 10.909091 16.104348 L 11.748252 16.104348 L 12.587413 16.104348 L 13.426573 15.495652 L 14.265734 15.495652 L 15.104895 15.495652 L 15.944056 15.495652 L 16.783217 15.495652 L 17.622378 15.495652 L 18.461538 15.495652 L 19.300699 15.495652 L 20.139860 15.495652 L 20.979021 15.495652 L 21.818182 15.495652 L 22.657343 16.104348 L 23.496503 15.546732 L 24.335664 15.495652 L 25.174825 20.735543 L 26.013986 19.756522 L 26.853147 19.756522 L 27.692308 19.756522 L 28.531469 16.402311 L 29.370629 16.104348 L 30.209790 17.321739 L 31.048951 16.713043 L 31.888112 16.713043 L 32.727273 16.713043 L 33.566434 17.321739 L 34.405594 17.321739 L 35.244755 17.321739 L 36.083916 17.321739 L 36.923077 22.191304 L 37.762238 17.500517 L 38.601399 20.973913 L 39.440559 20.973913 L 40.279720 20.973913 L 41.118881 20.973913 L 41.958042 21.582609 L 42.797203 21.582609 L 43.636364 21.582609 L 44.475524 21.582609 L 45.314685 21.582609 L 46.153846 21.582609 L 46.993007 21.582609 L 47.832168 21.582609 L 48.671329 21.582609 L 49.510490 21.582609 L 50.349650 17.930435 L 51.188811 17.930435 L 52.027972 18.339070 L 52.867133 16.713043 L 53.706294 16.713043 L 54.545455 16.713043 L 55.384615 16.713043 L 56.223776 16.713043 L 57.062937 17.930435 L 57.902098 17.930435 L 58.741259 20.463119 L 59.580420 21.540043 L 60.419580 17.406871 L 61.258741 19.147826 L 62.097902 22.587169 L 62.937063 23.991852 L 63.776224 25.234783 L 64.615385 26.592642 L 65.454545 26.452174 L 66.293706 15.763819 L 67.132867 15.495652 L 67.972028 16.304409 L 68.811189 19.164853 L 69.650350 27.060870 L 70.489510 27.060870 L 71.328671 27.060870 L 72.167832 27.060870 L 73.006993 27.060870 L 73.846154 27.060870 L 74.685315 27.060870 L 75.524476 27.060870 L 76.363636 27.060870 L 77.202797 27.060870 L 78.041958 27.060870 L 78.881119 27.060870 L 79.720280 27.060870 L 80.559441 21.867802 L 81.398601 14.886957 L 82.237762 14.027121 L 83.076923 13.669565 L 83.916084 13.686592 L 84.755245 13.669565 L 85.594406 13.669565 L 86.433566 13.669565 L 87.272727 13.669565 L 88.111888 14.086713 L 88.951049 14.278261 L 89.790210 14.886957 L 90.629371 14.886957 L 91.468531 14.886957 L 92.307692 14.886957 L 93.146853 14.886957 L 93.986014 14.886957 L 94.825175 15.865978 L 95.664336 16.308665 L 96.503497 16.104348 L 97.342657 18.539130 L 98.181818 18.539130 L 99.020979 18.539130 L 99.860140 18.539130 L 100.699301 18.062390 L 101.538462 17.930435 L 102.377622 21.088842 L 103.216783 23.046884 L 104.055944 24.017391 L 104.895105 24.017391 L 105.734266 24.017391 L 106.573427 24.017391 L 107.412587 25.115597 L 108.251748 8.800000 L 109.090909 26.064822 L 109.930070 27.060870 L 110.769231 27.060870 L 111.608392 27.060870 L 112.447552 26.158468 L 113.286713 26.452174 L 114.125874 27.060870 L 114.965035 32.070903 L 115.804196 32.905199 L 116.643357 34.169413 L 117.482517 34.756826 L 118.321678 36.800000 L 119.160839 35.850775 L 120.000000 36.800000 L 120 40 Z"></path>
    </g>
  </svg>