<svg xmlns="http://www.w3.org/2000/svg" viewBox="0 0 120 40" width="120" height="40">
    <defs>
      <linearGradient id="color_grad" x1="0%" x2="0%" y1="0%" y2="100%">
        <stop offset="0%" style="stop-color:#EA3943;stop-opacity:0.4;"></stop>
        <stop offset="100%" style="stop-color:#EA3943;stop-opacity:0.0;"></stop>
      </linearGradient>
    </defs>
    <g>
      <path stroke="#EA3943" stroke-width="2" stroke-linecap="round" stroke-linejoin="round" fill="none" d="M 0.000000 32.507673 L 0.839161 32.661561 L 1.678322 34.200441 L 2.517483 35.416618 L 3.356643 35.118078 L 4.195804 35.969885 L 5.034965 36.800000 L 5.874126 25.747552 L 6.713287 26.402731 L 7.552448 27.176037 L 8.391608 25.314346 L 9.230769 25.370403 L 10.069930 25.281915 L 10.909091 24.766556 L 11.748252 24.984663 L 12.587413 25.205132 L 13.426573 24.850749 L 14.265734 24.390159 L 15.104895 23.799413 L 15.944056 23.885217 L 16.783217 23.519773 L 17.622378 23.014616 L 18.461538 22.588498 L 19.300699 22.698142 L 20.139860 22.767193 L 20.979021 22.841613 L 21.818182 22.592901 L 22.657343 23.112877 L 23.496503 22.872863 L 24.335664 23.029329 L 25.174825 27.711262 L 26.013986 27.276445 L 26.853147 26.877818 L 27.692308 26.842273 L 28.531469 23.758605 L 29.370629 23.402075 L 30.209790 24.073362 L 31.048951 24.803927 L 31.888112 24.835607 L 32.727273 25.165827 L 33.566434 24.890805 L 34.405594 24.611272 L 35.244755 25.071003 L 36.083916 23.657553 L 36.923077 27.491975 L 37.762238 22.166568 L 38.601399 24.505494 L 39.440559 24.470271 L 40.279720 25.493793 L 41.118881 25.312520 L 41.958042 25.413895 L 42.797203 25.843987 L 43.636364 25.359879 L 44.475524 25.228650 L 45.314685 24.544906 L 46.153846 24.515159 L 46.993007 25.279659 L 47.832168 25.274290 L 48.671329 24.875985 L 49.510490 25.036317 L 50.349650 21.935789 L 51.188811 22.275782 L 52.027972 21.152388 L 52.867133 19.578499 L 53.706294 20.138102 L 54.545455 20.368988 L 55.384615 19.727447 L 56.223776 19.591064 L 57.062937 21.198995 L 57.902098 21.463386 L 58.741259 24.241640 L 59.580420 25.160351 L 60.419580 20.435032 L 61.258741 20.838384 L 62.097902 24.353432 L 62.937063 25.525257 L 63.776224 26.820580 L 64.615385 28.760665 L 65.454545 29.326067 L 66.293706 20.190722 L 67.132867 19.472292 L 67.972028 20.716498 L 68.811189 22.821746 L 69.650350 30.992632 L 70.489510 31.125257 L 71.328671 30.421002 L 72.167832 30.403820 L 73.006993 30.403820 L 73.846154 31.296865 L 74.685315 30.385993 L 75.524476 30.228776 L 76.363636 28.820695 L 77.202797 30.203755 L 78.041958 31.690337 L 78.881119 30.094863 L 79.720280 30.173471 L 80.559441 25.438487 L 81.398601 20.197810 L 82.237762 18.465845 L 83.076923 18.509552 L 83.916084 18.701563 L 84.755245 16.482482 L 85.594406 16.688454 L 86.433566 17.074731 L 87.272727 16.828596 L 88.111888 17.484419 L 88.951049 17.002136 L 89.790210 17.436631 L 90.629371 17.560880 L 91.468531 17.642495 L 92.307692 17.458216 L 93.146853 17.208752 L 93.986014 17.002351 L 94.825175 17.355553 L 95.664336 17.958433 L 96.503497 17.817539 L 97.342657 19.348473 L 98.181818 19.334512 L 99.020979 18.479376 L 99.860140 18.373920 L 100.699301 16.452628 L 101.538462 18.580428 L 102.377622 21.346010 L 103.216783 22.995823 L 104.055944 24.290717 L 104.895105 23.780405 L 105.734266 22.349773 L 106.573427 22.922369 L 107.412587 24.361915 L 108.251748 8.800000 L 109.090909 25.445038 L 109.930070 25.780306 L 110.769231 24.887261 L 111.608392 24.302959 L 112.447552 22.276856 L 113.286713 22.917859 L 114.125874 23.537492 L 114.965035 28.592602 L 115.804196 29.578430 L 116.643357 31.083161 L 117.482517 31.111190 L 118.321678 33.777437 L 119.160839 32.821892 L 120.000000 34.396533"></path>
      <path stroke="none" fill-opacity="0.6" fill="url(#color_grad)" d="M 0 40 L 0.000000 32.507673 L 0.839161 32.661561 L 1.678322 34.200441 L 2.517483 35.416618 L 3.356643 35.118078 L 4.195804 35.969885 L 5.034965 36.800000 L 5.874126 25.747552 L 6.713287 26.402731 L 7.552448 27.176037 L 8.391608 25.314346 L 9.230769 25.370403 L 10.069930 25.281915 L 10.909091 24.766556 L 11.748252 24.984663 L 12.587413 25.205132 L 13.426573 24.850749 L 14.265734 24.390159 L 15.104895 23.799413 L 15.944056 23.885217 L 16.783217 23.519773 L 17.622378 23.014616 L 18.461538 22.588498 L 19.300699 22.698142 L 20.139860 22.767193 L 20.979021 22.841613 L 21.818182 22.592901 L 22.657343 23.112877 L 23.496503 22.872863 L 24.335664 23.029329 L 25.174825 27.711262 L 26.013986 27.276445 L 26.853147 26.877818 L 27.692308 26.842273 L 28.531469 23.758605 L 29.370629 23.402075 L 30.209790 24.073362 L 31.048951 24.803927 L 31.888112 24.835607 L 32.727273 25.165827 L 33.566434 24.890805 L 34.405594 24.611272 L 35.244755 25.071003 L 36.083916 23.657553 L 36.923077 27.491975 L 37.762238 22.166568 L 38.601399 24.505494 L 39.440559 24.470271 L 40.279720 25.493793 L 41.118881 25.312520 L 41.958042 25.413895 L 42.797203 25.843987 L 43.636364 25.359879 L 44.475524 25.228650 L 45.314685 24.544906 L 46.153846 24.515159 L 46.993007 25.279659 L 47.832168 25.274290 L 48.671329 24.875985 L 49.510490 25.036317 L 50.349650 21.935789 L 51.188811 22.275782 L 52.027972 21.152388 L 52.867133 19.578499 L 53.706294 20.138102 L 54.545455 20.368988 L 55.384615 19.727447 L 56.223776 19.591064 L 57.062937 21.198995 L 57.902098 21.463386 L 58.741259 24.241640 L 59.580420 25.160351 L 60.419580 20.435032 L 61.258741 20.838384 L 62.097902 24.353432 L 62.937063 25.525257 L 63.776224 26.820580 L 64.615385 28.760665 L 65.454545 29.326067 L 66.293706 20.190722 L 67.132867 19.472292 L 67.972028 20.716498 L 68.811189 22.821746 L 69.650350 30.992632 L 70.489510 31.125257 L 71.328671 30.421002 L 72.167832 30.403820 L 73.006993 30.403820 L 73.846154 31.296865 L 74.685315 30.385993 L 75.524476 30.228776 L 76.363636 28.820695 L 77.202797 30.203755 L 78.041958 31.690337 L 78.881119 30.094863 L 79.720280 30.173471 L 80.559441 25.438487 L 81.398601 20.197810 L 82.237762 18.465845 L 83.076923 18.509552 L 83.916084 18.701563 L 84.755245 16.482482 L 85.594406 16.688454 L 86.433566 17.074731 L 87.272727 16.828596 L 88.111888 17.484419 L 88.951049 17.002136 L 89.790210 17.436631 L 90.629371 17.560880 L 91.468531 17.642495 L 92.307692 17.458216 L 93.146853 17.208752 L 93.986014 17.002351 L 94.825175 17.355553 L 95.664336 17.958433 L 96.503497 17.817539 L 97.342657 19.348473 L 98.181818 19.334512 L 99.020979 18.479376 L 99.860140 18.373920 L 100.699301 16.452628 L 101.538462 18.580428 L 102.377622 21.346010 L 103.216783 22.995823 L 104.055944 24.290717 L 104.895105 23.780405 L 105.734266 22.349773 L 106.573427 22.922369 L 107.412587 24.361915 L 108.251748 8.800000 L 109.090909 25.445038 L 109.930070 25.780306 L 110.769231 24.887261 L 111.608392 24.302959 L 112.447552 22.276856 L 113.286713 22.917859 L 114.125874 23.537492 L 114.965035 28.592602 L 115.804196 29.578430 L 116.643357 31.083161 L 117.482517 31.111190 L 118.321678 33.777437 L 119.160839 32.821892 L 120.000000 34.396533 L 120 40 Z"></path>
    </g>
  </svg>