<svg xmlns="http://www.w3.org/2000/svg" viewBox="0 0 120 40" width="120" height="40">
    <defs>
      <linearGradient id="color_grad" x1="0%" x2="0%" y1="0%" y2="100%">
        <stop offset="0%" style="stop-color:#888888;stop-opacity:0.4;"></stop>
        <stop offset="100%" style="stop-color:#888888;stop-opacity:0.0;"></stop>
      </linearGradient>
    </defs>
    <g>
      <path stroke="#888888" stroke-width="2" stroke-linecap="round" stroke-linejoin="round" fill="none" d="M 0.000000 10.101408 L 0.839161 14.028799 L 1.678322 26.072136 L 2.517483 18.343662 L 3.356643 18.343662 L 4.195804 18.343662 L 5.034965 18.343662 L 5.874126 21.025352 L 6.713287 18.343662 L 7.552448 18.343662 L 8.391608 18.343662 L 9.230769 18.343662 L 10.069930 18.343662 L 10.909091 18.343662 L 11.748252 18.343662 L 12.587413 18.343662 L 13.426573 18.343662 L 14.265734 18.343662 L 15.104895 18.343662 L 15.944056 23.992199 L 16.783217 22.053462 L 17.622378 22.997183 L 18.461538 22.997183 L 19.300699 22.997183 L 20.139860 22.997183 L 20.979021 18.343662 L 21.818182 18.343662 L 22.657343 18.343662 L 23.496503 18.343662 L 24.335664 18.343662 L 25.174825 18.343662 L 26.013986 18.343662 L 26.853147 18.343662 L 27.692308 18.343662 L 28.531469 18.343662 L 29.370629 13.719374 L 30.209790 13.140786 L 31.048951 21.025352 L 31.888112 19.053521 L 32.727273 19.053521 L 33.566434 21.397656 L 34.405594 24.969014 L 35.244755 24.969014 L 36.083916 24.782862 L 36.923077 8.878873 L 37.762238 8.878873 L 38.601399 10.725500 L 39.440559 8.878873 L 40.279720 8.878873 L 41.118881 8.878873 L 41.958042 8.878873 L 42.797203 8.878873 L 43.636364 8.878873 L 44.475524 8.878873 L 45.314685 8.878873 L 46.153846 8.878873 L 46.993007 8.878873 L 47.832168 8.878873 L 48.671329 9.355422 L 49.510490 8.878873 L 50.349650 8.878873 L 51.188811 8.878873 L 52.027972 8.878873 L 52.867133 8.878873 L 53.706294 8.878873 L 54.545455 8.878873 L 55.384615 8.878873 L 56.223776 8.878873 L 57.062937 8.878873 L 57.902098 8.878873 L 58.741259 8.878873 L 59.580420 8.878873 L 60.419580 8.800000 L 61.258741 8.800000 L 62.097902 8.800000 L 62.937063 13.027716 L 63.776224 8.800000 L 64.615385 8.800000 L 65.454545 8.800000 L 66.293706 10.377465 L 67.132867 10.377465 L 67.972028 10.377465 L 68.811189 18.132414 L 69.650350 10.463233 L 70.489510 13.167537 L 71.328671 13.532119 L 72.167832 13.571831 L 73.006993 13.571831 L 73.846154 14.530444 L 74.685315 18.428602 L 75.524476 19.092958 L 76.363636 21.093470 L 77.202797 24.607466 L 78.041958 17.084724 L 78.881119 21.651374 L 79.720280 22.997183 L 80.559441 22.997183 L 81.398601 22.327036 L 82.237762 21.853521 L 83.076923 14.360563 L 83.916084 14.360563 L 84.755245 14.360563 L 85.594406 14.360563 L 86.433566 14.360563 L 87.272727 14.360563 L 88.111888 14.360563 L 88.951049 14.360563 L 89.790210 14.360563 L 90.629371 14.360563 L 91.468531 14.360563 L 92.307692 14.360563 L 93.146853 14.360563 L 93.986014 13.571831 L 94.825175 13.571831 L 95.664336 17.118921 L 96.503497 17.121127 L 97.342657 17.121127 L 98.181818 21.064789 L 99.020979 17.121127 L 99.860140 17.121127 L 100.699301 19.092958 L 101.538462 22.881907 L 102.377622 23.036620 L 103.216783 23.036620 L 104.055944 26.349296 L 104.895105 21.896543 L 105.734266 17.239437 L 106.573427 18.717896 L 107.412587 19.092958 L 108.251748 13.138028 L 109.090909 20.311908 L 109.930070 36.800000 L 110.769231 34.998050 L 111.608392 23.622378 L 112.447552 28.952113 L 113.286713 17.476056 L 114.125874 17.484330 L 114.965035 17.870423 L 115.804196 18.264789 L 116.643357 28.912676 L 117.482517 28.912676 L 118.321678 19.053521 L 119.160839 19.053521 L 120.000000 21.064789"></path>
      <path stroke="none" fill-opacity="0.6" fill="url(#color_grad)" d="M 0 40 L 0.000000 10.101408 L 0.839161 14.028799 L 1.678322 26.072136 L 2.517483 18.343662 L 3.356643 18.343662 L 4.195804 18.343662 L 5.034965 18.343662 L 5.874126 21.025352 L 6.713287 18.343662 L 7.552448 18.343662 L 8.391608 18.343662 L 9.230769 18.343662 L 10.069930 18.343662 L 10.909091 18.343662 L 11.748252 18.343662 L 12.587413 18.343662 L 13.426573 18.343662 L 14.265734 18.343662 L 15.104895 18.343662 L 15.944056 23.992199 L 16.783217 22.053462 L 17.622378 22.997183 L 18.461538 22.997183 L 19.300699 22.997183 L 20.139860 22.997183 L 20.979021 18.343662 L 21.818182 18.343662 L 22.657343 18.343662 L 23.496503 18.343662 L 24.335664 18.343662 L 25.174825 18.343662 L 26.013986 18.343662 L 26.853147 18.343662 L 27.692308 18.343662 L 28.531469 18.343662 L 29.370629 13.719374 L 30.209790 13.140786 L 31.048951 21.025352 L 31.888112 19.053521 L 32.727273 19.053521 L 33.566434 21.397656 L 34.405594 24.969014 L 35.244755 24.969014 L 36.083916 24.782862 L 36.923077 8.878873 L 37.762238 8.878873 L 38.601399 10.725500 L 39.440559 8.878873 L 40.279720 8.878873 L 41.118881 8.878873 L 41.958042 8.878873 L 42.797203 8.878873 L 43.636364 8.878873 L 44.475524 8.878873 L 45.314685 8.878873 L 46.153846 8.878873 L 46.993007 8.878873 L 47.832168 8.878873 L 48.671329 9.355422 L 49.510490 8.878873 L 50.349650 8.878873 L 51.188811 8.878873 L 52.027972 8.878873 L 52.867133 8.878873 L 53.706294 8.878873 L 54.545455 8.878873 L 55.384615 8.878873 L 56.223776 8.878873 L 57.062937 8.878873 L 57.902098 8.878873 L 58.741259 8.878873 L 59.580420 8.878873 L 60.419580 8.800000 L 61.258741 8.800000 L 62.097902 8.800000 L 62.937063 13.027716 L 63.776224 8.800000 L 64.615385 8.800000 L 65.454545 8.800000 L 66.293706 10.377465 L 67.132867 10.377465 L 67.972028 10.377465 L 68.811189 18.132414 L 69.650350 10.463233 L 70.489510 13.167537 L 71.328671 13.532119 L 72.167832 13.571831 L 73.006993 13.571831 L 73.846154 14.530444 L 74.685315 18.428602 L 75.524476 19.092958 L 76.363636 21.093470 L 77.202797 24.607466 L 78.041958 17.084724 L 78.881119 21.651374 L 79.720280 22.997183 L 80.559441 22.997183 L 81.398601 22.327036 L 82.237762 21.853521 L 83.076923 14.360563 L 83.916084 14.360563 L 84.755245 14.360563 L 85.594406 14.360563 L 86.433566 14.360563 L 87.272727 14.360563 L 88.111888 14.360563 L 88.951049 14.360563 L 89.790210 14.360563 L 90.629371 14.360563 L 91.468531 14.360563 L 92.307692 14.360563 L 93.146853 14.360563 L 93.986014 13.571831 L 94.825175 13.571831 L 95.664336 17.118921 L 96.503497 17.121127 L 97.342657 17.121127 L 98.181818 21.064789 L 99.020979 17.121127 L 99.860140 17.121127 L 100.699301 19.092958 L 101.538462 22.881907 L 102.377622 23.036620 L 103.216783 23.036620 L 104.055944 26.349296 L 104.895105 21.896543 L 105.734266 17.239437 L 106.573427 18.717896 L 107.412587 19.092958 L 108.251748 13.138028 L 109.090909 20.311908 L 109.930070 36.800000 L 110.769231 34.998050 L 111.608392 23.622378 L 112.447552 28.952113 L 113.286713 17.476056 L 114.125874 17.484330 L 114.965035 17.870423 L 115.804196 18.264789 L 116.643357 28.912676 L 117.482517 28.912676 L 118.321678 19.053521 L 119.160839 19.053521 L 120.000000 21.064789 L 120 40 Z"></path>
    </g>
  </svg>