<svg xmlns="http://www.w3.org/2000/svg" viewBox="0 0 120 40" width="120" height="40">
    <defs>
      <linearGradient id="color_grad" x1="0%" x2="0%" y1="0%" y2="100%">
        <stop offset="0%" style="stop-color:#16C784;stop-opacity:0.4;"></stop>
        <stop offset="100%" style="stop-color:#16C784;stop-opacity:0.0;"></stop>
      </linearGradient>
    </defs>
    <g>
      <path stroke="#16C784" stroke-width="2" stroke-linecap="round" stroke-linejoin="round" fill="none" d="M 0.000000 25.115298 L 0.839161 27.093996 L 1.678322 36.800000 L 2.517483 31.768489 L 3.356643 32.840184 L 4.195804 32.694910 L 5.034965 31.979236 L 5.874126 34.281665 L 6.713287 33.794119 L 7.552448 33.343439 L 8.391608 33.557144 L 9.230769 32.283691 L 10.069930 33.500846 L 10.909091 32.446986 L 11.748252 32.899519 L 12.587413 33.345393 L 13.426573 33.634607 L 14.265734 32.680799 L 15.104895 31.499603 L 15.944056 35.629927 L 16.783217 33.542022 L 17.622378 33.204596 L 18.461538 32.363707 L 19.300699 32.568686 L 20.139860 32.712931 L 20.979021 29.550689 L 21.818182 29.053800 L 22.657343 29.087045 L 23.496503 29.528932 L 24.335664 29.924820 L 25.174825 30.708801 L 26.013986 31.474696 L 26.853147 30.650010 L 27.692308 30.556487 L 28.531469 29.909010 L 29.370629 26.386193 L 30.209790 25.268647 L 31.048951 33.396408 L 31.888112 32.069962 L 32.727273 32.746451 L 33.566434 32.814196 L 34.405594 34.791010 L 35.244755 35.701354 L 36.083916 32.742745 L 36.923077 20.868426 L 37.762238 17.849945 L 38.601399 17.904229 L 39.440559 16.471767 L 40.279720 18.723720 L 41.118881 18.344186 L 41.958042 17.423275 L 42.797203 18.353385 L 43.636364 17.287636 L 44.475524 16.997555 L 45.314685 15.481115 L 46.153846 15.417112 L 46.993007 17.112961 L 47.832168 17.087158 L 48.671329 16.564221 L 49.510490 16.577849 L 50.349650 16.604830 L 51.188811 17.319554 L 52.027972 14.176719 L 52.867133 13.803963 L 53.706294 15.014231 L 54.545455 15.493643 L 55.384615 14.129237 L 56.223776 13.834655 L 57.062937 15.026192 L 57.902098 15.587006 L 58.741259 16.940325 L 59.580420 16.936649 L 60.419580 14.304390 L 61.258741 11.916207 L 62.097902 13.087457 L 62.937063 16.116057 L 63.776224 13.473518 L 64.615385 15.256161 L 65.454545 16.847064 L 66.293706 17.926374 L 67.132867 16.886441 L 67.972028 18.031123 L 68.811189 23.026783 L 69.650350 20.698808 L 70.489510 22.951836 L 71.328671 21.630830 L 72.167832 21.622032 L 73.006993 21.622032 L 73.846154 24.332632 L 74.685315 25.102095 L 75.524476 25.242378 L 76.363636 23.562494 L 77.202797 29.178907 L 78.041958 27.051786 L 78.881119 26.789104 L 79.720280 27.937605 L 80.559441 27.258474 L 81.398601 28.147629 L 82.237762 25.816867 L 83.076923 21.026682 L 83.916084 21.379439 L 84.755245 16.916548 L 85.594406 17.323266 L 86.433566 18.134043 L 87.272727 17.630149 L 88.111888 18.229503 L 88.951049 16.911808 L 89.790210 16.743624 L 90.629371 16.980819 L 91.468531 17.132154 L 92.307692 16.770605 L 93.146853 16.252897 L 93.986014 15.227285 L 94.825175 14.200544 L 95.664336 17.330480 L 96.503497 17.398404 L 97.342657 16.150958 L 98.181818 19.099812 L 99.020979 14.336613 L 99.860140 14.132799 L 100.699301 12.521114 L 101.538462 20.030860 L 102.377622 20.117612 L 103.216783 19.946361 L 104.055944 23.384083 L 104.895105 18.925465 L 105.734266 12.261164 L 106.573427 14.622504 L 107.412587 15.938950 L 108.251748 9.283721 L 109.090909 17.397585 L 109.930070 28.807842 L 110.769231 25.525764 L 111.608392 15.431685 L 112.447552 17.003885 L 113.286713 8.800000 L 114.125874 8.981459 L 114.965035 10.418625 L 115.804196 11.288862 L 116.643357 20.401739 L 117.482517 19.225140 L 118.321678 13.552171 L 119.160839 13.302113 L 120.000000 16.631284"></path>
      <path stroke="none" fill-opacity="0.6" fill="url(#color_grad)" d="M 0 40 L 0.000000 25.115298 L 0.839161 27.093996 L 1.678322 36.800000 L 2.517483 31.768489 L 3.356643 32.840184 L 4.195804 32.694910 L 5.034965 31.979236 L 5.874126 34.281665 L 6.713287 33.794119 L 7.552448 33.343439 L 8.391608 33.557144 L 9.230769 32.283691 L 10.069930 33.500846 L 10.909091 32.446986 L 11.748252 32.899519 L 12.587413 33.345393 L 13.426573 33.634607 L 14.265734 32.680799 L 15.104895 31.499603 L 15.944056 35.629927 L 16.783217 33.542022 L 17.622378 33.204596 L 18.461538 32.363707 L 19.300699 32.568686 L 20.139860 32.712931 L 20.979021 29.550689 L 21.818182 29.053800 L 22.657343 29.087045 L 23.496503 29.528932 L 24.335664 29.924820 L 25.174825 30.708801 L 26.013986 31.474696 L 26.853147 30.650010 L 27.692308 30.556487 L 28.531469 29.909010 L 29.370629 26.386193 L 30.209790 25.268647 L 31.048951 33.396408 L 31.888112 32.069962 L 32.727273 32.746451 L 33.566434 32.814196 L 34.405594 34.791010 L 35.244755 35.701354 L 36.083916 32.742745 L 36.923077 20.868426 L 37.762238 17.849945 L 38.601399 17.904229 L 39.440559 16.471767 L 40.279720 18.723720 L 41.118881 18.344186 L 41.958042 17.423275 L 42.797203 18.353385 L 43.636364 17.287636 L 44.475524 16.997555 L 45.314685 15.481115 L 46.153846 15.417112 L 46.993007 17.112961 L 47.832168 17.087158 L 48.671329 16.564221 L 49.510490 16.577849 L 50.349650 16.604830 L 51.188811 17.319554 L 52.027972 14.176719 L 52.867133 13.803963 L 53.706294 15.014231 L 54.545455 15.493643 L 55.384615 14.129237 L 56.223776 13.834655 L 57.062937 15.026192 L 57.902098 15.587006 L 58.741259 16.940325 L 59.580420 16.936649 L 60.419580 14.304390 L 61.258741 11.916207 L 62.097902 13.087457 L 62.937063 16.116057 L 63.776224 13.473518 L 64.615385 15.256161 L 65.454545 16.847064 L 66.293706 17.926374 L 67.132867 16.886441 L 67.972028 18.031123 L 68.811189 23.026783 L 69.650350 20.698808 L 70.489510 22.951836 L 71.328671 21.630830 L 72.167832 21.622032 L 73.006993 21.622032 L 73.846154 24.332632 L 74.685315 25.102095 L 75.524476 25.242378 L 76.363636 23.562494 L 77.202797 29.178907 L 78.041958 27.051786 L 78.881119 26.789104 L 79.720280 27.937605 L 80.559441 27.258474 L 81.398601 28.147629 L 82.237762 25.816867 L 83.076923 21.026682 L 83.916084 21.379439 L 84.755245 16.916548 L 85.594406 17.323266 L 86.433566 18.134043 L 87.272727 17.630149 L 88.111888 18.229503 L 88.951049 16.911808 L 89.790210 16.743624 L 90.629371 16.980819 L 91.468531 17.132154 L 92.307692 16.770605 L 93.146853 16.252897 L 93.986014 15.227285 L 94.825175 14.200544 L 95.664336 17.330480 L 96.503497 17.398404 L 97.342657 16.150958 L 98.181818 19.099812 L 99.020979 14.336613 L 99.860140 14.132799 L 100.699301 12.521114 L 101.538462 20.030860 L 102.377622 20.117612 L 103.216783 19.946361 L 104.055944 23.384083 L 104.895105 18.925465 L 105.734266 12.261164 L 106.573427 14.622504 L 107.412587 15.938950 L 108.251748 9.283721 L 109.090909 17.397585 L 109.930070 28.807842 L 110.769231 25.525764 L 111.608392 15.431685 L 112.447552 17.003885 L 113.286713 8.800000 L 114.125874 8.981459 L 114.965035 10.418625 L 115.804196 11.288862 L 116.643357 20.401739 L 117.482517 19.225140 L 118.321678 13.552171 L 119.160839 13.302113 L 120.000000 16.631284 L 120 40 Z"></path>
    </g>
  </svg>