<svg xmlns="http://www.w3.org/2000/svg" viewBox="0 0 120 40" width="120" height="40">
    <defs>
      <linearGradient id="color_grad" x1="0%" x2="0%" y1="0%" y2="100%">
        <stop offset="0%" style="stop-color:#EA3943;stop-opacity:0.4;"></stop>
        <stop offset="100%" style="stop-color:#EA3943;stop-opacity:0.0;"></stop>
      </linearGradient>
    </defs>
    <g>
      <path stroke="#EA3943" stroke-width="2" stroke-linecap="round" stroke-linejoin="round" fill="none" d="M 0.000000 17.587447 L 0.839161 12.258007 L 1.678322 14.972734 L 2.517483 13.804473 L 3.356643 17.870563 L 4.195804 13.318869 L 5.034965 12.927021 L 5.874126 13.154436 L 6.713287 13.921720 L 7.552448 13.356925 L 8.391608 12.582154 L 9.230769 11.858774 L 10.069930 12.826494 L 10.909091 12.328068 L 11.748252 12.214822 L 12.587413 12.449931 L 13.426573 12.610773 L 14.265734 12.083419 L 15.104895 11.425074 L 15.944056 11.507136 L 16.783217 11.105954 L 17.622378 10.551417 L 18.461538 10.065813 L 19.300699 10.182957 L 20.139860 10.263583 L 20.979021 10.342158 L 21.818182 10.353134 L 22.657343 10.370469 L 23.496503 10.614810 L 24.335664 10.544954 L 25.174825 10.989425 L 26.013986 11.412251 L 26.853147 10.949727 L 27.692308 12.140863 L 28.531469 11.787277 L 29.370629 11.647463 L 30.209790 11.279105 L 31.048951 13.139050 L 31.888112 13.172695 L 32.727273 13.544233 L 33.566434 12.673448 L 34.405594 12.366330 L 35.244755 12.884041 L 36.083916 10.812170 L 36.923077 11.996433 L 37.762238 10.420117 L 38.601399 9.738896 L 39.440559 10.199369 L 40.279720 10.885616 L 41.118881 11.098671 L 41.958042 10.694308 L 42.797203 11.174373 L 43.636364 10.626504 L 44.475524 10.473150 L 45.314685 9.678375 L 46.153846 9.646063 L 46.993007 10.531619 L 47.832168 10.516745 L 48.671329 10.063043 L 49.510490 10.245324 L 50.349650 10.255172 L 51.188811 10.635326 L 52.027972 8.996950 L 52.867133 8.800000 L 53.706294 9.437727 L 54.545455 10.181110 L 55.384615 9.472296 L 56.223776 9.327354 L 57.062937 9.946617 L 57.902098 10.239375 L 58.741259 10.940187 L 59.580420 10.939469 L 60.419580 12.100652 L 61.258741 11.395839 L 62.097902 11.983201 L 62.937063 11.182887 L 63.776224 11.490006 L 64.615385 11.813639 L 65.454545 14.372345 L 66.293706 12.284780 L 67.132867 11.197761 L 67.972028 12.742073 L 68.811189 14.485078 L 69.650350 17.173443 L 70.489510 15.132038 L 71.328671 11.607663 L 72.167832 11.587968 L 73.006993 11.587968 L 73.846154 12.667806 L 74.685315 11.782558 L 75.524476 12.371664 L 76.363636 12.552098 L 77.202797 14.295514 L 78.041958 16.056881 L 78.881119 13.954647 L 79.720280 12.790797 L 80.559441 12.414131 L 81.398601 14.630226 L 82.237762 14.638740 L 83.076923 15.919734 L 83.916084 13.661787 L 84.755245 11.068513 L 85.594406 9.513943 L 86.433566 12.331761 L 87.272727 9.959747 L 88.111888 11.523754 L 88.951049 11.325778 L 89.790210 11.230996 L 90.629371 11.307930 L 91.468531 10.927878 L 92.307692 10.740571 L 93.146853 10.477253 L 93.986014 10.257736 L 94.825175 9.719612 L 95.664336 9.955541 L 96.503497 13.042319 L 97.342657 12.407463 L 98.181818 12.909480 L 99.020979 12.777770 L 99.860140 13.954647 L 100.699301 12.398847 L 101.538462 15.676009 L 102.377622 16.245214 L 103.216783 16.887660 L 104.055944 23.400543 L 104.895105 20.707357 L 105.734266 19.238133 L 106.573427 20.213444 L 107.412587 21.283743 L 108.251748 13.072271 L 109.090909 30.747898 L 109.930070 34.474659 L 110.769231 36.800000 L 111.608392 33.138068 L 112.447552 27.130587 L 113.286713 26.557689 L 114.125874 30.916433 L 114.965035 31.856356 L 115.804196 32.396224 L 116.643357 23.243599 L 117.482517 23.787775 L 118.321678 23.364641 L 119.160839 23.706431 L 120.000000 27.166079"></path>
      <path stroke="none" fill-opacity="0.6" fill="url(#color_grad)" d="M 0 40 L 0.000000 17.587447 L 0.839161 12.258007 L 1.678322 14.972734 L 2.517483 13.804473 L 3.356643 17.870563 L 4.195804 13.318869 L 5.034965 12.927021 L 5.874126 13.154436 L 6.713287 13.921720 L 7.552448 13.356925 L 8.391608 12.582154 L 9.230769 11.858774 L 10.069930 12.826494 L 10.909091 12.328068 L 11.748252 12.214822 L 12.587413 12.449931 L 13.426573 12.610773 L 14.265734 12.083419 L 15.104895 11.425074 L 15.944056 11.507136 L 16.783217 11.105954 L 17.622378 10.551417 L 18.461538 10.065813 L 19.300699 10.182957 L 20.139860 10.263583 L 20.979021 10.342158 L 21.818182 10.353134 L 22.657343 10.370469 L 23.496503 10.614810 L 24.335664 10.544954 L 25.174825 10.989425 L 26.013986 11.412251 L 26.853147 10.949727 L 27.692308 12.140863 L 28.531469 11.787277 L 29.370629 11.647463 L 30.209790 11.279105 L 31.048951 13.139050 L 31.888112 13.172695 L 32.727273 13.544233 L 33.566434 12.673448 L 34.405594 12.366330 L 35.244755 12.884041 L 36.083916 10.812170 L 36.923077 11.996433 L 37.762238 10.420117 L 38.601399 9.738896 L 39.440559 10.199369 L 40.279720 10.885616 L 41.118881 11.098671 L 41.958042 10.694308 L 42.797203 11.174373 L 43.636364 10.626504 L 44.475524 10.473150 L 45.314685 9.678375 L 46.153846 9.646063 L 46.993007 10.531619 L 47.832168 10.516745 L 48.671329 10.063043 L 49.510490 10.245324 L 50.349650 10.255172 L 51.188811 10.635326 L 52.027972 8.996950 L 52.867133 8.800000 L 53.706294 9.437727 L 54.545455 10.181110 L 55.384615 9.472296 L 56.223776 9.327354 L 57.062937 9.946617 L 57.902098 10.239375 L 58.741259 10.940187 L 59.580420 10.939469 L 60.419580 12.100652 L 61.258741 11.395839 L 62.097902 11.983201 L 62.937063 11.182887 L 63.776224 11.490006 L 64.615385 11.813639 L 65.454545 14.372345 L 66.293706 12.284780 L 67.132867 11.197761 L 67.972028 12.742073 L 68.811189 14.485078 L 69.650350 17.173443 L 70.489510 15.132038 L 71.328671 11.607663 L 72.167832 11.587968 L 73.006993 11.587968 L 73.846154 12.667806 L 74.685315 11.782558 L 75.524476 12.371664 L 76.363636 12.552098 L 77.202797 14.295514 L 78.041958 16.056881 L 78.881119 13.954647 L 79.720280 12.790797 L 80.559441 12.414131 L 81.398601 14.630226 L 82.237762 14.638740 L 83.076923 15.919734 L 83.916084 13.661787 L 84.755245 11.068513 L 85.594406 9.513943 L 86.433566 12.331761 L 87.272727 9.959747 L 88.111888 11.523754 L 88.951049 11.325778 L 89.790210 11.230996 L 90.629371 11.307930 L 91.468531 10.927878 L 92.307692 10.740571 L 93.146853 10.477253 L 93.986014 10.257736 L 94.825175 9.719612 L 95.664336 9.955541 L 96.503497 13.042319 L 97.342657 12.407463 L 98.181818 12.909480 L 99.020979 12.777770 L 99.860140 13.954647 L 100.699301 12.398847 L 101.538462 15.676009 L 102.377622 16.245214 L 103.216783 16.887660 L 104.055944 23.400543 L 104.895105 20.707357 L 105.734266 19.238133 L 106.573427 20.213444 L 107.412587 21.283743 L 108.251748 13.072271 L 109.090909 30.747898 L 109.930070 34.474659 L 110.769231 36.800000 L 111.608392 33.138068 L 112.447552 27.130587 L 113.286713 26.557689 L 114.125874 30.916433 L 114.965035 31.856356 L 115.804196 32.396224 L 116.643357 23.243599 L 117.482517 23.787775 L 118.321678 23.364641 L 119.160839 23.706431 L 120.000000 27.166079 L 120 40 Z"></path>
    </g>
  </svg>