<svg xmlns="http://www.w3.org/2000/svg" viewBox="0 0 120 40" width="120" height="40">
    <defs>
      <linearGradient id="color_grad" x1="0%" x2="0%" y1="0%" y2="100%">
        <stop offset="0%" style="stop-color:#EA3943;stop-opacity:0.4;"></stop>
        <stop offset="100%" style="stop-color:#EA3943;stop-opacity:0.0;"></stop>
      </linearGradient>
    </defs>
    <g>
      <path stroke="#EA3943" stroke-width="2" stroke-linecap="round" stroke-linejoin="round" fill="none" d="M 0.000000 14.351020 L 0.839161 10.146653 L 1.678322 11.902041 L 2.517483 10.717511 L 3.356643 13.728786 L 4.195804 9.861224 L 5.034965 9.861224 L 5.874126 9.861224 L 6.713287 9.861224 L 7.552448 9.586642 L 8.391608 8.800000 L 9.230769 8.800000 L 10.069930 9.044898 L 10.909091 9.119109 L 11.748252 8.800000 L 12.587413 8.800000 L 13.426573 8.800000 L 14.265734 8.800000 L 15.104895 8.800000 L 15.944056 8.800000 L 16.783217 8.800000 L 17.622378 8.815413 L 18.461538 8.800000 L 19.300699 8.800000 L 20.139860 8.800000 L 20.979021 8.800000 L 21.818182 9.044898 L 22.657343 9.044898 L 23.496503 9.044898 L 24.335664 8.800000 L 25.174825 8.800000 L 26.013986 8.800000 L 26.853147 8.800000 L 27.692308 9.861224 L 28.531469 9.861224 L 29.370629 9.861224 L 30.209790 9.861224 L 31.048951 10.269388 L 31.888112 10.269388 L 32.727273 10.269388 L 33.566434 10.269388 L 34.405594 10.269388 L 35.244755 10.269388 L 36.083916 9.866933 L 36.923077 11.085714 L 37.762238 11.085714 L 38.601399 11.085714 L 39.440559 11.493878 L 40.279720 11.085714 L 41.118881 11.433937 L 41.958042 11.493878 L 42.797203 11.493878 L 43.636364 11.493878 L 44.475524 11.493878 L 45.314685 11.493878 L 46.153846 11.493878 L 46.993007 11.493878 L 47.832168 11.493878 L 48.671329 11.493878 L 49.510490 11.493878 L 50.349650 11.493878 L 51.188811 11.493878 L 52.027972 11.493878 L 52.867133 11.493878 L 53.706294 11.493878 L 54.545455 11.902041 L 55.384615 11.902041 L 56.223776 11.902041 L 57.062937 11.902041 L 57.902098 11.902041 L 58.741259 11.902041 L 59.580420 11.902041 L 60.419580 13.942857 L 61.258741 14.351020 L 62.097902 14.351020 L 62.937063 13.751620 L 63.776224 13.791580 L 64.615385 13.314914 L 65.454545 14.759184 L 66.293706 13.066591 L 67.132867 12.618467 L 67.972028 13.394834 L 68.811189 15.115970 L 69.650350 15.983673 L 70.489510 14.145512 L 71.328671 11.902041 L 72.167832 11.902041 L 73.006993 11.902041 L 73.846154 11.902041 L 74.685315 12.084715 L 75.524476 12.718367 L 76.363636 14.239703 L 77.202797 14.351020 L 78.041958 14.362438 L 78.881119 14.171200 L 79.720280 13.126531 L 80.559441 13.126531 L 81.398601 14.351020 L 82.237762 15.215870 L 83.076923 15.983673 L 83.916084 13.971400 L 84.755245 13.737348 L 85.594406 12.310204 L 86.433566 14.251120 L 87.272727 12.532839 L 88.111888 13.557528 L 88.951049 13.942857 L 89.790210 13.942857 L 90.629371 13.900043 L 91.468531 13.534694 L 92.307692 13.534694 L 93.146853 13.534694 L 93.986014 13.534694 L 94.825175 13.534694 L 95.664336 13.534694 L 96.503497 15.983673 L 97.342657 15.983673 L 98.181818 16.391837 L 99.020979 17.011217 L 99.860140 18.024490 L 100.699301 18.024490 L 101.538462 18.778022 L 102.377622 19.248980 L 103.216783 19.828400 L 104.055944 24.660711 L 104.895105 22.922449 L 105.734266 22.922449 L 106.573427 23.233566 L 107.412587 23.698815 L 108.251748 18.024490 L 109.090909 31.011503 L 109.930070 34.351020 L 110.769231 36.800000 L 111.608392 34.351020 L 112.447552 30.571942 L 113.286713 29.861224 L 114.125874 33.169345 L 114.965035 33.534694 L 115.804196 33.780163 L 116.643357 26.367575 L 117.482517 27.215299 L 118.321678 26.187755 L 119.160839 26.538833 L 120.000000 28.636735"></path>
      <path stroke="none" fill-opacity="0.6" fill="url(#color_grad)" d="M 0 40 L 0.000000 14.351020 L 0.839161 10.146653 L 1.678322 11.902041 L 2.517483 10.717511 L 3.356643 13.728786 L 4.195804 9.861224 L 5.034965 9.861224 L 5.874126 9.861224 L 6.713287 9.861224 L 7.552448 9.586642 L 8.391608 8.800000 L 9.230769 8.800000 L 10.069930 9.044898 L 10.909091 9.119109 L 11.748252 8.800000 L 12.587413 8.800000 L 13.426573 8.800000 L 14.265734 8.800000 L 15.104895 8.800000 L 15.944056 8.800000 L 16.783217 8.800000 L 17.622378 8.815413 L 18.461538 8.800000 L 19.300699 8.800000 L 20.139860 8.800000 L 20.979021 8.800000 L 21.818182 9.044898 L 22.657343 9.044898 L 23.496503 9.044898 L 24.335664 8.800000 L 25.174825 8.800000 L 26.013986 8.800000 L 26.853147 8.800000 L 27.692308 9.861224 L 28.531469 9.861224 L 29.370629 9.861224 L 30.209790 9.861224 L 31.048951 10.269388 L 31.888112 10.269388 L 32.727273 10.269388 L 33.566434 10.269388 L 34.405594 10.269388 L 35.244755 10.269388 L 36.083916 9.866933 L 36.923077 11.085714 L 37.762238 11.085714 L 38.601399 11.085714 L 39.440559 11.493878 L 40.279720 11.085714 L 41.118881 11.433937 L 41.958042 11.493878 L 42.797203 11.493878 L 43.636364 11.493878 L 44.475524 11.493878 L 45.314685 11.493878 L 46.153846 11.493878 L 46.993007 11.493878 L 47.832168 11.493878 L 48.671329 11.493878 L 49.510490 11.493878 L 50.349650 11.493878 L 51.188811 11.493878 L 52.027972 11.493878 L 52.867133 11.493878 L 53.706294 11.493878 L 54.545455 11.902041 L 55.384615 11.902041 L 56.223776 11.902041 L 57.062937 11.902041 L 57.902098 11.902041 L 58.741259 11.902041 L 59.580420 11.902041 L 60.419580 13.942857 L 61.258741 14.351020 L 62.097902 14.351020 L 62.937063 13.751620 L 63.776224 13.791580 L 64.615385 13.314914 L 65.454545 14.759184 L 66.293706 13.066591 L 67.132867 12.618467 L 67.972028 13.394834 L 68.811189 15.115970 L 69.650350 15.983673 L 70.489510 14.145512 L 71.328671 11.902041 L 72.167832 11.902041 L 73.006993 11.902041 L 73.846154 11.902041 L 74.685315 12.084715 L 75.524476 12.718367 L 76.363636 14.239703 L 77.202797 14.351020 L 78.041958 14.362438 L 78.881119 14.171200 L 79.720280 13.126531 L 80.559441 13.126531 L 81.398601 14.351020 L 82.237762 15.215870 L 83.076923 15.983673 L 83.916084 13.971400 L 84.755245 13.737348 L 85.594406 12.310204 L 86.433566 14.251120 L 87.272727 12.532839 L 88.111888 13.557528 L 88.951049 13.942857 L 89.790210 13.942857 L 90.629371 13.900043 L 91.468531 13.534694 L 92.307692 13.534694 L 93.146853 13.534694 L 93.986014 13.534694 L 94.825175 13.534694 L 95.664336 13.534694 L 96.503497 15.983673 L 97.342657 15.983673 L 98.181818 16.391837 L 99.020979 17.011217 L 99.860140 18.024490 L 100.699301 18.024490 L 101.538462 18.778022 L 102.377622 19.248980 L 103.216783 19.828400 L 104.055944 24.660711 L 104.895105 22.922449 L 105.734266 22.922449 L 106.573427 23.233566 L 107.412587 23.698815 L 108.251748 18.024490 L 109.090909 31.011503 L 109.930070 34.351020 L 110.769231 36.800000 L 111.608392 34.351020 L 112.447552 30.571942 L 113.286713 29.861224 L 114.125874 33.169345 L 114.965035 33.534694 L 115.804196 33.780163 L 116.643357 26.367575 L 117.482517 27.215299 L 118.321678 26.187755 L 119.160839 26.538833 L 120.000000 28.636735 L 120 40 Z"></path>
    </g>
  </svg>