<svg xmlns="http://www.w3.org/2000/svg" viewBox="0 0 120 40" width="120" height="40">
    <defs>
      <linearGradient id="color_grad" x1="0%" x2="0%" y1="0%" y2="100%">
        <stop offset="0%" style="stop-color:#EA3943;stop-opacity:0.4;"></stop>
        <stop offset="100%" style="stop-color:#EA3943;stop-opacity:0.0;"></stop>
      </linearGradient>
    </defs>
    <g>
      <path stroke="#EA3943" stroke-width="2" stroke-linecap="round" stroke-linejoin="round" fill="none" d="M 0.000000 21.039579 L 0.839161 23.744866 L 1.678322 24.150961 L 2.517483 23.642647 L 3.356643 26.620829 L 4.195804 23.279134 L 5.034965 20.867163 L 5.874126 20.697415 L 6.713287 21.328023 L 7.552448 20.941769 L 8.391608 21.125323 L 9.230769 20.042791 L 10.069930 21.799093 L 10.909091 21.253765 L 11.748252 21.636539 L 12.587413 22.007709 L 13.426573 22.505117 L 14.265734 22.521013 L 15.104895 19.378652 L 15.944056 19.520321 L 16.783217 18.895747 L 17.622378 18.034710 L 18.461538 17.317895 L 19.300699 17.492516 L 20.139860 17.622814 L 20.979021 17.739421 L 21.818182 18.010809 L 22.657343 17.887124 L 23.496503 22.618360 L 24.335664 22.722320 L 25.174825 19.801687 L 26.013986 20.437167 L 26.853147 20.826554 L 27.692308 20.749860 L 28.531469 23.049052 L 29.370629 20.004850 L 30.209790 22.212381 L 31.048951 21.984388 L 31.888112 24.832620 L 32.727273 25.376091 L 33.566434 24.066029 L 34.405594 23.081424 L 35.244755 23.836992 L 36.083916 21.463310 L 36.923077 21.077868 L 37.762238 20.336223 L 38.601399 17.652865 L 39.440559 17.910677 L 40.279720 21.510881 L 41.118881 22.961568 L 41.958042 22.256471 L 42.797203 22.970966 L 43.636364 21.027513 L 44.475524 20.109042 L 45.314685 17.930402 L 46.153846 19.039621 L 46.993007 20.895474 L 47.832168 20.873197 L 48.671329 20.192466 L 49.510490 20.474760 L 50.349650 20.492976 L 51.188811 21.051878 L 52.027972 16.906927 L 52.867133 17.079227 L 53.706294 18.123819 L 54.545455 18.504040 L 55.384615 17.448077 L 56.223776 17.773417 L 57.062937 18.702562 L 57.902098 19.140100 L 58.741259 20.201168 L 59.580420 20.189913 L 60.419580 18.194596 L 61.258741 16.325051 L 62.097902 17.596824 L 62.937063 17.147451 L 63.776224 17.533705 L 64.615385 18.928583 L 65.454545 21.848056 L 66.293706 21.790855 L 67.132867 20.993633 L 67.972028 17.953259 L 68.811189 17.403407 L 69.650350 25.553148 L 70.489510 25.784274 L 71.328671 24.568311 L 72.167832 24.540464 L 73.006993 24.540464 L 73.846154 26.107758 L 74.685315 22.956811 L 75.524476 21.443005 L 76.363636 21.707779 L 77.202797 21.890522 L 78.041958 24.053150 L 78.881119 23.630116 L 79.720280 18.534207 L 80.559441 20.753573 L 81.398601 19.107149 L 82.237762 17.457592 L 83.076923 18.032622 L 83.916084 19.414504 L 84.755245 15.843307 L 85.594406 16.162846 L 86.433566 16.819443 L 87.272727 17.663888 L 88.111888 19.163422 L 88.951049 18.118598 L 89.790210 17.985167 L 90.629371 18.175335 L 91.468531 18.301921 L 92.307692 18.008372 L 93.146853 17.608079 L 93.986014 14.955468 L 94.825175 14.141306 L 95.664336 15.668222 L 96.503497 15.714517 L 97.342657 17.401899 L 98.181818 15.900624 L 99.020979 15.597330 L 99.860140 15.435936 L 100.699301 12.937409 L 101.538462 16.645286 L 102.377622 12.334417 L 103.216783 17.638478 L 104.055944 29.557823 L 104.895105 8.800000 L 105.734266 15.956898 L 106.573427 16.020364 L 107.412587 17.366046 L 108.251748 15.190771 L 109.090909 17.838857 L 109.930070 17.533705 L 110.769231 18.509957 L 111.608392 22.583900 L 112.447552 22.606177 L 113.286713 25.491538 L 114.125874 23.135144 L 114.965035 29.562116 L 115.804196 20.789077 L 116.643357 25.276192 L 117.482517 31.542465 L 118.321678 36.800000 L 119.160839 34.603144 L 120.000000 33.184829"></path>
      <path stroke="none" fill-opacity="0.6" fill="url(#color_grad)" d="M 0 40 L 0.000000 21.039579 L 0.839161 23.744866 L 1.678322 24.150961 L 2.517483 23.642647 L 3.356643 26.620829 L 4.195804 23.279134 L 5.034965 20.867163 L 5.874126 20.697415 L 6.713287 21.328023 L 7.552448 20.941769 L 8.391608 21.125323 L 9.230769 20.042791 L 10.069930 21.799093 L 10.909091 21.253765 L 11.748252 21.636539 L 12.587413 22.007709 L 13.426573 22.505117 L 14.265734 22.521013 L 15.104895 19.378652 L 15.944056 19.520321 L 16.783217 18.895747 L 17.622378 18.034710 L 18.461538 17.317895 L 19.300699 17.492516 L 20.139860 17.622814 L 20.979021 17.739421 L 21.818182 18.010809 L 22.657343 17.887124 L 23.496503 22.618360 L 24.335664 22.722320 L 25.174825 19.801687 L 26.013986 20.437167 L 26.853147 20.826554 L 27.692308 20.749860 L 28.531469 23.049052 L 29.370629 20.004850 L 30.209790 22.212381 L 31.048951 21.984388 L 31.888112 24.832620 L 32.727273 25.376091 L 33.566434 24.066029 L 34.405594 23.081424 L 35.244755 23.836992 L 36.083916 21.463310 L 36.923077 21.077868 L 37.762238 20.336223 L 38.601399 17.652865 L 39.440559 17.910677 L 40.279720 21.510881 L 41.118881 22.961568 L 41.958042 22.256471 L 42.797203 22.970966 L 43.636364 21.027513 L 44.475524 20.109042 L 45.314685 17.930402 L 46.153846 19.039621 L 46.993007 20.895474 L 47.832168 20.873197 L 48.671329 20.192466 L 49.510490 20.474760 L 50.349650 20.492976 L 51.188811 21.051878 L 52.027972 16.906927 L 52.867133 17.079227 L 53.706294 18.123819 L 54.545455 18.504040 L 55.384615 17.448077 L 56.223776 17.773417 L 57.062937 18.702562 L 57.902098 19.140100 L 58.741259 20.201168 L 59.580420 20.189913 L 60.419580 18.194596 L 61.258741 16.325051 L 62.097902 17.596824 L 62.937063 17.147451 L 63.776224 17.533705 L 64.615385 18.928583 L 65.454545 21.848056 L 66.293706 21.790855 L 67.132867 20.993633 L 67.972028 17.953259 L 68.811189 17.403407 L 69.650350 25.553148 L 70.489510 25.784274 L 71.328671 24.568311 L 72.167832 24.540464 L 73.006993 24.540464 L 73.846154 26.107758 L 74.685315 22.956811 L 75.524476 21.443005 L 76.363636 21.707779 L 77.202797 21.890522 L 78.041958 24.053150 L 78.881119 23.630116 L 79.720280 18.534207 L 80.559441 20.753573 L 81.398601 19.107149 L 82.237762 17.457592 L 83.076923 18.032622 L 83.916084 19.414504 L 84.755245 15.843307 L 85.594406 16.162846 L 86.433566 16.819443 L 87.272727 17.663888 L 88.111888 19.163422 L 88.951049 18.118598 L 89.790210 17.985167 L 90.629371 18.175335 L 91.468531 18.301921 L 92.307692 18.008372 L 93.146853 17.608079 L 93.986014 14.955468 L 94.825175 14.141306 L 95.664336 15.668222 L 96.503497 15.714517 L 97.342657 17.401899 L 98.181818 15.900624 L 99.020979 15.597330 L 99.860140 15.435936 L 100.699301 12.937409 L 101.538462 16.645286 L 102.377622 12.334417 L 103.216783 17.638478 L 104.055944 29.557823 L 104.895105 8.800000 L 105.734266 15.956898 L 106.573427 16.020364 L 107.412587 17.366046 L 108.251748 15.190771 L 109.090909 17.838857 L 109.930070 17.533705 L 110.769231 18.509957 L 111.608392 22.583900 L 112.447552 22.606177 L 113.286713 25.491538 L 114.125874 23.135144 L 114.965035 29.562116 L 115.804196 20.789077 L 116.643357 25.276192 L 117.482517 31.542465 L 118.321678 36.800000 L 119.160839 34.603144 L 120.000000 33.184829 L 120 40 Z"></path>
    </g>
  </svg>