<svg xmlns="http://www.w3.org/2000/svg" viewBox="0 0 120 40" width="120" height="40">
    <defs>
      <linearGradient id="color_grad" x1="0%" x2="0%" y1="0%" y2="100%">
        <stop offset="0%" style="stop-color:#EA3943;stop-opacity:0.4;"></stop>
        <stop offset="100%" style="stop-color:#EA3943;stop-opacity:0.0;"></stop>
      </linearGradient>
    </defs>
    <g>
      <path stroke="#EA3943" stroke-width="2" stroke-linecap="round" stroke-linejoin="round" fill="none" d="M 0.000000 10.800000 L 0.839161 13.880420 L 1.678322 13.338462 L 2.517483 12.558741 L 3.356643 14.520280 L 4.195804 11.502797 L 5.034965 9.800000 L 5.874126 9.310490 L 6.713287 8.800000 L 7.552448 8.800000 L 8.391608 8.800000 L 9.230769 8.800000 L 10.069930 9.478322 L 10.909091 9.800000 L 11.748252 9.800000 L 12.587413 9.800000 L 13.426573 10.037762 L 14.265734 10.800000 L 15.104895 8.800000 L 15.944056 8.800000 L 16.783217 8.800000 L 17.622378 8.800000 L 18.461538 8.800000 L 19.300699 8.800000 L 20.139860 8.800000 L 20.979021 8.800000 L 21.818182 9.436364 L 22.657343 9.300000 L 23.496503 13.300000 L 24.335664 13.104196 L 25.174825 9.800000 L 26.013986 9.800000 L 26.853147 10.800000 L 27.692308 10.800000 L 28.531469 13.422378 L 29.370629 10.800000 L 30.209790 13.352448 L 31.048951 11.212587 L 31.888112 13.800000 L 32.727273 13.800000 L 33.566434 13.800000 L 34.405594 13.300000 L 35.244755 13.300000 L 36.083916 13.300000 L 36.923077 13.300000 L 37.762238 14.768531 L 38.601399 13.300000 L 39.440559 13.586713 L 40.279720 15.226573 L 41.118881 16.800000 L 41.958042 16.803497 L 42.797203 16.800000 L 43.636364 15.800000 L 44.475524 15.181119 L 45.314685 14.300000 L 46.153846 15.338462 L 46.993007 15.800000 L 47.832168 15.800000 L 48.671329 15.800000 L 49.510490 15.800000 L 50.349650 15.800000 L 51.188811 15.800000 L 52.027972 14.300000 L 52.867133 14.705594 L 53.706294 14.800000 L 54.545455 14.800000 L 55.384615 14.800000 L 56.223776 15.300000 L 57.062937 15.300000 L 57.902098 15.300000 L 58.741259 15.300000 L 59.580420 15.300000 L 60.419580 15.300000 L 61.258741 15.300000 L 62.097902 15.625175 L 62.937063 15.300000 L 63.776224 15.300000 L 64.615385 15.300000 L 65.454545 16.800000 L 66.293706 16.800000 L 67.132867 16.800000 L 67.972028 13.300000 L 68.811189 13.300000 L 69.650350 18.300000 L 70.489510 18.300000 L 71.328671 18.300000 L 72.167832 18.300000 L 73.006993 18.300000 L 73.846154 18.300000 L 74.685315 16.918881 L 75.524476 15.800000 L 76.363636 18.300000 L 77.202797 16.265035 L 78.041958 15.800000 L 78.881119 17.992308 L 79.720280 13.300000 L 80.559441 15.800000 L 81.398601 13.300000 L 82.237762 13.300000 L 83.076923 13.300000 L 83.916084 14.300000 L 84.755245 14.300000 L 85.594406 14.300000 L 86.433566 14.300000 L 87.272727 15.390909 L 88.111888 16.300000 L 88.951049 16.300000 L 89.790210 16.300000 L 90.629371 16.300000 L 91.468531 16.300000 L 92.307692 16.300000 L 93.146853 16.300000 L 93.986014 14.300000 L 94.825175 14.300000 L 95.664336 15.300000 L 96.503497 15.300000 L 97.342657 17.628671 L 98.181818 16.345455 L 99.020979 17.300000 L 99.860140 17.300000 L 100.699301 17.300000 L 101.538462 17.300000 L 102.377622 13.614685 L 103.216783 18.300000 L 104.055944 27.957343 L 104.895105 10.800000 L 105.734266 19.065734 L 106.573427 18.300000 L 107.412587 18.751049 L 108.251748 18.300000 L 109.090909 18.800000 L 109.930070 19.346853 L 110.769231 21.530769 L 111.608392 25.800000 L 112.447552 27.506294 L 113.286713 29.394406 L 114.125874 27.320979 L 114.965035 32.013287 L 115.804196 24.300000 L 116.643357 27.520280 L 117.482517 33.541259 L 118.321678 36.800000 L 119.160839 35.079720 L 120.000000 32.800000"></path>
      <path stroke="none" fill-opacity="0.6" fill="url(#color_grad)" d="M 0 40 L 0.000000 10.800000 L 0.839161 13.880420 L 1.678322 13.338462 L 2.517483 12.558741 L 3.356643 14.520280 L 4.195804 11.502797 L 5.034965 9.800000 L 5.874126 9.310490 L 6.713287 8.800000 L 7.552448 8.800000 L 8.391608 8.800000 L 9.230769 8.800000 L 10.069930 9.478322 L 10.909091 9.800000 L 11.748252 9.800000 L 12.587413 9.800000 L 13.426573 10.037762 L 14.265734 10.800000 L 15.104895 8.800000 L 15.944056 8.800000 L 16.783217 8.800000 L 17.622378 8.800000 L 18.461538 8.800000 L 19.300699 8.800000 L 20.139860 8.800000 L 20.979021 8.800000 L 21.818182 9.436364 L 22.657343 9.300000 L 23.496503 13.300000 L 24.335664 13.104196 L 25.174825 9.800000 L 26.013986 9.800000 L 26.853147 10.800000 L 27.692308 10.800000 L 28.531469 13.422378 L 29.370629 10.800000 L 30.209790 13.352448 L 31.048951 11.212587 L 31.888112 13.800000 L 32.727273 13.800000 L 33.566434 13.800000 L 34.405594 13.300000 L 35.244755 13.300000 L 36.083916 13.300000 L 36.923077 13.300000 L 37.762238 14.768531 L 38.601399 13.300000 L 39.440559 13.586713 L 40.279720 15.226573 L 41.118881 16.800000 L 41.958042 16.803497 L 42.797203 16.800000 L 43.636364 15.800000 L 44.475524 15.181119 L 45.314685 14.300000 L 46.153846 15.338462 L 46.993007 15.800000 L 47.832168 15.800000 L 48.671329 15.800000 L 49.510490 15.800000 L 50.349650 15.800000 L 51.188811 15.800000 L 52.027972 14.300000 L 52.867133 14.705594 L 53.706294 14.800000 L 54.545455 14.800000 L 55.384615 14.800000 L 56.223776 15.300000 L 57.062937 15.300000 L 57.902098 15.300000 L 58.741259 15.300000 L 59.580420 15.300000 L 60.419580 15.300000 L 61.258741 15.300000 L 62.097902 15.625175 L 62.937063 15.300000 L 63.776224 15.300000 L 64.615385 15.300000 L 65.454545 16.800000 L 66.293706 16.800000 L 67.132867 16.800000 L 67.972028 13.300000 L 68.811189 13.300000 L 69.650350 18.300000 L 70.489510 18.300000 L 71.328671 18.300000 L 72.167832 18.300000 L 73.006993 18.300000 L 73.846154 18.300000 L 74.685315 16.918881 L 75.524476 15.800000 L 76.363636 18.300000 L 77.202797 16.265035 L 78.041958 15.800000 L 78.881119 17.992308 L 79.720280 13.300000 L 80.559441 15.800000 L 81.398601 13.300000 L 82.237762 13.300000 L 83.076923 13.300000 L 83.916084 14.300000 L 84.755245 14.300000 L 85.594406 14.300000 L 86.433566 14.300000 L 87.272727 15.390909 L 88.111888 16.300000 L 88.951049 16.300000 L 89.790210 16.300000 L 90.629371 16.300000 L 91.468531 16.300000 L 92.307692 16.300000 L 93.146853 16.300000 L 93.986014 14.300000 L 94.825175 14.300000 L 95.664336 15.300000 L 96.503497 15.300000 L 97.342657 17.628671 L 98.181818 16.345455 L 99.020979 17.300000 L 99.860140 17.300000 L 100.699301 17.300000 L 101.538462 17.300000 L 102.377622 13.614685 L 103.216783 18.300000 L 104.055944 27.957343 L 104.895105 10.800000 L 105.734266 19.065734 L 106.573427 18.300000 L 107.412587 18.751049 L 108.251748 18.300000 L 109.090909 18.800000 L 109.930070 19.346853 L 110.769231 21.530769 L 111.608392 25.800000 L 112.447552 27.506294 L 113.286713 29.394406 L 114.125874 27.320979 L 114.965035 32.013287 L 115.804196 24.300000 L 116.643357 27.520280 L 117.482517 33.541259 L 118.321678 36.800000 L 119.160839 35.079720 L 120.000000 32.800000 L 120 40 Z"></path>
    </g>
  </svg>