<svg xmlns="http://www.w3.org/2000/svg" viewBox="0 0 120 40" width="120" height="40">
    <defs>
      <linearGradient id="color_grad" x1="0%" x2="0%" y1="0%" y2="100%">
        <stop offset="0%" style="stop-color:#EA3943;stop-opacity:0.4;"></stop>
        <stop offset="100%" style="stop-color:#EA3943;stop-opacity:0.0;"></stop>
      </linearGradient>
    </defs>
    <g>
      <path stroke="#EA3943" stroke-width="2" stroke-linecap="round" stroke-linejoin="round" fill="none" d="M 0.000000 16.144262 L 0.839161 15.226230 L 1.678322 16.272658 L 2.517483 16.914639 L 3.356643 17.980328 L 4.195804 17.980328 L 5.034965 18.898361 L 5.874126 18.898361 L 6.713287 18.898361 L 7.552448 18.439344 L 8.391608 18.439344 L 9.230769 18.439344 L 10.069930 17.980328 L 10.909091 18.355887 L 11.748252 17.999587 L 12.587413 17.062295 L 13.426573 17.062295 L 14.265734 17.062295 L 15.104895 17.726745 L 15.944056 22.570492 L 16.783217 22.570492 L 17.622378 20.275410 L 18.461538 20.275410 L 19.300699 20.275410 L 20.139860 17.685017 L 20.979021 17.980328 L 21.818182 17.980328 L 22.657343 17.062295 L 23.496503 13.849180 L 24.335664 13.849180 L 25.174825 13.849180 L 26.013986 14.770423 L 26.853147 17.062295 L 27.692308 16.779823 L 28.531469 16.603279 L 29.370629 17.062295 L 30.209790 16.587229 L 31.048951 16.144262 L 31.888112 16.722045 L 32.727273 16.603279 L 33.566434 17.794153 L 34.405594 17.643288 L 35.244755 17.521311 L 36.083916 17.521311 L 36.923077 17.980328 L 37.762238 17.357606 L 38.601399 16.802293 L 39.440559 18.439344 L 40.279720 17.453903 L 41.118881 18.304528 L 41.958042 17.059085 L 42.797203 17.980328 L 43.636364 20.901341 L 44.475524 19.196882 L 45.314685 20.275410 L 46.153846 21.652459 L 46.993007 20.275410 L 47.832168 20.275410 L 48.671329 20.121334 L 49.510490 18.898361 L 50.349650 19.078115 L 51.188811 19.357377 L 52.027972 19.357377 L 52.867133 19.357377 L 53.706294 19.357377 L 54.545455 22.361848 L 55.384615 19.463304 L 56.223776 19.816393 L 57.062937 21.398877 L 57.902098 23.970010 L 58.741259 20.734426 L 59.580420 20.734426 L 60.419580 20.734426 L 61.258741 20.830723 L 62.097902 21.514433 L 62.937063 22.795185 L 63.776224 23.029508 L 64.615385 22.217402 L 65.454545 21.276900 L 66.293706 22.570492 L 67.132867 22.743827 L 67.972028 21.646039 L 68.811189 21.193443 L 69.650350 22.849754 L 70.489510 22.570492 L 71.328671 22.621850 L 72.167832 22.570492 L 73.006993 22.570492 L 73.846154 22.711728 L 74.685315 23.234942 L 75.524476 22.570492 L 76.363636 19.232191 L 77.202797 20.673438 L 78.041958 20.747266 L 78.881119 22.570492 L 79.720280 22.570492 L 80.559441 18.176132 L 81.398601 21.392457 L 82.237762 21.193443 L 83.076923 22.358638 L 83.916084 21.193443 L 84.755245 21.193443 L 85.594406 22.570492 L 86.433566 22.570492 L 87.272727 22.570492 L 88.111888 23.828775 L 88.951049 24.406557 L 89.790210 24.406557 L 90.629371 22.570492 L 91.468531 21.193443 L 92.307692 21.193443 L 93.146853 21.434185 L 93.986014 21.652459 L 94.825175 21.742336 L 95.664336 22.111475 L 96.503497 23.450006 L 97.342657 23.132225 L 98.181818 22.737407 L 99.020979 22.111475 L 99.860140 24.374458 L 100.699301 24.865574 L 101.538462 26.242623 L 102.377622 18.641568 L 103.216783 28.091528 L 104.055944 29.391540 L 104.895105 25.972991 L 105.734266 25.151255 L 106.573427 26.701639 L 107.412587 27.160656 L 108.251748 8.800000 L 109.090909 36.215797 L 109.930070 34.045902 L 110.769231 32.139218 L 111.608392 33.127869 L 112.447552 34.045902 L 113.286713 34.045902 L 114.125874 34.055531 L 114.965035 34.816279 L 115.804196 36.800000 L 116.643357 36.800000 L 117.482517 35.660484 L 118.321678 22.570492 L 119.160839 24.342359 L 120.000000 36.340984"></path>
      <path stroke="none" fill-opacity="0.6" fill="url(#color_grad)" d="M 0 40 L 0.000000 16.144262 L 0.839161 15.226230 L 1.678322 16.272658 L 2.517483 16.914639 L 3.356643 17.980328 L 4.195804 17.980328 L 5.034965 18.898361 L 5.874126 18.898361 L 6.713287 18.898361 L 7.552448 18.439344 L 8.391608 18.439344 L 9.230769 18.439344 L 10.069930 17.980328 L 10.909091 18.355887 L 11.748252 17.999587 L 12.587413 17.062295 L 13.426573 17.062295 L 14.265734 17.062295 L 15.104895 17.726745 L 15.944056 22.570492 L 16.783217 22.570492 L 17.622378 20.275410 L 18.461538 20.275410 L 19.300699 20.275410 L 20.139860 17.685017 L 20.979021 17.980328 L 21.818182 17.980328 L 22.657343 17.062295 L 23.496503 13.849180 L 24.335664 13.849180 L 25.174825 13.849180 L 26.013986 14.770423 L 26.853147 17.062295 L 27.692308 16.779823 L 28.531469 16.603279 L 29.370629 17.062295 L 30.209790 16.587229 L 31.048951 16.144262 L 31.888112 16.722045 L 32.727273 16.603279 L 33.566434 17.794153 L 34.405594 17.643288 L 35.244755 17.521311 L 36.083916 17.521311 L 36.923077 17.980328 L 37.762238 17.357606 L 38.601399 16.802293 L 39.440559 18.439344 L 40.279720 17.453903 L 41.118881 18.304528 L 41.958042 17.059085 L 42.797203 17.980328 L 43.636364 20.901341 L 44.475524 19.196882 L 45.314685 20.275410 L 46.153846 21.652459 L 46.993007 20.275410 L 47.832168 20.275410 L 48.671329 20.121334 L 49.510490 18.898361 L 50.349650 19.078115 L 51.188811 19.357377 L 52.027972 19.357377 L 52.867133 19.357377 L 53.706294 19.357377 L 54.545455 22.361848 L 55.384615 19.463304 L 56.223776 19.816393 L 57.062937 21.398877 L 57.902098 23.970010 L 58.741259 20.734426 L 59.580420 20.734426 L 60.419580 20.734426 L 61.258741 20.830723 L 62.097902 21.514433 L 62.937063 22.795185 L 63.776224 23.029508 L 64.615385 22.217402 L 65.454545 21.276900 L 66.293706 22.570492 L 67.132867 22.743827 L 67.972028 21.646039 L 68.811189 21.193443 L 69.650350 22.849754 L 70.489510 22.570492 L 71.328671 22.621850 L 72.167832 22.570492 L 73.006993 22.570492 L 73.846154 22.711728 L 74.685315 23.234942 L 75.524476 22.570492 L 76.363636 19.232191 L 77.202797 20.673438 L 78.041958 20.747266 L 78.881119 22.570492 L 79.720280 22.570492 L 80.559441 18.176132 L 81.398601 21.392457 L 82.237762 21.193443 L 83.076923 22.358638 L 83.916084 21.193443 L 84.755245 21.193443 L 85.594406 22.570492 L 86.433566 22.570492 L 87.272727 22.570492 L 88.111888 23.828775 L 88.951049 24.406557 L 89.790210 24.406557 L 90.629371 22.570492 L 91.468531 21.193443 L 92.307692 21.193443 L 93.146853 21.434185 L 93.986014 21.652459 L 94.825175 21.742336 L 95.664336 22.111475 L 96.503497 23.450006 L 97.342657 23.132225 L 98.181818 22.737407 L 99.020979 22.111475 L 99.860140 24.374458 L 100.699301 24.865574 L 101.538462 26.242623 L 102.377622 18.641568 L 103.216783 28.091528 L 104.055944 29.391540 L 104.895105 25.972991 L 105.734266 25.151255 L 106.573427 26.701639 L 107.412587 27.160656 L 108.251748 8.800000 L 109.090909 36.215797 L 109.930070 34.045902 L 110.769231 32.139218 L 111.608392 33.127869 L 112.447552 34.045902 L 113.286713 34.045902 L 114.125874 34.055531 L 114.965035 34.816279 L 115.804196 36.800000 L 116.643357 36.800000 L 117.482517 35.660484 L 118.321678 22.570492 L 119.160839 24.342359 L 120.000000 36.340984 L 120 40 Z"></path>
    </g>
  </svg>