<svg xmlns="http://www.w3.org/2000/svg" viewBox="0 0 120 40" width="120" height="40">
    <defs>
      <linearGradient id="color_grad" x1="0%" x2="0%" y1="0%" y2="100%">
        <stop offset="0%" style="stop-color:#EA3943;stop-opacity:0.4;"></stop>
        <stop offset="100%" style="stop-color:#EA3943;stop-opacity:0.0;"></stop>
      </linearGradient>
    </defs>
    <g>
      <path stroke="#EA3943" stroke-width="2" stroke-linecap="round" stroke-linejoin="round" fill="none" d="M 0.000000 23.171813 L 0.839161 22.030863 L 1.678322 23.467004 L 2.517483 24.203008 L 3.356643 25.589204 L 4.195804 25.531188 L 5.034965 26.084178 L 5.874126 26.259660 L 6.713287 26.782342 L 7.552448 26.198864 L 8.391608 26.290058 L 9.230769 25.793560 L 10.069930 25.853638 L 10.909091 25.786476 L 11.748252 25.628389 L 12.587413 24.972997 L 13.426573 25.077641 L 14.265734 24.702824 L 15.104895 24.841542 L 15.944056 29.286442 L 16.783217 29.015193 L 17.622378 26.528309 L 18.461538 26.210790 L 19.300699 26.290506 L 20.139860 23.973007 L 20.979021 24.300927 L 21.818182 24.107869 L 22.657343 23.277264 L 23.496503 20.515275 L 24.335664 20.681432 L 25.174825 20.996978 L 26.013986 22.149136 L 26.853147 23.894905 L 27.692308 23.612716 L 28.531469 23.176476 L 29.370629 23.507265 L 30.209790 22.795472 L 31.048951 23.407015 L 31.888112 23.953997 L 32.727273 24.119526 L 33.566434 24.569755 L 34.405594 24.214307 L 35.244755 24.465111 L 36.083916 23.321919 L 36.923077 23.561426 L 37.762238 21.831708 L 38.601399 20.807955 L 39.440559 22.320584 L 40.279720 22.246607 L 41.118881 22.895811 L 41.958042 21.387218 L 42.797203 22.606808 L 43.636364 24.946007 L 44.475524 23.232071 L 45.314685 23.690818 L 46.153846 24.965017 L 46.993007 24.291512 L 47.832168 24.274206 L 48.671329 23.820928 L 49.510490 22.790002 L 50.349650 22.973017 L 51.188811 23.502334 L 52.027972 22.322288 L 52.867133 22.182224 L 53.706294 22.639806 L 54.545455 25.662912 L 55.384615 22.410343 L 56.223776 22.636578 L 57.062937 24.586165 L 57.902098 27.230508 L 58.741259 24.657183 L 59.580420 24.657452 L 60.419580 23.711532 L 61.258741 22.934011 L 62.097902 24.005557 L 62.937063 25.196453 L 63.776224 25.603820 L 64.615385 25.467074 L 65.454545 25.158164 L 66.293706 26.350674 L 67.132867 26.139324 L 67.972028 25.512268 L 68.811189 24.835176 L 69.650350 27.588198 L 70.489510 27.441500 L 71.328671 26.900795 L 72.167832 26.839102 L 73.006993 26.839102 L 73.846154 27.714990 L 74.685315 27.449570 L 75.524476 26.692941 L 76.363636 22.339504 L 77.202797 24.892475 L 78.041958 26.232580 L 78.881119 26.581124 L 79.720280 26.646762 L 80.559441 22.244455 L 81.398601 25.802258 L 82.237762 24.856069 L 83.076923 26.215722 L 83.916084 25.249447 L 84.755245 23.594514 L 85.594406 25.061949 L 86.433566 25.352029 L 87.272727 25.173318 L 88.111888 26.595202 L 88.951049 26.665682 L 89.790210 26.615019 L 90.629371 24.937309 L 91.468531 23.671898 L 92.307692 23.535780 L 93.146853 23.577476 L 93.986014 23.628946 L 94.825175 23.334383 L 95.664336 23.851326 L 96.503497 25.181299 L 97.342657 24.417497 L 98.181818 24.021608 L 99.020979 22.742208 L 99.860140 24.891488 L 100.699301 24.253582 L 101.538462 27.276060 L 102.377622 19.837645 L 103.216783 29.011068 L 104.055944 30.597226 L 104.895105 26.885461 L 105.734266 24.961340 L 106.573427 26.935676 L 107.412587 27.743236 L 108.251748 8.800000 L 109.090909 36.800000 L 109.930070 34.287650 L 110.769231 31.751178 L 111.608392 32.316094 L 112.447552 32.383794 L 113.286713 32.641683 L 114.125874 32.707410 L 114.965035 33.831682 L 115.804196 35.989391 L 116.643357 36.258398 L 117.482517 34.744693 L 118.321678 22.356362 L 119.160839 24.023580 L 120.000000 36.507410"></path>
      <path stroke="none" fill-opacity="0.6" fill="url(#color_grad)" d="M 0 40 L 0.000000 23.171813 L 0.839161 22.030863 L 1.678322 23.467004 L 2.517483 24.203008 L 3.356643 25.589204 L 4.195804 25.531188 L 5.034965 26.084178 L 5.874126 26.259660 L 6.713287 26.782342 L 7.552448 26.198864 L 8.391608 26.290058 L 9.230769 25.793560 L 10.069930 25.853638 L 10.909091 25.786476 L 11.748252 25.628389 L 12.587413 24.972997 L 13.426573 25.077641 L 14.265734 24.702824 L 15.104895 24.841542 L 15.944056 29.286442 L 16.783217 29.015193 L 17.622378 26.528309 L 18.461538 26.210790 L 19.300699 26.290506 L 20.139860 23.973007 L 20.979021 24.300927 L 21.818182 24.107869 L 22.657343 23.277264 L 23.496503 20.515275 L 24.335664 20.681432 L 25.174825 20.996978 L 26.013986 22.149136 L 26.853147 23.894905 L 27.692308 23.612716 L 28.531469 23.176476 L 29.370629 23.507265 L 30.209790 22.795472 L 31.048951 23.407015 L 31.888112 23.953997 L 32.727273 24.119526 L 33.566434 24.569755 L 34.405594 24.214307 L 35.244755 24.465111 L 36.083916 23.321919 L 36.923077 23.561426 L 37.762238 21.831708 L 38.601399 20.807955 L 39.440559 22.320584 L 40.279720 22.246607 L 41.118881 22.895811 L 41.958042 21.387218 L 42.797203 22.606808 L 43.636364 24.946007 L 44.475524 23.232071 L 45.314685 23.690818 L 46.153846 24.965017 L 46.993007 24.291512 L 47.832168 24.274206 L 48.671329 23.820928 L 49.510490 22.790002 L 50.349650 22.973017 L 51.188811 23.502334 L 52.027972 22.322288 L 52.867133 22.182224 L 53.706294 22.639806 L 54.545455 25.662912 L 55.384615 22.410343 L 56.223776 22.636578 L 57.062937 24.586165 L 57.902098 27.230508 L 58.741259 24.657183 L 59.580420 24.657452 L 60.419580 23.711532 L 61.258741 22.934011 L 62.097902 24.005557 L 62.937063 25.196453 L 63.776224 25.603820 L 64.615385 25.467074 L 65.454545 25.158164 L 66.293706 26.350674 L 67.132867 26.139324 L 67.972028 25.512268 L 68.811189 24.835176 L 69.650350 27.588198 L 70.489510 27.441500 L 71.328671 26.900795 L 72.167832 26.839102 L 73.006993 26.839102 L 73.846154 27.714990 L 74.685315 27.449570 L 75.524476 26.692941 L 76.363636 22.339504 L 77.202797 24.892475 L 78.041958 26.232580 L 78.881119 26.581124 L 79.720280 26.646762 L 80.559441 22.244455 L 81.398601 25.802258 L 82.237762 24.856069 L 83.076923 26.215722 L 83.916084 25.249447 L 84.755245 23.594514 L 85.594406 25.061949 L 86.433566 25.352029 L 87.272727 25.173318 L 88.111888 26.595202 L 88.951049 26.665682 L 89.790210 26.615019 L 90.629371 24.937309 L 91.468531 23.671898 L 92.307692 23.535780 L 93.146853 23.577476 L 93.986014 23.628946 L 94.825175 23.334383 L 95.664336 23.851326 L 96.503497 25.181299 L 97.342657 24.417497 L 98.181818 24.021608 L 99.020979 22.742208 L 99.860140 24.891488 L 100.699301 24.253582 L 101.538462 27.276060 L 102.377622 19.837645 L 103.216783 29.011068 L 104.055944 30.597226 L 104.895105 26.885461 L 105.734266 24.961340 L 106.573427 26.935676 L 107.412587 27.743236 L 108.251748 8.800000 L 109.090909 36.800000 L 109.930070 34.287650 L 110.769231 31.751178 L 111.608392 32.316094 L 112.447552 32.383794 L 113.286713 32.641683 L 114.125874 32.707410 L 114.965035 33.831682 L 115.804196 35.989391 L 116.643357 36.258398 L 117.482517 34.744693 L 118.321678 22.356362 L 119.160839 24.023580 L 120.000000 36.507410 L 120 40 Z"></path>
    </g>
  </svg>