<svg xmlns="http://www.w3.org/2000/svg" viewBox="0 0 120 40" width="120" height="40">
    <defs>
      <linearGradient id="color_grad" x1="0%" x2="0%" y1="0%" y2="100%">
        <stop offset="0%" style="stop-color:#EA3943;stop-opacity:0.4;"></stop>
        <stop offset="100%" style="stop-color:#EA3943;stop-opacity:0.0;"></stop>
      </linearGradient>
    </defs>
    <g>
      <path stroke="#EA3943" stroke-width="2" stroke-linecap="round" stroke-linejoin="round" fill="none" d="M 0.000000 15.226230 L 0.839161 16.144262 L 1.678322 16.603279 L 2.517483 16.603279 L 3.356643 16.603279 L 4.195804 16.603279 L 5.034965 16.603279 L 5.874126 13.467202 L 6.713287 12.013115 L 7.552448 12.013115 L 8.391608 12.013115 L 9.230769 12.507440 L 10.069930 12.931148 L 10.909091 12.931148 L 11.748252 12.931148 L 12.587413 12.013115 L 13.426573 15.117093 L 14.265734 14.940548 L 15.104895 14.308197 L 15.944056 14.308197 L 16.783217 13.942268 L 17.622378 13.762513 L 18.461538 13.284237 L 19.300699 13.290657 L 20.139860 13.390164 L 20.979021 13.621277 L 21.818182 13.682265 L 22.657343 13.849180 L 23.496503 16.144262 L 24.335664 16.144262 L 25.174825 17.062295 L 26.013986 17.521311 L 26.853147 17.521311 L 27.692308 17.521311 L 28.531469 17.521311 L 29.370629 17.521311 L 30.209790 13.897329 L 31.048951 14.767213 L 31.888112 11.672865 L 32.727273 12.388674 L 33.566434 15.226230 L 34.405594 20.217632 L 35.244755 15.685246 L 36.083916 15.685246 L 36.923077 19.074905 L 37.762238 17.521311 L 38.601399 19.219351 L 39.440559 19.951209 L 40.279720 19.097375 L 41.118881 20.734426 L 41.958042 22.570492 L 42.797203 20.734426 L 43.636364 20.859613 L 44.475524 23.058397 L 45.314685 24.406557 L 46.153846 24.406557 L 46.993007 21.193443 L 47.832168 23.042348 L 48.671329 22.673209 L 49.510490 23.947541 L 50.349650 23.767786 L 51.188811 24.220383 L 52.027972 24.865574 L 52.867133 24.865574 L 53.706294 24.865574 L 54.545455 23.029508 L 55.384615 24.159395 L 56.223776 25.324590 L 57.062937 25.324590 L 57.902098 23.440376 L 58.741259 21.918881 L 59.580420 22.175674 L 60.419580 22.111475 L 61.258741 23.562352 L 62.097902 23.488525 L 62.937063 24.473965 L 63.776224 27.619672 L 64.615385 27.266583 L 65.454545 27.160656 L 66.293706 24.865574 L 67.132867 25.237923 L 67.972028 24.111246 L 68.811189 24.721128 L 69.650350 23.767786 L 70.489510 24.865574 L 71.328671 26.242623 L 72.167832 26.242623 L 73.006993 26.242623 L 73.846154 22.641110 L 74.685315 23.283091 L 75.524476 23.947541 L 76.363636 24.072727 L 77.202797 27.619672 L 78.041958 27.622882 L 78.881119 29.186106 L 79.720280 27.619672 L 80.559441 29.192526 L 81.398601 23.337659 L 82.237762 19.357377 L 83.076923 20.275410 L 83.916084 22.570492 L 84.755245 22.628270 L 85.594406 23.488525 L 86.433566 23.488525 L 87.272727 23.488525 L 88.111888 23.803095 L 88.951049 23.947541 L 89.790210 23.931491 L 90.629371 23.488525 L 91.468531 23.488525 L 92.307692 23.488525 L 93.146853 23.488525 L 93.986014 23.488525 L 94.825175 23.488525 L 95.664336 23.921862 L 96.503497 23.947541 L 97.342657 24.050258 L 98.181818 27.160656 L 99.020979 27.160656 L 99.860140 25.616692 L 100.699301 25.225083 L 101.538462 24.865574 L 102.377622 24.865574 L 103.216783 26.695220 L 104.055944 27.041889 L 104.895105 22.791975 L 105.734266 23.029508 L 106.573427 25.237923 L 107.412587 27.439917 L 108.251748 8.800000 L 109.090909 33.127869 L 109.930070 33.127869 L 110.769231 34.610845 L 111.608392 36.800000 L 112.447552 33.127869 L 113.286713 33.127869 L 114.125874 33.127869 L 114.965035 33.586885 L 115.804196 34.045902 L 116.643357 34.045902 L 117.482517 34.045902 L 118.321678 33.127869 L 119.160839 33.127869 L 120.000000 33.127869"></path>
      <path stroke="none" fill-opacity="0.6" fill="url(#color_grad)" d="M 0 40 L 0.000000 15.226230 L 0.839161 16.144262 L 1.678322 16.603279 L 2.517483 16.603279 L 3.356643 16.603279 L 4.195804 16.603279 L 5.034965 16.603279 L 5.874126 13.467202 L 6.713287 12.013115 L 7.552448 12.013115 L 8.391608 12.013115 L 9.230769 12.507440 L 10.069930 12.931148 L 10.909091 12.931148 L 11.748252 12.931148 L 12.587413 12.013115 L 13.426573 15.117093 L 14.265734 14.940548 L 15.104895 14.308197 L 15.944056 14.308197 L 16.783217 13.942268 L 17.622378 13.762513 L 18.461538 13.284237 L 19.300699 13.290657 L 20.139860 13.390164 L 20.979021 13.621277 L 21.818182 13.682265 L 22.657343 13.849180 L 23.496503 16.144262 L 24.335664 16.144262 L 25.174825 17.062295 L 26.013986 17.521311 L 26.853147 17.521311 L 27.692308 17.521311 L 28.531469 17.521311 L 29.370629 17.521311 L 30.209790 13.897329 L 31.048951 14.767213 L 31.888112 11.672865 L 32.727273 12.388674 L 33.566434 15.226230 L 34.405594 20.217632 L 35.244755 15.685246 L 36.083916 15.685246 L 36.923077 19.074905 L 37.762238 17.521311 L 38.601399 19.219351 L 39.440559 19.951209 L 40.279720 19.097375 L 41.118881 20.734426 L 41.958042 22.570492 L 42.797203 20.734426 L 43.636364 20.859613 L 44.475524 23.058397 L 45.314685 24.406557 L 46.153846 24.406557 L 46.993007 21.193443 L 47.832168 23.042348 L 48.671329 22.673209 L 49.510490 23.947541 L 50.349650 23.767786 L 51.188811 24.220383 L 52.027972 24.865574 L 52.867133 24.865574 L 53.706294 24.865574 L 54.545455 23.029508 L 55.384615 24.159395 L 56.223776 25.324590 L 57.062937 25.324590 L 57.902098 23.440376 L 58.741259 21.918881 L 59.580420 22.175674 L 60.419580 22.111475 L 61.258741 23.562352 L 62.097902 23.488525 L 62.937063 24.473965 L 63.776224 27.619672 L 64.615385 27.266583 L 65.454545 27.160656 L 66.293706 24.865574 L 67.132867 25.237923 L 67.972028 24.111246 L 68.811189 24.721128 L 69.650350 23.767786 L 70.489510 24.865574 L 71.328671 26.242623 L 72.167832 26.242623 L 73.006993 26.242623 L 73.846154 22.641110 L 74.685315 23.283091 L 75.524476 23.947541 L 76.363636 24.072727 L 77.202797 27.619672 L 78.041958 27.622882 L 78.881119 29.186106 L 79.720280 27.619672 L 80.559441 29.192526 L 81.398601 23.337659 L 82.237762 19.357377 L 83.076923 20.275410 L 83.916084 22.570492 L 84.755245 22.628270 L 85.594406 23.488525 L 86.433566 23.488525 L 87.272727 23.488525 L 88.111888 23.803095 L 88.951049 23.947541 L 89.790210 23.931491 L 90.629371 23.488525 L 91.468531 23.488525 L 92.307692 23.488525 L 93.146853 23.488525 L 93.986014 23.488525 L 94.825175 23.488525 L 95.664336 23.921862 L 96.503497 23.947541 L 97.342657 24.050258 L 98.181818 27.160656 L 99.020979 27.160656 L 99.860140 25.616692 L 100.699301 25.225083 L 101.538462 24.865574 L 102.377622 24.865574 L 103.216783 26.695220 L 104.055944 27.041889 L 104.895105 22.791975 L 105.734266 23.029508 L 106.573427 25.237923 L 107.412587 27.439917 L 108.251748 8.800000 L 109.090909 33.127869 L 109.930070 33.127869 L 110.769231 34.610845 L 111.608392 36.800000 L 112.447552 33.127869 L 113.286713 33.127869 L 114.125874 33.127869 L 114.965035 33.586885 L 115.804196 34.045902 L 116.643357 34.045902 L 117.482517 34.045902 L 118.321678 33.127869 L 119.160839 33.127869 L 120.000000 33.127869 L 120 40 Z"></path>
    </g>
  </svg>