<svg xmlns="http://www.w3.org/2000/svg" viewBox="0 0 120 40" width="120" height="40">
    <defs>
      <linearGradient id="color_grad" x1="0%" x2="0%" y1="0%" y2="100%">
        <stop offset="0%" style="stop-color:#EA3943;stop-opacity:0.4;"></stop>
        <stop offset="100%" style="stop-color:#EA3943;stop-opacity:0.0;"></stop>
      </linearGradient>
    </defs>
    <g>
      <path stroke="#EA3943" stroke-width="2" stroke-linecap="round" stroke-linejoin="round" fill="none" d="M 0.000000 22.737137 L 0.839161 23.278630 L 1.678322 24.203305 L 2.517483 24.377864 L 3.356643 24.816524 L 4.195804 24.756799 L 5.034965 24.465928 L 5.874126 21.736860 L 6.713287 20.974282 L 7.552448 20.784400 L 8.391608 20.883541 L 9.230769 20.789569 L 10.069930 21.700489 L 10.909091 21.246691 L 11.748252 21.444420 L 12.587413 20.789661 L 13.426573 23.763907 L 14.265734 23.210505 L 15.104895 22.122164 L 15.944056 22.189550 L 16.783217 21.538669 L 17.622378 20.937358 L 18.461538 20.117364 L 19.300699 20.216690 L 20.139860 20.375187 L 20.979021 20.653780 L 21.818182 20.502668 L 22.657343 20.667627 L 23.496503 23.025238 L 24.335664 23.183089 L 25.174825 24.365956 L 26.013986 25.109056 L 26.853147 24.775168 L 27.692308 24.739537 L 28.531469 24.467959 L 29.370629 24.376110 L 30.209790 20.667719 L 31.048951 22.556854 L 31.888112 19.691997 L 32.727273 20.658673 L 33.566434 22.631533 L 34.405594 27.082378 L 35.244755 23.210505 L 36.083916 22.007237 L 36.923077 25.035023 L 37.762238 22.370202 L 38.601399 23.511807 L 39.440559 24.181981 L 40.279720 24.221305 L 41.118881 25.654703 L 41.958042 27.080901 L 42.797203 25.657103 L 43.636364 25.374818 L 44.475524 27.401034 L 45.314685 28.155580 L 46.153846 28.138133 L 46.993007 25.634487 L 47.832168 27.421896 L 48.671329 26.740921 L 49.510490 28.106102 L 50.349650 27.944374 L 51.188811 28.643718 L 52.027972 28.141826 L 52.867133 28.006776 L 53.706294 28.433896 L 54.545455 26.813662 L 55.384615 27.429373 L 56.223776 28.469528 L 57.062937 28.889634 L 57.902098 27.264137 L 58.741259 26.271984 L 59.580420 26.520576 L 60.419580 25.498145 L 61.258741 26.055331 L 62.097902 26.405465 L 62.937063 27.334663 L 63.776224 30.626549 L 64.615385 30.894988 L 65.454545 31.341401 L 66.293706 29.085332 L 67.132867 29.078039 L 67.972028 28.397249 L 68.811189 28.737413 L 69.650350 29.012868 L 70.489510 30.181889 L 71.328671 30.921481 L 72.167832 30.908188 L 73.006993 30.908188 L 73.846154 28.209213 L 74.685315 28.044623 L 75.524476 28.547808 L 76.363636 27.482083 L 77.202797 32.078224 L 78.041958 33.271430 L 78.881119 33.509406 L 79.720280 32.056623 L 80.559441 33.323308 L 81.398601 28.174227 L 82.237762 23.537653 L 83.076923 24.702982 L 83.916084 27.067239 L 84.755245 25.448112 L 85.594406 26.448297 L 86.433566 26.750429 L 87.272727 26.566454 L 88.111888 27.094286 L 88.951049 26.743137 L 89.790210 26.662088 L 90.629371 26.311677 L 91.468531 26.380449 L 92.307692 26.240321 L 93.146853 26.047854 L 93.986014 25.887418 L 94.825175 25.509499 L 95.664336 26.104440 L 96.503497 26.152534 L 97.342657 25.791323 L 98.181818 28.905326 L 99.020979 28.261460 L 99.860140 26.625256 L 100.699301 25.080993 L 101.538462 26.434266 L 102.377622 26.427435 L 103.216783 28.200997 L 104.055944 28.900342 L 104.895105 24.216413 L 105.734266 23.267184 L 106.573427 25.974005 L 107.412587 28.592947 L 108.251748 8.800000 L 109.090909 34.505899 L 109.930070 34.114410 L 110.769231 34.962743 L 111.608392 36.800000 L 112.447552 32.114871 L 113.286713 32.393557 L 114.125874 32.438050 L 114.965035 33.296261 L 115.804196 33.952220 L 116.643357 34.230721 L 117.482517 33.837386 L 118.321678 33.551500 L 119.160839 33.477005 L 120.000000 34.063085"></path>
      <path stroke="none" fill-opacity="0.6" fill="url(#color_grad)" d="M 0 40 L 0.000000 22.737137 L 0.839161 23.278630 L 1.678322 24.203305 L 2.517483 24.377864 L 3.356643 24.816524 L 4.195804 24.756799 L 5.034965 24.465928 L 5.874126 21.736860 L 6.713287 20.974282 L 7.552448 20.784400 L 8.391608 20.883541 L 9.230769 20.789569 L 10.069930 21.700489 L 10.909091 21.246691 L 11.748252 21.444420 L 12.587413 20.789661 L 13.426573 23.763907 L 14.265734 23.210505 L 15.104895 22.122164 L 15.944056 22.189550 L 16.783217 21.538669 L 17.622378 20.937358 L 18.461538 20.117364 L 19.300699 20.216690 L 20.139860 20.375187 L 20.979021 20.653780 L 21.818182 20.502668 L 22.657343 20.667627 L 23.496503 23.025238 L 24.335664 23.183089 L 25.174825 24.365956 L 26.013986 25.109056 L 26.853147 24.775168 L 27.692308 24.739537 L 28.531469 24.467959 L 29.370629 24.376110 L 30.209790 20.667719 L 31.048951 22.556854 L 31.888112 19.691997 L 32.727273 20.658673 L 33.566434 22.631533 L 34.405594 27.082378 L 35.244755 23.210505 L 36.083916 22.007237 L 36.923077 25.035023 L 37.762238 22.370202 L 38.601399 23.511807 L 39.440559 24.181981 L 40.279720 24.221305 L 41.118881 25.654703 L 41.958042 27.080901 L 42.797203 25.657103 L 43.636364 25.374818 L 44.475524 27.401034 L 45.314685 28.155580 L 46.153846 28.138133 L 46.993007 25.634487 L 47.832168 27.421896 L 48.671329 26.740921 L 49.510490 28.106102 L 50.349650 27.944374 L 51.188811 28.643718 L 52.027972 28.141826 L 52.867133 28.006776 L 53.706294 28.433896 L 54.545455 26.813662 L 55.384615 27.429373 L 56.223776 28.469528 L 57.062937 28.889634 L 57.902098 27.264137 L 58.741259 26.271984 L 59.580420 26.520576 L 60.419580 25.498145 L 61.258741 26.055331 L 62.097902 26.405465 L 62.937063 27.334663 L 63.776224 30.626549 L 64.615385 30.894988 L 65.454545 31.341401 L 66.293706 29.085332 L 67.132867 29.078039 L 67.972028 28.397249 L 68.811189 28.737413 L 69.650350 29.012868 L 70.489510 30.181889 L 71.328671 30.921481 L 72.167832 30.908188 L 73.006993 30.908188 L 73.846154 28.209213 L 74.685315 28.044623 L 75.524476 28.547808 L 76.363636 27.482083 L 77.202797 32.078224 L 78.041958 33.271430 L 78.881119 33.509406 L 79.720280 32.056623 L 80.559441 33.323308 L 81.398601 28.174227 L 82.237762 23.537653 L 83.076923 24.702982 L 83.916084 27.067239 L 84.755245 25.448112 L 85.594406 26.448297 L 86.433566 26.750429 L 87.272727 26.566454 L 88.111888 27.094286 L 88.951049 26.743137 L 89.790210 26.662088 L 90.629371 26.311677 L 91.468531 26.380449 L 92.307692 26.240321 L 93.146853 26.047854 L 93.986014 25.887418 L 94.825175 25.509499 L 95.664336 26.104440 L 96.503497 26.152534 L 97.342657 25.791323 L 98.181818 28.905326 L 99.020979 28.261460 L 99.860140 26.625256 L 100.699301 25.080993 L 101.538462 26.434266 L 102.377622 26.427435 L 103.216783 28.200997 L 104.055944 28.900342 L 104.895105 24.216413 L 105.734266 23.267184 L 106.573427 25.974005 L 107.412587 28.592947 L 108.251748 8.800000 L 109.090909 34.505899 L 109.930070 34.114410 L 110.769231 34.962743 L 111.608392 36.800000 L 112.447552 32.114871 L 113.286713 32.393557 L 114.125874 32.438050 L 114.965035 33.296261 L 115.804196 33.952220 L 116.643357 34.230721 L 117.482517 33.837386 L 118.321678 33.551500 L 119.160839 33.477005 L 120.000000 34.063085 L 120 40 Z"></path>
    </g>
  </svg>