<svg xmlns="http://www.w3.org/2000/svg" viewBox="0 0 120 40" width="120" height="40">
    <defs>
      <linearGradient id="color_grad" x1="0%" x2="0%" y1="0%" y2="100%">
        <stop offset="0%" style="stop-color:#EA3943;stop-opacity:0.4;"></stop>
        <stop offset="100%" style="stop-color:#EA3943;stop-opacity:0.0;"></stop>
      </linearGradient>
    </defs>
    <g>
      <path stroke="#EA3943" stroke-width="2" stroke-linecap="round" stroke-linejoin="round" fill="none" d="M 0.000000 9.719548 L 0.839161 9.319964 L 1.678322 9.967729 L 2.517483 12.186912 L 3.356643 10.900618 L 4.195804 13.081515 L 5.034965 11.713126 L 5.874126 10.857202 L 6.713287 11.534016 L 7.552448 11.679025 L 8.391608 11.784960 L 9.230769 11.502204 L 10.069930 12.607177 L 10.909091 12.315817 L 11.748252 12.534317 L 12.587413 12.757791 L 13.426573 12.906194 L 14.265734 12.423410 L 15.104895 11.473865 L 15.944056 11.546014 L 16.783217 11.556829 L 17.622378 10.673592 L 18.461538 10.244880 L 19.300699 10.354130 L 20.139860 10.431489 L 20.979021 10.871884 L 21.818182 10.991002 L 22.657343 10.809365 L 23.496503 11.939204 L 24.335664 12.169150 L 25.174825 13.352667 L 26.013986 8.899541 L 26.853147 8.840337 L 27.692308 8.800000 L 28.531469 12.751160 L 29.370629 12.972502 L 30.209790 12.201199 L 31.048951 10.816075 L 31.888112 11.141615 L 32.727273 12.774526 L 33.566434 13.110564 L 34.405594 12.844070 L 35.244755 13.297647 L 36.083916 11.882132 L 36.923077 11.648081 L 37.762238 11.083359 L 38.601399 11.443474 L 39.440559 11.623058 L 40.279720 12.072846 L 41.118881 12.108842 L 41.958042 12.057295 L 42.797203 13.197633 L 43.636364 14.898746 L 44.475524 12.759448 L 45.314685 11.166244 L 46.153846 13.132904 L 46.993007 13.894102 L 47.832168 11.909129 L 48.671329 11.498573 L 49.510490 11.646660 L 50.349650 13.245233 L 51.188811 16.006245 L 52.027972 14.607228 L 52.867133 14.440037 L 53.706294 14.983920 L 54.545455 11.556434 L 55.384615 10.933456 L 56.223776 11.388928 L 57.062937 11.335171 L 57.902098 12.096133 L 58.741259 13.065254 L 59.580420 9.774410 L 60.419580 9.107069 L 61.258741 9.241105 L 62.097902 11.231920 L 62.937063 10.807471 L 63.776224 10.650148 L 64.615385 9.552831 L 65.454545 9.953520 L 66.293706 11.784012 L 67.132867 10.923589 L 67.972028 14.084264 L 68.811189 14.311368 L 69.650350 15.799349 L 70.489510 15.947436 L 71.328671 15.572876 L 72.167832 15.600662 L 73.006993 15.600662 L 73.846154 16.522815 L 74.685315 14.280425 L 75.524476 13.000604 L 76.363636 12.671906 L 77.202797 15.617081 L 78.041958 17.154950 L 78.881119 15.512330 L 79.720280 15.589374 L 80.559441 15.480913 L 81.398601 17.417656 L 82.237762 17.161186 L 83.076923 17.701990 L 83.916084 17.367451 L 84.755245 15.378610 L 85.594406 15.551089 L 86.433566 15.914914 L 87.272727 15.905441 L 88.111888 16.349625 L 88.951049 15.760117 L 89.790210 15.687967 L 90.629371 16.565520 L 91.468531 16.627881 L 92.307692 16.468111 L 93.146853 15.467257 L 93.986014 15.273069 L 94.825175 14.508950 L 95.664336 13.890708 L 96.503497 13.881788 L 97.342657 13.411081 L 98.181818 16.842356 L 99.020979 16.063396 L 99.860140 18.359622 L 100.699301 17.030070 L 101.538462 21.959350 L 102.377622 19.793451 L 103.216783 20.199429 L 104.055944 22.875820 L 104.895105 21.357764 L 105.734266 24.258260 L 106.573427 29.674351 L 107.412587 26.105724 L 108.251748 15.596715 L 109.090909 32.723723 L 109.930070 36.800000 L 110.769231 32.621420 L 111.608392 31.419432 L 112.447552 29.977630 L 113.286713 30.268516 L 114.125874 30.676468 L 114.965035 29.456561 L 115.804196 30.336482 L 116.643357 32.049199 L 117.482517 33.039159 L 118.321678 35.559490 L 119.160839 34.374079 L 120.000000 34.880782"></path>
      <path stroke="none" fill-opacity="0.6" fill="url(#color_grad)" d="M 0 40 L 0.000000 9.719548 L 0.839161 9.319964 L 1.678322 9.967729 L 2.517483 12.186912 L 3.356643 10.900618 L 4.195804 13.081515 L 5.034965 11.713126 L 5.874126 10.857202 L 6.713287 11.534016 L 7.552448 11.679025 L 8.391608 11.784960 L 9.230769 11.502204 L 10.069930 12.607177 L 10.909091 12.315817 L 11.748252 12.534317 L 12.587413 12.757791 L 13.426573 12.906194 L 14.265734 12.423410 L 15.104895 11.473865 L 15.944056 11.546014 L 16.783217 11.556829 L 17.622378 10.673592 L 18.461538 10.244880 L 19.300699 10.354130 L 20.139860 10.431489 L 20.979021 10.871884 L 21.818182 10.991002 L 22.657343 10.809365 L 23.496503 11.939204 L 24.335664 12.169150 L 25.174825 13.352667 L 26.013986 8.899541 L 26.853147 8.840337 L 27.692308 8.800000 L 28.531469 12.751160 L 29.370629 12.972502 L 30.209790 12.201199 L 31.048951 10.816075 L 31.888112 11.141615 L 32.727273 12.774526 L 33.566434 13.110564 L 34.405594 12.844070 L 35.244755 13.297647 L 36.083916 11.882132 L 36.923077 11.648081 L 37.762238 11.083359 L 38.601399 11.443474 L 39.440559 11.623058 L 40.279720 12.072846 L 41.118881 12.108842 L 41.958042 12.057295 L 42.797203 13.197633 L 43.636364 14.898746 L 44.475524 12.759448 L 45.314685 11.166244 L 46.153846 13.132904 L 46.993007 13.894102 L 47.832168 11.909129 L 48.671329 11.498573 L 49.510490 11.646660 L 50.349650 13.245233 L 51.188811 16.006245 L 52.027972 14.607228 L 52.867133 14.440037 L 53.706294 14.983920 L 54.545455 11.556434 L 55.384615 10.933456 L 56.223776 11.388928 L 57.062937 11.335171 L 57.902098 12.096133 L 58.741259 13.065254 L 59.580420 9.774410 L 60.419580 9.107069 L 61.258741 9.241105 L 62.097902 11.231920 L 62.937063 10.807471 L 63.776224 10.650148 L 64.615385 9.552831 L 65.454545 9.953520 L 66.293706 11.784012 L 67.132867 10.923589 L 67.972028 14.084264 L 68.811189 14.311368 L 69.650350 15.799349 L 70.489510 15.947436 L 71.328671 15.572876 L 72.167832 15.600662 L 73.006993 15.600662 L 73.846154 16.522815 L 74.685315 14.280425 L 75.524476 13.000604 L 76.363636 12.671906 L 77.202797 15.617081 L 78.041958 17.154950 L 78.881119 15.512330 L 79.720280 15.589374 L 80.559441 15.480913 L 81.398601 17.417656 L 82.237762 17.161186 L 83.076923 17.701990 L 83.916084 17.367451 L 84.755245 15.378610 L 85.594406 15.551089 L 86.433566 15.914914 L 87.272727 15.905441 L 88.111888 16.349625 L 88.951049 15.760117 L 89.790210 15.687967 L 90.629371 16.565520 L 91.468531 16.627881 L 92.307692 16.468111 L 93.146853 15.467257 L 93.986014 15.273069 L 94.825175 14.508950 L 95.664336 13.890708 L 96.503497 13.881788 L 97.342657 13.411081 L 98.181818 16.842356 L 99.020979 16.063396 L 99.860140 18.359622 L 100.699301 17.030070 L 101.538462 21.959350 L 102.377622 19.793451 L 103.216783 20.199429 L 104.055944 22.875820 L 104.895105 21.357764 L 105.734266 24.258260 L 106.573427 29.674351 L 107.412587 26.105724 L 108.251748 15.596715 L 109.090909 32.723723 L 109.930070 36.800000 L 110.769231 32.621420 L 111.608392 31.419432 L 112.447552 29.977630 L 113.286713 30.268516 L 114.125874 30.676468 L 114.965035 29.456561 L 115.804196 30.336482 L 116.643357 32.049199 L 117.482517 33.039159 L 118.321678 35.559490 L 119.160839 34.374079 L 120.000000 34.880782 L 120 40 Z"></path>
    </g>
  </svg>