<svg xmlns="http://www.w3.org/2000/svg" viewBox="0 0 120 40" width="120" height="40">
    <defs>
      <linearGradient id="color_grad" x1="0%" x2="0%" y1="0%" y2="100%">
        <stop offset="0%" style="stop-color:#EA3943;stop-opacity:0.4;"></stop>
        <stop offset="100%" style="stop-color:#EA3943;stop-opacity:0.0;"></stop>
      </linearGradient>
    </defs>
    <g>
      <path stroke="#EA3943" stroke-width="2" stroke-linecap="round" stroke-linejoin="round" fill="none" d="M 0.000000 9.716247 L 0.839161 9.716247 L 1.678322 9.746789 L 2.517483 11.430847 L 3.356643 9.900564 L 4.195804 11.784958 L 5.034965 10.937910 L 5.874126 10.040885 L 6.713287 10.021663 L 7.552448 10.327079 L 8.391608 10.327079 L 9.230769 10.632494 L 10.069930 11.046834 L 10.909091 11.243326 L 11.748252 11.243326 L 12.587413 11.243326 L 13.426573 11.243326 L 14.265734 11.243326 L 15.104895 10.937910 L 15.944056 10.937910 L 16.783217 11.243326 L 17.622378 10.937910 L 18.461538 10.937910 L 19.300699 10.937910 L 20.139860 10.937910 L 20.979021 11.243326 L 21.818182 11.548741 L 22.657343 11.380015 L 23.496503 12.133944 L 24.335664 12.159573 L 25.174825 12.830206 L 26.013986 8.800000 L 26.853147 9.105416 L 27.692308 9.105416 L 28.531469 12.648238 L 29.370629 12.948955 L 30.209790 12.579893 L 31.048951 10.388162 L 31.888112 10.632494 L 32.727273 11.715332 L 33.566434 12.648238 L 34.405594 12.648238 L 35.244755 12.648238 L 36.083916 12.648238 L 36.923077 12.648238 L 37.762238 13.344928 L 38.601399 14.124485 L 39.440559 14.297483 L 40.279720 13.816934 L 41.118881 13.992067 L 41.958042 14.297483 L 42.797203 14.865599 L 43.636364 16.629748 L 44.475524 15.015103 L 45.314685 14.297483 L 46.153846 15.885645 L 46.993007 15.885645 L 47.832168 14.297483 L 48.671329 14.294066 L 49.510490 14.274630 L 50.349650 15.553318 L 51.188811 17.504348 L 52.027972 17.504348 L 52.867133 17.504348 L 53.706294 17.504348 L 54.545455 14.602899 L 55.384615 14.602899 L 56.223776 15.078322 L 57.062937 14.602899 L 57.902098 15.000153 L 58.741259 15.277803 L 59.580420 12.648238 L 60.419580 13.075820 L 61.258741 14.056140 L 62.097902 15.198780 L 62.937063 14.908314 L 63.776224 14.602899 L 64.615385 13.075820 L 65.454545 12.798169 L 66.293706 14.297483 L 67.132867 13.992067 L 67.972028 16.096445 L 68.811189 16.527018 L 69.650350 16.527018 L 70.489510 16.527018 L 71.328671 16.825385 L 72.167832 16.862975 L 73.006993 16.862975 L 73.846154 16.862975 L 74.685315 15.802563 L 75.524476 14.908314 L 76.363636 15.841220 L 77.202797 17.046224 L 78.041958 17.046224 L 78.881119 17.046224 L 79.720280 17.046224 L 80.559441 17.221358 L 81.398601 18.267887 L 82.237762 18.789016 L 83.076923 18.972693 L 83.916084 18.577574 L 84.755245 18.573303 L 85.594406 18.573303 L 86.433566 18.573303 L 87.272727 18.739893 L 88.111888 18.878719 L 88.951049 18.878719 L 89.790210 18.878719 L 90.629371 19.489550 L 91.468531 19.489550 L 92.307692 19.489550 L 93.146853 18.878719 L 93.986014 18.878719 L 94.825175 18.633105 L 95.664336 17.996644 L 96.503497 17.962471 L 97.342657 18.030816 L 98.181818 20.711213 L 99.020979 20.711213 L 99.860140 22.543707 L 100.699301 22.543707 L 101.538462 24.822578 L 102.377622 23.154539 L 103.216783 23.526163 L 104.055944 25.292449 L 104.895105 24.470175 L 105.734266 27.667429 L 106.573427 31.445614 L 107.412587 28.400000 L 108.251748 21.016629 L 109.090909 33.344317 L 109.930070 36.800000 L 110.769231 34.149504 L 111.608392 33.598474 L 112.447552 33.233257 L 113.286713 33.233257 L 114.125874 33.493822 L 114.965035 32.267887 L 115.804196 32.776201 L 116.643357 33.833410 L 117.482517 34.907704 L 118.321678 36.287414 L 119.160839 35.456598 L 120.000000 35.371167"></path>
      <path stroke="none" fill-opacity="0.6" fill="url(#color_grad)" d="M 0 40 L 0.000000 9.716247 L 0.839161 9.716247 L 1.678322 9.746789 L 2.517483 11.430847 L 3.356643 9.900564 L 4.195804 11.784958 L 5.034965 10.937910 L 5.874126 10.040885 L 6.713287 10.021663 L 7.552448 10.327079 L 8.391608 10.327079 L 9.230769 10.632494 L 10.069930 11.046834 L 10.909091 11.243326 L 11.748252 11.243326 L 12.587413 11.243326 L 13.426573 11.243326 L 14.265734 11.243326 L 15.104895 10.937910 L 15.944056 10.937910 L 16.783217 11.243326 L 17.622378 10.937910 L 18.461538 10.937910 L 19.300699 10.937910 L 20.139860 10.937910 L 20.979021 11.243326 L 21.818182 11.548741 L 22.657343 11.380015 L 23.496503 12.133944 L 24.335664 12.159573 L 25.174825 12.830206 L 26.013986 8.800000 L 26.853147 9.105416 L 27.692308 9.105416 L 28.531469 12.648238 L 29.370629 12.948955 L 30.209790 12.579893 L 31.048951 10.388162 L 31.888112 10.632494 L 32.727273 11.715332 L 33.566434 12.648238 L 34.405594 12.648238 L 35.244755 12.648238 L 36.083916 12.648238 L 36.923077 12.648238 L 37.762238 13.344928 L 38.601399 14.124485 L 39.440559 14.297483 L 40.279720 13.816934 L 41.118881 13.992067 L 41.958042 14.297483 L 42.797203 14.865599 L 43.636364 16.629748 L 44.475524 15.015103 L 45.314685 14.297483 L 46.153846 15.885645 L 46.993007 15.885645 L 47.832168 14.297483 L 48.671329 14.294066 L 49.510490 14.274630 L 50.349650 15.553318 L 51.188811 17.504348 L 52.027972 17.504348 L 52.867133 17.504348 L 53.706294 17.504348 L 54.545455 14.602899 L 55.384615 14.602899 L 56.223776 15.078322 L 57.062937 14.602899 L 57.902098 15.000153 L 58.741259 15.277803 L 59.580420 12.648238 L 60.419580 13.075820 L 61.258741 14.056140 L 62.097902 15.198780 L 62.937063 14.908314 L 63.776224 14.602899 L 64.615385 13.075820 L 65.454545 12.798169 L 66.293706 14.297483 L 67.132867 13.992067 L 67.972028 16.096445 L 68.811189 16.527018 L 69.650350 16.527018 L 70.489510 16.527018 L 71.328671 16.825385 L 72.167832 16.862975 L 73.006993 16.862975 L 73.846154 16.862975 L 74.685315 15.802563 L 75.524476 14.908314 L 76.363636 15.841220 L 77.202797 17.046224 L 78.041958 17.046224 L 78.881119 17.046224 L 79.720280 17.046224 L 80.559441 17.221358 L 81.398601 18.267887 L 82.237762 18.789016 L 83.076923 18.972693 L 83.916084 18.577574 L 84.755245 18.573303 L 85.594406 18.573303 L 86.433566 18.573303 L 87.272727 18.739893 L 88.111888 18.878719 L 88.951049 18.878719 L 89.790210 18.878719 L 90.629371 19.489550 L 91.468531 19.489550 L 92.307692 19.489550 L 93.146853 18.878719 L 93.986014 18.878719 L 94.825175 18.633105 L 95.664336 17.996644 L 96.503497 17.962471 L 97.342657 18.030816 L 98.181818 20.711213 L 99.020979 20.711213 L 99.860140 22.543707 L 100.699301 22.543707 L 101.538462 24.822578 L 102.377622 23.154539 L 103.216783 23.526163 L 104.055944 25.292449 L 104.895105 24.470175 L 105.734266 27.667429 L 106.573427 31.445614 L 107.412587 28.400000 L 108.251748 21.016629 L 109.090909 33.344317 L 109.930070 36.800000 L 110.769231 34.149504 L 111.608392 33.598474 L 112.447552 33.233257 L 113.286713 33.233257 L 114.125874 33.493822 L 114.965035 32.267887 L 115.804196 32.776201 L 116.643357 33.833410 L 117.482517 34.907704 L 118.321678 36.287414 L 119.160839 35.456598 L 120.000000 35.371167 L 120 40 Z"></path>
    </g>
  </svg>