<svg xmlns="http://www.w3.org/2000/svg" viewBox="0 0 120 40" width="120" height="40">
    <defs>
      <linearGradient id="color_grad" x1="0%" x2="0%" y1="0%" y2="100%">
        <stop offset="0%" style="stop-color:#16C784;stop-opacity:0.4;"></stop>
        <stop offset="100%" style="stop-color:#16C784;stop-opacity:0.0;"></stop>
      </linearGradient>
    </defs>
    <g>
      <path stroke="#16C784" stroke-width="2" stroke-linecap="round" stroke-linejoin="round" fill="none" d="M 0.000000 20.599331 L 0.839161 20.730304 L 1.678322 26.480006 L 2.517483 8.893645 L 3.356643 8.893645 L 4.195804 8.893645 L 5.034965 8.893645 L 5.874126 9.040990 L 6.713287 8.800000 L 7.552448 8.800000 L 8.391608 8.800000 L 9.230769 8.800000 L 10.069930 8.800000 L 10.909091 8.800000 L 11.748252 8.800000 L 12.587413 11.328428 L 13.426573 18.913712 L 14.265734 18.913712 L 15.104895 18.913712 L 15.944056 18.913712 L 16.783217 18.913712 L 17.622378 18.913712 L 18.461538 18.913712 L 19.300699 20.599331 L 20.139860 20.599331 L 20.979021 20.599331 L 21.818182 14.852904 L 22.657343 16.010702 L 23.496503 16.010702 L 24.335664 16.010702 L 25.174825 16.010702 L 26.013986 15.917057 L 26.853147 15.917057 L 27.692308 15.917057 L 28.531469 15.987782 L 29.370629 20.599331 L 30.209790 16.853512 L 31.048951 16.853512 L 31.888112 16.853512 L 32.727273 16.947157 L 33.566434 16.947157 L 34.405594 20.599331 L 35.244755 20.599331 L 36.083916 16.947157 L 36.923077 16.947157 L 37.762238 16.947157 L 38.601399 17.789967 L 39.440559 17.789967 L 40.279720 20.692977 L 41.118881 20.692977 L 41.958042 20.692977 L 42.797203 20.692977 L 43.636364 20.692977 L 44.475524 20.692977 L 45.314685 16.947157 L 46.153846 16.947157 L 46.993007 16.947157 L 47.832168 16.947157 L 48.671329 16.947157 L 49.510490 16.947157 L 50.349650 16.947157 L 51.188811 16.947157 L 52.027972 16.947157 L 52.867133 16.947157 L 53.706294 16.947157 L 54.545455 16.947157 L 55.384615 25.365886 L 56.223776 25.365886 L 57.062937 25.365886 L 57.902098 18.913712 L 58.741259 20.599331 L 59.580420 20.686428 L 60.419580 27.154515 L 61.258741 27.154515 L 62.097902 22.330135 L 62.937063 25.375251 L 63.776224 25.375251 L 64.615385 25.375251 L 65.454545 25.375251 L 66.293706 25.693515 L 67.132867 30.614159 L 67.972028 30.993980 L 68.811189 30.338462 L 69.650350 30.338462 L 70.489510 31.506738 L 71.328671 34.646154 L 72.167832 34.646154 L 73.006993 34.646154 L 73.846154 34.768613 L 74.685315 34.833445 L 75.524476 34.833445 L 76.363636 34.739799 L 77.202797 35.663812 L 78.041958 35.676254 L 78.881119 36.612709 L 79.720280 36.612709 L 80.559441 36.612709 L 81.398601 36.612709 L 82.237762 36.612709 L 83.076923 36.612709 L 83.916084 36.612709 L 84.755245 36.612709 L 85.594406 36.612709 L 86.433566 36.612709 L 87.272727 36.757434 L 88.111888 36.800000 L 88.951049 36.800000 L 89.790210 36.800000 L 90.629371 30.441930 L 91.468531 30.525753 L 92.307692 30.525753 L 93.146853 30.525753 L 93.986014 30.525753 L 94.825175 30.525753 L 95.664336 30.702566 L 96.503497 30.713043 L 97.342657 30.619398 L 98.181818 30.619398 L 99.020979 30.619398 L 99.860140 30.619398 L 100.699301 30.619398 L 101.538462 30.619398 L 102.377622 11.328428 L 103.216783 22.662151 L 104.055944 26.218060 L 104.895105 11.328428 L 105.734266 11.328428 L 106.573427 11.328428 L 107.412587 18.207769 L 108.251748 34.056777 L 109.090909 16.257586 L 109.930070 17.789967 L 110.769231 17.789967 L 111.608392 17.789967 L 112.447552 17.789967 L 113.286713 17.789967 L 114.125874 25.126403 L 114.965035 17.883612 L 115.804196 20.136343 L 116.643357 22.074739 L 117.482517 34.700508 L 118.321678 34.739799 L 119.160839 24.831714 L 120.000000 22.565886"></path>
      <path stroke="none" fill-opacity="0.6" fill="url(#color_grad)" d="M 0 40 L 0.000000 20.599331 L 0.839161 20.730304 L 1.678322 26.480006 L 2.517483 8.893645 L 3.356643 8.893645 L 4.195804 8.893645 L 5.034965 8.893645 L 5.874126 9.040990 L 6.713287 8.800000 L 7.552448 8.800000 L 8.391608 8.800000 L 9.230769 8.800000 L 10.069930 8.800000 L 10.909091 8.800000 L 11.748252 8.800000 L 12.587413 11.328428 L 13.426573 18.913712 L 14.265734 18.913712 L 15.104895 18.913712 L 15.944056 18.913712 L 16.783217 18.913712 L 17.622378 18.913712 L 18.461538 18.913712 L 19.300699 20.599331 L 20.139860 20.599331 L 20.979021 20.599331 L 21.818182 14.852904 L 22.657343 16.010702 L 23.496503 16.010702 L 24.335664 16.010702 L 25.174825 16.010702 L 26.013986 15.917057 L 26.853147 15.917057 L 27.692308 15.917057 L 28.531469 15.987782 L 29.370629 20.599331 L 30.209790 16.853512 L 31.048951 16.853512 L 31.888112 16.853512 L 32.727273 16.947157 L 33.566434 16.947157 L 34.405594 20.599331 L 35.244755 20.599331 L 36.083916 16.947157 L 36.923077 16.947157 L 37.762238 16.947157 L 38.601399 17.789967 L 39.440559 17.789967 L 40.279720 20.692977 L 41.118881 20.692977 L 41.958042 20.692977 L 42.797203 20.692977 L 43.636364 20.692977 L 44.475524 20.692977 L 45.314685 16.947157 L 46.153846 16.947157 L 46.993007 16.947157 L 47.832168 16.947157 L 48.671329 16.947157 L 49.510490 16.947157 L 50.349650 16.947157 L 51.188811 16.947157 L 52.027972 16.947157 L 52.867133 16.947157 L 53.706294 16.947157 L 54.545455 16.947157 L 55.384615 25.365886 L 56.223776 25.365886 L 57.062937 25.365886 L 57.902098 18.913712 L 58.741259 20.599331 L 59.580420 20.686428 L 60.419580 27.154515 L 61.258741 27.154515 L 62.097902 22.330135 L 62.937063 25.375251 L 63.776224 25.375251 L 64.615385 25.375251 L 65.454545 25.375251 L 66.293706 25.693515 L 67.132867 30.614159 L 67.972028 30.993980 L 68.811189 30.338462 L 69.650350 30.338462 L 70.489510 31.506738 L 71.328671 34.646154 L 72.167832 34.646154 L 73.006993 34.646154 L 73.846154 34.768613 L 74.685315 34.833445 L 75.524476 34.833445 L 76.363636 34.739799 L 77.202797 35.663812 L 78.041958 35.676254 L 78.881119 36.612709 L 79.720280 36.612709 L 80.559441 36.612709 L 81.398601 36.612709 L 82.237762 36.612709 L 83.076923 36.612709 L 83.916084 36.612709 L 84.755245 36.612709 L 85.594406 36.612709 L 86.433566 36.612709 L 87.272727 36.757434 L 88.111888 36.800000 L 88.951049 36.800000 L 89.790210 36.800000 L 90.629371 30.441930 L 91.468531 30.525753 L 92.307692 30.525753 L 93.146853 30.525753 L 93.986014 30.525753 L 94.825175 30.525753 L 95.664336 30.702566 L 96.503497 30.713043 L 97.342657 30.619398 L 98.181818 30.619398 L 99.020979 30.619398 L 99.860140 30.619398 L 100.699301 30.619398 L 101.538462 30.619398 L 102.377622 11.328428 L 103.216783 22.662151 L 104.055944 26.218060 L 104.895105 11.328428 L 105.734266 11.328428 L 106.573427 11.328428 L 107.412587 18.207769 L 108.251748 34.056777 L 109.090909 16.257586 L 109.930070 17.789967 L 110.769231 17.789967 L 111.608392 17.789967 L 112.447552 17.789967 L 113.286713 17.789967 L 114.125874 25.126403 L 114.965035 17.883612 L 115.804196 20.136343 L 116.643357 22.074739 L 117.482517 34.700508 L 118.321678 34.739799 L 119.160839 24.831714 L 120.000000 22.565886 L 120 40 Z"></path>
    </g>
  </svg>