<svg xmlns="http://www.w3.org/2000/svg" viewBox="0 0 120 40" width="120" height="40">
    <defs>
      <linearGradient id="color_grad" x1="0%" x2="0%" y1="0%" y2="100%">
        <stop offset="0%" style="stop-color:#16C784;stop-opacity:0.4;"></stop>
        <stop offset="100%" style="stop-color:#16C784;stop-opacity:0.0;"></stop>
      </linearGradient>
    </defs>
    <g>
      <path stroke="#16C784" stroke-width="2" stroke-linecap="round" stroke-linejoin="round" fill="none" d="M 0.000000 30.229953 L 0.839161 29.637988 L 1.678322 34.115683 L 2.517483 24.006683 L 3.356643 24.970250 L 4.195804 24.838860 L 5.034965 24.194743 L 5.874126 24.667262 L 6.713287 25.775030 L 7.552448 25.369624 L 8.391608 25.561578 L 9.230769 24.415345 L 10.069930 25.509738 L 10.909091 24.562417 L 11.748252 24.969541 L 12.587413 26.859137 L 13.426573 31.578763 L 14.265734 30.751272 L 15.104895 29.724544 L 15.944056 29.861666 L 16.783217 29.224808 L 17.622378 28.341788 L 18.461538 27.597260 L 19.300699 28.794047 L 20.139860 28.920642 L 20.979021 29.044221 L 21.818182 25.147760 L 22.657343 25.878649 L 23.496503 26.267436 L 24.335664 26.616436 L 25.174825 27.303404 L 26.013986 27.920328 L 26.853147 27.195687 L 27.692308 27.112808 L 28.531469 26.587800 L 29.370629 29.144380 L 30.209790 26.287757 L 31.048951 28.510381 L 31.888112 28.561897 L 32.727273 29.210640 L 33.566434 27.818414 L 34.405594 29.520538 L 35.244755 30.326831 L 36.083916 25.613009 L 36.923077 25.189278 L 37.762238 22.636255 L 38.601399 22.066461 L 39.440559 21.994698 L 40.279720 25.673477 L 41.118881 25.357992 L 41.958042 24.588649 L 42.797203 25.364505 L 43.636364 24.475717 L 44.475524 24.234110 L 45.314685 20.634520 L 46.153846 20.580842 L 46.993007 22.013468 L 47.832168 21.991597 L 48.671329 21.256226 L 49.510490 21.561269 L 50.349650 21.585146 L 51.188811 22.188574 L 52.027972 19.531463 L 52.867133 19.216110 L 53.706294 20.239401 L 54.545455 20.645600 L 55.384615 24.771711 L 56.223776 24.530885 L 57.062937 25.507767 L 57.902098 21.949551 L 58.741259 24.127714 L 59.580420 24.178353 L 60.419580 26.084519 L 61.258741 24.139647 L 62.097902 22.050912 L 62.937063 23.878525 L 63.776224 24.288161 L 64.615385 25.749603 L 65.454545 27.053602 L 66.293706 27.189559 L 67.132867 29.394447 L 67.972028 30.555713 L 68.811189 29.593010 L 69.650350 32.259662 L 70.489510 33.217078 L 71.328671 33.858431 L 72.167832 33.828245 L 73.006993 33.828245 L 73.846154 35.530236 L 74.685315 33.901919 L 75.524476 33.622291 L 76.363636 30.969951 L 77.202797 34.072796 L 78.041958 36.800000 L 78.881119 34.460273 L 79.720280 34.598080 L 80.559441 34.036253 L 81.398601 35.173762 L 82.237762 33.536432 L 83.076923 34.101203 L 83.916084 34.384075 L 84.755245 30.805527 L 85.594406 31.130794 L 86.433566 31.781075 L 87.272727 31.467813 L 88.111888 31.974447 L 88.951049 30.919000 L 89.790210 30.784245 L 90.629371 26.963141 L 91.468531 27.138584 L 92.307692 26.843551 L 93.146853 26.418834 L 93.986014 26.061867 L 94.825175 25.221855 L 95.664336 25.714466 L 96.503497 25.777013 L 97.342657 24.682872 L 98.181818 24.656928 L 99.020979 23.180153 L 99.860140 23.011415 L 100.699301 20.410974 L 101.538462 24.283294 L 102.377622 11.878187 L 103.216783 19.001901 L 104.055944 22.091949 L 104.895105 11.585173 L 105.734266 8.800000 L 106.573427 9.895198 L 107.412587 11.055767 L 108.251748 23.778114 L 109.090909 14.460831 L 109.930070 14.396614 L 110.769231 12.628435 L 111.608392 11.485531 L 112.447552 9.129100 L 113.286713 9.848573 L 114.125874 14.865335 L 114.965035 11.048304 L 115.804196 13.022124 L 116.643357 15.039084 L 117.482517 22.315975 L 118.321678 23.985305 L 119.160839 17.308899 L 120.000000 17.364428"></path>
      <path stroke="none" fill-opacity="0.6" fill="url(#color_grad)" d="M 0 40 L 0.000000 30.229953 L 0.839161 29.637988 L 1.678322 34.115683 L 2.517483 24.006683 L 3.356643 24.970250 L 4.195804 24.838860 L 5.034965 24.194743 L 5.874126 24.667262 L 6.713287 25.775030 L 7.552448 25.369624 L 8.391608 25.561578 L 9.230769 24.415345 L 10.069930 25.509738 L 10.909091 24.562417 L 11.748252 24.969541 L 12.587413 26.859137 L 13.426573 31.578763 L 14.265734 30.751272 L 15.104895 29.724544 L 15.944056 29.861666 L 16.783217 29.224808 L 17.622378 28.341788 L 18.461538 27.597260 L 19.300699 28.794047 L 20.139860 28.920642 L 20.979021 29.044221 L 21.818182 25.147760 L 22.657343 25.878649 L 23.496503 26.267436 L 24.335664 26.616436 L 25.174825 27.303404 L 26.013986 27.920328 L 26.853147 27.195687 L 27.692308 27.112808 L 28.531469 26.587800 L 29.370629 29.144380 L 30.209790 26.287757 L 31.048951 28.510381 L 31.888112 28.561897 L 32.727273 29.210640 L 33.566434 27.818414 L 34.405594 29.520538 L 35.244755 30.326831 L 36.083916 25.613009 L 36.923077 25.189278 L 37.762238 22.636255 L 38.601399 22.066461 L 39.440559 21.994698 L 40.279720 25.673477 L 41.118881 25.357992 L 41.958042 24.588649 L 42.797203 25.364505 L 43.636364 24.475717 L 44.475524 24.234110 L 45.314685 20.634520 L 46.153846 20.580842 L 46.993007 22.013468 L 47.832168 21.991597 L 48.671329 21.256226 L 49.510490 21.561269 L 50.349650 21.585146 L 51.188811 22.188574 L 52.027972 19.531463 L 52.867133 19.216110 L 53.706294 20.239401 L 54.545455 20.645600 L 55.384615 24.771711 L 56.223776 24.530885 L 57.062937 25.507767 L 57.902098 21.949551 L 58.741259 24.127714 L 59.580420 24.178353 L 60.419580 26.084519 L 61.258741 24.139647 L 62.097902 22.050912 L 62.937063 23.878525 L 63.776224 24.288161 L 64.615385 25.749603 L 65.454545 27.053602 L 66.293706 27.189559 L 67.132867 29.394447 L 67.972028 30.555713 L 68.811189 29.593010 L 69.650350 32.259662 L 70.489510 33.217078 L 71.328671 33.858431 L 72.167832 33.828245 L 73.006993 33.828245 L 73.846154 35.530236 L 74.685315 33.901919 L 75.524476 33.622291 L 76.363636 30.969951 L 77.202797 34.072796 L 78.041958 36.800000 L 78.881119 34.460273 L 79.720280 34.598080 L 80.559441 34.036253 L 81.398601 35.173762 L 82.237762 33.536432 L 83.076923 34.101203 L 83.916084 34.384075 L 84.755245 30.805527 L 85.594406 31.130794 L 86.433566 31.781075 L 87.272727 31.467813 L 88.111888 31.974447 L 88.951049 30.919000 L 89.790210 30.784245 L 90.629371 26.963141 L 91.468531 27.138584 L 92.307692 26.843551 L 93.146853 26.418834 L 93.986014 26.061867 L 94.825175 25.221855 L 95.664336 25.714466 L 96.503497 25.777013 L 97.342657 24.682872 L 98.181818 24.656928 L 99.020979 23.180153 L 99.860140 23.011415 L 100.699301 20.410974 L 101.538462 24.283294 L 102.377622 11.878187 L 103.216783 19.001901 L 104.055944 22.091949 L 104.895105 11.585173 L 105.734266 8.800000 L 106.573427 9.895198 L 107.412587 11.055767 L 108.251748 23.778114 L 109.090909 14.460831 L 109.930070 14.396614 L 110.769231 12.628435 L 111.608392 11.485531 L 112.447552 9.129100 L 113.286713 9.848573 L 114.125874 14.865335 L 114.965035 11.048304 L 115.804196 13.022124 L 116.643357 15.039084 L 117.482517 22.315975 L 118.321678 23.985305 L 119.160839 17.308899 L 120.000000 17.364428 L 120 40 Z"></path>
    </g>
  </svg>