<svg xmlns="http://www.w3.org/2000/svg" viewBox="0 0 120 40" width="120" height="40">
    <defs>
      <linearGradient id="color_grad" x1="0%" x2="0%" y1="0%" y2="100%">
        <stop offset="0%" style="stop-color:#EA3943;stop-opacity:0.4;"></stop>
        <stop offset="100%" style="stop-color:#EA3943;stop-opacity:0.0;"></stop>
      </linearGradient>
    </defs>
    <g>
      <path stroke="#EA3943" stroke-width="2" stroke-linecap="round" stroke-linejoin="round" fill="none" d="M 0.000000 29.318267 L 0.839161 21.012169 L 1.678322 30.389677 L 2.517483 25.268593 L 3.356643 29.182835 L 4.195804 26.520164 L 5.034965 24.138744 L 5.874126 24.322090 L 6.713287 25.704385 L 7.552448 25.255714 L 8.391608 23.570981 L 9.230769 22.649404 L 10.069930 21.094010 L 10.909091 23.593553 L 11.748252 20.715132 L 12.587413 20.948746 L 13.426573 20.543280 L 14.265734 18.875718 L 15.104895 18.000255 L 15.944056 18.475099 L 16.783217 17.741438 L 17.622378 16.720573 L 18.461538 15.866297 L 19.300699 16.708386 L 20.139860 18.804540 L 20.979021 18.963514 L 21.818182 18.698742 L 22.657343 17.998870 L 23.496503 16.417165 L 24.335664 16.728466 L 25.174825 17.674968 L 26.013986 22.456503 L 26.853147 16.445692 L 27.692308 16.873176 L 28.531469 17.501731 L 29.370629 17.253439 L 30.209790 16.551490 L 31.048951 19.114317 L 31.888112 19.313865 L 32.727273 20.997629 L 33.566434 18.921970 L 34.405594 24.547118 L 35.244755 25.446399 L 36.083916 22.655497 L 36.923077 22.178715 L 37.762238 19.364271 L 38.601399 18.158536 L 39.440559 18.068941 L 40.279720 21.231104 L 41.118881 17.875209 L 41.958042 20.438452 L 42.797203 17.326002 L 43.636364 18.119070 L 44.475524 22.715874 L 45.314685 17.610576 L 46.153846 14.536485 L 46.993007 22.202256 L 47.832168 22.188824 L 48.671329 21.378584 L 49.510490 21.718273 L 50.349650 21.747076 L 51.188811 22.412606 L 52.027972 19.521306 L 52.867133 19.185218 L 53.706294 20.293603 L 54.545455 15.026284 L 55.384615 13.744386 L 56.223776 13.459397 L 57.062937 14.588137 L 57.902098 12.271664 L 58.741259 14.675794 L 59.580420 16.201277 L 60.419580 13.575303 L 61.258741 8.800000 L 62.097902 9.926525 L 62.937063 10.237410 L 63.776224 13.621694 L 64.615385 13.427546 L 65.454545 13.926347 L 66.293706 16.422289 L 67.132867 14.430687 L 67.972028 13.796315 L 68.811189 17.869393 L 69.650350 20.962317 L 70.489510 21.238167 L 71.328671 19.731933 L 72.167832 19.694266 L 73.006993 19.694266 L 73.846154 23.650191 L 74.685315 18.746379 L 75.524476 19.320789 L 76.363636 13.694118 L 77.202797 14.750434 L 78.041958 22.418837 L 78.881119 13.151835 L 79.720280 13.337674 L 80.559441 13.978000 L 81.398601 17.348297 L 82.237762 15.379544 L 83.076923 16.065845 L 83.916084 12.619938 L 84.755245 9.020458 L 85.594406 15.572999 L 86.433566 17.330849 L 87.272727 16.848111 L 88.111888 17.422799 L 88.951049 16.168457 L 89.790210 16.027625 L 90.629371 16.167627 L 91.468531 15.713970 L 92.307692 15.363619 L 93.146853 11.449654 L 93.986014 11.040033 L 94.825175 10.744381 L 95.664336 10.491380 L 96.503497 10.622935 L 97.342657 10.718762 L 98.181818 10.703945 L 99.020979 10.228547 L 99.860140 11.450069 L 100.699301 11.485381 L 101.538462 14.443565 L 102.377622 17.838927 L 103.216783 21.682961 L 104.055944 23.166900 L 104.895105 19.286169 L 105.734266 16.019316 L 106.573427 17.702249 L 107.412587 21.597658 L 108.251748 23.223814 L 109.090909 36.800000 L 109.930070 22.135094 L 110.769231 22.663114 L 111.608392 21.926545 L 112.447552 21.619676 L 113.286713 21.974874 L 114.125874 19.986734 L 114.965035 29.550357 L 115.804196 32.142127 L 116.643357 32.878834 L 117.482517 32.251387 L 118.321678 34.241327 L 119.160839 33.327921 L 120.000000 35.536242"></path>
      <path stroke="none" fill-opacity="0.6" fill="url(#color_grad)" d="M 0 40 L 0.000000 29.318267 L 0.839161 21.012169 L 1.678322 30.389677 L 2.517483 25.268593 L 3.356643 29.182835 L 4.195804 26.520164 L 5.034965 24.138744 L 5.874126 24.322090 L 6.713287 25.704385 L 7.552448 25.255714 L 8.391608 23.570981 L 9.230769 22.649404 L 10.069930 21.094010 L 10.909091 23.593553 L 11.748252 20.715132 L 12.587413 20.948746 L 13.426573 20.543280 L 14.265734 18.875718 L 15.104895 18.000255 L 15.944056 18.475099 L 16.783217 17.741438 L 17.622378 16.720573 L 18.461538 15.866297 L 19.300699 16.708386 L 20.139860 18.804540 L 20.979021 18.963514 L 21.818182 18.698742 L 22.657343 17.998870 L 23.496503 16.417165 L 24.335664 16.728466 L 25.174825 17.674968 L 26.013986 22.456503 L 26.853147 16.445692 L 27.692308 16.873176 L 28.531469 17.501731 L 29.370629 17.253439 L 30.209790 16.551490 L 31.048951 19.114317 L 31.888112 19.313865 L 32.727273 20.997629 L 33.566434 18.921970 L 34.405594 24.547118 L 35.244755 25.446399 L 36.083916 22.655497 L 36.923077 22.178715 L 37.762238 19.364271 L 38.601399 18.158536 L 39.440559 18.068941 L 40.279720 21.231104 L 41.118881 17.875209 L 41.958042 20.438452 L 42.797203 17.326002 L 43.636364 18.119070 L 44.475524 22.715874 L 45.314685 17.610576 L 46.153846 14.536485 L 46.993007 22.202256 L 47.832168 22.188824 L 48.671329 21.378584 L 49.510490 21.718273 L 50.349650 21.747076 L 51.188811 22.412606 L 52.027972 19.521306 L 52.867133 19.185218 L 53.706294 20.293603 L 54.545455 15.026284 L 55.384615 13.744386 L 56.223776 13.459397 L 57.062937 14.588137 L 57.902098 12.271664 L 58.741259 14.675794 L 59.580420 16.201277 L 60.419580 13.575303 L 61.258741 8.800000 L 62.097902 9.926525 L 62.937063 10.237410 L 63.776224 13.621694 L 64.615385 13.427546 L 65.454545 13.926347 L 66.293706 16.422289 L 67.132867 14.430687 L 67.972028 13.796315 L 68.811189 17.869393 L 69.650350 20.962317 L 70.489510 21.238167 L 71.328671 19.731933 L 72.167832 19.694266 L 73.006993 19.694266 L 73.846154 23.650191 L 74.685315 18.746379 L 75.524476 19.320789 L 76.363636 13.694118 L 77.202797 14.750434 L 78.041958 22.418837 L 78.881119 13.151835 L 79.720280 13.337674 L 80.559441 13.978000 L 81.398601 17.348297 L 82.237762 15.379544 L 83.076923 16.065845 L 83.916084 12.619938 L 84.755245 9.020458 L 85.594406 15.572999 L 86.433566 17.330849 L 87.272727 16.848111 L 88.111888 17.422799 L 88.951049 16.168457 L 89.790210 16.027625 L 90.629371 16.167627 L 91.468531 15.713970 L 92.307692 15.363619 L 93.146853 11.449654 L 93.986014 11.040033 L 94.825175 10.744381 L 95.664336 10.491380 L 96.503497 10.622935 L 97.342657 10.718762 L 98.181818 10.703945 L 99.020979 10.228547 L 99.860140 11.450069 L 100.699301 11.485381 L 101.538462 14.443565 L 102.377622 17.838927 L 103.216783 21.682961 L 104.055944 23.166900 L 104.895105 19.286169 L 105.734266 16.019316 L 106.573427 17.702249 L 107.412587 21.597658 L 108.251748 23.223814 L 109.090909 36.800000 L 109.930070 22.135094 L 110.769231 22.663114 L 111.608392 21.926545 L 112.447552 21.619676 L 113.286713 21.974874 L 114.125874 19.986734 L 114.965035 29.550357 L 115.804196 32.142127 L 116.643357 32.878834 L 117.482517 32.251387 L 118.321678 34.241327 L 119.160839 33.327921 L 120.000000 35.536242 L 120 40 Z"></path>
    </g>
  </svg>