<svg xmlns="http://www.w3.org/2000/svg" viewBox="0 0 120 40" width="120" height="40">
    <defs>
      <linearGradient id="color_grad" x1="0%" x2="0%" y1="0%" y2="100%">
        <stop offset="0%" style="stop-color:#EA3943;stop-opacity:0.4;"></stop>
        <stop offset="100%" style="stop-color:#EA3943;stop-opacity:0.0;"></stop>
      </linearGradient>
    </defs>
    <g>
      <path stroke="#EA3943" stroke-width="2" stroke-linecap="round" stroke-linejoin="round" fill="none" d="M 0.000000 19.600149 L 0.839161 13.135257 L 1.678322 20.151748 L 2.517483 15.418799 L 3.356643 17.899065 L 4.195804 15.738958 L 5.034965 14.277028 L 5.874126 14.066804 L 6.713287 14.084162 L 7.552448 14.084162 L 8.391608 12.429365 L 9.230769 12.726380 L 10.069930 10.333290 L 10.909091 13.402185 L 11.748252 10.513813 L 12.587413 10.333290 L 13.426573 9.726532 L 14.265734 9.119773 L 15.104895 9.405216 L 15.944056 9.671372 L 16.783217 9.671372 L 17.622378 9.671372 L 18.461538 9.671372 L 19.300699 10.222970 L 20.139860 11.877767 L 20.979021 11.877767 L 21.818182 12.078348 L 22.657343 11.449603 L 23.496503 9.726917 L 24.335664 9.671372 L 25.174825 9.800978 L 26.013986 13.236320 L 26.853147 8.800000 L 27.692308 9.247065 L 28.531469 10.333290 L 29.370629 10.333290 L 30.209790 10.333290 L 31.048951 10.333290 L 31.888112 10.472154 L 32.727273 11.326168 L 33.566434 10.940049 L 34.405594 16.180237 L 35.244755 16.180237 L 36.083916 16.180237 L 36.923077 16.180237 L 37.762238 16.180237 L 38.601399 16.180237 L 39.440559 16.180237 L 40.279720 17.045822 L 41.118881 14.554756 L 41.958042 17.401469 L 42.797203 14.084162 L 43.636364 15.588522 L 44.475524 19.600149 L 45.314685 16.552855 L 46.153846 14.084162 L 46.993007 19.103710 L 47.832168 19.103710 L 48.671329 19.103710 L 49.510490 19.103710 L 50.349650 19.103710 L 51.188811 19.103710 L 52.027972 19.103710 L 52.867133 19.103710 L 53.706294 19.103710 L 54.545455 14.415121 L 55.384615 14.415121 L 56.223776 14.415121 L 57.062937 14.415121 L 57.902098 12.098406 L 58.741259 13.013751 L 59.580420 14.277028 L 60.419580 14.107306 L 61.258741 12.098406 L 62.097902 12.098406 L 62.937063 12.429365 L 63.776224 14.790054 L 64.615385 13.256763 L 65.454545 12.429365 L 66.293706 14.527755 L 67.132867 13.709229 L 67.972028 12.279701 L 68.811189 16.180237 L 69.650350 16.180237 L 70.489510 16.180237 L 71.328671 16.180237 L 72.167832 16.180237 L 73.006993 16.180237 L 73.846154 17.881707 L 74.685315 15.434228 L 75.524476 16.180237 L 76.363636 14.084162 L 77.202797 12.449423 L 78.041958 16.146292 L 78.881119 11.326168 L 79.720280 11.326168 L 80.559441 12.429365 L 81.398601 14.084162 L 82.237762 14.084162 L 83.076923 14.084162 L 83.916084 10.984022 L 84.755245 11.613539 L 85.594406 16.583714 L 86.433566 17.393754 L 87.272727 17.393754 L 88.111888 17.393754 L 88.951049 17.393754 L 89.790210 17.393754 L 90.629371 17.335894 L 91.468531 16.842155 L 92.307692 16.842155 L 93.146853 14.084162 L 93.986014 14.084162 L 94.825175 14.635760 L 95.664336 14.084162 L 96.503497 14.130450 L 97.342657 15.187359 L 98.181818 15.197388 L 99.020979 16.180237 L 99.860140 17.315836 L 100.699301 19.673438 L 101.538462 18.539382 L 102.377622 21.254945 L 103.216783 24.444960 L 104.055944 24.927127 L 104.895105 22.643585 L 105.734266 22.358142 L 106.573427 22.778592 L 107.412587 25.116136 L 108.251748 27.874130 L 109.090909 36.800000 L 109.930070 26.022609 L 110.769231 27.874130 L 111.608392 28.205860 L 112.447552 29.814369 L 113.286713 29.528926 L 114.125874 27.874130 L 114.965035 34.512601 L 115.804196 36.148111 L 116.643357 36.148111 L 117.482517 36.468269 L 118.321678 36.699709 L 119.160839 36.148111 L 120.000000 36.699709"></path>
      <path stroke="none" fill-opacity="0.6" fill="url(#color_grad)" d="M 0 40 L 0.000000 19.600149 L 0.839161 13.135257 L 1.678322 20.151748 L 2.517483 15.418799 L 3.356643 17.899065 L 4.195804 15.738958 L 5.034965 14.277028 L 5.874126 14.066804 L 6.713287 14.084162 L 7.552448 14.084162 L 8.391608 12.429365 L 9.230769 12.726380 L 10.069930 10.333290 L 10.909091 13.402185 L 11.748252 10.513813 L 12.587413 10.333290 L 13.426573 9.726532 L 14.265734 9.119773 L 15.104895 9.405216 L 15.944056 9.671372 L 16.783217 9.671372 L 17.622378 9.671372 L 18.461538 9.671372 L 19.300699 10.222970 L 20.139860 11.877767 L 20.979021 11.877767 L 21.818182 12.078348 L 22.657343 11.449603 L 23.496503 9.726917 L 24.335664 9.671372 L 25.174825 9.800978 L 26.013986 13.236320 L 26.853147 8.800000 L 27.692308 9.247065 L 28.531469 10.333290 L 29.370629 10.333290 L 30.209790 10.333290 L 31.048951 10.333290 L 31.888112 10.472154 L 32.727273 11.326168 L 33.566434 10.940049 L 34.405594 16.180237 L 35.244755 16.180237 L 36.083916 16.180237 L 36.923077 16.180237 L 37.762238 16.180237 L 38.601399 16.180237 L 39.440559 16.180237 L 40.279720 17.045822 L 41.118881 14.554756 L 41.958042 17.401469 L 42.797203 14.084162 L 43.636364 15.588522 L 44.475524 19.600149 L 45.314685 16.552855 L 46.153846 14.084162 L 46.993007 19.103710 L 47.832168 19.103710 L 48.671329 19.103710 L 49.510490 19.103710 L 50.349650 19.103710 L 51.188811 19.103710 L 52.027972 19.103710 L 52.867133 19.103710 L 53.706294 19.103710 L 54.545455 14.415121 L 55.384615 14.415121 L 56.223776 14.415121 L 57.062937 14.415121 L 57.902098 12.098406 L 58.741259 13.013751 L 59.580420 14.277028 L 60.419580 14.107306 L 61.258741 12.098406 L 62.097902 12.098406 L 62.937063 12.429365 L 63.776224 14.790054 L 64.615385 13.256763 L 65.454545 12.429365 L 66.293706 14.527755 L 67.132867 13.709229 L 67.972028 12.279701 L 68.811189 16.180237 L 69.650350 16.180237 L 70.489510 16.180237 L 71.328671 16.180237 L 72.167832 16.180237 L 73.006993 16.180237 L 73.846154 17.881707 L 74.685315 15.434228 L 75.524476 16.180237 L 76.363636 14.084162 L 77.202797 12.449423 L 78.041958 16.146292 L 78.881119 11.326168 L 79.720280 11.326168 L 80.559441 12.429365 L 81.398601 14.084162 L 82.237762 14.084162 L 83.076923 14.084162 L 83.916084 10.984022 L 84.755245 11.613539 L 85.594406 16.583714 L 86.433566 17.393754 L 87.272727 17.393754 L 88.111888 17.393754 L 88.951049 17.393754 L 89.790210 17.393754 L 90.629371 17.335894 L 91.468531 16.842155 L 92.307692 16.842155 L 93.146853 14.084162 L 93.986014 14.084162 L 94.825175 14.635760 L 95.664336 14.084162 L 96.503497 14.130450 L 97.342657 15.187359 L 98.181818 15.197388 L 99.020979 16.180237 L 99.860140 17.315836 L 100.699301 19.673438 L 101.538462 18.539382 L 102.377622 21.254945 L 103.216783 24.444960 L 104.055944 24.927127 L 104.895105 22.643585 L 105.734266 22.358142 L 106.573427 22.778592 L 107.412587 25.116136 L 108.251748 27.874130 L 109.090909 36.800000 L 109.930070 26.022609 L 110.769231 27.874130 L 111.608392 28.205860 L 112.447552 29.814369 L 113.286713 29.528926 L 114.125874 27.874130 L 114.965035 34.512601 L 115.804196 36.148111 L 116.643357 36.148111 L 117.482517 36.468269 L 118.321678 36.699709 L 119.160839 36.148111 L 120.000000 36.699709 L 120 40 Z"></path>
    </g>
  </svg>