<svg xmlns="http://www.w3.org/2000/svg" viewBox="0 0 120 40" width="120" height="40">
    <defs>
      <linearGradient id="color_grad" x1="0%" x2="0%" y1="0%" y2="100%">
        <stop offset="0%" style="stop-color:#EA3943;stop-opacity:0.4;"></stop>
        <stop offset="100%" style="stop-color:#EA3943;stop-opacity:0.0;"></stop>
      </linearGradient>
    </defs>
    <g>
      <path stroke="#EA3943" stroke-width="2" stroke-linecap="round" stroke-linejoin="round" fill="none" d="M 0.000000 32.088741 L 0.839161 32.088741 L 1.678322 31.809555 L 2.517483 30.897549 L 3.356643 30.757956 L 4.195804 30.990611 L 5.034965 30.757956 L 5.874126 30.757956 L 6.713287 30.757956 L 7.552448 30.757956 L 8.391608 30.757956 L 9.230769 30.757956 L 10.069930 30.757956 L 10.909091 30.757956 L 11.748252 30.757956 L 12.587413 30.425260 L 13.426573 30.425260 L 14.265734 30.425260 L 15.104895 31.227919 L 15.944056 30.425260 L 16.783217 30.425260 L 17.622378 30.425260 L 18.461538 30.399668 L 19.300699 30.092563 L 20.139860 29.855256 L 20.979021 29.757541 L 21.818182 30.425260 L 22.657343 29.168924 L 23.496503 29.427171 L 24.335664 30.092563 L 25.174825 30.092563 L 26.013986 29.759867 L 26.853147 29.601662 L 27.692308 29.094474 L 28.531469 29.094474 L 29.370629 29.094474 L 30.209790 30.425260 L 31.048951 29.759867 L 31.888112 30.320565 L 32.727273 30.243789 L 33.566434 30.029747 L 34.405594 30.425260 L 35.244755 30.134441 L 36.083916 30.092563 L 36.923077 29.427171 L 37.762238 29.897133 L 38.601399 29.427171 L 39.440559 29.427171 L 40.279720 29.427171 L 41.118881 29.427171 L 41.958042 29.094474 L 42.797203 29.138679 L 43.636364 29.003739 L 44.475524 29.231741 L 45.314685 29.759867 L 46.153846 29.759867 L 46.993007 29.759867 L 47.832168 29.094474 L 48.671329 28.799003 L 49.510490 29.178230 L 50.349650 28.761778 L 51.188811 28.761778 L 52.027972 28.096386 L 52.867133 28.429082 L 53.706294 28.096386 L 54.545455 27.430993 L 55.384615 27.430993 L 56.223776 28.429082 L 57.062937 28.591940 L 57.902098 27.896302 L 58.741259 28.885085 L 59.580420 29.094474 L 60.419580 27.856751 L 61.258741 29.410885 L 62.097902 28.080100 L 62.937063 28.245285 L 63.776224 29.094474 L 64.615385 28.326714 L 65.454545 27.763689 L 66.293706 27.114582 L 67.132867 27.430993 L 67.972028 27.098297 L 68.811189 27.430993 L 69.650350 26.432904 L 70.489510 26.100208 L 71.328671 25.804736 L 72.167832 25.767511 L 73.006993 25.767511 L 73.846154 26.535272 L 74.685315 26.914499 L 75.524476 27.430993 L 76.363636 26.826091 L 77.202797 27.098297 L 78.041958 27.756710 L 78.881119 27.382135 L 79.720280 27.098297 L 80.559441 28.429082 L 81.398601 29.050270 L 82.237762 28.761778 L 83.076923 28.761778 L 83.916084 28.761778 L 84.755245 28.887412 L 85.594406 28.850187 L 86.433566 29.094474 L 87.272727 29.094474 L 88.111888 28.761778 L 88.951049 28.761778 L 89.790210 28.761778 L 90.629371 29.094474 L 91.468531 29.427171 L 92.307692 29.427171 L 93.146853 29.443457 L 93.986014 29.980889 L 94.825175 30.823099 L 95.664336 30.757956 L 96.503497 30.757956 L 97.342657 30.534607 L 98.181818 29.427171 L 99.020979 29.427171 L 99.860140 29.427171 L 100.699301 29.687744 L 101.538462 30.066971 L 102.377622 30.113502 L 103.216783 30.425260 L 104.055944 31.756045 L 104.895105 31.767678 L 105.734266 30.173993 L 106.573427 31.090652 L 107.412587 31.090652 L 108.251748 8.800000 L 109.090909 33.086830 L 109.930070 33.086830 L 110.769231 33.905775 L 111.608392 35.083008 L 112.447552 34.182634 L 113.286713 35.257499 L 114.125874 35.762360 L 114.965035 36.800000 L 115.804196 36.746489 L 116.643357 35.308683 L 117.482517 35.136518 L 118.321678 35.748400 L 119.160839 35.276111 L 120.000000 36.746489"></path>
      <path stroke="none" fill-opacity="0.6" fill="url(#color_grad)" d="M 0 40 L 0.000000 32.088741 L 0.839161 32.088741 L 1.678322 31.809555 L 2.517483 30.897549 L 3.356643 30.757956 L 4.195804 30.990611 L 5.034965 30.757956 L 5.874126 30.757956 L 6.713287 30.757956 L 7.552448 30.757956 L 8.391608 30.757956 L 9.230769 30.757956 L 10.069930 30.757956 L 10.909091 30.757956 L 11.748252 30.757956 L 12.587413 30.425260 L 13.426573 30.425260 L 14.265734 30.425260 L 15.104895 31.227919 L 15.944056 30.425260 L 16.783217 30.425260 L 17.622378 30.425260 L 18.461538 30.399668 L 19.300699 30.092563 L 20.139860 29.855256 L 20.979021 29.757541 L 21.818182 30.425260 L 22.657343 29.168924 L 23.496503 29.427171 L 24.335664 30.092563 L 25.174825 30.092563 L 26.013986 29.759867 L 26.853147 29.601662 L 27.692308 29.094474 L 28.531469 29.094474 L 29.370629 29.094474 L 30.209790 30.425260 L 31.048951 29.759867 L 31.888112 30.320565 L 32.727273 30.243789 L 33.566434 30.029747 L 34.405594 30.425260 L 35.244755 30.134441 L 36.083916 30.092563 L 36.923077 29.427171 L 37.762238 29.897133 L 38.601399 29.427171 L 39.440559 29.427171 L 40.279720 29.427171 L 41.118881 29.427171 L 41.958042 29.094474 L 42.797203 29.138679 L 43.636364 29.003739 L 44.475524 29.231741 L 45.314685 29.759867 L 46.153846 29.759867 L 46.993007 29.759867 L 47.832168 29.094474 L 48.671329 28.799003 L 49.510490 29.178230 L 50.349650 28.761778 L 51.188811 28.761778 L 52.027972 28.096386 L 52.867133 28.429082 L 53.706294 28.096386 L 54.545455 27.430993 L 55.384615 27.430993 L 56.223776 28.429082 L 57.062937 28.591940 L 57.902098 27.896302 L 58.741259 28.885085 L 59.580420 29.094474 L 60.419580 27.856751 L 61.258741 29.410885 L 62.097902 28.080100 L 62.937063 28.245285 L 63.776224 29.094474 L 64.615385 28.326714 L 65.454545 27.763689 L 66.293706 27.114582 L 67.132867 27.430993 L 67.972028 27.098297 L 68.811189 27.430993 L 69.650350 26.432904 L 70.489510 26.100208 L 71.328671 25.804736 L 72.167832 25.767511 L 73.006993 25.767511 L 73.846154 26.535272 L 74.685315 26.914499 L 75.524476 27.430993 L 76.363636 26.826091 L 77.202797 27.098297 L 78.041958 27.756710 L 78.881119 27.382135 L 79.720280 27.098297 L 80.559441 28.429082 L 81.398601 29.050270 L 82.237762 28.761778 L 83.076923 28.761778 L 83.916084 28.761778 L 84.755245 28.887412 L 85.594406 28.850187 L 86.433566 29.094474 L 87.272727 29.094474 L 88.111888 28.761778 L 88.951049 28.761778 L 89.790210 28.761778 L 90.629371 29.094474 L 91.468531 29.427171 L 92.307692 29.427171 L 93.146853 29.443457 L 93.986014 29.980889 L 94.825175 30.823099 L 95.664336 30.757956 L 96.503497 30.757956 L 97.342657 30.534607 L 98.181818 29.427171 L 99.020979 29.427171 L 99.860140 29.427171 L 100.699301 29.687744 L 101.538462 30.066971 L 102.377622 30.113502 L 103.216783 30.425260 L 104.055944 31.756045 L 104.895105 31.767678 L 105.734266 30.173993 L 106.573427 31.090652 L 107.412587 31.090652 L 108.251748 8.800000 L 109.090909 33.086830 L 109.930070 33.086830 L 110.769231 33.905775 L 111.608392 35.083008 L 112.447552 34.182634 L 113.286713 35.257499 L 114.125874 35.762360 L 114.965035 36.800000 L 115.804196 36.746489 L 116.643357 35.308683 L 117.482517 35.136518 L 118.321678 35.748400 L 119.160839 35.276111 L 120.000000 36.746489 L 120 40 Z"></path>
    </g>
  </svg>