<svg xmlns="http://www.w3.org/2000/svg" viewBox="0 0 120 40" width="120" height="40">
    <defs>
      <linearGradient id="color_grad" x1="0%" x2="0%" y1="0%" y2="100%">
        <stop offset="0%" style="stop-color:#EA3943;stop-opacity:0.4;"></stop>
        <stop offset="100%" style="stop-color:#EA3943;stop-opacity:0.0;"></stop>
      </linearGradient>
    </defs>
    <g>
      <path stroke="#EA3943" stroke-width="2" stroke-linecap="round" stroke-linejoin="round" fill="none" d="M 0.000000 35.571608 L 0.839161 35.416204 L 1.678322 35.412104 L 2.517483 34.669316 L 3.356643 34.767973 L 4.195804 34.942314 L 5.034965 34.583350 L 5.874126 34.676865 L 6.713287 34.966067 L 7.552448 34.876391 L 8.391608 34.920058 L 9.230769 34.650314 L 10.069930 34.909580 L 10.909091 34.687538 L 11.748252 34.777409 L 12.587413 34.576582 L 13.426573 34.636648 L 14.265734 34.432957 L 15.104895 34.907303 L 15.944056 34.215079 L 16.783217 34.057398 L 17.622378 33.834379 L 18.461538 33.638107 L 19.300699 33.396021 L 20.139860 33.209511 L 20.979021 33.154976 L 21.818182 33.656264 L 22.657343 32.513513 L 23.496503 32.846446 L 24.335664 33.538800 L 25.174825 33.712230 L 26.013986 33.570948 L 26.853147 33.250704 L 27.692308 32.765491 L 28.531469 32.620629 L 29.370629 32.569219 L 30.209790 33.641166 L 31.048951 33.582401 L 31.888112 34.101976 L 32.727273 34.179938 L 33.566434 33.639344 L 34.405594 33.882862 L 35.244755 33.817589 L 36.083916 33.150095 L 36.923077 32.436201 L 37.762238 32.242142 L 38.601399 31.523562 L 39.440559 31.506512 L 40.279720 31.976693 L 41.118881 31.903612 L 41.958042 31.393669 L 42.797203 31.632566 L 43.636364 31.278157 L 44.475524 31.430698 L 45.314685 31.612653 L 46.153846 31.598661 L 46.993007 31.957691 L 47.832168 31.318765 L 48.671329 30.860168 L 49.510490 31.288895 L 50.349650 30.907740 L 51.188811 31.057286 L 52.027972 29.747288 L 52.867133 29.987617 L 53.706294 29.928527 L 54.545455 29.402575 L 55.384615 29.101790 L 56.223776 29.990415 L 57.062937 30.408795 L 57.902098 29.865272 L 58.741259 31.092168 L 59.580420 31.290197 L 60.419580 29.558825 L 61.258741 30.539274 L 62.097902 29.505787 L 62.937063 29.647460 L 63.776224 30.565305 L 64.615385 30.219941 L 65.454545 30.024385 L 66.293706 29.395482 L 67.132867 29.468824 L 67.972028 29.411035 L 68.811189 29.570994 L 69.650350 29.369321 L 70.489510 29.127039 L 71.328671 28.486943 L 72.167832 28.443211 L 73.006993 28.443211 L 73.846154 29.627221 L 74.685315 29.508781 L 75.524476 29.907637 L 76.363636 28.609873 L 77.202797 29.585051 L 78.041958 30.956938 L 78.881119 29.799479 L 79.720280 29.569237 L 80.559441 30.656933 L 81.398601 31.554344 L 82.237762 30.835374 L 83.076923 30.988760 L 83.916084 31.076940 L 84.755245 30.220072 L 85.594406 30.273760 L 86.433566 30.682443 L 87.272727 30.570901 L 88.111888 30.383154 L 88.951049 30.094798 L 89.790210 30.057054 L 90.629371 30.423437 L 91.468531 30.779017 L 92.307692 30.700274 L 93.146853 30.607019 L 93.986014 31.035616 L 94.825175 31.635820 L 95.664336 31.665105 L 96.503497 31.683131 L 97.342657 31.202343 L 98.181818 30.112369 L 99.020979 29.722754 L 99.860140 29.682146 L 100.699301 29.258820 L 101.538462 30.643007 L 102.377622 30.675610 L 103.216783 30.950300 L 104.055944 32.451234 L 104.895105 32.224831 L 105.734266 29.993474 L 106.573427 31.165054 L 107.412587 31.388658 L 108.251748 8.800000 L 109.090909 33.456608 L 109.930070 33.212829 L 110.769231 33.615916 L 111.608392 34.538121 L 112.447552 33.112611 L 113.286713 34.356296 L 114.125874 34.896435 L 114.965035 36.159578 L 115.804196 36.210013 L 116.643357 34.931381 L 117.482517 34.530377 L 118.321678 35.516553 L 119.160839 35.003161 L 120.000000 36.800000"></path>
      <path stroke="none" fill-opacity="0.6" fill="url(#color_grad)" d="M 0 40 L 0.000000 35.571608 L 0.839161 35.416204 L 1.678322 35.412104 L 2.517483 34.669316 L 3.356643 34.767973 L 4.195804 34.942314 L 5.034965 34.583350 L 5.874126 34.676865 L 6.713287 34.966067 L 7.552448 34.876391 L 8.391608 34.920058 L 9.230769 34.650314 L 10.069930 34.909580 L 10.909091 34.687538 L 11.748252 34.777409 L 12.587413 34.576582 L 13.426573 34.636648 L 14.265734 34.432957 L 15.104895 34.907303 L 15.944056 34.215079 L 16.783217 34.057398 L 17.622378 33.834379 L 18.461538 33.638107 L 19.300699 33.396021 L 20.139860 33.209511 L 20.979021 33.154976 L 21.818182 33.656264 L 22.657343 32.513513 L 23.496503 32.846446 L 24.335664 33.538800 L 25.174825 33.712230 L 26.013986 33.570948 L 26.853147 33.250704 L 27.692308 32.765491 L 28.531469 32.620629 L 29.370629 32.569219 L 30.209790 33.641166 L 31.048951 33.582401 L 31.888112 34.101976 L 32.727273 34.179938 L 33.566434 33.639344 L 34.405594 33.882862 L 35.244755 33.817589 L 36.083916 33.150095 L 36.923077 32.436201 L 37.762238 32.242142 L 38.601399 31.523562 L 39.440559 31.506512 L 40.279720 31.976693 L 41.118881 31.903612 L 41.958042 31.393669 L 42.797203 31.632566 L 43.636364 31.278157 L 44.475524 31.430698 L 45.314685 31.612653 L 46.153846 31.598661 L 46.993007 31.957691 L 47.832168 31.318765 L 48.671329 30.860168 L 49.510490 31.288895 L 50.349650 30.907740 L 51.188811 31.057286 L 52.027972 29.747288 L 52.867133 29.987617 L 53.706294 29.928527 L 54.545455 29.402575 L 55.384615 29.101790 L 56.223776 29.990415 L 57.062937 30.408795 L 57.902098 29.865272 L 58.741259 31.092168 L 59.580420 31.290197 L 60.419580 29.558825 L 61.258741 30.539274 L 62.097902 29.505787 L 62.937063 29.647460 L 63.776224 30.565305 L 64.615385 30.219941 L 65.454545 30.024385 L 66.293706 29.395482 L 67.132867 29.468824 L 67.972028 29.411035 L 68.811189 29.570994 L 69.650350 29.369321 L 70.489510 29.127039 L 71.328671 28.486943 L 72.167832 28.443211 L 73.006993 28.443211 L 73.846154 29.627221 L 74.685315 29.508781 L 75.524476 29.907637 L 76.363636 28.609873 L 77.202797 29.585051 L 78.041958 30.956938 L 78.881119 29.799479 L 79.720280 29.569237 L 80.559441 30.656933 L 81.398601 31.554344 L 82.237762 30.835374 L 83.076923 30.988760 L 83.916084 31.076940 L 84.755245 30.220072 L 85.594406 30.273760 L 86.433566 30.682443 L 87.272727 30.570901 L 88.111888 30.383154 L 88.951049 30.094798 L 89.790210 30.057054 L 90.629371 30.423437 L 91.468531 30.779017 L 92.307692 30.700274 L 93.146853 30.607019 L 93.986014 31.035616 L 94.825175 31.635820 L 95.664336 31.665105 L 96.503497 31.683131 L 97.342657 31.202343 L 98.181818 30.112369 L 99.020979 29.722754 L 99.860140 29.682146 L 100.699301 29.258820 L 101.538462 30.643007 L 102.377622 30.675610 L 103.216783 30.950300 L 104.055944 32.451234 L 104.895105 32.224831 L 105.734266 29.993474 L 106.573427 31.165054 L 107.412587 31.388658 L 108.251748 8.800000 L 109.090909 33.456608 L 109.930070 33.212829 L 110.769231 33.615916 L 111.608392 34.538121 L 112.447552 33.112611 L 113.286713 34.356296 L 114.125874 34.896435 L 114.965035 36.159578 L 115.804196 36.210013 L 116.643357 34.931381 L 117.482517 34.530377 L 118.321678 35.516553 L 119.160839 35.003161 L 120.000000 36.800000 L 120 40 Z"></path>
    </g>
  </svg>