<svg xmlns="http://www.w3.org/2000/svg" viewBox="0 0 120 40" width="120" height="40">
    <defs>
      <linearGradient id="color_grad" x1="0%" x2="0%" y1="0%" y2="100%">
        <stop offset="0%" style="stop-color:#16C784;stop-opacity:0.4;"></stop>
        <stop offset="100%" style="stop-color:#16C784;stop-opacity:0.0;"></stop>
      </linearGradient>
    </defs>
    <g>
      <path stroke="#16C784" stroke-width="2" stroke-linecap="round" stroke-linejoin="round" fill="none" d="M 0.000000 33.142368 L 0.839161 33.142368 L 1.678322 33.142368 L 2.517483 36.561422 L 3.356643 33.142368 L 4.195804 33.142368 L 5.034965 33.187067 L 5.874126 33.195634 L 6.713287 33.195634 L 7.552448 33.188743 L 8.391608 33.169001 L 9.230769 33.169001 L 10.069930 33.169001 L 10.909091 33.169001 L 11.748252 33.169001 L 12.587413 33.169001 L 13.426573 33.169001 L 14.265734 33.169001 L 15.104895 33.169001 L 15.944056 33.169001 L 16.783217 33.169001 L 17.622378 33.169001 L 18.461538 33.169001 L 19.300699 33.391934 L 20.139860 34.101149 L 20.979021 34.114372 L 21.818182 34.926765 L 22.657343 34.980031 L 23.496503 36.681549 L 24.335664 36.764428 L 25.174825 35.779201 L 26.013986 36.800000 L 26.853147 35.539319 L 27.692308 26.154334 L 28.531469 26.164578 L 29.370629 30.132863 L 30.209790 30.132863 L 31.048951 30.137519 L 31.888112 30.141244 L 32.727273 30.159496 L 33.566434 31.491135 L 34.405594 31.491135 L 35.244755 27.975794 L 36.083916 27.525085 L 36.923077 31.491135 L 37.762238 31.491135 L 38.601399 27.522850 L 39.440559 27.522850 L 40.279720 29.631496 L 41.118881 30.479090 L 41.958042 27.629381 L 42.797203 27.629381 L 43.636364 27.602748 L 44.475524 27.602748 L 45.314685 27.602748 L 46.153846 27.602748 L 46.993007 27.602748 L 47.832168 27.602748 L 48.671329 27.602748 L 49.510490 27.602748 L 50.349650 27.602748 L 51.188811 27.602748 L 52.027972 27.602748 L 52.867133 27.602748 L 53.706294 27.602748 L 54.545455 27.602748 L 55.384615 27.602748 L 56.223776 27.602748 L 57.062937 27.668492 L 57.902098 27.629381 L 58.741259 27.629381 L 59.580420 27.629381 L 60.419580 27.629381 L 61.258741 27.656014 L 62.097902 27.656014 L 62.937063 27.656014 L 63.776224 27.656014 L 64.615385 27.703134 L 65.454545 27.709280 L 66.293706 27.709280 L 67.132867 27.709280 L 67.972028 27.975607 L 68.811189 27.975607 L 69.650350 27.975607 L 70.489510 28.002240 L 71.328671 28.002240 L 72.167832 28.002240 L 73.006993 28.002240 L 73.846154 35.440983 L 74.685315 35.459421 L 75.524476 35.459421 L 76.363636 35.432788 L 77.202797 28.534896 L 78.041958 28.534896 L 78.881119 28.534896 L 79.720280 28.534896 L 80.559441 30.132863 L 81.398601 30.132863 L 82.237762 30.132863 L 83.076923 30.132863 L 83.916084 30.132863 L 84.755245 30.136216 L 85.594406 30.159496 L 86.433566 23.689032 L 87.272727 14.206456 L 88.111888 14.206456 L 88.951049 14.206456 L 89.790210 14.206456 L 90.629371 14.206456 L 91.468531 14.206456 L 92.307692 14.206456 L 93.146853 19.453115 L 93.986014 20.337771 L 94.825175 22.143027 L 95.664336 22.143027 L 96.503497 22.143027 L 97.342657 22.143027 L 98.181818 16.124017 L 99.020979 22.161651 L 99.860140 16.333913 L 100.699301 24.517629 L 101.538462 24.601438 L 102.377622 26.137945 L 103.216783 22.218269 L 104.055944 22.693934 L 104.895105 24.373849 L 105.734266 24.832938 L 106.573427 23.937667 L 107.412587 24.140486 L 108.251748 8.800000 L 109.090909 25.731190 L 109.930070 24.140486 L 110.769231 24.140486 L 111.608392 24.140486 L 112.447552 24.806306 L 113.286713 24.806306 L 114.125874 22.706785 L 114.965035 22.915378 L 115.804196 22.915378 L 116.643357 22.915378 L 117.482517 18.559148 L 118.321678 19.453115 L 119.160839 19.453115 L 120.000000 19.453115"></path>
      <path stroke="none" fill-opacity="0.6" fill="url(#color_grad)" d="M 0 40 L 0.000000 33.142368 L 0.839161 33.142368 L 1.678322 33.142368 L 2.517483 36.561422 L 3.356643 33.142368 L 4.195804 33.142368 L 5.034965 33.187067 L 5.874126 33.195634 L 6.713287 33.195634 L 7.552448 33.188743 L 8.391608 33.169001 L 9.230769 33.169001 L 10.069930 33.169001 L 10.909091 33.169001 L 11.748252 33.169001 L 12.587413 33.169001 L 13.426573 33.169001 L 14.265734 33.169001 L 15.104895 33.169001 L 15.944056 33.169001 L 16.783217 33.169001 L 17.622378 33.169001 L 18.461538 33.169001 L 19.300699 33.391934 L 20.139860 34.101149 L 20.979021 34.114372 L 21.818182 34.926765 L 22.657343 34.980031 L 23.496503 36.681549 L 24.335664 36.764428 L 25.174825 35.779201 L 26.013986 36.800000 L 26.853147 35.539319 L 27.692308 26.154334 L 28.531469 26.164578 L 29.370629 30.132863 L 30.209790 30.132863 L 31.048951 30.137519 L 31.888112 30.141244 L 32.727273 30.159496 L 33.566434 31.491135 L 34.405594 31.491135 L 35.244755 27.975794 L 36.083916 27.525085 L 36.923077 31.491135 L 37.762238 31.491135 L 38.601399 27.522850 L 39.440559 27.522850 L 40.279720 29.631496 L 41.118881 30.479090 L 41.958042 27.629381 L 42.797203 27.629381 L 43.636364 27.602748 L 44.475524 27.602748 L 45.314685 27.602748 L 46.153846 27.602748 L 46.993007 27.602748 L 47.832168 27.602748 L 48.671329 27.602748 L 49.510490 27.602748 L 50.349650 27.602748 L 51.188811 27.602748 L 52.027972 27.602748 L 52.867133 27.602748 L 53.706294 27.602748 L 54.545455 27.602748 L 55.384615 27.602748 L 56.223776 27.602748 L 57.062937 27.668492 L 57.902098 27.629381 L 58.741259 27.629381 L 59.580420 27.629381 L 60.419580 27.629381 L 61.258741 27.656014 L 62.097902 27.656014 L 62.937063 27.656014 L 63.776224 27.656014 L 64.615385 27.703134 L 65.454545 27.709280 L 66.293706 27.709280 L 67.132867 27.709280 L 67.972028 27.975607 L 68.811189 27.975607 L 69.650350 27.975607 L 70.489510 28.002240 L 71.328671 28.002240 L 72.167832 28.002240 L 73.006993 28.002240 L 73.846154 35.440983 L 74.685315 35.459421 L 75.524476 35.459421 L 76.363636 35.432788 L 77.202797 28.534896 L 78.041958 28.534896 L 78.881119 28.534896 L 79.720280 28.534896 L 80.559441 30.132863 L 81.398601 30.132863 L 82.237762 30.132863 L 83.076923 30.132863 L 83.916084 30.132863 L 84.755245 30.136216 L 85.594406 30.159496 L 86.433566 23.689032 L 87.272727 14.206456 L 88.111888 14.206456 L 88.951049 14.206456 L 89.790210 14.206456 L 90.629371 14.206456 L 91.468531 14.206456 L 92.307692 14.206456 L 93.146853 19.453115 L 93.986014 20.337771 L 94.825175 22.143027 L 95.664336 22.143027 L 96.503497 22.143027 L 97.342657 22.143027 L 98.181818 16.124017 L 99.020979 22.161651 L 99.860140 16.333913 L 100.699301 24.517629 L 101.538462 24.601438 L 102.377622 26.137945 L 103.216783 22.218269 L 104.055944 22.693934 L 104.895105 24.373849 L 105.734266 24.832938 L 106.573427 23.937667 L 107.412587 24.140486 L 108.251748 8.800000 L 109.090909 25.731190 L 109.930070 24.140486 L 110.769231 24.140486 L 111.608392 24.140486 L 112.447552 24.806306 L 113.286713 24.806306 L 114.125874 22.706785 L 114.965035 22.915378 L 115.804196 22.915378 L 116.643357 22.915378 L 117.482517 18.559148 L 118.321678 19.453115 L 119.160839 19.453115 L 120.000000 19.453115 L 120 40 Z"></path>
    </g>
  </svg>