<svg xmlns="http://www.w3.org/2000/svg" viewBox="0 0 120 40" width="120" height="40">
    <defs>
      <linearGradient id="color_grad" x1="0%" x2="0%" y1="0%" y2="100%">
        <stop offset="0%" style="stop-color:#16C784;stop-opacity:0.4;"></stop>
        <stop offset="100%" style="stop-color:#16C784;stop-opacity:0.0;"></stop>
      </linearGradient>
    </defs>
    <g>
      <path stroke="#16C784" stroke-width="2" stroke-linecap="round" stroke-linejoin="round" fill="none" d="M 0.000000 34.423440 L 0.839161 33.926610 L 1.678322 34.708164 L 2.517483 36.800000 L 3.356643 35.648009 L 4.195804 35.555158 L 5.034965 35.122134 L 5.874126 35.399524 L 6.713287 36.285812 L 7.552448 35.994743 L 8.391608 36.120918 L 9.230769 35.306992 L 10.069930 36.083986 L 10.909091 35.411085 L 11.748252 35.699834 L 12.587413 35.985384 L 13.426573 36.169825 L 14.265734 35.560695 L 15.104895 34.805576 L 15.944056 34.906994 L 16.783217 34.437561 L 17.622378 33.788398 L 18.461538 33.241279 L 19.300699 33.496037 L 20.139860 33.975730 L 20.979021 34.074004 L 21.818182 34.200565 L 22.657343 34.250433 L 23.496503 35.455842 L 24.335664 35.750680 L 25.174825 35.711055 L 26.013986 36.744112 L 26.853147 35.544179 L 27.692308 30.409316 L 28.531469 29.988230 L 29.370629 31.984255 L 30.209790 31.534999 L 31.048951 33.182299 L 31.888112 33.222332 L 32.727273 33.671694 L 33.566434 33.361558 L 34.405594 33.002611 L 35.244755 31.708003 L 36.083916 29.567044 L 36.923077 31.425848 L 37.762238 29.547807 L 38.601399 26.518473 L 39.440559 26.464366 L 40.279720 29.059067 L 41.118881 29.293565 L 41.958042 27.126118 L 42.797203 27.714705 L 43.636364 27.025433 L 44.475524 26.841796 L 45.314685 25.882652 L 46.153846 25.841982 L 46.993007 26.915116 L 47.832168 26.898877 L 48.671329 26.347847 L 49.510490 26.576470 L 50.349650 26.593685 L 51.188811 27.045715 L 52.027972 25.057295 L 52.867133 24.821305 L 53.706294 25.586949 L 54.545455 25.890277 L 55.384615 25.026961 L 56.223776 24.841111 L 57.062937 25.631994 L 57.902098 25.964744 L 58.741259 26.820391 L 59.580420 26.818728 L 60.419580 25.190634 L 61.258741 23.694973 L 62.097902 24.435638 L 62.937063 24.363604 L 63.776224 24.679791 L 64.615385 25.833582 L 65.454545 26.842912 L 66.293706 26.796522 L 67.132867 26.134869 L 67.972028 27.011692 L 68.811189 26.574550 L 69.650350 28.666447 L 70.489510 28.875304 L 71.328671 27.858034 L 72.167832 27.833893 L 73.006993 27.833893 L 73.846154 33.228525 L 74.685315 31.950669 L 75.524476 31.734920 L 76.363636 29.715891 L 77.202797 27.826154 L 78.041958 29.998482 L 78.881119 27.667286 L 79.720280 27.778184 L 80.559441 28.222546 L 81.398601 29.128269 L 82.237762 27.824509 L 83.076923 28.273407 L 83.916084 28.498613 L 84.755245 25.651781 L 85.594406 25.924138 L 86.433566 22.771264 L 87.272727 17.042877 L 88.111888 17.451937 L 88.951049 16.552635 L 89.790210 16.437588 L 90.629371 16.599978 L 91.468531 16.702756 L 92.307692 16.455978 L 93.146853 19.108358 L 93.986014 19.326002 L 94.825175 19.685808 L 95.664336 19.991841 L 96.503497 20.036317 L 97.342657 19.203528 L 98.181818 15.699838 L 99.020979 18.004556 L 99.860140 14.461288 L 100.699301 17.171300 L 101.538462 20.307329 L 102.377622 21.177957 L 103.216783 18.786399 L 104.055944 19.700105 L 104.895105 19.936599 L 105.734266 18.134846 L 106.573427 18.421401 L 107.412587 19.225316 L 108.251748 8.800000 L 109.090909 20.504737 L 109.930070 18.778063 L 110.769231 17.430711 L 111.608392 16.559818 L 112.447552 15.165971 L 113.286713 15.712363 L 114.125874 14.568495 L 114.965035 15.449866 L 115.804196 15.826081 L 116.643357 16.409666 L 117.482517 12.994669 L 118.321678 14.887702 L 119.160839 14.717707 L 120.000000 15.934330"></path>
      <path stroke="none" fill-opacity="0.6" fill="url(#color_grad)" d="M 0 40 L 0.000000 34.423440 L 0.839161 33.926610 L 1.678322 34.708164 L 2.517483 36.800000 L 3.356643 35.648009 L 4.195804 35.555158 L 5.034965 35.122134 L 5.874126 35.399524 L 6.713287 36.285812 L 7.552448 35.994743 L 8.391608 36.120918 L 9.230769 35.306992 L 10.069930 36.083986 L 10.909091 35.411085 L 11.748252 35.699834 L 12.587413 35.985384 L 13.426573 36.169825 L 14.265734 35.560695 L 15.104895 34.805576 L 15.944056 34.906994 L 16.783217 34.437561 L 17.622378 33.788398 L 18.461538 33.241279 L 19.300699 33.496037 L 20.139860 33.975730 L 20.979021 34.074004 L 21.818182 34.200565 L 22.657343 34.250433 L 23.496503 35.455842 L 24.335664 35.750680 L 25.174825 35.711055 L 26.013986 36.744112 L 26.853147 35.544179 L 27.692308 30.409316 L 28.531469 29.988230 L 29.370629 31.984255 L 30.209790 31.534999 L 31.048951 33.182299 L 31.888112 33.222332 L 32.727273 33.671694 L 33.566434 33.361558 L 34.405594 33.002611 L 35.244755 31.708003 L 36.083916 29.567044 L 36.923077 31.425848 L 37.762238 29.547807 L 38.601399 26.518473 L 39.440559 26.464366 L 40.279720 29.059067 L 41.118881 29.293565 L 41.958042 27.126118 L 42.797203 27.714705 L 43.636364 27.025433 L 44.475524 26.841796 L 45.314685 25.882652 L 46.153846 25.841982 L 46.993007 26.915116 L 47.832168 26.898877 L 48.671329 26.347847 L 49.510490 26.576470 L 50.349650 26.593685 L 51.188811 27.045715 L 52.027972 25.057295 L 52.867133 24.821305 L 53.706294 25.586949 L 54.545455 25.890277 L 55.384615 25.026961 L 56.223776 24.841111 L 57.062937 25.631994 L 57.902098 25.964744 L 58.741259 26.820391 L 59.580420 26.818728 L 60.419580 25.190634 L 61.258741 23.694973 L 62.097902 24.435638 L 62.937063 24.363604 L 63.776224 24.679791 L 64.615385 25.833582 L 65.454545 26.842912 L 66.293706 26.796522 L 67.132867 26.134869 L 67.972028 27.011692 L 68.811189 26.574550 L 69.650350 28.666447 L 70.489510 28.875304 L 71.328671 27.858034 L 72.167832 27.833893 L 73.006993 27.833893 L 73.846154 33.228525 L 74.685315 31.950669 L 75.524476 31.734920 L 76.363636 29.715891 L 77.202797 27.826154 L 78.041958 29.998482 L 78.881119 27.667286 L 79.720280 27.778184 L 80.559441 28.222546 L 81.398601 29.128269 L 82.237762 27.824509 L 83.076923 28.273407 L 83.916084 28.498613 L 84.755245 25.651781 L 85.594406 25.924138 L 86.433566 22.771264 L 87.272727 17.042877 L 88.111888 17.451937 L 88.951049 16.552635 L 89.790210 16.437588 L 90.629371 16.599978 L 91.468531 16.702756 L 92.307692 16.455978 L 93.146853 19.108358 L 93.986014 19.326002 L 94.825175 19.685808 L 95.664336 19.991841 L 96.503497 20.036317 L 97.342657 19.203528 L 98.181818 15.699838 L 99.020979 18.004556 L 99.860140 14.461288 L 100.699301 17.171300 L 101.538462 20.307329 L 102.377622 21.177957 L 103.216783 18.786399 L 104.055944 19.700105 L 104.895105 19.936599 L 105.734266 18.134846 L 106.573427 18.421401 L 107.412587 19.225316 L 108.251748 8.800000 L 109.090909 20.504737 L 109.930070 18.778063 L 110.769231 17.430711 L 111.608392 16.559818 L 112.447552 15.165971 L 113.286713 15.712363 L 114.125874 14.568495 L 114.965035 15.449866 L 115.804196 15.826081 L 116.643357 16.409666 L 117.482517 12.994669 L 118.321678 14.887702 L 119.160839 14.717707 L 120.000000 15.934330 L 120 40 Z"></path>
    </g>
  </svg>