<svg xmlns="http://www.w3.org/2000/svg" viewBox="0 0 120 40" width="120" height="40">
    <defs>
      <linearGradient id="color_grad" x1="0%" x2="0%" y1="0%" y2="100%">
        <stop offset="0%" style="stop-color:#EA3943;stop-opacity:0.4;"></stop>
        <stop offset="100%" style="stop-color:#EA3943;stop-opacity:0.0;"></stop>
      </linearGradient>
    </defs>
    <g>
      <path stroke="#EA3943" stroke-width="2" stroke-linecap="round" stroke-linejoin="round" fill="none" d="M 0.000000 12.964877 L 0.839161 8.800000 L 1.678322 9.776693 L 2.517483 11.131745 L 3.356643 14.108752 L 4.195804 14.431383 L 5.034965 13.761777 L 5.874126 13.761777 L 6.713287 15.311287 L 7.552448 19.465898 L 8.391608 19.465898 L 9.230769 19.578819 L 10.069930 22.628859 L 10.909091 21.563002 L 11.748252 21.563002 L 12.587413 21.563002 L 13.426573 21.563002 L 14.265734 21.563002 L 15.104895 21.563002 L 15.944056 21.563002 L 16.783217 21.563002 L 17.622378 21.563002 L 18.461538 21.998554 L 19.300699 22.192133 L 20.139860 23.388802 L 20.979021 25.757209 L 21.818182 21.086388 L 22.657343 18.417347 L 23.496503 23.116032 L 24.335664 24.498947 L 25.174825 18.002325 L 26.013986 11.725680 L 26.853147 17.159084 L 27.692308 17.159084 L 28.531469 20.048101 L 29.370629 20.304740 L 30.209790 20.268077 L 31.048951 19.256188 L 31.888112 19.322181 L 32.727273 20.430566 L 33.566434 20.430566 L 34.405594 18.417347 L 35.244755 18.600660 L 36.083916 18.836767 L 36.923077 18.804504 L 37.762238 18.898361 L 38.601399 19.256188 L 39.440559 19.465898 L 40.279720 19.465898 L 41.118881 18.207636 L 41.958042 12.994207 L 42.797203 15.061981 L 43.636364 16.110533 L 44.475524 16.110533 L 45.314685 16.110533 L 46.153846 17.159084 L 46.993007 17.159084 L 47.832168 18.207636 L 48.671329 19.279652 L 49.510490 19.465898 L 50.349650 19.256188 L 51.188811 17.138553 L 52.027972 15.271691 L 52.867133 15.271691 L 53.706294 15.271691 L 54.545455 15.271691 L 55.384615 15.271691 L 56.223776 15.271691 L 57.062937 15.271691 L 57.902098 15.544461 L 58.741259 15.691112 L 59.580420 16.081203 L 60.419580 17.368795 L 61.258741 16.851118 L 62.097902 15.691112 L 62.937063 17.471450 L 63.776224 17.578505 L 64.615385 19.256188 L 65.454545 18.836767 L 66.293706 17.512512 L 67.132867 21.353292 L 67.972028 19.974776 L 68.811189 17.912869 L 69.650350 17.660630 L 70.489510 16.166260 L 71.328671 17.276405 L 72.167832 17.159084 L 73.006993 17.159084 L 73.846154 17.368795 L 74.685315 15.481402 L 75.524476 16.320243 L 76.363636 19.828125 L 77.202797 17.159084 L 78.041958 15.481402 L 78.881119 20.304740 L 79.720280 20.304740 L 80.559441 17.248541 L 81.398601 17.368795 L 82.237762 17.923134 L 83.076923 13.384298 L 83.916084 15.487268 L 84.755245 15.691112 L 85.594406 14.586833 L 86.433566 15.651516 L 87.272727 15.328885 L 88.111888 15.978547 L 88.951049 14.223139 L 89.790210 15.293689 L 90.629371 16.485958 L 91.468531 16.320243 L 92.307692 16.320243 L 93.146853 16.010810 L 93.986014 15.761504 L 94.825175 14.971057 L 95.664336 19.046478 L 96.503497 18.505337 L 97.342657 20.323805 L 98.181818 21.982423 L 99.020979 17.368795 L 99.860140 24.876426 L 100.699301 23.923784 L 101.538462 21.240371 L 102.377622 22.611554 L 103.216783 23.158561 L 104.055944 23.660106 L 104.895105 24.918368 L 105.734266 25.757209 L 106.573427 25.856932 L 107.412587 28.043492 L 108.251748 19.256188 L 109.090909 23.450395 L 109.930070 23.592647 L 110.769231 21.514607 L 111.608392 19.256188 L 112.447552 19.256188 L 113.286713 27.854313 L 114.125874 17.373194 L 114.965035 27.678332 L 115.804196 28.399853 L 116.643357 36.800000 L 117.482517 22.653496 L 118.321678 23.240685 L 119.160839 22.851914 L 120.000000 22.884177"></path>
      <path stroke="none" fill-opacity="0.6" fill="url(#color_grad)" d="M 0 40 L 0.000000 12.964877 L 0.839161 8.800000 L 1.678322 9.776693 L 2.517483 11.131745 L 3.356643 14.108752 L 4.195804 14.431383 L 5.034965 13.761777 L 5.874126 13.761777 L 6.713287 15.311287 L 7.552448 19.465898 L 8.391608 19.465898 L 9.230769 19.578819 L 10.069930 22.628859 L 10.909091 21.563002 L 11.748252 21.563002 L 12.587413 21.563002 L 13.426573 21.563002 L 14.265734 21.563002 L 15.104895 21.563002 L 15.944056 21.563002 L 16.783217 21.563002 L 17.622378 21.563002 L 18.461538 21.998554 L 19.300699 22.192133 L 20.139860 23.388802 L 20.979021 25.757209 L 21.818182 21.086388 L 22.657343 18.417347 L 23.496503 23.116032 L 24.335664 24.498947 L 25.174825 18.002325 L 26.013986 11.725680 L 26.853147 17.159084 L 27.692308 17.159084 L 28.531469 20.048101 L 29.370629 20.304740 L 30.209790 20.268077 L 31.048951 19.256188 L 31.888112 19.322181 L 32.727273 20.430566 L 33.566434 20.430566 L 34.405594 18.417347 L 35.244755 18.600660 L 36.083916 18.836767 L 36.923077 18.804504 L 37.762238 18.898361 L 38.601399 19.256188 L 39.440559 19.465898 L 40.279720 19.465898 L 41.118881 18.207636 L 41.958042 12.994207 L 42.797203 15.061981 L 43.636364 16.110533 L 44.475524 16.110533 L 45.314685 16.110533 L 46.153846 17.159084 L 46.993007 17.159084 L 47.832168 18.207636 L 48.671329 19.279652 L 49.510490 19.465898 L 50.349650 19.256188 L 51.188811 17.138553 L 52.027972 15.271691 L 52.867133 15.271691 L 53.706294 15.271691 L 54.545455 15.271691 L 55.384615 15.271691 L 56.223776 15.271691 L 57.062937 15.271691 L 57.902098 15.544461 L 58.741259 15.691112 L 59.580420 16.081203 L 60.419580 17.368795 L 61.258741 16.851118 L 62.097902 15.691112 L 62.937063 17.471450 L 63.776224 17.578505 L 64.615385 19.256188 L 65.454545 18.836767 L 66.293706 17.512512 L 67.132867 21.353292 L 67.972028 19.974776 L 68.811189 17.912869 L 69.650350 17.660630 L 70.489510 16.166260 L 71.328671 17.276405 L 72.167832 17.159084 L 73.006993 17.159084 L 73.846154 17.368795 L 74.685315 15.481402 L 75.524476 16.320243 L 76.363636 19.828125 L 77.202797 17.159084 L 78.041958 15.481402 L 78.881119 20.304740 L 79.720280 20.304740 L 80.559441 17.248541 L 81.398601 17.368795 L 82.237762 17.923134 L 83.076923 13.384298 L 83.916084 15.487268 L 84.755245 15.691112 L 85.594406 14.586833 L 86.433566 15.651516 L 87.272727 15.328885 L 88.111888 15.978547 L 88.951049 14.223139 L 89.790210 15.293689 L 90.629371 16.485958 L 91.468531 16.320243 L 92.307692 16.320243 L 93.146853 16.010810 L 93.986014 15.761504 L 94.825175 14.971057 L 95.664336 19.046478 L 96.503497 18.505337 L 97.342657 20.323805 L 98.181818 21.982423 L 99.020979 17.368795 L 99.860140 24.876426 L 100.699301 23.923784 L 101.538462 21.240371 L 102.377622 22.611554 L 103.216783 23.158561 L 104.055944 23.660106 L 104.895105 24.918368 L 105.734266 25.757209 L 106.573427 25.856932 L 107.412587 28.043492 L 108.251748 19.256188 L 109.090909 23.450395 L 109.930070 23.592647 L 110.769231 21.514607 L 111.608392 19.256188 L 112.447552 19.256188 L 113.286713 27.854313 L 114.125874 17.373194 L 114.965035 27.678332 L 115.804196 28.399853 L 116.643357 36.800000 L 117.482517 22.653496 L 118.321678 23.240685 L 119.160839 22.851914 L 120.000000 22.884177 L 120 40 Z"></path>
    </g>
  </svg>