<svg xmlns="http://www.w3.org/2000/svg" viewBox="0 0 120 40" width="120" height="40">
    <defs>
      <linearGradient id="color_grad" x1="0%" x2="0%" y1="0%" y2="100%">
        <stop offset="0%" style="stop-color:#16C784;stop-opacity:0.4;"></stop>
        <stop offset="100%" style="stop-color:#16C784;stop-opacity:0.0;"></stop>
      </linearGradient>
    </defs>
    <g>
      <path stroke="#16C784" stroke-width="2" stroke-linecap="round" stroke-linejoin="round" fill="none" d="M 0.000000 24.096419 L 0.839161 18.854450 L 1.678322 21.108525 L 2.517483 22.950038 L 3.356643 27.154243 L 4.195804 27.362434 L 5.034965 25.961290 L 5.874126 26.366115 L 6.713287 29.339404 L 7.552448 33.309835 L 8.391608 33.507871 L 9.230769 32.447184 L 10.069930 36.800000 L 10.909091 34.709867 L 11.748252 35.120543 L 12.587413 35.535861 L 13.426573 35.800102 L 14.265734 34.921637 L 15.104895 33.838462 L 15.944056 33.988282 L 16.783217 33.311286 L 17.622378 32.376820 L 18.461538 32.069490 L 19.300699 32.468704 L 20.139860 33.889434 L 20.979021 36.577204 L 21.818182 31.081101 L 22.657343 28.214253 L 23.496503 33.709146 L 24.335664 35.562895 L 25.174825 29.291769 L 26.013986 23.294363 L 26.853147 28.330704 L 27.692308 28.244140 L 28.531469 30.747657 L 29.370629 30.799838 L 30.209790 30.117473 L 31.048951 31.384998 L 31.888112 31.507349 L 32.727273 33.325504 L 33.566434 31.851530 L 34.405594 29.166806 L 35.244755 30.233296 L 36.083916 27.787425 L 36.923077 27.300968 L 37.762238 24.679645 L 38.601399 23.915503 L 39.440559 24.073980 L 40.279720 26.097376 L 41.118881 24.364432 L 41.958042 17.747966 L 42.797203 20.899705 L 43.636364 21.079364 L 44.475524 20.811544 L 45.314685 19.424860 L 46.153846 20.541839 L 46.993007 22.082502 L 47.832168 23.231398 L 48.671329 23.632789 L 49.510490 24.164801 L 50.349650 23.959850 L 51.188811 22.245380 L 52.027972 17.283610 L 52.867133 16.941558 L 53.706294 18.057762 L 54.545455 18.496729 L 55.384615 17.242069 L 56.223776 16.967769 L 57.062937 18.068982 L 57.902098 18.883998 L 58.741259 20.292783 L 59.580420 20.725898 L 60.419580 19.815805 L 61.258741 17.055301 L 62.097902 16.807986 L 62.937063 18.721943 L 63.776224 19.299269 L 64.615385 22.797896 L 65.454545 23.764474 L 66.293706 22.216508 L 67.132867 25.570684 L 67.972028 25.058500 L 68.811189 22.136714 L 69.650350 24.857031 L 70.489510 23.502893 L 71.328671 23.250791 L 72.167832 23.086753 L 73.006993 23.086753 L 73.846154 25.186945 L 74.685315 21.187981 L 75.524476 21.791518 L 76.363636 22.740976 L 77.202797 22.653251 L 78.041958 23.957819 L 78.881119 25.908046 L 79.720280 26.067345 L 80.559441 22.029161 L 81.398601 23.478133 L 82.237762 22.202629 L 83.076923 17.804886 L 83.916084 20.473215 L 84.755245 16.523676 L 85.594406 15.653916 L 86.433566 17.614637 L 87.272727 16.782307 L 88.111888 18.074156 L 88.951049 14.855051 L 89.790210 15.909016 L 90.629371 17.479566 L 91.468531 17.436767 L 92.307692 17.091523 L 93.146853 16.260451 L 93.986014 15.569623 L 94.825175 13.711668 L 95.664336 18.801206 L 96.503497 18.243756 L 97.342657 19.173242 L 98.181818 21.055474 L 99.020979 14.075676 L 99.860140 22.604262 L 100.699301 17.822731 L 101.538462 19.791770 L 102.377622 21.337463 L 103.216783 21.812410 L 104.055944 23.253983 L 104.895105 23.704459 L 105.734266 21.881710 L 106.573427 23.089799 L 107.412587 26.551625 L 108.251748 14.425660 L 109.090909 21.704905 L 109.930070 20.776483 L 110.769231 16.497320 L 111.608392 12.626559 L 112.447552 10.110081 L 113.286713 21.135607 L 114.125874 8.800000 L 114.965035 22.078295 L 115.804196 23.430836 L 116.643357 29.586864 L 117.482517 16.315291 L 118.321678 18.832495 L 119.160839 18.138089 L 120.000000 19.815708"></path>
      <path stroke="none" fill-opacity="0.6" fill="url(#color_grad)" d="M 0 40 L 0.000000 24.096419 L 0.839161 18.854450 L 1.678322 21.108525 L 2.517483 22.950038 L 3.356643 27.154243 L 4.195804 27.362434 L 5.034965 25.961290 L 5.874126 26.366115 L 6.713287 29.339404 L 7.552448 33.309835 L 8.391608 33.507871 L 9.230769 32.447184 L 10.069930 36.800000 L 10.909091 34.709867 L 11.748252 35.120543 L 12.587413 35.535861 L 13.426573 35.800102 L 14.265734 34.921637 L 15.104895 33.838462 L 15.944056 33.988282 L 16.783217 33.311286 L 17.622378 32.376820 L 18.461538 32.069490 L 19.300699 32.468704 L 20.139860 33.889434 L 20.979021 36.577204 L 21.818182 31.081101 L 22.657343 28.214253 L 23.496503 33.709146 L 24.335664 35.562895 L 25.174825 29.291769 L 26.013986 23.294363 L 26.853147 28.330704 L 27.692308 28.244140 L 28.531469 30.747657 L 29.370629 30.799838 L 30.209790 30.117473 L 31.048951 31.384998 L 31.888112 31.507349 L 32.727273 33.325504 L 33.566434 31.851530 L 34.405594 29.166806 L 35.244755 30.233296 L 36.083916 27.787425 L 36.923077 27.300968 L 37.762238 24.679645 L 38.601399 23.915503 L 39.440559 24.073980 L 40.279720 26.097376 L 41.118881 24.364432 L 41.958042 17.747966 L 42.797203 20.899705 L 43.636364 21.079364 L 44.475524 20.811544 L 45.314685 19.424860 L 46.153846 20.541839 L 46.993007 22.082502 L 47.832168 23.231398 L 48.671329 23.632789 L 49.510490 24.164801 L 50.349650 23.959850 L 51.188811 22.245380 L 52.027972 17.283610 L 52.867133 16.941558 L 53.706294 18.057762 L 54.545455 18.496729 L 55.384615 17.242069 L 56.223776 16.967769 L 57.062937 18.068982 L 57.902098 18.883998 L 58.741259 20.292783 L 59.580420 20.725898 L 60.419580 19.815805 L 61.258741 17.055301 L 62.097902 16.807986 L 62.937063 18.721943 L 63.776224 19.299269 L 64.615385 22.797896 L 65.454545 23.764474 L 66.293706 22.216508 L 67.132867 25.570684 L 67.972028 25.058500 L 68.811189 22.136714 L 69.650350 24.857031 L 70.489510 23.502893 L 71.328671 23.250791 L 72.167832 23.086753 L 73.006993 23.086753 L 73.846154 25.186945 L 74.685315 21.187981 L 75.524476 21.791518 L 76.363636 22.740976 L 77.202797 22.653251 L 78.041958 23.957819 L 78.881119 25.908046 L 79.720280 26.067345 L 80.559441 22.029161 L 81.398601 23.478133 L 82.237762 22.202629 L 83.076923 17.804886 L 83.916084 20.473215 L 84.755245 16.523676 L 85.594406 15.653916 L 86.433566 17.614637 L 87.272727 16.782307 L 88.111888 18.074156 L 88.951049 14.855051 L 89.790210 15.909016 L 90.629371 17.479566 L 91.468531 17.436767 L 92.307692 17.091523 L 93.146853 16.260451 L 93.986014 15.569623 L 94.825175 13.711668 L 95.664336 18.801206 L 96.503497 18.243756 L 97.342657 19.173242 L 98.181818 21.055474 L 99.020979 14.075676 L 99.860140 22.604262 L 100.699301 17.822731 L 101.538462 19.791770 L 102.377622 21.337463 L 103.216783 21.812410 L 104.055944 23.253983 L 104.895105 23.704459 L 105.734266 21.881710 L 106.573427 23.089799 L 107.412587 26.551625 L 108.251748 14.425660 L 109.090909 21.704905 L 109.930070 20.776483 L 110.769231 16.497320 L 111.608392 12.626559 L 112.447552 10.110081 L 113.286713 21.135607 L 114.125874 8.800000 L 114.965035 22.078295 L 115.804196 23.430836 L 116.643357 29.586864 L 117.482517 16.315291 L 118.321678 18.832495 L 119.160839 18.138089 L 120.000000 19.815708 L 120 40 Z"></path>
    </g>
  </svg>