<svg xmlns="http://www.w3.org/2000/svg" viewBox="0 0 120 40" width="120" height="40">
    <defs>
      <linearGradient id="color_grad" x1="0%" x2="0%" y1="0%" y2="100%">
        <stop offset="0%" style="stop-color:#16C784;stop-opacity:0.4;"></stop>
        <stop offset="100%" style="stop-color:#16C784;stop-opacity:0.0;"></stop>
      </linearGradient>
    </defs>
    <g>
      <path stroke="#16C784" stroke-width="2" stroke-linecap="round" stroke-linejoin="round" fill="none" d="M 0.000000 24.416390 L 0.839161 25.370398 L 1.678322 25.218644 L 2.517483 25.357565 L 3.356643 27.056224 L 4.195804 36.800000 L 5.034965 25.526428 L 5.874126 19.042428 L 6.713287 20.338296 L 7.552448 20.919693 L 8.391608 21.103337 L 9.230769 20.034837 L 10.069930 22.145792 L 10.909091 21.267210 L 11.748252 21.856306 L 12.587413 22.233242 L 13.426573 22.477768 L 14.265734 21.898985 L 15.104895 20.808623 L 15.944056 20.824117 L 16.783217 20.220667 L 17.622378 21.370248 L 18.461538 20.665329 L 19.300699 14.531412 L 20.139860 9.110018 L 20.979021 9.235061 L 21.818182 12.525254 L 22.657343 17.229086 L 23.496503 18.657412 L 24.335664 18.985491 L 25.174825 19.643881 L 26.013986 21.819948 L 26.853147 19.588369 L 27.692308 19.513087 L 28.531469 18.975748 L 29.370629 17.169060 L 30.209790 18.662783 L 31.048951 22.689928 L 31.888112 22.738025 L 32.727273 23.295611 L 33.566434 23.358299 L 34.405594 21.532410 L 35.244755 20.090111 L 36.083916 17.673320 L 36.923077 17.618474 L 37.762238 18.259993 L 38.601399 17.243535 L 39.440559 17.178423 L 40.279720 20.168388 L 41.118881 20.924636 L 41.958042 22.494735 L 42.797203 19.797678 L 43.636364 18.965720 L 44.475524 18.734644 L 45.314685 16.565326 L 46.153846 16.342852 L 46.993007 18.672764 L 47.832168 21.323672 L 48.671329 18.351197 L 49.510490 18.635408 L 50.349650 18.660977 L 51.188811 19.216614 L 52.027972 16.756954 L 52.867133 16.933089 L 53.706294 17.895414 L 54.545455 18.944095 L 55.384615 17.400468 L 56.223776 17.689194 L 57.062937 18.924941 L 57.902098 18.647955 L 58.741259 20.658628 L 59.580420 20.980432 L 60.419580 16.903052 L 61.258741 15.272974 L 62.097902 22.072743 L 62.937063 21.583264 L 63.776224 27.669511 L 64.615385 27.191391 L 65.454545 24.621516 L 66.293706 24.570900 L 67.132867 23.776963 L 67.972028 24.645042 L 68.811189 24.017829 L 69.650350 24.560301 L 70.489510 21.674278 L 71.328671 19.931656 L 72.167832 19.917208 L 73.006993 19.917208 L 73.846154 21.385219 L 74.685315 19.800007 L 75.524476 19.459001 L 76.363636 16.995397 L 77.202797 19.736701 L 78.041958 23.137251 L 78.881119 22.836406 L 79.720280 22.975564 L 80.559441 22.454527 L 81.398601 24.144346 L 82.237762 25.664732 L 83.076923 18.845999 L 83.916084 16.735995 L 84.755245 13.085073 L 85.594406 13.416906 L 86.433566 14.071827 L 87.272727 13.663333 L 88.111888 14.149581 L 88.951049 13.082649 L 89.790210 17.254608 L 90.629371 17.649224 L 91.468531 18.211325 L 92.307692 17.926924 L 93.146853 17.519238 L 93.986014 17.177852 L 94.825175 16.375551 L 95.664336 16.254642 L 96.503497 15.922429 L 97.342657 11.782218 L 98.181818 11.751706 L 99.020979 10.303656 L 99.860140 11.659789 L 100.699301 9.130074 L 101.538462 12.899195 L 102.377622 17.533306 L 103.216783 22.623723 L 104.055944 16.700255 L 104.895105 11.342167 L 105.734266 8.800000 L 106.573427 9.798968 L 107.412587 10.637818 L 108.251748 19.784608 L 109.090909 13.183264 L 109.930070 11.361177 L 110.769231 9.793788 L 111.608392 8.805703 L 112.447552 12.785226 L 113.286713 13.432542 L 114.125874 14.795709 L 114.965035 20.553831 L 115.804196 20.738235 L 116.643357 16.540136 L 117.482517 20.470089 L 118.321678 21.981539 L 119.160839 24.041308 L 120.000000 25.782456"></path>
      <path stroke="none" fill-opacity="0.6" fill="url(#color_grad)" d="M 0 40 L 0.000000 24.416390 L 0.839161 25.370398 L 1.678322 25.218644 L 2.517483 25.357565 L 3.356643 27.056224 L 4.195804 36.800000 L 5.034965 25.526428 L 5.874126 19.042428 L 6.713287 20.338296 L 7.552448 20.919693 L 8.391608 21.103337 L 9.230769 20.034837 L 10.069930 22.145792 L 10.909091 21.267210 L 11.748252 21.856306 L 12.587413 22.233242 L 13.426573 22.477768 L 14.265734 21.898985 L 15.104895 20.808623 L 15.944056 20.824117 L 16.783217 20.220667 L 17.622378 21.370248 L 18.461538 20.665329 L 19.300699 14.531412 L 20.139860 9.110018 L 20.979021 9.235061 L 21.818182 12.525254 L 22.657343 17.229086 L 23.496503 18.657412 L 24.335664 18.985491 L 25.174825 19.643881 L 26.013986 21.819948 L 26.853147 19.588369 L 27.692308 19.513087 L 28.531469 18.975748 L 29.370629 17.169060 L 30.209790 18.662783 L 31.048951 22.689928 L 31.888112 22.738025 L 32.727273 23.295611 L 33.566434 23.358299 L 34.405594 21.532410 L 35.244755 20.090111 L 36.083916 17.673320 L 36.923077 17.618474 L 37.762238 18.259993 L 38.601399 17.243535 L 39.440559 17.178423 L 40.279720 20.168388 L 41.118881 20.924636 L 41.958042 22.494735 L 42.797203 19.797678 L 43.636364 18.965720 L 44.475524 18.734644 L 45.314685 16.565326 L 46.153846 16.342852 L 46.993007 18.672764 L 47.832168 21.323672 L 48.671329 18.351197 L 49.510490 18.635408 L 50.349650 18.660977 L 51.188811 19.216614 L 52.027972 16.756954 L 52.867133 16.933089 L 53.706294 17.895414 L 54.545455 18.944095 L 55.384615 17.400468 L 56.223776 17.689194 L 57.062937 18.924941 L 57.902098 18.647955 L 58.741259 20.658628 L 59.580420 20.980432 L 60.419580 16.903052 L 61.258741 15.272974 L 62.097902 22.072743 L 62.937063 21.583264 L 63.776224 27.669511 L 64.615385 27.191391 L 65.454545 24.621516 L 66.293706 24.570900 L 67.132867 23.776963 L 67.972028 24.645042 L 68.811189 24.017829 L 69.650350 24.560301 L 70.489510 21.674278 L 71.328671 19.931656 L 72.167832 19.917208 L 73.006993 19.917208 L 73.846154 21.385219 L 74.685315 19.800007 L 75.524476 19.459001 L 76.363636 16.995397 L 77.202797 19.736701 L 78.041958 23.137251 L 78.881119 22.836406 L 79.720280 22.975564 L 80.559441 22.454527 L 81.398601 24.144346 L 82.237762 25.664732 L 83.076923 18.845999 L 83.916084 16.735995 L 84.755245 13.085073 L 85.594406 13.416906 L 86.433566 14.071827 L 87.272727 13.663333 L 88.111888 14.149581 L 88.951049 13.082649 L 89.790210 17.254608 L 90.629371 17.649224 L 91.468531 18.211325 L 92.307692 17.926924 L 93.146853 17.519238 L 93.986014 17.177852 L 94.825175 16.375551 L 95.664336 16.254642 L 96.503497 15.922429 L 97.342657 11.782218 L 98.181818 11.751706 L 99.020979 10.303656 L 99.860140 11.659789 L 100.699301 9.130074 L 101.538462 12.899195 L 102.377622 17.533306 L 103.216783 22.623723 L 104.055944 16.700255 L 104.895105 11.342167 L 105.734266 8.800000 L 106.573427 9.798968 L 107.412587 10.637818 L 108.251748 19.784608 L 109.090909 13.183264 L 109.930070 11.361177 L 110.769231 9.793788 L 111.608392 8.805703 L 112.447552 12.785226 L 113.286713 13.432542 L 114.125874 14.795709 L 114.965035 20.553831 L 115.804196 20.738235 L 116.643357 16.540136 L 117.482517 20.470089 L 118.321678 21.981539 L 119.160839 24.041308 L 120.000000 25.782456 L 120 40 Z"></path>
    </g>
  </svg>