<svg xmlns="http://www.w3.org/2000/svg" viewBox="0 0 120 40" width="120" height="40">
    <defs>
      <linearGradient id="color_grad" x1="0%" x2="0%" y1="0%" y2="100%">
        <stop offset="0%" style="stop-color:#EA3943;stop-opacity:0.4;"></stop>
        <stop offset="100%" style="stop-color:#EA3943;stop-opacity:0.0;"></stop>
      </linearGradient>
    </defs>
    <g>
      <path stroke="#EA3943" stroke-width="2" stroke-linecap="round" stroke-linejoin="round" fill="none" d="M 0.000000 23.047987 L 0.839161 24.656041 L 1.678322 23.498873 L 2.517483 23.309690 L 3.356643 24.167319 L 4.195804 34.320129 L 5.034965 23.309690 L 5.874126 16.284702 L 6.713287 16.418707 L 7.552448 17.411916 L 8.391608 17.411916 L 9.230769 17.411916 L 10.069930 18.539130 L 10.909091 18.539130 L 11.748252 18.755114 L 12.587413 18.764573 L 13.426573 18.764573 L 14.265734 18.990016 L 15.104895 18.873353 L 15.944056 18.764573 L 16.783217 18.764573 L 17.622378 20.793559 L 18.461538 20.793559 L 19.300699 14.414945 L 20.139860 8.800000 L 20.979021 8.800000 L 21.818182 12.558747 L 22.657343 17.289263 L 23.496503 18.358776 L 24.335664 18.358776 L 25.174825 18.358776 L 26.013986 19.932777 L 26.853147 18.358776 L 27.692308 18.358776 L 28.531469 18.358776 L 29.370629 16.735588 L 30.209790 18.835517 L 31.048951 20.793559 L 31.888112 20.793559 L 32.727273 20.793559 L 33.566434 22.187205 L 34.405594 20.793559 L 35.244755 18.539130 L 36.083916 18.539130 L 36.923077 18.885966 L 37.762238 21.920773 L 38.601399 21.920773 L 39.440559 21.920773 L 40.279720 23.126813 L 41.118881 24.175201 L 41.958042 26.429630 L 42.797203 23.047987 L 43.636364 23.047987 L 44.475524 23.047987 L 45.314685 22.088830 L 46.153846 21.920773 L 46.993007 22.895064 L 47.832168 25.527858 L 48.671329 23.273430 L 49.510490 23.273430 L 50.349650 23.273430 L 51.188811 23.273430 L 52.027972 23.273430 L 52.867133 23.724316 L 53.706294 23.746387 L 54.545455 24.400644 L 55.384615 23.932417 L 56.223776 24.433751 L 57.062937 24.736444 L 57.902098 24.039620 L 58.741259 24.982381 L 59.580420 25.302415 L 60.419580 23.273430 L 61.258741 23.498873 L 62.097902 29.188545 L 62.937063 28.794415 L 63.776224 34.320129 L 64.615385 32.585953 L 65.454545 28.909501 L 66.293706 28.909501 L 67.132867 28.909501 L 67.972028 28.909501 L 68.811189 28.803874 L 69.650350 26.852138 L 70.489510 23.739766 L 71.328671 23.258295 L 72.167832 23.273430 L 73.006993 23.273430 L 73.846154 23.138164 L 74.685315 23.198703 L 75.524476 23.138164 L 76.363636 23.236539 L 77.202797 23.468919 L 78.041958 24.179931 L 78.881119 26.722705 L 79.720280 26.722705 L 80.559441 26.751240 L 81.398601 28.375532 L 82.237762 30.380082 L 83.076923 23.138164 L 83.916084 20.780631 L 84.755245 20.748470 L 85.594406 20.748470 L 86.433566 20.748470 L 87.272727 20.748470 L 88.111888 20.748470 L 88.951049 20.748470 L 89.790210 24.903870 L 90.629371 25.104089 L 91.468531 25.527858 L 92.307692 25.527858 L 93.146853 25.527858 L 93.986014 25.527858 L 94.825175 25.527858 L 95.664336 25.068302 L 96.503497 25.054428 L 97.342657 21.695330 L 98.181818 21.695330 L 99.020979 21.695330 L 99.860140 23.138164 L 100.699301 23.138164 L 101.538462 23.138164 L 102.377622 27.556844 L 103.216783 32.516586 L 104.055944 26.190944 L 104.895105 21.943317 L 105.734266 21.943317 L 106.573427 21.943317 L 107.412587 21.943317 L 108.251748 32.065700 L 109.090909 23.941561 L 109.930070 23.138164 L 110.769231 23.211000 L 111.608392 23.273430 L 112.447552 28.909501 L 113.286713 28.909501 L 114.125874 30.036715 L 114.965035 34.545572 L 115.804196 34.320129 L 116.643357 29.811272 L 117.482517 36.152049 L 118.321678 34.320129 L 119.160839 36.416905 L 120.000000 36.800000"></path>
      <path stroke="none" fill-opacity="0.6" fill="url(#color_grad)" d="M 0 40 L 0.000000 23.047987 L 0.839161 24.656041 L 1.678322 23.498873 L 2.517483 23.309690 L 3.356643 24.167319 L 4.195804 34.320129 L 5.034965 23.309690 L 5.874126 16.284702 L 6.713287 16.418707 L 7.552448 17.411916 L 8.391608 17.411916 L 9.230769 17.411916 L 10.069930 18.539130 L 10.909091 18.539130 L 11.748252 18.755114 L 12.587413 18.764573 L 13.426573 18.764573 L 14.265734 18.990016 L 15.104895 18.873353 L 15.944056 18.764573 L 16.783217 18.764573 L 17.622378 20.793559 L 18.461538 20.793559 L 19.300699 14.414945 L 20.139860 8.800000 L 20.979021 8.800000 L 21.818182 12.558747 L 22.657343 17.289263 L 23.496503 18.358776 L 24.335664 18.358776 L 25.174825 18.358776 L 26.013986 19.932777 L 26.853147 18.358776 L 27.692308 18.358776 L 28.531469 18.358776 L 29.370629 16.735588 L 30.209790 18.835517 L 31.048951 20.793559 L 31.888112 20.793559 L 32.727273 20.793559 L 33.566434 22.187205 L 34.405594 20.793559 L 35.244755 18.539130 L 36.083916 18.539130 L 36.923077 18.885966 L 37.762238 21.920773 L 38.601399 21.920773 L 39.440559 21.920773 L 40.279720 23.126813 L 41.118881 24.175201 L 41.958042 26.429630 L 42.797203 23.047987 L 43.636364 23.047987 L 44.475524 23.047987 L 45.314685 22.088830 L 46.153846 21.920773 L 46.993007 22.895064 L 47.832168 25.527858 L 48.671329 23.273430 L 49.510490 23.273430 L 50.349650 23.273430 L 51.188811 23.273430 L 52.027972 23.273430 L 52.867133 23.724316 L 53.706294 23.746387 L 54.545455 24.400644 L 55.384615 23.932417 L 56.223776 24.433751 L 57.062937 24.736444 L 57.902098 24.039620 L 58.741259 24.982381 L 59.580420 25.302415 L 60.419580 23.273430 L 61.258741 23.498873 L 62.097902 29.188545 L 62.937063 28.794415 L 63.776224 34.320129 L 64.615385 32.585953 L 65.454545 28.909501 L 66.293706 28.909501 L 67.132867 28.909501 L 67.972028 28.909501 L 68.811189 28.803874 L 69.650350 26.852138 L 70.489510 23.739766 L 71.328671 23.258295 L 72.167832 23.273430 L 73.006993 23.273430 L 73.846154 23.138164 L 74.685315 23.198703 L 75.524476 23.138164 L 76.363636 23.236539 L 77.202797 23.468919 L 78.041958 24.179931 L 78.881119 26.722705 L 79.720280 26.722705 L 80.559441 26.751240 L 81.398601 28.375532 L 82.237762 30.380082 L 83.076923 23.138164 L 83.916084 20.780631 L 84.755245 20.748470 L 85.594406 20.748470 L 86.433566 20.748470 L 87.272727 20.748470 L 88.111888 20.748470 L 88.951049 20.748470 L 89.790210 24.903870 L 90.629371 25.104089 L 91.468531 25.527858 L 92.307692 25.527858 L 93.146853 25.527858 L 93.986014 25.527858 L 94.825175 25.527858 L 95.664336 25.068302 L 96.503497 25.054428 L 97.342657 21.695330 L 98.181818 21.695330 L 99.020979 21.695330 L 99.860140 23.138164 L 100.699301 23.138164 L 101.538462 23.138164 L 102.377622 27.556844 L 103.216783 32.516586 L 104.055944 26.190944 L 104.895105 21.943317 L 105.734266 21.943317 L 106.573427 21.943317 L 107.412587 21.943317 L 108.251748 32.065700 L 109.090909 23.941561 L 109.930070 23.138164 L 110.769231 23.211000 L 111.608392 23.273430 L 112.447552 28.909501 L 113.286713 28.909501 L 114.125874 30.036715 L 114.965035 34.545572 L 115.804196 34.320129 L 116.643357 29.811272 L 117.482517 36.152049 L 118.321678 34.320129 L 119.160839 36.416905 L 120.000000 36.800000 L 120 40 Z"></path>
    </g>
  </svg>