<svg xmlns="http://www.w3.org/2000/svg" viewBox="0 0 120 40" width="120" height="40">
    <defs>
      <linearGradient id="color_grad" x1="0%" x2="0%" y1="0%" y2="100%">
        <stop offset="0%" style="stop-color:#EA3943;stop-opacity:0.4;"></stop>
        <stop offset="100%" style="stop-color:#EA3943;stop-opacity:0.0;"></stop>
      </linearGradient>
    </defs>
    <g>
      <path stroke="#EA3943" stroke-width="2" stroke-linecap="round" stroke-linejoin="round" fill="none" d="M 0.000000 36.369283 L 0.839161 36.194589 L 1.678322 36.469294 L 2.517483 36.559007 L 3.356643 36.800000 L 4.195804 36.642752 L 5.034965 34.641859 L 5.874126 33.851490 L 6.713287 33.821969 L 7.552448 33.189471 L 8.391608 33.242170 L 9.230769 32.930393 L 10.069930 33.227782 L 10.909091 32.357562 L 11.748252 32.334619 L 12.587413 32.445560 L 13.426573 32.399017 L 14.265734 31.782027 L 15.104895 31.485024 L 15.944056 31.524934 L 16.783217 31.340696 L 17.622378 31.085346 L 18.461538 30.870373 L 19.300699 30.922733 L 20.139860 30.959758 L 20.979021 30.995598 L 21.818182 30.870740 L 22.657343 30.878886 L 23.496503 30.990129 L 24.335664 30.548261 L 25.174825 30.747409 L 26.013986 30.941670 L 26.853147 31.007197 L 27.692308 30.957684 L 28.531469 30.929171 L 29.370629 30.934150 L 30.209790 30.759548 L 31.048951 31.398810 L 31.888112 31.835266 L 32.727273 32.354549 L 33.566434 31.274161 L 34.405594 30.953744 L 35.244755 31.188859 L 36.083916 30.458633 L 36.923077 30.280018 L 37.762238 29.785953 L 38.601399 29.472176 L 39.440559 28.891639 L 40.279720 29.444247 L 41.118881 29.351455 L 41.958042 29.124923 L 42.797203 29.353471 L 43.636364 29.091636 L 44.475524 29.020633 L 45.314685 28.648486 L 46.153846 28.632758 L 46.993007 29.048794 L 47.832168 29.042490 L 48.671329 28.828739 L 49.510490 28.917451 L 50.349650 28.924184 L 51.188811 29.099612 L 52.027972 28.328007 L 52.867133 28.236591 L 53.706294 28.533826 L 54.545455 29.589386 L 55.384615 29.260587 L 56.223776 28.839059 L 57.062937 28.536896 L 57.902098 28.674426 L 58.741259 29.006500 L 59.580420 29.005531 L 60.419580 15.174433 L 61.258741 16.342572 L 62.097902 20.487490 L 62.937063 19.488523 L 63.776224 20.785725 L 64.615385 21.286476 L 65.454545 22.478392 L 66.293706 25.252728 L 67.132867 24.977039 L 67.972028 27.142932 L 68.811189 23.416043 L 69.650350 25.051974 L 70.489510 25.134143 L 71.328671 25.524316 L 72.167832 25.617633 L 73.006993 25.617633 L 73.846154 22.494846 L 74.685315 21.901195 L 75.524476 21.801842 L 76.363636 20.877991 L 77.202797 21.779845 L 78.041958 22.751586 L 78.881119 22.436766 L 79.720280 22.436766 L 80.559441 16.856741 L 81.398601 16.957219 L 82.237762 16.318671 L 83.076923 16.538097 L 83.916084 16.648659 L 84.755245 15.254247 L 85.594406 15.380676 L 86.433566 10.616620 L 87.272727 9.192200 L 88.111888 9.301415 L 88.951049 8.848524 L 89.790210 12.604830 L 90.629371 9.022029 L 91.468531 8.924019 L 92.307692 8.800000 L 93.146853 15.702719 L 93.986014 22.005570 L 94.825175 24.637282 L 95.664336 25.747496 L 96.503497 24.744786 L 97.342657 25.998045 L 98.181818 24.961566 L 99.020979 24.930280 L 99.860140 25.524015 L 100.699301 25.125515 L 101.538462 26.924700 L 102.377622 29.102521 L 103.216783 33.525940 L 104.055944 33.583904 L 104.895105 30.537925 L 105.734266 31.347752 L 106.573427 32.834041 L 107.412587 34.405643 L 108.251748 34.251184 L 109.090909 28.996033 L 109.930070 29.111118 L 110.769231 28.252458 L 111.608392 29.802906 L 112.447552 29.383703 L 113.286713 31.159702 L 114.125874 33.382898 L 114.965035 33.083393 L 115.804196 33.056309 L 116.643357 33.564039 L 117.482517 33.168428 L 118.321678 34.107999 L 119.160839 34.517461 L 120.000000 34.247232"></path>
      <path stroke="none" fill-opacity="0.6" fill="url(#color_grad)" d="M 0 40 L 0.000000 36.369283 L 0.839161 36.194589 L 1.678322 36.469294 L 2.517483 36.559007 L 3.356643 36.800000 L 4.195804 36.642752 L 5.034965 34.641859 L 5.874126 33.851490 L 6.713287 33.821969 L 7.552448 33.189471 L 8.391608 33.242170 L 9.230769 32.930393 L 10.069930 33.227782 L 10.909091 32.357562 L 11.748252 32.334619 L 12.587413 32.445560 L 13.426573 32.399017 L 14.265734 31.782027 L 15.104895 31.485024 L 15.944056 31.524934 L 16.783217 31.340696 L 17.622378 31.085346 L 18.461538 30.870373 L 19.300699 30.922733 L 20.139860 30.959758 L 20.979021 30.995598 L 21.818182 30.870740 L 22.657343 30.878886 L 23.496503 30.990129 L 24.335664 30.548261 L 25.174825 30.747409 L 26.013986 30.941670 L 26.853147 31.007197 L 27.692308 30.957684 L 28.531469 30.929171 L 29.370629 30.934150 L 30.209790 30.759548 L 31.048951 31.398810 L 31.888112 31.835266 L 32.727273 32.354549 L 33.566434 31.274161 L 34.405594 30.953744 L 35.244755 31.188859 L 36.083916 30.458633 L 36.923077 30.280018 L 37.762238 29.785953 L 38.601399 29.472176 L 39.440559 28.891639 L 40.279720 29.444247 L 41.118881 29.351455 L 41.958042 29.124923 L 42.797203 29.353471 L 43.636364 29.091636 L 44.475524 29.020633 L 45.314685 28.648486 L 46.153846 28.632758 L 46.993007 29.048794 L 47.832168 29.042490 L 48.671329 28.828739 L 49.510490 28.917451 L 50.349650 28.924184 L 51.188811 29.099612 L 52.027972 28.328007 L 52.867133 28.236591 L 53.706294 28.533826 L 54.545455 29.589386 L 55.384615 29.260587 L 56.223776 28.839059 L 57.062937 28.536896 L 57.902098 28.674426 L 58.741259 29.006500 L 59.580420 29.005531 L 60.419580 15.174433 L 61.258741 16.342572 L 62.097902 20.487490 L 62.937063 19.488523 L 63.776224 20.785725 L 64.615385 21.286476 L 65.454545 22.478392 L 66.293706 25.252728 L 67.132867 24.977039 L 67.972028 27.142932 L 68.811189 23.416043 L 69.650350 25.051974 L 70.489510 25.134143 L 71.328671 25.524316 L 72.167832 25.617633 L 73.006993 25.617633 L 73.846154 22.494846 L 74.685315 21.901195 L 75.524476 21.801842 L 76.363636 20.877991 L 77.202797 21.779845 L 78.041958 22.751586 L 78.881119 22.436766 L 79.720280 22.436766 L 80.559441 16.856741 L 81.398601 16.957219 L 82.237762 16.318671 L 83.076923 16.538097 L 83.916084 16.648659 L 84.755245 15.254247 L 85.594406 15.380676 L 86.433566 10.616620 L 87.272727 9.192200 L 88.111888 9.301415 L 88.951049 8.848524 L 89.790210 12.604830 L 90.629371 9.022029 L 91.468531 8.924019 L 92.307692 8.800000 L 93.146853 15.702719 L 93.986014 22.005570 L 94.825175 24.637282 L 95.664336 25.747496 L 96.503497 24.744786 L 97.342657 25.998045 L 98.181818 24.961566 L 99.020979 24.930280 L 99.860140 25.524015 L 100.699301 25.125515 L 101.538462 26.924700 L 102.377622 29.102521 L 103.216783 33.525940 L 104.055944 33.583904 L 104.895105 30.537925 L 105.734266 31.347752 L 106.573427 32.834041 L 107.412587 34.405643 L 108.251748 34.251184 L 109.090909 28.996033 L 109.930070 29.111118 L 110.769231 28.252458 L 111.608392 29.802906 L 112.447552 29.383703 L 113.286713 31.159702 L 114.125874 33.382898 L 114.965035 33.083393 L 115.804196 33.056309 L 116.643357 33.564039 L 117.482517 33.168428 L 118.321678 34.107999 L 119.160839 34.517461 L 120.000000 34.247232 L 120 40 Z"></path>
    </g>
  </svg>