<svg xmlns="http://www.w3.org/2000/svg" viewBox="0 0 120 40" width="120" height="40">
    <defs>
      <linearGradient id="color_grad" x1="0%" x2="0%" y1="0%" y2="100%">
        <stop offset="0%" style="stop-color:#EA3943;stop-opacity:0.4;"></stop>
        <stop offset="100%" style="stop-color:#EA3943;stop-opacity:0.0;"></stop>
      </linearGradient>
    </defs>
    <g>
      <path stroke="#EA3943" stroke-width="2" stroke-linecap="round" stroke-linejoin="round" fill="none" d="M 0.000000 34.196173 L 0.839161 34.196173 L 1.678322 34.196173 L 2.517483 34.196173 L 3.356643 34.196173 L 4.195804 34.035888 L 5.034965 31.674892 L 5.874126 30.528855 L 6.713287 30.059221 L 7.552448 29.382819 L 8.391608 29.382819 L 9.230769 29.382819 L 10.069930 29.382819 L 10.909091 28.595179 L 11.748252 28.420148 L 12.587413 28.420148 L 13.426573 28.267557 L 14.265734 27.778367 L 15.104895 27.778367 L 15.944056 27.778367 L 16.783217 27.778367 L 17.622378 27.778367 L 18.461538 27.778367 L 19.300699 27.778367 L 20.139860 27.778367 L 20.979021 27.778367 L 21.818182 27.778367 L 22.657343 27.778367 L 23.496503 27.778367 L 24.335664 27.090745 L 25.174825 27.090745 L 26.013986 27.090745 L 26.853147 27.440968 L 27.692308 27.408109 L 28.531469 27.579614 L 29.370629 27.663764 L 30.209790 27.663764 L 31.048951 27.663764 L 31.888112 28.204725 L 32.727273 28.653523 L 33.566434 27.778367 L 34.405594 27.549160 L 35.244755 27.549160 L 36.083916 27.549160 L 36.923077 27.478635 L 37.762238 27.778367 L 38.601399 27.778367 L 39.440559 27.090745 L 40.279720 27.090745 L 41.118881 27.090745 L 41.958042 27.090745 L 42.797203 27.090745 L 43.636364 27.090745 L 44.475524 27.090745 L 45.314685 27.090745 L 46.153846 27.090745 L 46.993007 27.090745 L 47.832168 27.090745 L 48.671329 27.090745 L 49.510490 27.090745 L 50.349650 27.090745 L 51.188811 27.090745 L 52.027972 27.090745 L 52.867133 27.090745 L 53.706294 27.090745 L 54.545455 28.236782 L 55.384615 28.236782 L 56.223776 27.812027 L 57.062937 27.090745 L 57.902098 27.090745 L 58.741259 27.090745 L 59.580420 27.090745 L 60.419580 11.047835 L 61.258741 13.338305 L 62.097902 17.922452 L 62.937063 16.752373 L 63.776224 18.151659 L 64.615385 18.151659 L 65.454545 19.068489 L 66.293706 22.506599 L 67.132867 22.506599 L 67.972028 24.798672 L 68.811189 20.443733 L 69.650350 21.360562 L 70.489510 21.360562 L 71.328671 22.378371 L 72.167832 22.506599 L 73.006993 22.506599 L 73.846154 17.922452 L 74.685315 17.922452 L 75.524476 17.922452 L 76.363636 17.922452 L 77.202797 17.922452 L 78.041958 17.922452 L 78.881119 17.922452 L 79.720280 17.922452 L 80.559441 16.487213 L 81.398601 16.088793 L 82.237762 16.088793 L 83.076923 16.088793 L 83.916084 16.088793 L 84.755245 16.088793 L 85.594406 16.088793 L 86.433566 10.342710 L 87.272727 8.910436 L 88.111888 8.800000 L 88.951049 8.800000 L 89.790210 8.800000 L 90.629371 8.800000 L 91.468531 8.800000 L 92.307692 8.800000 L 93.146853 14.786639 L 93.986014 20.229752 L 94.825175 23.712422 L 95.664336 24.895163 L 96.503497 23.833437 L 97.342657 25.561628 L 98.181818 24.573632 L 99.020979 24.856374 L 99.860140 25.617728 L 100.699301 26.098742 L 101.538462 26.810407 L 102.377622 29.404457 L 103.216783 34.701070 L 104.055944 34.517063 L 104.895105 31.200449 L 105.734266 33.010385 L 106.573427 34.425380 L 107.412587 36.007391 L 108.251748 36.355210 L 109.090909 29.471168 L 109.930070 29.951189 L 110.769231 29.523869 L 111.608392 31.688676 L 112.447552 31.935034 L 113.286713 33.751703 L 114.125874 36.259039 L 114.965035 35.630722 L 115.804196 35.456813 L 116.643357 35.823545 L 117.482517 35.675602 L 118.321678 36.259039 L 119.160839 36.800000 L 120.000000 36.029831"></path>
      <path stroke="none" fill-opacity="0.6" fill="url(#color_grad)" d="M 0 40 L 0.000000 34.196173 L 0.839161 34.196173 L 1.678322 34.196173 L 2.517483 34.196173 L 3.356643 34.196173 L 4.195804 34.035888 L 5.034965 31.674892 L 5.874126 30.528855 L 6.713287 30.059221 L 7.552448 29.382819 L 8.391608 29.382819 L 9.230769 29.382819 L 10.069930 29.382819 L 10.909091 28.595179 L 11.748252 28.420148 L 12.587413 28.420148 L 13.426573 28.267557 L 14.265734 27.778367 L 15.104895 27.778367 L 15.944056 27.778367 L 16.783217 27.778367 L 17.622378 27.778367 L 18.461538 27.778367 L 19.300699 27.778367 L 20.139860 27.778367 L 20.979021 27.778367 L 21.818182 27.778367 L 22.657343 27.778367 L 23.496503 27.778367 L 24.335664 27.090745 L 25.174825 27.090745 L 26.013986 27.090745 L 26.853147 27.440968 L 27.692308 27.408109 L 28.531469 27.579614 L 29.370629 27.663764 L 30.209790 27.663764 L 31.048951 27.663764 L 31.888112 28.204725 L 32.727273 28.653523 L 33.566434 27.778367 L 34.405594 27.549160 L 35.244755 27.549160 L 36.083916 27.549160 L 36.923077 27.478635 L 37.762238 27.778367 L 38.601399 27.778367 L 39.440559 27.090745 L 40.279720 27.090745 L 41.118881 27.090745 L 41.958042 27.090745 L 42.797203 27.090745 L 43.636364 27.090745 L 44.475524 27.090745 L 45.314685 27.090745 L 46.153846 27.090745 L 46.993007 27.090745 L 47.832168 27.090745 L 48.671329 27.090745 L 49.510490 27.090745 L 50.349650 27.090745 L 51.188811 27.090745 L 52.027972 27.090745 L 52.867133 27.090745 L 53.706294 27.090745 L 54.545455 28.236782 L 55.384615 28.236782 L 56.223776 27.812027 L 57.062937 27.090745 L 57.902098 27.090745 L 58.741259 27.090745 L 59.580420 27.090745 L 60.419580 11.047835 L 61.258741 13.338305 L 62.097902 17.922452 L 62.937063 16.752373 L 63.776224 18.151659 L 64.615385 18.151659 L 65.454545 19.068489 L 66.293706 22.506599 L 67.132867 22.506599 L 67.972028 24.798672 L 68.811189 20.443733 L 69.650350 21.360562 L 70.489510 21.360562 L 71.328671 22.378371 L 72.167832 22.506599 L 73.006993 22.506599 L 73.846154 17.922452 L 74.685315 17.922452 L 75.524476 17.922452 L 76.363636 17.922452 L 77.202797 17.922452 L 78.041958 17.922452 L 78.881119 17.922452 L 79.720280 17.922452 L 80.559441 16.487213 L 81.398601 16.088793 L 82.237762 16.088793 L 83.076923 16.088793 L 83.916084 16.088793 L 84.755245 16.088793 L 85.594406 16.088793 L 86.433566 10.342710 L 87.272727 8.910436 L 88.111888 8.800000 L 88.951049 8.800000 L 89.790210 8.800000 L 90.629371 8.800000 L 91.468531 8.800000 L 92.307692 8.800000 L 93.146853 14.786639 L 93.986014 20.229752 L 94.825175 23.712422 L 95.664336 24.895163 L 96.503497 23.833437 L 97.342657 25.561628 L 98.181818 24.573632 L 99.020979 24.856374 L 99.860140 25.617728 L 100.699301 26.098742 L 101.538462 26.810407 L 102.377622 29.404457 L 103.216783 34.701070 L 104.055944 34.517063 L 104.895105 31.200449 L 105.734266 33.010385 L 106.573427 34.425380 L 107.412587 36.007391 L 108.251748 36.355210 L 109.090909 29.471168 L 109.930070 29.951189 L 110.769231 29.523869 L 111.608392 31.688676 L 112.447552 31.935034 L 113.286713 33.751703 L 114.125874 36.259039 L 114.965035 35.630722 L 115.804196 35.456813 L 116.643357 35.823545 L 117.482517 35.675602 L 118.321678 36.259039 L 119.160839 36.800000 L 120.000000 36.029831 L 120 40 Z"></path>
    </g>
  </svg>