<svg xmlns="http://www.w3.org/2000/svg" viewBox="0 0 120 40" width="120" height="40">
    <defs>
      <linearGradient id="color_grad" x1="0%" x2="0%" y1="0%" y2="100%">
        <stop offset="0%" style="stop-color:#EA3943;stop-opacity:0.4;"></stop>
        <stop offset="100%" style="stop-color:#EA3943;stop-opacity:0.0;"></stop>
      </linearGradient>
    </defs>
    <g>
      <path stroke="#EA3943" stroke-width="2" stroke-linecap="round" stroke-linejoin="round" fill="none" d="M 0.000000 17.454545 L 0.839161 8.931723 L 1.678322 11.487858 L 2.517483 9.013605 L 3.356643 13.399619 L 4.195804 10.836364 L 5.034965 11.345455 L 5.874126 12.851367 L 6.713287 10.896885 L 7.552448 15.418182 L 8.391608 15.418182 L 9.230769 15.418182 L 10.069930 11.527018 L 10.909091 11.854545 L 11.748252 12.363636 L 12.587413 12.363636 L 13.426573 12.363636 L 14.265734 12.363636 L 15.104895 12.363636 L 15.944056 12.363636 L 16.783217 12.466879 L 17.622378 12.840687 L 18.461538 13.068531 L 19.300699 13.381818 L 20.139860 12.872727 L 20.979021 12.872727 L 21.818182 12.872727 L 22.657343 12.872727 L 23.496503 13.890909 L 24.335664 13.890909 L 25.174825 13.890909 L 26.013986 9.647298 L 26.853147 10.763026 L 27.692308 11.243636 L 28.531469 11.243636 L 29.370629 11.243636 L 30.209790 11.243636 L 31.048951 11.350439 L 31.888112 12.360076 L 32.727273 11.243636 L 33.566434 12.211977 L 34.405594 13.381818 L 35.244755 11.243636 L 36.083916 11.243636 L 36.923077 11.243636 L 37.762238 12.872727 L 38.601399 11.243636 L 39.440559 11.243636 L 40.279720 11.243636 L 41.118881 15.418182 L 41.958042 11.373935 L 42.797203 12.872727 L 43.636364 12.872727 L 44.475524 12.872727 L 45.314685 12.872727 L 46.153846 11.744895 L 46.993007 11.243636 L 47.832168 11.243636 L 48.671329 11.243636 L 49.510490 14.794456 L 50.349650 9.707819 L 51.188811 10.327273 L 52.027972 10.327273 L 52.867133 9.309091 L 53.706294 9.309091 L 54.545455 8.800000 L 55.384615 11.345455 L 56.223776 8.800000 L 57.062937 8.800000 L 57.902098 14.753160 L 58.741259 9.309091 L 59.580420 9.309091 L 60.419580 9.309091 L 61.258741 10.117228 L 62.097902 11.345455 L 62.937063 11.594660 L 63.776224 11.854545 L 64.615385 12.872727 L 65.454545 12.872727 L 66.293706 10.327273 L 67.132867 9.789701 L 67.972028 9.309091 L 68.811189 10.978767 L 69.650350 12.872727 L 70.489510 9.309091 L 71.328671 10.665480 L 72.167832 10.836364 L 73.006993 10.836364 L 73.846154 13.381818 L 74.685315 13.381818 L 75.524476 13.381818 L 76.363636 13.752066 L 77.202797 18.472727 L 78.041958 18.472727 L 78.881119 17.963636 L 79.720280 17.963636 L 80.559441 19.925238 L 81.398601 21.085823 L 82.237762 21.018182 L 83.076923 21.018182 L 83.916084 13.381818 L 84.755245 13.381818 L 85.594406 13.381818 L 86.433566 13.381818 L 87.272727 13.613223 L 88.111888 13.381818 L 88.951049 13.941818 L 89.790210 13.941818 L 90.629371 13.941818 L 91.468531 13.941818 L 92.307692 13.941818 L 93.146853 16.051163 L 93.986014 17.963636 L 94.825175 13.941818 L 95.664336 13.941818 L 96.503497 13.941818 L 97.342657 15.646027 L 98.181818 19.305785 L 99.020979 17.956516 L 99.860140 19.928798 L 100.699301 23.563636 L 101.538462 24.072727 L 102.377622 13.381818 L 103.216783 17.771392 L 104.055944 20.843738 L 104.895105 23.054545 L 105.734266 21.018182 L 106.573427 21.018182 L 107.412587 21.018182 L 108.251748 16.436364 L 109.090909 23.054545 L 109.930070 23.054545 L 110.769231 23.054545 L 111.608392 23.054545 L 112.447552 21.790718 L 113.286713 22.933503 L 114.125874 23.617038 L 114.965035 26.109091 L 115.804196 34.959441 L 116.643357 36.800000 L 117.482517 24.713541 L 118.321678 23.563636 L 119.160839 25.090909 L 120.000000 28.145455"></path>
      <path stroke="none" fill-opacity="0.6" fill="url(#color_grad)" d="M 0 40 L 0.000000 17.454545 L 0.839161 8.931723 L 1.678322 11.487858 L 2.517483 9.013605 L 3.356643 13.399619 L 4.195804 10.836364 L 5.034965 11.345455 L 5.874126 12.851367 L 6.713287 10.896885 L 7.552448 15.418182 L 8.391608 15.418182 L 9.230769 15.418182 L 10.069930 11.527018 L 10.909091 11.854545 L 11.748252 12.363636 L 12.587413 12.363636 L 13.426573 12.363636 L 14.265734 12.363636 L 15.104895 12.363636 L 15.944056 12.363636 L 16.783217 12.466879 L 17.622378 12.840687 L 18.461538 13.068531 L 19.300699 13.381818 L 20.139860 12.872727 L 20.979021 12.872727 L 21.818182 12.872727 L 22.657343 12.872727 L 23.496503 13.890909 L 24.335664 13.890909 L 25.174825 13.890909 L 26.013986 9.647298 L 26.853147 10.763026 L 27.692308 11.243636 L 28.531469 11.243636 L 29.370629 11.243636 L 30.209790 11.243636 L 31.048951 11.350439 L 31.888112 12.360076 L 32.727273 11.243636 L 33.566434 12.211977 L 34.405594 13.381818 L 35.244755 11.243636 L 36.083916 11.243636 L 36.923077 11.243636 L 37.762238 12.872727 L 38.601399 11.243636 L 39.440559 11.243636 L 40.279720 11.243636 L 41.118881 15.418182 L 41.958042 11.373935 L 42.797203 12.872727 L 43.636364 12.872727 L 44.475524 12.872727 L 45.314685 12.872727 L 46.153846 11.744895 L 46.993007 11.243636 L 47.832168 11.243636 L 48.671329 11.243636 L 49.510490 14.794456 L 50.349650 9.707819 L 51.188811 10.327273 L 52.027972 10.327273 L 52.867133 9.309091 L 53.706294 9.309091 L 54.545455 8.800000 L 55.384615 11.345455 L 56.223776 8.800000 L 57.062937 8.800000 L 57.902098 14.753160 L 58.741259 9.309091 L 59.580420 9.309091 L 60.419580 9.309091 L 61.258741 10.117228 L 62.097902 11.345455 L 62.937063 11.594660 L 63.776224 11.854545 L 64.615385 12.872727 L 65.454545 12.872727 L 66.293706 10.327273 L 67.132867 9.789701 L 67.972028 9.309091 L 68.811189 10.978767 L 69.650350 12.872727 L 70.489510 9.309091 L 71.328671 10.665480 L 72.167832 10.836364 L 73.006993 10.836364 L 73.846154 13.381818 L 74.685315 13.381818 L 75.524476 13.381818 L 76.363636 13.752066 L 77.202797 18.472727 L 78.041958 18.472727 L 78.881119 17.963636 L 79.720280 17.963636 L 80.559441 19.925238 L 81.398601 21.085823 L 82.237762 21.018182 L 83.076923 21.018182 L 83.916084 13.381818 L 84.755245 13.381818 L 85.594406 13.381818 L 86.433566 13.381818 L 87.272727 13.613223 L 88.111888 13.381818 L 88.951049 13.941818 L 89.790210 13.941818 L 90.629371 13.941818 L 91.468531 13.941818 L 92.307692 13.941818 L 93.146853 16.051163 L 93.986014 17.963636 L 94.825175 13.941818 L 95.664336 13.941818 L 96.503497 13.941818 L 97.342657 15.646027 L 98.181818 19.305785 L 99.020979 17.956516 L 99.860140 19.928798 L 100.699301 23.563636 L 101.538462 24.072727 L 102.377622 13.381818 L 103.216783 17.771392 L 104.055944 20.843738 L 104.895105 23.054545 L 105.734266 21.018182 L 106.573427 21.018182 L 107.412587 21.018182 L 108.251748 16.436364 L 109.090909 23.054545 L 109.930070 23.054545 L 110.769231 23.054545 L 111.608392 23.054545 L 112.447552 21.790718 L 113.286713 22.933503 L 114.125874 23.617038 L 114.965035 26.109091 L 115.804196 34.959441 L 116.643357 36.800000 L 117.482517 24.713541 L 118.321678 23.563636 L 119.160839 25.090909 L 120.000000 28.145455 L 120 40 Z"></path>
    </g>
  </svg>