<svg xmlns="http://www.w3.org/2000/svg" viewBox="0 0 120 40" width="120" height="40">
    <defs>
      <linearGradient id="color_grad" x1="0%" x2="0%" y1="0%" y2="100%">
        <stop offset="0%" style="stop-color:#EA3943;stop-opacity:0.4;"></stop>
        <stop offset="100%" style="stop-color:#EA3943;stop-opacity:0.0;"></stop>
      </linearGradient>
    </defs>
    <g>
      <path stroke="#EA3943" stroke-width="2" stroke-linecap="round" stroke-linejoin="round" fill="none" d="M 0.000000 25.470736 L 0.839161 15.485821 L 1.678322 19.162270 L 2.517483 16.702484 L 3.356643 22.278573 L 4.195804 19.373341 L 5.034965 19.421041 L 5.874126 21.381976 L 6.713287 20.190559 L 7.552448 24.816888 L 8.391608 24.963509 L 9.230769 24.115584 L 10.069930 20.677637 L 10.909091 20.298461 L 11.748252 21.177580 L 12.587413 21.491942 L 13.426573 21.682258 L 14.265734 21.019307 L 15.104895 20.227821 L 15.944056 20.324314 L 16.783217 19.934579 L 17.622378 19.674715 L 18.461538 19.341176 L 19.300699 19.829832 L 20.139860 19.362417 L 20.979021 19.457939 L 21.818182 19.121366 L 22.657343 19.139451 L 23.496503 20.571676 L 24.335664 20.852053 L 25.174825 21.377970 L 26.013986 17.196480 L 26.853147 17.869747 L 27.692308 18.331822 L 28.531469 17.887225 L 29.370629 17.711474 L 30.209790 17.227188 L 31.048951 19.113598 L 31.888112 20.274550 L 32.727273 19.506368 L 33.566434 19.479544 L 34.405594 20.399081 L 35.244755 18.653587 L 36.083916 16.681486 L 36.923077 16.323794 L 37.762238 16.176323 L 38.601399 13.464199 L 39.440559 13.408852 L 40.279720 14.897638 L 41.118881 19.412059 L 41.958042 14.188322 L 42.797203 16.511318 L 43.636364 15.823607 L 44.475524 15.629529 L 45.314685 14.627457 L 46.153846 13.278374 L 46.993007 13.824197 L 47.832168 13.806598 L 48.671329 13.227396 L 49.510490 17.566795 L 50.349650 11.716520 L 51.188811 12.912549 L 52.027972 10.798561 L 52.867133 9.366943 L 53.706294 10.185860 L 54.545455 9.933400 L 55.384615 11.963275 L 56.223776 8.800000 L 57.062937 9.608964 L 57.902098 16.864277 L 58.741259 11.482145 L 59.580420 11.478868 L 60.419580 9.742356 L 61.258741 9.083168 L 62.097902 11.301539 L 62.937063 11.524505 L 63.776224 12.161359 L 64.615385 14.513364 L 65.454545 15.555369 L 66.293706 12.603286 L 67.132867 11.259058 L 67.972028 11.475348 L 68.811189 12.944350 L 69.650350 17.306203 L 70.489510 13.455096 L 71.328671 13.917777 L 72.167832 14.084789 L 73.006993 14.084789 L 73.846154 18.359860 L 74.685315 16.959071 L 75.524476 16.744722 L 76.363636 15.025203 L 77.202797 22.518653 L 78.041958 24.667476 L 78.881119 21.776809 L 79.720280 21.895271 L 80.559441 23.698661 L 81.398601 25.910720 L 82.237762 24.567099 L 83.076923 25.004777 L 83.916084 16.463132 L 84.755245 13.485197 L 85.594406 13.748216 L 86.433566 14.290277 L 87.272727 14.229954 L 88.111888 14.351207 L 88.951049 14.139044 L 89.790210 14.027500 L 90.629371 14.181646 L 91.468531 14.293069 L 92.307692 14.030049 L 93.146853 16.174745 L 93.986014 18.151701 L 94.825175 12.738498 L 95.664336 13.036473 L 96.503497 13.076284 L 97.342657 14.263696 L 98.181818 18.597512 L 99.020979 15.837808 L 99.860140 18.090771 L 100.699301 20.525190 L 101.538462 23.980736 L 102.377622 11.228471 L 103.216783 16.351467 L 104.055944 20.619619 L 104.895105 22.559071 L 105.734266 18.151216 L 106.573427 18.924982 L 107.412587 19.574945 L 108.251748 12.722719 L 109.090909 22.343387 L 109.930070 21.605670 L 110.769231 20.339850 L 111.608392 19.526152 L 112.447552 16.289202 L 113.286713 18.212996 L 114.125874 19.163848 L 114.965035 22.918341 L 115.804196 34.085691 L 116.643357 36.800000 L 117.482517 21.339130 L 118.321678 21.166414 L 119.160839 22.867970 L 120.000000 27.640314"></path>
      <path stroke="none" fill-opacity="0.6" fill="url(#color_grad)" d="M 0 40 L 0.000000 25.470736 L 0.839161 15.485821 L 1.678322 19.162270 L 2.517483 16.702484 L 3.356643 22.278573 L 4.195804 19.373341 L 5.034965 19.421041 L 5.874126 21.381976 L 6.713287 20.190559 L 7.552448 24.816888 L 8.391608 24.963509 L 9.230769 24.115584 L 10.069930 20.677637 L 10.909091 20.298461 L 11.748252 21.177580 L 12.587413 21.491942 L 13.426573 21.682258 L 14.265734 21.019307 L 15.104895 20.227821 L 15.944056 20.324314 L 16.783217 19.934579 L 17.622378 19.674715 L 18.461538 19.341176 L 19.300699 19.829832 L 20.139860 19.362417 L 20.979021 19.457939 L 21.818182 19.121366 L 22.657343 19.139451 L 23.496503 20.571676 L 24.335664 20.852053 L 25.174825 21.377970 L 26.013986 17.196480 L 26.853147 17.869747 L 27.692308 18.331822 L 28.531469 17.887225 L 29.370629 17.711474 L 30.209790 17.227188 L 31.048951 19.113598 L 31.888112 20.274550 L 32.727273 19.506368 L 33.566434 19.479544 L 34.405594 20.399081 L 35.244755 18.653587 L 36.083916 16.681486 L 36.923077 16.323794 L 37.762238 16.176323 L 38.601399 13.464199 L 39.440559 13.408852 L 40.279720 14.897638 L 41.118881 19.412059 L 41.958042 14.188322 L 42.797203 16.511318 L 43.636364 15.823607 L 44.475524 15.629529 L 45.314685 14.627457 L 46.153846 13.278374 L 46.993007 13.824197 L 47.832168 13.806598 L 48.671329 13.227396 L 49.510490 17.566795 L 50.349650 11.716520 L 51.188811 12.912549 L 52.027972 10.798561 L 52.867133 9.366943 L 53.706294 10.185860 L 54.545455 9.933400 L 55.384615 11.963275 L 56.223776 8.800000 L 57.062937 9.608964 L 57.902098 16.864277 L 58.741259 11.482145 L 59.580420 11.478868 L 60.419580 9.742356 L 61.258741 9.083168 L 62.097902 11.301539 L 62.937063 11.524505 L 63.776224 12.161359 L 64.615385 14.513364 L 65.454545 15.555369 L 66.293706 12.603286 L 67.132867 11.259058 L 67.972028 11.475348 L 68.811189 12.944350 L 69.650350 17.306203 L 70.489510 13.455096 L 71.328671 13.917777 L 72.167832 14.084789 L 73.006993 14.084789 L 73.846154 18.359860 L 74.685315 16.959071 L 75.524476 16.744722 L 76.363636 15.025203 L 77.202797 22.518653 L 78.041958 24.667476 L 78.881119 21.776809 L 79.720280 21.895271 L 80.559441 23.698661 L 81.398601 25.910720 L 82.237762 24.567099 L 83.076923 25.004777 L 83.916084 16.463132 L 84.755245 13.485197 L 85.594406 13.748216 L 86.433566 14.290277 L 87.272727 14.229954 L 88.111888 14.351207 L 88.951049 14.139044 L 89.790210 14.027500 L 90.629371 14.181646 L 91.468531 14.293069 L 92.307692 14.030049 L 93.146853 16.174745 L 93.986014 18.151701 L 94.825175 12.738498 L 95.664336 13.036473 L 96.503497 13.076284 L 97.342657 14.263696 L 98.181818 18.597512 L 99.020979 15.837808 L 99.860140 18.090771 L 100.699301 20.525190 L 101.538462 23.980736 L 102.377622 11.228471 L 103.216783 16.351467 L 104.055944 20.619619 L 104.895105 22.559071 L 105.734266 18.151216 L 106.573427 18.924982 L 107.412587 19.574945 L 108.251748 12.722719 L 109.090909 22.343387 L 109.930070 21.605670 L 110.769231 20.339850 L 111.608392 19.526152 L 112.447552 16.289202 L 113.286713 18.212996 L 114.125874 19.163848 L 114.965035 22.918341 L 115.804196 34.085691 L 116.643357 36.800000 L 117.482517 21.339130 L 118.321678 21.166414 L 119.160839 22.867970 L 120.000000 27.640314 L 120 40 Z"></path>
    </g>
  </svg>