<svg xmlns="http://www.w3.org/2000/svg" viewBox="0 0 120 40" width="120" height="40">
    <defs>
      <linearGradient id="color_grad" x1="0%" x2="0%" y1="0%" y2="100%">
        <stop offset="0%" style="stop-color:#EA3943;stop-opacity:0.4;"></stop>
        <stop offset="100%" style="stop-color:#EA3943;stop-opacity:0.0;"></stop>
      </linearGradient>
    </defs>
    <g>
      <path stroke="#EA3943" stroke-width="2" stroke-linecap="round" stroke-linejoin="round" fill="none" d="M 0.000000 14.186912 L 0.839161 9.613119 L 1.678322 9.613119 L 2.517483 9.613119 L 3.356643 9.613119 L 4.195804 10.883617 L 5.034965 9.613119 L 5.874126 9.709072 L 6.713287 9.613119 L 7.552448 9.613119 L 8.391608 9.613119 L 9.230769 9.613119 L 10.069930 9.613119 L 10.909091 9.613119 L 11.748252 8.800000 L 12.587413 8.800000 L 13.426573 8.800000 L 14.265734 8.800000 L 15.104895 10.146728 L 15.944056 10.146728 L 16.783217 10.146728 L 17.622378 10.146728 L 18.461538 10.146728 L 19.300699 10.177024 L 20.139860 10.286483 L 20.979021 10.286483 L 21.818182 10.286483 L 22.657343 10.286483 L 23.496503 10.286483 L 24.335664 10.286483 L 25.174825 11.493456 L 26.013986 11.493456 L 26.853147 14.186912 L 27.692308 14.186912 L 28.531469 14.186912 L 29.370629 14.186912 L 30.209790 14.186912 L 31.048951 14.186912 L 31.888112 12.793806 L 32.727273 8.977870 L 33.566434 8.926339 L 34.405594 10.883617 L 35.244755 14.695111 L 36.083916 14.696888 L 36.923077 14.822161 L 37.762238 14.822161 L 38.601399 14.822161 L 39.440559 14.840818 L 40.279720 14.949211 L 41.118881 14.949211 L 41.958042 14.949211 L 42.797203 14.985460 L 43.636364 14.695111 L 44.475524 14.695111 L 45.314685 8.977870 L 46.153846 11.518866 L 46.993007 11.518866 L 47.832168 11.518866 L 48.671329 11.518866 L 49.510490 11.518866 L 50.349650 11.518866 L 51.188811 11.518866 L 52.027972 11.518866 L 52.867133 11.518866 L 53.706294 11.518866 L 54.545455 11.518866 L 55.384615 11.518866 L 56.223776 11.518866 L 57.062937 11.518866 L 57.902098 11.518866 L 58.741259 11.518866 L 59.580420 11.518866 L 60.419580 16.473808 L 61.258741 16.473808 L 62.097902 16.473808 L 62.937063 16.473808 L 63.776224 8.977870 L 64.615385 14.186912 L 65.454545 14.186912 L 66.293706 12.154115 L 67.132867 12.154115 L 67.972028 13.577428 L 68.811189 22.158176 L 69.650350 24.859095 L 70.489510 25.498787 L 71.328671 24.859095 L 72.167832 24.859095 L 73.006993 24.859095 L 73.846154 16.258801 L 74.685315 19.208489 L 75.524476 20.920551 L 76.363636 21.012951 L 77.202797 24.445961 L 78.041958 20.948982 L 78.881119 26.256643 L 79.720280 26.256643 L 80.559441 29.305838 L 81.398601 21.428751 L 82.237762 21.428751 L 83.076923 21.428751 L 83.916084 24.936391 L 84.755245 21.428751 L 85.594406 21.428751 L 86.433566 21.428751 L 87.272727 21.428751 L 88.111888 21.428751 L 88.951049 21.428751 L 89.790210 21.428751 L 90.629371 21.428751 L 91.468531 21.428751 L 92.307692 21.428751 L 93.146853 21.428751 L 93.986014 21.428751 L 94.825175 21.428751 L 95.664336 21.555800 L 96.503497 21.682850 L 97.342657 21.682850 L 98.181818 22.837848 L 99.020979 25.113195 L 99.860140 22.906260 L 100.699301 21.809900 L 101.538462 21.809900 L 102.377622 21.817896 L 103.216783 22.529553 L 104.055944 23.315840 L 104.895105 24.986145 L 105.734266 26.425451 L 106.573427 23.940250 L 107.412587 24.737199 L 108.251748 31.846835 L 109.090909 28.081540 L 109.930070 28.924689 L 110.769231 28.924689 L 111.608392 36.800000 L 112.447552 34.387831 L 113.286713 34.387831 L 114.125874 34.387831 L 114.965035 34.387831 L 115.804196 34.387831 L 116.643357 31.309316 L 117.482517 27.400091 L 118.321678 27.400091 L 119.160839 27.400091 L 120.000000 27.400091"></path>
      <path stroke="none" fill-opacity="0.6" fill="url(#color_grad)" d="M 0 40 L 0.000000 14.186912 L 0.839161 9.613119 L 1.678322 9.613119 L 2.517483 9.613119 L 3.356643 9.613119 L 4.195804 10.883617 L 5.034965 9.613119 L 5.874126 9.709072 L 6.713287 9.613119 L 7.552448 9.613119 L 8.391608 9.613119 L 9.230769 9.613119 L 10.069930 9.613119 L 10.909091 9.613119 L 11.748252 8.800000 L 12.587413 8.800000 L 13.426573 8.800000 L 14.265734 8.800000 L 15.104895 10.146728 L 15.944056 10.146728 L 16.783217 10.146728 L 17.622378 10.146728 L 18.461538 10.146728 L 19.300699 10.177024 L 20.139860 10.286483 L 20.979021 10.286483 L 21.818182 10.286483 L 22.657343 10.286483 L 23.496503 10.286483 L 24.335664 10.286483 L 25.174825 11.493456 L 26.013986 11.493456 L 26.853147 14.186912 L 27.692308 14.186912 L 28.531469 14.186912 L 29.370629 14.186912 L 30.209790 14.186912 L 31.048951 14.186912 L 31.888112 12.793806 L 32.727273 8.977870 L 33.566434 8.926339 L 34.405594 10.883617 L 35.244755 14.695111 L 36.083916 14.696888 L 36.923077 14.822161 L 37.762238 14.822161 L 38.601399 14.822161 L 39.440559 14.840818 L 40.279720 14.949211 L 41.118881 14.949211 L 41.958042 14.949211 L 42.797203 14.985460 L 43.636364 14.695111 L 44.475524 14.695111 L 45.314685 8.977870 L 46.153846 11.518866 L 46.993007 11.518866 L 47.832168 11.518866 L 48.671329 11.518866 L 49.510490 11.518866 L 50.349650 11.518866 L 51.188811 11.518866 L 52.027972 11.518866 L 52.867133 11.518866 L 53.706294 11.518866 L 54.545455 11.518866 L 55.384615 11.518866 L 56.223776 11.518866 L 57.062937 11.518866 L 57.902098 11.518866 L 58.741259 11.518866 L 59.580420 11.518866 L 60.419580 16.473808 L 61.258741 16.473808 L 62.097902 16.473808 L 62.937063 16.473808 L 63.776224 8.977870 L 64.615385 14.186912 L 65.454545 14.186912 L 66.293706 12.154115 L 67.132867 12.154115 L 67.972028 13.577428 L 68.811189 22.158176 L 69.650350 24.859095 L 70.489510 25.498787 L 71.328671 24.859095 L 72.167832 24.859095 L 73.006993 24.859095 L 73.846154 16.258801 L 74.685315 19.208489 L 75.524476 20.920551 L 76.363636 21.012951 L 77.202797 24.445961 L 78.041958 20.948982 L 78.881119 26.256643 L 79.720280 26.256643 L 80.559441 29.305838 L 81.398601 21.428751 L 82.237762 21.428751 L 83.076923 21.428751 L 83.916084 24.936391 L 84.755245 21.428751 L 85.594406 21.428751 L 86.433566 21.428751 L 87.272727 21.428751 L 88.111888 21.428751 L 88.951049 21.428751 L 89.790210 21.428751 L 90.629371 21.428751 L 91.468531 21.428751 L 92.307692 21.428751 L 93.146853 21.428751 L 93.986014 21.428751 L 94.825175 21.428751 L 95.664336 21.555800 L 96.503497 21.682850 L 97.342657 21.682850 L 98.181818 22.837848 L 99.020979 25.113195 L 99.860140 22.906260 L 100.699301 21.809900 L 101.538462 21.809900 L 102.377622 21.817896 L 103.216783 22.529553 L 104.055944 23.315840 L 104.895105 24.986145 L 105.734266 26.425451 L 106.573427 23.940250 L 107.412587 24.737199 L 108.251748 31.846835 L 109.090909 28.081540 L 109.930070 28.924689 L 110.769231 28.924689 L 111.608392 36.800000 L 112.447552 34.387831 L 113.286713 34.387831 L 114.125874 34.387831 L 114.965035 34.387831 L 115.804196 34.387831 L 116.643357 31.309316 L 117.482517 27.400091 L 118.321678 27.400091 L 119.160839 27.400091 L 120.000000 27.400091 L 120 40 Z"></path>
    </g>
  </svg>