<svg xmlns="http://www.w3.org/2000/svg" viewBox="0 0 120 40" width="120" height="40">
    <defs>
      <linearGradient id="color_grad" x1="0%" x2="0%" y1="0%" y2="100%">
        <stop offset="0%" style="stop-color:#16C784;stop-opacity:0.4;"></stop>
        <stop offset="100%" style="stop-color:#16C784;stop-opacity:0.0;"></stop>
      </linearGradient>
    </defs>
    <g>
      <path stroke="#16C784" stroke-width="2" stroke-linecap="round" stroke-linejoin="round" fill="none" d="M 0.000000 26.827648 L 0.839161 20.684144 L 1.678322 22.100594 L 2.517483 22.562322 L 3.356643 23.808635 L 4.195804 25.081419 L 5.034965 22.808615 L 5.874126 23.413664 L 6.713287 24.909967 L 7.552448 24.388529 L 8.391608 24.638111 L 9.230769 23.161482 L 10.069930 24.573202 L 10.909091 23.350133 L 11.748252 22.954787 L 12.587413 23.473374 L 13.426573 23.809105 L 14.265734 22.697060 L 15.104895 22.862717 L 15.944056 23.044413 L 16.783217 22.196266 L 17.622378 21.023446 L 18.461538 20.030130 L 19.300699 20.304617 L 20.139860 20.599467 L 20.979021 20.759799 L 21.818182 20.186609 L 22.657343 20.224013 L 23.496503 20.734894 L 24.335664 21.192800 L 25.174825 23.490917 L 26.013986 24.373335 L 26.853147 26.517668 L 27.692308 26.409652 L 28.531469 25.675943 L 29.370629 25.403429 L 30.209790 24.616433 L 31.048951 27.496104 L 31.888112 25.964433 L 32.727273 22.397981 L 33.566434 20.488037 L 34.405594 22.091853 L 35.244755 27.532098 L 36.083916 24.265602 L 36.923077 23.862737 L 37.762238 20.571962 L 38.601399 19.160869 L 39.440559 19.091323 L 40.279720 21.677115 L 41.118881 21.261751 L 41.958042 20.253805 L 42.797203 21.312877 L 43.636364 19.805829 L 44.475524 19.490586 L 45.314685 10.990007 L 46.153846 13.962124 L 46.993007 15.843592 L 47.832168 15.815773 L 48.671329 14.849586 L 49.510490 15.250979 L 50.349650 15.281460 L 51.188811 16.071401 L 52.027972 12.585867 L 52.867133 12.172131 L 53.706294 13.513960 L 54.545455 14.043229 L 55.384615 12.531358 L 56.223776 12.204523 L 57.062937 13.530626 L 57.902098 14.150336 L 58.741259 15.650304 L 59.580420 15.645323 L 60.419580 18.758067 L 61.258741 16.177850 L 62.097902 17.442364 L 62.937063 17.318028 L 63.776224 8.800000 L 64.615385 17.045577 L 65.454545 18.783222 L 66.293706 16.287808 L 67.132867 15.131184 L 67.972028 18.091585 L 68.811189 27.573795 L 69.650350 34.212829 L 70.489510 35.283147 L 71.328671 32.865643 L 72.167832 32.826046 L 73.006993 32.826046 L 73.846154 24.896183 L 74.685315 26.097416 L 75.524476 27.747001 L 76.363636 24.399211 L 77.202797 31.831352 L 78.041958 31.332407 L 78.881119 33.726697 L 79.720280 33.910148 L 80.559441 36.800000 L 81.398601 28.959074 L 82.237762 26.763491 L 83.076923 27.518910 L 83.916084 32.060289 L 84.755245 23.110983 L 85.594406 23.546616 L 86.433566 24.415032 L 87.272727 23.875894 L 88.111888 24.516280 L 88.951049 23.106002 L 89.790210 22.923115 L 90.629371 23.181406 L 91.468531 23.337916 L 92.307692 22.953346 L 93.146853 22.396320 L 93.986014 21.929204 L 94.825175 20.830973 L 95.664336 21.481290 L 96.503497 21.713016 L 97.342657 20.361664 L 98.181818 21.751674 L 99.020979 22.652356 L 99.860140 19.689449 L 100.699301 14.938179 L 101.538462 19.994637 L 102.377622 19.967414 L 103.216783 20.655072 L 104.055944 22.662193 L 104.895105 23.526160 L 105.734266 21.992390 L 106.573427 19.208580 L 107.412587 22.165691 L 108.251748 28.975427 L 109.090909 26.999508 L 109.930070 26.783289 L 110.769231 24.664958 L 111.608392 33.248459 L 112.447552 27.469288 L 113.286713 28.306314 L 114.125874 28.484752 L 114.965035 29.623112 L 115.804196 30.194234 L 116.643357 22.282322 L 117.482517 20.992495 L 118.321678 23.106785 L 119.160839 22.843858 L 120.000000 24.731121"></path>
      <path stroke="none" fill-opacity="0.6" fill="url(#color_grad)" d="M 0 40 L 0.000000 26.827648 L 0.839161 20.684144 L 1.678322 22.100594 L 2.517483 22.562322 L 3.356643 23.808635 L 4.195804 25.081419 L 5.034965 22.808615 L 5.874126 23.413664 L 6.713287 24.909967 L 7.552448 24.388529 L 8.391608 24.638111 L 9.230769 23.161482 L 10.069930 24.573202 L 10.909091 23.350133 L 11.748252 22.954787 L 12.587413 23.473374 L 13.426573 23.809105 L 14.265734 22.697060 L 15.104895 22.862717 L 15.944056 23.044413 L 16.783217 22.196266 L 17.622378 21.023446 L 18.461538 20.030130 L 19.300699 20.304617 L 20.139860 20.599467 L 20.979021 20.759799 L 21.818182 20.186609 L 22.657343 20.224013 L 23.496503 20.734894 L 24.335664 21.192800 L 25.174825 23.490917 L 26.013986 24.373335 L 26.853147 26.517668 L 27.692308 26.409652 L 28.531469 25.675943 L 29.370629 25.403429 L 30.209790 24.616433 L 31.048951 27.496104 L 31.888112 25.964433 L 32.727273 22.397981 L 33.566434 20.488037 L 34.405594 22.091853 L 35.244755 27.532098 L 36.083916 24.265602 L 36.923077 23.862737 L 37.762238 20.571962 L 38.601399 19.160869 L 39.440559 19.091323 L 40.279720 21.677115 L 41.118881 21.261751 L 41.958042 20.253805 L 42.797203 21.312877 L 43.636364 19.805829 L 44.475524 19.490586 L 45.314685 10.990007 L 46.153846 13.962124 L 46.993007 15.843592 L 47.832168 15.815773 L 48.671329 14.849586 L 49.510490 15.250979 L 50.349650 15.281460 L 51.188811 16.071401 L 52.027972 12.585867 L 52.867133 12.172131 L 53.706294 13.513960 L 54.545455 14.043229 L 55.384615 12.531358 L 56.223776 12.204523 L 57.062937 13.530626 L 57.902098 14.150336 L 58.741259 15.650304 L 59.580420 15.645323 L 60.419580 18.758067 L 61.258741 16.177850 L 62.097902 17.442364 L 62.937063 17.318028 L 63.776224 8.800000 L 64.615385 17.045577 L 65.454545 18.783222 L 66.293706 16.287808 L 67.132867 15.131184 L 67.972028 18.091585 L 68.811189 27.573795 L 69.650350 34.212829 L 70.489510 35.283147 L 71.328671 32.865643 L 72.167832 32.826046 L 73.006993 32.826046 L 73.846154 24.896183 L 74.685315 26.097416 L 75.524476 27.747001 L 76.363636 24.399211 L 77.202797 31.831352 L 78.041958 31.332407 L 78.881119 33.726697 L 79.720280 33.910148 L 80.559441 36.800000 L 81.398601 28.959074 L 82.237762 26.763491 L 83.076923 27.518910 L 83.916084 32.060289 L 84.755245 23.110983 L 85.594406 23.546616 L 86.433566 24.415032 L 87.272727 23.875894 L 88.111888 24.516280 L 88.951049 23.106002 L 89.790210 22.923115 L 90.629371 23.181406 L 91.468531 23.337916 L 92.307692 22.953346 L 93.146853 22.396320 L 93.986014 21.929204 L 94.825175 20.830973 L 95.664336 21.481290 L 96.503497 21.713016 L 97.342657 20.361664 L 98.181818 21.751674 L 99.020979 22.652356 L 99.860140 19.689449 L 100.699301 14.938179 L 101.538462 19.994637 L 102.377622 19.967414 L 103.216783 20.655072 L 104.055944 22.662193 L 104.895105 23.526160 L 105.734266 21.992390 L 106.573427 19.208580 L 107.412587 22.165691 L 108.251748 28.975427 L 109.090909 26.999508 L 109.930070 26.783289 L 110.769231 24.664958 L 111.608392 33.248459 L 112.447552 27.469288 L 113.286713 28.306314 L 114.125874 28.484752 L 114.965035 29.623112 L 115.804196 30.194234 L 116.643357 22.282322 L 117.482517 20.992495 L 118.321678 23.106785 L 119.160839 22.843858 L 120.000000 24.731121 L 120 40 Z"></path>
    </g>
  </svg>