<svg xmlns="http://www.w3.org/2000/svg" viewBox="0 0 120 40" width="120" height="40">
    <defs>
      <linearGradient id="color_grad" x1="0%" x2="0%" y1="0%" y2="100%">
        <stop offset="0%" style="stop-color:#EA3943;stop-opacity:0.4;"></stop>
        <stop offset="100%" style="stop-color:#EA3943;stop-opacity:0.0;"></stop>
      </linearGradient>
    </defs>
    <g>
      <path stroke="#EA3943" stroke-width="2" stroke-linecap="round" stroke-linejoin="round" fill="none" d="M 0.000000 21.523228 L 0.839161 20.052198 L 1.678322 10.388476 L 2.517483 8.800000 L 3.356643 10.460841 L 4.195804 11.768753 L 5.034965 20.310221 L 5.874126 11.768753 L 6.713287 11.768753 L 7.552448 11.768753 L 8.391608 10.920538 L 9.230769 10.920538 L 10.069930 10.920538 L 10.909091 10.920538 L 11.748252 10.920538 L 12.587413 10.920538 L 13.426573 10.920538 L 14.265734 10.920538 L 15.104895 10.920538 L 15.944056 10.920538 L 16.783217 10.920538 L 17.622378 10.920538 L 18.461538 10.920538 L 19.300699 10.920538 L 20.139860 10.920538 L 20.979021 15.161614 L 21.818182 12.489736 L 22.657343 10.962949 L 23.496503 11.387056 L 24.335664 11.387056 L 25.174825 11.565004 L 26.013986 14.036988 L 26.853147 11.768753 L 27.692308 11.768753 L 28.531469 11.768753 L 29.370629 11.768753 L 30.209790 12.192861 L 31.048951 12.118716 L 31.888112 12.259591 L 32.727273 12.404915 L 33.566434 13.083487 L 34.405594 13.184917 L 35.244755 13.083487 L 36.083916 13.083487 L 36.923077 13.083487 L 37.762238 13.083487 L 38.601399 13.248978 L 39.440559 14.313399 L 40.279720 15.161614 L 41.118881 15.161614 L 41.958042 15.161614 L 42.797203 14.313399 L 43.636364 14.313399 L 44.475524 14.313399 L 45.314685 14.313399 L 46.153846 14.313399 L 46.993007 14.313399 L 47.832168 14.313399 L 48.671329 14.313399 L 49.510490 14.313399 L 50.349650 14.313399 L 51.188811 14.313399 L 52.027972 14.313399 L 52.867133 14.313399 L 53.706294 14.313399 L 54.545455 14.313399 L 55.384615 14.313399 L 56.223776 14.313399 L 57.062937 14.313399 L 57.902098 14.313399 L 58.741259 14.313399 L 59.580420 14.313399 L 60.419580 14.313399 L 61.258741 14.313399 L 62.097902 14.313399 L 62.937063 14.313399 L 63.776224 14.313399 L 64.615385 14.313399 L 65.454545 14.313399 L 66.293706 14.313399 L 67.132867 14.313399 L 67.972028 17.729986 L 68.811189 14.313399 L 69.650350 14.313399 L 70.489510 16.730812 L 71.328671 18.883678 L 72.167832 18.978583 L 73.006993 18.978583 L 73.846154 18.978583 L 74.685315 18.978583 L 75.524476 19.402690 L 76.363636 19.414257 L 77.202797 21.466879 L 78.041958 21.947336 L 78.881119 21.947336 L 79.720280 21.947336 L 80.559441 10.920538 L 81.398601 13.041076 L 82.237762 14.538799 L 83.076923 15.161614 L 83.916084 15.161614 L 84.755245 15.161614 L 85.594406 15.161614 L 86.433566 15.161614 L 87.272727 15.161614 L 88.111888 16.075967 L 88.951049 16.476348 L 89.790210 16.476348 L 90.629371 16.476348 L 91.468531 16.476348 L 92.307692 16.476348 L 93.146853 16.476348 L 93.986014 16.476348 L 94.825175 16.476348 L 95.664336 19.445101 L 96.503497 21.743586 L 97.342657 24.501472 L 98.181818 24.534393 L 99.020979 25.337231 L 99.860140 24.916089 L 100.699301 20.631120 L 101.538462 19.445101 L 102.377622 19.445101 L 103.216783 23.898231 L 104.055944 23.898231 L 104.895105 21.565639 L 105.734266 21.989747 L 106.573427 22.201801 L 107.412587 22.201801 L 108.251748 27.884843 L 109.090909 22.413854 L 109.930070 22.413854 L 110.769231 22.981506 L 111.608392 32.071348 L 112.447552 36.409406 L 113.286713 36.372037 L 114.125874 36.800000 L 114.965035 31.037475 L 115.804196 24.916089 L 116.643357 24.916089 L 117.482517 26.368436 L 118.321678 27.884843 L 119.160839 25.302532 L 120.000000 24.958500"></path>
      <path stroke="none" fill-opacity="0.6" fill="url(#color_grad)" d="M 0 40 L 0.000000 21.523228 L 0.839161 20.052198 L 1.678322 10.388476 L 2.517483 8.800000 L 3.356643 10.460841 L 4.195804 11.768753 L 5.034965 20.310221 L 5.874126 11.768753 L 6.713287 11.768753 L 7.552448 11.768753 L 8.391608 10.920538 L 9.230769 10.920538 L 10.069930 10.920538 L 10.909091 10.920538 L 11.748252 10.920538 L 12.587413 10.920538 L 13.426573 10.920538 L 14.265734 10.920538 L 15.104895 10.920538 L 15.944056 10.920538 L 16.783217 10.920538 L 17.622378 10.920538 L 18.461538 10.920538 L 19.300699 10.920538 L 20.139860 10.920538 L 20.979021 15.161614 L 21.818182 12.489736 L 22.657343 10.962949 L 23.496503 11.387056 L 24.335664 11.387056 L 25.174825 11.565004 L 26.013986 14.036988 L 26.853147 11.768753 L 27.692308 11.768753 L 28.531469 11.768753 L 29.370629 11.768753 L 30.209790 12.192861 L 31.048951 12.118716 L 31.888112 12.259591 L 32.727273 12.404915 L 33.566434 13.083487 L 34.405594 13.184917 L 35.244755 13.083487 L 36.083916 13.083487 L 36.923077 13.083487 L 37.762238 13.083487 L 38.601399 13.248978 L 39.440559 14.313399 L 40.279720 15.161614 L 41.118881 15.161614 L 41.958042 15.161614 L 42.797203 14.313399 L 43.636364 14.313399 L 44.475524 14.313399 L 45.314685 14.313399 L 46.153846 14.313399 L 46.993007 14.313399 L 47.832168 14.313399 L 48.671329 14.313399 L 49.510490 14.313399 L 50.349650 14.313399 L 51.188811 14.313399 L 52.027972 14.313399 L 52.867133 14.313399 L 53.706294 14.313399 L 54.545455 14.313399 L 55.384615 14.313399 L 56.223776 14.313399 L 57.062937 14.313399 L 57.902098 14.313399 L 58.741259 14.313399 L 59.580420 14.313399 L 60.419580 14.313399 L 61.258741 14.313399 L 62.097902 14.313399 L 62.937063 14.313399 L 63.776224 14.313399 L 64.615385 14.313399 L 65.454545 14.313399 L 66.293706 14.313399 L 67.132867 14.313399 L 67.972028 17.729986 L 68.811189 14.313399 L 69.650350 14.313399 L 70.489510 16.730812 L 71.328671 18.883678 L 72.167832 18.978583 L 73.006993 18.978583 L 73.846154 18.978583 L 74.685315 18.978583 L 75.524476 19.402690 L 76.363636 19.414257 L 77.202797 21.466879 L 78.041958 21.947336 L 78.881119 21.947336 L 79.720280 21.947336 L 80.559441 10.920538 L 81.398601 13.041076 L 82.237762 14.538799 L 83.076923 15.161614 L 83.916084 15.161614 L 84.755245 15.161614 L 85.594406 15.161614 L 86.433566 15.161614 L 87.272727 15.161614 L 88.111888 16.075967 L 88.951049 16.476348 L 89.790210 16.476348 L 90.629371 16.476348 L 91.468531 16.476348 L 92.307692 16.476348 L 93.146853 16.476348 L 93.986014 16.476348 L 94.825175 16.476348 L 95.664336 19.445101 L 96.503497 21.743586 L 97.342657 24.501472 L 98.181818 24.534393 L 99.020979 25.337231 L 99.860140 24.916089 L 100.699301 20.631120 L 101.538462 19.445101 L 102.377622 19.445101 L 103.216783 23.898231 L 104.055944 23.898231 L 104.895105 21.565639 L 105.734266 21.989747 L 106.573427 22.201801 L 107.412587 22.201801 L 108.251748 27.884843 L 109.090909 22.413854 L 109.930070 22.413854 L 110.769231 22.981506 L 111.608392 32.071348 L 112.447552 36.409406 L 113.286713 36.372037 L 114.125874 36.800000 L 114.965035 31.037475 L 115.804196 24.916089 L 116.643357 24.916089 L 117.482517 26.368436 L 118.321678 27.884843 L 119.160839 25.302532 L 120.000000 24.958500 L 120 40 Z"></path>
    </g>
  </svg>