<svg xmlns="http://www.w3.org/2000/svg" viewBox="0 0 120 40" width="120" height="40">
    <defs>
      <linearGradient id="color_grad" x1="0%" x2="0%" y1="0%" y2="100%">
        <stop offset="0%" style="stop-color:#888888;stop-opacity:0.4;"></stop>
        <stop offset="100%" style="stop-color:#888888;stop-opacity:0.0;"></stop>
      </linearGradient>
    </defs>
    <g>
      <path stroke="#888888" stroke-width="2" stroke-linecap="round" stroke-linejoin="round" fill="none" d="M 0.000000 36.768047 L 0.839161 33.883069 L 1.678322 23.962573 L 2.517483 22.637964 L 3.356643 26.225823 L 4.195804 27.577044 L 5.034965 36.800000 L 5.874126 27.154081 L 6.713287 29.196211 L 7.552448 28.532731 L 8.391608 27.835997 L 9.230769 25.952681 L 10.069930 27.751460 L 10.909091 26.194267 L 11.748252 26.863054 L 12.587413 27.523676 L 13.426573 27.950612 L 14.265734 26.540075 L 15.104895 24.794201 L 15.944056 25.027921 L 16.783217 23.943717 L 17.622378 22.440798 L 18.461538 21.175438 L 19.300699 21.483147 L 20.139860 21.701431 L 20.979021 27.079396 L 21.818182 23.089504 L 22.657343 21.278070 L 23.496503 22.448510 L 24.335664 23.034073 L 25.174825 24.405761 L 26.013986 28.517119 L 26.853147 24.566031 L 27.692308 24.427949 L 28.531469 23.473752 L 29.370629 23.116580 L 30.209790 22.611672 L 31.048951 26.258592 L 31.888112 26.514477 L 32.727273 27.686407 L 33.566434 26.172134 L 34.405594 25.478457 L 35.244755 26.722655 L 36.083916 22.480132 L 36.923077 21.769165 L 37.762238 17.495164 L 38.601399 15.875501 L 39.440559 17.093903 L 40.279720 21.318044 L 41.118881 20.785895 L 41.958042 19.494584 L 42.797203 19.741654 L 43.636364 18.241306 L 44.475524 17.833138 L 45.314685 15.698901 L 46.153846 15.609432 L 46.993007 17.995990 L 47.832168 17.960242 L 48.671329 16.733620 L 49.510490 17.242324 L 50.349650 17.281459 L 51.188811 18.286388 L 52.027972 13.862477 L 52.867133 13.337477 L 53.706294 15.041545 L 54.545455 15.716444 L 55.384615 13.794876 L 56.223776 13.381026 L 57.062937 15.058316 L 57.902098 15.847896 L 58.741259 17.752131 L 59.580420 17.747508 L 60.419580 14.125490 L 61.258741 10.765062 L 62.097902 12.412408 L 62.937063 12.252082 L 63.776224 12.955525 L 64.615385 15.463913 L 65.454545 17.702999 L 66.293706 17.598492 L 67.132867 16.126223 L 67.972028 22.032763 L 68.811189 16.771961 L 69.650350 21.433586 L 70.489510 24.856418 L 71.328671 25.295281 L 72.167832 25.360775 L 73.006993 25.360775 L 73.846154 28.196755 L 74.685315 25.289676 L 75.524476 25.332894 L 76.363636 20.835445 L 77.202797 27.804133 L 78.041958 33.096909 L 78.881119 28.062137 L 79.720280 28.301737 L 80.559441 13.496755 L 81.398601 18.207003 L 82.237762 17.143200 L 83.076923 18.930758 L 83.916084 19.436107 L 84.755245 13.053081 L 85.594406 13.633745 L 86.433566 14.793990 L 87.272727 14.073269 L 88.111888 16.094226 L 88.951049 14.727668 L 89.790210 14.487583 L 90.629371 14.826318 L 91.468531 15.040585 L 92.307692 14.526961 L 93.146853 13.790496 L 93.986014 13.173323 L 94.825175 11.716700 L 95.664336 16.205774 L 96.503497 19.263369 L 97.342657 21.089312 L 98.181818 21.088462 L 99.020979 19.670390 L 99.860140 18.836787 L 100.699301 8.800000 L 101.538462 13.842694 L 102.377622 13.798241 L 103.216783 19.347653 L 104.055944 20.679048 L 104.895105 16.092483 L 105.734266 12.251045 L 106.573427 14.255849 L 107.412587 15.705577 L 108.251748 20.293476 L 109.090909 16.728655 L 109.930070 15.036933 L 110.769231 12.940332 L 111.608392 23.236049 L 112.447552 25.455298 L 113.286713 26.490105 L 114.125874 27.294502 L 114.965035 21.074020 L 115.804196 13.672880 L 116.643357 14.887012 L 117.482517 15.125322 L 118.321678 19.901958 L 119.160839 16.138051 L 120.000000 18.175613"></path>
      <path stroke="none" fill-opacity="0.6" fill="url(#color_grad)" d="M 0 40 L 0.000000 36.768047 L 0.839161 33.883069 L 1.678322 23.962573 L 2.517483 22.637964 L 3.356643 26.225823 L 4.195804 27.577044 L 5.034965 36.800000 L 5.874126 27.154081 L 6.713287 29.196211 L 7.552448 28.532731 L 8.391608 27.835997 L 9.230769 25.952681 L 10.069930 27.751460 L 10.909091 26.194267 L 11.748252 26.863054 L 12.587413 27.523676 L 13.426573 27.950612 L 14.265734 26.540075 L 15.104895 24.794201 L 15.944056 25.027921 L 16.783217 23.943717 L 17.622378 22.440798 L 18.461538 21.175438 L 19.300699 21.483147 L 20.139860 21.701431 L 20.979021 27.079396 L 21.818182 23.089504 L 22.657343 21.278070 L 23.496503 22.448510 L 24.335664 23.034073 L 25.174825 24.405761 L 26.013986 28.517119 L 26.853147 24.566031 L 27.692308 24.427949 L 28.531469 23.473752 L 29.370629 23.116580 L 30.209790 22.611672 L 31.048951 26.258592 L 31.888112 26.514477 L 32.727273 27.686407 L 33.566434 26.172134 L 34.405594 25.478457 L 35.244755 26.722655 L 36.083916 22.480132 L 36.923077 21.769165 L 37.762238 17.495164 L 38.601399 15.875501 L 39.440559 17.093903 L 40.279720 21.318044 L 41.118881 20.785895 L 41.958042 19.494584 L 42.797203 19.741654 L 43.636364 18.241306 L 44.475524 17.833138 L 45.314685 15.698901 L 46.153846 15.609432 L 46.993007 17.995990 L 47.832168 17.960242 L 48.671329 16.733620 L 49.510490 17.242324 L 50.349650 17.281459 L 51.188811 18.286388 L 52.027972 13.862477 L 52.867133 13.337477 L 53.706294 15.041545 L 54.545455 15.716444 L 55.384615 13.794876 L 56.223776 13.381026 L 57.062937 15.058316 L 57.902098 15.847896 L 58.741259 17.752131 L 59.580420 17.747508 L 60.419580 14.125490 L 61.258741 10.765062 L 62.097902 12.412408 L 62.937063 12.252082 L 63.776224 12.955525 L 64.615385 15.463913 L 65.454545 17.702999 L 66.293706 17.598492 L 67.132867 16.126223 L 67.972028 22.032763 L 68.811189 16.771961 L 69.650350 21.433586 L 70.489510 24.856418 L 71.328671 25.295281 L 72.167832 25.360775 L 73.006993 25.360775 L 73.846154 28.196755 L 74.685315 25.289676 L 75.524476 25.332894 L 76.363636 20.835445 L 77.202797 27.804133 L 78.041958 33.096909 L 78.881119 28.062137 L 79.720280 28.301737 L 80.559441 13.496755 L 81.398601 18.207003 L 82.237762 17.143200 L 83.076923 18.930758 L 83.916084 19.436107 L 84.755245 13.053081 L 85.594406 13.633745 L 86.433566 14.793990 L 87.272727 14.073269 L 88.111888 16.094226 L 88.951049 14.727668 L 89.790210 14.487583 L 90.629371 14.826318 L 91.468531 15.040585 L 92.307692 14.526961 L 93.146853 13.790496 L 93.986014 13.173323 L 94.825175 11.716700 L 95.664336 16.205774 L 96.503497 19.263369 L 97.342657 21.089312 L 98.181818 21.088462 L 99.020979 19.670390 L 99.860140 18.836787 L 100.699301 8.800000 L 101.538462 13.842694 L 102.377622 13.798241 L 103.216783 19.347653 L 104.055944 20.679048 L 104.895105 16.092483 L 105.734266 12.251045 L 106.573427 14.255849 L 107.412587 15.705577 L 108.251748 20.293476 L 109.090909 16.728655 L 109.930070 15.036933 L 110.769231 12.940332 L 111.608392 23.236049 L 112.447552 25.455298 L 113.286713 26.490105 L 114.125874 27.294502 L 114.965035 21.074020 L 115.804196 13.672880 L 116.643357 14.887012 L 117.482517 15.125322 L 118.321678 19.901958 L 119.160839 16.138051 L 120.000000 18.175613 L 120 40 Z"></path>
    </g>
  </svg>