<svg xmlns="http://www.w3.org/2000/svg" viewBox="0 0 120 40" width="120" height="40">
    <defs>
      <linearGradient id="color_grad" x1="0%" x2="0%" y1="0%" y2="100%">
        <stop offset="0%" style="stop-color:#16C784;stop-opacity:0.4;"></stop>
        <stop offset="100%" style="stop-color:#16C784;stop-opacity:0.0;"></stop>
      </linearGradient>
    </defs>
    <g>
      <path stroke="#16C784" stroke-width="2" stroke-linecap="round" stroke-linejoin="round" fill="none" d="M 0.000000 28.715758 L 0.839161 28.298343 L 1.678322 29.236082 L 2.517483 29.542887 L 3.356643 32.173589 L 4.195804 32.020257 L 5.034965 31.477526 L 5.874126 31.801605 L 6.713287 32.853242 L 7.552448 34.468298 L 8.391608 29.273458 L 9.230769 28.284601 L 10.069930 29.229066 L 10.909091 28.411392 L 11.748252 28.762192 L 12.587413 29.108721 L 13.426573 29.332926 L 14.265734 28.593064 L 15.104895 29.455897 L 15.944056 31.234217 L 16.783217 30.836165 L 17.622378 30.106874 L 18.461538 29.459030 L 19.300699 29.617132 L 20.139860 29.728215 L 20.979021 29.836580 L 21.818182 29.460245 L 22.657343 29.485111 L 23.496503 29.820358 L 24.335664 30.120462 L 25.174825 32.499219 L 26.013986 31.293152 L 26.853147 30.669156 L 27.692308 31.697286 L 28.531469 31.900887 L 29.370629 31.898210 L 30.209790 31.401218 L 31.048951 33.606445 L 31.888112 35.118648 L 32.727273 36.800000 L 33.566434 34.505444 L 34.405594 34.819085 L 35.244755 35.739089 L 36.083916 34.200306 L 36.923077 34.245640 L 37.762238 32.330219 L 38.601399 31.424158 L 39.440559 29.304330 L 40.279720 30.906118 L 41.118881 30.813746 L 41.958042 30.186255 L 42.797203 31.064283 L 43.636364 31.731107 L 44.475524 31.733144 L 45.314685 30.669360 L 46.153846 30.624410 L 46.993007 31.814226 L 47.832168 31.795821 L 48.671329 31.185571 L 49.510490 31.438888 L 50.349650 31.458175 L 51.188811 31.753399 L 52.027972 30.247687 L 52.867133 30.328360 L 53.706294 31.171800 L 54.545455 31.506143 L 55.384615 30.554598 L 56.223776 30.736688 L 57.062937 33.255048 L 57.902098 33.640351 L 58.741259 34.570146 L 59.580420 33.612169 L 60.419580 31.758786 L 61.258741 30.105817 L 62.097902 20.449751 L 62.937063 21.104120 L 63.776224 21.154402 L 64.615385 22.186939 L 65.454545 24.178523 L 66.293706 24.264144 L 67.132867 25.509318 L 67.972028 29.428738 L 68.811189 20.728322 L 69.650350 25.837020 L 70.489510 26.064145 L 71.328671 22.422648 L 72.167832 22.393937 L 73.006993 22.393937 L 73.846154 27.759908 L 74.685315 26.216731 L 75.524476 25.957844 L 76.363636 23.556879 L 77.202797 25.901245 L 78.041958 28.466192 L 78.881119 25.757460 L 79.720280 25.886420 L 80.559441 21.951341 L 81.398601 23.035677 L 82.237762 21.475536 L 83.076923 22.340816 L 83.916084 22.569024 L 84.755245 19.166608 L 85.594406 19.476106 L 86.433566 20.094420 L 87.272727 19.710882 L 88.111888 20.167518 L 88.951049 19.163211 L 89.790210 19.034289 L 90.629371 18.922723 L 91.468531 19.037984 L 92.307692 18.761971 L 93.146853 18.366131 L 93.986014 18.034934 L 94.825175 17.252474 L 95.664336 17.606637 L 96.503497 17.657265 L 97.342657 16.694139 L 98.181818 16.669934 L 99.020979 15.295479 L 99.860140 15.137804 L 100.699301 12.716083 L 101.538462 16.342598 L 102.377622 16.403152 L 103.216783 16.268839 L 104.055944 17.028231 L 104.895105 16.361680 L 105.734266 13.948411 L 106.573427 14.896068 L 107.412587 15.693574 L 108.251748 18.395315 L 109.090909 16.103534 L 109.930070 15.172747 L 110.769231 13.604639 L 111.608392 12.591180 L 112.447552 8.800000 L 113.286713 10.015829 L 114.125874 10.151276 L 114.965035 11.569875 L 115.804196 13.656243 L 116.643357 15.788120 L 117.482517 15.575764 L 118.321678 19.263988 L 119.160839 19.510822 L 120.000000 19.579228"></path>
      <path stroke="none" fill-opacity="0.6" fill="url(#color_grad)" d="M 0 40 L 0.000000 28.715758 L 0.839161 28.298343 L 1.678322 29.236082 L 2.517483 29.542887 L 3.356643 32.173589 L 4.195804 32.020257 L 5.034965 31.477526 L 5.874126 31.801605 L 6.713287 32.853242 L 7.552448 34.468298 L 8.391608 29.273458 L 9.230769 28.284601 L 10.069930 29.229066 L 10.909091 28.411392 L 11.748252 28.762192 L 12.587413 29.108721 L 13.426573 29.332926 L 14.265734 28.593064 L 15.104895 29.455897 L 15.944056 31.234217 L 16.783217 30.836165 L 17.622378 30.106874 L 18.461538 29.459030 L 19.300699 29.617132 L 20.139860 29.728215 L 20.979021 29.836580 L 21.818182 29.460245 L 22.657343 29.485111 L 23.496503 29.820358 L 24.335664 30.120462 L 25.174825 32.499219 L 26.013986 31.293152 L 26.853147 30.669156 L 27.692308 31.697286 L 28.531469 31.900887 L 29.370629 31.898210 L 30.209790 31.401218 L 31.048951 33.606445 L 31.888112 35.118648 L 32.727273 36.800000 L 33.566434 34.505444 L 34.405594 34.819085 L 35.244755 35.739089 L 36.083916 34.200306 L 36.923077 34.245640 L 37.762238 32.330219 L 38.601399 31.424158 L 39.440559 29.304330 L 40.279720 30.906118 L 41.118881 30.813746 L 41.958042 30.186255 L 42.797203 31.064283 L 43.636364 31.731107 L 44.475524 31.733144 L 45.314685 30.669360 L 46.153846 30.624410 L 46.993007 31.814226 L 47.832168 31.795821 L 48.671329 31.185571 L 49.510490 31.438888 L 50.349650 31.458175 L 51.188811 31.753399 L 52.027972 30.247687 L 52.867133 30.328360 L 53.706294 31.171800 L 54.545455 31.506143 L 55.384615 30.554598 L 56.223776 30.736688 L 57.062937 33.255048 L 57.902098 33.640351 L 58.741259 34.570146 L 59.580420 33.612169 L 60.419580 31.758786 L 61.258741 30.105817 L 62.097902 20.449751 L 62.937063 21.104120 L 63.776224 21.154402 L 64.615385 22.186939 L 65.454545 24.178523 L 66.293706 24.264144 L 67.132867 25.509318 L 67.972028 29.428738 L 68.811189 20.728322 L 69.650350 25.837020 L 70.489510 26.064145 L 71.328671 22.422648 L 72.167832 22.393937 L 73.006993 22.393937 L 73.846154 27.759908 L 74.685315 26.216731 L 75.524476 25.957844 L 76.363636 23.556879 L 77.202797 25.901245 L 78.041958 28.466192 L 78.881119 25.757460 L 79.720280 25.886420 L 80.559441 21.951341 L 81.398601 23.035677 L 82.237762 21.475536 L 83.076923 22.340816 L 83.916084 22.569024 L 84.755245 19.166608 L 85.594406 19.476106 L 86.433566 20.094420 L 87.272727 19.710882 L 88.111888 20.167518 L 88.951049 19.163211 L 89.790210 19.034289 L 90.629371 18.922723 L 91.468531 19.037984 L 92.307692 18.761971 L 93.146853 18.366131 L 93.986014 18.034934 L 94.825175 17.252474 L 95.664336 17.606637 L 96.503497 17.657265 L 97.342657 16.694139 L 98.181818 16.669934 L 99.020979 15.295479 L 99.860140 15.137804 L 100.699301 12.716083 L 101.538462 16.342598 L 102.377622 16.403152 L 103.216783 16.268839 L 104.055944 17.028231 L 104.895105 16.361680 L 105.734266 13.948411 L 106.573427 14.896068 L 107.412587 15.693574 L 108.251748 18.395315 L 109.090909 16.103534 L 109.930070 15.172747 L 110.769231 13.604639 L 111.608392 12.591180 L 112.447552 8.800000 L 113.286713 10.015829 L 114.125874 10.151276 L 114.965035 11.569875 L 115.804196 13.656243 L 116.643357 15.788120 L 117.482517 15.575764 L 118.321678 19.263988 L 119.160839 19.510822 L 120.000000 19.579228 L 120 40 Z"></path>
    </g>
  </svg>