<svg xmlns="http://www.w3.org/2000/svg" viewBox="0 0 120 40" width="120" height="40">
    <defs>
      <linearGradient id="color_grad" x1="0%" x2="0%" y1="0%" y2="100%">
        <stop offset="0%" style="stop-color:#EA3943;stop-opacity:0.4;"></stop>
        <stop offset="100%" style="stop-color:#EA3943;stop-opacity:0.0;"></stop>
      </linearGradient>
    </defs>
    <g>
      <path stroke="#EA3943" stroke-width="2" stroke-linecap="round" stroke-linejoin="round" fill="none" d="M 0.000000 14.056120 L 0.839161 14.428971 L 1.678322 14.428971 L 2.517483 14.428971 L 3.356643 18.248733 L 4.195804 18.157475 L 5.034965 18.157475 L 5.874126 18.157475 L 6.713287 18.157475 L 7.552448 22.300259 L 8.391608 10.949033 L 9.230769 10.949033 L 10.069930 10.949033 L 10.909091 10.949033 L 11.748252 10.949033 L 12.587413 10.949033 L 13.426573 10.949033 L 14.265734 10.949033 L 15.104895 14.679276 L 15.944056 18.157475 L 16.783217 18.487739 L 17.622378 18.571754 L 18.461538 18.571754 L 19.300699 18.571754 L 20.139860 18.571754 L 20.979021 18.571754 L 21.818182 18.571754 L 22.657343 18.571754 L 23.496503 18.571754 L 24.335664 18.571754 L 25.174825 22.300259 L 26.013986 18.571754 L 26.853147 18.571754 L 27.692308 20.866218 L 28.531469 22.300259 L 29.370629 22.671081 L 30.209790 22.714537 L 31.048951 23.366374 L 31.888112 26.443042 L 32.727273 28.928712 L 33.566434 26.566167 L 34.405594 28.074082 L 35.244755 28.566580 L 36.083916 29.763063 L 36.923077 30.585825 L 37.762238 31.000103 L 38.601399 31.000103 L 39.440559 26.857320 L 40.279720 26.857320 L 41.118881 27.216844 L 41.958042 27.271599 L 42.797203 27.711950 L 43.636364 30.585825 L 44.475524 31.000103 L 45.314685 31.000103 L 46.153846 31.000103 L 46.993007 31.000103 L 47.832168 31.000103 L 48.671329 31.000103 L 49.510490 31.000103 L 50.349650 31.000103 L 51.188811 30.585825 L 52.027972 31.976410 L 52.867133 32.657217 L 53.706294 32.657217 L 54.545455 32.657217 L 55.384615 32.657217 L 56.223776 33.424935 L 57.062937 36.800000 L 57.902098 36.800000 L 58.741259 36.800000 L 59.580420 34.873461 L 60.419580 34.728608 L 61.258741 34.728608 L 62.097902 14.014692 L 62.937063 15.477703 L 63.776224 14.843249 L 64.615385 14.269633 L 65.454545 15.905308 L 66.293706 16.187481 L 67.132867 20.228867 L 67.972028 26.443042 L 68.811189 9.954765 L 69.650350 15.298955 L 70.489510 15.298955 L 71.328671 10.327615 L 72.167832 10.327615 L 73.006993 10.327615 L 73.846154 18.157475 L 74.685315 18.157475 L 75.524476 18.157475 L 76.363636 18.157475 L 77.202797 18.157475 L 78.041958 18.240331 L 78.881119 18.240331 L 79.720280 18.240331 L 80.559441 11.363311 L 81.398601 11.363311 L 82.237762 11.363311 L 83.076923 12.026156 L 83.916084 11.943301 L 84.755245 11.943301 L 85.594406 11.943301 L 86.433566 11.943301 L 87.272727 11.943301 L 88.111888 11.943301 L 88.951049 11.943301 L 89.790210 11.943301 L 90.629371 11.363311 L 91.468531 11.363311 L 92.307692 11.363311 L 93.146853 11.363311 L 93.986014 11.363311 L 94.825175 11.363311 L 95.664336 11.363311 L 96.503497 11.363311 L 97.342657 11.363311 L 98.181818 11.363311 L 99.020979 11.363311 L 99.860140 11.363311 L 100.699301 11.363311 L 101.538462 11.404739 L 102.377622 11.570450 L 103.216783 11.570450 L 104.055944 11.611878 L 104.895105 11.984728 L 105.734266 11.984728 L 106.573427 11.984728 L 107.412587 11.984728 L 108.251748 20.228867 L 109.090909 11.984728 L 109.930070 11.984728 L 110.769231 11.984728 L 111.608392 11.984728 L 112.447552 8.800000 L 113.286713 9.871909 L 114.125874 9.871909 L 114.965035 10.885877 L 115.804196 14.014692 L 116.643357 16.790067 L 117.482517 18.157475 L 118.321678 22.300259 L 119.160839 23.128815 L 120.000000 20.684573"></path>
      <path stroke="none" fill-opacity="0.6" fill="url(#color_grad)" d="M 0 40 L 0.000000 14.056120 L 0.839161 14.428971 L 1.678322 14.428971 L 2.517483 14.428971 L 3.356643 18.248733 L 4.195804 18.157475 L 5.034965 18.157475 L 5.874126 18.157475 L 6.713287 18.157475 L 7.552448 22.300259 L 8.391608 10.949033 L 9.230769 10.949033 L 10.069930 10.949033 L 10.909091 10.949033 L 11.748252 10.949033 L 12.587413 10.949033 L 13.426573 10.949033 L 14.265734 10.949033 L 15.104895 14.679276 L 15.944056 18.157475 L 16.783217 18.487739 L 17.622378 18.571754 L 18.461538 18.571754 L 19.300699 18.571754 L 20.139860 18.571754 L 20.979021 18.571754 L 21.818182 18.571754 L 22.657343 18.571754 L 23.496503 18.571754 L 24.335664 18.571754 L 25.174825 22.300259 L 26.013986 18.571754 L 26.853147 18.571754 L 27.692308 20.866218 L 28.531469 22.300259 L 29.370629 22.671081 L 30.209790 22.714537 L 31.048951 23.366374 L 31.888112 26.443042 L 32.727273 28.928712 L 33.566434 26.566167 L 34.405594 28.074082 L 35.244755 28.566580 L 36.083916 29.763063 L 36.923077 30.585825 L 37.762238 31.000103 L 38.601399 31.000103 L 39.440559 26.857320 L 40.279720 26.857320 L 41.118881 27.216844 L 41.958042 27.271599 L 42.797203 27.711950 L 43.636364 30.585825 L 44.475524 31.000103 L 45.314685 31.000103 L 46.153846 31.000103 L 46.993007 31.000103 L 47.832168 31.000103 L 48.671329 31.000103 L 49.510490 31.000103 L 50.349650 31.000103 L 51.188811 30.585825 L 52.027972 31.976410 L 52.867133 32.657217 L 53.706294 32.657217 L 54.545455 32.657217 L 55.384615 32.657217 L 56.223776 33.424935 L 57.062937 36.800000 L 57.902098 36.800000 L 58.741259 36.800000 L 59.580420 34.873461 L 60.419580 34.728608 L 61.258741 34.728608 L 62.097902 14.014692 L 62.937063 15.477703 L 63.776224 14.843249 L 64.615385 14.269633 L 65.454545 15.905308 L 66.293706 16.187481 L 67.132867 20.228867 L 67.972028 26.443042 L 68.811189 9.954765 L 69.650350 15.298955 L 70.489510 15.298955 L 71.328671 10.327615 L 72.167832 10.327615 L 73.006993 10.327615 L 73.846154 18.157475 L 74.685315 18.157475 L 75.524476 18.157475 L 76.363636 18.157475 L 77.202797 18.157475 L 78.041958 18.240331 L 78.881119 18.240331 L 79.720280 18.240331 L 80.559441 11.363311 L 81.398601 11.363311 L 82.237762 11.363311 L 83.076923 12.026156 L 83.916084 11.943301 L 84.755245 11.943301 L 85.594406 11.943301 L 86.433566 11.943301 L 87.272727 11.943301 L 88.111888 11.943301 L 88.951049 11.943301 L 89.790210 11.943301 L 90.629371 11.363311 L 91.468531 11.363311 L 92.307692 11.363311 L 93.146853 11.363311 L 93.986014 11.363311 L 94.825175 11.363311 L 95.664336 11.363311 L 96.503497 11.363311 L 97.342657 11.363311 L 98.181818 11.363311 L 99.020979 11.363311 L 99.860140 11.363311 L 100.699301 11.363311 L 101.538462 11.404739 L 102.377622 11.570450 L 103.216783 11.570450 L 104.055944 11.611878 L 104.895105 11.984728 L 105.734266 11.984728 L 106.573427 11.984728 L 107.412587 11.984728 L 108.251748 20.228867 L 109.090909 11.984728 L 109.930070 11.984728 L 110.769231 11.984728 L 111.608392 11.984728 L 112.447552 8.800000 L 113.286713 9.871909 L 114.125874 9.871909 L 114.965035 10.885877 L 115.804196 14.014692 L 116.643357 16.790067 L 117.482517 18.157475 L 118.321678 22.300259 L 119.160839 23.128815 L 120.000000 20.684573 L 120 40 Z"></path>
    </g>
  </svg>