<svg xmlns="http://www.w3.org/2000/svg" viewBox="0 0 120 40" width="120" height="40">
    <defs>
      <linearGradient id="color_grad" x1="0%" x2="0%" y1="0%" y2="100%">
        <stop offset="0%" style="stop-color:#EA3943;stop-opacity:0.4;"></stop>
        <stop offset="100%" style="stop-color:#EA3943;stop-opacity:0.0;"></stop>
      </linearGradient>
    </defs>
    <g>
      <path stroke="#EA3943" stroke-width="2" stroke-linecap="round" stroke-linejoin="round" fill="none" d="M 0.000000 26.484211 L 0.839161 26.484211 L 1.678322 26.484211 L 2.517483 20.589474 L 3.356643 20.589474 L 4.195804 17.642105 L 5.034965 17.642105 L 5.874126 17.642105 L 6.713287 17.642105 L 7.552448 17.642105 L 8.391608 17.642105 L 9.230769 17.642105 L 10.069930 17.642105 L 10.909091 17.642105 L 11.748252 17.642105 L 12.587413 17.642105 L 13.426573 17.642105 L 14.265734 17.642105 L 15.104895 8.800000 L 15.944056 8.800000 L 16.783217 8.800000 L 17.622378 8.800000 L 18.461538 8.800000 L 19.300699 8.800000 L 20.139860 8.810512 L 20.979021 8.829474 L 21.818182 8.829474 L 22.657343 8.829474 L 23.496503 9.301053 L 24.335664 9.301053 L 25.174825 9.301053 L 26.013986 9.301053 L 26.853147 9.301053 L 27.692308 9.301053 L 28.531469 9.301053 L 29.370629 9.301053 L 30.209790 9.301053 L 31.048951 9.389474 L 31.888112 17.317895 L 32.727273 17.317895 L 33.566434 17.317895 L 34.405594 17.317895 L 35.244755 17.317895 L 36.083916 17.317895 L 36.923077 17.317895 L 37.762238 17.317895 L 38.601399 18.736342 L 39.440559 23.536842 L 40.279720 22.063158 L 41.118881 20.618947 L 41.958042 20.618947 L 42.797203 20.618947 L 43.636364 20.618947 L 44.475524 20.618947 L 45.314685 20.618947 L 46.153846 20.618947 L 46.993007 20.618947 L 47.832168 20.943158 L 48.671329 20.618947 L 49.510490 20.618947 L 50.349650 20.618947 L 51.188811 20.618947 L 52.027972 20.618947 L 52.867133 20.618947 L 53.706294 20.618947 L 54.545455 20.618947 L 55.384615 20.618947 L 56.223776 20.618947 L 57.062937 20.618947 L 57.902098 20.618947 L 58.741259 22.063158 L 59.580420 22.063158 L 60.419580 23.578064 L 61.258741 24.126316 L 62.097902 24.126316 L 62.937063 24.126316 L 63.776224 24.126316 L 64.615385 24.126316 L 65.454545 24.126316 L 66.293706 24.126316 L 67.132867 24.571513 L 67.972028 26.484211 L 68.811189 26.484211 L 69.650350 28.623629 L 70.489510 30.315789 L 71.328671 30.610526 L 72.167832 30.610526 L 73.006993 30.610526 L 73.846154 30.905263 L 74.685315 31.564814 L 75.524476 32.968421 L 76.363636 35.326316 L 77.202797 35.355789 L 78.041958 35.355789 L 78.881119 35.355789 L 79.720280 35.355789 L 80.559441 31.494737 L 81.398601 31.494737 L 82.237762 31.494737 L 83.076923 27.957895 L 83.916084 27.957895 L 84.755245 27.957895 L 85.594406 27.957895 L 86.433566 27.957895 L 87.272727 27.957895 L 88.111888 28.967832 L 88.951049 29.431579 L 89.790210 29.431579 L 90.629371 29.431579 L 91.468531 29.431579 L 92.307692 29.431579 L 93.146853 29.431579 L 93.986014 29.431579 L 94.825175 29.431579 L 95.664336 29.431579 L 96.503497 29.431579 L 97.342657 29.431579 L 98.181818 29.431579 L 99.020979 30.915569 L 99.860140 29.431579 L 100.699301 29.431579 L 101.538462 30.814575 L 102.377622 32.378947 L 103.216783 34.151491 L 104.055944 35.326316 L 104.895105 35.326316 L 105.734266 35.326316 L 106.573427 35.326316 L 107.412587 35.326316 L 108.251748 29.431579 L 109.090909 35.326316 L 109.930070 35.326316 L 110.769231 35.326316 L 111.608392 35.326316 L 112.447552 35.326316 L 113.286713 35.326316 L 114.125874 35.326316 L 114.965035 35.326316 L 115.804196 35.326316 L 116.643357 35.326316 L 117.482517 35.326316 L 118.321678 36.800000 L 119.160839 36.800000 L 120.000000 36.800000"></path>
      <path stroke="none" fill-opacity="0.6" fill="url(#color_grad)" d="M 0 40 L 0.000000 26.484211 L 0.839161 26.484211 L 1.678322 26.484211 L 2.517483 20.589474 L 3.356643 20.589474 L 4.195804 17.642105 L 5.034965 17.642105 L 5.874126 17.642105 L 6.713287 17.642105 L 7.552448 17.642105 L 8.391608 17.642105 L 9.230769 17.642105 L 10.069930 17.642105 L 10.909091 17.642105 L 11.748252 17.642105 L 12.587413 17.642105 L 13.426573 17.642105 L 14.265734 17.642105 L 15.104895 8.800000 L 15.944056 8.800000 L 16.783217 8.800000 L 17.622378 8.800000 L 18.461538 8.800000 L 19.300699 8.800000 L 20.139860 8.810512 L 20.979021 8.829474 L 21.818182 8.829474 L 22.657343 8.829474 L 23.496503 9.301053 L 24.335664 9.301053 L 25.174825 9.301053 L 26.013986 9.301053 L 26.853147 9.301053 L 27.692308 9.301053 L 28.531469 9.301053 L 29.370629 9.301053 L 30.209790 9.301053 L 31.048951 9.389474 L 31.888112 17.317895 L 32.727273 17.317895 L 33.566434 17.317895 L 34.405594 17.317895 L 35.244755 17.317895 L 36.083916 17.317895 L 36.923077 17.317895 L 37.762238 17.317895 L 38.601399 18.736342 L 39.440559 23.536842 L 40.279720 22.063158 L 41.118881 20.618947 L 41.958042 20.618947 L 42.797203 20.618947 L 43.636364 20.618947 L 44.475524 20.618947 L 45.314685 20.618947 L 46.153846 20.618947 L 46.993007 20.618947 L 47.832168 20.943158 L 48.671329 20.618947 L 49.510490 20.618947 L 50.349650 20.618947 L 51.188811 20.618947 L 52.027972 20.618947 L 52.867133 20.618947 L 53.706294 20.618947 L 54.545455 20.618947 L 55.384615 20.618947 L 56.223776 20.618947 L 57.062937 20.618947 L 57.902098 20.618947 L 58.741259 22.063158 L 59.580420 22.063158 L 60.419580 23.578064 L 61.258741 24.126316 L 62.097902 24.126316 L 62.937063 24.126316 L 63.776224 24.126316 L 64.615385 24.126316 L 65.454545 24.126316 L 66.293706 24.126316 L 67.132867 24.571513 L 67.972028 26.484211 L 68.811189 26.484211 L 69.650350 28.623629 L 70.489510 30.315789 L 71.328671 30.610526 L 72.167832 30.610526 L 73.006993 30.610526 L 73.846154 30.905263 L 74.685315 31.564814 L 75.524476 32.968421 L 76.363636 35.326316 L 77.202797 35.355789 L 78.041958 35.355789 L 78.881119 35.355789 L 79.720280 35.355789 L 80.559441 31.494737 L 81.398601 31.494737 L 82.237762 31.494737 L 83.076923 27.957895 L 83.916084 27.957895 L 84.755245 27.957895 L 85.594406 27.957895 L 86.433566 27.957895 L 87.272727 27.957895 L 88.111888 28.967832 L 88.951049 29.431579 L 89.790210 29.431579 L 90.629371 29.431579 L 91.468531 29.431579 L 92.307692 29.431579 L 93.146853 29.431579 L 93.986014 29.431579 L 94.825175 29.431579 L 95.664336 29.431579 L 96.503497 29.431579 L 97.342657 29.431579 L 98.181818 29.431579 L 99.020979 30.915569 L 99.860140 29.431579 L 100.699301 29.431579 L 101.538462 30.814575 L 102.377622 32.378947 L 103.216783 34.151491 L 104.055944 35.326316 L 104.895105 35.326316 L 105.734266 35.326316 L 106.573427 35.326316 L 107.412587 35.326316 L 108.251748 29.431579 L 109.090909 35.326316 L 109.930070 35.326316 L 110.769231 35.326316 L 111.608392 35.326316 L 112.447552 35.326316 L 113.286713 35.326316 L 114.125874 35.326316 L 114.965035 35.326316 L 115.804196 35.326316 L 116.643357 35.326316 L 117.482517 35.326316 L 118.321678 36.800000 L 119.160839 36.800000 L 120.000000 36.800000 L 120 40 Z"></path>
    </g>
  </svg>