<svg xmlns="http://www.w3.org/2000/svg" viewBox="0 0 120 40" width="120" height="40">
    <defs>
      <linearGradient id="color_grad" x1="0%" x2="0%" y1="0%" y2="100%">
        <stop offset="0%" style="stop-color:#16C784;stop-opacity:0.4;"></stop>
        <stop offset="100%" style="stop-color:#16C784;stop-opacity:0.0;"></stop>
      </linearGradient>
    </defs>
    <g>
      <path stroke="#16C784" stroke-width="2" stroke-linecap="round" stroke-linejoin="round" fill="none" d="M 0.000000 33.303457 L 0.839161 32.186275 L 1.678322 33.945060 L 2.517483 29.458434 L 3.356643 31.027124 L 4.195804 28.296868 L 5.034965 27.239466 L 5.874126 27.871208 L 6.713287 29.921081 L 7.552448 29.255483 L 8.391608 29.571814 L 9.230769 27.689198 L 10.069930 29.487042 L 10.909091 27.930825 L 11.748252 28.598352 L 12.587413 29.258998 L 13.426573 29.685379 L 14.265734 28.276633 L 15.104895 18.928663 L 15.944056 19.169569 L 16.783217 18.054797 L 17.622378 16.512851 L 18.461538 15.213319 L 19.300699 15.529912 L 20.139860 15.762307 L 20.979021 15.996036 L 21.818182 15.242004 L 22.657343 15.291203 L 23.496503 16.372420 L 24.335664 16.973137 L 25.174825 18.161175 L 26.013986 19.322205 L 26.853147 18.072288 L 27.692308 17.930321 L 28.531469 16.948399 L 29.370629 16.580694 L 30.209790 15.529207 L 31.048951 19.455459 L 31.888112 26.357329 L 32.727273 27.361373 L 33.566434 25.008413 L 34.405594 24.183401 L 35.244755 25.565288 L 36.083916 21.280530 L 36.923077 20.560743 L 37.762238 16.244741 L 38.601399 15.663598 L 39.440559 19.849592 L 40.279720 21.701358 L 41.118881 19.884355 L 41.958042 18.580713 L 42.797203 19.897222 L 43.636364 18.388345 L 44.475524 17.978285 L 45.314685 15.832380 L 46.153846 15.741700 L 46.993007 18.141263 L 47.832168 18.394663 L 48.671329 16.873297 L 49.510490 17.383771 L 50.349650 17.423241 L 51.188811 18.433122 L 52.027972 13.986588 L 52.867133 13.458787 L 53.706294 15.171095 L 54.545455 15.849401 L 55.384615 13.918822 L 56.223776 13.502618 L 57.062937 15.189247 L 57.902098 15.982223 L 58.741259 19.188498 L 59.580420 19.184262 L 60.419580 16.929503 L 61.258741 14.083887 L 62.097902 15.722192 L 62.937063 15.563462 L 63.776224 16.263331 L 64.615385 18.757465 L 65.454545 20.984134 L 66.293706 20.880932 L 67.132867 19.815402 L 67.972028 23.135488 L 68.811189 22.173937 L 69.650350 28.663173 L 70.489510 30.580208 L 71.328671 28.630202 L 72.167832 28.577729 L 73.006993 28.577729 L 73.846154 31.656806 L 74.685315 29.357341 L 75.524476 30.123523 L 76.363636 27.794324 L 77.202797 32.143974 L 78.041958 36.800000 L 78.881119 31.803730 L 79.720280 32.041127 L 80.559441 27.623552 L 81.398601 29.603429 L 82.237762 26.753708 L 83.076923 24.572904 L 83.916084 25.071178 L 84.755245 18.775322 L 85.594406 19.347841 L 86.433566 20.492101 L 87.272727 19.782060 L 88.111888 21.543004 L 88.951049 20.112312 L 89.790210 19.875779 L 90.629371 20.209999 L 91.468531 20.422214 L 92.307692 19.914696 L 93.146853 19.187158 L 93.986014 18.577860 L 94.825175 17.139843 L 95.664336 17.790038 L 96.503497 17.884112 L 97.342657 16.114018 L 98.181818 16.068968 L 99.020979 14.926593 L 99.860140 13.252065 L 100.699301 8.800000 L 101.538462 16.710199 L 102.377622 18.115726 L 103.216783 19.514273 L 104.055944 21.937628 L 104.895105 20.388134 L 105.734266 16.025803 L 106.573427 17.738341 L 107.412587 19.179233 L 108.251748 10.724201 L 109.090909 19.921545 L 109.930070 18.238939 L 110.769231 15.404277 L 111.608392 13.572276 L 112.447552 9.795325 L 113.286713 10.948758 L 114.125874 11.192303 L 114.965035 12.775364 L 115.804196 13.562311 L 116.643357 14.783751 L 117.482517 13.072088 L 118.321678 17.266735 L 119.160839 16.918298 L 120.000000 19.415476"></path>
      <path stroke="none" fill-opacity="0.6" fill="url(#color_grad)" d="M 0 40 L 0.000000 33.303457 L 0.839161 32.186275 L 1.678322 33.945060 L 2.517483 29.458434 L 3.356643 31.027124 L 4.195804 28.296868 L 5.034965 27.239466 L 5.874126 27.871208 L 6.713287 29.921081 L 7.552448 29.255483 L 8.391608 29.571814 L 9.230769 27.689198 L 10.069930 29.487042 L 10.909091 27.930825 L 11.748252 28.598352 L 12.587413 29.258998 L 13.426573 29.685379 L 14.265734 28.276633 L 15.104895 18.928663 L 15.944056 19.169569 L 16.783217 18.054797 L 17.622378 16.512851 L 18.461538 15.213319 L 19.300699 15.529912 L 20.139860 15.762307 L 20.979021 15.996036 L 21.818182 15.242004 L 22.657343 15.291203 L 23.496503 16.372420 L 24.335664 16.973137 L 25.174825 18.161175 L 26.013986 19.322205 L 26.853147 18.072288 L 27.692308 17.930321 L 28.531469 16.948399 L 29.370629 16.580694 L 30.209790 15.529207 L 31.048951 19.455459 L 31.888112 26.357329 L 32.727273 27.361373 L 33.566434 25.008413 L 34.405594 24.183401 L 35.244755 25.565288 L 36.083916 21.280530 L 36.923077 20.560743 L 37.762238 16.244741 L 38.601399 15.663598 L 39.440559 19.849592 L 40.279720 21.701358 L 41.118881 19.884355 L 41.958042 18.580713 L 42.797203 19.897222 L 43.636364 18.388345 L 44.475524 17.978285 L 45.314685 15.832380 L 46.153846 15.741700 L 46.993007 18.141263 L 47.832168 18.394663 L 48.671329 16.873297 L 49.510490 17.383771 L 50.349650 17.423241 L 51.188811 18.433122 L 52.027972 13.986588 L 52.867133 13.458787 L 53.706294 15.171095 L 54.545455 15.849401 L 55.384615 13.918822 L 56.223776 13.502618 L 57.062937 15.189247 L 57.902098 15.982223 L 58.741259 19.188498 L 59.580420 19.184262 L 60.419580 16.929503 L 61.258741 14.083887 L 62.097902 15.722192 L 62.937063 15.563462 L 63.776224 16.263331 L 64.615385 18.757465 L 65.454545 20.984134 L 66.293706 20.880932 L 67.132867 19.815402 L 67.972028 23.135488 L 68.811189 22.173937 L 69.650350 28.663173 L 70.489510 30.580208 L 71.328671 28.630202 L 72.167832 28.577729 L 73.006993 28.577729 L 73.846154 31.656806 L 74.685315 29.357341 L 75.524476 30.123523 L 76.363636 27.794324 L 77.202797 32.143974 L 78.041958 36.800000 L 78.881119 31.803730 L 79.720280 32.041127 L 80.559441 27.623552 L 81.398601 29.603429 L 82.237762 26.753708 L 83.076923 24.572904 L 83.916084 25.071178 L 84.755245 18.775322 L 85.594406 19.347841 L 86.433566 20.492101 L 87.272727 19.782060 L 88.111888 21.543004 L 88.951049 20.112312 L 89.790210 19.875779 L 90.629371 20.209999 L 91.468531 20.422214 L 92.307692 19.914696 L 93.146853 19.187158 L 93.986014 18.577860 L 94.825175 17.139843 L 95.664336 17.790038 L 96.503497 17.884112 L 97.342657 16.114018 L 98.181818 16.068968 L 99.020979 14.926593 L 99.860140 13.252065 L 100.699301 8.800000 L 101.538462 16.710199 L 102.377622 18.115726 L 103.216783 19.514273 L 104.055944 21.937628 L 104.895105 20.388134 L 105.734266 16.025803 L 106.573427 17.738341 L 107.412587 19.179233 L 108.251748 10.724201 L 109.090909 19.921545 L 109.930070 18.238939 L 110.769231 15.404277 L 111.608392 13.572276 L 112.447552 9.795325 L 113.286713 10.948758 L 114.125874 11.192303 L 114.965035 12.775364 L 115.804196 13.562311 L 116.643357 14.783751 L 117.482517 13.072088 L 118.321678 17.266735 L 119.160839 16.918298 L 120.000000 19.415476 L 120 40 Z"></path>
    </g>
  </svg>