<svg xmlns="http://www.w3.org/2000/svg" viewBox="0 0 120 40" width="120" height="40">
    <defs>
      <linearGradient id="color_grad" x1="0%" x2="0%" y1="0%" y2="100%">
        <stop offset="0%" style="stop-color:#888888;stop-opacity:0.4;"></stop>
        <stop offset="100%" style="stop-color:#888888;stop-opacity:0.0;"></stop>
      </linearGradient>
    </defs>
    <g>
      <path stroke="#888888" stroke-width="2" stroke-linecap="round" stroke-linejoin="round" fill="none" d="M 0.000000 8.800000 L 0.839161 12.421457 L 1.678322 13.002731 L 2.517483 14.944201 L 3.356643 14.944201 L 4.195804 14.944201 L 5.034965 14.944201 L 5.874126 14.856426 L 6.713287 15.295298 L 7.552448 14.856426 L 8.391608 14.856426 L 9.230769 14.856426 L 10.069930 14.944201 L 10.909091 14.944201 L 11.748252 19.332915 L 12.587413 19.332915 L 13.426573 19.332915 L 14.265734 19.332915 L 15.104895 19.332915 L 15.944056 19.332915 L 16.783217 19.332915 L 17.622378 20.073166 L 18.461538 19.332915 L 19.300699 19.332915 L 20.139860 21.088401 L 20.979021 21.088401 L 21.818182 21.088401 L 22.657343 21.088401 L 23.496503 19.332915 L 24.335664 23.756617 L 25.174825 25.828213 L 26.013986 25.180034 L 26.853147 25.477116 L 27.692308 26.267085 L 28.531469 24.511599 L 29.370629 24.511599 L 30.209790 24.511599 L 31.048951 24.511599 L 31.888112 25.389342 L 32.727273 24.990368 L 33.566434 25.389342 L 34.405594 25.389342 L 35.244755 26.267085 L 36.083916 26.359769 L 36.923077 26.651941 L 37.762238 26.354859 L 38.601399 26.442633 L 39.440559 26.792503 L 40.279720 26.706570 L 41.118881 26.530408 L 41.958042 26.530408 L 42.797203 26.553732 L 43.636364 26.729895 L 44.475524 30.093553 L 45.314685 26.793730 L 46.153846 26.793730 L 46.993007 30.655799 L 47.832168 26.705956 L 48.671329 26.705956 L 49.510490 26.705956 L 50.349650 26.705956 L 51.188811 26.793730 L 52.027972 26.793730 L 52.867133 26.793730 L 53.706294 26.793730 L 54.545455 26.793730 L 55.384615 27.144828 L 56.223776 27.144828 L 57.062937 27.232602 L 57.902098 27.408150 L 58.741259 27.616231 L 59.580420 27.671473 L 60.419580 27.671473 L 61.258741 28.644356 L 62.097902 30.655799 L 62.937063 30.655799 L 63.776224 30.655799 L 64.615385 31.533542 L 65.454545 31.533542 L 66.293706 31.533542 L 67.132867 28.993612 L 67.972028 27.320376 L 68.811189 34.867124 L 69.650350 34.598277 L 70.489510 34.671320 L 71.328671 34.605643 L 72.167832 34.605643 L 73.006993 34.605643 L 73.846154 32.411285 L 74.685315 32.057733 L 75.524476 28.636991 L 76.363636 28.549216 L 77.202797 29.614784 L 78.041958 34.223855 L 78.881119 34.553469 L 79.720280 36.800000 L 80.559441 34.927891 L 81.398601 32.411285 L 82.237762 28.900313 L 83.076923 28.900313 L 83.916084 30.620199 L 84.755245 30.655799 L 85.594406 30.655799 L 86.433566 30.655799 L 87.272727 30.655799 L 88.111888 30.655799 L 88.951049 30.655799 L 89.790210 30.655799 L 90.629371 30.655799 L 91.468531 30.655799 L 92.307692 30.655799 L 93.146853 30.655799 L 93.986014 30.655799 L 94.825175 30.655799 L 95.664336 28.198119 L 96.503497 28.198119 L 97.342657 28.198119 L 98.181818 28.198119 L 99.020979 28.198119 L 99.860140 29.892224 L 100.699301 30.392476 L 101.538462 32.255992 L 102.377622 30.041379 L 103.216783 30.655799 L 104.055944 30.655799 L 104.895105 30.655799 L 105.734266 30.655799 L 106.573427 30.655799 L 107.412587 27.646921 L 108.251748 33.289028 L 109.090909 27.671473 L 109.930070 27.671473 L 110.769231 27.847022 L 111.608392 27.847022 L 112.447552 27.847022 L 113.286713 27.836587 L 114.125874 28.022571 L 114.965035 32.499060 L 115.804196 29.602508 L 116.643357 29.989206 L 117.482517 31.652007 L 118.321678 33.376803 L 119.160839 33.376803 L 120.000000 32.586834"></path>
      <path stroke="none" fill-opacity="0.6" fill="url(#color_grad)" d="M 0 40 L 0.000000 8.800000 L 0.839161 12.421457 L 1.678322 13.002731 L 2.517483 14.944201 L 3.356643 14.944201 L 4.195804 14.944201 L 5.034965 14.944201 L 5.874126 14.856426 L 6.713287 15.295298 L 7.552448 14.856426 L 8.391608 14.856426 L 9.230769 14.856426 L 10.069930 14.944201 L 10.909091 14.944201 L 11.748252 19.332915 L 12.587413 19.332915 L 13.426573 19.332915 L 14.265734 19.332915 L 15.104895 19.332915 L 15.944056 19.332915 L 16.783217 19.332915 L 17.622378 20.073166 L 18.461538 19.332915 L 19.300699 19.332915 L 20.139860 21.088401 L 20.979021 21.088401 L 21.818182 21.088401 L 22.657343 21.088401 L 23.496503 19.332915 L 24.335664 23.756617 L 25.174825 25.828213 L 26.013986 25.180034 L 26.853147 25.477116 L 27.692308 26.267085 L 28.531469 24.511599 L 29.370629 24.511599 L 30.209790 24.511599 L 31.048951 24.511599 L 31.888112 25.389342 L 32.727273 24.990368 L 33.566434 25.389342 L 34.405594 25.389342 L 35.244755 26.267085 L 36.083916 26.359769 L 36.923077 26.651941 L 37.762238 26.354859 L 38.601399 26.442633 L 39.440559 26.792503 L 40.279720 26.706570 L 41.118881 26.530408 L 41.958042 26.530408 L 42.797203 26.553732 L 43.636364 26.729895 L 44.475524 30.093553 L 45.314685 26.793730 L 46.153846 26.793730 L 46.993007 30.655799 L 47.832168 26.705956 L 48.671329 26.705956 L 49.510490 26.705956 L 50.349650 26.705956 L 51.188811 26.793730 L 52.027972 26.793730 L 52.867133 26.793730 L 53.706294 26.793730 L 54.545455 26.793730 L 55.384615 27.144828 L 56.223776 27.144828 L 57.062937 27.232602 L 57.902098 27.408150 L 58.741259 27.616231 L 59.580420 27.671473 L 60.419580 27.671473 L 61.258741 28.644356 L 62.097902 30.655799 L 62.937063 30.655799 L 63.776224 30.655799 L 64.615385 31.533542 L 65.454545 31.533542 L 66.293706 31.533542 L 67.132867 28.993612 L 67.972028 27.320376 L 68.811189 34.867124 L 69.650350 34.598277 L 70.489510 34.671320 L 71.328671 34.605643 L 72.167832 34.605643 L 73.006993 34.605643 L 73.846154 32.411285 L 74.685315 32.057733 L 75.524476 28.636991 L 76.363636 28.549216 L 77.202797 29.614784 L 78.041958 34.223855 L 78.881119 34.553469 L 79.720280 36.800000 L 80.559441 34.927891 L 81.398601 32.411285 L 82.237762 28.900313 L 83.076923 28.900313 L 83.916084 30.620199 L 84.755245 30.655799 L 85.594406 30.655799 L 86.433566 30.655799 L 87.272727 30.655799 L 88.111888 30.655799 L 88.951049 30.655799 L 89.790210 30.655799 L 90.629371 30.655799 L 91.468531 30.655799 L 92.307692 30.655799 L 93.146853 30.655799 L 93.986014 30.655799 L 94.825175 30.655799 L 95.664336 28.198119 L 96.503497 28.198119 L 97.342657 28.198119 L 98.181818 28.198119 L 99.020979 28.198119 L 99.860140 29.892224 L 100.699301 30.392476 L 101.538462 32.255992 L 102.377622 30.041379 L 103.216783 30.655799 L 104.055944 30.655799 L 104.895105 30.655799 L 105.734266 30.655799 L 106.573427 30.655799 L 107.412587 27.646921 L 108.251748 33.289028 L 109.090909 27.671473 L 109.930070 27.671473 L 110.769231 27.847022 L 111.608392 27.847022 L 112.447552 27.847022 L 113.286713 27.836587 L 114.125874 28.022571 L 114.965035 32.499060 L 115.804196 29.602508 L 116.643357 29.989206 L 117.482517 31.652007 L 118.321678 33.376803 L 119.160839 33.376803 L 120.000000 32.586834 L 120 40 Z"></path>
    </g>
  </svg>