<svg xmlns="http://www.w3.org/2000/svg" viewBox="0 0 120 40" width="120" height="40">
    <defs>
      <linearGradient id="color_grad" x1="0%" x2="0%" y1="0%" y2="100%">
        <stop offset="0%" style="stop-color:#16C784;stop-opacity:0.4;"></stop>
        <stop offset="100%" style="stop-color:#16C784;stop-opacity:0.0;"></stop>
      </linearGradient>
    </defs>
    <g>
      <path stroke="#16C784" stroke-width="2" stroke-linecap="round" stroke-linejoin="round" fill="none" d="M 0.000000 13.959437 L 0.839161 16.740826 L 1.678322 18.790166 L 2.517483 21.243463 L 3.356643 22.504720 L 4.195804 22.332557 L 5.034965 21.490024 L 5.874126 21.904825 L 6.713287 23.980452 L 7.552448 23.007874 L 8.391608 23.260833 L 9.230769 21.760650 L 10.069930 23.280858 L 10.909091 22.040766 L 11.748252 27.020018 L 12.587413 27.535291 L 13.426573 27.868388 L 14.265734 26.769591 L 15.104895 25.406953 L 15.944056 25.589883 L 16.783217 24.743485 L 17.622378 24.334908 L 18.461538 22.585612 L 19.300699 22.823610 L 20.139860 24.806323 L 20.979021 24.970852 L 21.818182 24.401767 L 22.657343 24.438898 L 23.496503 23.134189 L 24.335664 28.142841 L 25.174825 31.154418 L 26.013986 31.349583 L 26.853147 30.727092 L 27.692308 31.432911 L 28.531469 28.903283 L 29.370629 28.628212 L 30.209790 27.849658 L 31.048951 30.708768 L 31.888112 31.668029 L 32.727273 32.023509 L 33.566434 30.646606 L 34.405594 30.021428 L 35.244755 31.968054 L 36.083916 28.832868 L 36.923077 28.595295 L 37.762238 25.029264 L 38.601399 23.730219 L 39.440559 24.012113 L 40.279720 26.341917 L 41.118881 25.749580 L 41.958042 24.755449 L 42.797203 25.785184 L 43.636364 24.821651 L 44.475524 28.079964 L 45.314685 22.946601 L 46.153846 22.878814 L 46.993007 28.801052 L 47.832168 24.581063 L 48.671329 23.643180 L 49.510490 24.032776 L 50.349650 24.063045 L 51.188811 24.923361 L 52.027972 21.543005 L 52.867133 21.142179 L 53.706294 22.446965 L 54.545455 22.961194 L 55.384615 21.870999 L 56.223776 21.555530 L 57.062937 22.927968 L 57.902098 23.717481 L 58.741259 25.388591 L 59.580420 25.444374 L 60.419580 22.689003 L 61.258741 21.189844 L 62.097902 24.612318 L 62.937063 24.491744 L 63.776224 25.020354 L 64.615385 27.840922 L 65.454545 29.510736 L 66.293706 29.434058 L 67.132867 25.621447 L 67.972028 25.070686 L 68.811189 32.368590 L 69.650350 35.512146 L 70.489510 35.905743 L 71.328671 34.168296 L 72.167832 34.128710 L 73.006993 34.128710 L 73.846154 33.964355 L 74.685315 31.386367 L 75.524476 27.400510 L 76.363636 23.809758 L 77.202797 28.349681 L 78.041958 36.800000 L 78.881119 33.314649 L 79.720280 35.875590 L 80.559441 33.151937 L 81.398601 31.996661 L 82.237762 26.077071 L 83.076923 26.839485 L 83.916084 29.047671 L 84.755245 24.280168 L 85.594406 24.715148 L 86.433566 25.588878 L 87.272727 25.048555 L 88.111888 25.693332 L 88.951049 24.271857 L 89.790210 24.090144 L 90.629371 24.347800 L 91.468531 24.509816 L 92.307692 24.121573 L 93.146853 23.562462 L 93.986014 23.095898 L 94.825175 21.994260 L 95.664336 19.810970 L 96.503497 19.884014 L 97.342657 18.507749 L 98.181818 18.473131 L 99.020979 16.511873 L 99.860140 18.168892 L 100.699301 15.302882 L 101.538462 22.443370 L 102.377622 19.968888 L 103.216783 20.458028 L 104.055944 21.499302 L 104.895105 20.285014 L 105.734266 16.879318 L 106.573427 18.217563 L 107.412587 16.013030 L 108.251748 20.019627 L 109.090909 16.626746 L 109.930070 15.292483 L 110.769231 13.241635 L 111.608392 11.790509 L 112.447552 8.800000 L 113.286713 9.701989 L 114.125874 10.103897 L 114.965035 16.425492 L 115.804196 13.765451 L 116.643357 15.160330 L 117.482517 15.696923 L 118.321678 19.810255 L 119.160839 19.542161 L 120.000000 20.598685"></path>
      <path stroke="none" fill-opacity="0.6" fill="url(#color_grad)" d="M 0 40 L 0.000000 13.959437 L 0.839161 16.740826 L 1.678322 18.790166 L 2.517483 21.243463 L 3.356643 22.504720 L 4.195804 22.332557 L 5.034965 21.490024 L 5.874126 21.904825 L 6.713287 23.980452 L 7.552448 23.007874 L 8.391608 23.260833 L 9.230769 21.760650 L 10.069930 23.280858 L 10.909091 22.040766 L 11.748252 27.020018 L 12.587413 27.535291 L 13.426573 27.868388 L 14.265734 26.769591 L 15.104895 25.406953 L 15.944056 25.589883 L 16.783217 24.743485 L 17.622378 24.334908 L 18.461538 22.585612 L 19.300699 22.823610 L 20.139860 24.806323 L 20.979021 24.970852 L 21.818182 24.401767 L 22.657343 24.438898 L 23.496503 23.134189 L 24.335664 28.142841 L 25.174825 31.154418 L 26.013986 31.349583 L 26.853147 30.727092 L 27.692308 31.432911 L 28.531469 28.903283 L 29.370629 28.628212 L 30.209790 27.849658 L 31.048951 30.708768 L 31.888112 31.668029 L 32.727273 32.023509 L 33.566434 30.646606 L 34.405594 30.021428 L 35.244755 31.968054 L 36.083916 28.832868 L 36.923077 28.595295 L 37.762238 25.029264 L 38.601399 23.730219 L 39.440559 24.012113 L 40.279720 26.341917 L 41.118881 25.749580 L 41.958042 24.755449 L 42.797203 25.785184 L 43.636364 24.821651 L 44.475524 28.079964 L 45.314685 22.946601 L 46.153846 22.878814 L 46.993007 28.801052 L 47.832168 24.581063 L 48.671329 23.643180 L 49.510490 24.032776 L 50.349650 24.063045 L 51.188811 24.923361 L 52.027972 21.543005 L 52.867133 21.142179 L 53.706294 22.446965 L 54.545455 22.961194 L 55.384615 21.870999 L 56.223776 21.555530 L 57.062937 22.927968 L 57.902098 23.717481 L 58.741259 25.388591 L 59.580420 25.444374 L 60.419580 22.689003 L 61.258741 21.189844 L 62.097902 24.612318 L 62.937063 24.491744 L 63.776224 25.020354 L 64.615385 27.840922 L 65.454545 29.510736 L 66.293706 29.434058 L 67.132867 25.621447 L 67.972028 25.070686 L 68.811189 32.368590 L 69.650350 35.512146 L 70.489510 35.905743 L 71.328671 34.168296 L 72.167832 34.128710 L 73.006993 34.128710 L 73.846154 33.964355 L 74.685315 31.386367 L 75.524476 27.400510 L 76.363636 23.809758 L 77.202797 28.349681 L 78.041958 36.800000 L 78.881119 33.314649 L 79.720280 35.875590 L 80.559441 33.151937 L 81.398601 31.996661 L 82.237762 26.077071 L 83.076923 26.839485 L 83.916084 29.047671 L 84.755245 24.280168 L 85.594406 24.715148 L 86.433566 25.588878 L 87.272727 25.048555 L 88.111888 25.693332 L 88.951049 24.271857 L 89.790210 24.090144 L 90.629371 24.347800 L 91.468531 24.509816 L 92.307692 24.121573 L 93.146853 23.562462 L 93.986014 23.095898 L 94.825175 21.994260 L 95.664336 19.810970 L 96.503497 19.884014 L 97.342657 18.507749 L 98.181818 18.473131 L 99.020979 16.511873 L 99.860140 18.168892 L 100.699301 15.302882 L 101.538462 22.443370 L 102.377622 19.968888 L 103.216783 20.458028 L 104.055944 21.499302 L 104.895105 20.285014 L 105.734266 16.879318 L 106.573427 18.217563 L 107.412587 16.013030 L 108.251748 20.019627 L 109.090909 16.626746 L 109.930070 15.292483 L 110.769231 13.241635 L 111.608392 11.790509 L 112.447552 8.800000 L 113.286713 9.701989 L 114.125874 10.103897 L 114.965035 16.425492 L 115.804196 13.765451 L 116.643357 15.160330 L 117.482517 15.696923 L 118.321678 19.810255 L 119.160839 19.542161 L 120.000000 20.598685 L 120 40 Z"></path>
    </g>
  </svg>