<svg xmlns="http://www.w3.org/2000/svg" viewBox="0 0 120 40" width="120" height="40">
    <defs>
      <linearGradient id="color_grad" x1="0%" x2="0%" y1="0%" y2="100%">
        <stop offset="0%" style="stop-color:#EA3943;stop-opacity:0.4;"></stop>
        <stop offset="100%" style="stop-color:#EA3943;stop-opacity:0.0;"></stop>
      </linearGradient>
    </defs>
    <g>
      <path stroke="#EA3943" stroke-width="2" stroke-linecap="round" stroke-linejoin="round" fill="none" d="M 0.000000 25.861587 L 0.839161 25.613378 L 1.678322 26.011002 L 2.517483 25.198696 L 3.356643 25.404497 L 4.195804 24.081953 L 5.034965 23.297682 L 5.874126 23.442753 L 6.713287 24.637126 L 7.552448 24.493002 L 8.391608 24.564945 L 9.230769 24.717519 L 10.069930 25.633753 L 10.909091 25.282564 L 11.748252 25.423845 L 12.587413 25.583447 L 13.426573 25.670791 L 14.265734 25.357903 L 15.104895 24.957357 L 15.944056 25.013033 L 16.783217 25.350322 L 17.622378 25.158025 L 18.461538 24.879096 L 19.300699 24.946854 L 20.139860 24.992816 L 20.979021 24.118280 L 21.818182 23.019858 L 22.657343 23.029572 L 23.496503 22.604544 L 24.335664 24.321317 L 25.174825 24.028252 L 26.013986 23.849064 L 26.853147 23.200862 L 27.692308 24.277092 L 28.531469 24.044757 L 29.370629 23.966180 L 30.209790 23.735897 L 31.048951 24.596692 L 31.888112 24.612645 L 32.727273 25.008452 L 33.566434 24.675822 L 34.405594 24.481551 L 35.244755 24.798466 L 36.083916 24.198357 L 36.923077 24.781803 L 37.762238 24.307260 L 38.601399 23.950622 L 39.440559 27.960900 L 40.279720 28.626555 L 41.118881 28.510703 L 41.958042 26.336604 L 42.797203 28.194578 L 43.636364 25.470439 L 44.475524 25.966620 L 45.314685 25.742734 L 46.153846 25.727808 L 46.993007 25.301912 L 47.832168 25.093347 L 48.671329 24.830528 L 49.510490 24.932481 L 50.349650 24.951355 L 51.188811 25.170187 L 52.027972 24.187538 L 52.867133 24.066158 L 53.706294 24.444987 L 54.545455 24.594718 L 55.384615 25.328210 L 56.223776 25.239208 L 57.062937 25.014770 L 57.902098 24.629071 L 58.741259 25.350085 L 59.580420 25.804332 L 60.419580 25.016428 L 61.258741 24.284200 L 62.097902 24.640759 L 62.937063 24.605142 L 63.776224 25.930608 L 64.615385 22.828983 L 65.454545 20.773578 L 66.293706 20.571489 L 67.132867 22.776071 L 67.972028 22.267729 L 68.811189 20.245808 L 69.650350 21.727797 L 70.489510 22.865231 L 71.328671 22.812557 L 72.167832 22.801185 L 73.006993 22.801185 L 73.846154 23.465734 L 74.685315 22.783021 L 75.524476 24.181063 L 76.363636 21.914171 L 77.202797 22.639766 L 78.041958 22.653665 L 78.881119 23.040707 L 79.720280 21.479904 L 80.559441 21.622211 L 81.398601 22.522808 L 82.237762 22.176042 L 83.076923 22.464132 L 83.916084 22.530469 L 84.755245 21.050375 L 85.594406 21.187865 L 86.433566 21.446341 L 87.272727 21.457318 L 88.111888 21.601758 L 88.951049 22.208026 L 89.790210 22.152508 L 90.629371 22.232981 L 91.468531 22.281707 L 92.307692 22.161827 L 93.146853 21.997171 L 93.986014 22.639134 L 94.825175 22.304530 L 95.664336 22.055768 L 96.503497 22.184334 L 97.342657 22.861203 L 98.181818 22.845330 L 99.020979 22.276021 L 99.860140 24.164873 L 100.699301 24.885651 L 101.538462 28.507623 L 102.377622 28.637690 L 103.216783 28.559666 L 104.055944 27.276528 L 104.895105 22.668749 L 105.734266 25.192773 L 106.573427 27.578201 L 107.412587 30.210339 L 108.251748 8.800000 L 109.090909 31.303785 L 109.930070 30.583718 L 110.769231 31.894654 L 111.608392 33.814542 L 112.447552 35.415305 L 113.286713 35.977901 L 114.125874 32.721017 L 114.965035 36.658482 L 115.804196 36.800000 L 116.643357 35.404407 L 117.482517 33.782795 L 118.321678 26.761473 L 119.160839 27.380850 L 120.000000 31.214468"></path>
      <path stroke="none" fill-opacity="0.6" fill="url(#color_grad)" d="M 0 40 L 0.000000 25.861587 L 0.839161 25.613378 L 1.678322 26.011002 L 2.517483 25.198696 L 3.356643 25.404497 L 4.195804 24.081953 L 5.034965 23.297682 L 5.874126 23.442753 L 6.713287 24.637126 L 7.552448 24.493002 L 8.391608 24.564945 L 9.230769 24.717519 L 10.069930 25.633753 L 10.909091 25.282564 L 11.748252 25.423845 L 12.587413 25.583447 L 13.426573 25.670791 L 14.265734 25.357903 L 15.104895 24.957357 L 15.944056 25.013033 L 16.783217 25.350322 L 17.622378 25.158025 L 18.461538 24.879096 L 19.300699 24.946854 L 20.139860 24.992816 L 20.979021 24.118280 L 21.818182 23.019858 L 22.657343 23.029572 L 23.496503 22.604544 L 24.335664 24.321317 L 25.174825 24.028252 L 26.013986 23.849064 L 26.853147 23.200862 L 27.692308 24.277092 L 28.531469 24.044757 L 29.370629 23.966180 L 30.209790 23.735897 L 31.048951 24.596692 L 31.888112 24.612645 L 32.727273 25.008452 L 33.566434 24.675822 L 34.405594 24.481551 L 35.244755 24.798466 L 36.083916 24.198357 L 36.923077 24.781803 L 37.762238 24.307260 L 38.601399 23.950622 L 39.440559 27.960900 L 40.279720 28.626555 L 41.118881 28.510703 L 41.958042 26.336604 L 42.797203 28.194578 L 43.636364 25.470439 L 44.475524 25.966620 L 45.314685 25.742734 L 46.153846 25.727808 L 46.993007 25.301912 L 47.832168 25.093347 L 48.671329 24.830528 L 49.510490 24.932481 L 50.349650 24.951355 L 51.188811 25.170187 L 52.027972 24.187538 L 52.867133 24.066158 L 53.706294 24.444987 L 54.545455 24.594718 L 55.384615 25.328210 L 56.223776 25.239208 L 57.062937 25.014770 L 57.902098 24.629071 L 58.741259 25.350085 L 59.580420 25.804332 L 60.419580 25.016428 L 61.258741 24.284200 L 62.097902 24.640759 L 62.937063 24.605142 L 63.776224 25.930608 L 64.615385 22.828983 L 65.454545 20.773578 L 66.293706 20.571489 L 67.132867 22.776071 L 67.972028 22.267729 L 68.811189 20.245808 L 69.650350 21.727797 L 70.489510 22.865231 L 71.328671 22.812557 L 72.167832 22.801185 L 73.006993 22.801185 L 73.846154 23.465734 L 74.685315 22.783021 L 75.524476 24.181063 L 76.363636 21.914171 L 77.202797 22.639766 L 78.041958 22.653665 L 78.881119 23.040707 L 79.720280 21.479904 L 80.559441 21.622211 L 81.398601 22.522808 L 82.237762 22.176042 L 83.076923 22.464132 L 83.916084 22.530469 L 84.755245 21.050375 L 85.594406 21.187865 L 86.433566 21.446341 L 87.272727 21.457318 L 88.111888 21.601758 L 88.951049 22.208026 L 89.790210 22.152508 L 90.629371 22.232981 L 91.468531 22.281707 L 92.307692 22.161827 L 93.146853 21.997171 L 93.986014 22.639134 L 94.825175 22.304530 L 95.664336 22.055768 L 96.503497 22.184334 L 97.342657 22.861203 L 98.181818 22.845330 L 99.020979 22.276021 L 99.860140 24.164873 L 100.699301 24.885651 L 101.538462 28.507623 L 102.377622 28.637690 L 103.216783 28.559666 L 104.055944 27.276528 L 104.895105 22.668749 L 105.734266 25.192773 L 106.573427 27.578201 L 107.412587 30.210339 L 108.251748 8.800000 L 109.090909 31.303785 L 109.930070 30.583718 L 110.769231 31.894654 L 111.608392 33.814542 L 112.447552 35.415305 L 113.286713 35.977901 L 114.125874 32.721017 L 114.965035 36.658482 L 115.804196 36.800000 L 116.643357 35.404407 L 117.482517 33.782795 L 118.321678 26.761473 L 119.160839 27.380850 L 120.000000 31.214468 L 120 40 Z"></path>
    </g>
  </svg>