<svg xmlns="http://www.w3.org/2000/svg" viewBox="0 0 120 40" width="120" height="40">
    <defs>
      <linearGradient id="color_grad" x1="0%" x2="0%" y1="0%" y2="100%">
        <stop offset="0%" style="stop-color:#EA3943;stop-opacity:0.4;"></stop>
        <stop offset="100%" style="stop-color:#EA3943;stop-opacity:0.0;"></stop>
      </linearGradient>
    </defs>
    <g>
      <path stroke="#EA3943" stroke-width="2" stroke-linecap="round" stroke-linejoin="round" fill="none" d="M 0.000000 19.842254 L 0.839161 19.842254 L 1.678322 19.842254 L 2.517483 18.824623 L 3.356643 18.659155 L 4.195804 17.280252 L 5.034965 16.687324 L 5.874126 16.687324 L 6.713287 17.476056 L 7.552448 17.476056 L 8.391608 17.476056 L 9.230769 18.113109 L 10.069930 18.659155 L 10.909091 18.659155 L 11.748252 18.659155 L 12.587413 18.659155 L 13.426573 18.659155 L 14.265734 18.659155 L 15.104895 18.659155 L 15.944056 18.659155 L 16.783217 19.287935 L 17.622378 19.447887 L 18.461538 19.447887 L 19.300699 19.447887 L 20.139860 19.447887 L 20.979021 18.468866 L 21.818182 17.476056 L 22.657343 17.476056 L 23.496503 16.852792 L 24.335664 18.548843 L 25.174825 17.947641 L 26.013986 17.473299 L 26.853147 17.081690 L 27.692308 18.264789 L 28.531469 18.264789 L 29.370629 18.264789 L 30.209790 18.264789 L 31.048951 18.264789 L 31.888112 18.264789 L 32.727273 18.444046 L 33.566434 18.659155 L 34.405594 18.659155 L 35.244755 18.659155 L 36.083916 19.053521 L 36.923077 19.842254 L 37.762238 20.352448 L 38.601399 20.407604 L 39.440559 24.574648 L 40.279720 24.574648 L 41.118881 24.574648 L 41.958042 22.602817 L 42.797203 24.232680 L 43.636364 21.742382 L 44.475524 22.346341 L 45.314685 22.602817 L 46.153846 22.602817 L 46.993007 21.618280 L 47.832168 21.419718 L 48.671329 21.419718 L 49.510490 21.419718 L 50.349650 21.419718 L 51.188811 21.419718 L 52.027972 21.419718 L 52.867133 21.419718 L 53.706294 21.419718 L 54.545455 21.419718 L 55.384615 22.602817 L 56.223776 22.602817 L 57.062937 21.998857 L 57.902098 21.419718 L 58.741259 21.731350 L 59.580420 22.208451 L 60.419580 22.208451 L 61.258741 22.208451 L 62.097902 22.208451 L 62.937063 22.208451 L 63.776224 23.405338 L 64.615385 19.660238 L 65.454545 17.009987 L 66.293706 16.822456 L 67.132867 19.447887 L 67.972028 18.540569 L 68.811189 16.687324 L 69.650350 17.081690 L 70.489510 18.165508 L 71.328671 18.659155 L 72.167832 18.659155 L 73.006993 18.659155 L 73.846154 18.659155 L 74.685315 18.659155 L 75.524476 20.236620 L 76.363636 18.981818 L 77.202797 18.659155 L 78.041958 17.489845 L 78.881119 19.158318 L 79.720280 17.476056 L 80.559441 17.870423 L 81.398601 18.317187 L 82.237762 18.659155 L 83.076923 18.719827 L 83.916084 18.659155 L 84.755245 18.659155 L 85.594406 18.659155 L 86.433566 18.659155 L 87.272727 18.838412 L 88.111888 18.783256 L 88.951049 19.842254 L 89.790210 19.842254 L 90.629371 19.842254 L 91.468531 19.842254 L 92.307692 19.842254 L 93.146853 19.842254 L 93.986014 20.630986 L 94.825175 20.630986 L 95.664336 20.236620 L 96.503497 20.335901 L 97.342657 21.419718 L 98.181818 21.419718 L 99.020979 21.419718 L 99.860140 23.363971 L 100.699301 25.021412 L 101.538462 27.213868 L 102.377622 27.360032 L 103.216783 27.329696 L 104.055944 25.757746 L 104.895105 21.499695 L 105.734266 24.969014 L 106.573427 26.960150 L 107.412587 29.268433 L 108.251748 8.800000 L 109.090909 30.203329 L 109.930070 29.828268 L 110.769231 31.673239 L 111.608392 33.885000 L 112.447552 36.113306 L 113.286713 36.452516 L 114.125874 33.267251 L 114.965035 36.800000 L 115.804196 36.800000 L 116.643357 35.222535 L 117.482517 33.951187 L 118.321678 26.546479 L 119.160839 27.224899 L 120.000000 30.490141"></path>
      <path stroke="none" fill-opacity="0.6" fill="url(#color_grad)" d="M 0 40 L 0.000000 19.842254 L 0.839161 19.842254 L 1.678322 19.842254 L 2.517483 18.824623 L 3.356643 18.659155 L 4.195804 17.280252 L 5.034965 16.687324 L 5.874126 16.687324 L 6.713287 17.476056 L 7.552448 17.476056 L 8.391608 17.476056 L 9.230769 18.113109 L 10.069930 18.659155 L 10.909091 18.659155 L 11.748252 18.659155 L 12.587413 18.659155 L 13.426573 18.659155 L 14.265734 18.659155 L 15.104895 18.659155 L 15.944056 18.659155 L 16.783217 19.287935 L 17.622378 19.447887 L 18.461538 19.447887 L 19.300699 19.447887 L 20.139860 19.447887 L 20.979021 18.468866 L 21.818182 17.476056 L 22.657343 17.476056 L 23.496503 16.852792 L 24.335664 18.548843 L 25.174825 17.947641 L 26.013986 17.473299 L 26.853147 17.081690 L 27.692308 18.264789 L 28.531469 18.264789 L 29.370629 18.264789 L 30.209790 18.264789 L 31.048951 18.264789 L 31.888112 18.264789 L 32.727273 18.444046 L 33.566434 18.659155 L 34.405594 18.659155 L 35.244755 18.659155 L 36.083916 19.053521 L 36.923077 19.842254 L 37.762238 20.352448 L 38.601399 20.407604 L 39.440559 24.574648 L 40.279720 24.574648 L 41.118881 24.574648 L 41.958042 22.602817 L 42.797203 24.232680 L 43.636364 21.742382 L 44.475524 22.346341 L 45.314685 22.602817 L 46.153846 22.602817 L 46.993007 21.618280 L 47.832168 21.419718 L 48.671329 21.419718 L 49.510490 21.419718 L 50.349650 21.419718 L 51.188811 21.419718 L 52.027972 21.419718 L 52.867133 21.419718 L 53.706294 21.419718 L 54.545455 21.419718 L 55.384615 22.602817 L 56.223776 22.602817 L 57.062937 21.998857 L 57.902098 21.419718 L 58.741259 21.731350 L 59.580420 22.208451 L 60.419580 22.208451 L 61.258741 22.208451 L 62.097902 22.208451 L 62.937063 22.208451 L 63.776224 23.405338 L 64.615385 19.660238 L 65.454545 17.009987 L 66.293706 16.822456 L 67.132867 19.447887 L 67.972028 18.540569 L 68.811189 16.687324 L 69.650350 17.081690 L 70.489510 18.165508 L 71.328671 18.659155 L 72.167832 18.659155 L 73.006993 18.659155 L 73.846154 18.659155 L 74.685315 18.659155 L 75.524476 20.236620 L 76.363636 18.981818 L 77.202797 18.659155 L 78.041958 17.489845 L 78.881119 19.158318 L 79.720280 17.476056 L 80.559441 17.870423 L 81.398601 18.317187 L 82.237762 18.659155 L 83.076923 18.719827 L 83.916084 18.659155 L 84.755245 18.659155 L 85.594406 18.659155 L 86.433566 18.659155 L 87.272727 18.838412 L 88.111888 18.783256 L 88.951049 19.842254 L 89.790210 19.842254 L 90.629371 19.842254 L 91.468531 19.842254 L 92.307692 19.842254 L 93.146853 19.842254 L 93.986014 20.630986 L 94.825175 20.630986 L 95.664336 20.236620 L 96.503497 20.335901 L 97.342657 21.419718 L 98.181818 21.419718 L 99.020979 21.419718 L 99.860140 23.363971 L 100.699301 25.021412 L 101.538462 27.213868 L 102.377622 27.360032 L 103.216783 27.329696 L 104.055944 25.757746 L 104.895105 21.499695 L 105.734266 24.969014 L 106.573427 26.960150 L 107.412587 29.268433 L 108.251748 8.800000 L 109.090909 30.203329 L 109.930070 29.828268 L 110.769231 31.673239 L 111.608392 33.885000 L 112.447552 36.113306 L 113.286713 36.452516 L 114.125874 33.267251 L 114.965035 36.800000 L 115.804196 36.800000 L 116.643357 35.222535 L 117.482517 33.951187 L 118.321678 26.546479 L 119.160839 27.224899 L 120.000000 30.490141 L 120 40 Z"></path>
    </g>
  </svg>