<svg xmlns="http://www.w3.org/2000/svg" viewBox="0 0 120 40" width="120" height="40">
    <defs>
      <linearGradient id="color_grad" x1="0%" x2="0%" y1="0%" y2="100%">
        <stop offset="0%" style="stop-color:#16C784;stop-opacity:0.4;"></stop>
        <stop offset="100%" style="stop-color:#16C784;stop-opacity:0.0;"></stop>
      </linearGradient>
    </defs>
    <g>
      <path stroke="#16C784" stroke-width="2" stroke-linecap="round" stroke-linejoin="round" fill="none" d="M 0.000000 34.729868 L 0.839161 34.075918 L 1.678322 35.585035 L 2.517483 36.078246 L 3.356643 27.139737 L 4.195804 31.269648 L 5.034965 31.184581 L 5.874126 31.723404 L 6.713287 33.473677 L 7.552448 32.905647 L 8.391608 12.431331 L 9.230769 10.683293 L 10.069930 12.352669 L 10.909091 11.007235 L 11.748252 11.527517 L 12.587413 12.140458 L 13.426573 12.536322 L 14.265734 11.228665 L 15.104895 9.608277 L 15.944056 12.589270 L 16.783217 11.592856 L 17.622378 10.213048 L 18.461538 9.235372 L 19.300699 12.378475 L 20.139860 12.575581 L 20.979021 12.767789 L 21.818182 12.121287 L 22.657343 12.176150 L 23.496503 12.769566 L 24.335664 14.390394 L 25.174825 23.776168 L 26.013986 22.940749 L 26.853147 12.355338 L 27.692308 15.567077 L 28.531469 16.343963 L 29.370629 16.021849 L 30.209790 15.103179 L 31.048951 19.077328 L 31.888112 19.154947 L 32.727273 20.051673 L 33.566434 18.147860 L 34.405594 19.660641 L 35.244755 20.883533 L 36.083916 17.090834 L 36.923077 16.453845 L 37.762238 12.598954 L 38.601399 10.271392 L 39.440559 14.027966 L 40.279720 16.843737 L 41.118881 16.396013 L 41.958042 15.249645 L 42.797203 17.008147 L 43.636364 17.514352 L 44.475524 15.318230 L 45.314685 9.924352 L 46.153846 11.826081 L 46.993007 14.829962 L 47.832168 14.797109 L 48.671329 13.709537 L 49.510490 14.176399 L 50.349650 14.258384 L 51.188811 15.151157 L 52.027972 11.223427 L 52.867133 10.757732 L 53.706294 12.270618 L 54.545455 12.869188 L 55.384615 11.164178 L 56.223776 10.796132 L 57.062937 12.285730 L 57.902098 12.986551 L 58.741259 14.676822 L 59.580420 14.673498 L 60.419580 11.457012 L 61.258741 8.800000 L 62.097902 11.624202 L 62.937063 12.950819 L 63.776224 15.174780 L 64.615385 16.871266 L 65.454545 19.628417 L 66.293706 23.966482 L 67.132867 22.707407 L 67.972028 19.666181 L 68.811189 18.818692 L 69.650350 22.876583 L 70.489510 23.564265 L 71.328671 24.294549 L 72.167832 24.248183 L 73.006993 24.248183 L 73.846154 26.736700 L 74.685315 24.186305 L 75.524476 23.758775 L 76.363636 19.790271 L 77.202797 36.800000 L 78.041958 27.837875 L 78.881119 23.359593 L 79.720280 23.573155 L 80.559441 23.825051 L 81.398601 27.358177 L 82.237762 25.553926 L 83.076923 26.408056 L 83.916084 26.837934 L 84.755245 21.408351 L 85.594406 21.987809 L 86.433566 23.209482 L 87.272727 22.597518 L 88.111888 23.764636 L 88.951049 22.369571 L 89.790210 22.165601 L 90.629371 22.453242 L 91.468531 22.636554 L 92.307692 22.198723 L 93.146853 21.570519 L 93.986014 21.044586 L 94.825175 19.803317 L 95.664336 20.364235 L 96.503497 20.445925 L 97.342657 18.991448 L 98.181818 19.205928 L 99.020979 17.027533 L 99.860140 16.777755 L 100.699301 12.940054 L 101.538462 19.564166 L 102.377622 19.597629 L 103.216783 19.384762 L 104.055944 20.584137 L 104.895105 21.244472 L 105.734266 17.544524 L 106.573427 19.030313 L 107.412587 20.446036 L 108.251748 24.255631 L 109.090909 21.746914 L 109.930070 20.291402 L 110.769231 17.840465 L 111.608392 16.255932 L 112.447552 25.619409 L 113.286713 26.567392 L 114.125874 26.768406 L 114.965035 28.069651 L 115.804196 16.582825 L 116.643357 17.638350 L 117.482517 16.160461 L 118.321678 18.582006 L 119.160839 20.436143 L 120.000000 20.446463"></path>
      <path stroke="none" fill-opacity="0.6" fill="url(#color_grad)" d="M 0 40 L 0.000000 34.729868 L 0.839161 34.075918 L 1.678322 35.585035 L 2.517483 36.078246 L 3.356643 27.139737 L 4.195804 31.269648 L 5.034965 31.184581 L 5.874126 31.723404 L 6.713287 33.473677 L 7.552448 32.905647 L 8.391608 12.431331 L 9.230769 10.683293 L 10.069930 12.352669 L 10.909091 11.007235 L 11.748252 11.527517 L 12.587413 12.140458 L 13.426573 12.536322 L 14.265734 11.228665 L 15.104895 9.608277 L 15.944056 12.589270 L 16.783217 11.592856 L 17.622378 10.213048 L 18.461538 9.235372 L 19.300699 12.378475 L 20.139860 12.575581 L 20.979021 12.767789 L 21.818182 12.121287 L 22.657343 12.176150 L 23.496503 12.769566 L 24.335664 14.390394 L 25.174825 23.776168 L 26.013986 22.940749 L 26.853147 12.355338 L 27.692308 15.567077 L 28.531469 16.343963 L 29.370629 16.021849 L 30.209790 15.103179 L 31.048951 19.077328 L 31.888112 19.154947 L 32.727273 20.051673 L 33.566434 18.147860 L 34.405594 19.660641 L 35.244755 20.883533 L 36.083916 17.090834 L 36.923077 16.453845 L 37.762238 12.598954 L 38.601399 10.271392 L 39.440559 14.027966 L 40.279720 16.843737 L 41.118881 16.396013 L 41.958042 15.249645 L 42.797203 17.008147 L 43.636364 17.514352 L 44.475524 15.318230 L 45.314685 9.924352 L 46.153846 11.826081 L 46.993007 14.829962 L 47.832168 14.797109 L 48.671329 13.709537 L 49.510490 14.176399 L 50.349650 14.258384 L 51.188811 15.151157 L 52.027972 11.223427 L 52.867133 10.757732 L 53.706294 12.270618 L 54.545455 12.869188 L 55.384615 11.164178 L 56.223776 10.796132 L 57.062937 12.285730 L 57.902098 12.986551 L 58.741259 14.676822 L 59.580420 14.673498 L 60.419580 11.457012 L 61.258741 8.800000 L 62.097902 11.624202 L 62.937063 12.950819 L 63.776224 15.174780 L 64.615385 16.871266 L 65.454545 19.628417 L 66.293706 23.966482 L 67.132867 22.707407 L 67.972028 19.666181 L 68.811189 18.818692 L 69.650350 22.876583 L 70.489510 23.564265 L 71.328671 24.294549 L 72.167832 24.248183 L 73.006993 24.248183 L 73.846154 26.736700 L 74.685315 24.186305 L 75.524476 23.758775 L 76.363636 19.790271 L 77.202797 36.800000 L 78.041958 27.837875 L 78.881119 23.359593 L 79.720280 23.573155 L 80.559441 23.825051 L 81.398601 27.358177 L 82.237762 25.553926 L 83.076923 26.408056 L 83.916084 26.837934 L 84.755245 21.408351 L 85.594406 21.987809 L 86.433566 23.209482 L 87.272727 22.597518 L 88.111888 23.764636 L 88.951049 22.369571 L 89.790210 22.165601 L 90.629371 22.453242 L 91.468531 22.636554 L 92.307692 22.198723 L 93.146853 21.570519 L 93.986014 21.044586 L 94.825175 19.803317 L 95.664336 20.364235 L 96.503497 20.445925 L 97.342657 18.991448 L 98.181818 19.205928 L 99.020979 17.027533 L 99.860140 16.777755 L 100.699301 12.940054 L 101.538462 19.564166 L 102.377622 19.597629 L 103.216783 19.384762 L 104.055944 20.584137 L 104.895105 21.244472 L 105.734266 17.544524 L 106.573427 19.030313 L 107.412587 20.446036 L 108.251748 24.255631 L 109.090909 21.746914 L 109.930070 20.291402 L 110.769231 17.840465 L 111.608392 16.255932 L 112.447552 25.619409 L 113.286713 26.567392 L 114.125874 26.768406 L 114.965035 28.069651 L 115.804196 16.582825 L 116.643357 17.638350 L 117.482517 16.160461 L 118.321678 18.582006 L 119.160839 20.436143 L 120.000000 20.446463 L 120 40 Z"></path>
    </g>
  </svg>