<svg xmlns="http://www.w3.org/2000/svg" viewBox="0 0 120 40" width="120" height="40">
    <defs>
      <linearGradient id="color_grad" x1="0%" x2="0%" y1="0%" y2="100%">
        <stop offset="0%" style="stop-color:#EA3943;stop-opacity:0.4;"></stop>
        <stop offset="100%" style="stop-color:#EA3943;stop-opacity:0.0;"></stop>
      </linearGradient>
    </defs>
    <g>
      <path stroke="#EA3943" stroke-width="2" stroke-linecap="round" stroke-linejoin="round" fill="none" d="M 0.000000 25.909993 L 0.839161 26.111287 L 1.678322 26.111287 L 2.517483 26.111287 L 3.356643 19.267290 L 4.195804 22.144528 L 5.034965 22.689288 L 5.874126 22.689288 L 6.713287 22.689288 L 7.552448 22.689288 L 8.391608 8.800000 L 9.230769 8.800000 L 10.069930 8.800000 L 10.909091 8.865878 L 11.748252 8.800000 L 12.587413 8.800000 L 13.426573 8.800000 L 14.265734 8.800000 L 15.104895 8.800000 L 15.944056 10.631776 L 16.783217 10.631776 L 17.622378 10.631776 L 18.461538 10.752552 L 19.300699 12.624587 L 20.139860 12.624587 L 20.979021 12.624587 L 21.818182 12.637396 L 22.657343 12.644716 L 23.496503 12.644716 L 24.335664 13.361210 L 25.174825 18.860479 L 26.013986 17.649618 L 26.853147 11.378394 L 27.692308 13.579959 L 28.531469 14.657656 L 29.370629 14.657656 L 30.209790 14.657656 L 31.048951 15.060244 L 31.888112 15.060244 L 32.727273 15.060244 L 33.566434 15.191860 L 34.405594 16.670597 L 35.244755 16.670597 L 36.083916 16.670597 L 36.923077 16.670597 L 37.762238 16.648215 L 38.601399 16.207620 L 39.440559 18.663408 L 40.279720 18.663408 L 41.118881 18.680581 L 41.958042 18.683537 L 42.797203 19.065996 L 43.636364 20.237161 L 44.475524 19.065996 L 45.314685 16.851761 L 46.153846 18.105978 L 46.993007 18.663408 L 47.832168 18.663408 L 48.671329 18.663408 L 49.510490 18.673543 L 50.349650 18.703666 L 51.188811 18.703666 L 52.027972 18.703666 L 52.867133 18.703666 L 53.706294 18.703666 L 54.545455 18.703666 L 55.384615 18.703666 L 56.223776 18.703666 L 57.062937 18.703666 L 57.902098 18.703666 L 58.741259 18.703666 L 59.580420 18.703666 L 60.419580 18.703666 L 61.258741 18.906931 L 62.097902 19.759967 L 62.937063 20.676348 L 63.776224 21.682818 L 64.615385 21.373135 L 65.454545 21.884112 L 66.293706 24.702229 L 67.132867 24.702229 L 67.972028 21.884112 L 68.811189 21.884112 L 69.650350 21.884112 L 70.489510 22.085406 L 71.328671 23.816535 L 72.167832 23.816535 L 73.006993 23.816535 L 73.846154 23.816535 L 74.685315 23.816535 L 75.524476 23.816535 L 76.363636 23.816535 L 77.202797 32.219083 L 78.041958 23.816535 L 78.881119 23.816535 L 79.720280 23.816535 L 80.559441 24.527680 L 81.398601 25.674915 L 82.237762 26.111287 L 83.076923 26.111287 L 83.916084 26.111287 L 84.755245 26.111287 L 85.594406 26.164778 L 86.433566 26.312581 L 87.272727 26.312581 L 88.111888 26.588480 L 88.951049 26.715169 L 89.790210 26.715169 L 90.629371 26.715169 L 91.468531 26.715169 L 92.307692 26.715169 L 93.146853 26.715169 L 93.986014 26.715169 L 94.825175 26.715169 L 95.664336 26.715169 L 96.503497 26.715169 L 97.342657 26.760214 L 98.181818 26.916463 L 99.020979 26.916463 L 99.860140 26.916463 L 100.699301 26.916463 L 101.538462 27.475441 L 102.377622 27.520345 L 103.216783 27.520345 L 104.055944 27.540474 L 104.895105 28.776673 L 105.734266 28.828756 L 106.573427 28.828756 L 107.412587 28.929403 L 108.251748 32.753990 L 109.090909 29.331991 L 109.930070 29.331991 L 110.769231 29.331991 L 111.608392 29.331991 L 112.447552 36.800000 L 113.286713 36.800000 L 114.125874 36.800000 L 114.965035 36.800000 L 115.804196 29.533285 L 116.643357 29.533285 L 117.482517 29.533285 L 118.321678 29.533285 L 119.160839 30.831139 L 120.000000 29.533285"></path>
      <path stroke="none" fill-opacity="0.6" fill="url(#color_grad)" d="M 0 40 L 0.000000 25.909993 L 0.839161 26.111287 L 1.678322 26.111287 L 2.517483 26.111287 L 3.356643 19.267290 L 4.195804 22.144528 L 5.034965 22.689288 L 5.874126 22.689288 L 6.713287 22.689288 L 7.552448 22.689288 L 8.391608 8.800000 L 9.230769 8.800000 L 10.069930 8.800000 L 10.909091 8.865878 L 11.748252 8.800000 L 12.587413 8.800000 L 13.426573 8.800000 L 14.265734 8.800000 L 15.104895 8.800000 L 15.944056 10.631776 L 16.783217 10.631776 L 17.622378 10.631776 L 18.461538 10.752552 L 19.300699 12.624587 L 20.139860 12.624587 L 20.979021 12.624587 L 21.818182 12.637396 L 22.657343 12.644716 L 23.496503 12.644716 L 24.335664 13.361210 L 25.174825 18.860479 L 26.013986 17.649618 L 26.853147 11.378394 L 27.692308 13.579959 L 28.531469 14.657656 L 29.370629 14.657656 L 30.209790 14.657656 L 31.048951 15.060244 L 31.888112 15.060244 L 32.727273 15.060244 L 33.566434 15.191860 L 34.405594 16.670597 L 35.244755 16.670597 L 36.083916 16.670597 L 36.923077 16.670597 L 37.762238 16.648215 L 38.601399 16.207620 L 39.440559 18.663408 L 40.279720 18.663408 L 41.118881 18.680581 L 41.958042 18.683537 L 42.797203 19.065996 L 43.636364 20.237161 L 44.475524 19.065996 L 45.314685 16.851761 L 46.153846 18.105978 L 46.993007 18.663408 L 47.832168 18.663408 L 48.671329 18.663408 L 49.510490 18.673543 L 50.349650 18.703666 L 51.188811 18.703666 L 52.027972 18.703666 L 52.867133 18.703666 L 53.706294 18.703666 L 54.545455 18.703666 L 55.384615 18.703666 L 56.223776 18.703666 L 57.062937 18.703666 L 57.902098 18.703666 L 58.741259 18.703666 L 59.580420 18.703666 L 60.419580 18.703666 L 61.258741 18.906931 L 62.097902 19.759967 L 62.937063 20.676348 L 63.776224 21.682818 L 64.615385 21.373135 L 65.454545 21.884112 L 66.293706 24.702229 L 67.132867 24.702229 L 67.972028 21.884112 L 68.811189 21.884112 L 69.650350 21.884112 L 70.489510 22.085406 L 71.328671 23.816535 L 72.167832 23.816535 L 73.006993 23.816535 L 73.846154 23.816535 L 74.685315 23.816535 L 75.524476 23.816535 L 76.363636 23.816535 L 77.202797 32.219083 L 78.041958 23.816535 L 78.881119 23.816535 L 79.720280 23.816535 L 80.559441 24.527680 L 81.398601 25.674915 L 82.237762 26.111287 L 83.076923 26.111287 L 83.916084 26.111287 L 84.755245 26.111287 L 85.594406 26.164778 L 86.433566 26.312581 L 87.272727 26.312581 L 88.111888 26.588480 L 88.951049 26.715169 L 89.790210 26.715169 L 90.629371 26.715169 L 91.468531 26.715169 L 92.307692 26.715169 L 93.146853 26.715169 L 93.986014 26.715169 L 94.825175 26.715169 L 95.664336 26.715169 L 96.503497 26.715169 L 97.342657 26.760214 L 98.181818 26.916463 L 99.020979 26.916463 L 99.860140 26.916463 L 100.699301 26.916463 L 101.538462 27.475441 L 102.377622 27.520345 L 103.216783 27.520345 L 104.055944 27.540474 L 104.895105 28.776673 L 105.734266 28.828756 L 106.573427 28.828756 L 107.412587 28.929403 L 108.251748 32.753990 L 109.090909 29.331991 L 109.930070 29.331991 L 110.769231 29.331991 L 111.608392 29.331991 L 112.447552 36.800000 L 113.286713 36.800000 L 114.125874 36.800000 L 114.965035 36.800000 L 115.804196 29.533285 L 116.643357 29.533285 L 117.482517 29.533285 L 118.321678 29.533285 L 119.160839 30.831139 L 120.000000 29.533285 L 120 40 Z"></path>
    </g>
  </svg>