<svg xmlns="http://www.w3.org/2000/svg" viewBox="0 0 120 40" width="120" height="40">
    <defs>
      <linearGradient id="color_grad" x1="0%" x2="0%" y1="0%" y2="100%">
        <stop offset="0%" style="stop-color:#EA3943;stop-opacity:0.4;"></stop>
        <stop offset="100%" style="stop-color:#EA3943;stop-opacity:0.0;"></stop>
      </linearGradient>
    </defs>
    <g>
      <path stroke="#EA3943" stroke-width="2" stroke-linecap="round" stroke-linejoin="round" fill="none" d="M 0.000000 32.742357 L 0.839161 32.742357 L 1.678322 32.742357 L 2.517483 32.742357 L 3.356643 32.742357 L 4.195804 32.742357 L 5.034965 32.742357 L 5.874126 32.742357 L 6.713287 32.742357 L 7.552448 32.742357 L 8.391608 32.742357 L 9.230769 32.742357 L 10.069930 32.742357 L 10.909091 32.742357 L 11.748252 32.742357 L 12.587413 32.742357 L 13.426573 32.742357 L 14.265734 32.742357 L 15.104895 32.742357 L 15.944056 32.742357 L 16.783217 32.742357 L 17.622378 32.742357 L 18.461538 32.742357 L 19.300699 31.877306 L 20.139860 28.751964 L 20.979021 28.751964 L 21.818182 28.751964 L 22.657343 28.751964 L 23.496503 28.751964 L 24.335664 28.751964 L 25.174825 28.751964 L 26.013986 28.751964 L 26.853147 28.751964 L 27.692308 28.751964 L 28.531469 28.751964 L 29.370629 28.751964 L 30.209790 33.779859 L 31.048951 33.779859 L 31.888112 33.779859 L 32.727273 36.772653 L 33.566434 36.772653 L 34.405594 36.772653 L 35.244755 36.772653 L 36.083916 36.800000 L 36.923077 28.432732 L 37.762238 28.432732 L 38.601399 28.432732 L 39.440559 28.432732 L 40.279720 28.432732 L 41.118881 28.432732 L 41.958042 28.432732 L 42.797203 28.432732 L 43.636364 28.432732 L 44.475524 28.432732 L 45.314685 28.432732 L 46.153846 28.432732 L 46.993007 28.432732 L 47.832168 28.432732 L 48.671329 28.432732 L 49.510490 28.432732 L 50.349650 28.432732 L 51.188811 28.432732 L 52.027972 28.432732 L 52.867133 28.432732 L 53.706294 28.432732 L 54.545455 28.432732 L 55.384615 28.432732 L 56.223776 28.432732 L 57.062937 28.432732 L 57.902098 28.432732 L 58.741259 28.432732 L 59.580420 28.432732 L 60.419580 28.432732 L 61.258741 28.432732 L 62.097902 28.432732 L 62.937063 29.565669 L 63.776224 30.747160 L 64.615385 30.747160 L 65.454545 30.747160 L 66.293706 30.747160 L 67.132867 30.747160 L 67.972028 30.747160 L 68.811189 28.392828 L 69.650350 28.392828 L 70.489510 28.392828 L 71.328671 28.392828 L 72.167832 28.392828 L 73.006993 28.392828 L 73.846154 28.392828 L 74.685315 28.392828 L 75.524476 28.392828 L 76.363636 28.392828 L 77.202797 28.791868 L 78.041958 28.791868 L 78.881119 28.791868 L 79.720280 28.791868 L 80.559441 28.791868 L 81.398601 28.791868 L 82.237762 28.791868 L 83.076923 28.791868 L 83.916084 28.791868 L 84.755245 28.791868 L 85.594406 28.791868 L 86.433566 28.791868 L 87.272727 28.791868 L 88.111888 28.791868 L 88.951049 28.791868 L 89.790210 28.791868 L 90.629371 28.791868 L 91.468531 28.791868 L 92.307692 28.791868 L 93.146853 28.791868 L 93.986014 28.791868 L 94.825175 28.791868 L 95.664336 28.791868 L 96.503497 28.791868 L 97.342657 28.791868 L 98.181818 28.791868 L 99.020979 28.791868 L 99.860140 28.791868 L 100.699301 28.831772 L 101.538462 28.831772 L 102.377622 28.831772 L 103.216783 28.831772 L 104.055944 28.831772 L 104.895105 28.831772 L 105.734266 28.831772 L 106.573427 34.093788 L 107.412587 36.228788 L 108.251748 8.800000 L 109.090909 36.732749 L 109.930070 36.732749 L 110.769231 36.732749 L 111.608392 32.653061 L 112.447552 29.949082 L 113.286713 31.390646 L 114.125874 31.585143 L 114.965035 35.415920 L 115.804196 35.415920 L 116.643357 35.415920 L 117.482517 35.415920 L 118.321678 35.415920 L 119.160839 35.415920 L 120.000000 35.415920"></path>
      <path stroke="none" fill-opacity="0.6" fill="url(#color_grad)" d="M 0 40 L 0.000000 32.742357 L 0.839161 32.742357 L 1.678322 32.742357 L 2.517483 32.742357 L 3.356643 32.742357 L 4.195804 32.742357 L 5.034965 32.742357 L 5.874126 32.742357 L 6.713287 32.742357 L 7.552448 32.742357 L 8.391608 32.742357 L 9.230769 32.742357 L 10.069930 32.742357 L 10.909091 32.742357 L 11.748252 32.742357 L 12.587413 32.742357 L 13.426573 32.742357 L 14.265734 32.742357 L 15.104895 32.742357 L 15.944056 32.742357 L 16.783217 32.742357 L 17.622378 32.742357 L 18.461538 32.742357 L 19.300699 31.877306 L 20.139860 28.751964 L 20.979021 28.751964 L 21.818182 28.751964 L 22.657343 28.751964 L 23.496503 28.751964 L 24.335664 28.751964 L 25.174825 28.751964 L 26.013986 28.751964 L 26.853147 28.751964 L 27.692308 28.751964 L 28.531469 28.751964 L 29.370629 28.751964 L 30.209790 33.779859 L 31.048951 33.779859 L 31.888112 33.779859 L 32.727273 36.772653 L 33.566434 36.772653 L 34.405594 36.772653 L 35.244755 36.772653 L 36.083916 36.800000 L 36.923077 28.432732 L 37.762238 28.432732 L 38.601399 28.432732 L 39.440559 28.432732 L 40.279720 28.432732 L 41.118881 28.432732 L 41.958042 28.432732 L 42.797203 28.432732 L 43.636364 28.432732 L 44.475524 28.432732 L 45.314685 28.432732 L 46.153846 28.432732 L 46.993007 28.432732 L 47.832168 28.432732 L 48.671329 28.432732 L 49.510490 28.432732 L 50.349650 28.432732 L 51.188811 28.432732 L 52.027972 28.432732 L 52.867133 28.432732 L 53.706294 28.432732 L 54.545455 28.432732 L 55.384615 28.432732 L 56.223776 28.432732 L 57.062937 28.432732 L 57.902098 28.432732 L 58.741259 28.432732 L 59.580420 28.432732 L 60.419580 28.432732 L 61.258741 28.432732 L 62.097902 28.432732 L 62.937063 29.565669 L 63.776224 30.747160 L 64.615385 30.747160 L 65.454545 30.747160 L 66.293706 30.747160 L 67.132867 30.747160 L 67.972028 30.747160 L 68.811189 28.392828 L 69.650350 28.392828 L 70.489510 28.392828 L 71.328671 28.392828 L 72.167832 28.392828 L 73.006993 28.392828 L 73.846154 28.392828 L 74.685315 28.392828 L 75.524476 28.392828 L 76.363636 28.392828 L 77.202797 28.791868 L 78.041958 28.791868 L 78.881119 28.791868 L 79.720280 28.791868 L 80.559441 28.791868 L 81.398601 28.791868 L 82.237762 28.791868 L 83.076923 28.791868 L 83.916084 28.791868 L 84.755245 28.791868 L 85.594406 28.791868 L 86.433566 28.791868 L 87.272727 28.791868 L 88.111888 28.791868 L 88.951049 28.791868 L 89.790210 28.791868 L 90.629371 28.791868 L 91.468531 28.791868 L 92.307692 28.791868 L 93.146853 28.791868 L 93.986014 28.791868 L 94.825175 28.791868 L 95.664336 28.791868 L 96.503497 28.791868 L 97.342657 28.791868 L 98.181818 28.791868 L 99.020979 28.791868 L 99.860140 28.791868 L 100.699301 28.831772 L 101.538462 28.831772 L 102.377622 28.831772 L 103.216783 28.831772 L 104.055944 28.831772 L 104.895105 28.831772 L 105.734266 28.831772 L 106.573427 34.093788 L 107.412587 36.228788 L 108.251748 8.800000 L 109.090909 36.732749 L 109.930070 36.732749 L 110.769231 36.732749 L 111.608392 32.653061 L 112.447552 29.949082 L 113.286713 31.390646 L 114.125874 31.585143 L 114.965035 35.415920 L 115.804196 35.415920 L 116.643357 35.415920 L 117.482517 35.415920 L 118.321678 35.415920 L 119.160839 35.415920 L 120.000000 35.415920 L 120 40 Z"></path>
    </g>
  </svg>