<svg xmlns="http://www.w3.org/2000/svg" viewBox="0 0 120 40" width="120" height="40">
    <defs>
      <linearGradient id="color_grad" x1="0%" x2="0%" y1="0%" y2="100%">
        <stop offset="0%" style="stop-color:#16C784;stop-opacity:0.4;"></stop>
        <stop offset="100%" style="stop-color:#16C784;stop-opacity:0.0;"></stop>
      </linearGradient>
    </defs>
    <g>
      <path stroke="#16C784" stroke-width="2" stroke-linecap="round" stroke-linejoin="round" fill="none" d="M 0.000000 33.626712 L 0.839161 33.272346 L 1.678322 33.830060 L 2.517483 34.012225 L 3.356643 34.500711 L 4.195804 34.434518 L 5.034965 34.108239 L 5.874126 34.303206 L 6.713287 34.935838 L 7.552448 34.730420 L 8.391608 34.828054 L 9.230769 34.247028 L 10.069930 34.801986 L 10.909091 34.321608 L 11.748252 34.527738 L 12.587413 34.731466 L 13.426573 34.863148 L 14.265734 34.428373 L 15.104895 33.889345 L 15.944056 33.961723 L 16.783217 33.626872 L 17.622378 33.163345 L 18.461538 32.772842 L 19.300699 32.308080 L 20.139860 30.353981 L 20.979021 30.421158 L 21.818182 30.187879 L 22.657343 30.203240 L 23.496503 30.410968 L 24.335664 30.597088 L 25.174825 30.965168 L 26.013986 31.324848 L 26.853147 30.937588 L 27.692308 30.893603 L 28.531469 30.589411 L 29.370629 30.475524 L 30.209790 33.409278 L 31.048951 34.559108 L 31.888112 34.585556 L 32.727273 36.800000 L 33.566434 36.096015 L 34.405594 35.849134 L 35.244755 36.262464 L 36.083916 34.998517 L 36.923077 29.321760 L 37.762238 27.948776 L 38.601399 27.361189 L 39.440559 27.322459 L 40.279720 28.346507 L 41.118881 28.174045 L 41.958042 27.755086 L 42.797203 28.178135 L 43.636364 27.693352 L 44.475524 27.561454 L 45.314685 26.871894 L 46.153846 26.842881 L 46.993007 27.613941 L 47.832168 27.602283 L 48.671329 27.206385 L 49.510490 27.370616 L 50.349650 27.383115 L 51.188811 27.707833 L 52.027972 26.278675 L 52.867133 26.109197 L 53.706294 26.659498 L 54.545455 26.877530 L 55.384615 26.257050 L 56.223776 26.123250 L 57.062937 26.665169 L 57.902098 26.920058 L 58.741259 27.535389 L 59.580420 27.533887 L 60.419580 26.363614 L 61.258741 25.277797 L 62.097902 25.810037 L 62.937063 26.528380 L 63.776224 27.551518 L 64.615385 28.348507 L 65.454545 29.059945 L 66.293706 29.026864 L 67.132867 28.559041 L 67.972028 29.073637 L 68.811189 27.192093 L 69.650350 28.698463 L 70.489510 28.838185 L 71.328671 28.105426 L 72.167832 28.088034 L 73.006993 28.088034 L 73.846154 29.023221 L 74.685315 28.064769 L 75.524476 27.904204 L 76.363636 26.412937 L 77.202797 28.133412 L 78.041958 29.696925 L 78.881119 28.018982 L 79.720280 28.098870 L 80.559441 27.774661 L 81.398601 28.431342 L 82.237762 27.486358 L 83.076923 27.811412 L 83.916084 27.974736 L 84.755245 25.910142 L 85.594406 26.098047 L 86.433566 26.473298 L 87.272727 26.240243 L 88.111888 26.517532 L 88.951049 25.907894 L 89.790210 25.829797 L 90.629371 25.940034 L 91.468531 26.009805 L 92.307692 25.842626 L 93.146853 25.603093 L 93.986014 25.402134 L 94.825175 24.928377 L 95.664336 25.142742 L 96.503497 25.173685 L 97.342657 24.590372 L 98.181818 24.575530 L 99.020979 23.742963 L 99.860140 23.647472 L 100.699301 22.208735 L 101.538462 24.391993 L 102.377622 24.377020 L 103.216783 24.295387 L 104.055944 24.742671 L 104.895105 24.222536 L 105.734266 22.758261 L 106.573427 26.999963 L 107.412587 28.950421 L 108.251748 8.800000 L 109.090909 29.535395 L 109.930070 29.002502 L 110.769231 28.104889 L 111.608392 24.627644 L 112.447552 21.467690 L 113.286713 22.880624 L 114.125874 23.099708 L 114.965035 26.338222 L 115.804196 26.589914 L 116.643357 26.980611 L 117.482517 26.433218 L 118.321678 27.330089 L 119.160839 27.218102 L 120.000000 28.020706"></path>
      <path stroke="none" fill-opacity="0.6" fill="url(#color_grad)" d="M 0 40 L 0.000000 33.626712 L 0.839161 33.272346 L 1.678322 33.830060 L 2.517483 34.012225 L 3.356643 34.500711 L 4.195804 34.434518 L 5.034965 34.108239 L 5.874126 34.303206 L 6.713287 34.935838 L 7.552448 34.730420 L 8.391608 34.828054 L 9.230769 34.247028 L 10.069930 34.801986 L 10.909091 34.321608 L 11.748252 34.527738 L 12.587413 34.731466 L 13.426573 34.863148 L 14.265734 34.428373 L 15.104895 33.889345 L 15.944056 33.961723 L 16.783217 33.626872 L 17.622378 33.163345 L 18.461538 32.772842 L 19.300699 32.308080 L 20.139860 30.353981 L 20.979021 30.421158 L 21.818182 30.187879 L 22.657343 30.203240 L 23.496503 30.410968 L 24.335664 30.597088 L 25.174825 30.965168 L 26.013986 31.324848 L 26.853147 30.937588 L 27.692308 30.893603 L 28.531469 30.589411 L 29.370629 30.475524 L 30.209790 33.409278 L 31.048951 34.559108 L 31.888112 34.585556 L 32.727273 36.800000 L 33.566434 36.096015 L 34.405594 35.849134 L 35.244755 36.262464 L 36.083916 34.998517 L 36.923077 29.321760 L 37.762238 27.948776 L 38.601399 27.361189 L 39.440559 27.322459 L 40.279720 28.346507 L 41.118881 28.174045 L 41.958042 27.755086 L 42.797203 28.178135 L 43.636364 27.693352 L 44.475524 27.561454 L 45.314685 26.871894 L 46.153846 26.842881 L 46.993007 27.613941 L 47.832168 27.602283 L 48.671329 27.206385 L 49.510490 27.370616 L 50.349650 27.383115 L 51.188811 27.707833 L 52.027972 26.278675 L 52.867133 26.109197 L 53.706294 26.659498 L 54.545455 26.877530 L 55.384615 26.257050 L 56.223776 26.123250 L 57.062937 26.665169 L 57.902098 26.920058 L 58.741259 27.535389 L 59.580420 27.533887 L 60.419580 26.363614 L 61.258741 25.277797 L 62.097902 25.810037 L 62.937063 26.528380 L 63.776224 27.551518 L 64.615385 28.348507 L 65.454545 29.059945 L 66.293706 29.026864 L 67.132867 28.559041 L 67.972028 29.073637 L 68.811189 27.192093 L 69.650350 28.698463 L 70.489510 28.838185 L 71.328671 28.105426 L 72.167832 28.088034 L 73.006993 28.088034 L 73.846154 29.023221 L 74.685315 28.064769 L 75.524476 27.904204 L 76.363636 26.412937 L 77.202797 28.133412 L 78.041958 29.696925 L 78.881119 28.018982 L 79.720280 28.098870 L 80.559441 27.774661 L 81.398601 28.431342 L 82.237762 27.486358 L 83.076923 27.811412 L 83.916084 27.974736 L 84.755245 25.910142 L 85.594406 26.098047 L 86.433566 26.473298 L 87.272727 26.240243 L 88.111888 26.517532 L 88.951049 25.907894 L 89.790210 25.829797 L 90.629371 25.940034 L 91.468531 26.009805 L 92.307692 25.842626 L 93.146853 25.603093 L 93.986014 25.402134 L 94.825175 24.928377 L 95.664336 25.142742 L 96.503497 25.173685 L 97.342657 24.590372 L 98.181818 24.575530 L 99.020979 23.742963 L 99.860140 23.647472 L 100.699301 22.208735 L 101.538462 24.391993 L 102.377622 24.377020 L 103.216783 24.295387 L 104.055944 24.742671 L 104.895105 24.222536 L 105.734266 22.758261 L 106.573427 26.999963 L 107.412587 28.950421 L 108.251748 8.800000 L 109.090909 29.535395 L 109.930070 29.002502 L 110.769231 28.104889 L 111.608392 24.627644 L 112.447552 21.467690 L 113.286713 22.880624 L 114.125874 23.099708 L 114.965035 26.338222 L 115.804196 26.589914 L 116.643357 26.980611 L 117.482517 26.433218 L 118.321678 27.330089 L 119.160839 27.218102 L 120.000000 28.020706 L 120 40 Z"></path>
    </g>
  </svg>