<svg xmlns="http://www.w3.org/2000/svg" viewBox="0 0 120 40" width="120" height="40">
    <defs>
      <linearGradient id="color_grad" x1="0%" x2="0%" y1="0%" y2="100%">
        <stop offset="0%" style="stop-color:#16C784;stop-opacity:0.4;"></stop>
        <stop offset="100%" style="stop-color:#16C784;stop-opacity:0.0;"></stop>
      </linearGradient>
    </defs>
    <g>
      <path stroke="#16C784" stroke-width="2" stroke-linecap="round" stroke-linejoin="round" fill="none" d="M 0.000000 31.016874 L 0.839161 29.894584 L 1.678322 32.200133 L 2.517483 36.152841 L 3.356643 36.800000 L 4.195804 33.525637 L 5.034965 32.531720 L 5.874126 34.077709 L 6.713287 36.094257 L 7.552448 34.502093 L 8.391608 34.811385 L 9.230769 32.971415 L 10.069930 34.728787 L 10.909091 33.207654 L 11.748252 33.860353 L 12.587413 34.505519 L 13.426573 34.922634 L 14.265734 33.545817 L 15.104895 31.838820 L 15.944056 32.067882 L 16.783217 32.565160 L 17.622378 31.501120 L 18.461538 30.273279 L 19.300699 23.978079 L 20.139860 25.766024 L 20.979021 25.974895 L 21.818182 25.889931 L 22.657343 26.302198 L 23.496503 26.945869 L 24.335664 27.522877 L 25.174825 28.663756 L 26.013986 30.771047 L 26.853147 29.622499 L 27.692308 32.163074 L 28.531469 32.707789 L 29.370629 32.427441 L 30.209790 31.436903 L 31.048951 35.063331 L 31.888112 35.147000 L 32.727273 36.115928 L 33.566434 33.845069 L 34.405594 33.048579 L 35.244755 34.381790 L 36.083916 30.246808 L 36.923077 29.666522 L 37.762238 26.651884 L 38.601399 24.877341 L 39.440559 23.518489 L 40.279720 27.443700 L 41.118881 26.922071 L 41.958042 25.655028 L 42.797203 26.934494 L 43.636364 25.468264 L 44.475524 25.172470 L 45.314685 23.399718 L 46.153846 23.311973 L 46.993007 25.640723 L 47.832168 25.605581 L 48.671329 24.409687 L 49.510490 24.905765 L 50.349650 24.943540 L 51.188811 25.924420 L 52.027972 22.131421 L 52.867133 21.620396 L 53.706294 25.363638 L 54.545455 26.015743 L 55.384615 24.159199 L 56.223776 21.767667 L 57.062937 23.400695 L 57.902098 24.168663 L 58.741259 26.022927 L 59.580420 26.018527 L 60.419580 22.431247 L 61.258741 19.845898 L 62.097902 21.770187 L 62.937063 21.930819 L 63.776224 23.483085 L 64.615385 25.980340 L 65.454545 28.969331 L 66.293706 30.934981 L 67.132867 29.527546 L 67.972028 32.108135 L 68.811189 31.180728 L 69.650350 35.620058 L 70.489510 36.133757 L 71.328671 34.451312 L 72.167832 34.847197 L 73.006993 34.847197 L 73.846154 33.631824 L 74.685315 31.704679 L 75.524476 31.233530 L 76.363636 26.805885 L 77.202797 31.128735 L 78.041958 35.784203 L 78.881119 30.808605 L 79.720280 31.046574 L 80.559441 30.060586 L 81.398601 32.015763 L 82.237762 29.201875 L 83.076923 30.169742 L 83.916084 30.656041 L 84.755245 24.707430 L 85.594406 26.634179 L 86.433566 27.745361 L 87.272727 27.055060 L 88.111888 29.445738 L 88.951049 27.650899 L 89.790210 27.420627 L 90.629371 26.166414 L 91.468531 26.372722 L 92.307692 25.877722 L 93.146853 25.168703 L 93.986014 24.573481 L 94.825175 21.031775 L 95.664336 22.212865 L 96.503497 22.305034 L 97.342657 20.807201 L 98.181818 22.125798 L 99.020979 21.551364 L 99.860140 24.229906 L 100.699301 20.287908 L 101.538462 26.638299 L 102.377622 26.594888 L 103.216783 26.357306 L 104.055944 23.072803 L 104.895105 24.751499 L 105.734266 20.471546 L 106.573427 24.058196 L 107.412587 26.796100 L 108.251748 23.980060 L 109.090909 32.783510 L 109.930070 17.241722 L 110.769231 14.407596 L 111.608392 12.575650 L 112.447552 8.800000 L 113.286713 9.953032 L 114.125874 10.196609 L 114.965035 11.779087 L 115.804196 12.576977 L 116.643357 13.896777 L 117.482517 15.484537 L 118.321678 23.592004 L 119.160839 23.252546 L 120.000000 25.686571"></path>
      <path stroke="none" fill-opacity="0.6" fill="url(#color_grad)" d="M 0 40 L 0.000000 31.016874 L 0.839161 29.894584 L 1.678322 32.200133 L 2.517483 36.152841 L 3.356643 36.800000 L 4.195804 33.525637 L 5.034965 32.531720 L 5.874126 34.077709 L 6.713287 36.094257 L 7.552448 34.502093 L 8.391608 34.811385 L 9.230769 32.971415 L 10.069930 34.728787 L 10.909091 33.207654 L 11.748252 33.860353 L 12.587413 34.505519 L 13.426573 34.922634 L 14.265734 33.545817 L 15.104895 31.838820 L 15.944056 32.067882 L 16.783217 32.565160 L 17.622378 31.501120 L 18.461538 30.273279 L 19.300699 23.978079 L 20.139860 25.766024 L 20.979021 25.974895 L 21.818182 25.889931 L 22.657343 26.302198 L 23.496503 26.945869 L 24.335664 27.522877 L 25.174825 28.663756 L 26.013986 30.771047 L 26.853147 29.622499 L 27.692308 32.163074 L 28.531469 32.707789 L 29.370629 32.427441 L 30.209790 31.436903 L 31.048951 35.063331 L 31.888112 35.147000 L 32.727273 36.115928 L 33.566434 33.845069 L 34.405594 33.048579 L 35.244755 34.381790 L 36.083916 30.246808 L 36.923077 29.666522 L 37.762238 26.651884 L 38.601399 24.877341 L 39.440559 23.518489 L 40.279720 27.443700 L 41.118881 26.922071 L 41.958042 25.655028 L 42.797203 26.934494 L 43.636364 25.468264 L 44.475524 25.172470 L 45.314685 23.399718 L 46.153846 23.311973 L 46.993007 25.640723 L 47.832168 25.605581 L 48.671329 24.409687 L 49.510490 24.905765 L 50.349650 24.943540 L 51.188811 25.924420 L 52.027972 22.131421 L 52.867133 21.620396 L 53.706294 25.363638 L 54.545455 26.015743 L 55.384615 24.159199 L 56.223776 21.767667 L 57.062937 23.400695 L 57.902098 24.168663 L 58.741259 26.022927 L 59.580420 26.018527 L 60.419580 22.431247 L 61.258741 19.845898 L 62.097902 21.770187 L 62.937063 21.930819 L 63.776224 23.483085 L 64.615385 25.980340 L 65.454545 28.969331 L 66.293706 30.934981 L 67.132867 29.527546 L 67.972028 32.108135 L 68.811189 31.180728 L 69.650350 35.620058 L 70.489510 36.133757 L 71.328671 34.451312 L 72.167832 34.847197 L 73.006993 34.847197 L 73.846154 33.631824 L 74.685315 31.704679 L 75.524476 31.233530 L 76.363636 26.805885 L 77.202797 31.128735 L 78.041958 35.784203 L 78.881119 30.808605 L 79.720280 31.046574 L 80.559441 30.060586 L 81.398601 32.015763 L 82.237762 29.201875 L 83.076923 30.169742 L 83.916084 30.656041 L 84.755245 24.707430 L 85.594406 26.634179 L 86.433566 27.745361 L 87.272727 27.055060 L 88.111888 29.445738 L 88.951049 27.650899 L 89.790210 27.420627 L 90.629371 26.166414 L 91.468531 26.372722 L 92.307692 25.877722 L 93.146853 25.168703 L 93.986014 24.573481 L 94.825175 21.031775 L 95.664336 22.212865 L 96.503497 22.305034 L 97.342657 20.807201 L 98.181818 22.125798 L 99.020979 21.551364 L 99.860140 24.229906 L 100.699301 20.287908 L 101.538462 26.638299 L 102.377622 26.594888 L 103.216783 26.357306 L 104.055944 23.072803 L 104.895105 24.751499 L 105.734266 20.471546 L 106.573427 24.058196 L 107.412587 26.796100 L 108.251748 23.980060 L 109.090909 32.783510 L 109.930070 17.241722 L 110.769231 14.407596 L 111.608392 12.575650 L 112.447552 8.800000 L 113.286713 9.953032 L 114.125874 10.196609 L 114.965035 11.779087 L 115.804196 12.576977 L 116.643357 13.896777 L 117.482517 15.484537 L 118.321678 23.592004 L 119.160839 23.252546 L 120.000000 25.686571 L 120 40 Z"></path>
    </g>
  </svg>