<svg xmlns="http://www.w3.org/2000/svg" viewBox="0 0 120 40" width="120" height="40">
    <defs>
      <linearGradient id="color_grad" x1="0%" x2="0%" y1="0%" y2="100%">
        <stop offset="0%" style="stop-color:#EA3943;stop-opacity:0.4;"></stop>
        <stop offset="100%" style="stop-color:#EA3943;stop-opacity:0.0;"></stop>
      </linearGradient>
    </defs>
    <g>
      <path stroke="#EA3943" stroke-width="2" stroke-linecap="round" stroke-linejoin="round" fill="none" d="M 0.000000 13.682250 L 0.839161 13.682250 L 1.678322 14.259113 L 2.517483 17.859694 L 3.356643 16.920444 L 4.195804 13.629371 L 5.034965 13.671675 L 5.874126 14.665652 L 6.713287 14.686952 L 7.552448 13.671675 L 8.391608 13.671675 L 9.230769 13.671675 L 10.069930 13.671675 L 10.909091 13.671675 L 11.748252 13.671675 L 12.587413 13.671675 L 13.426573 13.671675 L 14.265734 13.671675 L 15.104895 13.671675 L 15.944056 13.671675 L 16.783217 15.324163 L 17.622378 15.744532 L 18.461538 15.744532 L 19.300699 8.800000 L 20.139860 10.456630 L 20.979021 10.456630 L 21.818182 11.129635 L 22.657343 11.514210 L 23.496503 11.514210 L 24.335664 11.514210 L 25.174825 11.514210 L 26.013986 12.571791 L 26.853147 12.622081 L 27.692308 15.459799 L 28.531469 17.017771 L 29.370629 17.087660 L 30.209790 17.087660 L 31.048951 17.087660 L 31.888112 17.087660 L 32.727273 17.087660 L 33.566434 17.087660 L 34.405594 17.087660 L 35.244755 17.087660 L 36.083916 17.087660 L 36.923077 17.206434 L 37.762238 18.388484 L 38.601399 18.388484 L 39.440559 17.119387 L 40.279720 17.965452 L 41.118881 17.965452 L 41.958042 17.965452 L 42.797203 17.965452 L 43.636364 17.965452 L 44.475524 18.071210 L 45.314685 18.388484 L 46.153846 18.388484 L 46.993007 18.388484 L 47.832168 18.388484 L 48.671329 18.388484 L 49.510490 18.388484 L 50.349650 18.388484 L 51.188811 18.388484 L 52.027972 18.917274 L 52.867133 18.917274 L 53.706294 21.032435 L 54.545455 21.032435 L 55.384615 21.032435 L 56.223776 19.023032 L 57.062937 19.023032 L 57.902098 19.023032 L 58.741259 19.023032 L 59.580420 19.023032 L 60.419580 18.961648 L 61.258741 19.648928 L 62.097902 19.974855 L 62.937063 20.292129 L 63.776224 21.169477 L 64.615385 21.243951 L 65.454545 22.090016 L 66.293706 24.205177 L 67.132867 24.205177 L 67.972028 25.262758 L 68.811189 25.262758 L 69.650350 25.262758 L 70.489510 25.368516 L 71.328671 25.858848 L 72.167832 26.320338 L 73.006993 26.320338 L 73.846154 22.195774 L 74.685315 23.152330 L 75.524476 23.158172 L 76.363636 23.158172 L 77.202797 23.158172 L 78.041958 23.158172 L 78.881119 23.179324 L 79.720280 23.179324 L 80.559441 23.158172 L 81.398601 23.158172 L 82.237762 23.158172 L 83.076923 23.158172 L 83.916084 23.158172 L 84.755245 23.356524 L 85.594406 24.733967 L 86.433566 24.733967 L 87.272727 24.733967 L 88.111888 26.320338 L 88.951049 26.320338 L 89.790210 26.320338 L 90.629371 24.733967 L 91.468531 24.733967 L 92.307692 24.733967 L 93.146853 24.733967 L 93.986014 24.733967 L 94.825175 22.607713 L 95.664336 23.147596 L 96.503497 23.147596 L 97.342657 23.384258 L 98.181818 24.733967 L 99.020979 26.590280 L 99.860140 29.493080 L 100.699301 29.810354 L 101.538462 29.810354 L 102.377622 29.810354 L 103.216783 29.810354 L 104.055944 25.262758 L 104.895105 28.435499 L 105.734266 28.435499 L 106.573427 30.299208 L 107.412587 31.608241 L 108.251748 31.608241 L 109.090909 36.800000 L 109.930070 23.147596 L 110.769231 23.147596 L 111.608392 23.147596 L 112.447552 23.147596 L 113.286713 23.147596 L 114.125874 23.147596 L 114.965035 23.147596 L 115.804196 23.158172 L 116.643357 23.253354 L 117.482517 26.426096 L 118.321678 31.608241 L 119.160839 31.608241 L 120.000000 31.608241"></path>
      <path stroke="none" fill-opacity="0.6" fill="url(#color_grad)" d="M 0 40 L 0.000000 13.682250 L 0.839161 13.682250 L 1.678322 14.259113 L 2.517483 17.859694 L 3.356643 16.920444 L 4.195804 13.629371 L 5.034965 13.671675 L 5.874126 14.665652 L 6.713287 14.686952 L 7.552448 13.671675 L 8.391608 13.671675 L 9.230769 13.671675 L 10.069930 13.671675 L 10.909091 13.671675 L 11.748252 13.671675 L 12.587413 13.671675 L 13.426573 13.671675 L 14.265734 13.671675 L 15.104895 13.671675 L 15.944056 13.671675 L 16.783217 15.324163 L 17.622378 15.744532 L 18.461538 15.744532 L 19.300699 8.800000 L 20.139860 10.456630 L 20.979021 10.456630 L 21.818182 11.129635 L 22.657343 11.514210 L 23.496503 11.514210 L 24.335664 11.514210 L 25.174825 11.514210 L 26.013986 12.571791 L 26.853147 12.622081 L 27.692308 15.459799 L 28.531469 17.017771 L 29.370629 17.087660 L 30.209790 17.087660 L 31.048951 17.087660 L 31.888112 17.087660 L 32.727273 17.087660 L 33.566434 17.087660 L 34.405594 17.087660 L 35.244755 17.087660 L 36.083916 17.087660 L 36.923077 17.206434 L 37.762238 18.388484 L 38.601399 18.388484 L 39.440559 17.119387 L 40.279720 17.965452 L 41.118881 17.965452 L 41.958042 17.965452 L 42.797203 17.965452 L 43.636364 17.965452 L 44.475524 18.071210 L 45.314685 18.388484 L 46.153846 18.388484 L 46.993007 18.388484 L 47.832168 18.388484 L 48.671329 18.388484 L 49.510490 18.388484 L 50.349650 18.388484 L 51.188811 18.388484 L 52.027972 18.917274 L 52.867133 18.917274 L 53.706294 21.032435 L 54.545455 21.032435 L 55.384615 21.032435 L 56.223776 19.023032 L 57.062937 19.023032 L 57.902098 19.023032 L 58.741259 19.023032 L 59.580420 19.023032 L 60.419580 18.961648 L 61.258741 19.648928 L 62.097902 19.974855 L 62.937063 20.292129 L 63.776224 21.169477 L 64.615385 21.243951 L 65.454545 22.090016 L 66.293706 24.205177 L 67.132867 24.205177 L 67.972028 25.262758 L 68.811189 25.262758 L 69.650350 25.262758 L 70.489510 25.368516 L 71.328671 25.858848 L 72.167832 26.320338 L 73.006993 26.320338 L 73.846154 22.195774 L 74.685315 23.152330 L 75.524476 23.158172 L 76.363636 23.158172 L 77.202797 23.158172 L 78.041958 23.158172 L 78.881119 23.179324 L 79.720280 23.179324 L 80.559441 23.158172 L 81.398601 23.158172 L 82.237762 23.158172 L 83.076923 23.158172 L 83.916084 23.158172 L 84.755245 23.356524 L 85.594406 24.733967 L 86.433566 24.733967 L 87.272727 24.733967 L 88.111888 26.320338 L 88.951049 26.320338 L 89.790210 26.320338 L 90.629371 24.733967 L 91.468531 24.733967 L 92.307692 24.733967 L 93.146853 24.733967 L 93.986014 24.733967 L 94.825175 22.607713 L 95.664336 23.147596 L 96.503497 23.147596 L 97.342657 23.384258 L 98.181818 24.733967 L 99.020979 26.590280 L 99.860140 29.493080 L 100.699301 29.810354 L 101.538462 29.810354 L 102.377622 29.810354 L 103.216783 29.810354 L 104.055944 25.262758 L 104.895105 28.435499 L 105.734266 28.435499 L 106.573427 30.299208 L 107.412587 31.608241 L 108.251748 31.608241 L 109.090909 36.800000 L 109.930070 23.147596 L 110.769231 23.147596 L 111.608392 23.147596 L 112.447552 23.147596 L 113.286713 23.147596 L 114.125874 23.147596 L 114.965035 23.147596 L 115.804196 23.158172 L 116.643357 23.253354 L 117.482517 26.426096 L 118.321678 31.608241 L 119.160839 31.608241 L 120.000000 31.608241 L 120 40 Z"></path>
    </g>
  </svg>