<svg xmlns="http://www.w3.org/2000/svg" viewBox="0 0 120 40" width="120" height="40">
    <defs>
      <linearGradient id="color_grad" x1="0%" x2="0%" y1="0%" y2="100%">
        <stop offset="0%" style="stop-color:#EA3943;stop-opacity:0.4;"></stop>
        <stop offset="100%" style="stop-color:#EA3943;stop-opacity:0.0;"></stop>
      </linearGradient>
    </defs>
    <g>
      <path stroke="#EA3943" stroke-width="2" stroke-linecap="round" stroke-linejoin="round" fill="none" d="M 0.000000 10.136500 L 0.839161 10.136500 L 1.678322 12.066275 L 2.517483 17.035448 L 3.356643 17.035448 L 4.195804 17.035448 L 5.034965 17.035448 L 5.874126 17.035448 L 6.713287 8.800000 L 7.552448 11.814622 L 8.391608 11.814622 L 9.230769 11.814622 L 10.069930 11.814622 L 10.909091 11.106082 L 11.748252 11.106082 L 12.587413 11.106082 L 13.426573 11.106082 L 14.265734 13.679203 L 15.104895 13.679203 L 15.944056 13.679203 L 16.783217 13.679203 L 17.622378 13.679203 L 18.461538 13.679203 L 19.300699 14.406780 L 20.139860 17.035448 L 20.979021 17.035448 L 21.818182 17.035448 L 22.657343 17.035448 L 23.496503 17.035448 L 24.335664 17.035448 L 25.174825 17.035448 L 26.013986 18.023675 L 26.853147 17.553749 L 27.692308 19.011903 L 28.531469 19.011903 L 29.370629 16.408270 L 30.209790 18.438446 L 31.048951 21.137524 L 31.888112 21.137524 L 32.727273 22.188470 L 33.566434 23.112937 L 34.405594 23.188563 L 35.244755 18.503642 L 36.083916 21.137524 L 36.923077 18.900028 L 37.762238 18.900028 L 38.601399 18.900028 L 39.440559 18.900028 L 40.279720 18.900028 L 41.118881 19.086486 L 41.958042 19.272944 L 42.797203 19.520685 L 43.636364 21.137524 L 44.475524 21.137524 L 45.314685 21.137524 L 46.153846 19.086486 L 46.993007 19.272944 L 47.832168 19.459402 L 48.671329 19.459402 L 49.510490 19.459402 L 50.349650 19.459402 L 51.188811 22.069815 L 52.027972 22.069815 L 52.867133 22.069815 L 53.706294 22.069815 L 54.545455 22.069815 L 55.384615 22.069815 L 56.223776 22.069815 L 57.062937 22.069815 L 57.902098 23.002105 L 58.741259 23.002105 L 59.580420 24.488554 L 60.419580 24.866685 L 61.258741 24.866685 L 62.097902 24.866685 L 62.937063 24.866685 L 63.776224 14.745795 L 64.615385 14.275868 L 65.454545 14.160604 L 66.293706 9.950042 L 67.132867 9.950042 L 67.972028 9.950042 L 68.811189 9.950042 L 69.650350 9.575692 L 70.489510 9.334730 L 71.328671 9.334730 L 72.167832 9.334730 L 73.006993 9.334730 L 73.846154 13.082537 L 74.685315 13.082537 L 75.524476 13.082537 L 76.363636 13.082537 L 77.202797 13.082537 L 78.041958 13.082537 L 78.881119 13.082537 L 79.720280 13.082537 L 80.559441 13.082537 L 81.398601 13.082537 L 82.237762 13.082537 L 83.076923 13.082537 L 83.916084 13.082537 L 84.755245 13.082537 L 85.594406 13.082537 L 86.433566 17.035448 L 87.272727 15.238670 L 88.111888 13.287641 L 88.951049 13.287641 L 89.790210 13.287641 L 90.629371 13.287641 L 91.468531 13.287641 L 92.307692 13.287641 L 93.146853 13.287641 L 93.986014 13.287641 L 94.825175 13.287641 L 95.664336 13.287641 L 96.503497 13.287641 L 97.342657 13.287641 L 98.181818 13.287641 L 99.020979 13.287641 L 99.860140 13.287641 L 100.699301 13.865661 L 101.538462 13.865661 L 102.377622 18.340654 L 103.216783 15.543783 L 104.055944 26.144510 L 104.895105 24.866685 L 105.734266 21.222800 L 106.573427 27.738400 L 107.412587 24.866685 L 108.251748 26.731266 L 109.090909 22.917351 L 109.930070 25.612517 L 110.769231 27.261954 L 111.608392 29.305169 L 112.447552 29.528136 L 113.286713 29.528136 L 114.125874 32.847090 L 114.965035 32.847090 L 115.804196 36.800000 L 116.643357 36.800000 L 117.482517 36.800000 L 118.321678 36.800000 L 119.160839 30.545180 L 120.000000 29.528136"></path>
      <path stroke="none" fill-opacity="0.6" fill="url(#color_grad)" d="M 0 40 L 0.000000 10.136500 L 0.839161 10.136500 L 1.678322 12.066275 L 2.517483 17.035448 L 3.356643 17.035448 L 4.195804 17.035448 L 5.034965 17.035448 L 5.874126 17.035448 L 6.713287 8.800000 L 7.552448 11.814622 L 8.391608 11.814622 L 9.230769 11.814622 L 10.069930 11.814622 L 10.909091 11.106082 L 11.748252 11.106082 L 12.587413 11.106082 L 13.426573 11.106082 L 14.265734 13.679203 L 15.104895 13.679203 L 15.944056 13.679203 L 16.783217 13.679203 L 17.622378 13.679203 L 18.461538 13.679203 L 19.300699 14.406780 L 20.139860 17.035448 L 20.979021 17.035448 L 21.818182 17.035448 L 22.657343 17.035448 L 23.496503 17.035448 L 24.335664 17.035448 L 25.174825 17.035448 L 26.013986 18.023675 L 26.853147 17.553749 L 27.692308 19.011903 L 28.531469 19.011903 L 29.370629 16.408270 L 30.209790 18.438446 L 31.048951 21.137524 L 31.888112 21.137524 L 32.727273 22.188470 L 33.566434 23.112937 L 34.405594 23.188563 L 35.244755 18.503642 L 36.083916 21.137524 L 36.923077 18.900028 L 37.762238 18.900028 L 38.601399 18.900028 L 39.440559 18.900028 L 40.279720 18.900028 L 41.118881 19.086486 L 41.958042 19.272944 L 42.797203 19.520685 L 43.636364 21.137524 L 44.475524 21.137524 L 45.314685 21.137524 L 46.153846 19.086486 L 46.993007 19.272944 L 47.832168 19.459402 L 48.671329 19.459402 L 49.510490 19.459402 L 50.349650 19.459402 L 51.188811 22.069815 L 52.027972 22.069815 L 52.867133 22.069815 L 53.706294 22.069815 L 54.545455 22.069815 L 55.384615 22.069815 L 56.223776 22.069815 L 57.062937 22.069815 L 57.902098 23.002105 L 58.741259 23.002105 L 59.580420 24.488554 L 60.419580 24.866685 L 61.258741 24.866685 L 62.097902 24.866685 L 62.937063 24.866685 L 63.776224 14.745795 L 64.615385 14.275868 L 65.454545 14.160604 L 66.293706 9.950042 L 67.132867 9.950042 L 67.972028 9.950042 L 68.811189 9.950042 L 69.650350 9.575692 L 70.489510 9.334730 L 71.328671 9.334730 L 72.167832 9.334730 L 73.006993 9.334730 L 73.846154 13.082537 L 74.685315 13.082537 L 75.524476 13.082537 L 76.363636 13.082537 L 77.202797 13.082537 L 78.041958 13.082537 L 78.881119 13.082537 L 79.720280 13.082537 L 80.559441 13.082537 L 81.398601 13.082537 L 82.237762 13.082537 L 83.076923 13.082537 L 83.916084 13.082537 L 84.755245 13.082537 L 85.594406 13.082537 L 86.433566 17.035448 L 87.272727 15.238670 L 88.111888 13.287641 L 88.951049 13.287641 L 89.790210 13.287641 L 90.629371 13.287641 L 91.468531 13.287641 L 92.307692 13.287641 L 93.146853 13.287641 L 93.986014 13.287641 L 94.825175 13.287641 L 95.664336 13.287641 L 96.503497 13.287641 L 97.342657 13.287641 L 98.181818 13.287641 L 99.020979 13.287641 L 99.860140 13.287641 L 100.699301 13.865661 L 101.538462 13.865661 L 102.377622 18.340654 L 103.216783 15.543783 L 104.055944 26.144510 L 104.895105 24.866685 L 105.734266 21.222800 L 106.573427 27.738400 L 107.412587 24.866685 L 108.251748 26.731266 L 109.090909 22.917351 L 109.930070 25.612517 L 110.769231 27.261954 L 111.608392 29.305169 L 112.447552 29.528136 L 113.286713 29.528136 L 114.125874 32.847090 L 114.965035 32.847090 L 115.804196 36.800000 L 116.643357 36.800000 L 117.482517 36.800000 L 118.321678 36.800000 L 119.160839 30.545180 L 120.000000 29.528136 L 120 40 Z"></path>
    </g>
  </svg>