<svg xmlns="http://www.w3.org/2000/svg" viewBox="0 0 120 40" width="120" height="40">
    <defs>
      <linearGradient id="color_grad" x1="0%" x2="0%" y1="0%" y2="100%">
        <stop offset="0%" style="stop-color:#EA3943;stop-opacity:0.4;"></stop>
        <stop offset="100%" style="stop-color:#EA3943;stop-opacity:0.0;"></stop>
      </linearGradient>
    </defs>
    <g>
      <path stroke="#EA3943" stroke-width="2" stroke-linecap="round" stroke-linejoin="round" fill="none" d="M 0.000000 19.986292 L 0.839161 19.351074 L 1.678322 22.428848 L 2.517483 28.117815 L 3.356643 28.959043 L 4.195804 28.844579 L 5.034965 28.286452 L 5.874126 28.622161 L 6.713287 20.928875 L 7.552448 23.772816 L 8.391608 23.949700 L 9.230769 22.915137 L 10.069930 23.904253 L 10.909091 22.280136 L 11.748252 22.656084 L 12.587413 23.022049 L 13.426573 23.255101 L 14.265734 25.235069 L 15.104895 24.286148 L 15.944056 24.414589 L 16.783217 23.821606 L 17.622378 23.004859 L 18.461538 22.322110 L 19.300699 23.279539 L 20.139860 26.267070 L 20.979021 26.378106 L 21.818182 25.986965 L 22.657343 26.014876 L 23.496503 26.364519 L 24.335664 26.671580 L 25.174825 27.290825 L 26.013986 28.951968 L 26.853147 27.803635 L 27.692308 29.310467 L 28.531469 28.808030 L 29.370629 25.790244 L 30.209790 27.455728 L 31.048951 32.345746 L 31.888112 32.390542 L 32.727273 34.035451 L 33.566434 33.834693 L 34.405594 33.497247 L 35.244755 29.135927 L 36.083916 29.774053 L 36.923077 26.943612 L 37.762238 24.682150 L 38.601399 23.720771 L 39.440559 23.656703 L 40.279720 25.337292 L 41.118881 25.259637 L 41.958042 24.786110 L 42.797203 25.756864 L 43.636364 26.771894 L 44.475524 26.557159 L 45.314685 25.440514 L 46.153846 23.078434 L 46.993007 24.551408 L 47.832168 24.746696 L 48.671329 24.092205 L 49.510490 24.361719 L 50.349650 24.385506 L 51.188811 27.840792 L 52.027972 25.545776 L 52.867133 25.270836 L 53.706294 26.156817 L 54.545455 26.507241 L 55.384615 25.509748 L 56.223776 25.294580 L 57.062937 26.164673 L 57.902098 27.627316 L 58.741259 28.610311 L 59.580420 30.278139 L 60.419580 28.859511 L 61.258741 27.153485 L 62.097902 27.989114 L 62.937063 27.906987 L 63.776224 16.709887 L 64.615385 17.544951 L 65.454545 18.654565 L 66.293706 13.871936 L 67.132867 13.041560 L 67.972028 13.952717 L 68.811189 13.406309 L 69.650350 15.624581 L 70.489510 15.598754 L 71.328671 14.306918 L 72.167832 14.275665 L 73.006993 14.275665 L 73.846154 20.067941 L 74.685315 18.429022 L 75.524476 18.155514 L 76.363636 15.594978 L 77.202797 18.091272 L 78.041958 20.780901 L 78.881119 17.893336 L 79.720280 18.031023 L 80.559441 17.474068 L 81.398601 18.602259 L 82.237762 16.977535 L 83.076923 17.541609 L 83.916084 17.814639 L 84.755245 14.266202 L 85.594406 14.596964 L 86.433566 17.908572 L 87.272727 17.299702 L 88.111888 15.539590 L 88.951049 14.492006 L 89.790210 14.358486 L 90.629371 14.551430 L 91.468531 14.666719 L 92.307692 14.376413 L 93.146853 13.966043 L 93.986014 13.623475 L 94.825175 12.812631 L 95.664336 13.174038 L 96.503497 13.229295 L 97.342657 12.228156 L 98.181818 12.206409 L 99.020979 10.774672 L 99.860140 10.614847 L 100.699301 8.800000 L 101.538462 12.533828 L 102.377622 17.708943 L 103.216783 14.311910 L 104.055944 27.365832 L 104.895105 25.056145 L 105.734266 18.434752 L 106.573427 27.024045 L 107.412587 24.416065 L 108.251748 25.088570 L 109.090909 22.538581 L 109.930070 24.795182 L 110.769231 25.261460 L 111.608392 26.747412 L 112.447552 25.084620 L 113.286713 25.671960 L 114.125874 29.790288 L 114.965035 30.573741 L 115.804196 35.686827 L 116.643357 36.277900 L 117.482517 35.453210 L 118.321678 36.800000 L 119.160839 28.560784 L 120.000000 29.290890"></path>
      <path stroke="none" fill-opacity="0.6" fill="url(#color_grad)" d="M 0 40 L 0.000000 19.986292 L 0.839161 19.351074 L 1.678322 22.428848 L 2.517483 28.117815 L 3.356643 28.959043 L 4.195804 28.844579 L 5.034965 28.286452 L 5.874126 28.622161 L 6.713287 20.928875 L 7.552448 23.772816 L 8.391608 23.949700 L 9.230769 22.915137 L 10.069930 23.904253 L 10.909091 22.280136 L 11.748252 22.656084 L 12.587413 23.022049 L 13.426573 23.255101 L 14.265734 25.235069 L 15.104895 24.286148 L 15.944056 24.414589 L 16.783217 23.821606 L 17.622378 23.004859 L 18.461538 22.322110 L 19.300699 23.279539 L 20.139860 26.267070 L 20.979021 26.378106 L 21.818182 25.986965 L 22.657343 26.014876 L 23.496503 26.364519 L 24.335664 26.671580 L 25.174825 27.290825 L 26.013986 28.951968 L 26.853147 27.803635 L 27.692308 29.310467 L 28.531469 28.808030 L 29.370629 25.790244 L 30.209790 27.455728 L 31.048951 32.345746 L 31.888112 32.390542 L 32.727273 34.035451 L 33.566434 33.834693 L 34.405594 33.497247 L 35.244755 29.135927 L 36.083916 29.774053 L 36.923077 26.943612 L 37.762238 24.682150 L 38.601399 23.720771 L 39.440559 23.656703 L 40.279720 25.337292 L 41.118881 25.259637 L 41.958042 24.786110 L 42.797203 25.756864 L 43.636364 26.771894 L 44.475524 26.557159 L 45.314685 25.440514 L 46.153846 23.078434 L 46.993007 24.551408 L 47.832168 24.746696 L 48.671329 24.092205 L 49.510490 24.361719 L 50.349650 24.385506 L 51.188811 27.840792 L 52.027972 25.545776 L 52.867133 25.270836 L 53.706294 26.156817 L 54.545455 26.507241 L 55.384615 25.509748 L 56.223776 25.294580 L 57.062937 26.164673 L 57.902098 27.627316 L 58.741259 28.610311 L 59.580420 30.278139 L 60.419580 28.859511 L 61.258741 27.153485 L 62.097902 27.989114 L 62.937063 27.906987 L 63.776224 16.709887 L 64.615385 17.544951 L 65.454545 18.654565 L 66.293706 13.871936 L 67.132867 13.041560 L 67.972028 13.952717 L 68.811189 13.406309 L 69.650350 15.624581 L 70.489510 15.598754 L 71.328671 14.306918 L 72.167832 14.275665 L 73.006993 14.275665 L 73.846154 20.067941 L 74.685315 18.429022 L 75.524476 18.155514 L 76.363636 15.594978 L 77.202797 18.091272 L 78.041958 20.780901 L 78.881119 17.893336 L 79.720280 18.031023 L 80.559441 17.474068 L 81.398601 18.602259 L 82.237762 16.977535 L 83.076923 17.541609 L 83.916084 17.814639 L 84.755245 14.266202 L 85.594406 14.596964 L 86.433566 17.908572 L 87.272727 17.299702 L 88.111888 15.539590 L 88.951049 14.492006 L 89.790210 14.358486 L 90.629371 14.551430 L 91.468531 14.666719 L 92.307692 14.376413 L 93.146853 13.966043 L 93.986014 13.623475 L 94.825175 12.812631 L 95.664336 13.174038 L 96.503497 13.229295 L 97.342657 12.228156 L 98.181818 12.206409 L 99.020979 10.774672 L 99.860140 10.614847 L 100.699301 8.800000 L 101.538462 12.533828 L 102.377622 17.708943 L 103.216783 14.311910 L 104.055944 27.365832 L 104.895105 25.056145 L 105.734266 18.434752 L 106.573427 27.024045 L 107.412587 24.416065 L 108.251748 25.088570 L 109.090909 22.538581 L 109.930070 24.795182 L 110.769231 25.261460 L 111.608392 26.747412 L 112.447552 25.084620 L 113.286713 25.671960 L 114.125874 29.790288 L 114.965035 30.573741 L 115.804196 35.686827 L 116.643357 36.277900 L 117.482517 35.453210 L 118.321678 36.800000 L 119.160839 28.560784 L 120.000000 29.290890 L 120 40 Z"></path>
    </g>
  </svg>