<svg xmlns="http://www.w3.org/2000/svg" viewBox="0 0 120 40" width="120" height="40">
    <defs>
      <linearGradient id="color_grad" x1="0%" x2="0%" y1="0%" y2="100%">
        <stop offset="0%" style="stop-color:#EA3943;stop-opacity:0.4;"></stop>
        <stop offset="100%" style="stop-color:#EA3943;stop-opacity:0.0;"></stop>
      </linearGradient>
    </defs>
    <g>
      <path stroke="#EA3943" stroke-width="2" stroke-linecap="round" stroke-linejoin="round" fill="none" d="M 0.000000 20.007682 L 0.839161 23.594998 L 1.678322 19.978778 L 2.517483 16.741231 L 3.356643 21.348568 L 4.195804 22.064459 L 5.034965 21.919303 L 5.874126 25.152032 L 6.713287 21.066243 L 7.552448 23.608182 L 8.391608 21.852747 L 9.230769 20.958739 L 10.069930 21.810278 L 10.909091 17.416935 L 11.748252 17.300177 L 12.587413 17.630295 L 13.426573 19.861639 L 14.265734 20.663103 L 15.104895 19.824494 L 15.944056 19.937830 L 16.783217 19.415649 L 17.622378 18.706097 L 18.461538 18.091625 L 19.300699 18.253134 L 20.139860 20.727630 L 20.979021 20.833867 L 21.818182 19.877486 L 22.657343 15.040435 L 23.496503 15.359018 L 24.335664 15.619664 L 25.174825 16.204218 L 26.013986 16.744908 L 26.853147 16.164665 L 27.692308 16.086318 L 28.531469 16.252012 L 29.370629 16.072880 L 30.209790 15.566419 L 31.048951 19.334387 L 31.888112 19.868992 L 32.727273 22.342981 L 33.566434 21.367330 L 34.405594 18.252627 L 35.244755 16.511391 L 36.083916 17.517467 L 36.923077 17.176826 L 37.762238 18.354300 L 38.601399 17.753393 L 39.440559 13.523715 L 40.279720 12.499383 L 41.118881 14.697513 L 41.958042 11.597642 L 42.797203 15.319971 L 43.636364 14.077969 L 44.475524 15.349129 L 45.314685 15.907314 L 46.153846 13.266618 L 46.993007 18.521768 L 47.832168 18.212440 L 48.671329 15.790555 L 49.510490 16.657814 L 50.349650 16.663519 L 51.188811 17.134737 L 52.027972 17.524439 L 52.867133 17.269117 L 53.706294 10.044411 L 54.545455 10.996101 L 55.384615 8.800000 L 56.223776 9.846897 L 57.062937 10.359063 L 57.902098 10.436015 L 58.741259 8.935775 L 59.580420 11.392776 L 60.419580 10.302268 L 61.258741 13.589891 L 62.097902 16.026988 L 62.937063 18.618623 L 63.776224 17.708641 L 64.615385 13.198287 L 65.454545 15.521668 L 66.293706 15.595070 L 67.132867 14.893758 L 67.972028 17.735391 L 68.811189 17.284457 L 69.650350 19.488925 L 70.489510 19.685424 L 71.328671 18.942023 L 72.167832 18.956221 L 73.006993 18.956221 L 73.846154 16.708270 L 74.685315 15.875240 L 75.524476 14.428626 L 76.363636 12.184351 L 77.202797 14.374240 L 78.041958 14.926339 L 78.881119 18.338960 L 79.720280 19.808267 L 80.559441 26.403796 L 81.398601 21.454170 L 82.237762 14.126524 L 83.076923 16.327569 L 83.916084 19.028990 L 84.755245 15.381837 L 85.594406 15.553362 L 86.433566 15.835180 L 87.272727 17.056010 L 88.111888 19.990188 L 88.951049 19.139790 L 89.790210 19.005156 L 90.629371 20.417035 L 91.468531 20.515284 L 92.307692 20.272640 L 93.146853 19.948859 L 93.986014 19.668943 L 94.825175 20.254764 L 95.664336 23.031742 L 96.503497 22.492447 L 97.342657 22.255127 L 98.181818 24.820012 L 99.020979 26.261936 L 99.860140 21.029098 L 100.699301 19.015678 L 101.538462 20.002104 L 102.377622 20.088057 L 103.216783 19.968002 L 104.055944 20.584883 L 104.895105 20.163868 L 105.734266 20.416147 L 106.573427 19.275818 L 107.412587 20.513256 L 108.251748 15.374738 L 109.090909 30.510757 L 109.930070 34.219775 L 110.769231 33.700383 L 111.608392 33.067782 L 112.447552 30.733245 L 113.286713 31.122820 L 114.125874 29.313506 L 114.965035 33.249322 L 115.804196 33.578807 L 116.643357 35.375951 L 117.482517 35.271236 L 118.321678 27.445622 L 119.160839 36.800000 L 120.000000 34.129892"></path>
      <path stroke="none" fill-opacity="0.6" fill="url(#color_grad)" d="M 0 40 L 0.000000 20.007682 L 0.839161 23.594998 L 1.678322 19.978778 L 2.517483 16.741231 L 3.356643 21.348568 L 4.195804 22.064459 L 5.034965 21.919303 L 5.874126 25.152032 L 6.713287 21.066243 L 7.552448 23.608182 L 8.391608 21.852747 L 9.230769 20.958739 L 10.069930 21.810278 L 10.909091 17.416935 L 11.748252 17.300177 L 12.587413 17.630295 L 13.426573 19.861639 L 14.265734 20.663103 L 15.104895 19.824494 L 15.944056 19.937830 L 16.783217 19.415649 L 17.622378 18.706097 L 18.461538 18.091625 L 19.300699 18.253134 L 20.139860 20.727630 L 20.979021 20.833867 L 21.818182 19.877486 L 22.657343 15.040435 L 23.496503 15.359018 L 24.335664 15.619664 L 25.174825 16.204218 L 26.013986 16.744908 L 26.853147 16.164665 L 27.692308 16.086318 L 28.531469 16.252012 L 29.370629 16.072880 L 30.209790 15.566419 L 31.048951 19.334387 L 31.888112 19.868992 L 32.727273 22.342981 L 33.566434 21.367330 L 34.405594 18.252627 L 35.244755 16.511391 L 36.083916 17.517467 L 36.923077 17.176826 L 37.762238 18.354300 L 38.601399 17.753393 L 39.440559 13.523715 L 40.279720 12.499383 L 41.118881 14.697513 L 41.958042 11.597642 L 42.797203 15.319971 L 43.636364 14.077969 L 44.475524 15.349129 L 45.314685 15.907314 L 46.153846 13.266618 L 46.993007 18.521768 L 47.832168 18.212440 L 48.671329 15.790555 L 49.510490 16.657814 L 50.349650 16.663519 L 51.188811 17.134737 L 52.027972 17.524439 L 52.867133 17.269117 L 53.706294 10.044411 L 54.545455 10.996101 L 55.384615 8.800000 L 56.223776 9.846897 L 57.062937 10.359063 L 57.902098 10.436015 L 58.741259 8.935775 L 59.580420 11.392776 L 60.419580 10.302268 L 61.258741 13.589891 L 62.097902 16.026988 L 62.937063 18.618623 L 63.776224 17.708641 L 64.615385 13.198287 L 65.454545 15.521668 L 66.293706 15.595070 L 67.132867 14.893758 L 67.972028 17.735391 L 68.811189 17.284457 L 69.650350 19.488925 L 70.489510 19.685424 L 71.328671 18.942023 L 72.167832 18.956221 L 73.006993 18.956221 L 73.846154 16.708270 L 74.685315 15.875240 L 75.524476 14.428626 L 76.363636 12.184351 L 77.202797 14.374240 L 78.041958 14.926339 L 78.881119 18.338960 L 79.720280 19.808267 L 80.559441 26.403796 L 81.398601 21.454170 L 82.237762 14.126524 L 83.076923 16.327569 L 83.916084 19.028990 L 84.755245 15.381837 L 85.594406 15.553362 L 86.433566 15.835180 L 87.272727 17.056010 L 88.111888 19.990188 L 88.951049 19.139790 L 89.790210 19.005156 L 90.629371 20.417035 L 91.468531 20.515284 L 92.307692 20.272640 L 93.146853 19.948859 L 93.986014 19.668943 L 94.825175 20.254764 L 95.664336 23.031742 L 96.503497 22.492447 L 97.342657 22.255127 L 98.181818 24.820012 L 99.020979 26.261936 L 99.860140 21.029098 L 100.699301 19.015678 L 101.538462 20.002104 L 102.377622 20.088057 L 103.216783 19.968002 L 104.055944 20.584883 L 104.895105 20.163868 L 105.734266 20.416147 L 106.573427 19.275818 L 107.412587 20.513256 L 108.251748 15.374738 L 109.090909 30.510757 L 109.930070 34.219775 L 110.769231 33.700383 L 111.608392 33.067782 L 112.447552 30.733245 L 113.286713 31.122820 L 114.125874 29.313506 L 114.965035 33.249322 L 115.804196 33.578807 L 116.643357 35.375951 L 117.482517 35.271236 L 118.321678 27.445622 L 119.160839 36.800000 L 120.000000 34.129892 L 120 40 Z"></path>
    </g>
  </svg>