<svg xmlns="http://www.w3.org/2000/svg" viewBox="0 0 120 40" width="120" height="40">
    <defs>
      <linearGradient id="color_grad" x1="0%" x2="0%" y1="0%" y2="100%">
        <stop offset="0%" style="stop-color:#EA3943;stop-opacity:0.4;"></stop>
        <stop offset="100%" style="stop-color:#EA3943;stop-opacity:0.0;"></stop>
      </linearGradient>
    </defs>
    <g>
      <path stroke="#EA3943" stroke-width="2" stroke-linecap="round" stroke-linejoin="round" fill="none" d="M 0.000000 13.823209 L 0.839161 17.339456 L 1.678322 13.542190 L 2.517483 10.517727 L 3.356643 13.823209 L 4.195804 14.525756 L 5.034965 14.827851 L 5.874126 17.339456 L 6.713287 12.997717 L 7.552448 15.460143 L 8.391608 13.823209 L 9.230769 13.823209 L 10.069930 13.823209 L 10.909091 10.672287 L 11.748252 10.306963 L 12.587413 10.306963 L 13.426573 12.052791 L 14.265734 13.320888 L 15.104895 13.320888 L 15.944056 13.320888 L 16.783217 13.320888 L 17.622378 13.320888 L 18.461538 13.320888 L 19.300699 13.320888 L 20.139860 15.330172 L 20.979021 15.330172 L 21.818182 14.827851 L 22.657343 10.708819 L 23.496503 10.708819 L 24.335664 10.708819 L 25.174825 10.708819 L 26.013986 10.708819 L 26.853147 10.708819 L 27.692308 10.708819 L 28.531469 11.261372 L 29.370629 11.261372 L 30.209790 11.261372 L 31.048951 12.906386 L 31.888112 13.320888 L 32.727273 15.028779 L 33.566434 15.136972 L 34.405594 12.823836 L 35.244755 10.784695 L 36.083916 13.371120 L 36.923077 13.371120 L 37.762238 16.033421 L 38.601399 16.232944 L 39.440559 12.818567 L 40.279720 10.708819 L 41.118881 12.744800 L 41.958042 10.708819 L 42.797203 13.254146 L 43.636364 12.818567 L 44.475524 14.030460 L 45.314685 15.330172 L 46.153846 13.204968 L 46.993007 16.584218 L 47.832168 16.334814 L 48.671329 14.827851 L 49.510490 15.330172 L 50.349650 15.330172 L 51.188811 15.330172 L 52.027972 17.339456 L 52.867133 17.339456 L 53.706294 10.809284 L 54.545455 11.311605 L 55.384615 10.306963 L 56.223776 11.311605 L 57.062937 11.055175 L 57.902098 10.809284 L 58.741259 8.800000 L 59.580420 10.809284 L 60.419580 11.381859 L 61.258741 15.354761 L 62.097902 16.686087 L 62.937063 18.825342 L 63.776224 17.841776 L 64.615385 13.204968 L 65.454545 14.234199 L 66.293706 14.325530 L 67.132867 14.325530 L 67.972028 16.033421 L 68.811189 16.033421 L 69.650350 16.033421 L 70.489510 16.033421 L 71.328671 16.301091 L 72.167832 16.334814 L 73.006993 16.334814 L 73.846154 13.320888 L 74.685315 13.823209 L 75.524476 12.818567 L 76.363636 12.818567 L 77.202797 12.818567 L 78.041958 11.311605 L 78.881119 16.225216 L 79.720280 17.339456 L 80.559441 23.153030 L 81.398601 18.312483 L 82.237762 13.408707 L 83.076923 14.827851 L 83.916084 16.837135 L 84.755245 16.334814 L 85.594406 16.254723 L 86.433566 16.033421 L 87.272727 17.293790 L 88.111888 19.348739 L 88.951049 19.348739 L 89.790210 19.348739 L 90.629371 20.353381 L 91.468531 20.353381 L 92.307692 20.353381 L 93.146853 20.353381 L 93.986014 20.353381 L 94.825175 21.358023 L 95.664336 23.339205 L 96.503497 22.864986 L 97.342657 23.314615 L 98.181818 25.376590 L 99.020979 27.385874 L 99.860140 23.367306 L 100.699301 23.367306 L 101.538462 21.783064 L 102.377622 21.860344 L 103.216783 21.860344 L 104.055944 21.860344 L 104.895105 22.102722 L 105.734266 23.869627 L 106.573427 22.362665 L 107.412587 22.815807 L 108.251748 19.851060 L 109.090909 30.445465 L 109.930070 33.916046 L 110.769231 34.418367 L 111.608392 34.520236 L 112.447552 33.916046 L 113.286713 33.856329 L 114.125874 32.388007 L 114.965035 34.920687 L 115.804196 34.920687 L 116.643357 35.925329 L 117.482517 36.378472 L 118.321678 29.395157 L 119.160839 36.800000 L 120.000000 33.916046"></path>
      <path stroke="none" fill-opacity="0.6" fill="url(#color_grad)" d="M 0 40 L 0.000000 13.823209 L 0.839161 17.339456 L 1.678322 13.542190 L 2.517483 10.517727 L 3.356643 13.823209 L 4.195804 14.525756 L 5.034965 14.827851 L 5.874126 17.339456 L 6.713287 12.997717 L 7.552448 15.460143 L 8.391608 13.823209 L 9.230769 13.823209 L 10.069930 13.823209 L 10.909091 10.672287 L 11.748252 10.306963 L 12.587413 10.306963 L 13.426573 12.052791 L 14.265734 13.320888 L 15.104895 13.320888 L 15.944056 13.320888 L 16.783217 13.320888 L 17.622378 13.320888 L 18.461538 13.320888 L 19.300699 13.320888 L 20.139860 15.330172 L 20.979021 15.330172 L 21.818182 14.827851 L 22.657343 10.708819 L 23.496503 10.708819 L 24.335664 10.708819 L 25.174825 10.708819 L 26.013986 10.708819 L 26.853147 10.708819 L 27.692308 10.708819 L 28.531469 11.261372 L 29.370629 11.261372 L 30.209790 11.261372 L 31.048951 12.906386 L 31.888112 13.320888 L 32.727273 15.028779 L 33.566434 15.136972 L 34.405594 12.823836 L 35.244755 10.784695 L 36.083916 13.371120 L 36.923077 13.371120 L 37.762238 16.033421 L 38.601399 16.232944 L 39.440559 12.818567 L 40.279720 10.708819 L 41.118881 12.744800 L 41.958042 10.708819 L 42.797203 13.254146 L 43.636364 12.818567 L 44.475524 14.030460 L 45.314685 15.330172 L 46.153846 13.204968 L 46.993007 16.584218 L 47.832168 16.334814 L 48.671329 14.827851 L 49.510490 15.330172 L 50.349650 15.330172 L 51.188811 15.330172 L 52.027972 17.339456 L 52.867133 17.339456 L 53.706294 10.809284 L 54.545455 11.311605 L 55.384615 10.306963 L 56.223776 11.311605 L 57.062937 11.055175 L 57.902098 10.809284 L 58.741259 8.800000 L 59.580420 10.809284 L 60.419580 11.381859 L 61.258741 15.354761 L 62.097902 16.686087 L 62.937063 18.825342 L 63.776224 17.841776 L 64.615385 13.204968 L 65.454545 14.234199 L 66.293706 14.325530 L 67.132867 14.325530 L 67.972028 16.033421 L 68.811189 16.033421 L 69.650350 16.033421 L 70.489510 16.033421 L 71.328671 16.301091 L 72.167832 16.334814 L 73.006993 16.334814 L 73.846154 13.320888 L 74.685315 13.823209 L 75.524476 12.818567 L 76.363636 12.818567 L 77.202797 12.818567 L 78.041958 11.311605 L 78.881119 16.225216 L 79.720280 17.339456 L 80.559441 23.153030 L 81.398601 18.312483 L 82.237762 13.408707 L 83.076923 14.827851 L 83.916084 16.837135 L 84.755245 16.334814 L 85.594406 16.254723 L 86.433566 16.033421 L 87.272727 17.293790 L 88.111888 19.348739 L 88.951049 19.348739 L 89.790210 19.348739 L 90.629371 20.353381 L 91.468531 20.353381 L 92.307692 20.353381 L 93.146853 20.353381 L 93.986014 20.353381 L 94.825175 21.358023 L 95.664336 23.339205 L 96.503497 22.864986 L 97.342657 23.314615 L 98.181818 25.376590 L 99.020979 27.385874 L 99.860140 23.367306 L 100.699301 23.367306 L 101.538462 21.783064 L 102.377622 21.860344 L 103.216783 21.860344 L 104.055944 21.860344 L 104.895105 22.102722 L 105.734266 23.869627 L 106.573427 22.362665 L 107.412587 22.815807 L 108.251748 19.851060 L 109.090909 30.445465 L 109.930070 33.916046 L 110.769231 34.418367 L 111.608392 34.520236 L 112.447552 33.916046 L 113.286713 33.856329 L 114.125874 32.388007 L 114.965035 34.920687 L 115.804196 34.920687 L 116.643357 35.925329 L 117.482517 36.378472 L 118.321678 29.395157 L 119.160839 36.800000 L 120.000000 33.916046 L 120 40 Z"></path>
    </g>
  </svg>