<svg xmlns="http://www.w3.org/2000/svg" viewBox="0 0 120 40" width="120" height="40">
    <defs>
      <linearGradient id="color_grad" x1="0%" x2="0%" y1="0%" y2="100%">
        <stop offset="0%" style="stop-color:#EA3943;stop-opacity:0.4;"></stop>
        <stop offset="100%" style="stop-color:#EA3943;stop-opacity:0.0;"></stop>
      </linearGradient>
    </defs>
    <g>
      <path stroke="#EA3943" stroke-width="2" stroke-linecap="round" stroke-linejoin="round" fill="none" d="M 0.000000 9.629222 L 0.839161 9.253342 L 1.678322 10.738662 L 2.517483 11.223727 L 3.356643 12.546744 L 4.195804 17.177302 L 5.034965 13.818364 L 5.874126 14.844686 L 6.713287 16.531409 L 7.552448 18.809924 L 8.391608 19.059896 L 9.230769 17.530680 L 10.069930 18.993499 L 10.909091 17.741306 L 11.748252 18.261905 L 12.587413 18.811523 L 13.426573 19.151991 L 14.265734 18.581962 L 15.104895 17.178286 L 15.944056 17.354237 L 16.783217 16.487391 L 17.622378 15.270486 L 18.461538 14.821570 L 19.300699 15.069943 L 20.139860 15.463897 L 20.979021 25.209833 L 21.818182 24.646567 L 22.657343 24.684069 L 23.496503 25.765598 L 24.335664 26.218818 L 25.174825 27.099312 L 26.013986 27.974520 L 26.853147 27.042506 L 27.692308 26.926681 L 28.531469 20.972983 L 29.370629 19.584922 L 30.209790 19.944079 L 31.048951 24.196299 L 31.888112 22.391045 L 32.727273 22.285671 L 33.566434 20.178927 L 34.405594 20.522837 L 35.244755 21.749825 L 36.083916 24.194578 L 36.923077 23.626517 L 37.762238 19.333967 L 38.601399 19.166622 L 39.440559 18.223789 L 40.279720 15.988432 L 41.118881 14.048540 L 41.958042 16.279102 L 42.797203 20.674689 L 43.636364 22.069882 L 44.475524 21.761383 L 45.314685 20.113760 L 46.153846 20.637433 L 46.993007 22.473057 L 47.832168 22.446130 L 48.671329 22.102588 L 49.510490 21.307672 L 50.349650 21.341977 L 51.188811 22.110089 L 52.027972 18.698402 L 52.867133 15.279093 L 53.706294 16.626701 L 54.545455 17.137095 L 55.384615 15.634438 L 56.223776 15.315611 L 57.062937 15.401189 L 57.902098 23.214119 L 58.741259 24.656896 L 59.580420 24.656404 L 60.419580 14.939978 L 61.258741 12.302060 L 62.097902 18.982187 L 62.937063 15.037114 L 63.776224 13.462158 L 64.615385 23.379004 L 65.454545 25.797444 L 66.293706 18.620325 L 67.132867 17.458996 L 67.972028 15.148513 L 68.811189 12.010652 L 69.650350 15.988063 L 70.489510 19.035181 L 71.328671 14.279207 L 72.167832 14.235926 L 73.006993 14.235926 L 73.846154 21.463827 L 74.685315 19.129858 L 75.524476 18.737626 L 76.363636 16.080526 L 77.202797 19.606071 L 78.041958 23.398923 L 78.881119 18.366296 L 79.720280 18.561305 L 80.559441 17.776225 L 81.398601 19.384133 L 82.237762 17.071805 L 83.076923 15.854900 L 83.916084 16.258937 L 84.755245 11.792772 L 85.594406 12.860038 L 86.433566 13.776436 L 87.272727 12.882047 L 88.111888 14.652996 L 88.951049 13.241205 L 89.790210 13.399942 L 90.629371 13.677948 L 91.468531 13.831521 L 92.307692 13.437936 L 93.146853 13.170258 L 93.986014 12.986930 L 94.825175 11.820929 L 95.664336 12.350382 L 96.503497 36.800000 L 97.342657 30.043147 L 98.181818 12.476044 L 99.020979 12.046678 L 99.860140 11.814043 L 100.699301 8.800000 L 101.538462 14.152070 L 102.377622 13.537162 L 103.216783 13.923247 L 104.055944 17.432315 L 104.895105 16.818883 L 105.734266 22.136033 L 106.573427 26.532481 L 107.412587 28.184407 L 108.251748 19.189861 L 109.090909 30.538418 L 109.930070 26.904794 L 110.769231 24.786984 L 111.608392 23.411342 L 112.447552 20.584193 L 113.286713 27.036481 L 114.125874 21.615925 L 114.965035 22.813771 L 115.804196 33.928341 L 116.643357 21.187297 L 117.482517 19.879404 L 118.321678 22.011969 L 119.160839 29.262986 L 120.000000 23.660330"></path>
      <path stroke="none" fill-opacity="0.6" fill="url(#color_grad)" d="M 0 40 L 0.000000 9.629222 L 0.839161 9.253342 L 1.678322 10.738662 L 2.517483 11.223727 L 3.356643 12.546744 L 4.195804 17.177302 L 5.034965 13.818364 L 5.874126 14.844686 L 6.713287 16.531409 L 7.552448 18.809924 L 8.391608 19.059896 L 9.230769 17.530680 L 10.069930 18.993499 L 10.909091 17.741306 L 11.748252 18.261905 L 12.587413 18.811523 L 13.426573 19.151991 L 14.265734 18.581962 L 15.104895 17.178286 L 15.944056 17.354237 L 16.783217 16.487391 L 17.622378 15.270486 L 18.461538 14.821570 L 19.300699 15.069943 L 20.139860 15.463897 L 20.979021 25.209833 L 21.818182 24.646567 L 22.657343 24.684069 L 23.496503 25.765598 L 24.335664 26.218818 L 25.174825 27.099312 L 26.013986 27.974520 L 26.853147 27.042506 L 27.692308 26.926681 L 28.531469 20.972983 L 29.370629 19.584922 L 30.209790 19.944079 L 31.048951 24.196299 L 31.888112 22.391045 L 32.727273 22.285671 L 33.566434 20.178927 L 34.405594 20.522837 L 35.244755 21.749825 L 36.083916 24.194578 L 36.923077 23.626517 L 37.762238 19.333967 L 38.601399 19.166622 L 39.440559 18.223789 L 40.279720 15.988432 L 41.118881 14.048540 L 41.958042 16.279102 L 42.797203 20.674689 L 43.636364 22.069882 L 44.475524 21.761383 L 45.314685 20.113760 L 46.153846 20.637433 L 46.993007 22.473057 L 47.832168 22.446130 L 48.671329 22.102588 L 49.510490 21.307672 L 50.349650 21.341977 L 51.188811 22.110089 L 52.027972 18.698402 L 52.867133 15.279093 L 53.706294 16.626701 L 54.545455 17.137095 L 55.384615 15.634438 L 56.223776 15.315611 L 57.062937 15.401189 L 57.902098 23.214119 L 58.741259 24.656896 L 59.580420 24.656404 L 60.419580 14.939978 L 61.258741 12.302060 L 62.097902 18.982187 L 62.937063 15.037114 L 63.776224 13.462158 L 64.615385 23.379004 L 65.454545 25.797444 L 66.293706 18.620325 L 67.132867 17.458996 L 67.972028 15.148513 L 68.811189 12.010652 L 69.650350 15.988063 L 70.489510 19.035181 L 71.328671 14.279207 L 72.167832 14.235926 L 73.006993 14.235926 L 73.846154 21.463827 L 74.685315 19.129858 L 75.524476 18.737626 L 76.363636 16.080526 L 77.202797 19.606071 L 78.041958 23.398923 L 78.881119 18.366296 L 79.720280 18.561305 L 80.559441 17.776225 L 81.398601 19.384133 L 82.237762 17.071805 L 83.076923 15.854900 L 83.916084 16.258937 L 84.755245 11.792772 L 85.594406 12.860038 L 86.433566 13.776436 L 87.272727 12.882047 L 88.111888 14.652996 L 88.951049 13.241205 L 89.790210 13.399942 L 90.629371 13.677948 L 91.468531 13.831521 L 92.307692 13.437936 L 93.146853 13.170258 L 93.986014 12.986930 L 94.825175 11.820929 L 95.664336 12.350382 L 96.503497 36.800000 L 97.342657 30.043147 L 98.181818 12.476044 L 99.020979 12.046678 L 99.860140 11.814043 L 100.699301 8.800000 L 101.538462 14.152070 L 102.377622 13.537162 L 103.216783 13.923247 L 104.055944 17.432315 L 104.895105 16.818883 L 105.734266 22.136033 L 106.573427 26.532481 L 107.412587 28.184407 L 108.251748 19.189861 L 109.090909 30.538418 L 109.930070 26.904794 L 110.769231 24.786984 L 111.608392 23.411342 L 112.447552 20.584193 L 113.286713 27.036481 L 114.125874 21.615925 L 114.965035 22.813771 L 115.804196 33.928341 L 116.643357 21.187297 L 117.482517 19.879404 L 118.321678 22.011969 L 119.160839 29.262986 L 120.000000 23.660330 L 120 40 Z"></path>
    </g>
  </svg>