<svg xmlns="http://www.w3.org/2000/svg" viewBox="0 0 120 40" width="120" height="40">
    <defs>
      <linearGradient id="color_grad" x1="0%" x2="0%" y1="0%" y2="100%">
        <stop offset="0%" style="stop-color:#EA3943;stop-opacity:0.4;"></stop>
        <stop offset="100%" style="stop-color:#EA3943;stop-opacity:0.0;"></stop>
      </linearGradient>
    </defs>
    <g>
      <path stroke="#EA3943" stroke-width="2" stroke-linecap="round" stroke-linejoin="round" fill="none" d="M 0.000000 8.800000 L 0.839161 9.164995 L 1.678322 9.164995 L 2.517483 9.164995 L 3.356643 9.164995 L 4.195804 12.266180 L 5.034965 10.661477 L 5.874126 10.989973 L 6.713287 10.989973 L 7.552448 12.814950 L 8.391608 12.814950 L 9.230769 12.814950 L 10.069930 12.814950 L 10.909091 12.814950 L 11.748252 12.814950 L 12.587413 12.814950 L 13.426573 12.814950 L 14.265734 13.179945 L 15.104895 13.179945 L 15.944056 13.179945 L 16.783217 13.179945 L 17.622378 13.179945 L 18.461538 13.544941 L 19.300699 13.544941 L 20.139860 13.675114 L 20.979021 19.749863 L 21.818182 19.749863 L 22.657343 19.749863 L 23.496503 20.114859 L 24.335664 20.114859 L 25.174825 20.114859 L 26.013986 20.114859 L 26.853147 20.114859 L 27.692308 20.114859 L 28.531469 16.806928 L 29.370629 16.099909 L 30.209790 16.829900 L 31.048951 17.669644 L 31.888112 16.464904 L 32.727273 15.900820 L 33.566434 15.734913 L 34.405594 16.367912 L 35.244755 16.464904 L 36.083916 20.114859 L 36.923077 20.114859 L 37.762238 19.515041 L 38.601399 20.273108 L 39.440559 19.749863 L 40.279720 16.829900 L 41.118881 15.895716 L 41.958042 17.914676 L 42.797203 19.992343 L 43.636364 21.574840 L 44.475524 21.574840 L 45.314685 21.574840 L 46.153846 21.939836 L 46.993007 21.939836 L 47.832168 21.939836 L 48.671329 22.304831 L 49.510490 21.574840 L 50.349650 21.574840 L 51.188811 21.574840 L 52.027972 21.574840 L 52.867133 19.749863 L 53.706294 19.749863 L 54.545455 19.749863 L 55.384615 19.749863 L 56.223776 19.749863 L 57.062937 19.004558 L 57.902098 23.399818 L 58.741259 23.399818 L 59.580420 23.399818 L 60.419580 19.165871 L 61.258741 19.165871 L 62.097902 22.429900 L 62.937063 20.114859 L 63.776224 18.830994 L 64.615385 23.680583 L 65.454545 24.129809 L 66.293706 19.749863 L 67.132867 19.749863 L 67.972028 17.544576 L 68.811189 16.099909 L 69.650350 16.242844 L 70.489510 17.924886 L 71.328671 16.099909 L 72.167832 16.099909 L 73.006993 16.099909 L 73.846154 19.165871 L 74.685315 19.165871 L 75.524476 19.165871 L 76.363636 19.749863 L 77.202797 19.749863 L 78.041958 19.745779 L 78.881119 19.165871 L 79.720280 19.165871 L 80.559441 19.165871 L 81.398601 19.165871 L 82.237762 19.165871 L 83.076923 17.924886 L 83.916084 17.924886 L 84.755245 18.289881 L 85.594406 18.654877 L 86.433566 18.654877 L 87.272727 18.455789 L 88.111888 19.119927 L 88.951049 19.165871 L 89.790210 19.377211 L 90.629371 19.384868 L 91.468531 19.384868 L 92.307692 19.384868 L 93.146853 19.576299 L 93.986014 19.749863 L 94.825175 19.749863 L 95.664336 19.749863 L 96.503497 34.349681 L 97.342657 31.082589 L 98.181818 20.645761 L 99.020979 21.574840 L 99.860140 21.574840 L 100.699301 21.860711 L 101.538462 21.939836 L 102.377622 21.597812 L 103.216783 21.939836 L 104.055944 23.399818 L 104.895105 23.764813 L 105.734266 28.874749 L 106.573427 30.699727 L 107.412587 31.028988 L 108.251748 27.049772 L 109.090909 32.093345 L 109.930070 30.699727 L 110.769231 30.699727 L 111.608392 30.699727 L 112.447552 30.699727 L 113.286713 33.915770 L 114.125874 30.699727 L 114.965035 30.699727 L 115.804196 36.800000 L 116.643357 28.874749 L 117.482517 28.874749 L 118.321678 28.874749 L 119.160839 33.254695 L 120.000000 28.874749"></path>
      <path stroke="none" fill-opacity="0.6" fill="url(#color_grad)" d="M 0 40 L 0.000000 8.800000 L 0.839161 9.164995 L 1.678322 9.164995 L 2.517483 9.164995 L 3.356643 9.164995 L 4.195804 12.266180 L 5.034965 10.661477 L 5.874126 10.989973 L 6.713287 10.989973 L 7.552448 12.814950 L 8.391608 12.814950 L 9.230769 12.814950 L 10.069930 12.814950 L 10.909091 12.814950 L 11.748252 12.814950 L 12.587413 12.814950 L 13.426573 12.814950 L 14.265734 13.179945 L 15.104895 13.179945 L 15.944056 13.179945 L 16.783217 13.179945 L 17.622378 13.179945 L 18.461538 13.544941 L 19.300699 13.544941 L 20.139860 13.675114 L 20.979021 19.749863 L 21.818182 19.749863 L 22.657343 19.749863 L 23.496503 20.114859 L 24.335664 20.114859 L 25.174825 20.114859 L 26.013986 20.114859 L 26.853147 20.114859 L 27.692308 20.114859 L 28.531469 16.806928 L 29.370629 16.099909 L 30.209790 16.829900 L 31.048951 17.669644 L 31.888112 16.464904 L 32.727273 15.900820 L 33.566434 15.734913 L 34.405594 16.367912 L 35.244755 16.464904 L 36.083916 20.114859 L 36.923077 20.114859 L 37.762238 19.515041 L 38.601399 20.273108 L 39.440559 19.749863 L 40.279720 16.829900 L 41.118881 15.895716 L 41.958042 17.914676 L 42.797203 19.992343 L 43.636364 21.574840 L 44.475524 21.574840 L 45.314685 21.574840 L 46.153846 21.939836 L 46.993007 21.939836 L 47.832168 21.939836 L 48.671329 22.304831 L 49.510490 21.574840 L 50.349650 21.574840 L 51.188811 21.574840 L 52.027972 21.574840 L 52.867133 19.749863 L 53.706294 19.749863 L 54.545455 19.749863 L 55.384615 19.749863 L 56.223776 19.749863 L 57.062937 19.004558 L 57.902098 23.399818 L 58.741259 23.399818 L 59.580420 23.399818 L 60.419580 19.165871 L 61.258741 19.165871 L 62.097902 22.429900 L 62.937063 20.114859 L 63.776224 18.830994 L 64.615385 23.680583 L 65.454545 24.129809 L 66.293706 19.749863 L 67.132867 19.749863 L 67.972028 17.544576 L 68.811189 16.099909 L 69.650350 16.242844 L 70.489510 17.924886 L 71.328671 16.099909 L 72.167832 16.099909 L 73.006993 16.099909 L 73.846154 19.165871 L 74.685315 19.165871 L 75.524476 19.165871 L 76.363636 19.749863 L 77.202797 19.749863 L 78.041958 19.745779 L 78.881119 19.165871 L 79.720280 19.165871 L 80.559441 19.165871 L 81.398601 19.165871 L 82.237762 19.165871 L 83.076923 17.924886 L 83.916084 17.924886 L 84.755245 18.289881 L 85.594406 18.654877 L 86.433566 18.654877 L 87.272727 18.455789 L 88.111888 19.119927 L 88.951049 19.165871 L 89.790210 19.377211 L 90.629371 19.384868 L 91.468531 19.384868 L 92.307692 19.384868 L 93.146853 19.576299 L 93.986014 19.749863 L 94.825175 19.749863 L 95.664336 19.749863 L 96.503497 34.349681 L 97.342657 31.082589 L 98.181818 20.645761 L 99.020979 21.574840 L 99.860140 21.574840 L 100.699301 21.860711 L 101.538462 21.939836 L 102.377622 21.597812 L 103.216783 21.939836 L 104.055944 23.399818 L 104.895105 23.764813 L 105.734266 28.874749 L 106.573427 30.699727 L 107.412587 31.028988 L 108.251748 27.049772 L 109.090909 32.093345 L 109.930070 30.699727 L 110.769231 30.699727 L 111.608392 30.699727 L 112.447552 30.699727 L 113.286713 33.915770 L 114.125874 30.699727 L 114.965035 30.699727 L 115.804196 36.800000 L 116.643357 28.874749 L 117.482517 28.874749 L 118.321678 28.874749 L 119.160839 33.254695 L 120.000000 28.874749 L 120 40 Z"></path>
    </g>
  </svg>