<svg xmlns="http://www.w3.org/2000/svg" viewBox="0 0 120 40" width="120" height="40">
    <defs>
      <linearGradient id="color_grad" x1="0%" x2="0%" y1="0%" y2="100%">
        <stop offset="0%" style="stop-color:#EA3943;stop-opacity:0.4;"></stop>
        <stop offset="100%" style="stop-color:#EA3943;stop-opacity:0.0;"></stop>
      </linearGradient>
    </defs>
    <g>
      <path stroke="#EA3943" stroke-width="2" stroke-linecap="round" stroke-linejoin="round" fill="none" d="M 0.000000 20.050172 L 0.839161 19.909289 L 1.678322 22.604563 L 2.517483 22.849588 L 3.356643 23.475308 L 4.195804 23.387179 L 5.034965 22.981162 L 5.874126 23.224077 L 6.713287 22.463184 L 7.552448 24.493887 L 8.391608 25.953859 L 9.230769 29.677519 L 10.069930 36.800000 L 10.909091 35.016680 L 11.748252 34.928923 L 12.587413 28.914019 L 13.426573 28.516194 L 14.265734 26.820011 L 15.104895 25.782441 L 15.944056 24.335875 L 16.783217 28.002685 L 17.622378 27.537584 L 18.461538 27.079186 L 19.300699 27.189534 L 20.139860 27.634775 L 20.979021 23.601048 L 21.818182 19.501534 L 22.657343 19.521643 L 23.496503 19.780818 L 24.335664 20.011817 L 25.174825 23.126266 L 26.013986 27.280643 L 26.853147 30.607720 L 27.692308 30.808059 L 28.531469 21.104003 L 29.370629 22.183031 L 30.209790 18.936636 L 31.048951 22.822777 L 31.888112 26.181134 L 32.727273 27.087254 L 33.566434 26.812936 L 34.405594 28.585829 L 35.244755 31.141959 L 36.083916 29.455209 L 36.923077 25.569068 L 37.762238 26.448998 L 38.601399 23.699604 L 39.440559 26.912609 L 40.279720 27.245764 L 41.118881 24.921874 L 41.958042 27.459260 L 42.797203 24.932673 L 43.636364 24.350522 L 44.475524 24.203680 L 45.314685 23.385813 L 46.153846 23.343486 L 46.993007 24.262640 L 47.832168 24.238684 L 48.671329 27.985059 L 49.510490 28.165911 L 50.349650 28.182916 L 51.188811 27.358098 L 52.027972 25.696049 L 52.867133 25.507377 L 53.706294 26.147496 L 54.545455 26.398230 L 55.384615 25.690587 L 56.223776 25.521776 L 57.062937 26.148985 L 57.902098 27.650042 L 58.741259 27.400549 L 59.580420 27.148945 L 60.419580 22.164040 L 61.258741 21.769815 L 62.097902 22.113520 L 62.937063 22.723228 L 63.776224 19.285555 L 64.615385 19.718383 L 65.454545 19.078761 L 66.293706 18.693846 L 67.132867 20.079714 L 67.972028 18.778003 L 68.811189 19.875899 L 69.650350 23.219608 L 70.489510 19.845612 L 71.328671 18.934030 L 72.167832 18.914169 L 73.006993 18.914169 L 73.846154 20.675519 L 74.685315 19.473234 L 75.524476 19.862493 L 76.363636 20.442286 L 77.202797 22.211704 L 78.041958 24.114682 L 78.881119 22.763693 L 79.720280 23.369429 L 80.559441 18.171771 L 81.398601 20.347206 L 82.237762 18.090096 L 83.076923 17.626609 L 83.916084 17.849664 L 84.755245 15.306319 L 85.594406 16.089679 L 86.433566 16.543360 L 87.272727 16.261346 L 88.111888 16.601700 L 88.951049 15.831001 L 89.790210 15.730334 L 90.629371 15.873328 L 91.468531 15.967663 L 92.307692 15.747836 L 93.146853 16.069819 L 93.986014 15.819457 L 94.825175 15.222534 L 95.664336 15.486302 L 96.503497 17.996753 L 97.342657 17.278808 L 98.181818 17.260189 L 99.020979 16.242727 L 99.860140 16.120835 L 100.699301 14.968572 L 101.538462 22.780947 L 102.377622 23.805360 L 103.216783 23.717478 L 104.055944 21.901761 L 104.895105 23.908260 L 105.734266 18.484197 L 106.573427 18.853472 L 107.412587 21.176616 L 108.251748 8.800000 L 109.090909 22.822405 L 109.930070 22.167391 L 110.769231 21.706387 L 111.608392 21.000109 L 112.447552 19.533559 L 113.286713 20.549407 L 114.125874 24.025063 L 114.965035 29.627868 L 115.804196 29.894367 L 116.643357 30.336256 L 117.482517 32.744427 L 118.321678 34.510866 L 119.160839 28.455993 L 120.000000 30.238693"></path>
      <path stroke="none" fill-opacity="0.6" fill="url(#color_grad)" d="M 0 40 L 0.000000 20.050172 L 0.839161 19.909289 L 1.678322 22.604563 L 2.517483 22.849588 L 3.356643 23.475308 L 4.195804 23.387179 L 5.034965 22.981162 L 5.874126 23.224077 L 6.713287 22.463184 L 7.552448 24.493887 L 8.391608 25.953859 L 9.230769 29.677519 L 10.069930 36.800000 L 10.909091 35.016680 L 11.748252 34.928923 L 12.587413 28.914019 L 13.426573 28.516194 L 14.265734 26.820011 L 15.104895 25.782441 L 15.944056 24.335875 L 16.783217 28.002685 L 17.622378 27.537584 L 18.461538 27.079186 L 19.300699 27.189534 L 20.139860 27.634775 L 20.979021 23.601048 L 21.818182 19.501534 L 22.657343 19.521643 L 23.496503 19.780818 L 24.335664 20.011817 L 25.174825 23.126266 L 26.013986 27.280643 L 26.853147 30.607720 L 27.692308 30.808059 L 28.531469 21.104003 L 29.370629 22.183031 L 30.209790 18.936636 L 31.048951 22.822777 L 31.888112 26.181134 L 32.727273 27.087254 L 33.566434 26.812936 L 34.405594 28.585829 L 35.244755 31.141959 L 36.083916 29.455209 L 36.923077 25.569068 L 37.762238 26.448998 L 38.601399 23.699604 L 39.440559 26.912609 L 40.279720 27.245764 L 41.118881 24.921874 L 41.958042 27.459260 L 42.797203 24.932673 L 43.636364 24.350522 L 44.475524 24.203680 L 45.314685 23.385813 L 46.153846 23.343486 L 46.993007 24.262640 L 47.832168 24.238684 L 48.671329 27.985059 L 49.510490 28.165911 L 50.349650 28.182916 L 51.188811 27.358098 L 52.027972 25.696049 L 52.867133 25.507377 L 53.706294 26.147496 L 54.545455 26.398230 L 55.384615 25.690587 L 56.223776 25.521776 L 57.062937 26.148985 L 57.902098 27.650042 L 58.741259 27.400549 L 59.580420 27.148945 L 60.419580 22.164040 L 61.258741 21.769815 L 62.097902 22.113520 L 62.937063 22.723228 L 63.776224 19.285555 L 64.615385 19.718383 L 65.454545 19.078761 L 66.293706 18.693846 L 67.132867 20.079714 L 67.972028 18.778003 L 68.811189 19.875899 L 69.650350 23.219608 L 70.489510 19.845612 L 71.328671 18.934030 L 72.167832 18.914169 L 73.006993 18.914169 L 73.846154 20.675519 L 74.685315 19.473234 L 75.524476 19.862493 L 76.363636 20.442286 L 77.202797 22.211704 L 78.041958 24.114682 L 78.881119 22.763693 L 79.720280 23.369429 L 80.559441 18.171771 L 81.398601 20.347206 L 82.237762 18.090096 L 83.076923 17.626609 L 83.916084 17.849664 L 84.755245 15.306319 L 85.594406 16.089679 L 86.433566 16.543360 L 87.272727 16.261346 L 88.111888 16.601700 L 88.951049 15.831001 L 89.790210 15.730334 L 90.629371 15.873328 L 91.468531 15.967663 L 92.307692 15.747836 L 93.146853 16.069819 L 93.986014 15.819457 L 94.825175 15.222534 L 95.664336 15.486302 L 96.503497 17.996753 L 97.342657 17.278808 L 98.181818 17.260189 L 99.020979 16.242727 L 99.860140 16.120835 L 100.699301 14.968572 L 101.538462 22.780947 L 102.377622 23.805360 L 103.216783 23.717478 L 104.055944 21.901761 L 104.895105 23.908260 L 105.734266 18.484197 L 106.573427 18.853472 L 107.412587 21.176616 L 108.251748 8.800000 L 109.090909 22.822405 L 109.930070 22.167391 L 110.769231 21.706387 L 111.608392 21.000109 L 112.447552 19.533559 L 113.286713 20.549407 L 114.125874 24.025063 L 114.965035 29.627868 L 115.804196 29.894367 L 116.643357 30.336256 L 117.482517 32.744427 L 118.321678 34.510866 L 119.160839 28.455993 L 120.000000 30.238693 L 120 40 Z"></path>
    </g>
  </svg>