<svg xmlns="http://www.w3.org/2000/svg" viewBox="0 0 120 40" width="120" height="40">
    <defs>
      <linearGradient id="color_grad" x1="0%" x2="0%" y1="0%" y2="100%">
        <stop offset="0%" style="stop-color:#EA3943;stop-opacity:0.4;"></stop>
        <stop offset="100%" style="stop-color:#EA3943;stop-opacity:0.0;"></stop>
      </linearGradient>
    </defs>
    <g>
      <path stroke="#EA3943" stroke-width="2" stroke-linecap="round" stroke-linejoin="round" fill="none" d="M 0.000000 9.482927 L 0.839161 9.864984 L 1.678322 12.214634 L 2.517483 12.214634 L 3.356643 12.214634 L 4.195804 12.214634 L 5.034965 12.214634 L 5.874126 12.214634 L 6.713287 10.328228 L 7.552448 13.074262 L 8.391608 14.669350 L 9.230769 19.989493 L 10.069930 27.726147 L 10.909091 26.245676 L 11.748252 25.873171 L 12.587413 18.360976 L 13.426573 17.711479 L 14.265734 16.312195 L 15.104895 15.887157 L 15.944056 14.048508 L 16.783217 18.905407 L 17.622378 19.043902 L 18.461538 19.043902 L 19.300699 19.043902 L 20.139860 19.483268 L 20.979021 14.635920 L 21.818182 10.165854 L 22.657343 10.165854 L 23.496503 10.165854 L 24.335664 10.165854 L 25.174825 13.284394 L 26.013986 17.678049 L 26.853147 22.167218 L 27.692308 22.458537 L 28.531469 11.474399 L 29.370629 12.897561 L 30.209790 9.554563 L 31.048951 12.367457 L 31.888112 16.312195 L 32.727273 16.933038 L 33.566434 17.678049 L 34.405594 20.132765 L 35.244755 22.544499 L 36.083916 22.420331 L 36.923077 18.203377 L 37.762238 21.092683 L 38.601399 18.747808 L 39.440559 22.458537 L 40.279720 21.479516 L 41.118881 19.043902 L 41.958042 22.506294 L 42.797203 19.043902 L 43.636364 19.043902 L 44.475524 19.043902 L 45.314685 19.043902 L 46.153846 19.043902 L 46.993007 19.043902 L 47.832168 19.043902 L 48.671329 23.824390 L 49.510490 23.824390 L 50.349650 23.824390 L 51.188811 22.458537 L 52.027972 22.458537 L 52.867133 22.458537 L 53.706294 22.458537 L 54.545455 22.458537 L 55.384615 22.458537 L 56.223776 22.458537 L 57.062937 22.458537 L 57.902098 23.824390 L 58.741259 22.745079 L 59.580420 22.458537 L 60.419580 18.360976 L 61.258741 19.363875 L 62.097902 19.043902 L 62.937063 19.812792 L 63.776224 15.629268 L 64.615385 14.998874 L 65.454545 13.270067 L 66.293706 12.864131 L 67.132867 15.113491 L 67.972028 12.897561 L 68.811189 14.583387 L 69.650350 16.312195 L 70.489510 12.214634 L 71.328671 12.214634 L 72.167832 12.214634 L 73.006993 12.214634 L 73.846154 12.897561 L 74.685315 12.897561 L 75.524476 13.580488 L 76.363636 16.312195 L 77.202797 16.312195 L 78.041958 16.316971 L 78.881119 17.095412 L 79.720280 17.678049 L 80.559441 12.214634 L 81.398601 13.761965 L 82.237762 12.534607 L 83.076923 11.531707 L 83.916084 11.531707 L 84.755245 11.617670 L 85.594406 12.214634 L 86.433566 12.214634 L 87.272727 12.214634 L 88.111888 12.214634 L 88.951049 12.214634 L 89.790210 12.214634 L 90.629371 12.214634 L 91.468531 12.214634 L 92.307692 12.214634 L 93.146853 12.897561 L 93.986014 12.897561 L 94.825175 12.897561 L 95.664336 12.897561 L 96.503497 15.629268 L 97.342657 15.629268 L 98.181818 15.629268 L 99.020979 15.629268 L 99.860140 15.629268 L 100.699301 16.312195 L 101.538462 21.985741 L 102.377622 23.141463 L 103.216783 23.141463 L 104.055944 20.567355 L 104.895105 23.447109 L 105.734266 19.406857 L 106.573427 19.043902 L 107.412587 20.958963 L 108.251748 8.800000 L 109.090909 22.458537 L 109.930070 22.458537 L 110.769231 23.141463 L 111.608392 23.141463 L 112.447552 23.141463 L 113.286713 23.743203 L 114.125874 27.353641 L 114.965035 32.702439 L 115.804196 32.702439 L 116.643357 32.702439 L 117.482517 35.940372 L 118.321678 36.800000 L 119.160839 30.395770 L 120.000000 31.336585"></path>
      <path stroke="none" fill-opacity="0.6" fill="url(#color_grad)" d="M 0 40 L 0.000000 9.482927 L 0.839161 9.864984 L 1.678322 12.214634 L 2.517483 12.214634 L 3.356643 12.214634 L 4.195804 12.214634 L 5.034965 12.214634 L 5.874126 12.214634 L 6.713287 10.328228 L 7.552448 13.074262 L 8.391608 14.669350 L 9.230769 19.989493 L 10.069930 27.726147 L 10.909091 26.245676 L 11.748252 25.873171 L 12.587413 18.360976 L 13.426573 17.711479 L 14.265734 16.312195 L 15.104895 15.887157 L 15.944056 14.048508 L 16.783217 18.905407 L 17.622378 19.043902 L 18.461538 19.043902 L 19.300699 19.043902 L 20.139860 19.483268 L 20.979021 14.635920 L 21.818182 10.165854 L 22.657343 10.165854 L 23.496503 10.165854 L 24.335664 10.165854 L 25.174825 13.284394 L 26.013986 17.678049 L 26.853147 22.167218 L 27.692308 22.458537 L 28.531469 11.474399 L 29.370629 12.897561 L 30.209790 9.554563 L 31.048951 12.367457 L 31.888112 16.312195 L 32.727273 16.933038 L 33.566434 17.678049 L 34.405594 20.132765 L 35.244755 22.544499 L 36.083916 22.420331 L 36.923077 18.203377 L 37.762238 21.092683 L 38.601399 18.747808 L 39.440559 22.458537 L 40.279720 21.479516 L 41.118881 19.043902 L 41.958042 22.506294 L 42.797203 19.043902 L 43.636364 19.043902 L 44.475524 19.043902 L 45.314685 19.043902 L 46.153846 19.043902 L 46.993007 19.043902 L 47.832168 19.043902 L 48.671329 23.824390 L 49.510490 23.824390 L 50.349650 23.824390 L 51.188811 22.458537 L 52.027972 22.458537 L 52.867133 22.458537 L 53.706294 22.458537 L 54.545455 22.458537 L 55.384615 22.458537 L 56.223776 22.458537 L 57.062937 22.458537 L 57.902098 23.824390 L 58.741259 22.745079 L 59.580420 22.458537 L 60.419580 18.360976 L 61.258741 19.363875 L 62.097902 19.043902 L 62.937063 19.812792 L 63.776224 15.629268 L 64.615385 14.998874 L 65.454545 13.270067 L 66.293706 12.864131 L 67.132867 15.113491 L 67.972028 12.897561 L 68.811189 14.583387 L 69.650350 16.312195 L 70.489510 12.214634 L 71.328671 12.214634 L 72.167832 12.214634 L 73.006993 12.214634 L 73.846154 12.897561 L 74.685315 12.897561 L 75.524476 13.580488 L 76.363636 16.312195 L 77.202797 16.312195 L 78.041958 16.316971 L 78.881119 17.095412 L 79.720280 17.678049 L 80.559441 12.214634 L 81.398601 13.761965 L 82.237762 12.534607 L 83.076923 11.531707 L 83.916084 11.531707 L 84.755245 11.617670 L 85.594406 12.214634 L 86.433566 12.214634 L 87.272727 12.214634 L 88.111888 12.214634 L 88.951049 12.214634 L 89.790210 12.214634 L 90.629371 12.214634 L 91.468531 12.214634 L 92.307692 12.214634 L 93.146853 12.897561 L 93.986014 12.897561 L 94.825175 12.897561 L 95.664336 12.897561 L 96.503497 15.629268 L 97.342657 15.629268 L 98.181818 15.629268 L 99.020979 15.629268 L 99.860140 15.629268 L 100.699301 16.312195 L 101.538462 21.985741 L 102.377622 23.141463 L 103.216783 23.141463 L 104.055944 20.567355 L 104.895105 23.447109 L 105.734266 19.406857 L 106.573427 19.043902 L 107.412587 20.958963 L 108.251748 8.800000 L 109.090909 22.458537 L 109.930070 22.458537 L 110.769231 23.141463 L 111.608392 23.141463 L 112.447552 23.141463 L 113.286713 23.743203 L 114.125874 27.353641 L 114.965035 32.702439 L 115.804196 32.702439 L 116.643357 32.702439 L 117.482517 35.940372 L 118.321678 36.800000 L 119.160839 30.395770 L 120.000000 31.336585 L 120 40 Z"></path>
    </g>
  </svg>