<svg xmlns="http://www.w3.org/2000/svg" viewBox="0 0 120 40" width="120" height="40">
    <defs>
      <linearGradient id="color_grad" x1="0%" x2="0%" y1="0%" y2="100%">
        <stop offset="0%" style="stop-color:#16C784;stop-opacity:0.4;"></stop>
        <stop offset="100%" style="stop-color:#16C784;stop-opacity:0.0;"></stop>
      </linearGradient>
    </defs>
    <g>
      <path stroke="#16C784" stroke-width="2" stroke-linecap="round" stroke-linejoin="round" fill="none" d="M 0.000000 33.072133 L 0.839161 31.915589 L 1.678322 33.049897 L 2.517483 33.419237 L 3.356643 34.413216 L 4.195804 34.278448 L 5.034965 33.614589 L 5.874126 32.237924 L 6.713287 33.537086 L 7.552448 33.115283 L 8.391608 33.315896 L 9.230769 32.121904 L 10.069930 33.262168 L 10.909091 32.275147 L 11.748252 32.699754 L 12.587413 33.117328 L 13.426573 33.387669 L 14.265734 32.494311 L 15.104895 31.431232 L 15.944056 31.579645 L 16.783217 30.892799 L 17.622378 34.280577 L 18.461538 33.498297 L 19.300699 33.689382 L 20.139860 33.823605 L 20.979021 29.605820 L 21.818182 29.141824 L 22.657343 29.171160 L 23.496503 33.568935 L 24.335664 34.358090 L 25.174825 36.103691 L 26.013986 36.800000 L 26.853147 34.958382 L 27.692308 34.873864 L 28.531469 34.282256 L 29.370629 29.715210 L 30.209790 29.064480 L 31.048951 31.443808 L 31.888112 31.484783 L 32.727273 32.090805 L 33.566434 30.600503 L 34.405594 33.294476 L 35.244755 35.311338 L 36.083916 32.665176 L 36.923077 32.220218 L 37.762238 28.222159 L 38.601399 23.882755 L 39.440559 23.805955 L 40.279720 25.651812 L 41.118881 25.270289 L 41.958042 20.677612 L 42.797203 21.557278 L 43.636364 22.783250 L 44.475524 26.677396 L 45.314685 25.504440 L 46.153846 25.693649 L 46.993007 28.135606 L 47.832168 29.803658 L 48.671329 28.158602 L 49.510490 28.431457 L 50.349650 28.547224 L 51.188811 29.673720 L 52.027972 27.228040 L 52.867133 27.644759 L 53.706294 28.876434 L 54.545455 29.296417 L 55.384615 28.103007 L 56.223776 27.845898 L 57.062937 25.373545 L 57.902098 25.872504 L 58.741259 27.078829 L 59.580420 27.075734 L 60.419580 33.718070 L 61.258741 25.386891 L 62.097902 26.436484 L 62.937063 30.001148 L 63.776224 30.403256 L 64.615385 29.230469 L 65.454545 30.710802 L 66.293706 30.645360 L 67.132867 29.733076 L 67.972028 30.737971 L 68.811189 30.178812 L 69.650350 34.055280 L 70.489510 34.508894 L 71.328671 28.652215 L 72.167832 28.618303 L 73.006993 28.618303 L 73.846154 30.445515 L 74.685315 23.942214 L 75.524476 23.619757 L 76.363636 20.630889 L 77.202797 23.159596 L 78.041958 26.249422 L 78.881119 22.793079 L 79.720280 24.876603 L 80.559441 28.771443 L 81.398601 31.321880 L 82.237762 23.109440 L 83.076923 24.303020 L 83.916084 24.673054 L 84.755245 20.555965 L 85.594406 20.930275 L 86.433566 21.678447 L 87.272727 27.272315 L 88.111888 23.208411 L 88.951049 20.550938 L 89.790210 20.395397 L 90.629371 20.615508 L 91.468531 20.754027 L 92.307692 20.421019 L 93.146853 19.942223 L 93.986014 17.625055 L 94.825175 16.686353 L 95.664336 17.164463 L 96.503497 17.227711 L 97.342657 16.051791 L 98.181818 15.168909 L 99.020979 11.985692 L 99.860140 11.791935 L 100.699301 8.800000 L 101.538462 17.425492 L 102.377622 13.598346 L 103.216783 14.201527 L 104.055944 18.124502 L 104.895105 17.086679 L 105.734266 14.164529 L 106.573427 19.147301 L 107.412587 21.082815 L 108.251748 28.623114 L 109.090909 22.720340 L 109.930070 25.109928 L 110.769231 23.303273 L 111.608392 23.035726 L 112.447552 19.729399 L 113.286713 20.464816 L 114.125874 19.552138 L 114.965035 20.051773 L 115.804196 22.176852 L 116.643357 25.328923 L 117.482517 21.845335 L 118.321678 22.698329 L 119.160839 23.403463 L 120.000000 25.123367"></path>
      <path stroke="none" fill-opacity="0.6" fill="url(#color_grad)" d="M 0 40 L 0.000000 33.072133 L 0.839161 31.915589 L 1.678322 33.049897 L 2.517483 33.419237 L 3.356643 34.413216 L 4.195804 34.278448 L 5.034965 33.614589 L 5.874126 32.237924 L 6.713287 33.537086 L 7.552448 33.115283 L 8.391608 33.315896 L 9.230769 32.121904 L 10.069930 33.262168 L 10.909091 32.275147 L 11.748252 32.699754 L 12.587413 33.117328 L 13.426573 33.387669 L 14.265734 32.494311 L 15.104895 31.431232 L 15.944056 31.579645 L 16.783217 30.892799 L 17.622378 34.280577 L 18.461538 33.498297 L 19.300699 33.689382 L 20.139860 33.823605 L 20.979021 29.605820 L 21.818182 29.141824 L 22.657343 29.171160 L 23.496503 33.568935 L 24.335664 34.358090 L 25.174825 36.103691 L 26.013986 36.800000 L 26.853147 34.958382 L 27.692308 34.873864 L 28.531469 34.282256 L 29.370629 29.715210 L 30.209790 29.064480 L 31.048951 31.443808 L 31.888112 31.484783 L 32.727273 32.090805 L 33.566434 30.600503 L 34.405594 33.294476 L 35.244755 35.311338 L 36.083916 32.665176 L 36.923077 32.220218 L 37.762238 28.222159 L 38.601399 23.882755 L 39.440559 23.805955 L 40.279720 25.651812 L 41.118881 25.270289 L 41.958042 20.677612 L 42.797203 21.557278 L 43.636364 22.783250 L 44.475524 26.677396 L 45.314685 25.504440 L 46.153846 25.693649 L 46.993007 28.135606 L 47.832168 29.803658 L 48.671329 28.158602 L 49.510490 28.431457 L 50.349650 28.547224 L 51.188811 29.673720 L 52.027972 27.228040 L 52.867133 27.644759 L 53.706294 28.876434 L 54.545455 29.296417 L 55.384615 28.103007 L 56.223776 27.845898 L 57.062937 25.373545 L 57.902098 25.872504 L 58.741259 27.078829 L 59.580420 27.075734 L 60.419580 33.718070 L 61.258741 25.386891 L 62.097902 26.436484 L 62.937063 30.001148 L 63.776224 30.403256 L 64.615385 29.230469 L 65.454545 30.710802 L 66.293706 30.645360 L 67.132867 29.733076 L 67.972028 30.737971 L 68.811189 30.178812 L 69.650350 34.055280 L 70.489510 34.508894 L 71.328671 28.652215 L 72.167832 28.618303 L 73.006993 28.618303 L 73.846154 30.445515 L 74.685315 23.942214 L 75.524476 23.619757 L 76.363636 20.630889 L 77.202797 23.159596 L 78.041958 26.249422 L 78.881119 22.793079 L 79.720280 24.876603 L 80.559441 28.771443 L 81.398601 31.321880 L 82.237762 23.109440 L 83.076923 24.303020 L 83.916084 24.673054 L 84.755245 20.555965 L 85.594406 20.930275 L 86.433566 21.678447 L 87.272727 27.272315 L 88.111888 23.208411 L 88.951049 20.550938 L 89.790210 20.395397 L 90.629371 20.615508 L 91.468531 20.754027 L 92.307692 20.421019 L 93.146853 19.942223 L 93.986014 17.625055 L 94.825175 16.686353 L 95.664336 17.164463 L 96.503497 17.227711 L 97.342657 16.051791 L 98.181818 15.168909 L 99.020979 11.985692 L 99.860140 11.791935 L 100.699301 8.800000 L 101.538462 17.425492 L 102.377622 13.598346 L 103.216783 14.201527 L 104.055944 18.124502 L 104.895105 17.086679 L 105.734266 14.164529 L 106.573427 19.147301 L 107.412587 21.082815 L 108.251748 28.623114 L 109.090909 22.720340 L 109.930070 25.109928 L 110.769231 23.303273 L 111.608392 23.035726 L 112.447552 19.729399 L 113.286713 20.464816 L 114.125874 19.552138 L 114.965035 20.051773 L 115.804196 22.176852 L 116.643357 25.328923 L 117.482517 21.845335 L 118.321678 22.698329 L 119.160839 23.403463 L 120.000000 25.123367 L 120 40 Z"></path>
    </g>
  </svg>