<svg xmlns="http://www.w3.org/2000/svg" viewBox="0 0 120 40" width="120" height="40">
    <defs>
      <linearGradient id="color_grad" x1="0%" x2="0%" y1="0%" y2="100%">
        <stop offset="0%" style="stop-color:#EA3943;stop-opacity:0.4;"></stop>
        <stop offset="100%" style="stop-color:#EA3943;stop-opacity:0.0;"></stop>
      </linearGradient>
    </defs>
    <g>
      <path stroke="#EA3943" stroke-width="2" stroke-linecap="round" stroke-linejoin="round" fill="none" d="M 0.000000 18.877121 L 0.839161 18.157326 L 1.678322 18.157326 L 2.517483 18.157326 L 3.356643 18.157326 L 4.195804 18.157326 L 5.034965 18.157326 L 5.874126 15.206170 L 6.713287 15.206170 L 7.552448 15.206170 L 8.391608 15.206170 L 9.230769 15.206170 L 10.069930 15.206170 L 10.909091 15.206170 L 11.748252 15.206170 L 12.587413 15.206170 L 13.426573 15.206170 L 14.265734 15.206170 L 15.104895 15.278149 L 15.944056 15.278149 L 16.783217 15.278149 L 17.622378 22.404113 L 18.461538 22.404113 L 19.300699 22.404113 L 20.139860 22.404113 L 20.979021 15.278149 L 21.818182 15.278149 L 22.657343 15.278149 L 23.496503 21.806130 L 24.335664 22.504784 L 25.174825 24.203599 L 26.013986 24.203599 L 26.853147 22.404113 L 27.692308 22.404113 L 28.531469 22.404113 L 29.370629 15.278149 L 30.209790 15.278149 L 31.048951 15.278149 L 31.888112 15.255498 L 32.727273 15.206170 L 33.566434 15.206170 L 34.405594 20.491373 L 35.244755 22.404113 L 36.083916 22.404113 L 36.923077 22.404113 L 37.762238 20.290032 L 38.601399 15.206170 L 39.440559 15.206170 L 40.279720 14.898118 L 41.118881 14.837715 L 41.958042 8.841778 L 42.797203 8.871979 L 43.636364 12.398972 L 44.475524 19.021080 L 45.314685 19.306984 L 46.153846 19.696579 L 46.993007 21.180463 L 47.832168 23.873400 L 48.671329 22.476093 L 49.510490 22.404113 L 50.349650 22.548072 L 51.188811 23.339846 L 52.027972 23.843702 L 52.867133 25.011480 L 53.706294 25.283290 L 54.545455 25.283290 L 55.384615 25.283290 L 56.223776 25.283290 L 57.062937 19.740874 L 57.902098 19.740874 L 58.741259 19.740874 L 59.580420 19.740874 L 60.419580 33.789951 L 61.258741 23.986151 L 62.097902 24.022895 L 62.937063 29.744505 L 63.776224 29.700714 L 64.615385 25.427249 L 65.454545 25.571208 L 66.293706 25.571208 L 67.132867 25.571208 L 67.972028 25.571208 L 68.811189 25.643188 L 69.650350 27.232775 L 70.489510 27.532774 L 71.328671 20.388689 L 72.167832 20.388689 L 73.006993 20.388689 L 73.846154 20.388689 L 74.685315 12.974807 L 75.524476 12.974807 L 76.363636 12.974807 L 77.202797 12.350650 L 78.041958 12.255013 L 78.881119 12.135718 L 79.720280 15.206170 L 80.559441 22.434818 L 81.398601 24.473899 L 82.237762 14.339396 L 83.076923 15.206170 L 83.916084 15.277142 L 84.755245 15.278149 L 85.594406 15.278149 L 86.433566 15.278149 L 87.272727 24.766347 L 88.111888 21.045564 L 88.951049 15.278149 L 89.790210 15.278149 L 90.629371 15.278149 L 91.468531 15.278149 L 92.307692 15.278149 L 93.146853 15.278149 L 93.986014 12.302831 L 94.825175 12.326992 L 95.664336 12.398972 L 96.503497 12.398972 L 97.342657 12.398972 L 98.181818 11.090255 L 99.020979 8.800000 L 99.860140 8.800000 L 100.699301 8.800000 L 101.538462 15.206170 L 102.377622 9.375835 L 103.216783 10.558211 L 104.055944 15.206170 L 104.895105 15.206170 L 105.734266 15.206170 L 106.573427 21.034994 L 107.412587 22.541025 L 108.251748 36.800000 L 109.090909 24.301753 L 109.930070 29.602057 L 110.769231 29.602057 L 111.608392 30.943995 L 112.447552 29.602057 L 113.286713 29.602057 L 114.125874 28.018509 L 114.965035 27.246366 L 115.804196 29.674036 L 116.643357 33.241296 L 117.482517 29.643835 L 118.321678 28.234447 L 119.160839 29.635278 L 120.000000 29.817995"></path>
      <path stroke="none" fill-opacity="0.6" fill="url(#color_grad)" d="M 0 40 L 0.000000 18.877121 L 0.839161 18.157326 L 1.678322 18.157326 L 2.517483 18.157326 L 3.356643 18.157326 L 4.195804 18.157326 L 5.034965 18.157326 L 5.874126 15.206170 L 6.713287 15.206170 L 7.552448 15.206170 L 8.391608 15.206170 L 9.230769 15.206170 L 10.069930 15.206170 L 10.909091 15.206170 L 11.748252 15.206170 L 12.587413 15.206170 L 13.426573 15.206170 L 14.265734 15.206170 L 15.104895 15.278149 L 15.944056 15.278149 L 16.783217 15.278149 L 17.622378 22.404113 L 18.461538 22.404113 L 19.300699 22.404113 L 20.139860 22.404113 L 20.979021 15.278149 L 21.818182 15.278149 L 22.657343 15.278149 L 23.496503 21.806130 L 24.335664 22.504784 L 25.174825 24.203599 L 26.013986 24.203599 L 26.853147 22.404113 L 27.692308 22.404113 L 28.531469 22.404113 L 29.370629 15.278149 L 30.209790 15.278149 L 31.048951 15.278149 L 31.888112 15.255498 L 32.727273 15.206170 L 33.566434 15.206170 L 34.405594 20.491373 L 35.244755 22.404113 L 36.083916 22.404113 L 36.923077 22.404113 L 37.762238 20.290032 L 38.601399 15.206170 L 39.440559 15.206170 L 40.279720 14.898118 L 41.118881 14.837715 L 41.958042 8.841778 L 42.797203 8.871979 L 43.636364 12.398972 L 44.475524 19.021080 L 45.314685 19.306984 L 46.153846 19.696579 L 46.993007 21.180463 L 47.832168 23.873400 L 48.671329 22.476093 L 49.510490 22.404113 L 50.349650 22.548072 L 51.188811 23.339846 L 52.027972 23.843702 L 52.867133 25.011480 L 53.706294 25.283290 L 54.545455 25.283290 L 55.384615 25.283290 L 56.223776 25.283290 L 57.062937 19.740874 L 57.902098 19.740874 L 58.741259 19.740874 L 59.580420 19.740874 L 60.419580 33.789951 L 61.258741 23.986151 L 62.097902 24.022895 L 62.937063 29.744505 L 63.776224 29.700714 L 64.615385 25.427249 L 65.454545 25.571208 L 66.293706 25.571208 L 67.132867 25.571208 L 67.972028 25.571208 L 68.811189 25.643188 L 69.650350 27.232775 L 70.489510 27.532774 L 71.328671 20.388689 L 72.167832 20.388689 L 73.006993 20.388689 L 73.846154 20.388689 L 74.685315 12.974807 L 75.524476 12.974807 L 76.363636 12.974807 L 77.202797 12.350650 L 78.041958 12.255013 L 78.881119 12.135718 L 79.720280 15.206170 L 80.559441 22.434818 L 81.398601 24.473899 L 82.237762 14.339396 L 83.076923 15.206170 L 83.916084 15.277142 L 84.755245 15.278149 L 85.594406 15.278149 L 86.433566 15.278149 L 87.272727 24.766347 L 88.111888 21.045564 L 88.951049 15.278149 L 89.790210 15.278149 L 90.629371 15.278149 L 91.468531 15.278149 L 92.307692 15.278149 L 93.146853 15.278149 L 93.986014 12.302831 L 94.825175 12.326992 L 95.664336 12.398972 L 96.503497 12.398972 L 97.342657 12.398972 L 98.181818 11.090255 L 99.020979 8.800000 L 99.860140 8.800000 L 100.699301 8.800000 L 101.538462 15.206170 L 102.377622 9.375835 L 103.216783 10.558211 L 104.055944 15.206170 L 104.895105 15.206170 L 105.734266 15.206170 L 106.573427 21.034994 L 107.412587 22.541025 L 108.251748 36.800000 L 109.090909 24.301753 L 109.930070 29.602057 L 110.769231 29.602057 L 111.608392 30.943995 L 112.447552 29.602057 L 113.286713 29.602057 L 114.125874 28.018509 L 114.965035 27.246366 L 115.804196 29.674036 L 116.643357 33.241296 L 117.482517 29.643835 L 118.321678 28.234447 L 119.160839 29.635278 L 120.000000 29.817995 L 120 40 Z"></path>
    </g>
  </svg>