<svg xmlns="http://www.w3.org/2000/svg" viewBox="0 0 120 40" width="120" height="40">
    <defs>
      <linearGradient id="color_grad" x1="0%" x2="0%" y1="0%" y2="100%">
        <stop offset="0%" style="stop-color:#16C784;stop-opacity:0.4;"></stop>
        <stop offset="100%" style="stop-color:#16C784;stop-opacity:0.0;"></stop>
      </linearGradient>
    </defs>
    <g>
      <path stroke="#16C784" stroke-width="2" stroke-linecap="round" stroke-linejoin="round" fill="none" d="M 0.000000 9.455518 L 0.839161 9.830100 L 1.678322 9.830100 L 2.517483 9.830100 L 3.356643 11.103155 L 4.195804 11.515719 L 5.034965 11.515719 L 5.874126 11.057315 L 6.713287 11.085474 L 7.552448 10.890979 L 8.391608 11.983946 L 9.230769 12.545819 L 10.069930 12.545819 L 10.909091 12.545819 L 11.748252 12.545819 L 12.587413 12.545819 L 13.426573 12.545819 L 14.265734 18.164548 L 15.104895 21.910368 L 15.944056 21.910368 L 16.783217 21.910368 L 17.622378 21.816722 L 18.461538 21.816722 L 19.300699 21.816722 L 20.139860 21.816722 L 20.979021 21.816722 L 21.818182 21.816722 L 22.657343 21.816722 L 23.496503 21.816722 L 24.335664 12.452174 L 25.174825 12.452174 L 26.013986 12.452174 L 26.853147 13.388629 L 27.692308 13.388629 L 28.531469 12.452174 L 29.370629 17.579755 L 30.209790 18.164548 L 31.048951 17.345969 L 31.888112 15.778226 L 32.727273 17.228094 L 33.566434 17.415385 L 34.405594 18.139664 L 35.244755 18.164548 L 36.083916 18.539130 L 36.923077 18.539130 L 37.762238 18.539130 L 38.601399 18.539130 L 39.440559 18.539130 L 40.279720 24.615085 L 41.118881 25.468896 L 41.958042 22.506556 L 42.797203 22.490970 L 43.636364 22.490970 L 44.475524 22.490970 L 45.314685 22.490970 L 46.153846 21.845536 L 46.993007 21.816722 L 47.832168 21.816722 L 48.671329 21.816722 L 49.510490 21.910368 L 50.349650 21.910368 L 51.188811 22.358295 L 52.027972 22.846823 L 52.867133 22.846823 L 53.706294 22.846823 L 54.545455 22.846823 L 55.384615 22.846823 L 56.223776 27.435452 L 57.062937 27.435452 L 57.902098 22.624169 L 58.741259 20.973913 L 59.580420 20.973913 L 60.419580 20.973913 L 61.258741 27.435452 L 62.097902 20.973913 L 62.937063 21.432318 L 63.776224 21.910368 L 64.615385 21.910368 L 65.454545 21.910368 L 66.293706 22.940468 L 67.132867 26.645031 L 67.972028 25.612311 L 68.811189 25.114615 L 69.650350 24.053736 L 70.489510 21.910368 L 71.328671 24.813378 L 72.167832 24.813378 L 73.006993 24.813378 L 73.846154 21.816722 L 74.685315 21.816722 L 75.524476 18.351839 L 76.363636 10.204682 L 77.202797 10.529495 L 78.041958 18.136389 L 78.881119 27.435452 L 79.720280 27.435452 L 80.559441 18.164548 L 81.398601 18.164548 L 82.237762 12.807110 L 83.076923 10.579264 L 83.916084 10.579264 L 84.755245 10.579264 L 85.594406 10.579264 L 86.433566 10.579264 L 87.272727 10.579264 L 88.111888 10.579264 L 88.951049 10.579264 L 89.790210 10.579264 L 90.629371 10.579264 L 91.468531 10.579264 L 92.307692 10.579264 L 93.146853 10.579264 L 93.986014 10.579264 L 94.825175 10.579264 L 95.664336 10.579264 L 96.503497 10.579264 L 97.342657 10.579264 L 98.181818 10.579264 L 99.020979 11.993769 L 99.860140 13.388629 L 100.699301 13.388629 L 101.538462 13.482274 L 102.377622 13.482274 L 103.216783 13.482274 L 104.055944 13.482274 L 104.895105 13.482274 L 105.734266 19.407349 L 106.573427 22.490970 L 107.412587 22.672498 L 108.251748 36.800000 L 109.090909 15.261538 L 109.930070 15.261538 L 110.769231 15.261538 L 111.608392 8.800000 L 112.447552 27.435452 L 113.286713 16.968768 L 114.125874 15.127946 L 114.965035 8.893645 L 115.804196 10.245284 L 116.643357 8.893645 L 117.482517 8.893645 L 118.321678 12.639465 L 119.160839 12.639465 L 120.000000 10.579264"></path>
      <path stroke="none" fill-opacity="0.6" fill="url(#color_grad)" d="M 0 40 L 0.000000 9.455518 L 0.839161 9.830100 L 1.678322 9.830100 L 2.517483 9.830100 L 3.356643 11.103155 L 4.195804 11.515719 L 5.034965 11.515719 L 5.874126 11.057315 L 6.713287 11.085474 L 7.552448 10.890979 L 8.391608 11.983946 L 9.230769 12.545819 L 10.069930 12.545819 L 10.909091 12.545819 L 11.748252 12.545819 L 12.587413 12.545819 L 13.426573 12.545819 L 14.265734 18.164548 L 15.104895 21.910368 L 15.944056 21.910368 L 16.783217 21.910368 L 17.622378 21.816722 L 18.461538 21.816722 L 19.300699 21.816722 L 20.139860 21.816722 L 20.979021 21.816722 L 21.818182 21.816722 L 22.657343 21.816722 L 23.496503 21.816722 L 24.335664 12.452174 L 25.174825 12.452174 L 26.013986 12.452174 L 26.853147 13.388629 L 27.692308 13.388629 L 28.531469 12.452174 L 29.370629 17.579755 L 30.209790 18.164548 L 31.048951 17.345969 L 31.888112 15.778226 L 32.727273 17.228094 L 33.566434 17.415385 L 34.405594 18.139664 L 35.244755 18.164548 L 36.083916 18.539130 L 36.923077 18.539130 L 37.762238 18.539130 L 38.601399 18.539130 L 39.440559 18.539130 L 40.279720 24.615085 L 41.118881 25.468896 L 41.958042 22.506556 L 42.797203 22.490970 L 43.636364 22.490970 L 44.475524 22.490970 L 45.314685 22.490970 L 46.153846 21.845536 L 46.993007 21.816722 L 47.832168 21.816722 L 48.671329 21.816722 L 49.510490 21.910368 L 50.349650 21.910368 L 51.188811 22.358295 L 52.027972 22.846823 L 52.867133 22.846823 L 53.706294 22.846823 L 54.545455 22.846823 L 55.384615 22.846823 L 56.223776 27.435452 L 57.062937 27.435452 L 57.902098 22.624169 L 58.741259 20.973913 L 59.580420 20.973913 L 60.419580 20.973913 L 61.258741 27.435452 L 62.097902 20.973913 L 62.937063 21.432318 L 63.776224 21.910368 L 64.615385 21.910368 L 65.454545 21.910368 L 66.293706 22.940468 L 67.132867 26.645031 L 67.972028 25.612311 L 68.811189 25.114615 L 69.650350 24.053736 L 70.489510 21.910368 L 71.328671 24.813378 L 72.167832 24.813378 L 73.006993 24.813378 L 73.846154 21.816722 L 74.685315 21.816722 L 75.524476 18.351839 L 76.363636 10.204682 L 77.202797 10.529495 L 78.041958 18.136389 L 78.881119 27.435452 L 79.720280 27.435452 L 80.559441 18.164548 L 81.398601 18.164548 L 82.237762 12.807110 L 83.076923 10.579264 L 83.916084 10.579264 L 84.755245 10.579264 L 85.594406 10.579264 L 86.433566 10.579264 L 87.272727 10.579264 L 88.111888 10.579264 L 88.951049 10.579264 L 89.790210 10.579264 L 90.629371 10.579264 L 91.468531 10.579264 L 92.307692 10.579264 L 93.146853 10.579264 L 93.986014 10.579264 L 94.825175 10.579264 L 95.664336 10.579264 L 96.503497 10.579264 L 97.342657 10.579264 L 98.181818 10.579264 L 99.020979 11.993769 L 99.860140 13.388629 L 100.699301 13.388629 L 101.538462 13.482274 L 102.377622 13.482274 L 103.216783 13.482274 L 104.055944 13.482274 L 104.895105 13.482274 L 105.734266 19.407349 L 106.573427 22.490970 L 107.412587 22.672498 L 108.251748 36.800000 L 109.090909 15.261538 L 109.930070 15.261538 L 110.769231 15.261538 L 111.608392 8.800000 L 112.447552 27.435452 L 113.286713 16.968768 L 114.125874 15.127946 L 114.965035 8.893645 L 115.804196 10.245284 L 116.643357 8.893645 L 117.482517 8.893645 L 118.321678 12.639465 L 119.160839 12.639465 L 120.000000 10.579264 L 120 40 Z"></path>
    </g>
  </svg>