<svg xmlns="http://www.w3.org/2000/svg" viewBox="0 0 120 40" width="120" height="40">
    <defs>
      <linearGradient id="color_grad" x1="0%" x2="0%" y1="0%" y2="100%">
        <stop offset="0%" style="stop-color:#16C784;stop-opacity:0.4;"></stop>
        <stop offset="100%" style="stop-color:#16C784;stop-opacity:0.0;"></stop>
      </linearGradient>
    </defs>
    <g>
      <path stroke="#16C784" stroke-width="2" stroke-linecap="round" stroke-linejoin="round" fill="none" d="M 0.000000 28.496754 L 0.839161 27.979037 L 1.678322 29.151473 L 2.517483 29.534345 L 3.356643 31.331462 L 4.195804 31.443399 L 5.034965 30.762379 L 5.874126 30.892770 L 6.713287 32.230804 L 7.552448 31.683284 L 8.391608 32.548517 L 9.230769 31.679497 L 10.069930 32.833972 L 10.909091 31.833364 L 11.748252 32.262890 L 12.587413 32.688407 L 13.426573 32.962118 L 14.265734 35.466962 L 15.104895 36.652511 L 15.944056 36.800000 L 16.783217 36.123643 L 17.622378 35.133225 L 18.461538 34.345240 L 19.300699 34.537520 L 20.139860 34.672772 L 20.979021 34.804101 L 21.818182 34.346806 L 22.657343 34.377313 L 23.496503 34.783290 L 24.335664 29.383735 L 25.174825 30.125509 L 26.013986 30.854010 L 26.853147 30.645446 L 27.692308 30.557293 L 28.531469 29.366748 L 29.370629 32.297936 L 30.209790 32.013062 L 31.048951 33.881826 L 31.888112 32.975552 L 32.727273 34.494986 L 33.566434 33.123176 L 34.405594 33.048321 L 35.244755 33.934624 L 36.083916 31.469206 L 36.923077 31.017980 L 37.762238 28.303288 L 38.601399 27.142239 L 39.440559 27.066126 L 40.279720 32.914229 L 41.118881 33.120832 L 41.958042 30.434920 L 42.797203 31.248996 L 43.636364 30.304578 L 44.475524 30.047657 L 45.314685 28.703578 L 46.153846 28.234047 L 46.993007 29.722419 L 47.832168 29.699338 L 48.671329 28.925096 L 49.510490 29.305241 L 50.349650 29.330999 L 51.188811 30.249560 L 52.027972 27.777036 L 52.867133 27.447357 L 53.706294 28.517786 L 54.545455 28.942415 L 55.384615 27.733601 L 56.223776 30.432083 L 57.062937 31.470069 L 57.902098 28.888100 L 58.741259 29.032098 L 59.580420 29.030470 L 60.419580 26.737446 L 61.258741 28.813455 L 62.097902 25.651547 L 62.937063 25.847134 L 63.776224 26.602416 L 64.615385 28.183839 L 65.454545 29.596395 L 66.293706 30.185030 L 67.132867 31.628253 L 67.972028 31.974870 L 68.811189 31.052780 L 69.650350 33.298261 L 70.489510 32.224833 L 71.328671 32.624655 L 72.167832 32.591101 L 73.006993 32.591101 L 73.846154 32.526510 L 74.685315 30.654414 L 75.524476 28.149015 L 76.363636 19.965834 L 77.202797 23.129679 L 78.041958 31.046156 L 78.881119 33.607153 L 79.720280 33.760662 L 80.559441 27.249500 L 81.398601 28.552635 L 82.237762 23.262192 L 83.076923 22.505651 L 83.916084 22.838636 L 84.755245 18.636399 L 85.594406 19.018518 L 86.433566 19.782263 L 87.272727 19.308327 L 88.111888 19.872352 L 88.951049 18.630872 L 89.790210 18.473021 L 90.629371 18.696783 L 91.468531 18.838610 L 92.307692 18.498285 L 93.146853 18.010841 L 93.986014 17.601509 L 94.825175 16.637822 L 95.664336 17.074726 L 96.503497 17.136208 L 97.342657 15.948698 L 98.181818 15.919116 L 99.020979 15.161638 L 99.860140 15.892507 L 100.699301 12.935636 L 101.538462 17.400235 L 102.377622 17.370937 L 103.216783 17.206425 L 104.055944 18.107469 L 104.895105 17.060293 L 105.734266 18.075654 L 106.573427 21.263419 L 107.412587 22.329580 L 108.251748 29.878346 L 109.090909 17.919863 L 109.930070 16.786656 L 110.769231 14.879415 L 111.608392 9.282633 L 112.447552 19.432686 L 113.286713 13.045093 L 114.125874 11.955049 L 114.965035 8.800000 L 115.804196 10.252524 L 116.643357 10.180371 L 117.482517 9.003618 L 118.321678 13.440535 L 119.160839 13.203388 L 120.000000 13.535892"></path>
      <path stroke="none" fill-opacity="0.6" fill="url(#color_grad)" d="M 0 40 L 0.000000 28.496754 L 0.839161 27.979037 L 1.678322 29.151473 L 2.517483 29.534345 L 3.356643 31.331462 L 4.195804 31.443399 L 5.034965 30.762379 L 5.874126 30.892770 L 6.713287 32.230804 L 7.552448 31.683284 L 8.391608 32.548517 L 9.230769 31.679497 L 10.069930 32.833972 L 10.909091 31.833364 L 11.748252 32.262890 L 12.587413 32.688407 L 13.426573 32.962118 L 14.265734 35.466962 L 15.104895 36.652511 L 15.944056 36.800000 L 16.783217 36.123643 L 17.622378 35.133225 L 18.461538 34.345240 L 19.300699 34.537520 L 20.139860 34.672772 L 20.979021 34.804101 L 21.818182 34.346806 L 22.657343 34.377313 L 23.496503 34.783290 L 24.335664 29.383735 L 25.174825 30.125509 L 26.013986 30.854010 L 26.853147 30.645446 L 27.692308 30.557293 L 28.531469 29.366748 L 29.370629 32.297936 L 30.209790 32.013062 L 31.048951 33.881826 L 31.888112 32.975552 L 32.727273 34.494986 L 33.566434 33.123176 L 34.405594 33.048321 L 35.244755 33.934624 L 36.083916 31.469206 L 36.923077 31.017980 L 37.762238 28.303288 L 38.601399 27.142239 L 39.440559 27.066126 L 40.279720 32.914229 L 41.118881 33.120832 L 41.958042 30.434920 L 42.797203 31.248996 L 43.636364 30.304578 L 44.475524 30.047657 L 45.314685 28.703578 L 46.153846 28.234047 L 46.993007 29.722419 L 47.832168 29.699338 L 48.671329 28.925096 L 49.510490 29.305241 L 50.349650 29.330999 L 51.188811 30.249560 L 52.027972 27.777036 L 52.867133 27.447357 L 53.706294 28.517786 L 54.545455 28.942415 L 55.384615 27.733601 L 56.223776 30.432083 L 57.062937 31.470069 L 57.902098 28.888100 L 58.741259 29.032098 L 59.580420 29.030470 L 60.419580 26.737446 L 61.258741 28.813455 L 62.097902 25.651547 L 62.937063 25.847134 L 63.776224 26.602416 L 64.615385 28.183839 L 65.454545 29.596395 L 66.293706 30.185030 L 67.132867 31.628253 L 67.972028 31.974870 L 68.811189 31.052780 L 69.650350 33.298261 L 70.489510 32.224833 L 71.328671 32.624655 L 72.167832 32.591101 L 73.006993 32.591101 L 73.846154 32.526510 L 74.685315 30.654414 L 75.524476 28.149015 L 76.363636 19.965834 L 77.202797 23.129679 L 78.041958 31.046156 L 78.881119 33.607153 L 79.720280 33.760662 L 80.559441 27.249500 L 81.398601 28.552635 L 82.237762 23.262192 L 83.076923 22.505651 L 83.916084 22.838636 L 84.755245 18.636399 L 85.594406 19.018518 L 86.433566 19.782263 L 87.272727 19.308327 L 88.111888 19.872352 L 88.951049 18.630872 L 89.790210 18.473021 L 90.629371 18.696783 L 91.468531 18.838610 L 92.307692 18.498285 L 93.146853 18.010841 L 93.986014 17.601509 L 94.825175 16.637822 L 95.664336 17.074726 L 96.503497 17.136208 L 97.342657 15.948698 L 98.181818 15.919116 L 99.020979 15.161638 L 99.860140 15.892507 L 100.699301 12.935636 L 101.538462 17.400235 L 102.377622 17.370937 L 103.216783 17.206425 L 104.055944 18.107469 L 104.895105 17.060293 L 105.734266 18.075654 L 106.573427 21.263419 L 107.412587 22.329580 L 108.251748 29.878346 L 109.090909 17.919863 L 109.930070 16.786656 L 110.769231 14.879415 L 111.608392 9.282633 L 112.447552 19.432686 L 113.286713 13.045093 L 114.125874 11.955049 L 114.965035 8.800000 L 115.804196 10.252524 L 116.643357 10.180371 L 117.482517 9.003618 L 118.321678 13.440535 L 119.160839 13.203388 L 120.000000 13.535892 L 120 40 Z"></path>
    </g>
  </svg>