<svg xmlns="http://www.w3.org/2000/svg" viewBox="0 0 120 40" width="120" height="40">
    <defs>
      <linearGradient id="color_grad" x1="0%" x2="0%" y1="0%" y2="100%">
        <stop offset="0%" style="stop-color:#16C784;stop-opacity:0.4;"></stop>
        <stop offset="100%" style="stop-color:#16C784;stop-opacity:0.0;"></stop>
      </linearGradient>
    </defs>
    <g>
      <path stroke="#16C784" stroke-width="2" stroke-linecap="round" stroke-linejoin="round" fill="none" d="M 0.000000 29.298746 L 0.839161 28.506135 L 1.678322 34.143414 L 2.517483 31.150459 L 3.356643 33.518408 L 4.195804 33.418315 L 5.034965 32.916380 L 5.874126 33.306757 L 6.713287 34.573907 L 7.552448 34.162689 L 8.391608 34.357054 L 9.230769 33.194140 L 10.069930 34.304431 L 10.909091 33.618534 L 11.748252 34.055208 L 12.587413 34.462578 L 13.426573 34.725776 L 14.265734 33.857467 L 15.104895 32.781731 L 15.944056 32.925381 L 16.783217 32.559807 L 17.622378 31.637000 L 18.461538 30.941499 L 19.300699 31.811943 L 20.139860 31.944455 L 20.979021 32.075484 L 21.818182 31.624525 L 22.657343 33.874785 L 23.496503 34.972242 L 24.335664 35.387684 L 25.174825 36.086381 L 26.013986 36.766815 L 26.853147 36.032225 L 27.692308 35.949042 L 28.531469 35.372502 L 29.370629 35.155894 L 30.209790 34.540020 L 31.048951 36.800000 L 31.888112 35.688698 L 32.727273 33.282101 L 33.566434 31.864371 L 34.405594 31.377129 L 35.244755 33.322249 L 36.083916 30.027057 L 36.923077 29.111833 L 37.762238 26.854560 L 38.601399 25.878152 L 39.440559 28.842063 L 40.279720 31.032378 L 41.118881 30.726863 L 41.958042 29.932606 L 42.797203 30.733598 L 43.636364 29.816646 L 44.475524 29.564993 L 45.314685 28.257108 L 46.153846 29.628086 L 46.993007 29.665690 L 47.832168 29.643414 L 48.671329 28.890903 L 49.510490 29.204719 L 50.349650 29.227598 L 51.188811 29.842362 L 52.027972 27.134277 L 52.867133 27.371938 L 53.706294 28.410461 L 54.545455 31.991697 L 55.384615 30.839073 L 56.223776 30.590438 L 57.062937 31.595955 L 57.902098 28.673007 L 58.741259 29.610343 L 59.580420 29.590824 L 60.419580 27.374303 L 61.258741 25.316500 L 62.097902 26.326322 L 62.937063 29.097287 L 63.776224 30.254934 L 64.615385 31.760184 L 65.454545 33.102966 L 66.293706 29.815732 L 67.132867 32.305839 L 67.972028 32.768180 L 68.811189 31.440808 L 69.650350 34.256064 L 70.489510 34.516375 L 71.328671 33.146392 L 72.167832 33.113778 L 73.006993 33.113778 L 73.846154 34.861109 L 74.685315 33.114659 L 75.524476 23.531467 L 76.363636 20.597267 L 77.202797 23.462699 L 78.041958 26.553530 L 78.881119 24.244547 L 79.720280 24.334074 L 80.559441 26.885626 L 81.398601 24.048763 L 82.237762 21.183363 L 83.076923 21.413425 L 83.916084 21.817582 L 84.755245 17.709738 L 85.594406 18.062870 L 86.433566 18.750968 L 87.272727 16.929570 L 88.111888 17.486232 L 88.951049 16.264579 L 89.790210 16.107672 L 90.629371 16.329221 L 91.468531 16.470816 L 92.307692 16.134481 L 93.146853 15.654022 L 93.986014 15.252278 L 94.825175 15.420308 L 95.664336 14.793590 L 96.503497 14.794601 L 97.342657 13.626045 L 98.181818 13.595338 L 99.020979 14.736564 L 99.860140 13.722958 L 100.699301 8.800000 L 101.538462 13.171678 L 102.377622 13.204700 L 103.216783 14.022326 L 104.055944 17.529120 L 104.895105 19.652380 L 105.734266 11.390428 L 106.573427 15.608052 L 107.412587 17.587434 L 108.251748 23.070740 L 109.090909 18.897716 L 109.930070 18.251479 L 110.769231 17.620994 L 111.608392 16.439914 L 112.447552 14.006410 L 113.286713 14.959010 L 114.125874 14.904120 L 114.965035 16.010285 L 115.804196 16.516330 L 116.643357 19.254485 L 117.482517 16.034779 L 118.321678 17.842723 L 119.160839 13.742821 L 120.000000 14.218175"></path>
      <path stroke="none" fill-opacity="0.6" fill="url(#color_grad)" d="M 0 40 L 0.000000 29.298746 L 0.839161 28.506135 L 1.678322 34.143414 L 2.517483 31.150459 L 3.356643 33.518408 L 4.195804 33.418315 L 5.034965 32.916380 L 5.874126 33.306757 L 6.713287 34.573907 L 7.552448 34.162689 L 8.391608 34.357054 L 9.230769 33.194140 L 10.069930 34.304431 L 10.909091 33.618534 L 11.748252 34.055208 L 12.587413 34.462578 L 13.426573 34.725776 L 14.265734 33.857467 L 15.104895 32.781731 L 15.944056 32.925381 L 16.783217 32.559807 L 17.622378 31.637000 L 18.461538 30.941499 L 19.300699 31.811943 L 20.139860 31.944455 L 20.979021 32.075484 L 21.818182 31.624525 L 22.657343 33.874785 L 23.496503 34.972242 L 24.335664 35.387684 L 25.174825 36.086381 L 26.013986 36.766815 L 26.853147 36.032225 L 27.692308 35.949042 L 28.531469 35.372502 L 29.370629 35.155894 L 30.209790 34.540020 L 31.048951 36.800000 L 31.888112 35.688698 L 32.727273 33.282101 L 33.566434 31.864371 L 34.405594 31.377129 L 35.244755 33.322249 L 36.083916 30.027057 L 36.923077 29.111833 L 37.762238 26.854560 L 38.601399 25.878152 L 39.440559 28.842063 L 40.279720 31.032378 L 41.118881 30.726863 L 41.958042 29.932606 L 42.797203 30.733598 L 43.636364 29.816646 L 44.475524 29.564993 L 45.314685 28.257108 L 46.153846 29.628086 L 46.993007 29.665690 L 47.832168 29.643414 L 48.671329 28.890903 L 49.510490 29.204719 L 50.349650 29.227598 L 51.188811 29.842362 L 52.027972 27.134277 L 52.867133 27.371938 L 53.706294 28.410461 L 54.545455 31.991697 L 55.384615 30.839073 L 56.223776 30.590438 L 57.062937 31.595955 L 57.902098 28.673007 L 58.741259 29.610343 L 59.580420 29.590824 L 60.419580 27.374303 L 61.258741 25.316500 L 62.097902 26.326322 L 62.937063 29.097287 L 63.776224 30.254934 L 64.615385 31.760184 L 65.454545 33.102966 L 66.293706 29.815732 L 67.132867 32.305839 L 67.972028 32.768180 L 68.811189 31.440808 L 69.650350 34.256064 L 70.489510 34.516375 L 71.328671 33.146392 L 72.167832 33.113778 L 73.006993 33.113778 L 73.846154 34.861109 L 74.685315 33.114659 L 75.524476 23.531467 L 76.363636 20.597267 L 77.202797 23.462699 L 78.041958 26.553530 L 78.881119 24.244547 L 79.720280 24.334074 L 80.559441 26.885626 L 81.398601 24.048763 L 82.237762 21.183363 L 83.076923 21.413425 L 83.916084 21.817582 L 84.755245 17.709738 L 85.594406 18.062870 L 86.433566 18.750968 L 87.272727 16.929570 L 88.111888 17.486232 L 88.951049 16.264579 L 89.790210 16.107672 L 90.629371 16.329221 L 91.468531 16.470816 L 92.307692 16.134481 L 93.146853 15.654022 L 93.986014 15.252278 L 94.825175 15.420308 L 95.664336 14.793590 L 96.503497 14.794601 L 97.342657 13.626045 L 98.181818 13.595338 L 99.020979 14.736564 L 99.860140 13.722958 L 100.699301 8.800000 L 101.538462 13.171678 L 102.377622 13.204700 L 103.216783 14.022326 L 104.055944 17.529120 L 104.895105 19.652380 L 105.734266 11.390428 L 106.573427 15.608052 L 107.412587 17.587434 L 108.251748 23.070740 L 109.090909 18.897716 L 109.930070 18.251479 L 110.769231 17.620994 L 111.608392 16.439914 L 112.447552 14.006410 L 113.286713 14.959010 L 114.125874 14.904120 L 114.965035 16.010285 L 115.804196 16.516330 L 116.643357 19.254485 L 117.482517 16.034779 L 118.321678 17.842723 L 119.160839 13.742821 L 120.000000 14.218175 L 120 40 Z"></path>
    </g>
  </svg>