<svg xmlns="http://www.w3.org/2000/svg" viewBox="0 0 120 40" width="120" height="40">
    <defs>
      <linearGradient id="color_grad" x1="0%" x2="0%" y1="0%" y2="100%">
        <stop offset="0%" style="stop-color:#888888;stop-opacity:0.4;"></stop>
        <stop offset="100%" style="stop-color:#888888;stop-opacity:0.0;"></stop>
      </linearGradient>
    </defs>
    <g>
      <path stroke="#888888" stroke-width="2" stroke-linecap="round" stroke-linejoin="round" fill="none" d="M 0.000000 14.602658 L 0.839161 14.440346 L 1.678322 24.311242 L 2.517483 16.943431 L 3.356643 20.000696 L 4.195804 20.073736 L 5.034965 20.405317 L 5.874126 20.405317 L 6.713287 20.405317 L 7.552448 20.405317 L 8.391608 20.405317 L 9.230769 20.405317 L 10.069930 20.405317 L 10.909091 21.008190 L 11.748252 21.068477 L 12.587413 21.068477 L 13.426573 21.068477 L 14.265734 21.068477 L 15.104895 21.068477 L 15.944056 21.068477 L 16.783217 21.731638 L 17.622378 21.731638 L 18.461538 21.910182 L 19.300699 23.389541 L 20.139860 23.389541 L 20.979021 23.389541 L 21.818182 23.389541 L 22.657343 28.197458 L 23.496503 29.716235 L 24.335664 29.855360 L 25.174825 29.855360 L 26.013986 29.855360 L 26.853147 29.855360 L 27.692308 29.855360 L 28.531469 29.855360 L 29.370629 29.855360 L 30.209790 29.855360 L 31.048951 29.855360 L 31.888112 27.298944 L 32.727273 20.661538 L 33.566434 20.736897 L 34.405594 20.780953 L 35.244755 23.171579 L 36.083916 21.731638 L 36.923077 20.711391 L 37.762238 21.565848 L 38.601399 21.897429 L 39.440559 28.292526 L 40.279720 28.813084 L 41.118881 28.860619 L 41.958042 28.860619 L 42.797203 28.860619 L 43.636364 28.860619 L 44.475524 28.860619 L 45.314685 28.860619 L 46.153846 31.844843 L 46.993007 28.860619 L 47.832168 28.860619 L 48.671329 28.860619 L 49.510490 28.860619 L 50.349650 28.860619 L 51.188811 28.860619 L 52.027972 28.860619 L 52.867133 30.021150 L 53.706294 30.021150 L 54.545455 36.652760 L 55.384615 36.652760 L 56.223776 36.652760 L 57.062937 36.652760 L 57.902098 29.540011 L 58.741259 29.061190 L 59.580420 29.026409 L 60.419580 29.026409 L 61.258741 29.026409 L 62.097902 29.026409 L 62.937063 34.960076 L 63.776224 36.486969 L 64.615385 36.486969 L 65.454545 36.486969 L 66.293706 29.689570 L 67.132867 36.800000 L 67.972028 35.724103 L 68.811189 34.165906 L 69.650350 34.165906 L 70.489510 34.165906 L 71.328671 34.165906 L 72.167832 34.165906 L 73.006993 34.165906 L 73.846154 34.165906 L 74.685315 34.257497 L 75.524476 14.602658 L 76.363636 14.602658 L 77.202797 14.602658 L 78.041958 14.616571 L 78.881119 16.733585 L 79.720280 16.592141 L 80.559441 23.317660 L 81.398601 14.602658 L 82.237762 12.494919 L 83.076923 11.618434 L 83.916084 11.786543 L 84.755245 11.784224 L 85.594406 11.740168 L 86.433566 11.618434 L 87.272727 8.800000 L 88.111888 8.800000 L 88.951049 8.800000 L 89.790210 8.800000 L 90.629371 8.800000 L 91.468531 8.800000 L 92.307692 8.800000 L 93.146853 8.800000 L 93.986014 8.800000 L 94.825175 11.087905 L 95.664336 8.927995 L 96.503497 8.800000 L 97.342657 8.800000 L 98.181818 8.800000 L 99.020979 14.476287 L 99.860140 12.820703 L 100.699301 8.800000 L 101.538462 8.800000 L 102.377622 8.925212 L 103.216783 10.921651 L 104.055944 16.260561 L 104.895105 22.645224 L 105.734266 11.784224 L 106.573427 17.976432 L 107.412587 20.057505 L 108.251748 34.829067 L 109.090909 21.731638 L 109.930070 22.632471 L 110.769231 25.047443 L 111.608392 25.047443 L 112.447552 25.047443 L 113.286713 25.461339 L 114.125874 25.047443 L 114.965035 25.213233 L 115.804196 25.213233 L 116.643357 31.226897 L 117.482517 24.881653 L 118.321678 24.881653 L 119.160839 17.147828 L 120.000000 14.785028"></path>
      <path stroke="none" fill-opacity="0.6" fill="url(#color_grad)" d="M 0 40 L 0.000000 14.602658 L 0.839161 14.440346 L 1.678322 24.311242 L 2.517483 16.943431 L 3.356643 20.000696 L 4.195804 20.073736 L 5.034965 20.405317 L 5.874126 20.405317 L 6.713287 20.405317 L 7.552448 20.405317 L 8.391608 20.405317 L 9.230769 20.405317 L 10.069930 20.405317 L 10.909091 21.008190 L 11.748252 21.068477 L 12.587413 21.068477 L 13.426573 21.068477 L 14.265734 21.068477 L 15.104895 21.068477 L 15.944056 21.068477 L 16.783217 21.731638 L 17.622378 21.731638 L 18.461538 21.910182 L 19.300699 23.389541 L 20.139860 23.389541 L 20.979021 23.389541 L 21.818182 23.389541 L 22.657343 28.197458 L 23.496503 29.716235 L 24.335664 29.855360 L 25.174825 29.855360 L 26.013986 29.855360 L 26.853147 29.855360 L 27.692308 29.855360 L 28.531469 29.855360 L 29.370629 29.855360 L 30.209790 29.855360 L 31.048951 29.855360 L 31.888112 27.298944 L 32.727273 20.661538 L 33.566434 20.736897 L 34.405594 20.780953 L 35.244755 23.171579 L 36.083916 21.731638 L 36.923077 20.711391 L 37.762238 21.565848 L 38.601399 21.897429 L 39.440559 28.292526 L 40.279720 28.813084 L 41.118881 28.860619 L 41.958042 28.860619 L 42.797203 28.860619 L 43.636364 28.860619 L 44.475524 28.860619 L 45.314685 28.860619 L 46.153846 31.844843 L 46.993007 28.860619 L 47.832168 28.860619 L 48.671329 28.860619 L 49.510490 28.860619 L 50.349650 28.860619 L 51.188811 28.860619 L 52.027972 28.860619 L 52.867133 30.021150 L 53.706294 30.021150 L 54.545455 36.652760 L 55.384615 36.652760 L 56.223776 36.652760 L 57.062937 36.652760 L 57.902098 29.540011 L 58.741259 29.061190 L 59.580420 29.026409 L 60.419580 29.026409 L 61.258741 29.026409 L 62.097902 29.026409 L 62.937063 34.960076 L 63.776224 36.486969 L 64.615385 36.486969 L 65.454545 36.486969 L 66.293706 29.689570 L 67.132867 36.800000 L 67.972028 35.724103 L 68.811189 34.165906 L 69.650350 34.165906 L 70.489510 34.165906 L 71.328671 34.165906 L 72.167832 34.165906 L 73.006993 34.165906 L 73.846154 34.165906 L 74.685315 34.257497 L 75.524476 14.602658 L 76.363636 14.602658 L 77.202797 14.602658 L 78.041958 14.616571 L 78.881119 16.733585 L 79.720280 16.592141 L 80.559441 23.317660 L 81.398601 14.602658 L 82.237762 12.494919 L 83.076923 11.618434 L 83.916084 11.786543 L 84.755245 11.784224 L 85.594406 11.740168 L 86.433566 11.618434 L 87.272727 8.800000 L 88.111888 8.800000 L 88.951049 8.800000 L 89.790210 8.800000 L 90.629371 8.800000 L 91.468531 8.800000 L 92.307692 8.800000 L 93.146853 8.800000 L 93.986014 8.800000 L 94.825175 11.087905 L 95.664336 8.927995 L 96.503497 8.800000 L 97.342657 8.800000 L 98.181818 8.800000 L 99.020979 14.476287 L 99.860140 12.820703 L 100.699301 8.800000 L 101.538462 8.800000 L 102.377622 8.925212 L 103.216783 10.921651 L 104.055944 16.260561 L 104.895105 22.645224 L 105.734266 11.784224 L 106.573427 17.976432 L 107.412587 20.057505 L 108.251748 34.829067 L 109.090909 21.731638 L 109.930070 22.632471 L 110.769231 25.047443 L 111.608392 25.047443 L 112.447552 25.047443 L 113.286713 25.461339 L 114.125874 25.047443 L 114.965035 25.213233 L 115.804196 25.213233 L 116.643357 31.226897 L 117.482517 24.881653 L 118.321678 24.881653 L 119.160839 17.147828 L 120.000000 14.785028 L 120 40 Z"></path>
    </g>
  </svg>