<svg xmlns="http://www.w3.org/2000/svg" viewBox="0 0 120 40" width="120" height="40">
    <defs>
      <linearGradient id="color_grad" x1="0%" x2="0%" y1="0%" y2="100%">
        <stop offset="0%" style="stop-color:#EA3943;stop-opacity:0.4;"></stop>
        <stop offset="100%" style="stop-color:#EA3943;stop-opacity:0.0;"></stop>
      </linearGradient>
    </defs>
    <g>
      <path stroke="#EA3943" stroke-width="2" stroke-linecap="round" stroke-linejoin="round" fill="none" d="M 0.000000 8.800000 L 0.839161 8.800000 L 1.678322 8.800000 L 2.517483 8.800000 L 3.356643 8.800000 L 4.195804 9.643984 L 5.034965 10.006897 L 5.874126 10.006897 L 6.713287 10.006897 L 7.552448 12.426935 L 8.391608 17.248276 L 9.230769 17.248276 L 10.069930 17.248276 L 10.909091 17.248276 L 11.748252 17.248276 L 12.587413 17.248276 L 13.426573 17.248276 L 14.265734 17.731034 L 15.104895 18.213793 L 15.944056 18.137835 L 16.783217 18.213793 L 17.622378 18.635785 L 18.461538 18.213793 L 19.300699 18.213793 L 20.139860 18.213793 L 20.979021 13.627586 L 21.818182 20.627586 L 22.657343 20.627586 L 23.496503 20.627586 L 24.335664 20.627586 L 25.174825 20.627586 L 26.013986 20.708609 L 26.853147 20.868966 L 27.692308 20.868966 L 28.531469 21.780468 L 29.370629 23.181481 L 30.209790 23.524138 L 31.048951 23.692935 L 31.888112 24.489655 L 32.727273 24.731034 L 33.566434 24.731034 L 34.405594 26.326163 L 35.244755 22.075862 L 36.083916 20.627586 L 36.923077 20.627586 L 37.762238 20.627586 L 38.601399 20.627586 L 39.440559 20.627586 L 40.279720 20.627586 L 41.118881 20.627586 L 41.958042 20.627586 L 42.797203 20.627586 L 43.636364 24.489655 L 44.475524 22.075862 L 45.314685 22.317241 L 46.153846 22.558621 L 46.993007 22.800000 L 47.832168 22.800000 L 48.671329 22.772993 L 49.510490 22.558621 L 50.349650 22.558621 L 51.188811 22.558621 L 52.027972 22.558621 L 52.867133 22.362816 L 53.706294 22.546805 L 54.545455 22.163636 L 55.384615 20.627586 L 56.223776 20.627586 L 57.062937 22.075862 L 57.902098 22.075862 L 58.741259 22.075862 L 59.580420 22.524861 L 60.419580 22.558621 L 61.258741 26.903448 L 62.097902 25.384278 L 62.937063 23.503882 L 63.776224 24.489655 L 64.615385 24.489655 L 65.454545 24.489655 L 66.293706 24.489655 L 67.132867 24.489655 L 67.972028 24.731034 L 68.811189 24.731034 L 69.650350 24.877888 L 70.489510 24.972414 L 71.328671 27.332192 L 72.167832 27.386207 L 73.006993 27.386207 L 73.846154 28.723077 L 74.685315 36.800000 L 75.524476 23.282759 L 76.363636 23.282759 L 77.202797 23.282759 L 78.041958 22.075862 L 78.881119 22.075862 L 79.720280 22.075862 L 80.559441 28.303448 L 81.398601 24.775934 L 82.237762 22.075862 L 83.076923 22.075862 L 83.916084 24.472776 L 84.755245 24.489655 L 85.594406 24.489655 L 86.433566 26.903448 L 87.272727 24.489655 L 88.111888 24.489655 L 88.951049 24.489655 L 89.790210 24.489655 L 90.629371 24.489655 L 91.468531 24.972414 L 92.307692 24.972414 L 93.146853 24.972414 L 93.986014 24.972414 L 94.825175 24.778298 L 95.664336 24.731034 L 96.503497 25.696552 L 97.342657 25.696552 L 98.181818 25.696552 L 99.020979 25.696552 L 99.860140 25.937931 L 100.699301 25.937931 L 101.538462 25.937931 L 102.377622 25.953123 L 103.216783 26.179310 L 104.055944 26.903448 L 104.895105 29.317241 L 105.734266 29.317241 L 106.573427 29.317241 L 107.412587 29.317241 L 108.251748 34.144828 L 109.090909 29.734169 L 109.930070 29.359441 L 110.769231 27.460477 L 111.608392 28.110345 L 112.447552 29.317241 L 113.286713 28.351724 L 114.125874 28.371980 L 114.965035 29.317241 L 115.804196 29.317241 L 116.643357 29.423583 L 117.482517 33.420690 L 118.321678 33.420690 L 119.160839 33.420690 L 120.000000 33.420690"></path>
      <path stroke="none" fill-opacity="0.6" fill="url(#color_grad)" d="M 0 40 L 0.000000 8.800000 L 0.839161 8.800000 L 1.678322 8.800000 L 2.517483 8.800000 L 3.356643 8.800000 L 4.195804 9.643984 L 5.034965 10.006897 L 5.874126 10.006897 L 6.713287 10.006897 L 7.552448 12.426935 L 8.391608 17.248276 L 9.230769 17.248276 L 10.069930 17.248276 L 10.909091 17.248276 L 11.748252 17.248276 L 12.587413 17.248276 L 13.426573 17.248276 L 14.265734 17.731034 L 15.104895 18.213793 L 15.944056 18.137835 L 16.783217 18.213793 L 17.622378 18.635785 L 18.461538 18.213793 L 19.300699 18.213793 L 20.139860 18.213793 L 20.979021 13.627586 L 21.818182 20.627586 L 22.657343 20.627586 L 23.496503 20.627586 L 24.335664 20.627586 L 25.174825 20.627586 L 26.013986 20.708609 L 26.853147 20.868966 L 27.692308 20.868966 L 28.531469 21.780468 L 29.370629 23.181481 L 30.209790 23.524138 L 31.048951 23.692935 L 31.888112 24.489655 L 32.727273 24.731034 L 33.566434 24.731034 L 34.405594 26.326163 L 35.244755 22.075862 L 36.083916 20.627586 L 36.923077 20.627586 L 37.762238 20.627586 L 38.601399 20.627586 L 39.440559 20.627586 L 40.279720 20.627586 L 41.118881 20.627586 L 41.958042 20.627586 L 42.797203 20.627586 L 43.636364 24.489655 L 44.475524 22.075862 L 45.314685 22.317241 L 46.153846 22.558621 L 46.993007 22.800000 L 47.832168 22.800000 L 48.671329 22.772993 L 49.510490 22.558621 L 50.349650 22.558621 L 51.188811 22.558621 L 52.027972 22.558621 L 52.867133 22.362816 L 53.706294 22.546805 L 54.545455 22.163636 L 55.384615 20.627586 L 56.223776 20.627586 L 57.062937 22.075862 L 57.902098 22.075862 L 58.741259 22.075862 L 59.580420 22.524861 L 60.419580 22.558621 L 61.258741 26.903448 L 62.097902 25.384278 L 62.937063 23.503882 L 63.776224 24.489655 L 64.615385 24.489655 L 65.454545 24.489655 L 66.293706 24.489655 L 67.132867 24.489655 L 67.972028 24.731034 L 68.811189 24.731034 L 69.650350 24.877888 L 70.489510 24.972414 L 71.328671 27.332192 L 72.167832 27.386207 L 73.006993 27.386207 L 73.846154 28.723077 L 74.685315 36.800000 L 75.524476 23.282759 L 76.363636 23.282759 L 77.202797 23.282759 L 78.041958 22.075862 L 78.881119 22.075862 L 79.720280 22.075862 L 80.559441 28.303448 L 81.398601 24.775934 L 82.237762 22.075862 L 83.076923 22.075862 L 83.916084 24.472776 L 84.755245 24.489655 L 85.594406 24.489655 L 86.433566 26.903448 L 87.272727 24.489655 L 88.111888 24.489655 L 88.951049 24.489655 L 89.790210 24.489655 L 90.629371 24.489655 L 91.468531 24.972414 L 92.307692 24.972414 L 93.146853 24.972414 L 93.986014 24.972414 L 94.825175 24.778298 L 95.664336 24.731034 L 96.503497 25.696552 L 97.342657 25.696552 L 98.181818 25.696552 L 99.020979 25.696552 L 99.860140 25.937931 L 100.699301 25.937931 L 101.538462 25.937931 L 102.377622 25.953123 L 103.216783 26.179310 L 104.055944 26.903448 L 104.895105 29.317241 L 105.734266 29.317241 L 106.573427 29.317241 L 107.412587 29.317241 L 108.251748 34.144828 L 109.090909 29.734169 L 109.930070 29.359441 L 110.769231 27.460477 L 111.608392 28.110345 L 112.447552 29.317241 L 113.286713 28.351724 L 114.125874 28.371980 L 114.965035 29.317241 L 115.804196 29.317241 L 116.643357 29.423583 L 117.482517 33.420690 L 118.321678 33.420690 L 119.160839 33.420690 L 120.000000 33.420690 L 120 40 Z"></path>
    </g>
  </svg>