<svg xmlns="http://www.w3.org/2000/svg" viewBox="0 0 120 40" width="120" height="40">
    <defs>
      <linearGradient id="color_grad" x1="0%" x2="0%" y1="0%" y2="100%">
        <stop offset="0%" style="stop-color:#EA3943;stop-opacity:0.4;"></stop>
        <stop offset="100%" style="stop-color:#EA3943;stop-opacity:0.0;"></stop>
      </linearGradient>
    </defs>
    <g>
      <path stroke="#EA3943" stroke-width="2" stroke-linecap="round" stroke-linejoin="round" fill="none" d="M 0.000000 9.563600 L 0.839161 8.800000 L 1.678322 10.016122 L 2.517483 10.413446 L 3.356643 11.470697 L 4.195804 12.285271 L 5.034965 11.995011 L 5.874126 12.415770 L 6.713287 13.783862 L 7.552448 16.074662 L 8.391608 21.729395 L 9.230769 20.534508 L 10.069930 21.675388 L 10.909091 20.685051 L 11.748252 21.109201 L 12.587413 21.531745 L 13.426573 21.801842 L 14.265734 21.451923 L 15.104895 20.895074 L 15.944056 20.956219 L 16.783217 20.353868 L 17.622378 19.888737 L 18.461538 18.602430 L 19.300699 18.797702 L 20.139860 18.940988 L 20.979021 13.775713 L 21.818182 21.397975 L 22.657343 21.430808 L 23.496503 21.839076 L 24.335664 22.199761 L 25.174825 22.924045 L 26.013986 23.718039 L 26.853147 23.146558 L 27.692308 23.059361 L 28.531469 23.518247 L 29.370629 24.910428 L 30.209790 24.675424 L 31.048951 27.168931 L 31.888112 28.132680 L 32.727273 29.012801 L 33.566434 27.581899 L 34.405594 28.918348 L 35.244755 24.878547 L 36.083916 20.552650 L 36.923077 20.103994 L 37.762238 17.421044 L 38.601399 16.265711 L 39.440559 16.193146 L 40.279720 18.196184 L 41.118881 17.859291 L 41.958042 17.041980 L 42.797203 17.869700 L 43.636364 21.498495 L 44.475524 18.383901 L 45.314685 17.329267 L 46.153846 17.568673 L 46.993007 19.346104 L 47.832168 19.319041 L 48.671329 18.527426 L 49.510490 18.587262 L 50.349650 18.615634 L 51.188811 19.240944 L 52.027972 16.471035 L 52.867133 15.910260 L 53.706294 17.198412 L 54.545455 17.159096 L 55.384615 14.112785 L 56.223776 13.846613 L 57.062937 16.647273 L 57.902098 17.138159 L 58.741259 18.332333 L 59.580420 18.866638 L 60.419580 16.639005 L 61.258741 19.825570 L 62.097902 18.988631 L 62.937063 16.615154 L 63.776224 18.239544 L 64.615385 19.786016 L 65.454545 21.175283 L 66.293706 21.106524 L 67.132867 20.193749 L 67.972028 21.482614 L 68.811189 20.881929 L 69.650350 23.924493 L 70.489510 24.303141 L 71.328671 25.692824 L 72.167832 25.724229 L 73.006993 25.724229 L 73.846154 29.039448 L 74.685315 36.800000 L 75.524476 20.528203 L 76.363636 17.657060 L 77.202797 20.457066 L 78.041958 22.068430 L 78.881119 18.809895 L 79.720280 18.962282 L 80.559441 25.731188 L 81.398601 22.792892 L 82.237762 17.767395 L 83.076923 18.398950 L 83.916084 21.562852 L 84.755245 17.630115 L 85.594406 17.993417 L 86.433566 21.618585 L 87.272727 18.264823 L 88.111888 18.793538 L 88.951049 17.624584 L 89.790210 17.481357 L 90.629371 17.685134 L 91.468531 18.409418 L 92.307692 18.090131 L 93.146853 17.633625 L 93.986014 17.249326 L 94.825175 16.105532 L 95.664336 16.455749 L 96.503497 17.690904 L 97.342657 16.585831 L 98.181818 16.562931 L 99.020979 14.977262 L 99.860140 15.095508 L 100.699301 12.318045 L 101.538462 16.464254 L 102.377622 16.449979 L 103.216783 16.572448 L 104.055944 18.311990 L 104.895105 20.307415 L 105.734266 17.592643 L 106.573427 18.662802 L 107.412587 19.557198 L 108.251748 23.795422 L 109.090909 20.531177 L 109.930070 19.016884 L 110.769231 14.880905 L 111.608392 14.540384 L 112.447552 13.719862 L 113.286713 13.205838 L 114.125874 13.387013 L 114.965035 15.572594 L 115.804196 16.060209 L 116.643357 16.954069 L 117.482517 20.945691 L 118.321678 22.642647 L 119.160839 22.427509 L 120.000000 23.946560"></path>
      <path stroke="none" fill-opacity="0.6" fill="url(#color_grad)" d="M 0 40 L 0.000000 9.563600 L 0.839161 8.800000 L 1.678322 10.016122 L 2.517483 10.413446 L 3.356643 11.470697 L 4.195804 12.285271 L 5.034965 11.995011 L 5.874126 12.415770 L 6.713287 13.783862 L 7.552448 16.074662 L 8.391608 21.729395 L 9.230769 20.534508 L 10.069930 21.675388 L 10.909091 20.685051 L 11.748252 21.109201 L 12.587413 21.531745 L 13.426573 21.801842 L 14.265734 21.451923 L 15.104895 20.895074 L 15.944056 20.956219 L 16.783217 20.353868 L 17.622378 19.888737 L 18.461538 18.602430 L 19.300699 18.797702 L 20.139860 18.940988 L 20.979021 13.775713 L 21.818182 21.397975 L 22.657343 21.430808 L 23.496503 21.839076 L 24.335664 22.199761 L 25.174825 22.924045 L 26.013986 23.718039 L 26.853147 23.146558 L 27.692308 23.059361 L 28.531469 23.518247 L 29.370629 24.910428 L 30.209790 24.675424 L 31.048951 27.168931 L 31.888112 28.132680 L 32.727273 29.012801 L 33.566434 27.581899 L 34.405594 28.918348 L 35.244755 24.878547 L 36.083916 20.552650 L 36.923077 20.103994 L 37.762238 17.421044 L 38.601399 16.265711 L 39.440559 16.193146 L 40.279720 18.196184 L 41.118881 17.859291 L 41.958042 17.041980 L 42.797203 17.869700 L 43.636364 21.498495 L 44.475524 18.383901 L 45.314685 17.329267 L 46.153846 17.568673 L 46.993007 19.346104 L 47.832168 19.319041 L 48.671329 18.527426 L 49.510490 18.587262 L 50.349650 18.615634 L 51.188811 19.240944 L 52.027972 16.471035 L 52.867133 15.910260 L 53.706294 17.198412 L 54.545455 17.159096 L 55.384615 14.112785 L 56.223776 13.846613 L 57.062937 16.647273 L 57.902098 17.138159 L 58.741259 18.332333 L 59.580420 18.866638 L 60.419580 16.639005 L 61.258741 19.825570 L 62.097902 18.988631 L 62.937063 16.615154 L 63.776224 18.239544 L 64.615385 19.786016 L 65.454545 21.175283 L 66.293706 21.106524 L 67.132867 20.193749 L 67.972028 21.482614 L 68.811189 20.881929 L 69.650350 23.924493 L 70.489510 24.303141 L 71.328671 25.692824 L 72.167832 25.724229 L 73.006993 25.724229 L 73.846154 29.039448 L 74.685315 36.800000 L 75.524476 20.528203 L 76.363636 17.657060 L 77.202797 20.457066 L 78.041958 22.068430 L 78.881119 18.809895 L 79.720280 18.962282 L 80.559441 25.731188 L 81.398601 22.792892 L 82.237762 17.767395 L 83.076923 18.398950 L 83.916084 21.562852 L 84.755245 17.630115 L 85.594406 17.993417 L 86.433566 21.618585 L 87.272727 18.264823 L 88.111888 18.793538 L 88.951049 17.624584 L 89.790210 17.481357 L 90.629371 17.685134 L 91.468531 18.409418 L 92.307692 18.090131 L 93.146853 17.633625 L 93.986014 17.249326 L 94.825175 16.105532 L 95.664336 16.455749 L 96.503497 17.690904 L 97.342657 16.585831 L 98.181818 16.562931 L 99.020979 14.977262 L 99.860140 15.095508 L 100.699301 12.318045 L 101.538462 16.464254 L 102.377622 16.449979 L 103.216783 16.572448 L 104.055944 18.311990 L 104.895105 20.307415 L 105.734266 17.592643 L 106.573427 18.662802 L 107.412587 19.557198 L 108.251748 23.795422 L 109.090909 20.531177 L 109.930070 19.016884 L 110.769231 14.880905 L 111.608392 14.540384 L 112.447552 13.719862 L 113.286713 13.205838 L 114.125874 13.387013 L 114.965035 15.572594 L 115.804196 16.060209 L 116.643357 16.954069 L 117.482517 20.945691 L 118.321678 22.642647 L 119.160839 22.427509 L 120.000000 23.946560 L 120 40 Z"></path>
    </g>
  </svg>