<svg xmlns="http://www.w3.org/2000/svg" viewBox="0 0 120 40" width="120" height="40">
    <defs>
      <linearGradient id="color_grad" x1="0%" x2="0%" y1="0%" y2="100%">
        <stop offset="0%" style="stop-color:#EA3943;stop-opacity:0.4;"></stop>
        <stop offset="100%" style="stop-color:#EA3943;stop-opacity:0.0;"></stop>
      </linearGradient>
    </defs>
    <g>
      <path stroke="#EA3943" stroke-width="2" stroke-linecap="round" stroke-linejoin="round" fill="none" d="M 0.000000 14.083019 L 0.839161 15.403774 L 1.678322 26.300000 L 2.517483 21.677358 L 3.356643 22.600963 L 4.195804 23.328302 L 5.034965 23.328302 L 5.874126 26.630189 L 6.713287 26.630189 L 7.552448 26.630189 L 8.391608 28.412746 L 9.230769 28.611321 L 10.069930 28.611321 L 10.909091 29.691938 L 11.748252 29.932075 L 12.587413 29.932075 L 13.426573 30.262264 L 14.265734 30.262264 L 15.104895 8.800000 L 15.944056 8.800000 L 16.783217 8.800000 L 17.622378 8.800000 L 18.461538 8.800000 L 19.300699 8.800000 L 20.139860 8.800000 L 20.979021 8.800000 L 21.818182 8.800000 L 22.657343 8.800000 L 23.496503 8.800000 L 24.335664 14.743396 L 25.174825 14.743396 L 26.013986 15.800000 L 26.853147 15.611585 L 27.692308 15.403774 L 28.531469 15.403774 L 29.370629 15.403774 L 30.209790 16.098786 L 31.048951 20.026415 L 31.888112 20.356604 L 32.727273 20.356604 L 33.566434 25.969811 L 34.405594 20.356604 L 35.244755 20.356604 L 36.083916 20.356604 L 36.923077 20.356604 L 37.762238 20.356604 L 38.601399 22.975023 L 39.440559 22.337736 L 40.279720 22.854954 L 41.118881 23.328302 L 41.958042 23.328302 L 42.797203 18.375472 L 43.636364 23.088165 L 44.475524 24.979245 L 45.314685 24.979245 L 46.153846 19.340639 L 46.993007 20.192664 L 47.832168 21.677358 L 48.671329 22.263847 L 49.510490 22.090672 L 50.349650 21.878243 L 51.188811 21.254809 L 52.027972 20.351986 L 52.867133 20.749136 L 53.706294 21.677358 L 54.545455 22.007547 L 55.384615 17.511901 L 56.223776 26.140678 L 57.062937 25.309434 L 57.902098 25.309434 L 58.741259 25.309434 L 59.580420 25.309434 L 60.419580 21.016981 L 61.258741 24.632894 L 62.097902 28.281132 L 62.937063 24.993099 L 63.776224 29.932075 L 64.615385 24.090276 L 65.454545 18.375472 L 66.293706 18.310819 L 67.132867 17.428777 L 67.972028 18.899617 L 68.811189 22.183032 L 69.650350 22.208431 L 70.489510 30.901860 L 71.328671 25.309434 L 72.167832 25.309434 L 73.006993 25.309434 L 73.846154 26.300000 L 74.685315 24.979245 L 75.524476 26.663208 L 76.363636 24.979245 L 77.202797 25.265563 L 78.041958 28.281132 L 78.881119 28.281132 L 79.720280 28.281132 L 80.559441 28.281132 L 81.398601 28.281132 L 82.237762 28.281132 L 83.076923 28.281132 L 83.916084 28.606703 L 84.755245 28.611321 L 85.594406 28.611321 L 86.433566 28.611321 L 87.272727 28.611321 L 88.111888 28.611321 L 88.951049 28.611321 L 89.790210 28.611321 L 90.629371 28.611321 L 91.468531 28.611321 L 92.307692 28.611321 L 93.146853 28.611321 L 93.986014 28.611321 L 94.825175 28.611321 L 95.664336 28.611321 L 96.503497 28.611321 L 97.342657 35.254348 L 98.181818 32.813722 L 99.020979 26.300000 L 99.860140 26.133751 L 100.699301 25.309434 L 101.538462 25.309434 L 102.377622 25.309434 L 103.216783 25.309434 L 104.055944 25.309434 L 104.895105 25.309434 L 105.734266 25.309434 L 106.573427 25.309434 L 107.412587 21.982148 L 108.251748 25.639623 L 109.090909 26.510120 L 109.930070 35.215094 L 110.769231 35.062700 L 111.608392 35.542974 L 112.447552 28.641338 L 113.286713 25.309434 L 114.125874 25.316361 L 114.965035 28.558213 L 115.804196 28.611321 L 116.643357 33.300000 L 117.482517 36.328038 L 118.321678 33.300000 L 119.160839 31.823156 L 120.000000 36.800000"></path>
      <path stroke="none" fill-opacity="0.6" fill="url(#color_grad)" d="M 0 40 L 0.000000 14.083019 L 0.839161 15.403774 L 1.678322 26.300000 L 2.517483 21.677358 L 3.356643 22.600963 L 4.195804 23.328302 L 5.034965 23.328302 L 5.874126 26.630189 L 6.713287 26.630189 L 7.552448 26.630189 L 8.391608 28.412746 L 9.230769 28.611321 L 10.069930 28.611321 L 10.909091 29.691938 L 11.748252 29.932075 L 12.587413 29.932075 L 13.426573 30.262264 L 14.265734 30.262264 L 15.104895 8.800000 L 15.944056 8.800000 L 16.783217 8.800000 L 17.622378 8.800000 L 18.461538 8.800000 L 19.300699 8.800000 L 20.139860 8.800000 L 20.979021 8.800000 L 21.818182 8.800000 L 22.657343 8.800000 L 23.496503 8.800000 L 24.335664 14.743396 L 25.174825 14.743396 L 26.013986 15.800000 L 26.853147 15.611585 L 27.692308 15.403774 L 28.531469 15.403774 L 29.370629 15.403774 L 30.209790 16.098786 L 31.048951 20.026415 L 31.888112 20.356604 L 32.727273 20.356604 L 33.566434 25.969811 L 34.405594 20.356604 L 35.244755 20.356604 L 36.083916 20.356604 L 36.923077 20.356604 L 37.762238 20.356604 L 38.601399 22.975023 L 39.440559 22.337736 L 40.279720 22.854954 L 41.118881 23.328302 L 41.958042 23.328302 L 42.797203 18.375472 L 43.636364 23.088165 L 44.475524 24.979245 L 45.314685 24.979245 L 46.153846 19.340639 L 46.993007 20.192664 L 47.832168 21.677358 L 48.671329 22.263847 L 49.510490 22.090672 L 50.349650 21.878243 L 51.188811 21.254809 L 52.027972 20.351986 L 52.867133 20.749136 L 53.706294 21.677358 L 54.545455 22.007547 L 55.384615 17.511901 L 56.223776 26.140678 L 57.062937 25.309434 L 57.902098 25.309434 L 58.741259 25.309434 L 59.580420 25.309434 L 60.419580 21.016981 L 61.258741 24.632894 L 62.097902 28.281132 L 62.937063 24.993099 L 63.776224 29.932075 L 64.615385 24.090276 L 65.454545 18.375472 L 66.293706 18.310819 L 67.132867 17.428777 L 67.972028 18.899617 L 68.811189 22.183032 L 69.650350 22.208431 L 70.489510 30.901860 L 71.328671 25.309434 L 72.167832 25.309434 L 73.006993 25.309434 L 73.846154 26.300000 L 74.685315 24.979245 L 75.524476 26.663208 L 76.363636 24.979245 L 77.202797 25.265563 L 78.041958 28.281132 L 78.881119 28.281132 L 79.720280 28.281132 L 80.559441 28.281132 L 81.398601 28.281132 L 82.237762 28.281132 L 83.076923 28.281132 L 83.916084 28.606703 L 84.755245 28.611321 L 85.594406 28.611321 L 86.433566 28.611321 L 87.272727 28.611321 L 88.111888 28.611321 L 88.951049 28.611321 L 89.790210 28.611321 L 90.629371 28.611321 L 91.468531 28.611321 L 92.307692 28.611321 L 93.146853 28.611321 L 93.986014 28.611321 L 94.825175 28.611321 L 95.664336 28.611321 L 96.503497 28.611321 L 97.342657 35.254348 L 98.181818 32.813722 L 99.020979 26.300000 L 99.860140 26.133751 L 100.699301 25.309434 L 101.538462 25.309434 L 102.377622 25.309434 L 103.216783 25.309434 L 104.055944 25.309434 L 104.895105 25.309434 L 105.734266 25.309434 L 106.573427 25.309434 L 107.412587 21.982148 L 108.251748 25.639623 L 109.090909 26.510120 L 109.930070 35.215094 L 110.769231 35.062700 L 111.608392 35.542974 L 112.447552 28.641338 L 113.286713 25.309434 L 114.125874 25.316361 L 114.965035 28.558213 L 115.804196 28.611321 L 116.643357 33.300000 L 117.482517 36.328038 L 118.321678 33.300000 L 119.160839 31.823156 L 120.000000 36.800000 L 120 40 Z"></path>
    </g>
  </svg>