<svg xmlns="http://www.w3.org/2000/svg" viewBox="0 0 120 40" width="120" height="40">
    <defs>
      <linearGradient id="color_grad" x1="0%" x2="0%" y1="0%" y2="100%">
        <stop offset="0%" style="stop-color:#16C784;stop-opacity:0.4;"></stop>
        <stop offset="100%" style="stop-color:#16C784;stop-opacity:0.0;"></stop>
      </linearGradient>
    </defs>
    <g>
      <path stroke="#16C784" stroke-width="2" stroke-linecap="round" stroke-linejoin="round" fill="none" d="M 0.000000 19.864294 L 0.839161 20.236708 L 1.678322 31.131196 L 2.517483 27.442070 L 3.356643 29.321513 L 4.195804 29.813930 L 5.034965 29.108076 L 5.874126 32.436374 L 6.713287 33.779329 L 7.552448 33.346599 L 8.391608 35.111454 L 9.230769 34.061267 L 10.069930 35.236116 L 10.909091 35.167615 L 11.748252 35.814915 L 12.587413 36.241412 L 13.426573 36.800000 L 14.265734 35.893301 L 15.104895 15.787896 L 15.944056 15.957953 L 16.783217 15.177428 L 17.622378 14.107031 L 18.461538 13.201087 L 19.300699 13.423717 L 20.139860 13.581182 L 20.979021 13.730525 L 21.818182 13.203417 L 22.657343 13.241823 L 23.496503 13.704963 L 24.335664 19.420798 L 25.174825 20.240485 L 26.013986 21.947605 L 26.853147 20.939728 L 27.692308 20.659364 L 28.531469 19.995001 L 29.370629 19.745928 L 30.209790 19.650857 L 31.048951 25.724373 L 31.888112 26.074750 L 32.727273 26.757623 L 33.566434 30.140823 L 34.405594 24.596996 L 35.244755 25.538198 L 36.083916 22.628023 L 36.923077 22.145617 L 37.762238 19.216364 L 38.601399 20.384288 L 39.440559 19.711299 L 40.279720 22.344510 L 41.118881 22.408793 L 41.958042 21.532063 L 42.797203 17.897461 L 43.636364 21.174698 L 44.475524 22.642629 L 45.314685 21.209893 L 46.153846 15.920806 L 46.993007 18.350905 L 47.832168 19.692726 L 48.671329 19.392781 L 49.510490 19.584874 L 50.349650 19.409591 L 51.188811 19.531735 L 52.027972 15.653034 L 52.867133 15.661785 L 53.706294 17.697057 L 54.545455 18.463857 L 55.384615 12.960073 L 56.223776 20.729943 L 57.062937 21.078179 L 57.902098 21.612653 L 58.741259 22.890758 L 59.580420 22.885029 L 60.419580 16.458429 L 61.258741 17.559361 L 62.097902 22.080767 L 62.937063 18.895453 L 63.776224 23.984765 L 64.615385 20.220275 L 65.454545 16.488839 L 66.293706 16.353221 L 67.132867 14.507776 L 67.972028 16.991959 L 68.811189 19.345308 L 69.650350 22.552910 L 70.489510 30.718614 L 71.328671 24.141160 L 72.167832 24.104895 L 73.006993 24.104895 L 73.846154 26.942350 L 74.685315 23.750110 L 75.524476 24.943155 L 76.363636 20.303005 L 77.202797 23.602152 L 78.041958 29.580597 L 78.881119 26.123733 L 79.720280 26.292720 L 80.559441 25.620991 L 81.398601 26.978741 L 82.237762 25.027900 L 83.076923 25.704036 L 83.916084 26.334463 L 84.755245 22.097137 L 85.594406 22.485101 L 86.433566 23.255931 L 87.272727 22.776484 L 88.111888 23.343887 L 88.951049 22.093107 L 89.790210 21.934383 L 90.629371 22.157831 L 91.468531 22.304215 L 92.307692 21.962778 L 93.146853 21.469292 L 93.986014 21.055198 L 94.825175 20.073891 L 95.664336 20.523809 L 96.503497 20.578018 L 97.342657 25.696355 L 98.181818 23.343698 L 99.020979 14.949447 L 99.860140 15.061391 L 100.699301 11.211777 L 101.538462 15.771211 L 102.377622 15.744012 L 103.216783 15.571751 L 104.055944 16.507349 L 104.895105 15.418253 L 105.734266 12.362009 L 106.573427 13.565190 L 107.412587 11.382716 L 108.251748 12.861036 L 109.090909 16.238380 L 109.930070 23.441036 L 110.769231 21.398335 L 111.608392 20.642805 L 112.447552 11.299985 L 113.286713 8.800000 L 114.125874 8.981264 L 114.965035 13.266630 L 115.804196 13.859972 L 116.643357 19.272525 L 117.482517 21.078557 L 118.321678 20.004571 L 119.160839 17.649962 L 120.000000 14.723354"></path>
      <path stroke="none" fill-opacity="0.6" fill="url(#color_grad)" d="M 0 40 L 0.000000 19.864294 L 0.839161 20.236708 L 1.678322 31.131196 L 2.517483 27.442070 L 3.356643 29.321513 L 4.195804 29.813930 L 5.034965 29.108076 L 5.874126 32.436374 L 6.713287 33.779329 L 7.552448 33.346599 L 8.391608 35.111454 L 9.230769 34.061267 L 10.069930 35.236116 L 10.909091 35.167615 L 11.748252 35.814915 L 12.587413 36.241412 L 13.426573 36.800000 L 14.265734 35.893301 L 15.104895 15.787896 L 15.944056 15.957953 L 16.783217 15.177428 L 17.622378 14.107031 L 18.461538 13.201087 L 19.300699 13.423717 L 20.139860 13.581182 L 20.979021 13.730525 L 21.818182 13.203417 L 22.657343 13.241823 L 23.496503 13.704963 L 24.335664 19.420798 L 25.174825 20.240485 L 26.013986 21.947605 L 26.853147 20.939728 L 27.692308 20.659364 L 28.531469 19.995001 L 29.370629 19.745928 L 30.209790 19.650857 L 31.048951 25.724373 L 31.888112 26.074750 L 32.727273 26.757623 L 33.566434 30.140823 L 34.405594 24.596996 L 35.244755 25.538198 L 36.083916 22.628023 L 36.923077 22.145617 L 37.762238 19.216364 L 38.601399 20.384288 L 39.440559 19.711299 L 40.279720 22.344510 L 41.118881 22.408793 L 41.958042 21.532063 L 42.797203 17.897461 L 43.636364 21.174698 L 44.475524 22.642629 L 45.314685 21.209893 L 46.153846 15.920806 L 46.993007 18.350905 L 47.832168 19.692726 L 48.671329 19.392781 L 49.510490 19.584874 L 50.349650 19.409591 L 51.188811 19.531735 L 52.027972 15.653034 L 52.867133 15.661785 L 53.706294 17.697057 L 54.545455 18.463857 L 55.384615 12.960073 L 56.223776 20.729943 L 57.062937 21.078179 L 57.902098 21.612653 L 58.741259 22.890758 L 59.580420 22.885029 L 60.419580 16.458429 L 61.258741 17.559361 L 62.097902 22.080767 L 62.937063 18.895453 L 63.776224 23.984765 L 64.615385 20.220275 L 65.454545 16.488839 L 66.293706 16.353221 L 67.132867 14.507776 L 67.972028 16.991959 L 68.811189 19.345308 L 69.650350 22.552910 L 70.489510 30.718614 L 71.328671 24.141160 L 72.167832 24.104895 L 73.006993 24.104895 L 73.846154 26.942350 L 74.685315 23.750110 L 75.524476 24.943155 L 76.363636 20.303005 L 77.202797 23.602152 L 78.041958 29.580597 L 78.881119 26.123733 L 79.720280 26.292720 L 80.559441 25.620991 L 81.398601 26.978741 L 82.237762 25.027900 L 83.076923 25.704036 L 83.916084 26.334463 L 84.755245 22.097137 L 85.594406 22.485101 L 86.433566 23.255931 L 87.272727 22.776484 L 88.111888 23.343887 L 88.951049 22.093107 L 89.790210 21.934383 L 90.629371 22.157831 L 91.468531 22.304215 L 92.307692 21.962778 L 93.146853 21.469292 L 93.986014 21.055198 L 94.825175 20.073891 L 95.664336 20.523809 L 96.503497 20.578018 L 97.342657 25.696355 L 98.181818 23.343698 L 99.020979 14.949447 L 99.860140 15.061391 L 100.699301 11.211777 L 101.538462 15.771211 L 102.377622 15.744012 L 103.216783 15.571751 L 104.055944 16.507349 L 104.895105 15.418253 L 105.734266 12.362009 L 106.573427 13.565190 L 107.412587 11.382716 L 108.251748 12.861036 L 109.090909 16.238380 L 109.930070 23.441036 L 110.769231 21.398335 L 111.608392 20.642805 L 112.447552 11.299985 L 113.286713 8.800000 L 114.125874 8.981264 L 114.965035 13.266630 L 115.804196 13.859972 L 116.643357 19.272525 L 117.482517 21.078557 L 118.321678 20.004571 L 119.160839 17.649962 L 120.000000 14.723354 L 120 40 Z"></path>
    </g>
  </svg>