<svg xmlns="http://www.w3.org/2000/svg" viewBox="0 0 120 40" width="120" height="40">
    <defs>
      <linearGradient id="color_grad" x1="0%" x2="0%" y1="0%" y2="100%">
        <stop offset="0%" style="stop-color:#EA3943;stop-opacity:0.4;"></stop>
        <stop offset="100%" style="stop-color:#EA3943;stop-opacity:0.0;"></stop>
      </linearGradient>
    </defs>
    <g>
      <path stroke="#EA3943" stroke-width="2" stroke-linecap="round" stroke-linejoin="round" fill="none" d="M 0.000000 18.339860 L 0.839161 18.153267 L 1.678322 18.446371 L 2.517483 18.544989 L 3.356643 18.803972 L 4.195804 18.768501 L 5.034965 18.597944 L 5.874126 18.702706 L 6.713287 19.035228 L 7.552448 18.926169 L 8.391608 18.982672 L 9.230769 18.671782 L 10.069930 18.967035 L 10.909091 18.711999 L 11.748252 18.818410 L 12.587413 18.929716 L 13.426573 18.996510 L 14.265734 18.766903 L 15.104895 18.478544 L 15.944056 18.519710 L 16.783217 18.340760 L 17.622378 18.089470 L 18.461538 17.883742 L 19.300699 17.934200 L 20.139860 17.968871 L 20.979021 18.004541 L 21.818182 17.883293 L 22.657343 17.891386 L 23.496503 18.002243 L 24.335664 18.095815 L 25.174825 18.285506 L 26.013986 18.473349 L 26.853147 18.271568 L 27.692308 18.251934 L 28.531469 18.088771 L 29.370629 18.033067 L 30.209790 17.867206 L 31.048951 18.481791 L 31.888112 18.495030 L 32.727273 18.660692 L 33.566434 18.275564 L 34.405594 18.138379 L 35.244755 18.365639 L 36.083916 17.658881 L 36.923077 17.543577 L 37.762238 16.835620 L 38.601399 16.529876 L 39.440559 16.509293 L 40.279720 17.037451 L 41.118881 16.947127 L 41.958042 16.732956 L 42.797203 16.953471 L 43.636364 16.701932 L 44.475524 16.632440 L 45.314685 16.277887 L 46.153846 16.260402 L 46.993007 16.662115 L 47.832168 16.653673 L 48.671329 16.450942 L 49.510490 16.532224 L 50.349650 16.542116 L 51.188811 16.708527 L 52.027972 15.968396 L 52.867133 15.880120 L 53.706294 16.164232 L 54.545455 16.277837 L 55.384615 15.959254 L 56.223776 15.888663 L 57.062937 16.168829 L 57.902098 16.302117 L 58.741259 16.618502 L 59.580420 16.617153 L 60.419580 16.011061 L 61.258741 15.452978 L 62.097902 15.724751 L 62.937063 15.698672 L 63.776224 15.817473 L 64.615385 16.237321 L 65.454545 16.609709 L 66.293706 16.591724 L 67.132867 16.349128 L 67.972028 16.620500 L 68.811189 16.455638 L 69.650350 17.233737 L 70.489510 17.307375 L 71.328671 16.926994 L 72.167832 16.918201 L 73.006993 16.918201 L 73.846154 17.403445 L 74.685315 16.907460 L 75.524476 16.821232 L 76.363636 16.050528 L 77.202797 16.804696 L 78.041958 17.616466 L 78.881119 17.103945 L 79.720280 17.103945 L 80.559441 10.659293 L 81.398601 11.045569 L 82.237762 10.492333 L 83.076923 10.681474 L 83.916084 10.781790 L 84.755245 9.578298 L 85.594406 9.692802 L 86.433566 9.901627 L 87.272727 9.770287 L 88.111888 9.931602 L 88.951049 9.575051 L 89.790210 9.529139 L 90.629371 9.593336 L 91.468531 9.638448 L 92.307692 9.537332 L 93.146853 9.400597 L 93.986014 9.288241 L 94.825175 9.007127 L 95.664336 9.128775 L 96.503497 9.144761 L 97.342657 8.807194 L 98.181818 8.800000 L 99.020979 12.031394 L 99.860140 12.286980 L 100.699301 13.163695 L 101.538462 18.309636 L 102.377622 17.343245 L 103.216783 20.203749 L 104.055944 24.622199 L 104.895105 25.191872 L 105.734266 27.817223 L 106.573427 29.151606 L 107.412587 31.131298 L 108.251748 18.250036 L 109.090909 31.171814 L 109.930070 30.021127 L 110.769231 29.398799 L 111.608392 32.221684 L 112.447552 36.258404 L 113.286713 36.277088 L 114.125874 36.370460 L 114.965035 35.259690 L 115.804196 35.262438 L 116.643357 35.602403 L 117.482517 35.694226 L 118.321678 36.079054 L 119.160839 36.520284 L 120.000000 36.800000"></path>
      <path stroke="none" fill-opacity="0.6" fill="url(#color_grad)" d="M 0 40 L 0.000000 18.339860 L 0.839161 18.153267 L 1.678322 18.446371 L 2.517483 18.544989 L 3.356643 18.803972 L 4.195804 18.768501 L 5.034965 18.597944 L 5.874126 18.702706 L 6.713287 19.035228 L 7.552448 18.926169 L 8.391608 18.982672 L 9.230769 18.671782 L 10.069930 18.967035 L 10.909091 18.711999 L 11.748252 18.818410 L 12.587413 18.929716 L 13.426573 18.996510 L 14.265734 18.766903 L 15.104895 18.478544 L 15.944056 18.519710 L 16.783217 18.340760 L 17.622378 18.089470 L 18.461538 17.883742 L 19.300699 17.934200 L 20.139860 17.968871 L 20.979021 18.004541 L 21.818182 17.883293 L 22.657343 17.891386 L 23.496503 18.002243 L 24.335664 18.095815 L 25.174825 18.285506 L 26.013986 18.473349 L 26.853147 18.271568 L 27.692308 18.251934 L 28.531469 18.088771 L 29.370629 18.033067 L 30.209790 17.867206 L 31.048951 18.481791 L 31.888112 18.495030 L 32.727273 18.660692 L 33.566434 18.275564 L 34.405594 18.138379 L 35.244755 18.365639 L 36.083916 17.658881 L 36.923077 17.543577 L 37.762238 16.835620 L 38.601399 16.529876 L 39.440559 16.509293 L 40.279720 17.037451 L 41.118881 16.947127 L 41.958042 16.732956 L 42.797203 16.953471 L 43.636364 16.701932 L 44.475524 16.632440 L 45.314685 16.277887 L 46.153846 16.260402 L 46.993007 16.662115 L 47.832168 16.653673 L 48.671329 16.450942 L 49.510490 16.532224 L 50.349650 16.542116 L 51.188811 16.708527 L 52.027972 15.968396 L 52.867133 15.880120 L 53.706294 16.164232 L 54.545455 16.277837 L 55.384615 15.959254 L 56.223776 15.888663 L 57.062937 16.168829 L 57.902098 16.302117 L 58.741259 16.618502 L 59.580420 16.617153 L 60.419580 16.011061 L 61.258741 15.452978 L 62.097902 15.724751 L 62.937063 15.698672 L 63.776224 15.817473 L 64.615385 16.237321 L 65.454545 16.609709 L 66.293706 16.591724 L 67.132867 16.349128 L 67.972028 16.620500 L 68.811189 16.455638 L 69.650350 17.233737 L 70.489510 17.307375 L 71.328671 16.926994 L 72.167832 16.918201 L 73.006993 16.918201 L 73.846154 17.403445 L 74.685315 16.907460 L 75.524476 16.821232 L 76.363636 16.050528 L 77.202797 16.804696 L 78.041958 17.616466 L 78.881119 17.103945 L 79.720280 17.103945 L 80.559441 10.659293 L 81.398601 11.045569 L 82.237762 10.492333 L 83.076923 10.681474 L 83.916084 10.781790 L 84.755245 9.578298 L 85.594406 9.692802 L 86.433566 9.901627 L 87.272727 9.770287 L 88.111888 9.931602 L 88.951049 9.575051 L 89.790210 9.529139 L 90.629371 9.593336 L 91.468531 9.638448 L 92.307692 9.537332 L 93.146853 9.400597 L 93.986014 9.288241 L 94.825175 9.007127 L 95.664336 9.128775 L 96.503497 9.144761 L 97.342657 8.807194 L 98.181818 8.800000 L 99.020979 12.031394 L 99.860140 12.286980 L 100.699301 13.163695 L 101.538462 18.309636 L 102.377622 17.343245 L 103.216783 20.203749 L 104.055944 24.622199 L 104.895105 25.191872 L 105.734266 27.817223 L 106.573427 29.151606 L 107.412587 31.131298 L 108.251748 18.250036 L 109.090909 31.171814 L 109.930070 30.021127 L 110.769231 29.398799 L 111.608392 32.221684 L 112.447552 36.258404 L 113.286713 36.277088 L 114.125874 36.370460 L 114.965035 35.259690 L 115.804196 35.262438 L 116.643357 35.602403 L 117.482517 35.694226 L 118.321678 36.079054 L 119.160839 36.520284 L 120.000000 36.800000 L 120 40 Z"></path>
    </g>
  </svg>