<svg xmlns="http://www.w3.org/2000/svg" viewBox="0 0 120 40" width="120" height="40">
    <defs>
      <linearGradient id="color_grad" x1="0%" x2="0%" y1="0%" y2="100%">
        <stop offset="0%" style="stop-color:#EA3943;stop-opacity:0.4;"></stop>
        <stop offset="100%" style="stop-color:#EA3943;stop-opacity:0.0;"></stop>
      </linearGradient>
    </defs>
    <g>
      <path stroke="#EA3943" stroke-width="2" stroke-linecap="round" stroke-linejoin="round" fill="none" d="M 0.000000 31.411458 L 0.839161 31.247841 L 1.678322 32.843098 L 2.517483 32.923724 L 3.356643 33.141629 L 4.195804 33.112293 L 5.034965 32.966248 L 5.874126 33.054236 L 6.713287 33.072422 L 7.552448 32.980223 L 8.391608 33.023920 L 9.230769 32.762299 L 10.069930 33.012904 L 10.909091 32.797229 L 11.748252 32.889216 L 12.587413 32.979858 L 13.426573 33.040010 L 14.265734 32.843521 L 15.104895 32.602738 L 15.944056 32.635669 L 16.783217 31.410593 L 17.622378 31.197801 L 18.461538 31.017075 L 19.300699 31.060771 L 20.139860 31.091972 L 20.979021 31.121846 L 21.818182 31.017344 L 22.657343 31.024457 L 23.496503 31.118174 L 24.335664 31.201953 L 25.174825 31.814434 L 26.013986 31.974206 L 26.853147 31.800458 L 27.692308 31.781522 L 28.531469 31.645608 L 29.370629 31.595663 L 30.209790 31.452482 L 31.048951 31.981838 L 31.888112 31.852421 L 32.727273 31.691111 L 33.566434 32.444197 L 34.405594 26.748684 L 35.244755 26.968877 L 36.083916 26.290496 L 36.923077 26.174940 L 37.762238 24.947787 L 38.601399 23.343341 L 39.440559 23.323694 L 40.279720 23.853376 L 41.118881 23.764177 L 41.958042 23.546944 L 42.797203 23.766926 L 43.636364 23.514686 L 44.475524 23.447459 L 45.314685 23.089736 L 46.153846 23.075068 L 46.993007 23.473027 L 47.832168 23.469298 L 48.671329 23.262331 L 49.510490 23.348974 L 50.349650 23.355010 L 51.188811 23.522241 L 52.027972 22.782900 L 52.867133 22.695007 L 53.706294 22.979102 L 54.545455 22.345340 L 55.384615 22.020913 L 56.223776 21.950034 L 57.062937 22.234474 L 57.902098 22.369370 L 58.741259 22.692316 L 59.580420 23.812756 L 60.419580 23.297395 L 61.258741 20.089619 L 62.097902 19.801488 L 62.937063 19.774228 L 63.776224 19.898820 L 64.615385 21.182242 L 65.454545 21.570857 L 66.293706 21.553825 L 67.132867 21.297413 L 67.972028 22.822848 L 68.811189 20.173667 L 69.650350 20.662863 L 70.489510 20.740144 L 71.328671 23.361489 L 72.167832 23.733360 L 73.006993 23.733360 L 73.846154 21.481677 L 74.685315 20.955781 L 75.524476 20.869446 L 76.363636 23.123571 L 77.202797 20.147349 L 78.041958 20.982311 L 78.881119 20.038637 L 79.720280 20.038637 L 80.559441 13.311614 L 81.398601 14.891646 L 82.237762 15.220167 L 83.076923 16.294219 L 83.916084 19.629682 L 84.755245 10.944182 L 85.594406 10.136807 L 86.433566 10.380416 L 87.272727 10.229775 L 88.111888 10.409002 L 88.951049 10.011620 L 89.790210 9.963348 L 90.629371 10.034131 L 91.468531 10.078827 L 92.307692 9.969711 L 93.146853 9.814207 L 93.986014 9.684637 L 94.825175 8.800000 L 95.664336 18.085831 L 96.503497 10.001258 L 97.342657 9.157088 L 98.181818 11.547570 L 99.020979 18.976388 L 99.860140 23.820868 L 100.699301 26.292034 L 101.538462 28.408226 L 102.377622 31.540144 L 103.216783 31.393272 L 104.055944 33.257416 L 104.895105 31.957596 L 105.734266 31.338444 L 106.573427 32.109467 L 107.412587 34.076710 L 108.251748 36.800000 L 109.090909 32.796479 L 109.930070 32.474168 L 110.769231 32.187113 L 111.608392 30.677154 L 112.447552 32.006617 L 113.286713 31.664178 L 114.125874 31.998159 L 114.965035 32.429798 L 115.804196 33.268105 L 116.643357 34.295942 L 117.482517 33.218507 L 118.321678 33.501101 L 119.160839 33.971477 L 120.000000 33.880105"></path>
      <path stroke="none" fill-opacity="0.6" fill="url(#color_grad)" d="M 0 40 L 0.000000 31.411458 L 0.839161 31.247841 L 1.678322 32.843098 L 2.517483 32.923724 L 3.356643 33.141629 L 4.195804 33.112293 L 5.034965 32.966248 L 5.874126 33.054236 L 6.713287 33.072422 L 7.552448 32.980223 L 8.391608 33.023920 L 9.230769 32.762299 L 10.069930 33.012904 L 10.909091 32.797229 L 11.748252 32.889216 L 12.587413 32.979858 L 13.426573 33.040010 L 14.265734 32.843521 L 15.104895 32.602738 L 15.944056 32.635669 L 16.783217 31.410593 L 17.622378 31.197801 L 18.461538 31.017075 L 19.300699 31.060771 L 20.139860 31.091972 L 20.979021 31.121846 L 21.818182 31.017344 L 22.657343 31.024457 L 23.496503 31.118174 L 24.335664 31.201953 L 25.174825 31.814434 L 26.013986 31.974206 L 26.853147 31.800458 L 27.692308 31.781522 L 28.531469 31.645608 L 29.370629 31.595663 L 30.209790 31.452482 L 31.048951 31.981838 L 31.888112 31.852421 L 32.727273 31.691111 L 33.566434 32.444197 L 34.405594 26.748684 L 35.244755 26.968877 L 36.083916 26.290496 L 36.923077 26.174940 L 37.762238 24.947787 L 38.601399 23.343341 L 39.440559 23.323694 L 40.279720 23.853376 L 41.118881 23.764177 L 41.958042 23.546944 L 42.797203 23.766926 L 43.636364 23.514686 L 44.475524 23.447459 L 45.314685 23.089736 L 46.153846 23.075068 L 46.993007 23.473027 L 47.832168 23.469298 L 48.671329 23.262331 L 49.510490 23.348974 L 50.349650 23.355010 L 51.188811 23.522241 L 52.027972 22.782900 L 52.867133 22.695007 L 53.706294 22.979102 L 54.545455 22.345340 L 55.384615 22.020913 L 56.223776 21.950034 L 57.062937 22.234474 L 57.902098 22.369370 L 58.741259 22.692316 L 59.580420 23.812756 L 60.419580 23.297395 L 61.258741 20.089619 L 62.097902 19.801488 L 62.937063 19.774228 L 63.776224 19.898820 L 64.615385 21.182242 L 65.454545 21.570857 L 66.293706 21.553825 L 67.132867 21.297413 L 67.972028 22.822848 L 68.811189 20.173667 L 69.650350 20.662863 L 70.489510 20.740144 L 71.328671 23.361489 L 72.167832 23.733360 L 73.006993 23.733360 L 73.846154 21.481677 L 74.685315 20.955781 L 75.524476 20.869446 L 76.363636 23.123571 L 77.202797 20.147349 L 78.041958 20.982311 L 78.881119 20.038637 L 79.720280 20.038637 L 80.559441 13.311614 L 81.398601 14.891646 L 82.237762 15.220167 L 83.076923 16.294219 L 83.916084 19.629682 L 84.755245 10.944182 L 85.594406 10.136807 L 86.433566 10.380416 L 87.272727 10.229775 L 88.111888 10.409002 L 88.951049 10.011620 L 89.790210 9.963348 L 90.629371 10.034131 L 91.468531 10.078827 L 92.307692 9.969711 L 93.146853 9.814207 L 93.986014 9.684637 L 94.825175 8.800000 L 95.664336 18.085831 L 96.503497 10.001258 L 97.342657 9.157088 L 98.181818 11.547570 L 99.020979 18.976388 L 99.860140 23.820868 L 100.699301 26.292034 L 101.538462 28.408226 L 102.377622 31.540144 L 103.216783 31.393272 L 104.055944 33.257416 L 104.895105 31.957596 L 105.734266 31.338444 L 106.573427 32.109467 L 107.412587 34.076710 L 108.251748 36.800000 L 109.090909 32.796479 L 109.930070 32.474168 L 110.769231 32.187113 L 111.608392 30.677154 L 112.447552 32.006617 L 113.286713 31.664178 L 114.125874 31.998159 L 114.965035 32.429798 L 115.804196 33.268105 L 116.643357 34.295942 L 117.482517 33.218507 L 118.321678 33.501101 L 119.160839 33.971477 L 120.000000 33.880105 L 120 40 Z"></path>
    </g>
  </svg>