<svg xmlns="http://www.w3.org/2000/svg" viewBox="0 0 120 40" width="120" height="40">
    <defs>
      <linearGradient id="color_grad" x1="0%" x2="0%" y1="0%" y2="100%">
        <stop offset="0%" style="stop-color:#EA3943;stop-opacity:0.4;"></stop>
        <stop offset="100%" style="stop-color:#EA3943;stop-opacity:0.0;"></stop>
      </linearGradient>
    </defs>
    <g>
      <path stroke="#EA3943" stroke-width="2" stroke-linecap="round" stroke-linejoin="round" fill="none" d="M 0.000000 26.901254 L 0.839161 26.901254 L 1.678322 28.493635 L 2.517483 28.493635 L 3.356643 28.493635 L 4.195804 28.493635 L 5.034965 28.493635 L 5.874126 28.493635 L 6.713287 28.175159 L 7.552448 28.175159 L 8.391608 28.175159 L 9.230769 28.175159 L 10.069930 28.175159 L 10.909091 28.175159 L 11.748252 28.175159 L 12.587413 28.175159 L 13.426573 28.175159 L 14.265734 28.175159 L 15.104895 28.175159 L 15.944056 28.175159 L 16.783217 26.901254 L 17.622378 26.901254 L 18.461538 26.901254 L 19.300699 26.901254 L 20.139860 26.901254 L 20.979021 26.901254 L 21.818182 26.901254 L 22.657343 26.901254 L 23.496503 26.901254 L 24.335664 26.901254 L 25.174825 27.432048 L 26.013986 27.432048 L 26.853147 27.432048 L 27.692308 27.432048 L 28.531469 27.432048 L 29.370629 27.432048 L 30.209790 27.432048 L 31.048951 27.432048 L 31.888112 27.265015 L 32.727273 26.901254 L 33.566434 28.192976 L 34.405594 21.593317 L 35.244755 21.593317 L 36.083916 21.593317 L 36.923077 21.593317 L 37.762238 20.969727 L 38.601399 19.470142 L 39.440559 19.470142 L 40.279720 19.470142 L 41.118881 19.470142 L 41.958042 19.470142 L 42.797203 19.470142 L 43.636364 19.470142 L 44.475524 19.470142 L 45.314685 19.470142 L 46.153846 19.470142 L 46.993007 19.470142 L 47.832168 19.470142 L 48.671329 19.470142 L 49.510490 19.470142 L 50.349650 19.470142 L 51.188811 19.470142 L 52.027972 19.470142 L 52.867133 19.470142 L 53.706294 19.470142 L 54.545455 18.620872 L 55.384615 18.620872 L 56.223776 18.620872 L 57.062937 18.620872 L 57.902098 18.620872 L 58.741259 18.620872 L 59.580420 19.904427 L 60.419580 20.000935 L 61.258741 17.037399 L 62.097902 16.391538 L 62.937063 16.391538 L 63.776224 16.391538 L 64.615385 17.346967 L 65.454545 17.346967 L 66.293706 17.346967 L 67.132867 17.346967 L 67.972028 18.772315 L 68.811189 15.937208 L 69.650350 15.542268 L 70.489510 15.542268 L 71.328671 19.030659 L 72.167832 19.470142 L 73.006993 19.470142 L 73.846154 16.285379 L 74.685315 16.285379 L 75.524476 16.285379 L 76.363636 19.759666 L 77.202797 15.478424 L 78.041958 15.436109 L 78.881119 15.436109 L 79.720280 15.436109 L 80.559441 11.656858 L 81.398601 12.931654 L 82.237762 13.907423 L 83.076923 14.859586 L 83.916084 18.361340 L 84.755245 10.389931 L 85.594406 9.406293 L 86.433566 9.406293 L 87.272727 9.406293 L 88.111888 9.406293 L 88.951049 9.406293 L 89.790210 9.406293 L 90.629371 9.406293 L 91.468531 9.406293 L 92.307692 9.406293 L 93.146853 9.406293 L 93.986014 9.406293 L 94.825175 8.800000 L 95.664336 18.408554 L 96.503497 9.595151 L 97.342657 9.406293 L 98.181818 10.633874 L 99.020979 17.407099 L 99.860140 22.239177 L 100.699301 25.692380 L 101.538462 27.081724 L 102.377622 30.385933 L 103.216783 30.260621 L 104.055944 32.124561 L 104.895105 30.919919 L 105.734266 30.903438 L 106.573427 31.911947 L 107.412587 33.659780 L 108.251748 36.800000 L 109.090909 31.911947 L 109.930070 32.028721 L 110.769231 31.911947 L 111.608392 30.549700 L 112.447552 32.523955 L 113.286713 31.996874 L 114.125874 32.317577 L 114.965035 33.160166 L 115.804196 33.345015 L 116.643357 34.281885 L 117.482517 33.359863 L 118.321678 33.270779 L 119.160839 33.825996 L 120.000000 33.376937"></path>
      <path stroke="none" fill-opacity="0.6" fill="url(#color_grad)" d="M 0 40 L 0.000000 26.901254 L 0.839161 26.901254 L 1.678322 28.493635 L 2.517483 28.493635 L 3.356643 28.493635 L 4.195804 28.493635 L 5.034965 28.493635 L 5.874126 28.493635 L 6.713287 28.175159 L 7.552448 28.175159 L 8.391608 28.175159 L 9.230769 28.175159 L 10.069930 28.175159 L 10.909091 28.175159 L 11.748252 28.175159 L 12.587413 28.175159 L 13.426573 28.175159 L 14.265734 28.175159 L 15.104895 28.175159 L 15.944056 28.175159 L 16.783217 26.901254 L 17.622378 26.901254 L 18.461538 26.901254 L 19.300699 26.901254 L 20.139860 26.901254 L 20.979021 26.901254 L 21.818182 26.901254 L 22.657343 26.901254 L 23.496503 26.901254 L 24.335664 26.901254 L 25.174825 27.432048 L 26.013986 27.432048 L 26.853147 27.432048 L 27.692308 27.432048 L 28.531469 27.432048 L 29.370629 27.432048 L 30.209790 27.432048 L 31.048951 27.432048 L 31.888112 27.265015 L 32.727273 26.901254 L 33.566434 28.192976 L 34.405594 21.593317 L 35.244755 21.593317 L 36.083916 21.593317 L 36.923077 21.593317 L 37.762238 20.969727 L 38.601399 19.470142 L 39.440559 19.470142 L 40.279720 19.470142 L 41.118881 19.470142 L 41.958042 19.470142 L 42.797203 19.470142 L 43.636364 19.470142 L 44.475524 19.470142 L 45.314685 19.470142 L 46.153846 19.470142 L 46.993007 19.470142 L 47.832168 19.470142 L 48.671329 19.470142 L 49.510490 19.470142 L 50.349650 19.470142 L 51.188811 19.470142 L 52.027972 19.470142 L 52.867133 19.470142 L 53.706294 19.470142 L 54.545455 18.620872 L 55.384615 18.620872 L 56.223776 18.620872 L 57.062937 18.620872 L 57.902098 18.620872 L 58.741259 18.620872 L 59.580420 19.904427 L 60.419580 20.000935 L 61.258741 17.037399 L 62.097902 16.391538 L 62.937063 16.391538 L 63.776224 16.391538 L 64.615385 17.346967 L 65.454545 17.346967 L 66.293706 17.346967 L 67.132867 17.346967 L 67.972028 18.772315 L 68.811189 15.937208 L 69.650350 15.542268 L 70.489510 15.542268 L 71.328671 19.030659 L 72.167832 19.470142 L 73.006993 19.470142 L 73.846154 16.285379 L 74.685315 16.285379 L 75.524476 16.285379 L 76.363636 19.759666 L 77.202797 15.478424 L 78.041958 15.436109 L 78.881119 15.436109 L 79.720280 15.436109 L 80.559441 11.656858 L 81.398601 12.931654 L 82.237762 13.907423 L 83.076923 14.859586 L 83.916084 18.361340 L 84.755245 10.389931 L 85.594406 9.406293 L 86.433566 9.406293 L 87.272727 9.406293 L 88.111888 9.406293 L 88.951049 9.406293 L 89.790210 9.406293 L 90.629371 9.406293 L 91.468531 9.406293 L 92.307692 9.406293 L 93.146853 9.406293 L 93.986014 9.406293 L 94.825175 8.800000 L 95.664336 18.408554 L 96.503497 9.595151 L 97.342657 9.406293 L 98.181818 10.633874 L 99.020979 17.407099 L 99.860140 22.239177 L 100.699301 25.692380 L 101.538462 27.081724 L 102.377622 30.385933 L 103.216783 30.260621 L 104.055944 32.124561 L 104.895105 30.919919 L 105.734266 30.903438 L 106.573427 31.911947 L 107.412587 33.659780 L 108.251748 36.800000 L 109.090909 31.911947 L 109.930070 32.028721 L 110.769231 31.911947 L 111.608392 30.549700 L 112.447552 32.523955 L 113.286713 31.996874 L 114.125874 32.317577 L 114.965035 33.160166 L 115.804196 33.345015 L 116.643357 34.281885 L 117.482517 33.359863 L 118.321678 33.270779 L 119.160839 33.825996 L 120.000000 33.376937 L 120 40 Z"></path>
    </g>
  </svg>