<svg xmlns="http://www.w3.org/2000/svg" viewBox="0 0 120 40" width="120" height="40">
    <defs>
      <linearGradient id="color_grad" x1="0%" x2="0%" y1="0%" y2="100%">
        <stop offset="0%" style="stop-color:#EA3943;stop-opacity:0.4;"></stop>
        <stop offset="100%" style="stop-color:#EA3943;stop-opacity:0.0;"></stop>
      </linearGradient>
    </defs>
    <g>
      <path stroke="#EA3943" stroke-width="2" stroke-linecap="round" stroke-linejoin="round" fill="none" d="M 0.000000 16.211765 L 0.839161 16.211765 L 1.678322 16.211765 L 2.517483 16.211765 L 3.356643 8.800000 L 4.195804 9.375895 L 5.034965 8.800000 L 5.874126 10.009379 L 6.713287 10.760921 L 7.552448 10.326121 L 8.391608 9.292390 L 9.230769 9.211765 L 10.069930 9.623529 L 10.909091 9.623529 L 11.748252 10.035294 L 12.587413 10.035294 L 13.426573 9.525627 L 14.265734 9.879803 L 15.104895 10.447059 L 15.944056 9.493953 L 16.783217 10.447059 L 17.622378 10.858824 L 18.461538 11.238914 L 19.300699 10.858824 L 20.139860 11.005677 L 20.979021 11.270588 L 21.818182 8.800000 L 22.657343 8.800000 L 23.496503 9.554422 L 24.335664 9.992102 L 25.174825 16.211765 L 26.013986 16.211765 L 26.853147 20.430193 L 27.692308 18.270588 L 28.531469 18.270588 L 29.370629 18.270588 L 30.209790 18.270588 L 31.048951 18.270588 L 31.888112 18.270588 L 32.727273 18.270588 L 33.566434 18.270588 L 34.405594 18.270588 L 35.244755 18.270588 L 36.083916 16.623529 L 36.923077 17.035294 L 37.762238 20.329412 L 38.601399 20.329412 L 39.440559 17.271411 L 40.279720 17.447059 L 41.118881 17.447059 L 41.958042 17.447059 L 42.797203 17.447059 L 43.636364 19.356150 L 44.475524 24.447059 L 45.314685 24.447059 L 46.153846 24.447059 L 46.993007 24.447059 L 47.832168 24.447059 L 48.671329 29.201070 L 49.510490 24.550720 L 50.349650 24.858824 L 51.188811 24.858824 L 52.027972 24.858824 L 52.867133 24.858824 L 53.706294 17.447059 L 54.545455 17.447059 L 55.384615 17.447059 L 56.223776 17.447059 L 57.062937 17.489099 L 57.902098 17.447059 L 58.741259 17.447059 L 59.580420 17.447059 L 60.419580 18.826327 L 61.258741 24.447059 L 62.097902 18.270588 L 62.937063 20.741176 L 63.776224 15.057096 L 64.615385 13.164706 L 65.454545 13.164706 L 66.293706 13.164706 L 67.132867 16.623529 L 67.972028 16.758865 L 68.811189 17.806993 L 69.650350 16.623529 L 70.489510 16.623529 L 71.328671 16.623529 L 72.167832 16.623529 L 73.006993 16.623529 L 73.846154 17.447059 L 74.685315 17.631345 L 75.524476 17.035294 L 76.363636 20.329412 L 77.202797 20.329412 L 78.041958 20.306376 L 78.881119 17.216701 L 79.720280 18.270588 L 80.559441 19.445413 L 81.398601 20.150884 L 82.237762 20.329412 L 83.076923 20.329412 L 83.916084 20.329412 L 84.755245 20.741176 L 85.594406 20.741176 L 86.433566 20.741176 L 87.272727 20.741176 L 88.111888 20.741176 L 88.951049 20.741176 L 89.790210 20.741176 L 90.629371 20.741176 L 91.468531 20.741176 L 92.307692 20.741176 L 93.146853 21.820979 L 93.986014 22.800000 L 94.825175 22.800000 L 95.664336 24.035294 L 96.503497 24.035294 L 97.342657 24.035294 L 98.181818 24.035294 L 99.020979 24.035294 L 99.860140 24.035294 L 100.699301 24.035294 L 101.538462 24.035294 L 102.377622 26.258824 L 103.216783 26.711765 L 104.055944 28.441176 L 104.895105 28.441176 L 105.734266 28.564706 L 106.573427 28.894118 L 107.412587 28.894118 L 108.251748 36.800000 L 109.090909 30.623529 L 109.930070 30.623529 L 110.769231 31.076471 L 111.608392 31.076471 L 112.447552 31.076471 L 113.286713 31.076471 L 114.125874 32.682353 L 114.965035 32.682353 L 115.804196 33.094118 L 116.643357 33.094118 L 117.482517 33.094118 L 118.321678 32.682353 L 119.160839 36.800000 L 120.000000 36.800000"></path>
      <path stroke="none" fill-opacity="0.6" fill="url(#color_grad)" d="M 0 40 L 0.000000 16.211765 L 0.839161 16.211765 L 1.678322 16.211765 L 2.517483 16.211765 L 3.356643 8.800000 L 4.195804 9.375895 L 5.034965 8.800000 L 5.874126 10.009379 L 6.713287 10.760921 L 7.552448 10.326121 L 8.391608 9.292390 L 9.230769 9.211765 L 10.069930 9.623529 L 10.909091 9.623529 L 11.748252 10.035294 L 12.587413 10.035294 L 13.426573 9.525627 L 14.265734 9.879803 L 15.104895 10.447059 L 15.944056 9.493953 L 16.783217 10.447059 L 17.622378 10.858824 L 18.461538 11.238914 L 19.300699 10.858824 L 20.139860 11.005677 L 20.979021 11.270588 L 21.818182 8.800000 L 22.657343 8.800000 L 23.496503 9.554422 L 24.335664 9.992102 L 25.174825 16.211765 L 26.013986 16.211765 L 26.853147 20.430193 L 27.692308 18.270588 L 28.531469 18.270588 L 29.370629 18.270588 L 30.209790 18.270588 L 31.048951 18.270588 L 31.888112 18.270588 L 32.727273 18.270588 L 33.566434 18.270588 L 34.405594 18.270588 L 35.244755 18.270588 L 36.083916 16.623529 L 36.923077 17.035294 L 37.762238 20.329412 L 38.601399 20.329412 L 39.440559 17.271411 L 40.279720 17.447059 L 41.118881 17.447059 L 41.958042 17.447059 L 42.797203 17.447059 L 43.636364 19.356150 L 44.475524 24.447059 L 45.314685 24.447059 L 46.153846 24.447059 L 46.993007 24.447059 L 47.832168 24.447059 L 48.671329 29.201070 L 49.510490 24.550720 L 50.349650 24.858824 L 51.188811 24.858824 L 52.027972 24.858824 L 52.867133 24.858824 L 53.706294 17.447059 L 54.545455 17.447059 L 55.384615 17.447059 L 56.223776 17.447059 L 57.062937 17.489099 L 57.902098 17.447059 L 58.741259 17.447059 L 59.580420 17.447059 L 60.419580 18.826327 L 61.258741 24.447059 L 62.097902 18.270588 L 62.937063 20.741176 L 63.776224 15.057096 L 64.615385 13.164706 L 65.454545 13.164706 L 66.293706 13.164706 L 67.132867 16.623529 L 67.972028 16.758865 L 68.811189 17.806993 L 69.650350 16.623529 L 70.489510 16.623529 L 71.328671 16.623529 L 72.167832 16.623529 L 73.006993 16.623529 L 73.846154 17.447059 L 74.685315 17.631345 L 75.524476 17.035294 L 76.363636 20.329412 L 77.202797 20.329412 L 78.041958 20.306376 L 78.881119 17.216701 L 79.720280 18.270588 L 80.559441 19.445413 L 81.398601 20.150884 L 82.237762 20.329412 L 83.076923 20.329412 L 83.916084 20.329412 L 84.755245 20.741176 L 85.594406 20.741176 L 86.433566 20.741176 L 87.272727 20.741176 L 88.111888 20.741176 L 88.951049 20.741176 L 89.790210 20.741176 L 90.629371 20.741176 L 91.468531 20.741176 L 92.307692 20.741176 L 93.146853 21.820979 L 93.986014 22.800000 L 94.825175 22.800000 L 95.664336 24.035294 L 96.503497 24.035294 L 97.342657 24.035294 L 98.181818 24.035294 L 99.020979 24.035294 L 99.860140 24.035294 L 100.699301 24.035294 L 101.538462 24.035294 L 102.377622 26.258824 L 103.216783 26.711765 L 104.055944 28.441176 L 104.895105 28.441176 L 105.734266 28.564706 L 106.573427 28.894118 L 107.412587 28.894118 L 108.251748 36.800000 L 109.090909 30.623529 L 109.930070 30.623529 L 110.769231 31.076471 L 111.608392 31.076471 L 112.447552 31.076471 L 113.286713 31.076471 L 114.125874 32.682353 L 114.965035 32.682353 L 115.804196 33.094118 L 116.643357 33.094118 L 117.482517 33.094118 L 118.321678 32.682353 L 119.160839 36.800000 L 120.000000 36.800000 L 120 40 Z"></path>
    </g>
  </svg>