<svg xmlns="http://www.w3.org/2000/svg" viewBox="0 0 120 40" width="120" height="40">
    <defs>
      <linearGradient id="color_grad" x1="0%" x2="0%" y1="0%" y2="100%">
        <stop offset="0%" style="stop-color:#EA3943;stop-opacity:0.4;"></stop>
        <stop offset="100%" style="stop-color:#EA3943;stop-opacity:0.0;"></stop>
      </linearGradient>
    </defs>
    <g>
      <path stroke="#EA3943" stroke-width="2" stroke-linecap="round" stroke-linejoin="round" fill="none" d="M 0.000000 20.757683 L 0.839161 20.074918 L 1.678322 21.158720 L 2.517483 21.508676 L 3.356643 12.454495 L 4.195804 13.093183 L 5.034965 11.650489 L 5.874126 13.671613 L 6.713287 15.985695 L 7.552448 14.984975 L 8.391608 13.785246 L 9.230769 12.484805 L 10.069930 14.166841 L 10.909091 13.195706 L 11.748252 14.158629 L 12.587413 14.585025 L 13.426573 14.170705 L 14.265734 13.767495 L 15.104895 13.434082 L 15.944056 12.279275 L 16.783217 12.903955 L 17.622378 12.537214 L 18.461538 12.265629 L 19.300699 11.937289 L 20.139860 12.276135 L 20.979021 12.764238 L 21.818182 8.908441 L 22.657343 8.932713 L 23.496503 10.388569 L 24.335664 11.354874 L 25.174825 20.574493 L 26.013986 21.241680 L 26.853147 26.276920 L 27.692308 23.253627 L 28.531469 22.692344 L 29.370629 22.478241 L 30.209790 21.884595 L 31.048951 24.082509 L 31.888112 24.123687 L 32.727273 24.716850 L 33.566434 23.337674 L 34.405594 22.848243 L 35.244755 23.666981 L 36.083916 18.867219 L 36.923077 19.021548 L 37.762238 21.103775 L 38.601399 20.040140 L 39.440559 15.628856 L 40.279720 17.784504 L 41.118881 17.464254 L 41.958042 16.684279 L 42.797203 17.468722 L 43.636364 19.264754 L 44.475524 26.214488 L 45.314685 25.016208 L 46.153846 24.956554 L 46.993007 26.309163 L 47.832168 26.283079 L 48.671329 32.355145 L 49.510490 26.024899 L 50.349650 26.495492 L 51.188811 27.056171 L 52.027972 24.555638 L 52.867133 24.268234 L 53.706294 14.648423 L 54.545455 15.059120 L 55.384615 13.894170 L 56.223776 13.645650 L 57.062937 14.717738 L 57.902098 15.131092 L 58.741259 16.258729 L 59.580420 16.264284 L 60.419580 16.069139 L 61.258741 22.212936 L 62.097902 14.260307 L 62.937063 17.717242 L 63.776224 9.962294 L 64.615385 8.800000 L 65.454545 10.183160 L 66.293706 10.129423 L 67.132867 14.137134 L 67.972028 15.286387 L 68.811189 16.200524 L 69.650350 17.325624 L 70.489510 17.592620 L 71.328671 16.214411 L 72.167832 16.181565 L 73.006993 16.181565 L 73.846154 19.085308 L 74.685315 17.567140 L 75.524476 16.425737 L 76.363636 18.369938 L 77.202797 21.004029 L 78.041958 23.810200 L 78.881119 16.408710 L 79.720280 18.029280 L 80.559441 19.098470 L 81.398601 21.299161 L 82.237762 19.827123 L 83.076923 20.425599 L 83.916084 20.706844 L 84.755245 17.557721 L 85.594406 17.905141 L 86.433566 18.575830 L 87.272727 18.154868 L 88.111888 18.656014 L 88.951049 17.556151 L 89.790210 17.406049 L 90.629371 17.619428 L 91.468531 17.735718 L 92.307692 17.440827 L 93.146853 18.562305 L 93.986014 19.623284 L 94.825175 18.779307 L 95.664336 20.953190 L 96.503497 21.003304 L 97.342657 19.976259 L 98.181818 19.964908 L 99.020979 18.486832 L 99.860140 18.316322 L 100.699301 15.744300 L 101.538462 19.586090 L 102.377622 22.817933 L 103.216783 23.313643 L 104.055944 26.641005 L 104.895105 25.762009 L 105.734266 23.458794 L 106.573427 24.901488 L 107.412587 25.715758 L 108.251748 35.867266 L 109.090909 28.705843 L 109.930070 27.764174 L 110.769231 26.844120 L 111.608392 25.811761 L 112.447552 23.720960 L 113.286713 24.369671 L 114.125874 26.970312 L 114.965035 27.825639 L 115.804196 28.872127 L 116.643357 29.536295 L 117.482517 28.611411 L 118.321678 29.518423 L 119.160839 35.481083 L 120.000000 36.800000"></path>
      <path stroke="none" fill-opacity="0.6" fill="url(#color_grad)" d="M 0 40 L 0.000000 20.757683 L 0.839161 20.074918 L 1.678322 21.158720 L 2.517483 21.508676 L 3.356643 12.454495 L 4.195804 13.093183 L 5.034965 11.650489 L 5.874126 13.671613 L 6.713287 15.985695 L 7.552448 14.984975 L 8.391608 13.785246 L 9.230769 12.484805 L 10.069930 14.166841 L 10.909091 13.195706 L 11.748252 14.158629 L 12.587413 14.585025 L 13.426573 14.170705 L 14.265734 13.767495 L 15.104895 13.434082 L 15.944056 12.279275 L 16.783217 12.903955 L 17.622378 12.537214 L 18.461538 12.265629 L 19.300699 11.937289 L 20.139860 12.276135 L 20.979021 12.764238 L 21.818182 8.908441 L 22.657343 8.932713 L 23.496503 10.388569 L 24.335664 11.354874 L 25.174825 20.574493 L 26.013986 21.241680 L 26.853147 26.276920 L 27.692308 23.253627 L 28.531469 22.692344 L 29.370629 22.478241 L 30.209790 21.884595 L 31.048951 24.082509 L 31.888112 24.123687 L 32.727273 24.716850 L 33.566434 23.337674 L 34.405594 22.848243 L 35.244755 23.666981 L 36.083916 18.867219 L 36.923077 19.021548 L 37.762238 21.103775 L 38.601399 20.040140 L 39.440559 15.628856 L 40.279720 17.784504 L 41.118881 17.464254 L 41.958042 16.684279 L 42.797203 17.468722 L 43.636364 19.264754 L 44.475524 26.214488 L 45.314685 25.016208 L 46.153846 24.956554 L 46.993007 26.309163 L 47.832168 26.283079 L 48.671329 32.355145 L 49.510490 26.024899 L 50.349650 26.495492 L 51.188811 27.056171 L 52.027972 24.555638 L 52.867133 24.268234 L 53.706294 14.648423 L 54.545455 15.059120 L 55.384615 13.894170 L 56.223776 13.645650 L 57.062937 14.717738 L 57.902098 15.131092 L 58.741259 16.258729 L 59.580420 16.264284 L 60.419580 16.069139 L 61.258741 22.212936 L 62.097902 14.260307 L 62.937063 17.717242 L 63.776224 9.962294 L 64.615385 8.800000 L 65.454545 10.183160 L 66.293706 10.129423 L 67.132867 14.137134 L 67.972028 15.286387 L 68.811189 16.200524 L 69.650350 17.325624 L 70.489510 17.592620 L 71.328671 16.214411 L 72.167832 16.181565 L 73.006993 16.181565 L 73.846154 19.085308 L 74.685315 17.567140 L 75.524476 16.425737 L 76.363636 18.369938 L 77.202797 21.004029 L 78.041958 23.810200 L 78.881119 16.408710 L 79.720280 18.029280 L 80.559441 19.098470 L 81.398601 21.299161 L 82.237762 19.827123 L 83.076923 20.425599 L 83.916084 20.706844 L 84.755245 17.557721 L 85.594406 17.905141 L 86.433566 18.575830 L 87.272727 18.154868 L 88.111888 18.656014 L 88.951049 17.556151 L 89.790210 17.406049 L 90.629371 17.619428 L 91.468531 17.735718 L 92.307692 17.440827 L 93.146853 18.562305 L 93.986014 19.623284 L 94.825175 18.779307 L 95.664336 20.953190 L 96.503497 21.003304 L 97.342657 19.976259 L 98.181818 19.964908 L 99.020979 18.486832 L 99.860140 18.316322 L 100.699301 15.744300 L 101.538462 19.586090 L 102.377622 22.817933 L 103.216783 23.313643 L 104.055944 26.641005 L 104.895105 25.762009 L 105.734266 23.458794 L 106.573427 24.901488 L 107.412587 25.715758 L 108.251748 35.867266 L 109.090909 28.705843 L 109.930070 27.764174 L 110.769231 26.844120 L 111.608392 25.811761 L 112.447552 23.720960 L 113.286713 24.369671 L 114.125874 26.970312 L 114.965035 27.825639 L 115.804196 28.872127 L 116.643357 29.536295 L 117.482517 28.611411 L 118.321678 29.518423 L 119.160839 35.481083 L 120.000000 36.800000 L 120 40 Z"></path>
    </g>
  </svg>