<svg xmlns="http://www.w3.org/2000/svg" viewBox="0 0 120 40" width="120" height="40">
    <defs>
      <linearGradient id="color_grad" x1="0%" x2="0%" y1="0%" y2="100%">
        <stop offset="0%" style="stop-color:#16C784;stop-opacity:0.4;"></stop>
        <stop offset="100%" style="stop-color:#16C784;stop-opacity:0.0;"></stop>
      </linearGradient>
    </defs>
    <g>
      <path stroke="#16C784" stroke-width="2" stroke-linecap="round" stroke-linejoin="round" fill="none" d="M 0.000000 29.988877 L 0.839161 29.307165 L 1.678322 30.385400 L 2.517483 30.731680 L 3.356643 31.679882 L 4.195804 31.554416 L 5.034965 31.481763 L 5.874126 31.963643 L 6.713287 35.129692 L 7.552448 34.756720 L 8.391608 34.940137 L 9.230769 33.835638 L 10.069930 34.003069 L 10.909091 32.646068 L 11.748252 33.712742 L 12.587413 34.092708 L 13.426573 33.694329 L 14.265734 32.857319 L 15.104895 31.823761 L 15.944056 32.836908 L 16.783217 31.306625 L 17.622378 31.752249 L 18.461538 31.017297 L 19.300699 30.909958 L 20.139860 31.317044 L 20.979021 31.449932 L 21.818182 31.007591 L 22.657343 30.376693 L 23.496503 30.772788 L 24.335664 31.111646 L 25.174825 31.793072 L 26.013986 33.340484 L 26.853147 31.071965 L 27.692308 31.007876 L 28.531469 30.429078 L 29.370629 31.555272 L 30.209790 29.622471 L 31.048951 31.825188 L 31.888112 31.886708 L 32.727273 32.486488 L 33.566434 32.806077 L 34.405594 29.255351 L 35.244755 30.090505 L 36.083916 29.523697 L 36.923077 27.110871 L 37.762238 24.719598 L 38.601399 24.792394 L 39.440559 27.197084 L 40.279720 27.314414 L 41.118881 27.001963 L 41.958042 26.214768 L 42.797203 27.693381 L 43.636364 27.491265 L 44.475524 28.499987 L 45.314685 28.043943 L 46.153846 27.302424 L 46.993007 28.716234 L 47.832168 34.077720 L 48.671329 29.352555 L 49.510490 31.523442 L 50.349650 26.908755 L 51.188811 27.517671 L 52.027972 24.865190 L 52.867133 24.572008 L 53.706294 25.586440 L 54.545455 25.982678 L 55.384615 24.840497 L 56.223776 24.603268 L 57.062937 25.582586 L 57.902098 26.048765 L 58.741259 27.181668 L 59.580420 28.508694 L 60.419580 26.481972 L 61.258741 23.898432 L 62.097902 30.328591 L 62.937063 24.263696 L 63.776224 24.086703 L 64.615385 26.523651 L 65.454545 33.288099 L 66.293706 31.688874 L 67.132867 25.532343 L 67.972028 26.733332 L 68.811189 30.066097 L 69.650350 32.769108 L 70.489510 28.957459 L 71.328671 27.594178 L 72.167832 27.559921 L 73.006993 27.559921 L 73.846154 36.071470 L 74.685315 34.371330 L 75.524476 34.766712 L 76.363636 31.940948 L 77.202797 34.388030 L 78.041958 36.800000 L 78.881119 33.809375 L 79.720280 33.948686 L 80.559441 33.378024 L 81.398601 34.941850 L 82.237762 34.259567 L 83.076923 34.840507 L 83.916084 35.112992 L 84.755245 31.465205 L 85.594406 31.797497 L 86.433566 32.455372 L 87.272727 32.048571 L 88.111888 32.547437 L 88.951049 31.461066 L 89.790210 31.330604 L 90.629371 31.511167 L 91.468531 31.642199 L 92.307692 31.345449 L 93.146853 30.932511 L 93.986014 30.580379 L 94.825175 29.752790 L 95.664336 30.123620 L 96.503497 30.185711 L 97.342657 29.156006 L 98.181818 29.838575 L 99.020979 30.519430 L 99.860140 8.800000 L 100.699301 9.351678 L 101.538462 14.479362 L 102.377622 27.952448 L 103.216783 27.151979 L 104.055944 27.936319 L 104.895105 27.024372 L 105.734266 19.023394 L 106.573427 15.056733 L 107.412587 20.128606 L 108.251748 24.576148 L 109.090909 17.259593 L 109.930070 19.981301 L 110.769231 20.423786 L 111.608392 22.965075 L 112.447552 20.698840 L 113.286713 21.381123 L 114.125874 21.534708 L 114.965035 28.331129 L 115.804196 28.803018 L 116.643357 29.510565 L 117.482517 22.844034 L 118.321678 26.516657 L 119.160839 21.427370 L 120.000000 29.233655"></path>
      <path stroke="none" fill-opacity="0.6" fill="url(#color_grad)" d="M 0 40 L 0.000000 29.988877 L 0.839161 29.307165 L 1.678322 30.385400 L 2.517483 30.731680 L 3.356643 31.679882 L 4.195804 31.554416 L 5.034965 31.481763 L 5.874126 31.963643 L 6.713287 35.129692 L 7.552448 34.756720 L 8.391608 34.940137 L 9.230769 33.835638 L 10.069930 34.003069 L 10.909091 32.646068 L 11.748252 33.712742 L 12.587413 34.092708 L 13.426573 33.694329 L 14.265734 32.857319 L 15.104895 31.823761 L 15.944056 32.836908 L 16.783217 31.306625 L 17.622378 31.752249 L 18.461538 31.017297 L 19.300699 30.909958 L 20.139860 31.317044 L 20.979021 31.449932 L 21.818182 31.007591 L 22.657343 30.376693 L 23.496503 30.772788 L 24.335664 31.111646 L 25.174825 31.793072 L 26.013986 33.340484 L 26.853147 31.071965 L 27.692308 31.007876 L 28.531469 30.429078 L 29.370629 31.555272 L 30.209790 29.622471 L 31.048951 31.825188 L 31.888112 31.886708 L 32.727273 32.486488 L 33.566434 32.806077 L 34.405594 29.255351 L 35.244755 30.090505 L 36.083916 29.523697 L 36.923077 27.110871 L 37.762238 24.719598 L 38.601399 24.792394 L 39.440559 27.197084 L 40.279720 27.314414 L 41.118881 27.001963 L 41.958042 26.214768 L 42.797203 27.693381 L 43.636364 27.491265 L 44.475524 28.499987 L 45.314685 28.043943 L 46.153846 27.302424 L 46.993007 28.716234 L 47.832168 34.077720 L 48.671329 29.352555 L 49.510490 31.523442 L 50.349650 26.908755 L 51.188811 27.517671 L 52.027972 24.865190 L 52.867133 24.572008 L 53.706294 25.586440 L 54.545455 25.982678 L 55.384615 24.840497 L 56.223776 24.603268 L 57.062937 25.582586 L 57.902098 26.048765 L 58.741259 27.181668 L 59.580420 28.508694 L 60.419580 26.481972 L 61.258741 23.898432 L 62.097902 30.328591 L 62.937063 24.263696 L 63.776224 24.086703 L 64.615385 26.523651 L 65.454545 33.288099 L 66.293706 31.688874 L 67.132867 25.532343 L 67.972028 26.733332 L 68.811189 30.066097 L 69.650350 32.769108 L 70.489510 28.957459 L 71.328671 27.594178 L 72.167832 27.559921 L 73.006993 27.559921 L 73.846154 36.071470 L 74.685315 34.371330 L 75.524476 34.766712 L 76.363636 31.940948 L 77.202797 34.388030 L 78.041958 36.800000 L 78.881119 33.809375 L 79.720280 33.948686 L 80.559441 33.378024 L 81.398601 34.941850 L 82.237762 34.259567 L 83.076923 34.840507 L 83.916084 35.112992 L 84.755245 31.465205 L 85.594406 31.797497 L 86.433566 32.455372 L 87.272727 32.048571 L 88.111888 32.547437 L 88.951049 31.461066 L 89.790210 31.330604 L 90.629371 31.511167 L 91.468531 31.642199 L 92.307692 31.345449 L 93.146853 30.932511 L 93.986014 30.580379 L 94.825175 29.752790 L 95.664336 30.123620 L 96.503497 30.185711 L 97.342657 29.156006 L 98.181818 29.838575 L 99.020979 30.519430 L 99.860140 8.800000 L 100.699301 9.351678 L 101.538462 14.479362 L 102.377622 27.952448 L 103.216783 27.151979 L 104.055944 27.936319 L 104.895105 27.024372 L 105.734266 19.023394 L 106.573427 15.056733 L 107.412587 20.128606 L 108.251748 24.576148 L 109.090909 17.259593 L 109.930070 19.981301 L 110.769231 20.423786 L 111.608392 22.965075 L 112.447552 20.698840 L 113.286713 21.381123 L 114.125874 21.534708 L 114.965035 28.331129 L 115.804196 28.803018 L 116.643357 29.510565 L 117.482517 22.844034 L 118.321678 26.516657 L 119.160839 21.427370 L 120.000000 29.233655 L 120 40 Z"></path>
    </g>
  </svg>