<svg xmlns="http://www.w3.org/2000/svg" viewBox="0 0 120 40" width="120" height="40">
    <defs>
      <linearGradient id="color_grad" x1="0%" x2="0%" y1="0%" y2="100%">
        <stop offset="0%" style="stop-color:#EA3943;stop-opacity:0.4;"></stop>
        <stop offset="100%" style="stop-color:#EA3943;stop-opacity:0.0;"></stop>
      </linearGradient>
    </defs>
    <g>
      <path stroke="#EA3943" stroke-width="2" stroke-linecap="round" stroke-linejoin="round" fill="none" d="M 0.000000 17.550000 L 0.839161 17.550000 L 1.678322 17.550000 L 2.517483 17.550000 L 3.356643 17.550000 L 4.195804 17.550000 L 5.034965 18.284266 L 5.874126 18.425000 L 6.713287 21.050000 L 7.552448 21.050000 L 8.391608 21.050000 L 9.230769 21.050000 L 10.069930 19.862937 L 10.909091 19.300000 L 11.748252 20.175000 L 12.587413 20.175000 L 13.426573 19.300000 L 14.265734 19.300000 L 15.104895 19.300000 L 15.944056 20.450350 L 16.783217 19.300000 L 17.622378 21.050000 L 18.461538 21.050000 L 19.300699 20.670629 L 20.139860 21.050000 L 20.979021 21.050000 L 21.818182 21.050000 L 22.657343 20.175000 L 23.496503 20.175000 L 24.335664 20.175000 L 25.174825 20.175000 L 26.013986 21.337587 L 26.853147 19.300000 L 27.692308 19.300000 L 28.531469 19.300000 L 29.370629 21.050000 L 30.209790 19.300000 L 31.048951 19.300000 L 31.888112 19.300000 L 32.727273 19.300000 L 33.566434 21.570105 L 34.405594 17.550000 L 35.244755 17.550000 L 36.083916 20.138287 L 36.923077 17.550000 L 37.762238 17.806993 L 38.601399 19.300000 L 39.440559 22.414510 L 40.279720 20.175000 L 41.118881 20.175000 L 41.958042 20.175000 L 42.797203 21.050000 L 43.636364 21.925000 L 44.475524 23.522028 L 45.314685 24.550000 L 46.153846 23.675000 L 46.993007 23.675000 L 47.832168 30.528147 L 48.671329 25.425000 L 49.510490 27.817483 L 50.349650 21.925000 L 51.188811 21.925000 L 52.027972 21.925000 L 52.867133 21.925000 L 53.706294 21.925000 L 54.545455 21.925000 L 55.384615 21.925000 L 56.223776 21.925000 L 57.062937 21.925000 L 57.902098 21.925000 L 58.741259 21.925000 L 59.580420 23.613811 L 60.419580 23.736189 L 61.258741 22.983566 L 62.097902 29.800000 L 62.937063 22.353322 L 63.776224 21.600699 L 64.615385 22.800000 L 65.454545 29.720455 L 66.293706 27.750175 L 67.132867 21.050000 L 67.972028 21.337587 L 68.811189 26.300000 L 69.650350 26.300000 L 70.489510 21.050000 L 71.328671 21.050000 L 72.167832 21.050000 L 73.006993 21.050000 L 73.846154 29.800000 L 74.685315 29.800000 L 75.524476 30.675000 L 76.363636 30.436364 L 77.202797 30.265035 L 78.041958 29.800000 L 78.881119 29.800000 L 79.720280 29.800000 L 80.559441 29.800000 L 81.398601 30.295629 L 82.237762 31.550000 L 83.076923 31.550000 L 83.916084 31.550000 L 84.755245 31.550000 L 85.594406 31.550000 L 86.433566 31.550000 L 87.272727 31.550000 L 88.111888 31.550000 L 88.951049 31.550000 L 89.790210 31.550000 L 90.629371 31.550000 L 91.468531 31.550000 L 92.307692 31.550000 L 93.146853 31.550000 L 93.986014 31.550000 L 94.825175 31.550000 L 95.664336 31.550000 L 96.503497 31.550000 L 97.342657 31.550000 L 98.181818 32.425000 L 99.020979 35.050000 L 99.860140 8.800000 L 100.699301 12.911888 L 101.538462 14.050000 L 102.377622 30.619930 L 103.216783 29.800000 L 104.055944 29.800000 L 104.895105 29.800000 L 105.734266 23.301748 L 106.573427 17.200000 L 107.412587 22.267657 L 108.251748 29.800000 L 109.090909 18.218182 L 109.930070 22.800000 L 110.769231 25.425000 L 111.608392 29.800000 L 112.447552 29.800000 L 113.286713 29.800000 L 114.125874 29.800000 L 114.965035 36.800000 L 115.804196 36.800000 L 116.643357 36.800000 L 117.482517 30.026399 L 118.321678 32.425000 L 119.160839 26.544755 L 120.000000 34.175000"></path>
      <path stroke="none" fill-opacity="0.6" fill="url(#color_grad)" d="M 0 40 L 0.000000 17.550000 L 0.839161 17.550000 L 1.678322 17.550000 L 2.517483 17.550000 L 3.356643 17.550000 L 4.195804 17.550000 L 5.034965 18.284266 L 5.874126 18.425000 L 6.713287 21.050000 L 7.552448 21.050000 L 8.391608 21.050000 L 9.230769 21.050000 L 10.069930 19.862937 L 10.909091 19.300000 L 11.748252 20.175000 L 12.587413 20.175000 L 13.426573 19.300000 L 14.265734 19.300000 L 15.104895 19.300000 L 15.944056 20.450350 L 16.783217 19.300000 L 17.622378 21.050000 L 18.461538 21.050000 L 19.300699 20.670629 L 20.139860 21.050000 L 20.979021 21.050000 L 21.818182 21.050000 L 22.657343 20.175000 L 23.496503 20.175000 L 24.335664 20.175000 L 25.174825 20.175000 L 26.013986 21.337587 L 26.853147 19.300000 L 27.692308 19.300000 L 28.531469 19.300000 L 29.370629 21.050000 L 30.209790 19.300000 L 31.048951 19.300000 L 31.888112 19.300000 L 32.727273 19.300000 L 33.566434 21.570105 L 34.405594 17.550000 L 35.244755 17.550000 L 36.083916 20.138287 L 36.923077 17.550000 L 37.762238 17.806993 L 38.601399 19.300000 L 39.440559 22.414510 L 40.279720 20.175000 L 41.118881 20.175000 L 41.958042 20.175000 L 42.797203 21.050000 L 43.636364 21.925000 L 44.475524 23.522028 L 45.314685 24.550000 L 46.153846 23.675000 L 46.993007 23.675000 L 47.832168 30.528147 L 48.671329 25.425000 L 49.510490 27.817483 L 50.349650 21.925000 L 51.188811 21.925000 L 52.027972 21.925000 L 52.867133 21.925000 L 53.706294 21.925000 L 54.545455 21.925000 L 55.384615 21.925000 L 56.223776 21.925000 L 57.062937 21.925000 L 57.902098 21.925000 L 58.741259 21.925000 L 59.580420 23.613811 L 60.419580 23.736189 L 61.258741 22.983566 L 62.097902 29.800000 L 62.937063 22.353322 L 63.776224 21.600699 L 64.615385 22.800000 L 65.454545 29.720455 L 66.293706 27.750175 L 67.132867 21.050000 L 67.972028 21.337587 L 68.811189 26.300000 L 69.650350 26.300000 L 70.489510 21.050000 L 71.328671 21.050000 L 72.167832 21.050000 L 73.006993 21.050000 L 73.846154 29.800000 L 74.685315 29.800000 L 75.524476 30.675000 L 76.363636 30.436364 L 77.202797 30.265035 L 78.041958 29.800000 L 78.881119 29.800000 L 79.720280 29.800000 L 80.559441 29.800000 L 81.398601 30.295629 L 82.237762 31.550000 L 83.076923 31.550000 L 83.916084 31.550000 L 84.755245 31.550000 L 85.594406 31.550000 L 86.433566 31.550000 L 87.272727 31.550000 L 88.111888 31.550000 L 88.951049 31.550000 L 89.790210 31.550000 L 90.629371 31.550000 L 91.468531 31.550000 L 92.307692 31.550000 L 93.146853 31.550000 L 93.986014 31.550000 L 94.825175 31.550000 L 95.664336 31.550000 L 96.503497 31.550000 L 97.342657 31.550000 L 98.181818 32.425000 L 99.020979 35.050000 L 99.860140 8.800000 L 100.699301 12.911888 L 101.538462 14.050000 L 102.377622 30.619930 L 103.216783 29.800000 L 104.055944 29.800000 L 104.895105 29.800000 L 105.734266 23.301748 L 106.573427 17.200000 L 107.412587 22.267657 L 108.251748 29.800000 L 109.090909 18.218182 L 109.930070 22.800000 L 110.769231 25.425000 L 111.608392 29.800000 L 112.447552 29.800000 L 113.286713 29.800000 L 114.125874 29.800000 L 114.965035 36.800000 L 115.804196 36.800000 L 116.643357 36.800000 L 117.482517 30.026399 L 118.321678 32.425000 L 119.160839 26.544755 L 120.000000 34.175000 L 120 40 Z"></path>
    </g>
  </svg>