<svg xmlns="http://www.w3.org/2000/svg" viewBox="0 0 120 40" width="120" height="40">
    <defs>
      <linearGradient id="color_grad" x1="0%" x2="0%" y1="0%" y2="100%">
        <stop offset="0%" style="stop-color:#EA3943;stop-opacity:0.4;"></stop>
        <stop offset="100%" style="stop-color:#EA3943;stop-opacity:0.0;"></stop>
      </linearGradient>
    </defs>
    <g>
      <path stroke="#EA3943" stroke-width="2" stroke-linecap="round" stroke-linejoin="round" fill="none" d="M 0.000000 16.460862 L 0.839161 15.990248 L 1.678322 16.726753 L 2.517483 16.973280 L 3.356643 17.601481 L 4.195804 17.511416 L 5.034965 17.082813 L 5.874126 17.336921 L 6.713287 18.174865 L 7.552448 18.726219 L 8.391608 19.203390 L 9.230769 19.730563 L 10.069930 22.794416 L 10.909091 22.811937 L 11.748252 23.063894 L 12.587413 17.661730 L 13.426573 22.537541 L 14.265734 22.930282 L 15.104895 22.262120 L 15.944056 22.358230 L 16.783217 21.848579 L 17.622378 20.405283 L 18.461538 19.908644 L 19.300699 20.039182 L 20.139860 20.124944 L 20.979021 20.205582 L 21.818182 19.921452 L 22.657343 19.936719 L 23.496503 20.192159 L 24.335664 20.416246 L 25.174825 20.862268 L 26.013986 19.303701 L 26.853147 18.834728 L 27.692308 23.835441 L 28.531469 23.473234 L 29.370629 23.345155 L 30.209790 19.860384 L 31.048951 22.274005 L 31.888112 22.312224 L 32.727273 22.693387 L 33.566434 21.794273 L 34.405594 21.468953 L 35.244755 22.002786 L 36.083916 19.407189 L 36.923077 19.596439 L 37.762238 17.937765 L 38.601399 21.190765 L 39.440559 17.185891 L 40.279720 18.421801 L 41.118881 18.701628 L 41.958042 19.187406 L 42.797203 19.694189 L 43.636364 20.366347 L 44.475524 20.666051 L 45.314685 21.117606 L 46.153846 21.095474 L 46.993007 21.984547 L 47.832168 21.969690 L 48.671329 21.503483 L 49.510490 22.182096 L 50.349650 22.206585 L 51.188811 22.578526 L 52.027972 24.940199 L 52.867133 24.743982 L 53.706294 25.859703 L 54.545455 26.104692 L 55.384615 25.409992 L 56.223776 25.080573 L 57.062937 25.370954 L 57.902098 26.152030 L 58.741259 26.832283 L 59.580420 26.831566 L 60.419580 25.529874 L 61.258741 24.327674 L 62.097902 20.386839 L 62.937063 21.560145 L 63.776224 21.529508 L 64.615385 21.526025 L 65.454545 14.279012 L 66.293706 8.971216 L 67.132867 9.225939 L 67.972028 9.767764 L 68.811189 9.621959 L 69.650350 15.830713 L 70.489510 22.193162 L 71.328671 21.330422 L 72.167832 21.310749 L 73.006993 21.310749 L 73.846154 16.739254 L 74.685315 8.800000 L 75.524476 10.542488 L 76.363636 9.118763 L 77.202797 11.417626 L 78.041958 12.548204 L 78.881119 15.174027 L 79.720280 15.274031 L 80.559441 9.633538 L 81.398601 15.683781 L 82.237762 14.515496 L 83.076923 14.920123 L 83.916084 15.127919 L 84.755245 12.553532 L 85.594406 12.788173 L 86.433566 13.264319 L 87.272727 12.972299 L 88.111888 13.315756 L 88.951049 12.565213 L 89.790210 12.471049 L 90.629371 12.768705 L 91.468531 14.292332 L 92.307692 14.093963 L 93.146853 13.797537 L 93.986014 11.933015 L 94.825175 13.080398 L 95.664336 15.667899 L 96.503497 17.338458 L 97.342657 16.646115 L 98.181818 16.627364 L 99.020979 16.680543 L 99.860140 24.822879 L 100.699301 25.332735 L 101.538462 32.771047 L 102.377622 13.800509 L 103.216783 17.293272 L 104.055944 19.905468 L 104.895105 21.005512 L 105.734266 17.643184 L 106.573427 21.341591 L 107.412587 20.861141 L 108.251748 20.802532 L 109.090909 28.658176 L 109.930070 22.128713 L 110.769231 21.000798 L 111.608392 22.411204 L 112.447552 15.704479 L 113.286713 17.538774 L 114.125874 19.373581 L 114.965035 18.643429 L 115.804196 17.685808 L 116.643357 25.992598 L 117.482517 33.222397 L 118.321678 36.800000 L 119.160839 26.832693 L 120.000000 24.563544"></path>
      <path stroke="none" fill-opacity="0.6" fill="url(#color_grad)" d="M 0 40 L 0.000000 16.460862 L 0.839161 15.990248 L 1.678322 16.726753 L 2.517483 16.973280 L 3.356643 17.601481 L 4.195804 17.511416 L 5.034965 17.082813 L 5.874126 17.336921 L 6.713287 18.174865 L 7.552448 18.726219 L 8.391608 19.203390 L 9.230769 19.730563 L 10.069930 22.794416 L 10.909091 22.811937 L 11.748252 23.063894 L 12.587413 17.661730 L 13.426573 22.537541 L 14.265734 22.930282 L 15.104895 22.262120 L 15.944056 22.358230 L 16.783217 21.848579 L 17.622378 20.405283 L 18.461538 19.908644 L 19.300699 20.039182 L 20.139860 20.124944 L 20.979021 20.205582 L 21.818182 19.921452 L 22.657343 19.936719 L 23.496503 20.192159 L 24.335664 20.416246 L 25.174825 20.862268 L 26.013986 19.303701 L 26.853147 18.834728 L 27.692308 23.835441 L 28.531469 23.473234 L 29.370629 23.345155 L 30.209790 19.860384 L 31.048951 22.274005 L 31.888112 22.312224 L 32.727273 22.693387 L 33.566434 21.794273 L 34.405594 21.468953 L 35.244755 22.002786 L 36.083916 19.407189 L 36.923077 19.596439 L 37.762238 17.937765 L 38.601399 21.190765 L 39.440559 17.185891 L 40.279720 18.421801 L 41.118881 18.701628 L 41.958042 19.187406 L 42.797203 19.694189 L 43.636364 20.366347 L 44.475524 20.666051 L 45.314685 21.117606 L 46.153846 21.095474 L 46.993007 21.984547 L 47.832168 21.969690 L 48.671329 21.503483 L 49.510490 22.182096 L 50.349650 22.206585 L 51.188811 22.578526 L 52.027972 24.940199 L 52.867133 24.743982 L 53.706294 25.859703 L 54.545455 26.104692 L 55.384615 25.409992 L 56.223776 25.080573 L 57.062937 25.370954 L 57.902098 26.152030 L 58.741259 26.832283 L 59.580420 26.831566 L 60.419580 25.529874 L 61.258741 24.327674 L 62.097902 20.386839 L 62.937063 21.560145 L 63.776224 21.529508 L 64.615385 21.526025 L 65.454545 14.279012 L 66.293706 8.971216 L 67.132867 9.225939 L 67.972028 9.767764 L 68.811189 9.621959 L 69.650350 15.830713 L 70.489510 22.193162 L 71.328671 21.330422 L 72.167832 21.310749 L 73.006993 21.310749 L 73.846154 16.739254 L 74.685315 8.800000 L 75.524476 10.542488 L 76.363636 9.118763 L 77.202797 11.417626 L 78.041958 12.548204 L 78.881119 15.174027 L 79.720280 15.274031 L 80.559441 9.633538 L 81.398601 15.683781 L 82.237762 14.515496 L 83.076923 14.920123 L 83.916084 15.127919 L 84.755245 12.553532 L 85.594406 12.788173 L 86.433566 13.264319 L 87.272727 12.972299 L 88.111888 13.315756 L 88.951049 12.565213 L 89.790210 12.471049 L 90.629371 12.768705 L 91.468531 14.292332 L 92.307692 14.093963 L 93.146853 13.797537 L 93.986014 11.933015 L 94.825175 13.080398 L 95.664336 15.667899 L 96.503497 17.338458 L 97.342657 16.646115 L 98.181818 16.627364 L 99.020979 16.680543 L 99.860140 24.822879 L 100.699301 25.332735 L 101.538462 32.771047 L 102.377622 13.800509 L 103.216783 17.293272 L 104.055944 19.905468 L 104.895105 21.005512 L 105.734266 17.643184 L 106.573427 21.341591 L 107.412587 20.861141 L 108.251748 20.802532 L 109.090909 28.658176 L 109.930070 22.128713 L 110.769231 21.000798 L 111.608392 22.411204 L 112.447552 15.704479 L 113.286713 17.538774 L 114.125874 19.373581 L 114.965035 18.643429 L 115.804196 17.685808 L 116.643357 25.992598 L 117.482517 33.222397 L 118.321678 36.800000 L 119.160839 26.832693 L 120.000000 24.563544 L 120 40 Z"></path>
    </g>
  </svg>