<svg xmlns="http://www.w3.org/2000/svg" viewBox="0 0 120 40" width="120" height="40">
    <defs>
      <linearGradient id="color_grad" x1="0%" x2="0%" y1="0%" y2="100%">
        <stop offset="0%" style="stop-color:#EA3943;stop-opacity:0.4;"></stop>
        <stop offset="100%" style="stop-color:#EA3943;stop-opacity:0.0;"></stop>
      </linearGradient>
    </defs>
    <g>
      <path stroke="#EA3943" stroke-width="2" stroke-linecap="round" stroke-linejoin="round" fill="none" d="M 0.000000 12.300000 L 0.839161 12.300000 L 1.678322 12.300000 L 2.517483 12.300000 L 3.356643 12.300000 L 4.195804 12.300000 L 5.034965 12.300000 L 5.874126 12.300000 L 6.713287 12.300000 L 7.552448 13.024188 L 8.391608 13.329412 L 9.230769 14.438009 L 10.069930 16.505471 L 10.909091 17.035294 L 11.748252 17.035294 L 12.587413 12.094118 L 13.426573 16.211765 L 14.265734 17.035294 L 15.104895 17.035294 L 15.944056 17.035294 L 16.783217 16.957548 L 17.622378 16.211765 L 18.461538 16.211765 L 19.300699 16.211765 L 20.139860 16.211765 L 20.979021 16.211765 L 21.818182 16.211765 L 22.657343 16.211765 L 23.496503 16.211765 L 24.335664 16.211765 L 25.174825 16.211765 L 26.013986 14.482353 L 26.853147 14.482353 L 27.692308 18.847059 L 28.531469 18.847059 L 29.370629 18.847059 L 30.209790 16.211765 L 31.048951 17.035294 L 31.888112 17.035294 L 32.727273 17.035294 L 33.566434 17.035294 L 34.405594 17.035294 L 35.244755 17.035294 L 36.083916 16.217524 L 36.923077 16.623529 L 37.762238 16.623529 L 38.601399 19.917647 L 39.440559 16.623529 L 40.279720 16.623529 L 41.118881 17.035294 L 41.958042 17.858824 L 42.797203 17.858824 L 43.636364 18.906952 L 44.475524 19.300000 L 45.314685 20.329412 L 46.153846 20.329412 L 46.993007 20.329412 L 47.832168 20.329412 L 48.671329 20.329412 L 49.510490 20.741176 L 50.349650 20.741176 L 51.188811 20.741176 L 52.027972 24.035294 L 52.867133 24.035294 L 53.706294 24.447059 L 54.545455 24.447059 L 55.384615 24.447059 L 56.223776 24.294447 L 57.062937 24.035294 L 57.902098 24.447059 L 58.741259 24.447059 L 59.580420 24.447059 L 60.419580 24.447059 L 61.258741 24.447059 L 62.097902 20.741176 L 62.937063 21.748992 L 63.776224 21.504237 L 64.615385 20.741176 L 65.454545 14.003209 L 66.293706 9.623529 L 67.132867 10.335335 L 67.972028 10.225915 L 68.811189 10.447059 L 69.650350 14.029412 L 70.489510 19.300000 L 71.328671 19.300000 L 72.167832 19.300000 L 73.006993 19.300000 L 73.846154 14.482353 L 74.685315 8.800000 L 75.524476 10.447059 L 76.363636 10.858824 L 77.202797 11.215878 L 78.041958 10.475278 L 78.881119 14.482353 L 79.720280 14.482353 L 80.559441 10.117647 L 81.398601 14.482353 L 82.237762 14.482353 L 83.076923 14.482353 L 83.916084 14.482353 L 84.755245 14.482353 L 85.594406 14.482353 L 86.433566 14.482353 L 87.272727 14.482353 L 88.111888 14.482353 L 88.951049 14.482353 L 89.790210 14.482353 L 90.629371 14.620568 L 91.468531 15.800000 L 92.307692 15.800000 L 93.146853 15.800000 L 93.986014 14.482353 L 94.825175 15.880625 L 95.664336 17.766680 L 96.503497 19.094118 L 97.342657 19.094118 L 98.181818 19.094118 L 99.020979 19.917647 L 99.860140 26.505882 L 100.699301 28.152941 L 101.538462 32.270588 L 102.377622 17.035294 L 103.216783 19.917647 L 104.055944 21.599260 L 104.895105 22.969889 L 105.734266 21.610777 L 106.573427 24.035294 L 107.412587 23.211765 L 108.251748 24.035294 L 109.090909 29.238503 L 109.930070 24.519046 L 110.769231 24.447059 L 111.608392 26.094118 L 112.447552 21.976471 L 113.286713 23.064912 L 114.125874 24.412505 L 114.965035 23.381654 L 115.804196 22.388235 L 116.643357 28.564706 L 117.482517 34.700864 L 118.321678 36.800000 L 119.160839 29.016783 L 120.000000 26.505882"></path>
      <path stroke="none" fill-opacity="0.6" fill="url(#color_grad)" d="M 0 40 L 0.000000 12.300000 L 0.839161 12.300000 L 1.678322 12.300000 L 2.517483 12.300000 L 3.356643 12.300000 L 4.195804 12.300000 L 5.034965 12.300000 L 5.874126 12.300000 L 6.713287 12.300000 L 7.552448 13.024188 L 8.391608 13.329412 L 9.230769 14.438009 L 10.069930 16.505471 L 10.909091 17.035294 L 11.748252 17.035294 L 12.587413 12.094118 L 13.426573 16.211765 L 14.265734 17.035294 L 15.104895 17.035294 L 15.944056 17.035294 L 16.783217 16.957548 L 17.622378 16.211765 L 18.461538 16.211765 L 19.300699 16.211765 L 20.139860 16.211765 L 20.979021 16.211765 L 21.818182 16.211765 L 22.657343 16.211765 L 23.496503 16.211765 L 24.335664 16.211765 L 25.174825 16.211765 L 26.013986 14.482353 L 26.853147 14.482353 L 27.692308 18.847059 L 28.531469 18.847059 L 29.370629 18.847059 L 30.209790 16.211765 L 31.048951 17.035294 L 31.888112 17.035294 L 32.727273 17.035294 L 33.566434 17.035294 L 34.405594 17.035294 L 35.244755 17.035294 L 36.083916 16.217524 L 36.923077 16.623529 L 37.762238 16.623529 L 38.601399 19.917647 L 39.440559 16.623529 L 40.279720 16.623529 L 41.118881 17.035294 L 41.958042 17.858824 L 42.797203 17.858824 L 43.636364 18.906952 L 44.475524 19.300000 L 45.314685 20.329412 L 46.153846 20.329412 L 46.993007 20.329412 L 47.832168 20.329412 L 48.671329 20.329412 L 49.510490 20.741176 L 50.349650 20.741176 L 51.188811 20.741176 L 52.027972 24.035294 L 52.867133 24.035294 L 53.706294 24.447059 L 54.545455 24.447059 L 55.384615 24.447059 L 56.223776 24.294447 L 57.062937 24.035294 L 57.902098 24.447059 L 58.741259 24.447059 L 59.580420 24.447059 L 60.419580 24.447059 L 61.258741 24.447059 L 62.097902 20.741176 L 62.937063 21.748992 L 63.776224 21.504237 L 64.615385 20.741176 L 65.454545 14.003209 L 66.293706 9.623529 L 67.132867 10.335335 L 67.972028 10.225915 L 68.811189 10.447059 L 69.650350 14.029412 L 70.489510 19.300000 L 71.328671 19.300000 L 72.167832 19.300000 L 73.006993 19.300000 L 73.846154 14.482353 L 74.685315 8.800000 L 75.524476 10.447059 L 76.363636 10.858824 L 77.202797 11.215878 L 78.041958 10.475278 L 78.881119 14.482353 L 79.720280 14.482353 L 80.559441 10.117647 L 81.398601 14.482353 L 82.237762 14.482353 L 83.076923 14.482353 L 83.916084 14.482353 L 84.755245 14.482353 L 85.594406 14.482353 L 86.433566 14.482353 L 87.272727 14.482353 L 88.111888 14.482353 L 88.951049 14.482353 L 89.790210 14.482353 L 90.629371 14.620568 L 91.468531 15.800000 L 92.307692 15.800000 L 93.146853 15.800000 L 93.986014 14.482353 L 94.825175 15.880625 L 95.664336 17.766680 L 96.503497 19.094118 L 97.342657 19.094118 L 98.181818 19.094118 L 99.020979 19.917647 L 99.860140 26.505882 L 100.699301 28.152941 L 101.538462 32.270588 L 102.377622 17.035294 L 103.216783 19.917647 L 104.055944 21.599260 L 104.895105 22.969889 L 105.734266 21.610777 L 106.573427 24.035294 L 107.412587 23.211765 L 108.251748 24.035294 L 109.090909 29.238503 L 109.930070 24.519046 L 110.769231 24.447059 L 111.608392 26.094118 L 112.447552 21.976471 L 113.286713 23.064912 L 114.125874 24.412505 L 114.965035 23.381654 L 115.804196 22.388235 L 116.643357 28.564706 L 117.482517 34.700864 L 118.321678 36.800000 L 119.160839 29.016783 L 120.000000 26.505882 L 120 40 Z"></path>
    </g>
  </svg>