<svg xmlns="http://www.w3.org/2000/svg" viewBox="0 0 120 40" width="120" height="40">
    <defs>
      <linearGradient id="color_grad" x1="0%" x2="0%" y1="0%" y2="100%">
        <stop offset="0%" style="stop-color:#EA3943;stop-opacity:0.4;"></stop>
        <stop offset="100%" style="stop-color:#EA3943;stop-opacity:0.0;"></stop>
      </linearGradient>
    </defs>
    <g>
      <path stroke="#EA3943" stroke-width="2" stroke-linecap="round" stroke-linejoin="round" fill="none" d="M 0.000000 17.025207 L 0.839161 9.291066 L 1.678322 9.291066 L 2.517483 9.291066 L 3.356643 10.783933 L 4.195804 10.873050 L 5.034965 11.509162 L 5.874126 10.873050 L 6.713287 12.630809 L 7.552448 12.630809 L 8.391608 11.930164 L 9.230769 10.873050 L 10.069930 10.574968 L 10.909091 10.433610 L 11.748252 9.339005 L 12.587413 9.291066 L 13.426573 9.291066 L 14.265734 10.326055 L 15.104895 10.873050 L 15.944056 14.225699 L 16.783217 10.433610 L 17.622378 10.433610 L 18.461538 12.103481 L 19.300699 12.103481 L 20.139860 12.103481 L 20.979021 10.873050 L 21.818182 9.866333 L 22.657343 10.433610 L 23.496503 10.433610 L 24.335664 8.800000 L 25.174825 9.774450 L 26.013986 16.761544 L 26.853147 16.761544 L 27.692308 16.761544 L 28.531469 10.873050 L 29.370629 10.873050 L 30.209790 10.873050 L 31.048951 10.873050 L 31.888112 9.774450 L 32.727273 12.630809 L 33.566434 10.257834 L 34.405594 13.070249 L 35.244755 11.641301 L 36.083916 13.949129 L 36.923077 14.084341 L 37.762238 14.775153 L 38.601399 13.509689 L 39.440559 12.630809 L 40.279720 12.630809 L 41.118881 12.630809 L 41.958042 12.103481 L 42.797203 12.103481 L 43.636364 11.887756 L 44.475524 11.905580 L 45.314685 11.751929 L 46.153846 11.887142 L 46.993007 14.828008 L 47.832168 14.828008 L 48.671329 14.828008 L 49.510490 14.828008 L 50.349650 14.828008 L 51.188811 14.828008 L 52.027972 15.123017 L 52.867133 15.623917 L 53.706294 15.310470 L 54.545455 16.066430 L 55.384615 15.808297 L 56.223776 15.983458 L 57.062937 16.146328 L 57.902098 16.432117 L 58.741259 16.146328 L 59.580420 16.963747 L 60.419580 17.025207 L 61.258741 19.661846 L 62.097902 17.025207 L 62.937063 17.464647 L 63.776224 19.222407 L 64.615385 19.222407 L 65.454545 16.505869 L 66.293706 15.771421 L 67.132867 17.025207 L 67.972028 19.366838 L 68.811189 15.706888 L 69.650350 15.706888 L 70.489510 23.616805 L 71.328671 16.447482 L 72.167832 15.267448 L 73.006993 15.267448 L 73.846154 16.842671 L 74.685315 17.392739 L 75.524476 16.761544 L 76.363636 16.761544 L 77.202797 15.209061 L 78.041958 19.222407 L 78.881119 16.081795 L 79.720280 15.706888 L 80.559441 22.104886 L 81.398601 19.575802 L 82.237762 15.448755 L 83.076923 17.261829 L 83.916084 17.928671 L 84.755245 17.904087 L 85.594406 20.602186 L 86.433566 17.904087 L 87.272727 18.103832 L 88.111888 17.904087 L 88.951049 17.904087 L 89.790210 17.904087 L 90.629371 17.904087 L 91.468531 17.904087 L 92.307692 17.904087 L 93.146853 17.904087 L 93.986014 18.779894 L 94.825175 17.904087 L 95.664336 17.904087 L 96.503497 18.856719 L 97.342657 19.661846 L 98.181818 16.665666 L 99.020979 17.476939 L 99.860140 19.222407 L 100.699301 21.419606 L 101.538462 28.011203 L 102.377622 19.360692 L 103.216783 21.954309 L 104.055944 26.077668 L 104.895105 28.223241 L 105.734266 31.575890 L 106.573427 35.189745 L 107.412587 33.939032 L 108.251748 32.405602 L 109.090909 22.214592 L 109.930070 25.924632 L 110.769231 29.261917 L 111.608392 25.457535 L 112.447552 24.707722 L 113.286713 28.576636 L 114.125874 29.768963 L 114.965035 32.476281 L 115.804196 33.942105 L 116.643357 32.405602 L 117.482517 32.845041 L 118.321678 32.845041 L 119.160839 32.405602 L 120.000000 36.800000"></path>
      <path stroke="none" fill-opacity="0.6" fill="url(#color_grad)" d="M 0 40 L 0.000000 17.025207 L 0.839161 9.291066 L 1.678322 9.291066 L 2.517483 9.291066 L 3.356643 10.783933 L 4.195804 10.873050 L 5.034965 11.509162 L 5.874126 10.873050 L 6.713287 12.630809 L 7.552448 12.630809 L 8.391608 11.930164 L 9.230769 10.873050 L 10.069930 10.574968 L 10.909091 10.433610 L 11.748252 9.339005 L 12.587413 9.291066 L 13.426573 9.291066 L 14.265734 10.326055 L 15.104895 10.873050 L 15.944056 14.225699 L 16.783217 10.433610 L 17.622378 10.433610 L 18.461538 12.103481 L 19.300699 12.103481 L 20.139860 12.103481 L 20.979021 10.873050 L 21.818182 9.866333 L 22.657343 10.433610 L 23.496503 10.433610 L 24.335664 8.800000 L 25.174825 9.774450 L 26.013986 16.761544 L 26.853147 16.761544 L 27.692308 16.761544 L 28.531469 10.873050 L 29.370629 10.873050 L 30.209790 10.873050 L 31.048951 10.873050 L 31.888112 9.774450 L 32.727273 12.630809 L 33.566434 10.257834 L 34.405594 13.070249 L 35.244755 11.641301 L 36.083916 13.949129 L 36.923077 14.084341 L 37.762238 14.775153 L 38.601399 13.509689 L 39.440559 12.630809 L 40.279720 12.630809 L 41.118881 12.630809 L 41.958042 12.103481 L 42.797203 12.103481 L 43.636364 11.887756 L 44.475524 11.905580 L 45.314685 11.751929 L 46.153846 11.887142 L 46.993007 14.828008 L 47.832168 14.828008 L 48.671329 14.828008 L 49.510490 14.828008 L 50.349650 14.828008 L 51.188811 14.828008 L 52.027972 15.123017 L 52.867133 15.623917 L 53.706294 15.310470 L 54.545455 16.066430 L 55.384615 15.808297 L 56.223776 15.983458 L 57.062937 16.146328 L 57.902098 16.432117 L 58.741259 16.146328 L 59.580420 16.963747 L 60.419580 17.025207 L 61.258741 19.661846 L 62.097902 17.025207 L 62.937063 17.464647 L 63.776224 19.222407 L 64.615385 19.222407 L 65.454545 16.505869 L 66.293706 15.771421 L 67.132867 17.025207 L 67.972028 19.366838 L 68.811189 15.706888 L 69.650350 15.706888 L 70.489510 23.616805 L 71.328671 16.447482 L 72.167832 15.267448 L 73.006993 15.267448 L 73.846154 16.842671 L 74.685315 17.392739 L 75.524476 16.761544 L 76.363636 16.761544 L 77.202797 15.209061 L 78.041958 19.222407 L 78.881119 16.081795 L 79.720280 15.706888 L 80.559441 22.104886 L 81.398601 19.575802 L 82.237762 15.448755 L 83.076923 17.261829 L 83.916084 17.928671 L 84.755245 17.904087 L 85.594406 20.602186 L 86.433566 17.904087 L 87.272727 18.103832 L 88.111888 17.904087 L 88.951049 17.904087 L 89.790210 17.904087 L 90.629371 17.904087 L 91.468531 17.904087 L 92.307692 17.904087 L 93.146853 17.904087 L 93.986014 18.779894 L 94.825175 17.904087 L 95.664336 17.904087 L 96.503497 18.856719 L 97.342657 19.661846 L 98.181818 16.665666 L 99.020979 17.476939 L 99.860140 19.222407 L 100.699301 21.419606 L 101.538462 28.011203 L 102.377622 19.360692 L 103.216783 21.954309 L 104.055944 26.077668 L 104.895105 28.223241 L 105.734266 31.575890 L 106.573427 35.189745 L 107.412587 33.939032 L 108.251748 32.405602 L 109.090909 22.214592 L 109.930070 25.924632 L 110.769231 29.261917 L 111.608392 25.457535 L 112.447552 24.707722 L 113.286713 28.576636 L 114.125874 29.768963 L 114.965035 32.476281 L 115.804196 33.942105 L 116.643357 32.405602 L 117.482517 32.845041 L 118.321678 32.845041 L 119.160839 32.405602 L 120.000000 36.800000 L 120 40 Z"></path>
    </g>
  </svg>