<svg xmlns="http://www.w3.org/2000/svg" viewBox="0 0 120 40" width="120" height="40">
    <defs>
      <linearGradient id="color_grad" x1="0%" x2="0%" y1="0%" y2="100%">
        <stop offset="0%" style="stop-color:#EA3943;stop-opacity:0.4;"></stop>
        <stop offset="100%" style="stop-color:#EA3943;stop-opacity:0.0;"></stop>
      </linearGradient>
    </defs>
    <g>
      <path stroke="#EA3943" stroke-width="2" stroke-linecap="round" stroke-linejoin="round" fill="none" d="M 0.000000 22.665643 L 0.839161 12.154597 L 1.678322 13.208266 L 2.517483 13.549576 L 3.356643 16.328701 L 4.195804 16.307752 L 5.034965 16.526625 L 5.874126 16.084064 L 6.713287 19.454914 L 7.552448 19.082061 L 8.391608 18.374518 L 9.230769 15.967284 L 10.069930 16.634135 L 10.909091 15.550729 L 11.748252 14.566285 L 12.587413 14.891704 L 13.426573 15.144166 L 14.265734 15.610684 L 15.104895 15.303685 L 15.944056 19.691243 L 16.783217 14.250136 L 17.622378 13.382232 L 18.461538 14.808513 L 19.300699 14.991027 L 20.139860 15.109011 L 20.979021 13.654679 L 21.818182 11.955710 L 22.657343 12.684200 L 23.496503 13.063194 L 24.335664 11.308483 L 25.174825 13.238003 L 26.013986 22.775079 L 26.853147 22.091254 L 27.692308 22.027325 L 28.531469 13.954936 L 29.370629 13.756891 L 30.209790 13.166249 L 31.048951 15.320660 L 31.888112 13.964808 L 32.727273 18.161304 L 33.566434 13.789156 L 34.405594 16.921149 L 35.244755 15.887585 L 36.083916 16.425736 L 36.923077 16.200363 L 37.762238 14.725202 L 38.601399 12.009164 L 39.440559 10.768045 L 40.279720 12.591258 L 41.118881 12.284138 L 41.958042 10.840039 L 42.797203 11.602721 L 43.636364 10.445395 L 44.475524 10.223633 L 45.314685 8.800000 L 46.153846 8.932551 L 46.993007 14.186449 L 47.832168 14.177660 L 48.671329 13.484685 L 49.510490 13.755687 L 50.349650 13.776395 L 51.188811 14.354998 L 52.027972 12.257411 L 52.867133 12.626533 L 53.706294 13.171787 L 54.545455 14.542809 L 55.384615 13.134586 L 56.223776 13.137355 L 57.062937 14.283966 L 57.902098 15.096250 L 58.741259 15.787299 L 59.580420 16.864444 L 60.419580 14.946001 L 61.258741 16.658333 L 62.097902 14.000685 L 62.937063 14.503681 L 63.776224 17.243799 L 64.615385 18.615904 L 65.454545 16.251891 L 66.293706 15.212428 L 67.132867 16.055411 L 67.972028 20.045917 L 68.811189 14.665608 L 69.650350 17.277629 L 70.489510 27.816967 L 71.328671 17.203828 L 72.167832 15.624288 L 73.006993 15.624288 L 73.846154 19.301896 L 74.685315 18.386196 L 75.524476 17.292557 L 76.363636 14.721229 L 77.202797 15.183775 L 78.041958 23.090024 L 78.881119 16.131740 L 79.720280 15.779232 L 80.559441 23.677656 L 81.398601 21.435359 L 82.237762 14.364870 L 83.076923 17.320729 L 83.916084 18.497920 L 84.755245 14.939018 L 85.594406 18.878719 L 86.433566 15.893725 L 87.272727 15.766712 L 88.111888 15.961867 L 88.951049 14.934804 L 89.790210 14.811764 L 90.629371 14.978266 L 91.468531 15.107807 L 92.307692 14.820432 L 93.146853 14.405081 L 93.986014 15.252398 L 94.825175 13.255941 L 95.664336 13.633730 L 96.503497 14.971765 L 97.342657 15.086257 L 98.181818 10.972831 L 99.020979 10.657043 L 99.860140 12.891515 L 100.699301 13.495159 L 101.538462 26.144604 L 102.377622 14.269760 L 103.216783 17.679858 L 104.055944 24.055446 L 104.895105 26.163385 L 105.734266 28.561229 L 106.573427 34.427439 L 107.412587 33.400617 L 108.251748 29.841595 L 109.090909 17.647954 L 109.930070 21.870937 L 110.769231 25.014968 L 111.608392 18.703910 L 112.447552 15.619352 L 113.286713 21.725142 L 114.125874 23.557264 L 114.965035 28.164658 L 115.804196 30.632810 L 116.643357 29.081803 L 117.482517 28.840056 L 118.321678 30.243584 L 119.160839 29.444664 L 120.000000 36.800000"></path>
      <path stroke="none" fill-opacity="0.6" fill="url(#color_grad)" d="M 0 40 L 0.000000 22.665643 L 0.839161 12.154597 L 1.678322 13.208266 L 2.517483 13.549576 L 3.356643 16.328701 L 4.195804 16.307752 L 5.034965 16.526625 L 5.874126 16.084064 L 6.713287 19.454914 L 7.552448 19.082061 L 8.391608 18.374518 L 9.230769 15.967284 L 10.069930 16.634135 L 10.909091 15.550729 L 11.748252 14.566285 L 12.587413 14.891704 L 13.426573 15.144166 L 14.265734 15.610684 L 15.104895 15.303685 L 15.944056 19.691243 L 16.783217 14.250136 L 17.622378 13.382232 L 18.461538 14.808513 L 19.300699 14.991027 L 20.139860 15.109011 L 20.979021 13.654679 L 21.818182 11.955710 L 22.657343 12.684200 L 23.496503 13.063194 L 24.335664 11.308483 L 25.174825 13.238003 L 26.013986 22.775079 L 26.853147 22.091254 L 27.692308 22.027325 L 28.531469 13.954936 L 29.370629 13.756891 L 30.209790 13.166249 L 31.048951 15.320660 L 31.888112 13.964808 L 32.727273 18.161304 L 33.566434 13.789156 L 34.405594 16.921149 L 35.244755 15.887585 L 36.083916 16.425736 L 36.923077 16.200363 L 37.762238 14.725202 L 38.601399 12.009164 L 39.440559 10.768045 L 40.279720 12.591258 L 41.118881 12.284138 L 41.958042 10.840039 L 42.797203 11.602721 L 43.636364 10.445395 L 44.475524 10.223633 L 45.314685 8.800000 L 46.153846 8.932551 L 46.993007 14.186449 L 47.832168 14.177660 L 48.671329 13.484685 L 49.510490 13.755687 L 50.349650 13.776395 L 51.188811 14.354998 L 52.027972 12.257411 L 52.867133 12.626533 L 53.706294 13.171787 L 54.545455 14.542809 L 55.384615 13.134586 L 56.223776 13.137355 L 57.062937 14.283966 L 57.902098 15.096250 L 58.741259 15.787299 L 59.580420 16.864444 L 60.419580 14.946001 L 61.258741 16.658333 L 62.097902 14.000685 L 62.937063 14.503681 L 63.776224 17.243799 L 64.615385 18.615904 L 65.454545 16.251891 L 66.293706 15.212428 L 67.132867 16.055411 L 67.972028 20.045917 L 68.811189 14.665608 L 69.650350 17.277629 L 70.489510 27.816967 L 71.328671 17.203828 L 72.167832 15.624288 L 73.006993 15.624288 L 73.846154 19.301896 L 74.685315 18.386196 L 75.524476 17.292557 L 76.363636 14.721229 L 77.202797 15.183775 L 78.041958 23.090024 L 78.881119 16.131740 L 79.720280 15.779232 L 80.559441 23.677656 L 81.398601 21.435359 L 82.237762 14.364870 L 83.076923 17.320729 L 83.916084 18.497920 L 84.755245 14.939018 L 85.594406 18.878719 L 86.433566 15.893725 L 87.272727 15.766712 L 88.111888 15.961867 L 88.951049 14.934804 L 89.790210 14.811764 L 90.629371 14.978266 L 91.468531 15.107807 L 92.307692 14.820432 L 93.146853 14.405081 L 93.986014 15.252398 L 94.825175 13.255941 L 95.664336 13.633730 L 96.503497 14.971765 L 97.342657 15.086257 L 98.181818 10.972831 L 99.020979 10.657043 L 99.860140 12.891515 L 100.699301 13.495159 L 101.538462 26.144604 L 102.377622 14.269760 L 103.216783 17.679858 L 104.055944 24.055446 L 104.895105 26.163385 L 105.734266 28.561229 L 106.573427 34.427439 L 107.412587 33.400617 L 108.251748 29.841595 L 109.090909 17.647954 L 109.930070 21.870937 L 110.769231 25.014968 L 111.608392 18.703910 L 112.447552 15.619352 L 113.286713 21.725142 L 114.125874 23.557264 L 114.965035 28.164658 L 115.804196 30.632810 L 116.643357 29.081803 L 117.482517 28.840056 L 118.321678 30.243584 L 119.160839 29.444664 L 120.000000 36.800000 L 120 40 Z"></path>
    </g>
  </svg>