<svg xmlns="http://www.w3.org/2000/svg" viewBox="0 0 120 40" width="120" height="40">
    <defs>
      <linearGradient id="color_grad" x1="0%" x2="0%" y1="0%" y2="100%">
        <stop offset="0%" style="stop-color:#EA3943;stop-opacity:0.4;"></stop>
        <stop offset="100%" style="stop-color:#EA3943;stop-opacity:0.0;"></stop>
      </linearGradient>
    </defs>
    <g>
      <path stroke="#EA3943" stroke-width="2" stroke-linecap="round" stroke-linejoin="round" fill="none" d="M 0.000000 17.371749 L 0.839161 17.458262 L 1.678322 22.238635 L 2.517483 22.577734 L 3.356643 23.462755 L 4.195804 23.337756 L 5.034965 20.259345 L 5.874126 20.118660 L 6.713287 21.305102 L 7.552448 16.015029 L 8.391608 16.233495 L 9.230769 15.093140 L 10.069930 16.163638 L 10.909091 15.240131 L 11.748252 15.654424 L 12.587413 16.025055 L 13.426573 16.278611 L 14.265734 15.447277 L 15.104895 14.409444 L 15.944056 14.538809 L 16.783217 15.497245 L 17.622378 20.623994 L 18.461538 13.864007 L 19.300699 20.493497 L 20.139860 20.610734 L 20.979021 20.726354 L 21.818182 20.304300 L 22.657343 20.336803 L 23.496503 20.716813 L 24.335664 21.046048 L 25.174825 21.681879 L 26.013986 19.166046 L 26.853147 21.648891 L 27.692308 21.573212 L 28.531469 21.010149 L 29.370629 20.818527 L 30.209790 20.259345 L 31.048951 22.371558 L 31.888112 16.408624 L 32.727273 17.010173 L 33.566434 15.614320 L 34.405594 15.910244 L 35.244755 16.709398 L 36.083916 17.968446 L 36.923077 15.310150 L 37.762238 13.056120 L 38.601399 12.092187 L 39.440559 12.477210 L 40.279720 17.295423 L 41.118881 17.868673 L 41.958042 17.142287 L 42.797203 10.564220 L 43.636364 12.149916 L 44.475524 9.649607 L 45.314685 12.090246 L 46.153846 12.451661 L 46.993007 15.336508 L 47.832168 16.862373 L 48.671329 16.167681 L 49.510490 16.463442 L 50.349650 16.487213 L 51.188811 17.061595 L 52.027972 16.116258 L 52.867133 15.806590 L 53.706294 17.566282 L 54.545455 18.740272 L 55.384615 17.643901 L 56.223776 17.924786 L 57.062937 19.154727 L 57.902098 23.165376 L 58.741259 26.108923 L 59.580420 26.107791 L 60.419580 24.147583 L 61.258741 22.341157 L 62.097902 23.220842 L 62.937063 25.507860 L 63.776224 27.498307 L 64.615385 31.169696 L 65.454545 33.878122 L 66.293706 25.240882 L 67.132867 24.455634 L 67.972028 25.334025 L 68.811189 24.800393 L 69.650350 27.318975 L 70.489510 21.812861 L 71.328671 19.365754 L 72.167832 19.337294 L 73.006993 19.337294 L 73.846154 24.029699 L 74.685315 21.345529 L 75.524476 19.772931 L 76.363636 22.852150 L 77.202797 25.616850 L 78.041958 28.568482 L 78.881119 27.065095 L 79.720280 25.881402 L 80.559441 24.106671 L 81.398601 24.873161 L 82.237762 23.283260 L 83.076923 23.951433 L 83.916084 26.438158 L 84.755245 22.797817 L 85.594406 21.716161 L 86.433566 22.353447 L 87.272727 21.950312 L 88.111888 25.590168 L 88.951049 21.402288 L 89.790210 21.270335 L 90.629371 23.135461 L 91.468531 23.962105 L 92.307692 23.675723 L 93.146853 23.698200 L 93.986014 23.738141 L 94.825175 23.591473 L 95.664336 24.119931 L 96.503497 24.177499 L 97.342657 24.010455 L 98.181818 20.184475 L 99.020979 19.779400 L 99.860140 23.291184 L 100.699301 20.246085 L 101.538462 23.640147 L 102.377622 23.626725 L 103.216783 23.495258 L 104.055944 29.856314 L 104.895105 29.031125 L 105.734266 27.762374 L 106.573427 29.258808 L 107.412587 30.030149 L 108.251748 8.800000 L 109.090909 32.036606 L 109.930070 35.237428 L 110.769231 29.693314 L 111.608392 28.746845 L 112.447552 26.797956 L 113.286713 28.127346 L 114.125874 28.329641 L 114.965035 34.146555 L 115.804196 33.379418 L 116.643357 36.800000 L 117.482517 32.644785 L 118.321678 34.047105 L 119.160839 33.886530 L 120.000000 35.131025"></path>
      <path stroke="none" fill-opacity="0.6" fill="url(#color_grad)" d="M 0 40 L 0.000000 17.371749 L 0.839161 17.458262 L 1.678322 22.238635 L 2.517483 22.577734 L 3.356643 23.462755 L 4.195804 23.337756 L 5.034965 20.259345 L 5.874126 20.118660 L 6.713287 21.305102 L 7.552448 16.015029 L 8.391608 16.233495 L 9.230769 15.093140 L 10.069930 16.163638 L 10.909091 15.240131 L 11.748252 15.654424 L 12.587413 16.025055 L 13.426573 16.278611 L 14.265734 15.447277 L 15.104895 14.409444 L 15.944056 14.538809 L 16.783217 15.497245 L 17.622378 20.623994 L 18.461538 13.864007 L 19.300699 20.493497 L 20.139860 20.610734 L 20.979021 20.726354 L 21.818182 20.304300 L 22.657343 20.336803 L 23.496503 20.716813 L 24.335664 21.046048 L 25.174825 21.681879 L 26.013986 19.166046 L 26.853147 21.648891 L 27.692308 21.573212 L 28.531469 21.010149 L 29.370629 20.818527 L 30.209790 20.259345 L 31.048951 22.371558 L 31.888112 16.408624 L 32.727273 17.010173 L 33.566434 15.614320 L 34.405594 15.910244 L 35.244755 16.709398 L 36.083916 17.968446 L 36.923077 15.310150 L 37.762238 13.056120 L 38.601399 12.092187 L 39.440559 12.477210 L 40.279720 17.295423 L 41.118881 17.868673 L 41.958042 17.142287 L 42.797203 10.564220 L 43.636364 12.149916 L 44.475524 9.649607 L 45.314685 12.090246 L 46.153846 12.451661 L 46.993007 15.336508 L 47.832168 16.862373 L 48.671329 16.167681 L 49.510490 16.463442 L 50.349650 16.487213 L 51.188811 17.061595 L 52.027972 16.116258 L 52.867133 15.806590 L 53.706294 17.566282 L 54.545455 18.740272 L 55.384615 17.643901 L 56.223776 17.924786 L 57.062937 19.154727 L 57.902098 23.165376 L 58.741259 26.108923 L 59.580420 26.107791 L 60.419580 24.147583 L 61.258741 22.341157 L 62.097902 23.220842 L 62.937063 25.507860 L 63.776224 27.498307 L 64.615385 31.169696 L 65.454545 33.878122 L 66.293706 25.240882 L 67.132867 24.455634 L 67.972028 25.334025 L 68.811189 24.800393 L 69.650350 27.318975 L 70.489510 21.812861 L 71.328671 19.365754 L 72.167832 19.337294 L 73.006993 19.337294 L 73.846154 24.029699 L 74.685315 21.345529 L 75.524476 19.772931 L 76.363636 22.852150 L 77.202797 25.616850 L 78.041958 28.568482 L 78.881119 27.065095 L 79.720280 25.881402 L 80.559441 24.106671 L 81.398601 24.873161 L 82.237762 23.283260 L 83.076923 23.951433 L 83.916084 26.438158 L 84.755245 22.797817 L 85.594406 21.716161 L 86.433566 22.353447 L 87.272727 21.950312 L 88.111888 25.590168 L 88.951049 21.402288 L 89.790210 21.270335 L 90.629371 23.135461 L 91.468531 23.962105 L 92.307692 23.675723 L 93.146853 23.698200 L 93.986014 23.738141 L 94.825175 23.591473 L 95.664336 24.119931 L 96.503497 24.177499 L 97.342657 24.010455 L 98.181818 20.184475 L 99.020979 19.779400 L 99.860140 23.291184 L 100.699301 20.246085 L 101.538462 23.640147 L 102.377622 23.626725 L 103.216783 23.495258 L 104.055944 29.856314 L 104.895105 29.031125 L 105.734266 27.762374 L 106.573427 29.258808 L 107.412587 30.030149 L 108.251748 8.800000 L 109.090909 32.036606 L 109.930070 35.237428 L 110.769231 29.693314 L 111.608392 28.746845 L 112.447552 26.797956 L 113.286713 28.127346 L 114.125874 28.329641 L 114.965035 34.146555 L 115.804196 33.379418 L 116.643357 36.800000 L 117.482517 32.644785 L 118.321678 34.047105 L 119.160839 33.886530 L 120.000000 35.131025 L 120 40 Z"></path>
    </g>
  </svg>