<svg xmlns="http://www.w3.org/2000/svg" viewBox="0 0 120 40" width="120" height="40">
    <defs>
      <linearGradient id="color_grad" x1="0%" x2="0%" y1="0%" y2="100%">
        <stop offset="0%" style="stop-color:#EA3943;stop-opacity:0.4;"></stop>
        <stop offset="100%" style="stop-color:#EA3943;stop-opacity:0.0;"></stop>
      </linearGradient>
    </defs>
    <g>
      <path stroke="#EA3943" stroke-width="2" stroke-linecap="round" stroke-linejoin="round" fill="none" d="M 0.000000 18.456366 L 0.839161 18.456366 L 1.678322 18.456366 L 2.517483 18.456366 L 3.356643 18.456366 L 4.195804 18.456366 L 5.034965 18.456366 L 5.874126 18.456366 L 6.713287 18.456366 L 7.552448 18.456366 L 8.391608 18.456366 L 9.230769 18.456366 L 10.069930 18.456366 L 10.909091 18.456366 L 11.748252 18.456366 L 12.587413 18.456366 L 13.426573 18.456366 L 14.265734 18.456366 L 15.104895 18.456366 L 15.944056 18.456366 L 16.783217 18.456366 L 17.622378 18.456366 L 18.461538 18.456366 L 19.300699 18.456366 L 20.139860 18.456366 L 20.979021 18.456366 L 21.818182 18.456366 L 22.657343 18.456366 L 23.496503 18.456366 L 24.335664 18.456366 L 25.174825 18.456366 L 26.013986 18.456366 L 26.853147 18.456366 L 27.692308 18.456366 L 28.531469 18.456366 L 29.370629 18.456366 L 30.209790 18.456366 L 31.048951 18.456366 L 31.888112 18.456366 L 32.727273 18.456366 L 33.566434 18.456366 L 34.405594 18.456366 L 35.244755 18.456366 L 36.083916 18.456366 L 36.923077 18.456366 L 37.762238 18.456366 L 38.601399 18.456366 L 39.440559 18.456366 L 40.279720 18.456366 L 41.118881 18.456366 L 41.958042 18.456366 L 42.797203 18.456366 L 43.636364 18.456366 L 44.475524 18.456366 L 45.314685 18.456366 L 46.153846 18.456366 L 46.993007 18.456366 L 47.832168 18.456366 L 48.671329 18.456366 L 49.510490 18.456366 L 50.349650 18.456366 L 51.188811 18.456366 L 52.027972 18.456366 L 52.867133 18.456366 L 53.706294 18.456366 L 54.545455 18.456366 L 55.384615 18.456366 L 56.223776 18.456366 L 57.062937 18.456366 L 57.902098 18.456366 L 58.741259 18.456366 L 59.580420 18.456366 L 60.419580 18.456366 L 61.258741 18.456366 L 62.097902 18.456366 L 62.937063 18.456366 L 63.776224 18.456366 L 64.615385 18.456366 L 65.454545 18.456366 L 66.293706 18.456366 L 67.132867 18.456366 L 67.972028 18.456366 L 68.811189 18.456366 L 69.650350 18.456366 L 70.489510 18.456366 L 71.328671 18.456366 L 72.167832 18.456366 L 73.006993 18.456366 L 73.846154 18.456366 L 74.685315 18.456366 L 75.524476 18.456366 L 76.363636 18.456366 L 77.202797 18.456366 L 78.041958 18.456366 L 78.881119 18.456366 L 79.720280 18.456366 L 80.559441 14.303090 L 81.398601 14.303090 L 82.237762 14.303090 L 83.076923 13.688086 L 83.916084 13.576267 L 84.755245 12.468727 L 85.594406 12.468727 L 86.433566 12.468727 L 87.272727 11.468165 L 88.111888 10.634363 L 88.951049 14.303090 L 89.790210 10.634363 L 90.629371 10.634363 L 91.468531 10.634363 L 92.307692 10.634363 L 93.146853 10.634363 L 93.986014 10.634363 L 94.825175 12.468727 L 95.664336 8.800000 L 96.503497 14.303090 L 97.342657 14.303090 L 98.181818 14.303090 L 99.020979 14.303090 L 99.860140 14.303090 L 100.699301 14.303090 L 101.538462 11.747228 L 102.377622 18.456366 L 103.216783 22.689512 L 104.055944 31.826235 L 104.895105 33.839944 L 105.734266 33.208239 L 106.573427 32.646724 L 107.412587 33.331676 L 108.251748 18.456366 L 109.090909 35.289718 L 109.930070 34.154586 L 110.769231 34.031150 L 111.608392 34.239297 L 112.447552 34.031150 L 113.286713 35.761681 L 114.125874 36.461155 L 114.965035 35.761681 L 115.804196 36.107787 L 116.643357 36.301413 L 117.482517 35.906901 L 118.321678 36.453894 L 119.160839 36.800000 L 120.000000 36.453894"></path>
      <path stroke="none" fill-opacity="0.6" fill="url(#color_grad)" d="M 0 40 L 0.000000 18.456366 L 0.839161 18.456366 L 1.678322 18.456366 L 2.517483 18.456366 L 3.356643 18.456366 L 4.195804 18.456366 L 5.034965 18.456366 L 5.874126 18.456366 L 6.713287 18.456366 L 7.552448 18.456366 L 8.391608 18.456366 L 9.230769 18.456366 L 10.069930 18.456366 L 10.909091 18.456366 L 11.748252 18.456366 L 12.587413 18.456366 L 13.426573 18.456366 L 14.265734 18.456366 L 15.104895 18.456366 L 15.944056 18.456366 L 16.783217 18.456366 L 17.622378 18.456366 L 18.461538 18.456366 L 19.300699 18.456366 L 20.139860 18.456366 L 20.979021 18.456366 L 21.818182 18.456366 L 22.657343 18.456366 L 23.496503 18.456366 L 24.335664 18.456366 L 25.174825 18.456366 L 26.013986 18.456366 L 26.853147 18.456366 L 27.692308 18.456366 L 28.531469 18.456366 L 29.370629 18.456366 L 30.209790 18.456366 L 31.048951 18.456366 L 31.888112 18.456366 L 32.727273 18.456366 L 33.566434 18.456366 L 34.405594 18.456366 L 35.244755 18.456366 L 36.083916 18.456366 L 36.923077 18.456366 L 37.762238 18.456366 L 38.601399 18.456366 L 39.440559 18.456366 L 40.279720 18.456366 L 41.118881 18.456366 L 41.958042 18.456366 L 42.797203 18.456366 L 43.636364 18.456366 L 44.475524 18.456366 L 45.314685 18.456366 L 46.153846 18.456366 L 46.993007 18.456366 L 47.832168 18.456366 L 48.671329 18.456366 L 49.510490 18.456366 L 50.349650 18.456366 L 51.188811 18.456366 L 52.027972 18.456366 L 52.867133 18.456366 L 53.706294 18.456366 L 54.545455 18.456366 L 55.384615 18.456366 L 56.223776 18.456366 L 57.062937 18.456366 L 57.902098 18.456366 L 58.741259 18.456366 L 59.580420 18.456366 L 60.419580 18.456366 L 61.258741 18.456366 L 62.097902 18.456366 L 62.937063 18.456366 L 63.776224 18.456366 L 64.615385 18.456366 L 65.454545 18.456366 L 66.293706 18.456366 L 67.132867 18.456366 L 67.972028 18.456366 L 68.811189 18.456366 L 69.650350 18.456366 L 70.489510 18.456366 L 71.328671 18.456366 L 72.167832 18.456366 L 73.006993 18.456366 L 73.846154 18.456366 L 74.685315 18.456366 L 75.524476 18.456366 L 76.363636 18.456366 L 77.202797 18.456366 L 78.041958 18.456366 L 78.881119 18.456366 L 79.720280 18.456366 L 80.559441 14.303090 L 81.398601 14.303090 L 82.237762 14.303090 L 83.076923 13.688086 L 83.916084 13.576267 L 84.755245 12.468727 L 85.594406 12.468727 L 86.433566 12.468727 L 87.272727 11.468165 L 88.111888 10.634363 L 88.951049 14.303090 L 89.790210 10.634363 L 90.629371 10.634363 L 91.468531 10.634363 L 92.307692 10.634363 L 93.146853 10.634363 L 93.986014 10.634363 L 94.825175 12.468727 L 95.664336 8.800000 L 96.503497 14.303090 L 97.342657 14.303090 L 98.181818 14.303090 L 99.020979 14.303090 L 99.860140 14.303090 L 100.699301 14.303090 L 101.538462 11.747228 L 102.377622 18.456366 L 103.216783 22.689512 L 104.055944 31.826235 L 104.895105 33.839944 L 105.734266 33.208239 L 106.573427 32.646724 L 107.412587 33.331676 L 108.251748 18.456366 L 109.090909 35.289718 L 109.930070 34.154586 L 110.769231 34.031150 L 111.608392 34.239297 L 112.447552 34.031150 L 113.286713 35.761681 L 114.125874 36.461155 L 114.965035 35.761681 L 115.804196 36.107787 L 116.643357 36.301413 L 117.482517 35.906901 L 118.321678 36.453894 L 119.160839 36.800000 L 120.000000 36.453894 L 120 40 Z"></path>
    </g>
  </svg>