<svg xmlns="http://www.w3.org/2000/svg" viewBox="0 0 120 40" width="120" height="40">
    <defs>
      <linearGradient id="color_grad" x1="0%" x2="0%" y1="0%" y2="100%">
        <stop offset="0%" style="stop-color:#EA3943;stop-opacity:0.4;"></stop>
        <stop offset="100%" style="stop-color:#EA3943;stop-opacity:0.0;"></stop>
      </linearGradient>
    </defs>
    <g>
      <path stroke="#EA3943" stroke-width="2" stroke-linecap="round" stroke-linejoin="round" fill="none" d="M 0.000000 25.445243 L 0.839161 25.213183 L 1.678322 25.577707 L 2.517483 25.700355 L 3.356643 26.022444 L 4.195804 25.978330 L 5.034965 25.766214 L 5.874126 25.896503 L 6.713287 26.310050 L 7.552448 26.174417 L 8.391608 26.244688 L 9.230769 25.858044 L 10.069930 26.225240 L 10.909091 25.908060 L 11.748252 26.040400 L 12.587413 26.178828 L 13.426573 26.261898 L 14.265734 25.976342 L 15.104895 25.617720 L 15.944056 25.668916 L 16.783217 25.446362 L 17.622378 25.133841 L 18.461538 24.877984 L 19.300699 24.940736 L 20.139860 24.983856 L 20.979021 25.028217 L 21.818182 24.877425 L 22.657343 24.887490 L 23.496503 25.025359 L 24.335664 25.141731 L 25.174825 25.377644 L 26.013986 25.611258 L 26.853147 25.360310 L 27.692308 25.335892 L 28.531469 25.132971 L 29.370629 25.063694 L 30.209790 24.857418 L 31.048951 25.621758 L 31.888112 25.638223 L 32.727273 25.844251 L 33.566434 25.365280 L 34.405594 25.194667 L 35.244755 25.477303 L 36.083916 24.598330 L 36.923077 24.454931 L 37.762238 23.574468 L 38.601399 23.194224 L 39.440559 23.168625 L 40.279720 23.825478 L 41.118881 23.713145 L 41.958042 23.446788 L 42.797203 23.721035 L 43.636364 23.408204 L 44.475524 23.321779 L 45.314685 22.880833 L 46.153846 22.859087 L 46.993007 23.358685 L 47.832168 23.348185 L 48.671329 23.096056 L 49.510490 23.197144 L 50.349650 23.209446 L 51.188811 23.416405 L 52.027972 22.495929 L 52.867133 22.386143 L 53.706294 22.739484 L 54.545455 22.880771 L 55.384615 22.484559 L 56.223776 22.396767 L 57.062937 22.745200 L 57.902098 22.910967 L 58.741259 23.304445 L 59.580420 23.302767 L 60.419580 22.548989 L 61.258741 21.854920 L 62.097902 22.192914 L 62.937063 22.160482 L 63.776224 22.308230 L 64.615385 22.830382 L 65.454545 23.293509 L 66.293706 23.271142 L 67.132867 22.969432 L 67.972028 23.306930 L 68.811189 23.101896 L 69.650350 24.069592 L 70.489510 24.161174 L 71.328671 23.688106 L 72.167832 23.677171 L 73.006993 23.677171 L 73.846154 24.280653 L 74.685315 23.663812 L 75.524476 23.556574 L 76.363636 22.598073 L 77.202797 23.536008 L 78.041958 24.545581 L 78.881119 23.455051 L 79.720280 23.455051 L 80.559441 15.893166 L 81.398601 16.373566 L 82.237762 15.685523 L 83.076923 15.364428 L 83.916084 15.379153 L 84.755245 12.831767 L 85.594406 12.967524 L 86.433566 13.245003 L 87.272727 12.142295 L 88.111888 11.573110 L 88.951049 14.544729 L 89.790210 11.049839 L 90.629371 11.144962 L 91.468531 11.185161 L 92.307692 11.062825 L 93.146853 10.885129 L 93.986014 10.731851 L 94.825175 12.105886 L 95.664336 8.800000 L 96.503497 14.009591 L 97.342657 13.589770 L 98.181818 13.580823 L 99.020979 12.975415 L 99.860140 13.255441 L 100.699301 13.022324 L 101.538462 14.829291 L 102.377622 21.096109 L 103.216783 24.847167 L 104.055944 33.290323 L 104.895105 34.826148 L 105.734266 33.514245 L 106.573427 33.302004 L 107.412587 34.168985 L 108.251748 20.107164 L 109.090909 36.052063 L 109.930070 34.745191 L 110.769231 34.159168 L 111.608392 34.045530 L 112.447552 33.220798 L 113.286713 35.018818 L 114.125874 35.704065 L 114.965035 35.315433 L 115.804196 35.765823 L 116.643357 36.137183 L 117.482517 35.499155 L 118.321678 36.453183 L 119.160839 36.716495 L 120.000000 36.800000"></path>
      <path stroke="none" fill-opacity="0.6" fill="url(#color_grad)" d="M 0 40 L 0.000000 25.445243 L 0.839161 25.213183 L 1.678322 25.577707 L 2.517483 25.700355 L 3.356643 26.022444 L 4.195804 25.978330 L 5.034965 25.766214 L 5.874126 25.896503 L 6.713287 26.310050 L 7.552448 26.174417 L 8.391608 26.244688 L 9.230769 25.858044 L 10.069930 26.225240 L 10.909091 25.908060 L 11.748252 26.040400 L 12.587413 26.178828 L 13.426573 26.261898 L 14.265734 25.976342 L 15.104895 25.617720 L 15.944056 25.668916 L 16.783217 25.446362 L 17.622378 25.133841 L 18.461538 24.877984 L 19.300699 24.940736 L 20.139860 24.983856 L 20.979021 25.028217 L 21.818182 24.877425 L 22.657343 24.887490 L 23.496503 25.025359 L 24.335664 25.141731 L 25.174825 25.377644 L 26.013986 25.611258 L 26.853147 25.360310 L 27.692308 25.335892 L 28.531469 25.132971 L 29.370629 25.063694 L 30.209790 24.857418 L 31.048951 25.621758 L 31.888112 25.638223 L 32.727273 25.844251 L 33.566434 25.365280 L 34.405594 25.194667 L 35.244755 25.477303 L 36.083916 24.598330 L 36.923077 24.454931 L 37.762238 23.574468 L 38.601399 23.194224 L 39.440559 23.168625 L 40.279720 23.825478 L 41.118881 23.713145 L 41.958042 23.446788 L 42.797203 23.721035 L 43.636364 23.408204 L 44.475524 23.321779 L 45.314685 22.880833 L 46.153846 22.859087 L 46.993007 23.358685 L 47.832168 23.348185 L 48.671329 23.096056 L 49.510490 23.197144 L 50.349650 23.209446 L 51.188811 23.416405 L 52.027972 22.495929 L 52.867133 22.386143 L 53.706294 22.739484 L 54.545455 22.880771 L 55.384615 22.484559 L 56.223776 22.396767 L 57.062937 22.745200 L 57.902098 22.910967 L 58.741259 23.304445 L 59.580420 23.302767 L 60.419580 22.548989 L 61.258741 21.854920 L 62.097902 22.192914 L 62.937063 22.160482 L 63.776224 22.308230 L 64.615385 22.830382 L 65.454545 23.293509 L 66.293706 23.271142 L 67.132867 22.969432 L 67.972028 23.306930 L 68.811189 23.101896 L 69.650350 24.069592 L 70.489510 24.161174 L 71.328671 23.688106 L 72.167832 23.677171 L 73.006993 23.677171 L 73.846154 24.280653 L 74.685315 23.663812 L 75.524476 23.556574 L 76.363636 22.598073 L 77.202797 23.536008 L 78.041958 24.545581 L 78.881119 23.455051 L 79.720280 23.455051 L 80.559441 15.893166 L 81.398601 16.373566 L 82.237762 15.685523 L 83.076923 15.364428 L 83.916084 15.379153 L 84.755245 12.831767 L 85.594406 12.967524 L 86.433566 13.245003 L 87.272727 12.142295 L 88.111888 11.573110 L 88.951049 14.544729 L 89.790210 11.049839 L 90.629371 11.144962 L 91.468531 11.185161 L 92.307692 11.062825 L 93.146853 10.885129 L 93.986014 10.731851 L 94.825175 12.105886 L 95.664336 8.800000 L 96.503497 14.009591 L 97.342657 13.589770 L 98.181818 13.580823 L 99.020979 12.975415 L 99.860140 13.255441 L 100.699301 13.022324 L 101.538462 14.829291 L 102.377622 21.096109 L 103.216783 24.847167 L 104.055944 33.290323 L 104.895105 34.826148 L 105.734266 33.514245 L 106.573427 33.302004 L 107.412587 34.168985 L 108.251748 20.107164 L 109.090909 36.052063 L 109.930070 34.745191 L 110.769231 34.159168 L 111.608392 34.045530 L 112.447552 33.220798 L 113.286713 35.018818 L 114.125874 35.704065 L 114.965035 35.315433 L 115.804196 35.765823 L 116.643357 36.137183 L 117.482517 35.499155 L 118.321678 36.453183 L 119.160839 36.716495 L 120.000000 36.800000 L 120 40 Z"></path>
    </g>
  </svg>