<svg xmlns="http://www.w3.org/2000/svg" viewBox="0 0 120 40" width="120" height="40">
    <defs>
      <linearGradient id="color_grad" x1="0%" x2="0%" y1="0%" y2="100%">
        <stop offset="0%" style="stop-color:#EA3943;stop-opacity:0.4;"></stop>
        <stop offset="100%" style="stop-color:#EA3943;stop-opacity:0.0;"></stop>
      </linearGradient>
    </defs>
    <g>
      <path stroke="#EA3943" stroke-width="2" stroke-linecap="round" stroke-linejoin="round" fill="none" d="M 0.000000 11.060165 L 0.839161 11.060165 L 1.678322 11.060165 L 2.517483 11.060165 L 3.356643 10.542404 L 4.195804 10.134667 L 5.034965 10.134667 L 5.874126 10.134667 L 6.713287 10.134667 L 7.552448 10.134667 L 8.391608 10.134667 L 9.230769 10.134667 L 10.069930 10.134667 L 10.909091 10.134667 L 11.748252 10.134667 L 12.587413 10.134667 L 13.426573 10.134667 L 14.265734 8.800000 L 15.104895 8.800000 L 15.944056 10.748418 L 16.783217 10.748418 L 17.622378 10.748418 L 18.461538 10.748418 L 19.300699 10.748418 L 20.139860 10.748418 L 20.979021 10.748418 L 21.818182 12.696837 L 22.657343 12.696837 L 23.496503 12.696837 L 24.335664 15.624915 L 25.174825 15.716886 L 26.013986 17.992311 L 26.853147 19.519708 L 27.692308 20.490511 L 28.531469 20.490511 L 29.370629 20.587932 L 30.209790 20.587932 L 31.048951 20.570900 L 31.888112 20.521168 L 32.727273 20.543650 L 33.566434 18.232117 L 34.405594 19.587835 L 35.244755 20.575669 L 36.083916 20.627445 L 36.923077 25.458978 L 37.762238 22.557470 L 38.601399 15.814307 L 39.440559 15.814307 L 40.279720 17.665304 L 41.118881 17.665304 L 41.958042 17.665304 L 42.797203 17.665304 L 43.636364 17.798151 L 44.475524 23.023455 L 45.314685 23.023455 L 46.153846 23.023455 L 46.993007 23.023455 L 47.832168 23.023455 L 48.671329 23.023455 L 49.510490 23.023455 L 50.349650 23.023455 L 51.188811 23.023455 L 52.027972 23.023455 L 52.867133 23.023455 L 53.706294 23.023455 L 54.545455 23.218297 L 55.384615 23.218297 L 56.223776 23.218297 L 57.062937 24.484769 L 57.902098 24.484769 L 58.741259 24.484769 L 59.580420 23.368175 L 60.419580 23.231922 L 61.258741 26.433187 L 62.097902 29.258394 L 62.937063 29.258394 L 63.776224 29.258394 L 64.615385 29.258394 L 65.454545 29.258394 L 66.293706 26.827640 L 67.132867 27.407397 L 67.972028 27.471436 L 68.811189 27.797080 L 69.650350 27.856350 L 70.489510 27.894501 L 71.328671 27.797080 L 72.167832 27.797080 L 73.006993 27.797080 L 73.846154 28.284185 L 74.685315 28.284185 L 75.524476 28.284185 L 76.363636 28.355036 L 77.202797 28.381606 L 78.041958 29.355815 L 78.881119 29.384428 L 79.720280 29.550657 L 80.559441 29.550657 L 81.398601 29.495474 L 82.237762 29.453236 L 83.076923 29.453236 L 83.916084 29.549294 L 84.755245 29.550657 L 85.594406 29.550657 L 86.433566 29.550657 L 87.272727 29.550657 L 88.111888 29.550657 L 88.951049 29.550657 L 89.790210 29.550657 L 90.629371 29.550657 L 91.468531 29.550657 L 92.307692 29.550657 L 93.146853 29.550657 L 93.986014 29.550657 L 94.825175 29.550657 L 95.664336 29.550657 L 96.503497 29.550657 L 97.342657 29.550657 L 98.181818 29.160973 L 99.020979 28.479027 L 99.860140 28.479027 L 100.699301 28.479027 L 101.538462 32.181022 L 102.377622 35.103650 L 103.216783 33.252652 L 104.055944 34.220730 L 104.895105 36.800000 L 105.734266 36.564964 L 106.573427 35.103650 L 107.412587 35.103650 L 108.251748 29.258394 L 109.090909 35.103650 L 109.930070 35.103650 L 110.769231 35.103650 L 111.608392 35.103650 L 112.447552 35.103650 L 113.286713 35.103650 L 114.125874 35.103650 L 114.965035 35.103650 L 115.804196 35.103650 L 116.643357 35.243990 L 117.482517 35.298491 L 118.321678 35.298491 L 119.160839 35.298491 L 120.000000 35.298491"></path>
      <path stroke="none" fill-opacity="0.6" fill="url(#color_grad)" d="M 0 40 L 0.000000 11.060165 L 0.839161 11.060165 L 1.678322 11.060165 L 2.517483 11.060165 L 3.356643 10.542404 L 4.195804 10.134667 L 5.034965 10.134667 L 5.874126 10.134667 L 6.713287 10.134667 L 7.552448 10.134667 L 8.391608 10.134667 L 9.230769 10.134667 L 10.069930 10.134667 L 10.909091 10.134667 L 11.748252 10.134667 L 12.587413 10.134667 L 13.426573 10.134667 L 14.265734 8.800000 L 15.104895 8.800000 L 15.944056 10.748418 L 16.783217 10.748418 L 17.622378 10.748418 L 18.461538 10.748418 L 19.300699 10.748418 L 20.139860 10.748418 L 20.979021 10.748418 L 21.818182 12.696837 L 22.657343 12.696837 L 23.496503 12.696837 L 24.335664 15.624915 L 25.174825 15.716886 L 26.013986 17.992311 L 26.853147 19.519708 L 27.692308 20.490511 L 28.531469 20.490511 L 29.370629 20.587932 L 30.209790 20.587932 L 31.048951 20.570900 L 31.888112 20.521168 L 32.727273 20.543650 L 33.566434 18.232117 L 34.405594 19.587835 L 35.244755 20.575669 L 36.083916 20.627445 L 36.923077 25.458978 L 37.762238 22.557470 L 38.601399 15.814307 L 39.440559 15.814307 L 40.279720 17.665304 L 41.118881 17.665304 L 41.958042 17.665304 L 42.797203 17.665304 L 43.636364 17.798151 L 44.475524 23.023455 L 45.314685 23.023455 L 46.153846 23.023455 L 46.993007 23.023455 L 47.832168 23.023455 L 48.671329 23.023455 L 49.510490 23.023455 L 50.349650 23.023455 L 51.188811 23.023455 L 52.027972 23.023455 L 52.867133 23.023455 L 53.706294 23.023455 L 54.545455 23.218297 L 55.384615 23.218297 L 56.223776 23.218297 L 57.062937 24.484769 L 57.902098 24.484769 L 58.741259 24.484769 L 59.580420 23.368175 L 60.419580 23.231922 L 61.258741 26.433187 L 62.097902 29.258394 L 62.937063 29.258394 L 63.776224 29.258394 L 64.615385 29.258394 L 65.454545 29.258394 L 66.293706 26.827640 L 67.132867 27.407397 L 67.972028 27.471436 L 68.811189 27.797080 L 69.650350 27.856350 L 70.489510 27.894501 L 71.328671 27.797080 L 72.167832 27.797080 L 73.006993 27.797080 L 73.846154 28.284185 L 74.685315 28.284185 L 75.524476 28.284185 L 76.363636 28.355036 L 77.202797 28.381606 L 78.041958 29.355815 L 78.881119 29.384428 L 79.720280 29.550657 L 80.559441 29.550657 L 81.398601 29.495474 L 82.237762 29.453236 L 83.076923 29.453236 L 83.916084 29.549294 L 84.755245 29.550657 L 85.594406 29.550657 L 86.433566 29.550657 L 87.272727 29.550657 L 88.111888 29.550657 L 88.951049 29.550657 L 89.790210 29.550657 L 90.629371 29.550657 L 91.468531 29.550657 L 92.307692 29.550657 L 93.146853 29.550657 L 93.986014 29.550657 L 94.825175 29.550657 L 95.664336 29.550657 L 96.503497 29.550657 L 97.342657 29.550657 L 98.181818 29.160973 L 99.020979 28.479027 L 99.860140 28.479027 L 100.699301 28.479027 L 101.538462 32.181022 L 102.377622 35.103650 L 103.216783 33.252652 L 104.055944 34.220730 L 104.895105 36.800000 L 105.734266 36.564964 L 106.573427 35.103650 L 107.412587 35.103650 L 108.251748 29.258394 L 109.090909 35.103650 L 109.930070 35.103650 L 110.769231 35.103650 L 111.608392 35.103650 L 112.447552 35.103650 L 113.286713 35.103650 L 114.125874 35.103650 L 114.965035 35.103650 L 115.804196 35.103650 L 116.643357 35.243990 L 117.482517 35.298491 L 118.321678 35.298491 L 119.160839 35.298491 L 120.000000 35.298491 L 120 40 Z"></path>
    </g>
  </svg>