<svg xmlns="http://www.w3.org/2000/svg" viewBox="0 0 120 40" width="120" height="40">
    <defs>
      <linearGradient id="color_grad" x1="0%" x2="0%" y1="0%" y2="100%">
        <stop offset="0%" style="stop-color:#16C784;stop-opacity:0.4;"></stop>
        <stop offset="100%" style="stop-color:#16C784;stop-opacity:0.0;"></stop>
      </linearGradient>
    </defs>
    <g>
      <path stroke="#16C784" stroke-width="2" stroke-linecap="round" stroke-linejoin="round" fill="none" d="M 0.000000 19.994002 L 0.839161 18.602249 L 1.678322 20.793196 L 2.517483 21.508109 L 3.356643 22.811315 L 4.195804 22.066886 L 5.034965 20.782667 L 5.874126 21.549950 L 6.713287 24.042341 L 7.552448 23.235487 L 8.391608 23.620638 L 9.230769 21.331115 L 10.069930 23.513903 L 10.909091 21.625149 L 11.748252 22.437815 L 12.587413 23.239280 L 13.426573 23.758661 L 14.265734 20.475659 L 15.104895 18.341548 L 15.944056 20.939552 L 16.783217 19.621725 L 17.622378 17.800037 L 18.461538 16.264797 L 19.300699 16.638820 L 20.139860 16.903189 L 20.979021 17.161046 L 21.818182 18.611306 L 22.657343 18.672358 L 23.496503 19.460175 L 24.335664 23.670987 L 25.174825 25.159919 L 26.013986 29.212125 L 26.853147 29.596054 L 27.692308 30.588808 L 28.531469 29.463620 L 29.370629 29.162550 L 30.209790 27.958495 L 31.048951 32.339116 L 31.888112 32.380932 L 32.727273 33.583215 L 33.566434 28.072715 L 34.405594 28.717794 L 35.244755 31.519812 L 36.083916 26.565420 L 36.923077 31.574902 L 37.762238 23.020370 L 38.601399 12.556899 L 39.440559 12.411716 L 40.279720 18.510184 L 41.118881 17.869173 L 41.958042 16.308634 L 42.797203 17.884891 L 43.636364 16.245511 L 44.475524 22.205208 L 45.314685 19.690662 L 46.153846 19.586995 L 46.993007 22.395700 L 47.832168 22.355007 L 48.671329 20.911708 L 49.510490 21.510679 L 50.349650 21.555289 L 51.188811 22.739808 L 52.027972 17.527409 L 52.867133 16.909826 L 53.706294 18.918164 L 54.545455 19.957026 L 55.384615 17.691380 L 56.223776 17.205631 L 57.062937 20.759039 L 57.902098 21.684155 L 58.741259 23.915820 L 59.580420 22.532800 L 60.419580 18.098412 L 61.258741 18.191674 L 62.097902 23.661805 L 62.937063 23.476677 L 63.776224 24.285427 L 64.615385 27.176317 L 65.454545 29.754610 L 66.293706 26.628842 L 67.132867 25.640279 L 67.972028 27.596772 L 68.811189 26.871854 L 69.650350 32.342234 L 70.489510 32.888686 L 71.328671 30.142530 L 72.167832 30.080255 L 73.006993 30.080255 L 73.846154 34.022158 L 74.685315 30.596767 L 75.524476 30.021374 L 76.363636 24.776515 L 77.202797 30.016134 L 78.041958 36.800000 L 78.881119 30.838931 L 79.720280 31.328996 L 80.559441 30.170624 L 81.398601 32.448421 L 82.237762 29.022731 L 83.076923 30.181801 L 83.916084 30.883017 L 84.755245 23.517520 L 85.594406 24.187998 L 86.433566 25.530076 L 87.272727 24.695752 L 88.111888 25.683143 L 88.951049 23.508888 L 89.790210 23.231670 L 90.629371 23.624056 L 91.468531 23.872233 L 92.307692 23.275033 L 93.146853 22.421174 L 93.986014 21.704489 L 94.825175 20.012415 L 95.664336 20.777527 L 96.503497 20.888879 L 97.342657 18.806838 L 98.181818 18.251280 L 99.020979 14.399371 L 99.860140 14.058207 L 100.699301 8.800000 L 101.538462 21.365421 L 102.377622 25.057251 L 103.216783 22.399892 L 104.055944 25.213811 L 104.895105 26.692040 L 105.734266 21.297358 L 106.573427 21.405790 L 107.412587 23.097989 L 108.251748 12.087593 L 109.090909 23.967591 L 109.930070 21.993708 L 110.769231 18.666495 L 111.608392 16.515892 L 112.447552 12.083002 L 113.286713 13.436032 L 114.125874 13.721109 L 114.965035 15.581446 L 115.804196 16.504740 L 116.643357 18.121590 L 117.482517 16.186704 L 118.321678 19.474272 L 119.160839 19.062749 L 120.000000 22.006258"></path>
      <path stroke="none" fill-opacity="0.6" fill="url(#color_grad)" d="M 0 40 L 0.000000 19.994002 L 0.839161 18.602249 L 1.678322 20.793196 L 2.517483 21.508109 L 3.356643 22.811315 L 4.195804 22.066886 L 5.034965 20.782667 L 5.874126 21.549950 L 6.713287 24.042341 L 7.552448 23.235487 L 8.391608 23.620638 L 9.230769 21.331115 L 10.069930 23.513903 L 10.909091 21.625149 L 11.748252 22.437815 L 12.587413 23.239280 L 13.426573 23.758661 L 14.265734 20.475659 L 15.104895 18.341548 L 15.944056 20.939552 L 16.783217 19.621725 L 17.622378 17.800037 L 18.461538 16.264797 L 19.300699 16.638820 L 20.139860 16.903189 L 20.979021 17.161046 L 21.818182 18.611306 L 22.657343 18.672358 L 23.496503 19.460175 L 24.335664 23.670987 L 25.174825 25.159919 L 26.013986 29.212125 L 26.853147 29.596054 L 27.692308 30.588808 L 28.531469 29.463620 L 29.370629 29.162550 L 30.209790 27.958495 L 31.048951 32.339116 L 31.888112 32.380932 L 32.727273 33.583215 L 33.566434 28.072715 L 34.405594 28.717794 L 35.244755 31.519812 L 36.083916 26.565420 L 36.923077 31.574902 L 37.762238 23.020370 L 38.601399 12.556899 L 39.440559 12.411716 L 40.279720 18.510184 L 41.118881 17.869173 L 41.958042 16.308634 L 42.797203 17.884891 L 43.636364 16.245511 L 44.475524 22.205208 L 45.314685 19.690662 L 46.153846 19.586995 L 46.993007 22.395700 L 47.832168 22.355007 L 48.671329 20.911708 L 49.510490 21.510679 L 50.349650 21.555289 L 51.188811 22.739808 L 52.027972 17.527409 L 52.867133 16.909826 L 53.706294 18.918164 L 54.545455 19.957026 L 55.384615 17.691380 L 56.223776 17.205631 L 57.062937 20.759039 L 57.902098 21.684155 L 58.741259 23.915820 L 59.580420 22.532800 L 60.419580 18.098412 L 61.258741 18.191674 L 62.097902 23.661805 L 62.937063 23.476677 L 63.776224 24.285427 L 64.615385 27.176317 L 65.454545 29.754610 L 66.293706 26.628842 L 67.132867 25.640279 L 67.972028 27.596772 L 68.811189 26.871854 L 69.650350 32.342234 L 70.489510 32.888686 L 71.328671 30.142530 L 72.167832 30.080255 L 73.006993 30.080255 L 73.846154 34.022158 L 74.685315 30.596767 L 75.524476 30.021374 L 76.363636 24.776515 L 77.202797 30.016134 L 78.041958 36.800000 L 78.881119 30.838931 L 79.720280 31.328996 L 80.559441 30.170624 L 81.398601 32.448421 L 82.237762 29.022731 L 83.076923 30.181801 L 83.916084 30.883017 L 84.755245 23.517520 L 85.594406 24.187998 L 86.433566 25.530076 L 87.272727 24.695752 L 88.111888 25.683143 L 88.951049 23.508888 L 89.790210 23.231670 L 90.629371 23.624056 L 91.468531 23.872233 L 92.307692 23.275033 L 93.146853 22.421174 L 93.986014 21.704489 L 94.825175 20.012415 L 95.664336 20.777527 L 96.503497 20.888879 L 97.342657 18.806838 L 98.181818 18.251280 L 99.020979 14.399371 L 99.860140 14.058207 L 100.699301 8.800000 L 101.538462 21.365421 L 102.377622 25.057251 L 103.216783 22.399892 L 104.055944 25.213811 L 104.895105 26.692040 L 105.734266 21.297358 L 106.573427 21.405790 L 107.412587 23.097989 L 108.251748 12.087593 L 109.090909 23.967591 L 109.930070 21.993708 L 110.769231 18.666495 L 111.608392 16.515892 L 112.447552 12.083002 L 113.286713 13.436032 L 114.125874 13.721109 L 114.965035 15.581446 L 115.804196 16.504740 L 116.643357 18.121590 L 117.482517 16.186704 L 118.321678 19.474272 L 119.160839 19.062749 L 120.000000 22.006258 L 120 40 Z"></path>
    </g>
  </svg>