<svg xmlns="http://www.w3.org/2000/svg" viewBox="0 0 120 40" width="120" height="40">
    <defs>
      <linearGradient id="color_grad" x1="0%" x2="0%" y1="0%" y2="100%">
        <stop offset="0%" style="stop-color:#EA3943;stop-opacity:0.4;"></stop>
        <stop offset="100%" style="stop-color:#EA3943;stop-opacity:0.0;"></stop>
      </linearGradient>
    </defs>
    <g>
      <path stroke="#EA3943" stroke-width="2" stroke-linecap="round" stroke-linejoin="round" fill="none" d="M 0.000000 19.541955 L 0.839161 19.280468 L 1.678322 18.795706 L 2.517483 18.578571 L 3.356643 19.855981 L 4.195804 20.780169 L 5.034965 21.310496 L 5.874126 21.458867 L 6.713287 21.574257 L 7.552448 21.426342 L 8.391608 21.499731 L 9.230769 21.224901 L 10.069930 21.484189 L 10.909091 21.123839 L 11.748252 21.277820 L 12.587413 21.432407 L 13.426573 21.521945 L 14.265734 21.205037 L 15.104895 20.793209 L 15.944056 21.454090 L 16.783217 20.599198 L 17.622378 20.244762 L 18.461538 19.964776 L 19.300699 20.032176 L 20.139860 20.715044 L 20.979021 21.906025 L 21.818182 20.315649 L 22.657343 20.602685 L 23.496503 20.483277 L 24.335664 20.612921 L 25.174825 20.463640 L 26.013986 20.319440 L 26.853147 19.443471 L 27.692308 19.199194 L 28.531469 19.902987 L 29.370629 19.108898 L 30.209790 18.867654 L 31.048951 19.742713 L 31.888112 20.094117 L 32.727273 20.890253 L 33.566434 20.804733 L 34.405594 20.320350 L 35.244755 20.635438 L 36.083916 20.382746 L 36.923077 21.280777 L 37.762238 18.572506 L 38.601399 18.060374 L 39.440559 17.819433 L 40.279720 19.030278 L 41.118881 20.245899 L 41.958042 17.612912 L 42.797203 17.927318 L 43.636364 17.669319 L 44.475524 18.291610 L 45.314685 19.547110 L 46.153846 19.526109 L 46.993007 20.434452 L 47.832168 20.430661 L 48.671329 19.780849 L 49.510490 19.894041 L 50.349650 19.912540 L 51.188811 20.135133 L 52.027972 19.119967 L 52.867133 19.004728 L 53.706294 19.395707 L 54.545455 19.883957 L 55.384615 19.201696 L 56.223776 19.013523 L 57.062937 19.396617 L 57.902098 19.583274 L 58.741259 20.008673 L 59.580420 20.007384 L 60.419580 19.553782 L 61.258741 18.715493 L 62.097902 18.384256 L 62.937063 17.634368 L 63.776224 20.405642 L 64.615385 17.652185 L 65.454545 19.268944 L 66.293706 36.800000 L 67.132867 19.302000 L 67.972028 17.821708 L 68.811189 17.956052 L 69.650350 19.266973 L 70.489510 18.880998 L 71.328671 18.621710 L 72.167832 18.609579 L 73.006993 18.609579 L 73.846154 18.926487 L 74.685315 18.394491 L 75.524476 17.373791 L 76.363636 16.279626 L 77.202797 18.855600 L 78.041958 19.940515 L 78.881119 20.191160 L 79.720280 20.246657 L 80.559441 20.634376 L 81.398601 23.159629 L 82.237762 23.473580 L 83.076923 18.574553 L 83.916084 19.423531 L 84.755245 16.742326 L 85.594406 18.234446 L 86.433566 16.864389 L 87.272727 16.696534 L 88.111888 16.901008 L 88.951049 16.455366 L 89.790210 16.393500 L 90.629371 16.471514 L 91.468531 16.896610 L 92.307692 16.777353 L 93.146853 16.800249 L 93.986014 18.334749 L 94.825175 18.750747 L 95.664336 18.522164 L 96.503497 18.549761 L 97.342657 18.135962 L 98.181818 18.503135 L 99.020979 18.873795 L 99.860140 22.811334 L 100.699301 22.256291 L 101.538462 23.662588 L 102.377622 23.277522 L 103.216783 23.524149 L 104.055944 23.035444 L 104.895105 21.196319 L 105.734266 18.940588 L 106.573427 21.649694 L 107.412587 20.240289 L 108.251748 8.800000 L 109.090909 22.795413 L 109.930070 25.502926 L 110.769231 25.946824 L 111.608392 25.187459 L 112.447552 24.411490 L 113.286713 24.737268 L 114.125874 25.080863 L 114.965035 25.415360 L 115.804196 26.307932 L 116.643357 26.684582 L 117.482517 27.808467 L 118.321678 28.355777 L 119.160839 28.296110 L 120.000000 28.789819"></path>
      <path stroke="none" fill-opacity="0.6" fill="url(#color_grad)" d="M 0 40 L 0.000000 19.541955 L 0.839161 19.280468 L 1.678322 18.795706 L 2.517483 18.578571 L 3.356643 19.855981 L 4.195804 20.780169 L 5.034965 21.310496 L 5.874126 21.458867 L 6.713287 21.574257 L 7.552448 21.426342 L 8.391608 21.499731 L 9.230769 21.224901 L 10.069930 21.484189 L 10.909091 21.123839 L 11.748252 21.277820 L 12.587413 21.432407 L 13.426573 21.521945 L 14.265734 21.205037 L 15.104895 20.793209 L 15.944056 21.454090 L 16.783217 20.599198 L 17.622378 20.244762 L 18.461538 19.964776 L 19.300699 20.032176 L 20.139860 20.715044 L 20.979021 21.906025 L 21.818182 20.315649 L 22.657343 20.602685 L 23.496503 20.483277 L 24.335664 20.612921 L 25.174825 20.463640 L 26.013986 20.319440 L 26.853147 19.443471 L 27.692308 19.199194 L 28.531469 19.902987 L 29.370629 19.108898 L 30.209790 18.867654 L 31.048951 19.742713 L 31.888112 20.094117 L 32.727273 20.890253 L 33.566434 20.804733 L 34.405594 20.320350 L 35.244755 20.635438 L 36.083916 20.382746 L 36.923077 21.280777 L 37.762238 18.572506 L 38.601399 18.060374 L 39.440559 17.819433 L 40.279720 19.030278 L 41.118881 20.245899 L 41.958042 17.612912 L 42.797203 17.927318 L 43.636364 17.669319 L 44.475524 18.291610 L 45.314685 19.547110 L 46.153846 19.526109 L 46.993007 20.434452 L 47.832168 20.430661 L 48.671329 19.780849 L 49.510490 19.894041 L 50.349650 19.912540 L 51.188811 20.135133 L 52.027972 19.119967 L 52.867133 19.004728 L 53.706294 19.395707 L 54.545455 19.883957 L 55.384615 19.201696 L 56.223776 19.013523 L 57.062937 19.396617 L 57.902098 19.583274 L 58.741259 20.008673 L 59.580420 20.007384 L 60.419580 19.553782 L 61.258741 18.715493 L 62.097902 18.384256 L 62.937063 17.634368 L 63.776224 20.405642 L 64.615385 17.652185 L 65.454545 19.268944 L 66.293706 36.800000 L 67.132867 19.302000 L 67.972028 17.821708 L 68.811189 17.956052 L 69.650350 19.266973 L 70.489510 18.880998 L 71.328671 18.621710 L 72.167832 18.609579 L 73.006993 18.609579 L 73.846154 18.926487 L 74.685315 18.394491 L 75.524476 17.373791 L 76.363636 16.279626 L 77.202797 18.855600 L 78.041958 19.940515 L 78.881119 20.191160 L 79.720280 20.246657 L 80.559441 20.634376 L 81.398601 23.159629 L 82.237762 23.473580 L 83.076923 18.574553 L 83.916084 19.423531 L 84.755245 16.742326 L 85.594406 18.234446 L 86.433566 16.864389 L 87.272727 16.696534 L 88.111888 16.901008 L 88.951049 16.455366 L 89.790210 16.393500 L 90.629371 16.471514 L 91.468531 16.896610 L 92.307692 16.777353 L 93.146853 16.800249 L 93.986014 18.334749 L 94.825175 18.750747 L 95.664336 18.522164 L 96.503497 18.549761 L 97.342657 18.135962 L 98.181818 18.503135 L 99.020979 18.873795 L 99.860140 22.811334 L 100.699301 22.256291 L 101.538462 23.662588 L 102.377622 23.277522 L 103.216783 23.524149 L 104.055944 23.035444 L 104.895105 21.196319 L 105.734266 18.940588 L 106.573427 21.649694 L 107.412587 20.240289 L 108.251748 8.800000 L 109.090909 22.795413 L 109.930070 25.502926 L 110.769231 25.946824 L 111.608392 25.187459 L 112.447552 24.411490 L 113.286713 24.737268 L 114.125874 25.080863 L 114.965035 25.415360 L 115.804196 26.307932 L 116.643357 26.684582 L 117.482517 27.808467 L 118.321678 28.355777 L 119.160839 28.296110 L 120.000000 28.789819 L 120 40 Z"></path>
    </g>
  </svg>