<svg xmlns="http://www.w3.org/2000/svg" viewBox="0 0 120 40" width="120" height="40">
    <defs>
      <linearGradient id="color_grad" x1="0%" x2="0%" y1="0%" y2="100%">
        <stop offset="0%" style="stop-color:#EA3943;stop-opacity:0.4;"></stop>
        <stop offset="100%" style="stop-color:#EA3943;stop-opacity:0.0;"></stop>
      </linearGradient>
    </defs>
    <g>
      <path stroke="#EA3943" stroke-width="2" stroke-linecap="round" stroke-linejoin="round" fill="none" d="M 0.000000 13.889184 L 0.839161 13.889184 L 1.678322 12.803728 L 2.517483 12.370733 L 3.356643 13.465085 L 4.195804 14.651375 L 5.034965 15.585578 L 5.874126 15.585578 L 6.713287 15.161479 L 7.552448 15.161479 L 8.391608 15.161479 L 9.230769 15.357217 L 10.069930 15.161479 L 10.909091 15.161479 L 11.748252 15.161479 L 12.587413 15.161479 L 13.426573 15.161479 L 14.265734 15.161479 L 15.104895 15.161479 L 15.944056 15.888082 L 16.783217 15.161479 L 17.622378 15.161479 L 18.461538 15.161479 L 19.300699 15.161479 L 20.139860 15.917739 L 20.979021 17.281973 L 21.818182 15.585578 L 22.657343 15.914774 L 23.496503 15.585578 L 24.335664 15.585578 L 25.174825 15.087336 L 26.013986 14.592060 L 26.853147 13.889184 L 27.692308 13.628200 L 28.531469 14.746278 L 29.370629 13.889184 L 30.209790 13.889184 L 31.048951 13.889184 L 31.888112 14.289556 L 32.727273 14.968707 L 33.566434 15.517366 L 34.405594 15.161479 L 35.244755 15.161479 L 36.083916 16.033403 L 36.923077 17.281973 L 37.762238 15.262314 L 38.601399 15.161479 L 39.440559 14.918290 L 40.279720 15.463983 L 41.118881 17.032852 L 41.958042 14.313282 L 42.797203 14.313282 L 43.636364 14.428945 L 44.475524 15.262314 L 45.314685 17.281973 L 46.153846 17.281973 L 46.993007 17.706071 L 47.832168 17.706071 L 48.671329 17.281973 L 49.510490 17.281973 L 50.349650 17.281973 L 51.188811 17.281973 L 52.027972 17.281973 L 52.867133 17.281973 L 53.706294 17.281973 L 54.545455 17.667517 L 55.384615 17.379842 L 56.223776 17.281973 L 57.062937 17.281973 L 57.902098 17.281973 L 58.741259 17.281973 L 59.580420 17.281973 L 60.419580 17.706071 L 61.258741 17.617100 L 62.097902 16.816354 L 62.937063 16.000780 L 63.776224 18.978367 L 64.615385 15.161479 L 65.454545 16.433775 L 66.293706 36.800000 L 67.132867 16.881600 L 67.972028 14.737381 L 68.811189 15.161479 L 69.650350 15.419498 L 70.489510 14.844147 L 71.328671 15.161479 L 72.167832 15.161479 L 73.006993 15.161479 L 73.846154 14.737381 L 74.685315 14.927187 L 75.524476 13.889184 L 76.363636 13.889184 L 77.202797 15.641927 L 78.041958 15.585578 L 78.881119 17.281973 L 79.720280 17.281973 L 80.559441 18.005609 L 81.398601 20.419709 L 82.237762 21.522959 L 83.076923 15.585578 L 83.916084 16.421912 L 84.755245 15.057679 L 85.594406 16.605787 L 86.433566 14.737381 L 87.272727 14.737381 L 88.111888 14.737381 L 88.951049 14.737381 L 89.790210 14.737381 L 90.629371 14.737381 L 91.468531 15.161479 L 92.307692 15.161479 L 93.146853 15.383909 L 93.986014 17.281973 L 94.825175 18.130170 L 95.664336 17.706071 L 96.503497 17.706071 L 97.342657 17.706071 L 98.181818 18.130170 L 99.020979 19.188934 L 99.860140 23.643452 L 100.699301 24.067551 L 101.538462 24.067551 L 102.377622 23.643452 L 103.216783 23.981545 L 104.055944 23.097759 L 104.895105 21.436953 L 105.734266 20.034165 L 106.573427 22.593586 L 107.412587 20.674762 L 108.251748 8.800000 L 109.090909 23.335017 L 109.930070 26.748566 L 110.769231 27.884438 L 111.608392 27.460340 L 112.447552 27.460340 L 113.286713 27.561174 L 114.125874 27.884438 L 114.965035 27.884438 L 115.804196 28.691116 L 116.643357 28.833470 L 117.482517 30.429030 L 118.321678 30.429030 L 119.160839 30.429030 L 120.000000 30.429030"></path>
      <path stroke="none" fill-opacity="0.6" fill="url(#color_grad)" d="M 0 40 L 0.000000 13.889184 L 0.839161 13.889184 L 1.678322 12.803728 L 2.517483 12.370733 L 3.356643 13.465085 L 4.195804 14.651375 L 5.034965 15.585578 L 5.874126 15.585578 L 6.713287 15.161479 L 7.552448 15.161479 L 8.391608 15.161479 L 9.230769 15.357217 L 10.069930 15.161479 L 10.909091 15.161479 L 11.748252 15.161479 L 12.587413 15.161479 L 13.426573 15.161479 L 14.265734 15.161479 L 15.104895 15.161479 L 15.944056 15.888082 L 16.783217 15.161479 L 17.622378 15.161479 L 18.461538 15.161479 L 19.300699 15.161479 L 20.139860 15.917739 L 20.979021 17.281973 L 21.818182 15.585578 L 22.657343 15.914774 L 23.496503 15.585578 L 24.335664 15.585578 L 25.174825 15.087336 L 26.013986 14.592060 L 26.853147 13.889184 L 27.692308 13.628200 L 28.531469 14.746278 L 29.370629 13.889184 L 30.209790 13.889184 L 31.048951 13.889184 L 31.888112 14.289556 L 32.727273 14.968707 L 33.566434 15.517366 L 34.405594 15.161479 L 35.244755 15.161479 L 36.083916 16.033403 L 36.923077 17.281973 L 37.762238 15.262314 L 38.601399 15.161479 L 39.440559 14.918290 L 40.279720 15.463983 L 41.118881 17.032852 L 41.958042 14.313282 L 42.797203 14.313282 L 43.636364 14.428945 L 44.475524 15.262314 L 45.314685 17.281973 L 46.153846 17.281973 L 46.993007 17.706071 L 47.832168 17.706071 L 48.671329 17.281973 L 49.510490 17.281973 L 50.349650 17.281973 L 51.188811 17.281973 L 52.027972 17.281973 L 52.867133 17.281973 L 53.706294 17.281973 L 54.545455 17.667517 L 55.384615 17.379842 L 56.223776 17.281973 L 57.062937 17.281973 L 57.902098 17.281973 L 58.741259 17.281973 L 59.580420 17.281973 L 60.419580 17.706071 L 61.258741 17.617100 L 62.097902 16.816354 L 62.937063 16.000780 L 63.776224 18.978367 L 64.615385 15.161479 L 65.454545 16.433775 L 66.293706 36.800000 L 67.132867 16.881600 L 67.972028 14.737381 L 68.811189 15.161479 L 69.650350 15.419498 L 70.489510 14.844147 L 71.328671 15.161479 L 72.167832 15.161479 L 73.006993 15.161479 L 73.846154 14.737381 L 74.685315 14.927187 L 75.524476 13.889184 L 76.363636 13.889184 L 77.202797 15.641927 L 78.041958 15.585578 L 78.881119 17.281973 L 79.720280 17.281973 L 80.559441 18.005609 L 81.398601 20.419709 L 82.237762 21.522959 L 83.076923 15.585578 L 83.916084 16.421912 L 84.755245 15.057679 L 85.594406 16.605787 L 86.433566 14.737381 L 87.272727 14.737381 L 88.111888 14.737381 L 88.951049 14.737381 L 89.790210 14.737381 L 90.629371 14.737381 L 91.468531 15.161479 L 92.307692 15.161479 L 93.146853 15.383909 L 93.986014 17.281973 L 94.825175 18.130170 L 95.664336 17.706071 L 96.503497 17.706071 L 97.342657 17.706071 L 98.181818 18.130170 L 99.020979 19.188934 L 99.860140 23.643452 L 100.699301 24.067551 L 101.538462 24.067551 L 102.377622 23.643452 L 103.216783 23.981545 L 104.055944 23.097759 L 104.895105 21.436953 L 105.734266 20.034165 L 106.573427 22.593586 L 107.412587 20.674762 L 108.251748 8.800000 L 109.090909 23.335017 L 109.930070 26.748566 L 110.769231 27.884438 L 111.608392 27.460340 L 112.447552 27.460340 L 113.286713 27.561174 L 114.125874 27.884438 L 114.965035 27.884438 L 115.804196 28.691116 L 116.643357 28.833470 L 117.482517 30.429030 L 118.321678 30.429030 L 119.160839 30.429030 L 120.000000 30.429030 L 120 40 Z"></path>
    </g>
  </svg>