<svg xmlns="http://www.w3.org/2000/svg" viewBox="0 0 120 40" width="120" height="40">
    <defs>
      <linearGradient id="color_grad" x1="0%" x2="0%" y1="0%" y2="100%">
        <stop offset="0%" style="stop-color:#16C784;stop-opacity:0.4;"></stop>
        <stop offset="100%" style="stop-color:#16C784;stop-opacity:0.0;"></stop>
      </linearGradient>
    </defs>
    <g>
      <path stroke="#16C784" stroke-width="2" stroke-linecap="round" stroke-linejoin="round" fill="none" d="M 0.000000 33.603251 L 0.839161 32.737925 L 1.678322 34.099805 L 2.517483 34.544633 L 3.356643 35.737464 L 4.195804 35.575828 L 5.034965 34.779088 L 5.874126 35.255177 L 6.713287 36.800000 L 7.552448 36.298390 L 8.391608 36.536803 L 9.230769 35.117998 L 10.069930 36.473148 L 10.909091 35.300113 L 11.748252 35.803461 L 12.587413 36.300944 L 13.426573 36.622498 L 14.265734 35.560823 L 15.104895 34.244574 L 15.944056 34.421312 L 16.783217 33.603641 L 17.622378 32.471755 L 18.461538 31.518188 L 19.300699 31.750547 L 20.139860 31.914343 L 20.979021 32.073696 L 21.818182 31.520328 L 22.657343 31.556767 L 23.496503 32.049525 L 24.335664 32.491024 L 25.174825 33.364158 L 26.013986 34.217365 L 26.853147 33.298734 L 27.692308 33.194395 L 28.531469 32.472814 L 29.370629 32.202660 L 30.209790 31.429877 L 31.048951 34.259277 L 31.888112 34.324359 L 32.727273 35.080348 L 33.566434 33.308661 L 34.405594 32.687345 L 35.244755 33.727556 L 36.083916 30.501673 L 36.923077 29.960066 L 37.762238 26.710601 L 38.601399 25.319948 L 39.440559 25.228285 L 40.279720 27.651918 L 41.118881 27.243749 L 41.958042 26.252190 L 42.797203 27.253428 L 43.636364 26.106083 L 44.475524 25.793919 L 45.314685 24.161925 L 46.153846 24.093259 L 46.993007 25.918141 L 47.832168 25.890549 L 48.671329 24.953570 L 49.510490 25.342259 L 50.349650 25.371840 L 51.188811 26.140357 L 52.027972 22.757943 L 52.867133 22.356837 L 53.706294 23.659243 L 54.545455 24.175264 L 55.384615 22.706761 L 56.223776 22.390095 L 57.062937 23.672665 L 57.902098 24.275915 L 58.741259 25.732229 L 59.580420 25.728676 L 60.419580 22.958969 L 61.258741 20.389147 L 62.097902 21.648808 L 62.937063 21.526629 L 63.776224 22.064490 L 64.615385 23.982450 L 65.454545 25.694528 L 66.293706 25.614919 L 67.132867 24.489102 L 67.972028 25.727478 L 68.811189 24.982808 L 69.650350 28.546944 L 70.489510 28.877533 L 71.328671 27.143794 L 72.167832 27.102643 L 73.006993 27.102643 L 73.846154 29.315337 L 74.685315 27.047597 L 75.524476 26.667693 L 76.363636 23.139292 L 77.202797 26.584120 L 78.041958 30.294033 L 78.881119 26.312602 L 79.720280 26.502161 L 80.559441 25.732875 L 81.398601 27.291052 L 82.237762 25.048787 L 83.076923 25.820079 L 83.916084 26.207614 L 84.755245 21.308736 L 85.594406 21.754595 L 86.433566 22.644995 L 87.272727 22.092000 L 88.111888 22.749952 L 88.951049 21.303400 L 89.790210 21.118091 L 90.629371 21.379663 L 91.468531 21.545214 L 92.307692 21.148532 L 93.146853 20.580166 L 93.986014 20.103329 L 94.825175 18.979197 L 95.664336 19.487844 L 96.503497 19.561264 L 97.342657 18.177177 L 98.181818 18.141959 L 99.020979 16.166439 L 99.860140 15.939859 L 100.699301 12.459212 L 101.538462 17.641139 L 102.377622 17.605601 L 103.216783 17.411847 L 104.055944 18.473468 L 104.895105 17.238936 L 105.734266 13.763502 L 106.573427 15.128242 L 107.412587 16.276370 L 108.251748 13.963393 L 109.090909 16.867359 L 109.930070 15.526657 L 110.769231 13.268359 L 111.608392 11.808731 L 112.447552 8.800000 L 113.286713 9.718767 L 114.125874 9.912862 L 114.965035 11.173958 L 115.804196 11.800918 L 116.643357 12.774138 L 117.482517 11.410591 L 118.321678 13.644682 L 119.160839 13.365725 L 120.000000 15.364998"></path>
      <path stroke="none" fill-opacity="0.6" fill="url(#color_grad)" d="M 0 40 L 0.000000 33.603251 L 0.839161 32.737925 L 1.678322 34.099805 L 2.517483 34.544633 L 3.356643 35.737464 L 4.195804 35.575828 L 5.034965 34.779088 L 5.874126 35.255177 L 6.713287 36.800000 L 7.552448 36.298390 L 8.391608 36.536803 L 9.230769 35.117998 L 10.069930 36.473148 L 10.909091 35.300113 L 11.748252 35.803461 L 12.587413 36.300944 L 13.426573 36.622498 L 14.265734 35.560823 L 15.104895 34.244574 L 15.944056 34.421312 L 16.783217 33.603641 L 17.622378 32.471755 L 18.461538 31.518188 L 19.300699 31.750547 L 20.139860 31.914343 L 20.979021 32.073696 L 21.818182 31.520328 L 22.657343 31.556767 L 23.496503 32.049525 L 24.335664 32.491024 L 25.174825 33.364158 L 26.013986 34.217365 L 26.853147 33.298734 L 27.692308 33.194395 L 28.531469 32.472814 L 29.370629 32.202660 L 30.209790 31.429877 L 31.048951 34.259277 L 31.888112 34.324359 L 32.727273 35.080348 L 33.566434 33.308661 L 34.405594 32.687345 L 35.244755 33.727556 L 36.083916 30.501673 L 36.923077 29.960066 L 37.762238 26.710601 L 38.601399 25.319948 L 39.440559 25.228285 L 40.279720 27.651918 L 41.118881 27.243749 L 41.958042 26.252190 L 42.797203 27.253428 L 43.636364 26.106083 L 44.475524 25.793919 L 45.314685 24.161925 L 46.153846 24.093259 L 46.993007 25.918141 L 47.832168 25.890549 L 48.671329 24.953570 L 49.510490 25.342259 L 50.349650 25.371840 L 51.188811 26.140357 L 52.027972 22.757943 L 52.867133 22.356837 L 53.706294 23.659243 L 54.545455 24.175264 L 55.384615 22.706761 L 56.223776 22.390095 L 57.062937 23.672665 L 57.902098 24.275915 L 58.741259 25.732229 L 59.580420 25.728676 L 60.419580 22.958969 L 61.258741 20.389147 L 62.097902 21.648808 L 62.937063 21.526629 L 63.776224 22.064490 L 64.615385 23.982450 L 65.454545 25.694528 L 66.293706 25.614919 L 67.132867 24.489102 L 67.972028 25.727478 L 68.811189 24.982808 L 69.650350 28.546944 L 70.489510 28.877533 L 71.328671 27.143794 L 72.167832 27.102643 L 73.006993 27.102643 L 73.846154 29.315337 L 74.685315 27.047597 L 75.524476 26.667693 L 76.363636 23.139292 L 77.202797 26.584120 L 78.041958 30.294033 L 78.881119 26.312602 L 79.720280 26.502161 L 80.559441 25.732875 L 81.398601 27.291052 L 82.237762 25.048787 L 83.076923 25.820079 L 83.916084 26.207614 L 84.755245 21.308736 L 85.594406 21.754595 L 86.433566 22.644995 L 87.272727 22.092000 L 88.111888 22.749952 L 88.951049 21.303400 L 89.790210 21.118091 L 90.629371 21.379663 L 91.468531 21.545214 L 92.307692 21.148532 L 93.146853 20.580166 L 93.986014 20.103329 L 94.825175 18.979197 L 95.664336 19.487844 L 96.503497 19.561264 L 97.342657 18.177177 L 98.181818 18.141959 L 99.020979 16.166439 L 99.860140 15.939859 L 100.699301 12.459212 L 101.538462 17.641139 L 102.377622 17.605601 L 103.216783 17.411847 L 104.055944 18.473468 L 104.895105 17.238936 L 105.734266 13.763502 L 106.573427 15.128242 L 107.412587 16.276370 L 108.251748 13.963393 L 109.090909 16.867359 L 109.930070 15.526657 L 110.769231 13.268359 L 111.608392 11.808731 L 112.447552 8.800000 L 113.286713 9.718767 L 114.125874 9.912862 L 114.965035 11.173958 L 115.804196 11.800918 L 116.643357 12.774138 L 117.482517 11.410591 L 118.321678 13.644682 L 119.160839 13.365725 L 120.000000 15.364998 L 120 40 Z"></path>
    </g>
  </svg>