<svg xmlns="http://www.w3.org/2000/svg" viewBox="0 0 120 40" width="120" height="40">
    <defs>
      <linearGradient id="color_grad" x1="0%" x2="0%" y1="0%" y2="100%">
        <stop offset="0%" style="stop-color:#EA3943;stop-opacity:0.4;"></stop>
        <stop offset="100%" style="stop-color:#EA3943;stop-opacity:0.0;"></stop>
      </linearGradient>
    </defs>
    <g>
      <path stroke="#EA3943" stroke-width="2" stroke-linecap="round" stroke-linejoin="round" fill="none" d="M 0.000000 25.512183 L 0.839161 24.797472 L 1.678322 15.421910 L 2.517483 12.981604 L 3.356643 16.249690 L 4.195804 15.472252 L 5.034965 16.133015 L 5.874126 16.172919 L 6.713287 14.896991 L 7.552448 14.451121 L 8.391608 14.658137 L 9.230769 13.402896 L 10.069930 13.424153 L 10.909091 11.813099 L 11.748252 12.486103 L 12.587413 12.707734 L 13.426573 18.269842 L 14.265734 17.513281 L 15.104895 16.363755 L 15.944056 16.515257 L 16.783217 19.117360 L 17.622378 18.149039 L 18.461538 17.334069 L 19.300699 17.530552 L 20.139860 17.747485 L 20.979021 18.253994 L 21.818182 17.858609 L 22.657343 20.231585 L 23.496503 17.579187 L 24.335664 13.077924 L 25.174825 14.716973 L 26.013986 15.678841 L 26.853147 15.320038 L 27.692308 15.228606 L 28.531469 17.955782 L 29.370629 19.026450 L 30.209790 14.153336 L 31.048951 18.574554 L 31.888112 18.633437 L 32.727273 19.283476 L 33.566434 19.964737 L 34.405594 24.753535 L 35.244755 25.616901 L 36.083916 22.958951 L 36.923077 18.863845 L 37.762238 18.689568 L 38.601399 17.530932 L 39.440559 11.955918 L 40.279720 14.898794 L 41.118881 14.815427 L 41.958042 16.028581 L 42.797203 15.047876 L 43.636364 13.844923 L 44.475524 13.577221 L 45.314685 11.582596 L 46.153846 15.223908 L 46.993007 16.750030 L 47.832168 16.731526 L 48.671329 15.942510 L 49.510490 16.271801 L 50.349650 16.294149 L 51.188811 16.935458 L 52.027972 14.105461 L 52.867133 13.776645 L 53.706294 14.858890 L 54.545455 15.290146 L 55.384615 14.064703 L 56.223776 13.799847 L 57.062937 14.872555 L 57.902098 15.375600 L 58.741259 16.595065 L 59.580420 16.586002 L 60.419580 13.257942 L 61.258741 10.406499 L 62.097902 13.123427 L 62.937063 12.286062 L 63.776224 13.604883 L 64.615385 14.810540 L 65.454545 16.243759 L 66.293706 16.177616 L 67.132867 15.390309 L 67.972028 17.334496 L 68.811189 21.234828 L 69.650350 24.728197 L 70.489510 22.362813 L 71.328671 16.245135 L 72.167832 15.829869 L 73.006993 15.829869 L 73.846154 18.595573 L 74.685315 17.711092 L 75.524476 20.015459 L 76.363636 16.942622 L 77.202797 20.864258 L 78.041958 21.883539 L 78.881119 20.382470 L 79.720280 20.341949 L 80.559441 18.659723 L 81.398601 19.986325 L 82.237762 15.077721 L 83.076923 8.800000 L 83.916084 22.833024 L 84.755245 19.100089 L 85.594406 19.587666 L 86.433566 20.462373 L 87.272727 21.532423 L 88.111888 22.585250 L 88.951049 21.665230 L 89.790210 21.518331 L 90.629371 21.729001 L 91.468531 21.861808 L 92.307692 21.541865 L 93.146853 21.089115 L 93.986014 20.710147 L 94.825175 18.299165 L 95.664336 18.573842 L 96.503497 18.633864 L 97.342657 17.518785 L 98.181818 17.491597 L 99.020979 15.897577 L 99.860140 15.720928 L 100.699301 12.921915 L 101.538462 18.512064 L 102.377622 17.058301 L 103.216783 17.195189 L 104.055944 20.966367 L 104.895105 22.705341 L 105.734266 20.146226 L 106.573427 21.817064 L 107.412587 22.434839 L 108.251748 20.158183 L 109.090909 23.979988 L 109.930070 18.214897 L 110.769231 19.002156 L 111.608392 21.395393 L 112.447552 21.281754 L 113.286713 28.997201 L 114.125874 27.101601 L 114.965035 30.817644 L 115.804196 30.635633 L 116.643357 32.386564 L 117.482517 33.033519 L 118.321678 36.800000 L 119.160839 34.185465 L 120.000000 33.226823"></path>
      <path stroke="none" fill-opacity="0.6" fill="url(#color_grad)" d="M 0 40 L 0.000000 25.512183 L 0.839161 24.797472 L 1.678322 15.421910 L 2.517483 12.981604 L 3.356643 16.249690 L 4.195804 15.472252 L 5.034965 16.133015 L 5.874126 16.172919 L 6.713287 14.896991 L 7.552448 14.451121 L 8.391608 14.658137 L 9.230769 13.402896 L 10.069930 13.424153 L 10.909091 11.813099 L 11.748252 12.486103 L 12.587413 12.707734 L 13.426573 18.269842 L 14.265734 17.513281 L 15.104895 16.363755 L 15.944056 16.515257 L 16.783217 19.117360 L 17.622378 18.149039 L 18.461538 17.334069 L 19.300699 17.530552 L 20.139860 17.747485 L 20.979021 18.253994 L 21.818182 17.858609 L 22.657343 20.231585 L 23.496503 17.579187 L 24.335664 13.077924 L 25.174825 14.716973 L 26.013986 15.678841 L 26.853147 15.320038 L 27.692308 15.228606 L 28.531469 17.955782 L 29.370629 19.026450 L 30.209790 14.153336 L 31.048951 18.574554 L 31.888112 18.633437 L 32.727273 19.283476 L 33.566434 19.964737 L 34.405594 24.753535 L 35.244755 25.616901 L 36.083916 22.958951 L 36.923077 18.863845 L 37.762238 18.689568 L 38.601399 17.530932 L 39.440559 11.955918 L 40.279720 14.898794 L 41.118881 14.815427 L 41.958042 16.028581 L 42.797203 15.047876 L 43.636364 13.844923 L 44.475524 13.577221 L 45.314685 11.582596 L 46.153846 15.223908 L 46.993007 16.750030 L 47.832168 16.731526 L 48.671329 15.942510 L 49.510490 16.271801 L 50.349650 16.294149 L 51.188811 16.935458 L 52.027972 14.105461 L 52.867133 13.776645 L 53.706294 14.858890 L 54.545455 15.290146 L 55.384615 14.064703 L 56.223776 13.799847 L 57.062937 14.872555 L 57.902098 15.375600 L 58.741259 16.595065 L 59.580420 16.586002 L 60.419580 13.257942 L 61.258741 10.406499 L 62.097902 13.123427 L 62.937063 12.286062 L 63.776224 13.604883 L 64.615385 14.810540 L 65.454545 16.243759 L 66.293706 16.177616 L 67.132867 15.390309 L 67.972028 17.334496 L 68.811189 21.234828 L 69.650350 24.728197 L 70.489510 22.362813 L 71.328671 16.245135 L 72.167832 15.829869 L 73.006993 15.829869 L 73.846154 18.595573 L 74.685315 17.711092 L 75.524476 20.015459 L 76.363636 16.942622 L 77.202797 20.864258 L 78.041958 21.883539 L 78.881119 20.382470 L 79.720280 20.341949 L 80.559441 18.659723 L 81.398601 19.986325 L 82.237762 15.077721 L 83.076923 8.800000 L 83.916084 22.833024 L 84.755245 19.100089 L 85.594406 19.587666 L 86.433566 20.462373 L 87.272727 21.532423 L 88.111888 22.585250 L 88.951049 21.665230 L 89.790210 21.518331 L 90.629371 21.729001 L 91.468531 21.861808 L 92.307692 21.541865 L 93.146853 21.089115 L 93.986014 20.710147 L 94.825175 18.299165 L 95.664336 18.573842 L 96.503497 18.633864 L 97.342657 17.518785 L 98.181818 17.491597 L 99.020979 15.897577 L 99.860140 15.720928 L 100.699301 12.921915 L 101.538462 18.512064 L 102.377622 17.058301 L 103.216783 17.195189 L 104.055944 20.966367 L 104.895105 22.705341 L 105.734266 20.146226 L 106.573427 21.817064 L 107.412587 22.434839 L 108.251748 20.158183 L 109.090909 23.979988 L 109.930070 18.214897 L 110.769231 19.002156 L 111.608392 21.395393 L 112.447552 21.281754 L 113.286713 28.997201 L 114.125874 27.101601 L 114.965035 30.817644 L 115.804196 30.635633 L 116.643357 32.386564 L 117.482517 33.033519 L 118.321678 36.800000 L 119.160839 34.185465 L 120.000000 33.226823 L 120 40 Z"></path>
    </g>
  </svg>