<svg xmlns="http://www.w3.org/2000/svg" viewBox="0 0 120 40" width="120" height="40">
    <defs>
      <linearGradient id="color_grad" x1="0%" x2="0%" y1="0%" y2="100%">
        <stop offset="0%" style="stop-color:#888888;stop-opacity:0.4;"></stop>
        <stop offset="100%" style="stop-color:#888888;stop-opacity:0.0;"></stop>
      </linearGradient>
    </defs>
    <g>
      <path stroke="#888888" stroke-width="2" stroke-linecap="round" stroke-linejoin="round" fill="none" d="M 0.000000 31.686762 L 0.839161 31.018664 L 1.678322 31.532870 L 2.517483 19.917273 L 3.356643 21.572295 L 4.195804 21.320120 L 5.034965 28.920928 L 5.874126 27.026225 L 6.713287 29.510583 L 7.552448 28.727133 L 8.391608 29.099985 L 9.230769 26.887071 L 10.069930 28.998182 L 10.909091 27.506555 L 11.748252 28.362464 L 12.587413 29.137732 L 13.426573 31.098294 L 14.265734 29.603323 L 15.104895 27.974258 L 15.944056 28.246011 L 16.783217 26.983551 L 17.622378 25.233853 L 18.461538 23.754544 L 19.300699 24.115430 L 20.139860 24.652160 L 20.979021 25.445554 L 21.818182 23.761584 L 22.657343 21.343393 L 23.496503 18.400921 L 24.335664 17.863223 L 25.174825 18.371621 L 26.013986 22.020201 L 26.853147 21.801241 L 27.692308 12.821915 L 28.531469 18.311305 L 29.370629 19.034439 L 30.209790 19.416354 L 31.048951 24.773101 L 31.888112 27.957364 L 32.727273 32.719088 L 33.566434 30.129231 L 34.405594 23.591502 L 35.244755 28.170033 L 36.083916 27.701714 L 36.923077 22.841355 L 37.762238 16.554480 L 38.601399 14.390752 L 39.440559 11.267949 L 40.279720 15.650617 L 41.118881 17.782933 L 41.958042 16.044234 L 42.797203 20.750349 L 43.636364 18.991149 L 44.475524 18.514119 L 45.314685 16.018014 L 46.153846 15.914759 L 46.993007 18.929689 L 47.832168 18.883319 L 48.671329 17.453856 L 49.510490 18.047603 L 50.349650 18.093313 L 51.188811 19.268049 L 52.027972 14.097090 L 52.867133 13.485834 L 53.706294 15.473056 L 54.545455 16.260774 L 55.384615 13.358602 L 56.223776 13.389442 L 57.062937 15.057882 L 57.902098 16.682724 L 58.741259 19.056217 L 59.580420 19.046582 L 60.419580 15.064525 L 61.258741 11.765260 L 62.097902 14.605973 L 62.937063 19.553132 L 63.776224 20.435702 L 64.615385 18.948562 L 65.454545 22.701233 L 66.293706 21.633843 L 67.132867 19.719299 L 67.972028 22.096047 L 68.811189 20.254577 L 69.650350 26.151970 L 70.489510 27.415399 L 71.328671 23.807558 L 72.167832 23.885691 L 73.006993 23.885691 L 73.846154 26.309250 L 74.685315 27.603122 L 75.524476 26.190465 L 76.363636 20.656025 L 77.202797 30.273401 L 78.041958 36.800000 L 78.881119 25.658442 L 79.720280 25.942909 L 80.559441 21.692223 L 81.398601 24.194707 L 82.237762 21.629927 L 83.076923 17.413513 L 83.916084 18.081303 L 84.755245 9.921987 L 85.594406 12.374889 L 86.433566 17.997538 L 87.272727 13.750591 L 88.111888 12.069613 L 88.951049 9.911120 L 89.790210 13.529300 L 90.629371 13.925161 L 91.468531 10.284148 L 92.307692 9.674871 L 93.146853 8.800000 L 93.986014 11.983956 L 94.825175 10.494309 L 95.664336 11.269356 L 96.503497 12.468861 L 97.342657 15.858490 L 98.181818 14.125203 L 99.020979 11.535830 L 99.860140 14.737164 L 100.699301 9.586178 L 101.538462 16.734549 L 102.377622 19.339232 L 103.216783 21.722491 L 104.055944 24.844591 L 104.895105 18.202727 L 105.734266 13.527232 L 106.573427 20.615155 L 107.412587 21.832213 L 108.251748 11.589855 L 109.090909 27.143954 L 109.930070 22.930355 L 110.769231 24.521585 L 111.608392 25.844890 L 112.447552 29.322200 L 113.286713 21.228303 L 114.125874 19.181072 L 114.965035 19.142313 L 115.804196 19.794925 L 116.643357 23.883492 L 117.482517 24.855414 L 118.321678 31.255486 L 119.160839 21.902296 L 120.000000 24.992940"></path>
      <path stroke="none" fill-opacity="0.6" fill="url(#color_grad)" d="M 0 40 L 0.000000 31.686762 L 0.839161 31.018664 L 1.678322 31.532870 L 2.517483 19.917273 L 3.356643 21.572295 L 4.195804 21.320120 L 5.034965 28.920928 L 5.874126 27.026225 L 6.713287 29.510583 L 7.552448 28.727133 L 8.391608 29.099985 L 9.230769 26.887071 L 10.069930 28.998182 L 10.909091 27.506555 L 11.748252 28.362464 L 12.587413 29.137732 L 13.426573 31.098294 L 14.265734 29.603323 L 15.104895 27.974258 L 15.944056 28.246011 L 16.783217 26.983551 L 17.622378 25.233853 L 18.461538 23.754544 L 19.300699 24.115430 L 20.139860 24.652160 L 20.979021 25.445554 L 21.818182 23.761584 L 22.657343 21.343393 L 23.496503 18.400921 L 24.335664 17.863223 L 25.174825 18.371621 L 26.013986 22.020201 L 26.853147 21.801241 L 27.692308 12.821915 L 28.531469 18.311305 L 29.370629 19.034439 L 30.209790 19.416354 L 31.048951 24.773101 L 31.888112 27.957364 L 32.727273 32.719088 L 33.566434 30.129231 L 34.405594 23.591502 L 35.244755 28.170033 L 36.083916 27.701714 L 36.923077 22.841355 L 37.762238 16.554480 L 38.601399 14.390752 L 39.440559 11.267949 L 40.279720 15.650617 L 41.118881 17.782933 L 41.958042 16.044234 L 42.797203 20.750349 L 43.636364 18.991149 L 44.475524 18.514119 L 45.314685 16.018014 L 46.153846 15.914759 L 46.993007 18.929689 L 47.832168 18.883319 L 48.671329 17.453856 L 49.510490 18.047603 L 50.349650 18.093313 L 51.188811 19.268049 L 52.027972 14.097090 L 52.867133 13.485834 L 53.706294 15.473056 L 54.545455 16.260774 L 55.384615 13.358602 L 56.223776 13.389442 L 57.062937 15.057882 L 57.902098 16.682724 L 58.741259 19.056217 L 59.580420 19.046582 L 60.419580 15.064525 L 61.258741 11.765260 L 62.097902 14.605973 L 62.937063 19.553132 L 63.776224 20.435702 L 64.615385 18.948562 L 65.454545 22.701233 L 66.293706 21.633843 L 67.132867 19.719299 L 67.972028 22.096047 L 68.811189 20.254577 L 69.650350 26.151970 L 70.489510 27.415399 L 71.328671 23.807558 L 72.167832 23.885691 L 73.006993 23.885691 L 73.846154 26.309250 L 74.685315 27.603122 L 75.524476 26.190465 L 76.363636 20.656025 L 77.202797 30.273401 L 78.041958 36.800000 L 78.881119 25.658442 L 79.720280 25.942909 L 80.559441 21.692223 L 81.398601 24.194707 L 82.237762 21.629927 L 83.076923 17.413513 L 83.916084 18.081303 L 84.755245 9.921987 L 85.594406 12.374889 L 86.433566 17.997538 L 87.272727 13.750591 L 88.111888 12.069613 L 88.951049 9.911120 L 89.790210 13.529300 L 90.629371 13.925161 L 91.468531 10.284148 L 92.307692 9.674871 L 93.146853 8.800000 L 93.986014 11.983956 L 94.825175 10.494309 L 95.664336 11.269356 L 96.503497 12.468861 L 97.342657 15.858490 L 98.181818 14.125203 L 99.020979 11.535830 L 99.860140 14.737164 L 100.699301 9.586178 L 101.538462 16.734549 L 102.377622 19.339232 L 103.216783 21.722491 L 104.055944 24.844591 L 104.895105 18.202727 L 105.734266 13.527232 L 106.573427 20.615155 L 107.412587 21.832213 L 108.251748 11.589855 L 109.090909 27.143954 L 109.930070 22.930355 L 110.769231 24.521585 L 111.608392 25.844890 L 112.447552 29.322200 L 113.286713 21.228303 L 114.125874 19.181072 L 114.965035 19.142313 L 115.804196 19.794925 L 116.643357 23.883492 L 117.482517 24.855414 L 118.321678 31.255486 L 119.160839 21.902296 L 120.000000 24.992940 L 120 40 Z"></path>
    </g>
  </svg>