<svg xmlns="http://www.w3.org/2000/svg" viewBox="0 0 120 40" width="120" height="40">
    <defs>
      <linearGradient id="color_grad" x1="0%" x2="0%" y1="0%" y2="100%">
        <stop offset="0%" style="stop-color:#EA3943;stop-opacity:0.4;"></stop>
        <stop offset="100%" style="stop-color:#EA3943;stop-opacity:0.0;"></stop>
      </linearGradient>
    </defs>
    <g>
      <path stroke="#EA3943" stroke-width="2" stroke-linecap="round" stroke-linejoin="round" fill="none" d="M 0.000000 19.008141 L 0.839161 19.368278 L 1.678322 18.494806 L 2.517483 11.571205 L 3.356643 11.438059 L 4.195804 11.438059 L 5.034965 16.435051 L 5.874126 14.950391 L 6.713287 14.993704 L 7.552448 14.993704 L 8.391608 14.993704 L 9.230769 14.993704 L 10.069930 14.993704 L 10.909091 15.181392 L 11.748252 15.223100 L 12.587413 15.223100 L 13.426573 16.053258 L 14.265734 16.140686 L 15.104895 16.370082 L 15.944056 16.370082 L 16.783217 16.370082 L 17.622378 16.370082 L 18.461538 16.370082 L 19.300699 16.370082 L 20.139860 16.525687 L 20.979021 16.832083 L 21.818182 16.370082 L 22.657343 14.993704 L 23.496503 12.929136 L 24.335664 12.240946 L 25.174825 11.754883 L 26.013986 13.043834 L 26.853147 13.732023 L 27.692308 8.800000 L 28.531469 12.505635 L 29.370629 13.146501 L 30.209790 14.033607 L 31.048951 14.554963 L 31.888112 16.291478 L 32.727273 18.319952 L 33.566434 18.388129 L 34.405594 15.268017 L 35.244755 16.927532 L 36.083916 19.418809 L 36.923077 17.190616 L 37.762238 16.499218 L 38.601399 16.479968 L 39.440559 14.879005 L 40.279720 15.207860 L 41.118881 16.714177 L 41.958042 16.599479 L 42.797203 18.319952 L 43.636364 18.319952 L 44.475524 18.319952 L 45.314685 18.319952 L 46.153846 18.319952 L 46.993007 18.446120 L 47.832168 18.446120 L 48.671329 18.446120 L 49.510490 18.446120 L 50.349650 18.446120 L 51.188811 18.446120 L 52.027972 18.446120 L 52.867133 18.446120 L 53.706294 18.446120 L 54.545455 18.446120 L 55.384615 18.090555 L 56.223776 18.362462 L 57.062937 18.205254 L 57.902098 18.583838 L 58.741259 18.664047 L 59.580420 18.664047 L 60.419580 18.794786 L 61.258741 19.122839 L 62.097902 19.610507 L 62.937063 22.334389 L 63.776224 22.376900 L 64.615385 20.040425 L 65.454545 20.666052 L 66.293706 20.155123 L 67.132867 20.040425 L 67.972028 20.312332 L 68.811189 19.925727 L 69.650350 20.195228 L 70.489510 20.613916 L 71.328671 20.078123 L 72.167832 20.155123 L 73.006993 20.155123 L 73.846154 19.643393 L 74.685315 22.219691 L 75.524476 21.760898 L 76.363636 21.635773 L 77.202797 24.047644 L 78.041958 24.617125 L 78.881119 21.760898 L 79.720280 21.760898 L 80.559441 20.089352 L 81.398601 20.166353 L 82.237762 20.613916 L 83.076923 17.702346 L 83.916084 17.740044 L 84.755245 17.402366 L 85.594406 18.340004 L 86.433566 20.613916 L 87.272727 18.799599 L 88.111888 17.366272 L 88.951049 17.402366 L 89.790210 19.466934 L 90.629371 19.466934 L 91.468531 17.402366 L 92.307692 17.402366 L 93.146853 17.402366 L 93.986014 19.466934 L 94.825175 19.581632 L 95.664336 19.581632 L 96.503497 20.155123 L 97.342657 23.022579 L 98.181818 22.146701 L 99.020979 22.334389 L 99.860140 24.169561 L 100.699301 24.169561 L 101.538462 23.896050 L 102.377622 25.281251 L 103.216783 26.672869 L 104.055944 27.495809 L 104.895105 24.972448 L 105.734266 25.201845 L 106.573427 27.824664 L 107.412587 27.590455 L 108.251748 24.054863 L 109.090909 29.904472 L 109.930070 28.716583 L 110.769231 31.201444 L 111.608392 32.931542 L 112.447552 36.800000 L 113.286713 32.083738 L 114.125874 30.912693 L 114.965035 29.982274 L 115.804196 29.858753 L 116.643357 31.238340 L 117.482517 32.711771 L 118.321678 34.377702 L 119.160839 29.789773 L 120.000000 29.904472"></path>
      <path stroke="none" fill-opacity="0.6" fill="url(#color_grad)" d="M 0 40 L 0.000000 19.008141 L 0.839161 19.368278 L 1.678322 18.494806 L 2.517483 11.571205 L 3.356643 11.438059 L 4.195804 11.438059 L 5.034965 16.435051 L 5.874126 14.950391 L 6.713287 14.993704 L 7.552448 14.993704 L 8.391608 14.993704 L 9.230769 14.993704 L 10.069930 14.993704 L 10.909091 15.181392 L 11.748252 15.223100 L 12.587413 15.223100 L 13.426573 16.053258 L 14.265734 16.140686 L 15.104895 16.370082 L 15.944056 16.370082 L 16.783217 16.370082 L 17.622378 16.370082 L 18.461538 16.370082 L 19.300699 16.370082 L 20.139860 16.525687 L 20.979021 16.832083 L 21.818182 16.370082 L 22.657343 14.993704 L 23.496503 12.929136 L 24.335664 12.240946 L 25.174825 11.754883 L 26.013986 13.043834 L 26.853147 13.732023 L 27.692308 8.800000 L 28.531469 12.505635 L 29.370629 13.146501 L 30.209790 14.033607 L 31.048951 14.554963 L 31.888112 16.291478 L 32.727273 18.319952 L 33.566434 18.388129 L 34.405594 15.268017 L 35.244755 16.927532 L 36.083916 19.418809 L 36.923077 17.190616 L 37.762238 16.499218 L 38.601399 16.479968 L 39.440559 14.879005 L 40.279720 15.207860 L 41.118881 16.714177 L 41.958042 16.599479 L 42.797203 18.319952 L 43.636364 18.319952 L 44.475524 18.319952 L 45.314685 18.319952 L 46.153846 18.319952 L 46.993007 18.446120 L 47.832168 18.446120 L 48.671329 18.446120 L 49.510490 18.446120 L 50.349650 18.446120 L 51.188811 18.446120 L 52.027972 18.446120 L 52.867133 18.446120 L 53.706294 18.446120 L 54.545455 18.446120 L 55.384615 18.090555 L 56.223776 18.362462 L 57.062937 18.205254 L 57.902098 18.583838 L 58.741259 18.664047 L 59.580420 18.664047 L 60.419580 18.794786 L 61.258741 19.122839 L 62.097902 19.610507 L 62.937063 22.334389 L 63.776224 22.376900 L 64.615385 20.040425 L 65.454545 20.666052 L 66.293706 20.155123 L 67.132867 20.040425 L 67.972028 20.312332 L 68.811189 19.925727 L 69.650350 20.195228 L 70.489510 20.613916 L 71.328671 20.078123 L 72.167832 20.155123 L 73.006993 20.155123 L 73.846154 19.643393 L 74.685315 22.219691 L 75.524476 21.760898 L 76.363636 21.635773 L 77.202797 24.047644 L 78.041958 24.617125 L 78.881119 21.760898 L 79.720280 21.760898 L 80.559441 20.089352 L 81.398601 20.166353 L 82.237762 20.613916 L 83.076923 17.702346 L 83.916084 17.740044 L 84.755245 17.402366 L 85.594406 18.340004 L 86.433566 20.613916 L 87.272727 18.799599 L 88.111888 17.366272 L 88.951049 17.402366 L 89.790210 19.466934 L 90.629371 19.466934 L 91.468531 17.402366 L 92.307692 17.402366 L 93.146853 17.402366 L 93.986014 19.466934 L 94.825175 19.581632 L 95.664336 19.581632 L 96.503497 20.155123 L 97.342657 23.022579 L 98.181818 22.146701 L 99.020979 22.334389 L 99.860140 24.169561 L 100.699301 24.169561 L 101.538462 23.896050 L 102.377622 25.281251 L 103.216783 26.672869 L 104.055944 27.495809 L 104.895105 24.972448 L 105.734266 25.201845 L 106.573427 27.824664 L 107.412587 27.590455 L 108.251748 24.054863 L 109.090909 29.904472 L 109.930070 28.716583 L 110.769231 31.201444 L 111.608392 32.931542 L 112.447552 36.800000 L 113.286713 32.083738 L 114.125874 30.912693 L 114.965035 29.982274 L 115.804196 29.858753 L 116.643357 31.238340 L 117.482517 32.711771 L 118.321678 34.377702 L 119.160839 29.789773 L 120.000000 29.904472 L 120 40 Z"></path>
    </g>
  </svg>