<svg xmlns="http://www.w3.org/2000/svg" viewBox="0 0 120 40" width="120" height="40">
    <defs>
      <linearGradient id="color_grad" x1="0%" x2="0%" y1="0%" y2="100%">
        <stop offset="0%" style="stop-color:#EA3943;stop-opacity:0.4;"></stop>
        <stop offset="100%" style="stop-color:#EA3943;stop-opacity:0.0;"></stop>
      </linearGradient>
    </defs>
    <g>
      <path stroke="#EA3943" stroke-width="2" stroke-linecap="round" stroke-linejoin="round" fill="none" d="M 0.000000 15.918644 L 0.839161 15.444068 L 1.678322 15.444068 L 2.517483 13.071186 L 3.356643 13.071186 L 4.195804 8.800000 L 5.034965 9.397369 L 5.874126 8.853763 L 6.713287 8.884627 L 7.552448 13.877966 L 8.391608 9.511864 L 9.230769 9.511864 L 10.069930 9.511864 L 10.909091 9.511864 L 11.748252 9.511864 L 12.587413 9.986441 L 13.426573 9.986441 L 14.265734 15.779258 L 15.104895 10.223729 L 15.944056 10.223729 L 16.783217 12.724713 L 17.622378 12.891976 L 18.461538 13.308475 L 19.300699 13.308475 L 20.139860 13.308475 L 20.979021 13.545763 L 21.818182 13.545763 L 22.657343 14.810193 L 23.496503 15.681356 L 24.335664 19.715254 L 25.174825 20.189831 L 26.013986 20.189831 L 26.853147 20.189831 L 27.692308 20.189831 L 28.531469 20.247908 L 29.370629 20.189831 L 30.209790 20.189831 L 31.048951 20.189831 L 31.888112 22.562712 L 32.727273 22.562712 L 33.566434 22.562712 L 34.405594 22.562712 L 35.244755 22.562712 L 36.083916 22.562712 L 36.923077 22.562712 L 37.762238 22.562712 L 38.601399 22.562712 L 39.440559 22.562712 L 40.279720 22.562712 L 41.118881 23.574920 L 41.958042 22.562712 L 42.797203 22.562712 L 43.636364 22.562712 L 44.475524 20.017257 L 45.314685 15.681356 L 46.153846 15.681356 L 46.993007 15.681356 L 47.832168 15.681356 L 48.671329 15.681356 L 49.510490 15.681356 L 50.349650 15.681356 L 51.188811 15.681356 L 52.027972 15.681356 L 52.867133 15.681356 L 53.706294 15.681356 L 54.545455 15.918644 L 55.384615 15.918644 L 56.223776 15.918644 L 57.062937 15.918644 L 57.902098 15.918644 L 58.741259 16.293659 L 59.580420 16.393220 L 60.419580 16.393220 L 61.258741 15.918644 L 62.097902 15.918644 L 62.937063 15.918644 L 63.776224 15.918644 L 64.615385 20.189831 L 65.454545 22.584284 L 66.293706 25.410169 L 67.132867 25.410169 L 67.972028 25.410169 L 68.811189 25.410169 L 69.650350 25.410169 L 70.489510 19.406780 L 71.328671 19.406780 L 72.167832 19.406780 L 73.006993 19.406780 L 73.846154 21.423729 L 74.685315 21.423729 L 75.524476 21.423729 L 76.363636 21.423729 L 77.202797 21.423729 L 78.041958 21.423729 L 78.881119 21.423729 L 79.720280 21.423729 L 80.559441 21.785967 L 81.398601 21.922034 L 82.237762 21.684746 L 83.076923 21.243025 L 83.916084 21.162712 L 84.755245 21.162712 L 85.594406 21.162712 L 86.433566 21.162712 L 87.272727 21.162712 L 88.111888 21.162712 L 88.951049 21.162712 L 89.790210 21.162712 L 90.629371 21.162712 L 91.468531 21.162712 L 92.307692 21.162712 L 93.146853 21.162712 L 93.986014 21.162712 L 94.825175 21.162712 L 95.664336 21.162712 L 96.503497 20.427119 L 97.342657 21.376271 L 98.181818 21.376271 L 99.020979 20.427119 L 99.860140 20.427119 L 100.699301 20.427119 L 101.538462 20.427119 L 102.377622 20.442053 L 103.216783 20.664407 L 104.055944 20.745715 L 104.895105 21.490767 L 105.734266 26.460543 L 106.573427 24.314993 L 107.412587 22.325424 L 108.251748 29.681356 L 109.090909 28.020339 L 109.930070 27.308475 L 110.769231 27.308475 L 111.608392 27.308475 L 112.447552 27.308475 L 113.286713 27.308475 L 114.125874 32.054237 L 114.965035 33.240678 L 115.804196 33.240678 L 116.643357 33.240678 L 117.482517 34.427119 L 118.321678 36.800000 L 119.160839 36.800000 L 120.000000 34.427119"></path>
      <path stroke="none" fill-opacity="0.6" fill="url(#color_grad)" d="M 0 40 L 0.000000 15.918644 L 0.839161 15.444068 L 1.678322 15.444068 L 2.517483 13.071186 L 3.356643 13.071186 L 4.195804 8.800000 L 5.034965 9.397369 L 5.874126 8.853763 L 6.713287 8.884627 L 7.552448 13.877966 L 8.391608 9.511864 L 9.230769 9.511864 L 10.069930 9.511864 L 10.909091 9.511864 L 11.748252 9.511864 L 12.587413 9.986441 L 13.426573 9.986441 L 14.265734 15.779258 L 15.104895 10.223729 L 15.944056 10.223729 L 16.783217 12.724713 L 17.622378 12.891976 L 18.461538 13.308475 L 19.300699 13.308475 L 20.139860 13.308475 L 20.979021 13.545763 L 21.818182 13.545763 L 22.657343 14.810193 L 23.496503 15.681356 L 24.335664 19.715254 L 25.174825 20.189831 L 26.013986 20.189831 L 26.853147 20.189831 L 27.692308 20.189831 L 28.531469 20.247908 L 29.370629 20.189831 L 30.209790 20.189831 L 31.048951 20.189831 L 31.888112 22.562712 L 32.727273 22.562712 L 33.566434 22.562712 L 34.405594 22.562712 L 35.244755 22.562712 L 36.083916 22.562712 L 36.923077 22.562712 L 37.762238 22.562712 L 38.601399 22.562712 L 39.440559 22.562712 L 40.279720 22.562712 L 41.118881 23.574920 L 41.958042 22.562712 L 42.797203 22.562712 L 43.636364 22.562712 L 44.475524 20.017257 L 45.314685 15.681356 L 46.153846 15.681356 L 46.993007 15.681356 L 47.832168 15.681356 L 48.671329 15.681356 L 49.510490 15.681356 L 50.349650 15.681356 L 51.188811 15.681356 L 52.027972 15.681356 L 52.867133 15.681356 L 53.706294 15.681356 L 54.545455 15.918644 L 55.384615 15.918644 L 56.223776 15.918644 L 57.062937 15.918644 L 57.902098 15.918644 L 58.741259 16.293659 L 59.580420 16.393220 L 60.419580 16.393220 L 61.258741 15.918644 L 62.097902 15.918644 L 62.937063 15.918644 L 63.776224 15.918644 L 64.615385 20.189831 L 65.454545 22.584284 L 66.293706 25.410169 L 67.132867 25.410169 L 67.972028 25.410169 L 68.811189 25.410169 L 69.650350 25.410169 L 70.489510 19.406780 L 71.328671 19.406780 L 72.167832 19.406780 L 73.006993 19.406780 L 73.846154 21.423729 L 74.685315 21.423729 L 75.524476 21.423729 L 76.363636 21.423729 L 77.202797 21.423729 L 78.041958 21.423729 L 78.881119 21.423729 L 79.720280 21.423729 L 80.559441 21.785967 L 81.398601 21.922034 L 82.237762 21.684746 L 83.076923 21.243025 L 83.916084 21.162712 L 84.755245 21.162712 L 85.594406 21.162712 L 86.433566 21.162712 L 87.272727 21.162712 L 88.111888 21.162712 L 88.951049 21.162712 L 89.790210 21.162712 L 90.629371 21.162712 L 91.468531 21.162712 L 92.307692 21.162712 L 93.146853 21.162712 L 93.986014 21.162712 L 94.825175 21.162712 L 95.664336 21.162712 L 96.503497 20.427119 L 97.342657 21.376271 L 98.181818 21.376271 L 99.020979 20.427119 L 99.860140 20.427119 L 100.699301 20.427119 L 101.538462 20.427119 L 102.377622 20.442053 L 103.216783 20.664407 L 104.055944 20.745715 L 104.895105 21.490767 L 105.734266 26.460543 L 106.573427 24.314993 L 107.412587 22.325424 L 108.251748 29.681356 L 109.090909 28.020339 L 109.930070 27.308475 L 110.769231 27.308475 L 111.608392 27.308475 L 112.447552 27.308475 L 113.286713 27.308475 L 114.125874 32.054237 L 114.965035 33.240678 L 115.804196 33.240678 L 116.643357 33.240678 L 117.482517 34.427119 L 118.321678 36.800000 L 119.160839 36.800000 L 120.000000 34.427119 L 120 40 Z"></path>
    </g>
  </svg>