<svg xmlns="http://www.w3.org/2000/svg" viewBox="0 0 120 40" width="120" height="40">
    <defs>
      <linearGradient id="color_grad" x1="0%" x2="0%" y1="0%" y2="100%">
        <stop offset="0%" style="stop-color:#EA3943;stop-opacity:0.4;"></stop>
        <stop offset="100%" style="stop-color:#EA3943;stop-opacity:0.0;"></stop>
      </linearGradient>
    </defs>
    <g>
      <path stroke="#EA3943" stroke-width="2" stroke-linecap="round" stroke-linejoin="round" fill="none" d="M 0.000000 23.899489 L 0.839161 22.267999 L 1.678322 23.724496 L 2.517483 20.665433 L 3.356643 21.960597 L 4.195804 15.456996 L 5.034965 15.455470 L 5.874126 15.176229 L 6.713287 16.944554 L 7.552448 23.762730 L 8.391608 17.579964 L 9.230769 16.001666 L 10.069930 17.500213 L 10.909091 16.202683 L 11.748252 16.754450 L 12.587413 18.020385 L 13.426573 18.370524 L 14.265734 25.770460 L 15.104895 16.093856 L 15.944056 16.290905 L 16.783217 19.123385 L 17.622378 18.143407 L 18.461538 17.741067 L 19.300699 17.991614 L 20.139860 18.171568 L 20.979021 18.696166 L 21.818182 18.101586 L 22.657343 20.050323 L 23.496503 21.882983 L 24.335664 28.423215 L 25.174825 30.041274 L 26.013986 30.924559 L 26.853147 29.971826 L 27.692308 29.865670 L 28.531469 29.204695 L 29.370629 28.843871 L 30.209790 28.032247 L 31.048951 30.963633 L 31.888112 34.570953 L 32.727273 35.343503 L 33.566434 33.529388 L 34.405594 32.907181 L 35.244755 33.967749 L 36.083916 30.676836 L 36.923077 30.130106 L 37.762238 26.818131 L 38.601399 25.409484 L 39.440559 25.308823 L 40.279720 27.779182 L 41.118881 28.917058 L 41.958042 26.357409 L 42.797203 27.377300 L 43.636364 26.199205 L 44.475524 21.936862 L 45.314685 13.477427 L 46.153846 13.395921 L 46.993007 15.344888 L 47.832168 15.321077 L 48.671329 14.317823 L 49.510490 14.739547 L 50.349650 14.765418 L 51.188811 15.591237 L 52.027972 11.972317 L 52.867133 11.549830 L 53.706294 12.935352 L 54.545455 13.865267 L 55.384615 12.288648 L 56.223776 11.955527 L 57.062937 13.322658 L 57.902098 13.970507 L 58.741259 16.103853 L 59.580420 16.254883 L 60.419580 13.311287 L 61.258741 9.824547 L 62.097902 11.176643 L 62.937063 11.043318 L 63.776224 11.611493 L 64.615385 20.331701 L 65.454545 25.816250 L 66.293706 30.118430 L 67.132867 28.998335 L 67.972028 30.236186 L 68.811189 29.489507 L 69.650350 33.047908 L 70.489510 24.206968 L 71.328671 22.403460 L 72.167832 22.360723 L 73.006993 22.360723 L 73.846154 27.730874 L 74.685315 25.404829 L 75.524476 25.009281 L 76.363636 21.390438 L 77.202797 24.928310 L 78.041958 28.736265 L 78.881119 24.644108 L 79.720280 24.848941 L 80.559441 24.617015 L 81.398601 26.428765 L 82.237762 23.741438 L 83.076923 23.877663 L 83.916084 24.151562 L 84.755245 19.123614 L 85.594406 19.578841 L 86.433566 20.497842 L 87.272727 19.922112 L 88.111888 20.602014 L 88.951049 19.114609 L 89.790210 18.921834 L 90.629371 19.183293 L 91.468531 19.359584 L 92.307692 18.956634 L 93.146853 18.369380 L 93.986014 17.878437 L 94.825175 16.730410 L 95.664336 17.246385 L 96.503497 16.134075 L 97.342657 16.223136 L 98.181818 16.190778 L 99.020979 12.631385 L 99.860140 12.394117 L 100.699301 8.800000 L 101.538462 14.147256 L 102.377622 14.139013 L 103.216783 14.298362 L 104.055944 15.527436 L 104.895105 15.447762 L 105.734266 20.012852 L 106.573427 17.873476 L 107.412587 15.812172 L 108.251748 25.473513 L 109.090909 25.601954 L 109.930070 23.134571 L 110.769231 20.914300 L 111.608392 19.470090 L 112.447552 16.510238 L 113.286713 17.418097 L 114.125874 25.487784 L 114.965035 28.655446 L 115.804196 29.244837 L 116.643357 30.158877 L 117.482517 30.836032 L 118.321678 36.800000 L 119.160839 36.544493 L 120.000000 34.528979"></path>
      <path stroke="none" fill-opacity="0.6" fill="url(#color_grad)" d="M 0 40 L 0.000000 23.899489 L 0.839161 22.267999 L 1.678322 23.724496 L 2.517483 20.665433 L 3.356643 21.960597 L 4.195804 15.456996 L 5.034965 15.455470 L 5.874126 15.176229 L 6.713287 16.944554 L 7.552448 23.762730 L 8.391608 17.579964 L 9.230769 16.001666 L 10.069930 17.500213 L 10.909091 16.202683 L 11.748252 16.754450 L 12.587413 18.020385 L 13.426573 18.370524 L 14.265734 25.770460 L 15.104895 16.093856 L 15.944056 16.290905 L 16.783217 19.123385 L 17.622378 18.143407 L 18.461538 17.741067 L 19.300699 17.991614 L 20.139860 18.171568 L 20.979021 18.696166 L 21.818182 18.101586 L 22.657343 20.050323 L 23.496503 21.882983 L 24.335664 28.423215 L 25.174825 30.041274 L 26.013986 30.924559 L 26.853147 29.971826 L 27.692308 29.865670 L 28.531469 29.204695 L 29.370629 28.843871 L 30.209790 28.032247 L 31.048951 30.963633 L 31.888112 34.570953 L 32.727273 35.343503 L 33.566434 33.529388 L 34.405594 32.907181 L 35.244755 33.967749 L 36.083916 30.676836 L 36.923077 30.130106 L 37.762238 26.818131 L 38.601399 25.409484 L 39.440559 25.308823 L 40.279720 27.779182 L 41.118881 28.917058 L 41.958042 26.357409 L 42.797203 27.377300 L 43.636364 26.199205 L 44.475524 21.936862 L 45.314685 13.477427 L 46.153846 13.395921 L 46.993007 15.344888 L 47.832168 15.321077 L 48.671329 14.317823 L 49.510490 14.739547 L 50.349650 14.765418 L 51.188811 15.591237 L 52.027972 11.972317 L 52.867133 11.549830 L 53.706294 12.935352 L 54.545455 13.865267 L 55.384615 12.288648 L 56.223776 11.955527 L 57.062937 13.322658 L 57.902098 13.970507 L 58.741259 16.103853 L 59.580420 16.254883 L 60.419580 13.311287 L 61.258741 9.824547 L 62.097902 11.176643 L 62.937063 11.043318 L 63.776224 11.611493 L 64.615385 20.331701 L 65.454545 25.816250 L 66.293706 30.118430 L 67.132867 28.998335 L 67.972028 30.236186 L 68.811189 29.489507 L 69.650350 33.047908 L 70.489510 24.206968 L 71.328671 22.403460 L 72.167832 22.360723 L 73.006993 22.360723 L 73.846154 27.730874 L 74.685315 25.404829 L 75.524476 25.009281 L 76.363636 21.390438 L 77.202797 24.928310 L 78.041958 28.736265 L 78.881119 24.644108 L 79.720280 24.848941 L 80.559441 24.617015 L 81.398601 26.428765 L 82.237762 23.741438 L 83.076923 23.877663 L 83.916084 24.151562 L 84.755245 19.123614 L 85.594406 19.578841 L 86.433566 20.497842 L 87.272727 19.922112 L 88.111888 20.602014 L 88.951049 19.114609 L 89.790210 18.921834 L 90.629371 19.183293 L 91.468531 19.359584 L 92.307692 18.956634 L 93.146853 18.369380 L 93.986014 17.878437 L 94.825175 16.730410 L 95.664336 17.246385 L 96.503497 16.134075 L 97.342657 16.223136 L 98.181818 16.190778 L 99.020979 12.631385 L 99.860140 12.394117 L 100.699301 8.800000 L 101.538462 14.147256 L 102.377622 14.139013 L 103.216783 14.298362 L 104.055944 15.527436 L 104.895105 15.447762 L 105.734266 20.012852 L 106.573427 17.873476 L 107.412587 15.812172 L 108.251748 25.473513 L 109.090909 25.601954 L 109.930070 23.134571 L 110.769231 20.914300 L 111.608392 19.470090 L 112.447552 16.510238 L 113.286713 17.418097 L 114.125874 25.487784 L 114.965035 28.655446 L 115.804196 29.244837 L 116.643357 30.158877 L 117.482517 30.836032 L 118.321678 36.800000 L 119.160839 36.544493 L 120.000000 34.528979 L 120 40 Z"></path>
    </g>
  </svg>