<svg xmlns="http://www.w3.org/2000/svg" viewBox="0 0 120 40" width="120" height="40">
    <defs>
      <linearGradient id="color_grad" x1="0%" x2="0%" y1="0%" y2="100%">
        <stop offset="0%" style="stop-color:#EA3943;stop-opacity:0.4;"></stop>
        <stop offset="100%" style="stop-color:#EA3943;stop-opacity:0.0;"></stop>
      </linearGradient>
    </defs>
    <g>
      <path stroke="#EA3943" stroke-width="2" stroke-linecap="round" stroke-linejoin="round" fill="none" d="M 0.000000 8.800000 L 0.839161 9.226179 L 1.678322 15.302082 L 2.517483 18.395445 L 3.356643 19.233920 L 4.195804 15.327481 L 5.034965 18.584280 L 5.874126 15.549523 L 6.713287 16.553957 L 7.552448 16.282695 L 8.391608 16.688444 L 9.230769 15.690951 L 10.069930 16.638198 L 10.909091 15.814869 L 11.748252 16.175105 L 12.587413 16.518935 L 13.426573 16.756121 L 14.265734 15.998339 L 15.104895 15.075307 L 15.944056 21.008441 L 16.783217 20.452350 L 17.622378 16.840679 L 18.461538 16.156884 L 19.300699 16.686866 L 20.139860 17.162975 L 20.979021 17.278058 L 21.818182 22.971244 L 22.657343 16.193720 L 23.496503 16.843360 L 24.335664 19.703087 L 25.174825 27.312381 L 26.013986 24.745923 L 26.853147 22.288396 L 27.692308 20.673919 L 28.531469 20.871588 L 29.370629 19.515673 L 30.209790 18.992711 L 31.048951 20.905347 L 31.888112 20.945970 L 32.727273 21.633077 L 33.566434 24.151498 L 34.405594 23.749141 L 35.244755 21.707696 L 36.083916 19.542491 L 36.923077 19.179809 L 37.762238 17.801730 L 38.601399 13.956579 L 39.440559 14.105658 L 40.279720 17.659355 L 41.118881 20.208854 L 41.958042 17.078102 L 42.797203 15.023090 L 43.636364 16.225035 L 44.475524 16.391152 L 45.314685 15.294115 L 46.153846 17.166840 L 46.993007 18.370441 L 47.832168 19.098486 L 48.671329 18.497514 L 49.510490 19.708056 L 50.349650 19.719730 L 51.188811 19.276830 L 52.027972 17.204701 L 52.867133 18.989161 L 53.706294 16.417261 L 54.545455 16.665964 L 55.384615 13.926999 L 56.223776 14.003827 L 57.062937 15.350040 L 57.902098 15.367235 L 58.741259 16.344772 L 59.580420 17.759135 L 60.419580 17.339109 L 61.258741 15.646858 L 62.097902 15.834273 L 62.937063 17.017918 L 63.776224 20.849028 L 64.615385 18.011072 L 65.454545 17.959013 L 66.293706 21.098204 L 67.132867 20.367162 L 67.972028 16.345876 L 68.811189 16.208786 L 69.650350 24.998807 L 70.489510 21.846521 L 71.328671 20.609318 L 72.167832 20.666110 L 73.006993 20.666110 L 73.846154 28.701504 L 74.685315 25.175494 L 75.524476 24.930104 L 76.363636 22.190903 L 77.202797 22.984969 L 78.041958 24.630998 L 78.881119 22.041192 L 79.720280 22.166293 L 80.559441 22.050973 L 81.398601 23.916126 L 82.237762 22.380526 L 83.076923 26.719770 L 83.916084 22.742182 L 84.755245 19.586663 L 85.594406 19.876698 L 86.433566 20.445725 L 87.272727 20.091877 L 88.111888 20.513796 L 88.951049 19.578775 L 89.790210 17.126454 L 90.629371 19.369748 L 91.468531 20.508196 L 92.307692 20.260045 L 93.146853 19.899493 L 93.986014 19.586663 L 94.825175 18.870923 L 95.664336 16.335780 L 96.503497 16.906778 L 97.342657 17.262361 L 98.181818 18.730125 L 99.020979 17.667006 L 99.860140 17.330275 L 100.699301 18.266401 L 101.538462 21.931157 L 102.377622 24.123023 L 103.216783 22.053655 L 104.055944 24.483259 L 104.895105 23.682094 L 105.734266 27.205028 L 106.573427 25.179201 L 107.412587 25.874196 L 108.251748 30.088260 L 109.090909 36.800000 L 109.930070 26.838718 L 110.769231 24.456914 L 111.608392 26.257859 L 112.447552 28.390487 L 113.286713 32.531431 L 114.125874 33.772184 L 114.965035 29.841293 L 115.804196 29.237481 L 116.643357 29.170592 L 117.482517 29.955350 L 118.321678 32.307654 L 119.160839 32.315463 L 120.000000 33.863210"></path>
      <path stroke="none" fill-opacity="0.6" fill="url(#color_grad)" d="M 0 40 L 0.000000 8.800000 L 0.839161 9.226179 L 1.678322 15.302082 L 2.517483 18.395445 L 3.356643 19.233920 L 4.195804 15.327481 L 5.034965 18.584280 L 5.874126 15.549523 L 6.713287 16.553957 L 7.552448 16.282695 L 8.391608 16.688444 L 9.230769 15.690951 L 10.069930 16.638198 L 10.909091 15.814869 L 11.748252 16.175105 L 12.587413 16.518935 L 13.426573 16.756121 L 14.265734 15.998339 L 15.104895 15.075307 L 15.944056 21.008441 L 16.783217 20.452350 L 17.622378 16.840679 L 18.461538 16.156884 L 19.300699 16.686866 L 20.139860 17.162975 L 20.979021 17.278058 L 21.818182 22.971244 L 22.657343 16.193720 L 23.496503 16.843360 L 24.335664 19.703087 L 25.174825 27.312381 L 26.013986 24.745923 L 26.853147 22.288396 L 27.692308 20.673919 L 28.531469 20.871588 L 29.370629 19.515673 L 30.209790 18.992711 L 31.048951 20.905347 L 31.888112 20.945970 L 32.727273 21.633077 L 33.566434 24.151498 L 34.405594 23.749141 L 35.244755 21.707696 L 36.083916 19.542491 L 36.923077 19.179809 L 37.762238 17.801730 L 38.601399 13.956579 L 39.440559 14.105658 L 40.279720 17.659355 L 41.118881 20.208854 L 41.958042 17.078102 L 42.797203 15.023090 L 43.636364 16.225035 L 44.475524 16.391152 L 45.314685 15.294115 L 46.153846 17.166840 L 46.993007 18.370441 L 47.832168 19.098486 L 48.671329 18.497514 L 49.510490 19.708056 L 50.349650 19.719730 L 51.188811 19.276830 L 52.027972 17.204701 L 52.867133 18.989161 L 53.706294 16.417261 L 54.545455 16.665964 L 55.384615 13.926999 L 56.223776 14.003827 L 57.062937 15.350040 L 57.902098 15.367235 L 58.741259 16.344772 L 59.580420 17.759135 L 60.419580 17.339109 L 61.258741 15.646858 L 62.097902 15.834273 L 62.937063 17.017918 L 63.776224 20.849028 L 64.615385 18.011072 L 65.454545 17.959013 L 66.293706 21.098204 L 67.132867 20.367162 L 67.972028 16.345876 L 68.811189 16.208786 L 69.650350 24.998807 L 70.489510 21.846521 L 71.328671 20.609318 L 72.167832 20.666110 L 73.006993 20.666110 L 73.846154 28.701504 L 74.685315 25.175494 L 75.524476 24.930104 L 76.363636 22.190903 L 77.202797 22.984969 L 78.041958 24.630998 L 78.881119 22.041192 L 79.720280 22.166293 L 80.559441 22.050973 L 81.398601 23.916126 L 82.237762 22.380526 L 83.076923 26.719770 L 83.916084 22.742182 L 84.755245 19.586663 L 85.594406 19.876698 L 86.433566 20.445725 L 87.272727 20.091877 L 88.111888 20.513796 L 88.951049 19.578775 L 89.790210 17.126454 L 90.629371 19.369748 L 91.468531 20.508196 L 92.307692 20.260045 L 93.146853 19.899493 L 93.986014 19.586663 L 94.825175 18.870923 L 95.664336 16.335780 L 96.503497 16.906778 L 97.342657 17.262361 L 98.181818 18.730125 L 99.020979 17.667006 L 99.860140 17.330275 L 100.699301 18.266401 L 101.538462 21.931157 L 102.377622 24.123023 L 103.216783 22.053655 L 104.055944 24.483259 L 104.895105 23.682094 L 105.734266 27.205028 L 106.573427 25.179201 L 107.412587 25.874196 L 108.251748 30.088260 L 109.090909 36.800000 L 109.930070 26.838718 L 110.769231 24.456914 L 111.608392 26.257859 L 112.447552 28.390487 L 113.286713 32.531431 L 114.125874 33.772184 L 114.965035 29.841293 L 115.804196 29.237481 L 116.643357 29.170592 L 117.482517 29.955350 L 118.321678 32.307654 L 119.160839 32.315463 L 120.000000 33.863210 L 120 40 Z"></path>
    </g>
  </svg>