<svg xmlns="http://www.w3.org/2000/svg" viewBox="0 0 120 40" width="120" height="40">
    <defs>
      <linearGradient id="color_grad" x1="0%" x2="0%" y1="0%" y2="100%">
        <stop offset="0%" style="stop-color:#EA3943;stop-opacity:0.4;"></stop>
        <stop offset="100%" style="stop-color:#EA3943;stop-opacity:0.0;"></stop>
      </linearGradient>
    </defs>
    <g>
      <path stroke="#EA3943" stroke-width="2" stroke-linecap="round" stroke-linejoin="round" fill="none" d="M 0.000000 8.800000 L 0.839161 9.583321 L 1.678322 13.330549 L 2.517483 15.386460 L 3.356643 15.392119 L 4.195804 12.576086 L 5.034965 15.405322 L 5.874126 12.910879 L 6.713287 12.845807 L 7.552448 12.908616 L 8.391608 13.088555 L 9.230769 13.088555 L 10.069930 13.088555 L 10.909091 13.088555 L 11.748252 13.088555 L 12.587413 13.088555 L 13.426573 13.088555 L 14.265734 13.088555 L 15.104895 13.088555 L 15.944056 17.377110 L 16.783217 17.377110 L 17.622378 15.290266 L 18.461538 15.273291 L 19.300699 15.543011 L 20.139860 15.812732 L 20.979021 15.812732 L 21.818182 20.236147 L 22.657343 15.277629 L 23.496503 15.499630 L 24.335664 17.377110 L 25.174825 22.535372 L 26.013986 20.236147 L 26.853147 18.876605 L 27.692308 17.742270 L 28.531469 18.240216 L 29.370629 17.377110 L 30.209790 17.377110 L 31.048951 17.377110 L 31.888112 17.377110 L 32.727273 17.511970 L 33.566434 20.236147 L 34.405594 20.236147 L 35.244755 18.240216 L 36.083916 18.240216 L 36.923077 18.240216 L 37.762238 18.806628 L 38.601399 16.738835 L 39.440559 16.891613 L 40.279720 18.257568 L 41.118881 20.271607 L 41.958042 18.508050 L 42.797203 16.567194 L 43.636364 17.970495 L 44.475524 18.240216 L 45.314685 18.240216 L 46.153846 19.588818 L 46.993007 19.588818 L 47.832168 20.120714 L 48.671329 20.128259 L 49.510490 20.803503 L 50.349650 20.795958 L 51.188811 20.128259 L 52.027972 20.236147 L 52.867133 21.665665 L 53.706294 19.266285 L 54.545455 19.196497 L 55.384615 17.970495 L 56.223776 18.170428 L 57.062937 18.509936 L 57.902098 18.240216 L 58.741259 18.240216 L 59.580420 19.243651 L 60.419580 20.236147 L 61.258741 20.236147 L 62.097902 19.790637 L 62.937063 20.667700 L 63.776224 23.095184 L 64.615385 20.236147 L 65.454545 19.402465 L 66.293706 21.665665 L 67.132867 21.665665 L 67.972028 18.240216 L 68.811189 18.492961 L 69.650350 23.095184 L 70.489510 20.673358 L 71.328671 20.607343 L 72.167832 20.667700 L 73.006993 20.667700 L 73.846154 25.418929 L 74.685315 23.904345 L 75.524476 23.904345 L 76.363636 23.561064 L 77.202797 22.553857 L 78.041958 22.016302 L 78.881119 22.016302 L 79.720280 22.016302 L 80.559441 22.286022 L 81.398601 22.897137 L 82.237762 22.825463 L 83.076923 25.555864 L 83.916084 22.555743 L 84.755245 22.555743 L 85.594406 22.555743 L 86.433566 22.555743 L 87.272727 22.555743 L 88.111888 22.555743 L 88.951049 22.555743 L 89.790210 20.937420 L 90.629371 22.370899 L 91.468531 23.095184 L 92.307692 23.095184 L 93.146853 23.095184 L 93.986014 23.095184 L 94.825175 23.095184 L 95.664336 21.118491 L 96.503497 21.476861 L 97.342657 22.346379 L 98.181818 23.364904 L 99.020979 23.500707 L 99.860140 23.364904 L 100.699301 25.477400 L 101.538462 25.775790 L 102.377622 27.293769 L 103.216783 25.954220 L 104.055944 27.163624 L 104.895105 27.140990 L 105.734266 30.947255 L 106.573427 29.029033 L 107.412587 29.029033 L 108.251748 32.805120 L 109.090909 36.237925 L 109.930070 29.992860 L 110.769231 29.298754 L 111.608392 31.081172 L 112.447552 33.655776 L 113.286713 36.041765 L 114.125874 36.800000 L 114.965035 33.719906 L 115.804196 33.074840 L 116.643357 32.654227 L 117.482517 33.701044 L 118.321678 34.423442 L 119.160839 34.531330 L 120.000000 34.828023"></path>
      <path stroke="none" fill-opacity="0.6" fill="url(#color_grad)" d="M 0 40 L 0.000000 8.800000 L 0.839161 9.583321 L 1.678322 13.330549 L 2.517483 15.386460 L 3.356643 15.392119 L 4.195804 12.576086 L 5.034965 15.405322 L 5.874126 12.910879 L 6.713287 12.845807 L 7.552448 12.908616 L 8.391608 13.088555 L 9.230769 13.088555 L 10.069930 13.088555 L 10.909091 13.088555 L 11.748252 13.088555 L 12.587413 13.088555 L 13.426573 13.088555 L 14.265734 13.088555 L 15.104895 13.088555 L 15.944056 17.377110 L 16.783217 17.377110 L 17.622378 15.290266 L 18.461538 15.273291 L 19.300699 15.543011 L 20.139860 15.812732 L 20.979021 15.812732 L 21.818182 20.236147 L 22.657343 15.277629 L 23.496503 15.499630 L 24.335664 17.377110 L 25.174825 22.535372 L 26.013986 20.236147 L 26.853147 18.876605 L 27.692308 17.742270 L 28.531469 18.240216 L 29.370629 17.377110 L 30.209790 17.377110 L 31.048951 17.377110 L 31.888112 17.377110 L 32.727273 17.511970 L 33.566434 20.236147 L 34.405594 20.236147 L 35.244755 18.240216 L 36.083916 18.240216 L 36.923077 18.240216 L 37.762238 18.806628 L 38.601399 16.738835 L 39.440559 16.891613 L 40.279720 18.257568 L 41.118881 20.271607 L 41.958042 18.508050 L 42.797203 16.567194 L 43.636364 17.970495 L 44.475524 18.240216 L 45.314685 18.240216 L 46.153846 19.588818 L 46.993007 19.588818 L 47.832168 20.120714 L 48.671329 20.128259 L 49.510490 20.803503 L 50.349650 20.795958 L 51.188811 20.128259 L 52.027972 20.236147 L 52.867133 21.665665 L 53.706294 19.266285 L 54.545455 19.196497 L 55.384615 17.970495 L 56.223776 18.170428 L 57.062937 18.509936 L 57.902098 18.240216 L 58.741259 18.240216 L 59.580420 19.243651 L 60.419580 20.236147 L 61.258741 20.236147 L 62.097902 19.790637 L 62.937063 20.667700 L 63.776224 23.095184 L 64.615385 20.236147 L 65.454545 19.402465 L 66.293706 21.665665 L 67.132867 21.665665 L 67.972028 18.240216 L 68.811189 18.492961 L 69.650350 23.095184 L 70.489510 20.673358 L 71.328671 20.607343 L 72.167832 20.667700 L 73.006993 20.667700 L 73.846154 25.418929 L 74.685315 23.904345 L 75.524476 23.904345 L 76.363636 23.561064 L 77.202797 22.553857 L 78.041958 22.016302 L 78.881119 22.016302 L 79.720280 22.016302 L 80.559441 22.286022 L 81.398601 22.897137 L 82.237762 22.825463 L 83.076923 25.555864 L 83.916084 22.555743 L 84.755245 22.555743 L 85.594406 22.555743 L 86.433566 22.555743 L 87.272727 22.555743 L 88.111888 22.555743 L 88.951049 22.555743 L 89.790210 20.937420 L 90.629371 22.370899 L 91.468531 23.095184 L 92.307692 23.095184 L 93.146853 23.095184 L 93.986014 23.095184 L 94.825175 23.095184 L 95.664336 21.118491 L 96.503497 21.476861 L 97.342657 22.346379 L 98.181818 23.364904 L 99.020979 23.500707 L 99.860140 23.364904 L 100.699301 25.477400 L 101.538462 25.775790 L 102.377622 27.293769 L 103.216783 25.954220 L 104.055944 27.163624 L 104.895105 27.140990 L 105.734266 30.947255 L 106.573427 29.029033 L 107.412587 29.029033 L 108.251748 32.805120 L 109.090909 36.237925 L 109.930070 29.992860 L 110.769231 29.298754 L 111.608392 31.081172 L 112.447552 33.655776 L 113.286713 36.041765 L 114.125874 36.800000 L 114.965035 33.719906 L 115.804196 33.074840 L 116.643357 32.654227 L 117.482517 33.701044 L 118.321678 34.423442 L 119.160839 34.531330 L 120.000000 34.828023 L 120 40 Z"></path>
    </g>
  </svg>