<svg xmlns="http://www.w3.org/2000/svg" viewBox="0 0 120 40" width="120" height="40">
    <defs>
      <linearGradient id="color_grad" x1="0%" x2="0%" y1="0%" y2="100%">
        <stop offset="0%" style="stop-color:#EA3943;stop-opacity:0.4;"></stop>
        <stop offset="100%" style="stop-color:#EA3943;stop-opacity:0.0;"></stop>
      </linearGradient>
    </defs>
    <g>
      <path stroke="#EA3943" stroke-width="2" stroke-linecap="round" stroke-linejoin="round" fill="none" d="M 0.000000 23.702812 L 0.839161 23.351135 L 1.678322 26.121391 L 2.517483 25.071610 L 3.356643 23.619413 L 4.195804 17.285732 L 5.034965 15.279483 L 5.874126 15.279483 L 6.713287 15.279483 L 7.552448 9.524932 L 8.391608 16.530473 L 9.230769 16.530473 L 10.069930 10.275526 L 10.909091 10.275526 L 11.748252 10.275526 L 12.587413 10.358925 L 13.426573 10.442325 L 14.265734 10.442325 L 15.104895 11.192918 L 15.944056 11.192918 L 16.783217 11.192918 L 17.622378 11.109519 L 18.461538 16.113476 L 19.300699 10.275526 L 20.139860 10.275526 L 20.979021 11.357967 L 21.818182 11.928348 L 22.657343 12.860904 L 23.496503 13.757884 L 24.335664 12.026911 L 25.174825 12.777505 L 26.013986 13.057446 L 26.853147 15.279483 L 27.692308 15.279483 L 28.531469 15.572256 L 29.370629 16.947469 L 30.209790 20.071152 L 31.048951 21.269652 L 31.888112 19.210331 L 32.727273 18.198459 L 33.566434 19.616247 L 34.405594 19.682733 L 35.244755 19.647740 L 36.083916 20.867236 L 36.923077 19.789461 L 37.762238 20.700437 L 38.601399 19.699646 L 39.440559 20.082233 L 40.279720 20.366840 L 41.118881 20.450240 L 41.958042 20.450240 L 42.797203 20.450240 L 43.636364 20.450240 L 44.475524 20.450240 L 45.314685 20.450240 L 46.153846 20.450240 L 46.993007 20.450240 L 47.832168 20.450240 L 48.671329 20.450240 L 49.510490 20.450240 L 50.349650 20.450240 L 51.188811 20.450240 L 52.027972 20.450240 L 52.867133 20.450240 L 53.706294 20.450240 L 54.545455 20.450240 L 55.384615 20.450240 L 56.223776 20.450240 L 57.062937 20.450240 L 57.902098 20.450240 L 58.741259 20.450240 L 59.580420 20.450240 L 60.419580 20.450240 L 61.258741 20.450240 L 62.097902 14.099063 L 62.937063 9.106186 L 63.776224 9.370381 L 64.615385 8.800000 L 65.454545 11.109519 L 66.293706 12.190210 L 67.132867 15.662070 L 67.972028 17.534764 L 68.811189 17.030869 L 69.650350 18.118559 L 70.489510 19.218496 L 71.328671 19.300729 L 72.167832 19.366049 L 73.006993 19.366049 L 73.846154 21.309894 L 74.685315 21.951427 L 75.524476 21.951427 L 76.363636 21.284232 L 77.202797 21.284232 L 78.041958 23.648573 L 78.881119 21.698313 L 79.720280 23.619413 L 80.559441 24.036409 L 81.398601 24.036409 L 82.237762 24.453406 L 83.076923 24.870402 L 83.916084 24.870402 L 84.755245 24.870402 L 85.594406 24.870402 L 86.433566 24.870402 L 87.272727 24.870402 L 88.111888 24.870402 L 88.951049 24.870402 L 89.790210 24.870402 L 90.629371 24.870402 L 91.468531 24.870402 L 92.307692 24.870402 L 93.146853 24.870402 L 93.986014 24.870402 L 94.825175 27.217830 L 95.664336 27.956176 L 96.503497 27.956176 L 97.342657 27.956176 L 98.181818 30.594626 L 99.020979 31.209331 L 99.860140 31.125349 L 100.699301 32.285940 L 101.538462 31.991418 L 102.377622 32.126140 L 103.216783 31.551094 L 104.055944 29.290564 L 104.895105 29.290564 L 105.734266 31.959342 L 106.573427 31.959342 L 107.412587 31.959342 L 108.251748 28.122974 L 109.090909 31.959342 L 109.930070 32.793335 L 110.769231 32.453322 L 111.608392 31.992585 L 112.447552 32.021162 L 113.286713 32.793335 L 114.125874 32.793335 L 114.965035 32.914060 L 115.804196 33.694397 L 116.643357 36.800000 L 117.482517 34.461321 L 118.321678 34.461321 L 119.160839 34.461321 L 120.000000 34.878317"></path>
      <path stroke="none" fill-opacity="0.6" fill="url(#color_grad)" d="M 0 40 L 0.000000 23.702812 L 0.839161 23.351135 L 1.678322 26.121391 L 2.517483 25.071610 L 3.356643 23.619413 L 4.195804 17.285732 L 5.034965 15.279483 L 5.874126 15.279483 L 6.713287 15.279483 L 7.552448 9.524932 L 8.391608 16.530473 L 9.230769 16.530473 L 10.069930 10.275526 L 10.909091 10.275526 L 11.748252 10.275526 L 12.587413 10.358925 L 13.426573 10.442325 L 14.265734 10.442325 L 15.104895 11.192918 L 15.944056 11.192918 L 16.783217 11.192918 L 17.622378 11.109519 L 18.461538 16.113476 L 19.300699 10.275526 L 20.139860 10.275526 L 20.979021 11.357967 L 21.818182 11.928348 L 22.657343 12.860904 L 23.496503 13.757884 L 24.335664 12.026911 L 25.174825 12.777505 L 26.013986 13.057446 L 26.853147 15.279483 L 27.692308 15.279483 L 28.531469 15.572256 L 29.370629 16.947469 L 30.209790 20.071152 L 31.048951 21.269652 L 31.888112 19.210331 L 32.727273 18.198459 L 33.566434 19.616247 L 34.405594 19.682733 L 35.244755 19.647740 L 36.083916 20.867236 L 36.923077 19.789461 L 37.762238 20.700437 L 38.601399 19.699646 L 39.440559 20.082233 L 40.279720 20.366840 L 41.118881 20.450240 L 41.958042 20.450240 L 42.797203 20.450240 L 43.636364 20.450240 L 44.475524 20.450240 L 45.314685 20.450240 L 46.153846 20.450240 L 46.993007 20.450240 L 47.832168 20.450240 L 48.671329 20.450240 L 49.510490 20.450240 L 50.349650 20.450240 L 51.188811 20.450240 L 52.027972 20.450240 L 52.867133 20.450240 L 53.706294 20.450240 L 54.545455 20.450240 L 55.384615 20.450240 L 56.223776 20.450240 L 57.062937 20.450240 L 57.902098 20.450240 L 58.741259 20.450240 L 59.580420 20.450240 L 60.419580 20.450240 L 61.258741 20.450240 L 62.097902 14.099063 L 62.937063 9.106186 L 63.776224 9.370381 L 64.615385 8.800000 L 65.454545 11.109519 L 66.293706 12.190210 L 67.132867 15.662070 L 67.972028 17.534764 L 68.811189 17.030869 L 69.650350 18.118559 L 70.489510 19.218496 L 71.328671 19.300729 L 72.167832 19.366049 L 73.006993 19.366049 L 73.846154 21.309894 L 74.685315 21.951427 L 75.524476 21.951427 L 76.363636 21.284232 L 77.202797 21.284232 L 78.041958 23.648573 L 78.881119 21.698313 L 79.720280 23.619413 L 80.559441 24.036409 L 81.398601 24.036409 L 82.237762 24.453406 L 83.076923 24.870402 L 83.916084 24.870402 L 84.755245 24.870402 L 85.594406 24.870402 L 86.433566 24.870402 L 87.272727 24.870402 L 88.111888 24.870402 L 88.951049 24.870402 L 89.790210 24.870402 L 90.629371 24.870402 L 91.468531 24.870402 L 92.307692 24.870402 L 93.146853 24.870402 L 93.986014 24.870402 L 94.825175 27.217830 L 95.664336 27.956176 L 96.503497 27.956176 L 97.342657 27.956176 L 98.181818 30.594626 L 99.020979 31.209331 L 99.860140 31.125349 L 100.699301 32.285940 L 101.538462 31.991418 L 102.377622 32.126140 L 103.216783 31.551094 L 104.055944 29.290564 L 104.895105 29.290564 L 105.734266 31.959342 L 106.573427 31.959342 L 107.412587 31.959342 L 108.251748 28.122974 L 109.090909 31.959342 L 109.930070 32.793335 L 110.769231 32.453322 L 111.608392 31.992585 L 112.447552 32.021162 L 113.286713 32.793335 L 114.125874 32.793335 L 114.965035 32.914060 L 115.804196 33.694397 L 116.643357 36.800000 L 117.482517 34.461321 L 118.321678 34.461321 L 119.160839 34.461321 L 120.000000 34.878317 L 120 40 Z"></path>
    </g>
  </svg>