<svg xmlns="http://www.w3.org/2000/svg" viewBox="0 0 120 40" width="120" height="40">
    <defs>
      <linearGradient id="color_grad" x1="0%" x2="0%" y1="0%" y2="100%">
        <stop offset="0%" style="stop-color:#888888;stop-opacity:0.4;"></stop>
        <stop offset="100%" style="stop-color:#888888;stop-opacity:0.0;"></stop>
      </linearGradient>
    </defs>
    <g>
      <path stroke="#888888" stroke-width="2" stroke-linecap="round" stroke-linejoin="round" fill="none" d="M 0.000000 34.054716 L 0.839161 32.967040 L 1.678322 36.800000 L 2.517483 36.178190 L 3.356643 35.822104 L 4.195804 29.659965 L 5.034965 27.032069 L 5.874126 27.462358 L 6.713287 28.857410 L 7.552448 22.952440 L 8.391608 29.805306 L 9.230769 28.529930 L 10.069930 23.825566 L 10.909091 22.739886 L 11.748252 23.205271 L 12.587413 23.745787 L 13.426573 24.122219 L 14.265734 23.140932 L 15.104895 22.640382 L 15.944056 22.804053 L 16.783217 22.049572 L 17.622378 20.924270 L 18.461538 24.895083 L 19.300699 19.453329 L 20.139860 19.604797 L 20.979021 20.799395 L 21.818182 20.842185 L 22.657343 21.778341 L 23.496503 23.095113 L 24.335664 21.828945 L 25.174825 23.350628 L 26.013986 24.397942 L 26.853147 25.694454 L 27.692308 25.601301 L 28.531469 25.232839 L 29.370629 26.318398 L 30.209790 28.651965 L 31.048951 32.293594 L 31.888112 30.382174 L 32.727273 30.087466 L 33.566434 29.870953 L 34.405594 29.385723 L 35.244755 30.271654 L 36.083916 28.610793 L 36.923077 27.081141 L 37.762238 25.113747 L 38.601399 22.893024 L 39.440559 23.195098 L 40.279720 25.613057 L 41.118881 25.333651 L 41.958042 24.462488 L 42.797203 25.343445 L 43.636364 24.335737 L 44.475524 24.059601 L 45.314685 22.621741 L 46.153846 22.562290 L 46.993007 24.168743 L 47.832168 24.144767 L 48.671329 23.319698 L 49.510490 23.662067 L 50.349650 23.687971 L 51.188811 24.363741 L 52.027972 21.388639 L 52.867133 21.033585 L 53.706294 22.180747 L 54.545455 22.636510 L 55.384615 21.342596 L 56.223776 21.063224 L 57.062937 22.191435 L 57.902098 22.723621 L 58.741259 24.004797 L 59.580420 24.000545 L 60.419580 21.564324 L 61.258741 19.302498 L 62.097902 13.980713 L 62.937063 8.800000 L 63.776224 9.567632 L 64.615385 10.779047 L 65.454545 14.674263 L 66.293706 15.674932 L 67.132867 18.118605 L 67.972028 21.100627 L 68.811189 19.930917 L 69.650350 24.192531 L 70.489510 25.565069 L 71.328671 24.109843 L 72.167832 24.137934 L 73.006993 24.137934 L 73.846154 27.999225 L 74.685315 26.647444 L 75.524476 26.316212 L 76.363636 22.564012 L 77.202797 25.581748 L 78.041958 31.137103 L 78.881119 25.754542 L 79.720280 27.825037 L 80.559441 27.574943 L 81.398601 28.920545 L 82.237762 27.400273 L 83.076923 28.479567 L 83.916084 28.813003 L 84.755245 24.598327 L 85.594406 24.981729 L 86.433566 25.747623 L 87.272727 25.272392 L 88.111888 25.837625 L 88.951049 24.593490 L 89.790210 24.435740 L 90.629371 24.660687 L 91.468531 24.802498 L 92.307692 24.460560 L 93.146853 23.972610 L 93.986014 23.563113 L 94.825175 25.001868 L 95.664336 26.189926 L 96.503497 26.254162 L 97.342657 25.081405 L 98.181818 27.767978 L 99.020979 26.756036 L 99.860140 26.483033 L 100.699301 24.808832 L 101.538462 28.791212 L 102.377622 28.899322 L 103.216783 28.146441 L 104.055944 26.704417 L 104.895105 25.667448 L 105.734266 25.546704 L 106.573427 26.676430 L 107.412587 27.627045 L 108.251748 21.690834 L 109.090909 28.117490 L 109.930070 27.875142 L 110.769231 25.655830 L 111.608392 23.963005 L 112.447552 21.501603 L 113.286713 23.085904 L 114.125874 23.247458 L 114.965035 24.415842 L 115.804196 25.757175 L 116.643357 29.838508 L 117.482517 26.249411 L 118.321678 28.072825 L 119.160839 27.847585 L 120.000000 29.912263"></path>
      <path stroke="none" fill-opacity="0.6" fill="url(#color_grad)" d="M 0 40 L 0.000000 34.054716 L 0.839161 32.967040 L 1.678322 36.800000 L 2.517483 36.178190 L 3.356643 35.822104 L 4.195804 29.659965 L 5.034965 27.032069 L 5.874126 27.462358 L 6.713287 28.857410 L 7.552448 22.952440 L 8.391608 29.805306 L 9.230769 28.529930 L 10.069930 23.825566 L 10.909091 22.739886 L 11.748252 23.205271 L 12.587413 23.745787 L 13.426573 24.122219 L 14.265734 23.140932 L 15.104895 22.640382 L 15.944056 22.804053 L 16.783217 22.049572 L 17.622378 20.924270 L 18.461538 24.895083 L 19.300699 19.453329 L 20.139860 19.604797 L 20.979021 20.799395 L 21.818182 20.842185 L 22.657343 21.778341 L 23.496503 23.095113 L 24.335664 21.828945 L 25.174825 23.350628 L 26.013986 24.397942 L 26.853147 25.694454 L 27.692308 25.601301 L 28.531469 25.232839 L 29.370629 26.318398 L 30.209790 28.651965 L 31.048951 32.293594 L 31.888112 30.382174 L 32.727273 30.087466 L 33.566434 29.870953 L 34.405594 29.385723 L 35.244755 30.271654 L 36.083916 28.610793 L 36.923077 27.081141 L 37.762238 25.113747 L 38.601399 22.893024 L 39.440559 23.195098 L 40.279720 25.613057 L 41.118881 25.333651 L 41.958042 24.462488 L 42.797203 25.343445 L 43.636364 24.335737 L 44.475524 24.059601 L 45.314685 22.621741 L 46.153846 22.562290 L 46.993007 24.168743 L 47.832168 24.144767 L 48.671329 23.319698 L 49.510490 23.662067 L 50.349650 23.687971 L 51.188811 24.363741 L 52.027972 21.388639 L 52.867133 21.033585 L 53.706294 22.180747 L 54.545455 22.636510 L 55.384615 21.342596 L 56.223776 21.063224 L 57.062937 22.191435 L 57.902098 22.723621 L 58.741259 24.004797 L 59.580420 24.000545 L 60.419580 21.564324 L 61.258741 19.302498 L 62.097902 13.980713 L 62.937063 8.800000 L 63.776224 9.567632 L 64.615385 10.779047 L 65.454545 14.674263 L 66.293706 15.674932 L 67.132867 18.118605 L 67.972028 21.100627 L 68.811189 19.930917 L 69.650350 24.192531 L 70.489510 25.565069 L 71.328671 24.109843 L 72.167832 24.137934 L 73.006993 24.137934 L 73.846154 27.999225 L 74.685315 26.647444 L 75.524476 26.316212 L 76.363636 22.564012 L 77.202797 25.581748 L 78.041958 31.137103 L 78.881119 25.754542 L 79.720280 27.825037 L 80.559441 27.574943 L 81.398601 28.920545 L 82.237762 27.400273 L 83.076923 28.479567 L 83.916084 28.813003 L 84.755245 24.598327 L 85.594406 24.981729 L 86.433566 25.747623 L 87.272727 25.272392 L 88.111888 25.837625 L 88.951049 24.593490 L 89.790210 24.435740 L 90.629371 24.660687 L 91.468531 24.802498 L 92.307692 24.460560 L 93.146853 23.972610 L 93.986014 23.563113 L 94.825175 25.001868 L 95.664336 26.189926 L 96.503497 26.254162 L 97.342657 25.081405 L 98.181818 27.767978 L 99.020979 26.756036 L 99.860140 26.483033 L 100.699301 24.808832 L 101.538462 28.791212 L 102.377622 28.899322 L 103.216783 28.146441 L 104.055944 26.704417 L 104.895105 25.667448 L 105.734266 25.546704 L 106.573427 26.676430 L 107.412587 27.627045 L 108.251748 21.690834 L 109.090909 28.117490 L 109.930070 27.875142 L 110.769231 25.655830 L 111.608392 23.963005 L 112.447552 21.501603 L 113.286713 23.085904 L 114.125874 23.247458 L 114.965035 24.415842 L 115.804196 25.757175 L 116.643357 29.838508 L 117.482517 26.249411 L 118.321678 28.072825 L 119.160839 27.847585 L 120.000000 29.912263 L 120 40 Z"></path>
    </g>
  </svg>