<svg xmlns="http://www.w3.org/2000/svg" viewBox="0 0 120 40" width="120" height="40">
    <defs>
      <linearGradient id="color_grad" x1="0%" x2="0%" y1="0%" y2="100%">
        <stop offset="0%" style="stop-color:#EA3943;stop-opacity:0.4;"></stop>
        <stop offset="100%" style="stop-color:#EA3943;stop-opacity:0.0;"></stop>
      </linearGradient>
    </defs>
    <g>
      <path stroke="#EA3943" stroke-width="2" stroke-linecap="round" stroke-linejoin="round" fill="none" d="M 0.000000 14.886957 L 0.839161 15.495652 L 1.678322 16.804561 L 2.517483 20.619550 L 3.356643 18.618942 L 4.195804 18.082609 L 5.034965 18.666829 L 5.874126 18.691304 L 6.713287 20.133232 L 7.552448 20.630192 L 8.391608 23.865217 L 9.230769 23.045819 L 10.069930 22.495652 L 10.909091 22.495652 L 11.748252 22.495652 L 12.587413 22.495652 L 13.426573 22.495652 L 14.265734 22.495652 L 15.104895 22.495652 L 15.944056 22.495652 L 16.783217 26.135056 L 17.622378 22.782974 L 18.461538 22.530769 L 19.300699 23.018151 L 20.139860 23.560870 L 20.979021 23.713043 L 21.818182 23.256522 L 22.657343 23.965248 L 23.496503 23.562998 L 24.335664 25.599787 L 25.174825 30.830100 L 26.013986 26.908696 L 26.853147 26.908696 L 27.692308 26.908696 L 28.531469 24.610125 L 29.370629 24.321739 L 30.209790 24.959167 L 31.048951 29.952174 L 31.888112 29.233870 L 32.727273 28.582609 L 33.566434 24.654819 L 34.405594 26.908696 L 35.244755 27.060870 L 36.083916 27.851535 L 36.923077 24.801672 L 37.762238 26.845911 L 38.601399 27.060870 L 39.440559 28.294223 L 40.279720 27.060870 L 41.118881 27.060870 L 41.958042 24.930435 L 42.797203 24.930435 L 43.636364 24.930435 L 44.475524 24.930435 L 45.314685 25.386957 L 46.153846 25.386957 L 46.993007 26.020128 L 47.832168 24.626087 L 48.671329 24.626087 L 49.510490 24.626087 L 50.349650 24.626087 L 51.188811 24.626087 L 52.027972 24.626087 L 52.867133 24.626087 L 53.706294 24.626087 L 54.545455 24.626087 L 55.384615 24.626087 L 56.223776 24.778261 L 57.062937 24.778261 L 57.902098 18.234783 L 58.741259 18.234783 L 59.580420 18.234783 L 60.419580 18.234783 L 61.258741 18.386957 L 62.097902 18.485923 L 62.937063 18.234783 L 63.776224 18.082609 L 64.615385 18.082609 L 65.454545 14.222925 L 66.293706 8.800000 L 67.132867 8.800000 L 67.972028 8.800000 L 68.811189 14.806081 L 69.650350 14.886957 L 70.489510 14.734783 L 71.328671 14.751809 L 72.167832 14.734783 L 73.006993 14.734783 L 73.846154 14.886957 L 74.685315 14.734783 L 75.524476 16.713043 L 76.363636 17.888933 L 77.202797 22.343478 L 78.041958 22.343478 L 78.881119 17.554789 L 79.720280 16.256522 L 80.559441 14.734783 L 81.398601 14.820979 L 82.237762 10.695257 L 83.076923 13.365217 L 83.916084 11.886044 L 84.755245 20.973913 L 85.594406 20.973913 L 86.433566 20.973913 L 87.272727 20.973913 L 88.111888 17.930435 L 88.951049 17.930435 L 89.790210 17.930435 L 90.629371 17.930435 L 91.468531 18.234783 L 92.307692 18.234783 L 93.146853 18.234783 L 93.986014 18.234783 L 94.825175 18.234783 L 95.664336 18.234783 L 96.503497 18.234783 L 97.342657 22.495652 L 98.181818 19.300000 L 99.020979 19.300000 L 99.860140 19.550076 L 100.699301 22.495652 L 101.538462 22.495652 L 102.377622 23.256522 L 103.216783 24.626087 L 104.055944 24.826148 L 104.895105 26.147826 L 105.734266 26.621374 L 106.573427 29.191304 L 107.412587 29.343478 L 108.251748 29.952174 L 109.090909 29.952174 L 109.930070 32.399726 L 110.769231 34.037458 L 111.608392 33.625631 L 112.447552 31.017391 L 113.286713 31.017391 L 114.125874 31.017391 L 114.965035 31.017391 L 115.804196 31.612253 L 116.643357 31.017391 L 117.482517 34.517391 L 118.321678 36.800000 L 119.160839 33.658620 L 120.000000 33.147826"></path>
      <path stroke="none" fill-opacity="0.6" fill="url(#color_grad)" d="M 0 40 L 0.000000 14.886957 L 0.839161 15.495652 L 1.678322 16.804561 L 2.517483 20.619550 L 3.356643 18.618942 L 4.195804 18.082609 L 5.034965 18.666829 L 5.874126 18.691304 L 6.713287 20.133232 L 7.552448 20.630192 L 8.391608 23.865217 L 9.230769 23.045819 L 10.069930 22.495652 L 10.909091 22.495652 L 11.748252 22.495652 L 12.587413 22.495652 L 13.426573 22.495652 L 14.265734 22.495652 L 15.104895 22.495652 L 15.944056 22.495652 L 16.783217 26.135056 L 17.622378 22.782974 L 18.461538 22.530769 L 19.300699 23.018151 L 20.139860 23.560870 L 20.979021 23.713043 L 21.818182 23.256522 L 22.657343 23.965248 L 23.496503 23.562998 L 24.335664 25.599787 L 25.174825 30.830100 L 26.013986 26.908696 L 26.853147 26.908696 L 27.692308 26.908696 L 28.531469 24.610125 L 29.370629 24.321739 L 30.209790 24.959167 L 31.048951 29.952174 L 31.888112 29.233870 L 32.727273 28.582609 L 33.566434 24.654819 L 34.405594 26.908696 L 35.244755 27.060870 L 36.083916 27.851535 L 36.923077 24.801672 L 37.762238 26.845911 L 38.601399 27.060870 L 39.440559 28.294223 L 40.279720 27.060870 L 41.118881 27.060870 L 41.958042 24.930435 L 42.797203 24.930435 L 43.636364 24.930435 L 44.475524 24.930435 L 45.314685 25.386957 L 46.153846 25.386957 L 46.993007 26.020128 L 47.832168 24.626087 L 48.671329 24.626087 L 49.510490 24.626087 L 50.349650 24.626087 L 51.188811 24.626087 L 52.027972 24.626087 L 52.867133 24.626087 L 53.706294 24.626087 L 54.545455 24.626087 L 55.384615 24.626087 L 56.223776 24.778261 L 57.062937 24.778261 L 57.902098 18.234783 L 58.741259 18.234783 L 59.580420 18.234783 L 60.419580 18.234783 L 61.258741 18.386957 L 62.097902 18.485923 L 62.937063 18.234783 L 63.776224 18.082609 L 64.615385 18.082609 L 65.454545 14.222925 L 66.293706 8.800000 L 67.132867 8.800000 L 67.972028 8.800000 L 68.811189 14.806081 L 69.650350 14.886957 L 70.489510 14.734783 L 71.328671 14.751809 L 72.167832 14.734783 L 73.006993 14.734783 L 73.846154 14.886957 L 74.685315 14.734783 L 75.524476 16.713043 L 76.363636 17.888933 L 77.202797 22.343478 L 78.041958 22.343478 L 78.881119 17.554789 L 79.720280 16.256522 L 80.559441 14.734783 L 81.398601 14.820979 L 82.237762 10.695257 L 83.076923 13.365217 L 83.916084 11.886044 L 84.755245 20.973913 L 85.594406 20.973913 L 86.433566 20.973913 L 87.272727 20.973913 L 88.111888 17.930435 L 88.951049 17.930435 L 89.790210 17.930435 L 90.629371 17.930435 L 91.468531 18.234783 L 92.307692 18.234783 L 93.146853 18.234783 L 93.986014 18.234783 L 94.825175 18.234783 L 95.664336 18.234783 L 96.503497 18.234783 L 97.342657 22.495652 L 98.181818 19.300000 L 99.020979 19.300000 L 99.860140 19.550076 L 100.699301 22.495652 L 101.538462 22.495652 L 102.377622 23.256522 L 103.216783 24.626087 L 104.055944 24.826148 L 104.895105 26.147826 L 105.734266 26.621374 L 106.573427 29.191304 L 107.412587 29.343478 L 108.251748 29.952174 L 109.090909 29.952174 L 109.930070 32.399726 L 110.769231 34.037458 L 111.608392 33.625631 L 112.447552 31.017391 L 113.286713 31.017391 L 114.125874 31.017391 L 114.965035 31.017391 L 115.804196 31.612253 L 116.643357 31.017391 L 117.482517 34.517391 L 118.321678 36.800000 L 119.160839 33.658620 L 120.000000 33.147826 L 120 40 Z"></path>
    </g>
  </svg>