<svg xmlns="http://www.w3.org/2000/svg" viewBox="0 0 120 40" width="120" height="40">
    <defs>
      <linearGradient id="color_grad" x1="0%" x2="0%" y1="0%" y2="100%">
        <stop offset="0%" style="stop-color:#EA3943;stop-opacity:0.4;"></stop>
        <stop offset="100%" style="stop-color:#EA3943;stop-opacity:0.0;"></stop>
      </linearGradient>
    </defs>
    <g>
      <path stroke="#EA3943" stroke-width="2" stroke-linecap="round" stroke-linejoin="round" fill="none" d="M 0.000000 22.688740 L 0.839161 22.458993 L 1.678322 24.852989 L 2.517483 28.658456 L 3.356643 27.921392 L 4.195804 27.300273 L 5.034965 27.115177 L 5.874126 27.560042 L 6.713287 30.201499 L 7.552448 30.198326 L 8.391608 33.273103 L 9.230769 31.320240 L 10.069930 32.005603 L 10.909091 30.985153 L 11.748252 31.423378 L 12.587413 31.857521 L 13.426573 32.133270 L 14.265734 31.210082 L 15.104895 30.073568 L 15.944056 30.225998 L 16.783217 32.788581 L 17.622378 28.793760 L 18.461538 27.739292 L 19.300699 28.385644 L 20.139860 29.016486 L 20.979021 29.289914 L 21.818182 28.402858 L 22.657343 29.076295 L 23.496503 29.132931 L 24.335664 31.354669 L 25.174825 36.800000 L 26.013986 34.000355 L 26.853147 33.219874 L 27.692308 33.130102 L 28.531469 30.440528 L 29.370629 29.954743 L 30.209790 29.866440 L 31.048951 36.757141 L 31.888112 36.168659 L 32.727273 36.224590 L 33.566434 31.201269 L 34.405594 32.703451 L 35.244755 33.719877 L 36.083916 31.709144 L 36.923077 28.464723 L 37.762238 27.575846 L 38.601399 26.596521 L 39.440559 27.669084 L 40.279720 28.571533 L 41.118881 28.225136 L 41.958042 25.408630 L 42.797203 26.263930 L 43.636364 25.280199 L 44.475524 25.014203 L 45.314685 24.044308 L 46.153846 23.986438 L 46.993007 26.134942 L 47.832168 24.813714 L 48.671329 24.009791 L 49.510490 24.343028 L 50.349650 24.368174 L 51.188811 25.029155 L 52.027972 22.129075 L 52.867133 21.782648 L 53.706294 22.900567 L 54.545455 23.341378 L 55.384615 22.083514 L 56.223776 21.955612 L 57.062937 23.054966 L 57.902098 17.441136 L 58.741259 18.729580 L 59.580420 18.723059 L 60.419580 16.274864 L 61.258741 14.146688 L 62.097902 15.355437 L 62.937063 15.010067 L 63.776224 15.340514 L 64.615385 17.040070 L 65.454545 14.961333 L 66.293706 9.840837 L 67.132867 8.800000 L 67.972028 9.944974 L 68.811189 14.865187 L 69.650350 18.141745 L 70.489510 18.299315 L 71.328671 16.755362 L 72.167832 16.702720 L 73.006993 16.702720 L 73.846154 18.832483 L 74.685315 16.655308 L 75.524476 18.146709 L 76.363636 16.111947 L 77.202797 23.292967 L 78.041958 26.508248 L 78.881119 18.612195 L 79.720280 17.576469 L 80.559441 15.471118 L 81.398601 16.952590 L 82.237762 11.082487 L 83.076923 14.277292 L 83.916084 13.252464 L 84.755245 17.417811 L 85.594406 17.806040 L 86.433566 18.583084 L 87.272727 18.100413 L 88.111888 15.802857 L 88.951049 14.524253 L 89.790210 14.359691 L 90.629371 14.590466 L 91.468531 15.026635 L 92.307692 14.675068 L 93.146853 14.171305 L 93.986014 13.749089 L 94.825175 12.755664 L 95.664336 13.202820 L 96.503497 13.270530 L 97.342657 16.148079 L 98.181818 13.042370 L 99.020979 11.300454 L 99.860140 11.345868 L 100.699301 11.189531 L 101.538462 15.684532 L 102.377622 16.385992 L 103.216783 17.541454 L 104.055944 18.644273 L 104.895105 18.865883 L 105.734266 16.372421 L 106.573427 20.037148 L 107.412587 21.145785 L 108.251748 19.805903 L 109.090909 22.230480 L 109.930070 23.502504 L 110.769231 23.243880 L 111.608392 21.628720 L 112.447552 16.559926 L 113.286713 17.325249 L 114.125874 17.483848 L 114.965035 18.532147 L 115.804196 19.644631 L 116.643357 19.866094 L 117.482517 22.200194 L 118.321678 26.263049 L 119.160839 22.954531 L 120.000000 24.091779"></path>
      <path stroke="none" fill-opacity="0.6" fill="url(#color_grad)" d="M 0 40 L 0.000000 22.688740 L 0.839161 22.458993 L 1.678322 24.852989 L 2.517483 28.658456 L 3.356643 27.921392 L 4.195804 27.300273 L 5.034965 27.115177 L 5.874126 27.560042 L 6.713287 30.201499 L 7.552448 30.198326 L 8.391608 33.273103 L 9.230769 31.320240 L 10.069930 32.005603 L 10.909091 30.985153 L 11.748252 31.423378 L 12.587413 31.857521 L 13.426573 32.133270 L 14.265734 31.210082 L 15.104895 30.073568 L 15.944056 30.225998 L 16.783217 32.788581 L 17.622378 28.793760 L 18.461538 27.739292 L 19.300699 28.385644 L 20.139860 29.016486 L 20.979021 29.289914 L 21.818182 28.402858 L 22.657343 29.076295 L 23.496503 29.132931 L 24.335664 31.354669 L 25.174825 36.800000 L 26.013986 34.000355 L 26.853147 33.219874 L 27.692308 33.130102 L 28.531469 30.440528 L 29.370629 29.954743 L 30.209790 29.866440 L 31.048951 36.757141 L 31.888112 36.168659 L 32.727273 36.224590 L 33.566434 31.201269 L 34.405594 32.703451 L 35.244755 33.719877 L 36.083916 31.709144 L 36.923077 28.464723 L 37.762238 27.575846 L 38.601399 26.596521 L 39.440559 27.669084 L 40.279720 28.571533 L 41.118881 28.225136 L 41.958042 25.408630 L 42.797203 26.263930 L 43.636364 25.280199 L 44.475524 25.014203 L 45.314685 24.044308 L 46.153846 23.986438 L 46.993007 26.134942 L 47.832168 24.813714 L 48.671329 24.009791 L 49.510490 24.343028 L 50.349650 24.368174 L 51.188811 25.029155 L 52.027972 22.129075 L 52.867133 21.782648 L 53.706294 22.900567 L 54.545455 23.341378 L 55.384615 22.083514 L 56.223776 21.955612 L 57.062937 23.054966 L 57.902098 17.441136 L 58.741259 18.729580 L 59.580420 18.723059 L 60.419580 16.274864 L 61.258741 14.146688 L 62.097902 15.355437 L 62.937063 15.010067 L 63.776224 15.340514 L 64.615385 17.040070 L 65.454545 14.961333 L 66.293706 9.840837 L 67.132867 8.800000 L 67.972028 9.944974 L 68.811189 14.865187 L 69.650350 18.141745 L 70.489510 18.299315 L 71.328671 16.755362 L 72.167832 16.702720 L 73.006993 16.702720 L 73.846154 18.832483 L 74.685315 16.655308 L 75.524476 18.146709 L 76.363636 16.111947 L 77.202797 23.292967 L 78.041958 26.508248 L 78.881119 18.612195 L 79.720280 17.576469 L 80.559441 15.471118 L 81.398601 16.952590 L 82.237762 11.082487 L 83.076923 14.277292 L 83.916084 13.252464 L 84.755245 17.417811 L 85.594406 17.806040 L 86.433566 18.583084 L 87.272727 18.100413 L 88.111888 15.802857 L 88.951049 14.524253 L 89.790210 14.359691 L 90.629371 14.590466 L 91.468531 15.026635 L 92.307692 14.675068 L 93.146853 14.171305 L 93.986014 13.749089 L 94.825175 12.755664 L 95.664336 13.202820 L 96.503497 13.270530 L 97.342657 16.148079 L 98.181818 13.042370 L 99.020979 11.300454 L 99.860140 11.345868 L 100.699301 11.189531 L 101.538462 15.684532 L 102.377622 16.385992 L 103.216783 17.541454 L 104.055944 18.644273 L 104.895105 18.865883 L 105.734266 16.372421 L 106.573427 20.037148 L 107.412587 21.145785 L 108.251748 19.805903 L 109.090909 22.230480 L 109.930070 23.502504 L 110.769231 23.243880 L 111.608392 21.628720 L 112.447552 16.559926 L 113.286713 17.325249 L 114.125874 17.483848 L 114.965035 18.532147 L 115.804196 19.644631 L 116.643357 19.866094 L 117.482517 22.200194 L 118.321678 26.263049 L 119.160839 22.954531 L 120.000000 24.091779 L 120 40 Z"></path>
    </g>
  </svg>