<svg xmlns="http://www.w3.org/2000/svg" viewBox="0 0 120 40" width="120" height="40">
    <defs>
      <linearGradient id="color_grad" x1="0%" x2="0%" y1="0%" y2="100%">
        <stop offset="0%" style="stop-color:#EA3943;stop-opacity:0.4;"></stop>
        <stop offset="100%" style="stop-color:#EA3943;stop-opacity:0.0;"></stop>
      </linearGradient>
    </defs>
    <g>
      <path stroke="#EA3943" stroke-width="2" stroke-linecap="round" stroke-linejoin="round" fill="none" d="M 0.000000 31.046147 L 0.839161 30.827973 L 1.678322 31.171265 L 2.517483 31.283471 L 3.356643 31.584271 L 4.195804 31.543396 L 5.034965 31.342481 L 5.874126 31.462460 L 6.713287 31.852155 L 7.552448 31.725696 L 8.391608 31.785740 L 9.230769 31.427945 L 10.069930 31.769584 L 10.909091 31.473858 L 11.748252 31.600712 L 12.587413 31.726360 L 13.426573 31.807260 L 14.265734 31.539658 L 15.104895 31.207778 L 15.944056 31.252296 L 16.783217 31.046189 L 17.622378 30.760629 L 18.461538 30.520355 L 19.300699 30.578955 L 20.139860 30.620243 L 20.979021 30.660290 L 21.818182 30.520776 L 22.657343 30.529968 L 23.496503 30.654185 L 24.335664 30.765508 L 25.174825 30.985753 L 26.013986 31.200870 L 26.853147 30.969246 L 27.692308 32.155870 L 28.531469 32.471956 L 29.370629 32.405876 L 30.209790 32.217316 L 31.048951 32.908128 L 31.888112 32.524282 L 32.727273 31.840926 L 33.566434 30.971733 L 34.405594 30.815046 L 35.244755 31.077315 L 36.083916 30.263894 L 36.923077 30.127505 L 37.762238 29.307999 L 38.601399 28.957343 L 39.440559 28.934363 L 40.279720 26.428624 L 41.118881 25.060624 L 41.958042 24.790635 L 42.797203 25.063264 L 43.636364 24.751038 L 44.475524 24.666076 L 45.314685 24.221794 L 46.153846 24.203054 L 46.993007 24.699802 L 47.832168 24.692209 L 48.671329 24.437183 L 49.510490 24.543143 L 50.349650 24.551164 L 51.188811 24.760316 L 52.027972 23.839672 L 52.867133 23.730621 L 53.706294 24.084964 L 54.545455 24.225524 L 55.384615 23.825725 L 56.223776 23.739595 L 57.062937 24.088613 L 57.902098 24.252746 L 58.741259 24.649161 L 59.580420 28.177905 L 60.419580 27.468497 L 61.258741 23.195107 L 62.097902 23.537784 L 62.937063 23.504572 L 63.776224 23.933099 L 64.615385 24.959625 L 65.454545 25.521431 L 66.293706 25.500208 L 67.132867 25.198290 L 67.972028 25.530356 L 68.811189 24.887963 L 69.650350 25.850867 L 70.489510 25.940061 L 71.328671 26.786877 L 72.167832 26.776013 L 73.006993 26.776013 L 73.846154 27.360587 L 74.685315 28.751692 L 75.524476 31.219269 L 76.363636 31.978698 L 77.202797 25.945296 L 78.041958 25.890739 L 78.881119 25.563564 L 79.720280 25.563564 L 80.559441 15.249855 L 81.398601 11.802309 L 82.237762 11.056221 L 83.076923 11.312854 L 83.916084 11.441634 L 84.755245 8.800000 L 85.594406 8.950469 L 86.433566 9.250857 L 87.272727 9.064427 L 88.111888 13.315682 L 88.951049 15.792464 L 89.790210 23.330683 L 90.629371 27.063907 L 91.468531 21.801387 L 92.307692 21.690125 L 93.146853 24.623840 L 93.986014 24.927220 L 94.825175 24.630049 L 95.664336 25.751929 L 96.503497 22.076796 L 97.342657 23.068244 L 98.181818 20.848947 L 99.020979 21.640962 L 99.860140 21.718240 L 100.699301 21.206707 L 101.538462 24.101435 L 102.377622 24.039904 L 103.216783 24.720286 L 104.055944 30.939782 L 104.895105 32.027956 L 105.734266 33.755599 L 106.573427 35.645564 L 107.412587 36.800000 L 108.251748 34.459757 L 109.090909 27.038901 L 109.930070 28.036761 L 110.769231 26.850899 L 111.608392 28.374524 L 112.447552 27.651991 L 113.286713 29.533232 L 114.125874 30.746859 L 114.965035 30.891044 L 115.804196 30.242411 L 116.643357 30.465484 L 117.482517 28.887810 L 118.321678 29.457573 L 119.160839 29.832529 L 120.000000 31.076243"></path>
      <path stroke="none" fill-opacity="0.6" fill="url(#color_grad)" d="M 0 40 L 0.000000 31.046147 L 0.839161 30.827973 L 1.678322 31.171265 L 2.517483 31.283471 L 3.356643 31.584271 L 4.195804 31.543396 L 5.034965 31.342481 L 5.874126 31.462460 L 6.713287 31.852155 L 7.552448 31.725696 L 8.391608 31.785740 L 9.230769 31.427945 L 10.069930 31.769584 L 10.909091 31.473858 L 11.748252 31.600712 L 12.587413 31.726360 L 13.426573 31.807260 L 14.265734 31.539658 L 15.104895 31.207778 L 15.944056 31.252296 L 16.783217 31.046189 L 17.622378 30.760629 L 18.461538 30.520355 L 19.300699 30.578955 L 20.139860 30.620243 L 20.979021 30.660290 L 21.818182 30.520776 L 22.657343 30.529968 L 23.496503 30.654185 L 24.335664 30.765508 L 25.174825 30.985753 L 26.013986 31.200870 L 26.853147 30.969246 L 27.692308 32.155870 L 28.531469 32.471956 L 29.370629 32.405876 L 30.209790 32.217316 L 31.048951 32.908128 L 31.888112 32.524282 L 32.727273 31.840926 L 33.566434 30.971733 L 34.405594 30.815046 L 35.244755 31.077315 L 36.083916 30.263894 L 36.923077 30.127505 L 37.762238 29.307999 L 38.601399 28.957343 L 39.440559 28.934363 L 40.279720 26.428624 L 41.118881 25.060624 L 41.958042 24.790635 L 42.797203 25.063264 L 43.636364 24.751038 L 44.475524 24.666076 L 45.314685 24.221794 L 46.153846 24.203054 L 46.993007 24.699802 L 47.832168 24.692209 L 48.671329 24.437183 L 49.510490 24.543143 L 50.349650 24.551164 L 51.188811 24.760316 L 52.027972 23.839672 L 52.867133 23.730621 L 53.706294 24.084964 L 54.545455 24.225524 L 55.384615 23.825725 L 56.223776 23.739595 L 57.062937 24.088613 L 57.902098 24.252746 L 58.741259 24.649161 L 59.580420 28.177905 L 60.419580 27.468497 L 61.258741 23.195107 L 62.097902 23.537784 L 62.937063 23.504572 L 63.776224 23.933099 L 64.615385 24.959625 L 65.454545 25.521431 L 66.293706 25.500208 L 67.132867 25.198290 L 67.972028 25.530356 L 68.811189 24.887963 L 69.650350 25.850867 L 70.489510 25.940061 L 71.328671 26.786877 L 72.167832 26.776013 L 73.006993 26.776013 L 73.846154 27.360587 L 74.685315 28.751692 L 75.524476 31.219269 L 76.363636 31.978698 L 77.202797 25.945296 L 78.041958 25.890739 L 78.881119 25.563564 L 79.720280 25.563564 L 80.559441 15.249855 L 81.398601 11.802309 L 82.237762 11.056221 L 83.076923 11.312854 L 83.916084 11.441634 L 84.755245 8.800000 L 85.594406 8.950469 L 86.433566 9.250857 L 87.272727 9.064427 L 88.111888 13.315682 L 88.951049 15.792464 L 89.790210 23.330683 L 90.629371 27.063907 L 91.468531 21.801387 L 92.307692 21.690125 L 93.146853 24.623840 L 93.986014 24.927220 L 94.825175 24.630049 L 95.664336 25.751929 L 96.503497 22.076796 L 97.342657 23.068244 L 98.181818 20.848947 L 99.020979 21.640962 L 99.860140 21.718240 L 100.699301 21.206707 L 101.538462 24.101435 L 102.377622 24.039904 L 103.216783 24.720286 L 104.055944 30.939782 L 104.895105 32.027956 L 105.734266 33.755599 L 106.573427 35.645564 L 107.412587 36.800000 L 108.251748 34.459757 L 109.090909 27.038901 L 109.930070 28.036761 L 110.769231 26.850899 L 111.608392 28.374524 L 112.447552 27.651991 L 113.286713 29.533232 L 114.125874 30.746859 L 114.965035 30.891044 L 115.804196 30.242411 L 116.643357 30.465484 L 117.482517 28.887810 L 118.321678 29.457573 L 119.160839 29.832529 L 120.000000 31.076243 L 120 40 Z"></path>
    </g>
  </svg>