<svg xmlns="http://www.w3.org/2000/svg" viewBox="0 0 120 40" width="120" height="40">
    <defs>
      <linearGradient id="color_grad" x1="0%" x2="0%" y1="0%" y2="100%">
        <stop offset="0%" style="stop-color:#EA3943;stop-opacity:0.4;"></stop>
        <stop offset="100%" style="stop-color:#EA3943;stop-opacity:0.0;"></stop>
      </linearGradient>
    </defs>
    <g>
      <path stroke="#EA3943" stroke-width="2" stroke-linecap="round" stroke-linejoin="round" fill="none" d="M 0.000000 25.600000 L 0.839161 25.600000 L 1.678322 25.600000 L 2.517483 25.600000 L 3.356643 25.600000 L 4.195804 25.600000 L 5.034965 25.600000 L 5.874126 25.600000 L 6.713287 25.600000 L 7.552448 25.600000 L 8.391608 25.600000 L 9.230769 25.600000 L 10.069930 25.600000 L 10.909091 25.600000 L 11.748252 25.600000 L 12.587413 25.600000 L 13.426573 25.600000 L 14.265734 25.600000 L 15.104895 25.600000 L 15.944056 25.600000 L 16.783217 25.600000 L 17.622378 25.600000 L 18.461538 25.600000 L 19.300699 25.600000 L 20.139860 25.600000 L 20.979021 25.600000 L 21.818182 25.600000 L 22.657343 25.600000 L 23.496503 25.600000 L 24.335664 25.600000 L 25.174825 25.600000 L 26.013986 25.600000 L 26.853147 25.600000 L 27.692308 27.048951 L 28.531469 27.636364 L 29.370629 27.636364 L 30.209790 27.636364 L 31.048951 27.636364 L 31.888112 27.155753 L 32.727273 26.109091 L 33.566434 25.600000 L 34.405594 25.600000 L 35.244755 25.600000 L 36.083916 25.600000 L 36.923077 25.600000 L 37.762238 25.600000 L 38.601399 25.600000 L 39.440559 25.600000 L 40.279720 21.968722 L 41.118881 20.509091 L 41.958042 20.509091 L 42.797203 20.509091 L 43.636364 20.509091 L 44.475524 20.509091 L 45.314685 20.509091 L 46.153846 20.509091 L 46.993007 20.509091 L 47.832168 20.509091 L 48.671329 20.509091 L 49.510490 20.509091 L 50.349650 20.509091 L 51.188811 20.509091 L 52.027972 20.509091 L 52.867133 20.509091 L 53.706294 20.509091 L 54.545455 20.509091 L 55.384615 20.509091 L 56.223776 20.509091 L 57.062937 20.509091 L 57.902098 20.509091 L 58.741259 20.509091 L 59.580420 24.581818 L 60.419580 24.581818 L 61.258741 20.509091 L 62.097902 20.509091 L 62.937063 20.509091 L 63.776224 20.829498 L 64.615385 21.409790 L 65.454545 21.527273 L 66.293706 21.527273 L 67.132867 21.527273 L 67.972028 21.527273 L 68.811189 21.018182 L 69.650350 21.018182 L 70.489510 21.018182 L 71.328671 22.545455 L 72.167832 22.545455 L 73.006993 22.545455 L 73.846154 22.545455 L 74.685315 24.855232 L 75.524476 27.824336 L 76.363636 29.672727 L 77.202797 21.726637 L 78.041958 20.509091 L 78.881119 20.509091 L 79.720280 20.509091 L 80.559441 14.196364 L 81.398601 9.879273 L 82.237762 9.879273 L 83.076923 9.879273 L 83.916084 9.879273 L 84.755245 8.800000 L 85.594406 8.800000 L 86.433566 8.800000 L 87.272727 8.800000 L 88.111888 10.055995 L 88.951049 11.854545 L 89.790210 20.437889 L 90.629371 24.581818 L 91.468531 20.672000 L 92.307692 19.865287 L 93.146853 22.061284 L 93.986014 22.545455 L 94.825175 22.545455 L 95.664336 23.652994 L 96.503497 19.507285 L 97.342657 21.040397 L 98.181818 18.574545 L 99.020979 20.061233 L 99.860140 20.217165 L 100.699301 20.695069 L 101.538462 22.350434 L 102.377622 22.291977 L 103.216783 23.106024 L 104.055944 29.742505 L 104.895105 32.837350 L 105.734266 34.039446 L 106.573427 35.792000 L 107.412587 36.800000 L 108.251748 34.763636 L 109.090909 25.836033 L 109.930070 27.308837 L 110.769231 27.484420 L 111.608392 28.664727 L 112.447552 28.664727 L 113.286713 30.451245 L 114.125874 31.709091 L 114.965035 31.553872 L 115.804196 30.693971 L 116.643357 30.690909 L 117.482517 29.324552 L 118.321678 29.367273 L 119.160839 29.849307 L 120.000000 30.701091"></path>
      <path stroke="none" fill-opacity="0.6" fill="url(#color_grad)" d="M 0 40 L 0.000000 25.600000 L 0.839161 25.600000 L 1.678322 25.600000 L 2.517483 25.600000 L 3.356643 25.600000 L 4.195804 25.600000 L 5.034965 25.600000 L 5.874126 25.600000 L 6.713287 25.600000 L 7.552448 25.600000 L 8.391608 25.600000 L 9.230769 25.600000 L 10.069930 25.600000 L 10.909091 25.600000 L 11.748252 25.600000 L 12.587413 25.600000 L 13.426573 25.600000 L 14.265734 25.600000 L 15.104895 25.600000 L 15.944056 25.600000 L 16.783217 25.600000 L 17.622378 25.600000 L 18.461538 25.600000 L 19.300699 25.600000 L 20.139860 25.600000 L 20.979021 25.600000 L 21.818182 25.600000 L 22.657343 25.600000 L 23.496503 25.600000 L 24.335664 25.600000 L 25.174825 25.600000 L 26.013986 25.600000 L 26.853147 25.600000 L 27.692308 27.048951 L 28.531469 27.636364 L 29.370629 27.636364 L 30.209790 27.636364 L 31.048951 27.636364 L 31.888112 27.155753 L 32.727273 26.109091 L 33.566434 25.600000 L 34.405594 25.600000 L 35.244755 25.600000 L 36.083916 25.600000 L 36.923077 25.600000 L 37.762238 25.600000 L 38.601399 25.600000 L 39.440559 25.600000 L 40.279720 21.968722 L 41.118881 20.509091 L 41.958042 20.509091 L 42.797203 20.509091 L 43.636364 20.509091 L 44.475524 20.509091 L 45.314685 20.509091 L 46.153846 20.509091 L 46.993007 20.509091 L 47.832168 20.509091 L 48.671329 20.509091 L 49.510490 20.509091 L 50.349650 20.509091 L 51.188811 20.509091 L 52.027972 20.509091 L 52.867133 20.509091 L 53.706294 20.509091 L 54.545455 20.509091 L 55.384615 20.509091 L 56.223776 20.509091 L 57.062937 20.509091 L 57.902098 20.509091 L 58.741259 20.509091 L 59.580420 24.581818 L 60.419580 24.581818 L 61.258741 20.509091 L 62.097902 20.509091 L 62.937063 20.509091 L 63.776224 20.829498 L 64.615385 21.409790 L 65.454545 21.527273 L 66.293706 21.527273 L 67.132867 21.527273 L 67.972028 21.527273 L 68.811189 21.018182 L 69.650350 21.018182 L 70.489510 21.018182 L 71.328671 22.545455 L 72.167832 22.545455 L 73.006993 22.545455 L 73.846154 22.545455 L 74.685315 24.855232 L 75.524476 27.824336 L 76.363636 29.672727 L 77.202797 21.726637 L 78.041958 20.509091 L 78.881119 20.509091 L 79.720280 20.509091 L 80.559441 14.196364 L 81.398601 9.879273 L 82.237762 9.879273 L 83.076923 9.879273 L 83.916084 9.879273 L 84.755245 8.800000 L 85.594406 8.800000 L 86.433566 8.800000 L 87.272727 8.800000 L 88.111888 10.055995 L 88.951049 11.854545 L 89.790210 20.437889 L 90.629371 24.581818 L 91.468531 20.672000 L 92.307692 19.865287 L 93.146853 22.061284 L 93.986014 22.545455 L 94.825175 22.545455 L 95.664336 23.652994 L 96.503497 19.507285 L 97.342657 21.040397 L 98.181818 18.574545 L 99.020979 20.061233 L 99.860140 20.217165 L 100.699301 20.695069 L 101.538462 22.350434 L 102.377622 22.291977 L 103.216783 23.106024 L 104.055944 29.742505 L 104.895105 32.837350 L 105.734266 34.039446 L 106.573427 35.792000 L 107.412587 36.800000 L 108.251748 34.763636 L 109.090909 25.836033 L 109.930070 27.308837 L 110.769231 27.484420 L 111.608392 28.664727 L 112.447552 28.664727 L 113.286713 30.451245 L 114.125874 31.709091 L 114.965035 31.553872 L 115.804196 30.693971 L 116.643357 30.690909 L 117.482517 29.324552 L 118.321678 29.367273 L 119.160839 29.849307 L 120.000000 30.701091 L 120 40 Z"></path>
    </g>
  </svg>