<svg xmlns="http://www.w3.org/2000/svg" viewBox="0 0 120 40" width="120" height="40">
    <defs>
      <linearGradient id="color_grad" x1="0%" x2="0%" y1="0%" y2="100%">
        <stop offset="0%" style="stop-color:#EA3943;stop-opacity:0.4;"></stop>
        <stop offset="100%" style="stop-color:#EA3943;stop-opacity:0.0;"></stop>
      </linearGradient>
    </defs>
    <g>
      <path stroke="#EA3943" stroke-width="2" stroke-linecap="round" stroke-linejoin="round" fill="none" d="M 0.000000 29.986104 L 0.839161 28.639153 L 1.678322 30.003014 L 2.517483 30.123709 L 3.356643 30.702043 L 4.195804 31.532265 L 5.034965 30.896350 L 5.874126 31.189351 L 6.713287 31.485621 L 7.552448 31.096755 L 8.391608 31.436840 L 9.230769 30.871205 L 10.069930 30.943245 L 10.909091 30.852346 L 11.748252 31.006673 L 12.587413 31.102350 L 13.426573 31.602734 L 14.265734 30.666085 L 15.104895 30.997998 L 15.944056 31.315516 L 16.783217 30.278162 L 17.622378 29.459758 L 18.461538 30.474292 L 19.300699 31.229834 L 20.139860 29.938580 L 20.979021 29.973028 L 21.818182 29.859436 L 22.657343 30.158912 L 23.496503 30.265464 L 24.335664 29.790602 L 25.174825 29.933928 L 26.013986 30.300164 L 26.853147 29.629612 L 27.692308 29.430150 L 28.531469 28.872687 L 29.370629 29.405130 L 30.209790 29.264696 L 31.048951 29.822222 L 31.888112 30.421740 L 32.727273 30.120943 L 33.566434 30.270493 L 34.405594 30.386411 L 35.244755 30.117109 L 36.083916 29.350692 L 36.923077 28.703399 L 37.762238 28.302651 L 38.601399 27.715769 L 39.440559 27.696722 L 40.279720 28.189374 L 41.118881 28.100926 L 41.958042 27.901087 L 42.797203 28.109161 L 43.636364 27.876885 L 44.475524 28.718611 L 45.314685 28.395248 L 46.153846 28.377709 L 46.993007 28.742499 L 47.832168 29.330764 L 48.671329 30.177708 L 49.510490 28.628530 L 50.349650 28.820197 L 51.188811 29.252941 L 52.027972 28.111487 L 52.867133 28.092754 L 53.706294 28.292593 L 54.545455 28.701450 L 55.384615 28.410900 L 56.223776 28.884568 L 57.062937 29.213778 L 57.902098 29.943483 L 58.741259 30.776723 L 59.580420 30.524834 L 60.419580 29.071897 L 61.258741 28.329054 L 62.097902 28.712388 L 62.937063 28.636387 L 63.776224 28.898712 L 64.615385 28.360422 L 65.454545 28.698998 L 66.293706 28.077353 L 67.132867 28.344392 L 67.972028 28.612123 L 68.811189 28.558501 L 69.650350 28.971443 L 70.489510 29.037575 L 71.328671 30.295386 L 72.167832 30.489505 L 73.006993 30.489505 L 73.846154 29.215098 L 74.685315 28.967923 L 75.524476 28.290393 L 76.363636 27.574517 L 77.202797 28.490861 L 78.041958 29.024625 L 78.881119 28.133363 L 79.720280 27.657873 L 80.559441 29.005201 L 81.398601 29.314294 L 82.237762 29.177569 L 83.076923 28.722069 L 83.916084 29.406765 L 84.755245 28.132923 L 85.594406 28.473888 L 86.433566 29.317500 L 87.272727 29.214658 L 88.111888 29.648659 L 88.951049 29.370116 L 89.790210 29.333656 L 90.629371 29.076298 L 91.468531 29.105152 L 92.307692 29.025631 L 93.146853 28.919331 L 93.986014 28.417312 L 94.825175 27.983437 L 95.664336 28.081816 L 96.503497 28.098223 L 97.342657 27.511907 L 98.181818 27.622733 L 99.020979 26.638749 L 99.860140 27.704014 L 100.699301 27.528628 L 101.538462 31.230086 L 102.377622 30.855238 L 103.216783 31.769633 L 104.055944 30.285957 L 104.895105 30.613595 L 105.734266 30.111891 L 106.573427 30.164130 L 107.412587 30.619944 L 108.251748 8.800000 L 109.090909 31.323059 L 109.930070 31.114545 L 110.769231 31.669179 L 111.608392 33.856850 L 112.447552 34.711023 L 113.286713 33.758030 L 114.125874 34.953860 L 114.965035 35.395971 L 115.804196 34.532683 L 116.643357 33.608104 L 117.482517 35.639499 L 118.321678 35.886359 L 119.160839 36.169680 L 120.000000 36.800000"></path>
      <path stroke="none" fill-opacity="0.6" fill="url(#color_grad)" d="M 0 40 L 0.000000 29.986104 L 0.839161 28.639153 L 1.678322 30.003014 L 2.517483 30.123709 L 3.356643 30.702043 L 4.195804 31.532265 L 5.034965 30.896350 L 5.874126 31.189351 L 6.713287 31.485621 L 7.552448 31.096755 L 8.391608 31.436840 L 9.230769 30.871205 L 10.069930 30.943245 L 10.909091 30.852346 L 11.748252 31.006673 L 12.587413 31.102350 L 13.426573 31.602734 L 14.265734 30.666085 L 15.104895 30.997998 L 15.944056 31.315516 L 16.783217 30.278162 L 17.622378 29.459758 L 18.461538 30.474292 L 19.300699 31.229834 L 20.139860 29.938580 L 20.979021 29.973028 L 21.818182 29.859436 L 22.657343 30.158912 L 23.496503 30.265464 L 24.335664 29.790602 L 25.174825 29.933928 L 26.013986 30.300164 L 26.853147 29.629612 L 27.692308 29.430150 L 28.531469 28.872687 L 29.370629 29.405130 L 30.209790 29.264696 L 31.048951 29.822222 L 31.888112 30.421740 L 32.727273 30.120943 L 33.566434 30.270493 L 34.405594 30.386411 L 35.244755 30.117109 L 36.083916 29.350692 L 36.923077 28.703399 L 37.762238 28.302651 L 38.601399 27.715769 L 39.440559 27.696722 L 40.279720 28.189374 L 41.118881 28.100926 L 41.958042 27.901087 L 42.797203 28.109161 L 43.636364 27.876885 L 44.475524 28.718611 L 45.314685 28.395248 L 46.153846 28.377709 L 46.993007 28.742499 L 47.832168 29.330764 L 48.671329 30.177708 L 49.510490 28.628530 L 50.349650 28.820197 L 51.188811 29.252941 L 52.027972 28.111487 L 52.867133 28.092754 L 53.706294 28.292593 L 54.545455 28.701450 L 55.384615 28.410900 L 56.223776 28.884568 L 57.062937 29.213778 L 57.902098 29.943483 L 58.741259 30.776723 L 59.580420 30.524834 L 60.419580 29.071897 L 61.258741 28.329054 L 62.097902 28.712388 L 62.937063 28.636387 L 63.776224 28.898712 L 64.615385 28.360422 L 65.454545 28.698998 L 66.293706 28.077353 L 67.132867 28.344392 L 67.972028 28.612123 L 68.811189 28.558501 L 69.650350 28.971443 L 70.489510 29.037575 L 71.328671 30.295386 L 72.167832 30.489505 L 73.006993 30.489505 L 73.846154 29.215098 L 74.685315 28.967923 L 75.524476 28.290393 L 76.363636 27.574517 L 77.202797 28.490861 L 78.041958 29.024625 L 78.881119 28.133363 L 79.720280 27.657873 L 80.559441 29.005201 L 81.398601 29.314294 L 82.237762 29.177569 L 83.076923 28.722069 L 83.916084 29.406765 L 84.755245 28.132923 L 85.594406 28.473888 L 86.433566 29.317500 L 87.272727 29.214658 L 88.111888 29.648659 L 88.951049 29.370116 L 89.790210 29.333656 L 90.629371 29.076298 L 91.468531 29.105152 L 92.307692 29.025631 L 93.146853 28.919331 L 93.986014 28.417312 L 94.825175 27.983437 L 95.664336 28.081816 L 96.503497 28.098223 L 97.342657 27.511907 L 98.181818 27.622733 L 99.020979 26.638749 L 99.860140 27.704014 L 100.699301 27.528628 L 101.538462 31.230086 L 102.377622 30.855238 L 103.216783 31.769633 L 104.055944 30.285957 L 104.895105 30.613595 L 105.734266 30.111891 L 106.573427 30.164130 L 107.412587 30.619944 L 108.251748 8.800000 L 109.090909 31.323059 L 109.930070 31.114545 L 110.769231 31.669179 L 111.608392 33.856850 L 112.447552 34.711023 L 113.286713 33.758030 L 114.125874 34.953860 L 114.965035 35.395971 L 115.804196 34.532683 L 116.643357 33.608104 L 117.482517 35.639499 L 118.321678 35.886359 L 119.160839 36.169680 L 120.000000 36.800000 L 120 40 Z"></path>
    </g>
  </svg>