<svg xmlns="http://www.w3.org/2000/svg" viewBox="0 0 120 40" width="120" height="40">
    <defs>
      <linearGradient id="color_grad" x1="0%" x2="0%" y1="0%" y2="100%">
        <stop offset="0%" style="stop-color:#EA3943;stop-opacity:0.4;"></stop>
        <stop offset="100%" style="stop-color:#EA3943;stop-opacity:0.0;"></stop>
      </linearGradient>
    </defs>
    <g>
      <path stroke="#EA3943" stroke-width="2" stroke-linecap="round" stroke-linejoin="round" fill="none" d="M 0.000000 26.179310 L 0.839161 24.891954 L 1.678322 26.089285 L 2.517483 26.127546 L 3.356643 26.501149 L 4.195804 27.466667 L 5.034965 26.926517 L 5.874126 27.144828 L 6.713287 27.144828 L 7.552448 26.822989 L 8.391608 27.144828 L 9.230769 26.822989 L 10.069930 26.604678 L 10.909091 26.764472 L 11.748252 26.822989 L 12.587413 26.822989 L 13.426573 27.313624 L 14.265734 26.501149 L 15.104895 27.156081 L 15.944056 27.466667 L 16.783217 26.501149 L 17.622378 25.857471 L 18.461538 27.169584 L 19.300699 27.943799 L 20.139860 26.501149 L 20.979021 26.501149 L 21.818182 26.501149 L 22.657343 26.822989 L 23.496503 26.822989 L 24.335664 26.215320 L 25.174825 26.179310 L 26.013986 26.393120 L 26.853147 25.857471 L 27.692308 25.659416 L 28.531469 25.213793 L 29.370629 25.857471 L 30.209790 25.868724 L 31.048951 25.857471 L 31.888112 26.501149 L 32.727273 26.003762 L 33.566434 26.561916 L 34.405594 26.822989 L 35.244755 26.300844 L 36.083916 26.174809 L 36.923077 25.585146 L 37.762238 25.857471 L 38.601399 25.535632 L 39.440559 25.535632 L 40.279720 25.535632 L 41.118881 25.535632 L 41.958042 25.535632 L 42.797203 25.535632 L 43.636364 25.535632 L 44.475524 26.501149 L 45.314685 26.501149 L 46.153846 26.501149 L 46.993007 26.501149 L 47.832168 27.126823 L 48.671329 28.216124 L 49.510490 26.501149 L 50.349650 26.696954 L 51.188811 26.994036 L 52.027972 26.501149 L 52.867133 26.561916 L 53.706294 26.501149 L 54.545455 26.822989 L 55.384615 26.822989 L 56.223776 27.383394 L 57.062937 27.466667 L 57.902098 28.110345 L 58.741259 28.702259 L 59.580420 28.432184 L 60.419580 27.466667 L 61.258741 27.212346 L 62.097902 27.354136 L 62.937063 27.302371 L 63.776224 27.466667 L 64.615385 26.501149 L 65.454545 26.501149 L 66.293706 25.857471 L 67.132867 26.379616 L 67.972028 26.395370 L 68.811189 26.501149 L 69.650350 26.179310 L 70.489510 26.179310 L 71.328671 27.894285 L 72.167832 28.110345 L 73.006993 28.110345 L 73.846154 26.278338 L 74.685315 26.501149 L 75.524476 25.857471 L 76.363636 25.857471 L 77.202797 26.093787 L 78.041958 25.859722 L 78.881119 25.762945 L 79.720280 25.213793 L 80.559441 26.822989 L 81.398601 26.822989 L 82.237762 27.144828 L 83.076923 26.501149 L 83.916084 27.140326 L 84.755245 26.822989 L 85.594406 27.079560 L 86.433566 27.788506 L 87.272727 27.788506 L 88.111888 28.110345 L 88.951049 28.110345 L 89.790210 28.110345 L 90.629371 27.788506 L 91.468531 27.788506 L 92.307692 27.788506 L 93.146853 27.788506 L 93.986014 27.360887 L 94.825175 27.144828 L 95.664336 27.144828 L 96.503497 27.144828 L 97.342657 26.822989 L 98.181818 26.940021 L 99.020979 26.336854 L 99.860140 27.466667 L 100.699301 27.970806 L 101.538462 30.734571 L 102.377622 30.363218 L 103.216783 31.328736 L 104.055944 29.609260 L 104.895105 30.185419 L 105.734266 30.320457 L 106.573427 30.117900 L 107.412587 30.363218 L 108.251748 8.800000 L 109.090909 30.977638 L 109.930070 31.006897 L 110.769231 31.972414 L 111.608392 34.418841 L 112.447552 35.751210 L 113.286713 34.661908 L 114.125874 35.814227 L 114.965035 36.052793 L 115.804196 35.094028 L 116.643357 34.006977 L 117.482517 36.259850 L 118.321678 36.156322 L 119.160839 36.478161 L 120.000000 36.800000"></path>
      <path stroke="none" fill-opacity="0.6" fill="url(#color_grad)" d="M 0 40 L 0.000000 26.179310 L 0.839161 24.891954 L 1.678322 26.089285 L 2.517483 26.127546 L 3.356643 26.501149 L 4.195804 27.466667 L 5.034965 26.926517 L 5.874126 27.144828 L 6.713287 27.144828 L 7.552448 26.822989 L 8.391608 27.144828 L 9.230769 26.822989 L 10.069930 26.604678 L 10.909091 26.764472 L 11.748252 26.822989 L 12.587413 26.822989 L 13.426573 27.313624 L 14.265734 26.501149 L 15.104895 27.156081 L 15.944056 27.466667 L 16.783217 26.501149 L 17.622378 25.857471 L 18.461538 27.169584 L 19.300699 27.943799 L 20.139860 26.501149 L 20.979021 26.501149 L 21.818182 26.501149 L 22.657343 26.822989 L 23.496503 26.822989 L 24.335664 26.215320 L 25.174825 26.179310 L 26.013986 26.393120 L 26.853147 25.857471 L 27.692308 25.659416 L 28.531469 25.213793 L 29.370629 25.857471 L 30.209790 25.868724 L 31.048951 25.857471 L 31.888112 26.501149 L 32.727273 26.003762 L 33.566434 26.561916 L 34.405594 26.822989 L 35.244755 26.300844 L 36.083916 26.174809 L 36.923077 25.585146 L 37.762238 25.857471 L 38.601399 25.535632 L 39.440559 25.535632 L 40.279720 25.535632 L 41.118881 25.535632 L 41.958042 25.535632 L 42.797203 25.535632 L 43.636364 25.535632 L 44.475524 26.501149 L 45.314685 26.501149 L 46.153846 26.501149 L 46.993007 26.501149 L 47.832168 27.126823 L 48.671329 28.216124 L 49.510490 26.501149 L 50.349650 26.696954 L 51.188811 26.994036 L 52.027972 26.501149 L 52.867133 26.561916 L 53.706294 26.501149 L 54.545455 26.822989 L 55.384615 26.822989 L 56.223776 27.383394 L 57.062937 27.466667 L 57.902098 28.110345 L 58.741259 28.702259 L 59.580420 28.432184 L 60.419580 27.466667 L 61.258741 27.212346 L 62.097902 27.354136 L 62.937063 27.302371 L 63.776224 27.466667 L 64.615385 26.501149 L 65.454545 26.501149 L 66.293706 25.857471 L 67.132867 26.379616 L 67.972028 26.395370 L 68.811189 26.501149 L 69.650350 26.179310 L 70.489510 26.179310 L 71.328671 27.894285 L 72.167832 28.110345 L 73.006993 28.110345 L 73.846154 26.278338 L 74.685315 26.501149 L 75.524476 25.857471 L 76.363636 25.857471 L 77.202797 26.093787 L 78.041958 25.859722 L 78.881119 25.762945 L 79.720280 25.213793 L 80.559441 26.822989 L 81.398601 26.822989 L 82.237762 27.144828 L 83.076923 26.501149 L 83.916084 27.140326 L 84.755245 26.822989 L 85.594406 27.079560 L 86.433566 27.788506 L 87.272727 27.788506 L 88.111888 28.110345 L 88.951049 28.110345 L 89.790210 28.110345 L 90.629371 27.788506 L 91.468531 27.788506 L 92.307692 27.788506 L 93.146853 27.788506 L 93.986014 27.360887 L 94.825175 27.144828 L 95.664336 27.144828 L 96.503497 27.144828 L 97.342657 26.822989 L 98.181818 26.940021 L 99.020979 26.336854 L 99.860140 27.466667 L 100.699301 27.970806 L 101.538462 30.734571 L 102.377622 30.363218 L 103.216783 31.328736 L 104.055944 29.609260 L 104.895105 30.185419 L 105.734266 30.320457 L 106.573427 30.117900 L 107.412587 30.363218 L 108.251748 8.800000 L 109.090909 30.977638 L 109.930070 31.006897 L 110.769231 31.972414 L 111.608392 34.418841 L 112.447552 35.751210 L 113.286713 34.661908 L 114.125874 35.814227 L 114.965035 36.052793 L 115.804196 35.094028 L 116.643357 34.006977 L 117.482517 36.259850 L 118.321678 36.156322 L 119.160839 36.478161 L 120.000000 36.800000 L 120 40 Z"></path>
    </g>
  </svg>