<svg xmlns="http://www.w3.org/2000/svg" viewBox="0 0 120 40" width="120" height="40">
    <defs>
      <linearGradient id="color_grad" x1="0%" x2="0%" y1="0%" y2="100%">
        <stop offset="0%" style="stop-color:#EA3943;stop-opacity:0.4;"></stop>
        <stop offset="100%" style="stop-color:#EA3943;stop-opacity:0.0;"></stop>
      </linearGradient>
    </defs>
    <g>
      <path stroke="#EA3943" stroke-width="2" stroke-linecap="round" stroke-linejoin="round" fill="none" d="M 0.000000 32.961554 L 0.839161 33.114695 L 1.678322 34.030823 L 2.517483 33.746015 L 3.356643 34.157728 L 4.195804 34.100980 L 5.034965 33.377931 L 5.874126 33.542830 L 6.713287 34.081157 L 7.552448 34.018871 L 8.391608 34.436997 L 9.230769 35.152758 L 10.069930 36.800000 L 10.909091 34.011291 L 11.748252 34.175510 L 12.587413 34.354888 L 13.426573 34.467023 L 14.265734 34.092623 L 15.104895 33.634268 L 15.944056 33.700830 L 16.783217 33.413204 L 17.622378 33.012083 L 18.461538 32.683645 L 19.300699 31.788992 L 20.139860 32.627966 L 20.979021 28.798848 L 21.818182 25.838244 L 22.657343 25.850196 L 23.496503 26.053089 L 24.335664 26.205356 L 25.174825 26.544579 L 26.013986 27.169486 L 26.853147 30.079561 L 27.692308 29.196957 L 28.531469 27.557878 L 29.370629 25.196235 L 30.209790 23.537236 L 31.048951 24.629049 L 31.888112 24.657714 L 32.727273 27.153258 L 33.566434 31.673067 L 34.405594 34.119054 L 35.244755 31.082948 L 36.083916 27.746875 L 36.923077 27.547675 L 37.762238 26.732605 L 38.601399 26.647095 L 39.440559 25.994980 L 40.279720 28.877556 L 41.118881 28.810217 L 41.958042 28.043441 L 42.797203 30.739254 L 43.636364 30.805233 L 44.475524 30.696596 L 45.314685 30.119595 L 46.153846 30.101230 L 46.993007 30.731189 L 47.832168 30.317241 L 48.671329 30.399059 L 49.510490 30.407124 L 50.349650 28.200955 L 51.188811 28.011666 L 52.027972 26.779344 L 52.867133 26.636697 L 53.706294 27.105450 L 54.545455 27.289686 L 55.384615 26.764186 L 56.223776 25.770807 L 57.062937 27.112738 L 57.902098 27.804400 L 58.741259 28.321156 L 59.580420 28.319504 L 60.419580 27.928779 L 61.258741 25.932014 L 62.097902 26.859996 L 62.937063 25.679369 L 63.776224 22.724693 L 64.615385 23.445312 L 65.454545 27.717918 L 66.293706 29.856845 L 67.132867 23.815631 L 67.972028 24.890438 L 68.811189 23.636739 L 69.650350 21.756773 L 70.489510 24.486304 L 71.328671 23.708840 L 72.167832 23.693292 L 73.006993 23.693292 L 73.846154 29.156340 L 74.685315 28.804581 L 75.524476 23.993453 L 76.363636 24.374169 L 77.202797 23.302665 L 78.041958 25.377945 L 78.881119 25.674025 L 79.720280 28.139835 L 80.559441 26.646512 L 81.398601 28.092901 L 82.237762 26.671776 L 83.076923 26.873211 L 83.916084 28.029060 L 84.755245 26.324681 L 85.594406 26.905083 L 86.433566 27.209228 L 87.272727 27.021883 L 88.111888 27.251789 L 88.951049 24.339090 L 89.790210 24.270779 L 90.629371 24.369796 L 91.468531 24.429751 L 92.307692 24.282245 L 93.146853 25.085363 L 93.986014 25.828332 L 94.825175 23.863342 L 95.664336 24.124537 L 96.503497 24.741573 L 97.342657 24.482709 L 98.181818 24.278164 L 99.020979 23.177412 L 99.860140 23.543261 L 100.699301 21.894658 L 101.538462 27.213115 L 102.377622 24.954474 L 103.216783 25.239962 L 104.055944 25.725720 L 104.895105 23.698442 L 105.734266 20.761257 L 106.573427 21.949366 L 107.412587 25.717946 L 108.251748 8.800000 L 109.090909 27.575174 L 109.930070 31.524298 L 110.769231 30.776762 L 111.608392 30.298195 L 112.447552 29.813021 L 113.286713 30.120275 L 114.125874 24.150093 L 114.965035 24.604659 L 115.804196 24.817463 L 116.643357 25.159213 L 117.482517 24.678509 L 118.321678 26.454113 L 119.160839 28.771057 L 120.000000 31.474741"></path>
      <path stroke="none" fill-opacity="0.6" fill="url(#color_grad)" d="M 0 40 L 0.000000 32.961554 L 0.839161 33.114695 L 1.678322 34.030823 L 2.517483 33.746015 L 3.356643 34.157728 L 4.195804 34.100980 L 5.034965 33.377931 L 5.874126 33.542830 L 6.713287 34.081157 L 7.552448 34.018871 L 8.391608 34.436997 L 9.230769 35.152758 L 10.069930 36.800000 L 10.909091 34.011291 L 11.748252 34.175510 L 12.587413 34.354888 L 13.426573 34.467023 L 14.265734 34.092623 L 15.104895 33.634268 L 15.944056 33.700830 L 16.783217 33.413204 L 17.622378 33.012083 L 18.461538 32.683645 L 19.300699 31.788992 L 20.139860 32.627966 L 20.979021 28.798848 L 21.818182 25.838244 L 22.657343 25.850196 L 23.496503 26.053089 L 24.335664 26.205356 L 25.174825 26.544579 L 26.013986 27.169486 L 26.853147 30.079561 L 27.692308 29.196957 L 28.531469 27.557878 L 29.370629 25.196235 L 30.209790 23.537236 L 31.048951 24.629049 L 31.888112 24.657714 L 32.727273 27.153258 L 33.566434 31.673067 L 34.405594 34.119054 L 35.244755 31.082948 L 36.083916 27.746875 L 36.923077 27.547675 L 37.762238 26.732605 L 38.601399 26.647095 L 39.440559 25.994980 L 40.279720 28.877556 L 41.118881 28.810217 L 41.958042 28.043441 L 42.797203 30.739254 L 43.636364 30.805233 L 44.475524 30.696596 L 45.314685 30.119595 L 46.153846 30.101230 L 46.993007 30.731189 L 47.832168 30.317241 L 48.671329 30.399059 L 49.510490 30.407124 L 50.349650 28.200955 L 51.188811 28.011666 L 52.027972 26.779344 L 52.867133 26.636697 L 53.706294 27.105450 L 54.545455 27.289686 L 55.384615 26.764186 L 56.223776 25.770807 L 57.062937 27.112738 L 57.902098 27.804400 L 58.741259 28.321156 L 59.580420 28.319504 L 60.419580 27.928779 L 61.258741 25.932014 L 62.097902 26.859996 L 62.937063 25.679369 L 63.776224 22.724693 L 64.615385 23.445312 L 65.454545 27.717918 L 66.293706 29.856845 L 67.132867 23.815631 L 67.972028 24.890438 L 68.811189 23.636739 L 69.650350 21.756773 L 70.489510 24.486304 L 71.328671 23.708840 L 72.167832 23.693292 L 73.006993 23.693292 L 73.846154 29.156340 L 74.685315 28.804581 L 75.524476 23.993453 L 76.363636 24.374169 L 77.202797 23.302665 L 78.041958 25.377945 L 78.881119 25.674025 L 79.720280 28.139835 L 80.559441 26.646512 L 81.398601 28.092901 L 82.237762 26.671776 L 83.076923 26.873211 L 83.916084 28.029060 L 84.755245 26.324681 L 85.594406 26.905083 L 86.433566 27.209228 L 87.272727 27.021883 L 88.111888 27.251789 L 88.951049 24.339090 L 89.790210 24.270779 L 90.629371 24.369796 L 91.468531 24.429751 L 92.307692 24.282245 L 93.146853 25.085363 L 93.986014 25.828332 L 94.825175 23.863342 L 95.664336 24.124537 L 96.503497 24.741573 L 97.342657 24.482709 L 98.181818 24.278164 L 99.020979 23.177412 L 99.860140 23.543261 L 100.699301 21.894658 L 101.538462 27.213115 L 102.377622 24.954474 L 103.216783 25.239962 L 104.055944 25.725720 L 104.895105 23.698442 L 105.734266 20.761257 L 106.573427 21.949366 L 107.412587 25.717946 L 108.251748 8.800000 L 109.090909 27.575174 L 109.930070 31.524298 L 110.769231 30.776762 L 111.608392 30.298195 L 112.447552 29.813021 L 113.286713 30.120275 L 114.125874 24.150093 L 114.965035 24.604659 L 115.804196 24.817463 L 116.643357 25.159213 L 117.482517 24.678509 L 118.321678 26.454113 L 119.160839 28.771057 L 120.000000 31.474741 L 120 40 Z"></path>
    </g>
  </svg>