<svg xmlns="http://www.w3.org/2000/svg" viewBox="0 0 120 40" width="120" height="40">
    <defs>
      <linearGradient id="color_grad" x1="0%" x2="0%" y1="0%" y2="100%">
        <stop offset="0%" style="stop-color:#EA3943;stop-opacity:0.4;"></stop>
        <stop offset="100%" style="stop-color:#EA3943;stop-opacity:0.0;"></stop>
      </linearGradient>
    </defs>
    <g>
      <path stroke="#EA3943" stroke-width="2" stroke-linecap="round" stroke-linejoin="round" fill="none" d="M 0.000000 30.104348 L 0.839161 30.713043 L 1.678322 31.321739 L 2.517483 30.713043 L 3.356643 30.713043 L 4.195804 30.713043 L 5.034965 30.104348 L 5.874126 30.104348 L 6.713287 30.104348 L 7.552448 30.261843 L 8.391608 30.713043 L 9.230769 32.351839 L 10.069930 33.973609 L 10.909091 30.713043 L 11.748252 30.713043 L 12.587413 30.713043 L 13.426573 30.713043 L 14.265734 30.713043 L 15.104895 30.713043 L 15.944056 30.713043 L 16.783217 30.713043 L 17.622378 30.713043 L 18.461538 30.713043 L 19.300699 29.414777 L 20.139860 30.453390 L 20.979021 25.260322 L 21.818182 21.582609 L 22.657343 21.582609 L 23.496503 21.582609 L 24.335664 21.582609 L 25.174825 21.582609 L 26.013986 21.991244 L 26.853147 26.362785 L 27.692308 25.234783 L 28.531469 23.408696 L 29.370629 20.365217 L 30.209790 18.539130 L 31.048951 18.539130 L 31.888112 18.539130 L 32.727273 21.527273 L 33.566434 28.508118 L 34.405594 32.092186 L 35.244755 27.516327 L 36.083916 24.626087 L 36.923077 24.626087 L 37.762238 25.128367 L 38.601399 25.681727 L 39.440559 24.877227 L 40.279720 27.495044 L 41.118881 27.597203 L 41.958042 27.060870 L 42.797203 30.104348 L 43.636364 30.713043 L 44.475524 30.713043 L 45.314685 30.713043 L 46.153846 30.713043 L 46.993007 30.713043 L 47.832168 30.189480 L 48.671329 30.713043 L 49.510490 30.559805 L 50.349650 27.669565 L 51.188811 27.060870 L 52.027972 27.060870 L 52.867133 27.060870 L 53.706294 27.060870 L 54.545455 27.060870 L 55.384615 27.060870 L 56.223776 25.932867 L 57.062937 27.060870 L 57.902098 27.669565 L 58.741259 27.669565 L 59.580420 27.669565 L 60.419580 28.448525 L 61.258741 27.060870 L 62.097902 27.669565 L 62.937063 26.230830 L 63.776224 22.191304 L 64.615385 22.191304 L 65.454545 26.894862 L 66.293706 29.716996 L 67.132867 22.421161 L 67.972028 23.208635 L 68.811189 21.944421 L 69.650350 17.692064 L 70.489510 21.118638 L 71.328671 20.973913 L 72.167832 20.973913 L 73.006993 20.973913 L 73.846154 27.060870 L 74.685315 27.669565 L 75.524476 21.582609 L 76.363636 23.796047 L 77.202797 20.731286 L 78.041958 21.591122 L 78.881119 23.945029 L 79.720280 27.060870 L 80.559441 25.494436 L 81.398601 26.635208 L 82.237762 25.843478 L 83.076923 25.749833 L 83.916084 27.060870 L 84.755245 27.137489 L 85.594406 27.669565 L 86.433566 27.669565 L 87.272727 27.669565 L 88.111888 27.669565 L 88.951049 24.626087 L 89.790210 24.626087 L 90.629371 24.626087 L 91.468531 24.626087 L 92.307692 24.626087 L 93.146853 25.903071 L 93.986014 27.060870 L 94.825175 25.102828 L 95.664336 25.200730 L 96.503497 25.945637 L 97.342657 26.252113 L 98.181818 26.009486 L 99.020979 25.537002 L 99.860140 26.103132 L 100.699301 25.630648 L 101.538462 29.917057 L 102.377622 27.099179 L 103.216783 27.546123 L 104.055944 27.669565 L 104.895105 25.698753 L 105.734266 23.651323 L 106.573427 24.481362 L 107.412587 28.648586 L 108.251748 8.800000 L 109.090909 30.713043 L 109.930070 36.191304 L 110.769231 36.191304 L 111.608392 36.191304 L 112.447552 36.800000 L 113.286713 36.800000 L 114.125874 29.495652 L 114.965035 29.495652 L 115.804196 29.495652 L 116.643357 29.495652 L 117.482517 29.495652 L 118.321678 30.713043 L 119.160839 33.671389 L 120.000000 36.191304"></path>
      <path stroke="none" fill-opacity="0.6" fill="url(#color_grad)" d="M 0 40 L 0.000000 30.104348 L 0.839161 30.713043 L 1.678322 31.321739 L 2.517483 30.713043 L 3.356643 30.713043 L 4.195804 30.713043 L 5.034965 30.104348 L 5.874126 30.104348 L 6.713287 30.104348 L 7.552448 30.261843 L 8.391608 30.713043 L 9.230769 32.351839 L 10.069930 33.973609 L 10.909091 30.713043 L 11.748252 30.713043 L 12.587413 30.713043 L 13.426573 30.713043 L 14.265734 30.713043 L 15.104895 30.713043 L 15.944056 30.713043 L 16.783217 30.713043 L 17.622378 30.713043 L 18.461538 30.713043 L 19.300699 29.414777 L 20.139860 30.453390 L 20.979021 25.260322 L 21.818182 21.582609 L 22.657343 21.582609 L 23.496503 21.582609 L 24.335664 21.582609 L 25.174825 21.582609 L 26.013986 21.991244 L 26.853147 26.362785 L 27.692308 25.234783 L 28.531469 23.408696 L 29.370629 20.365217 L 30.209790 18.539130 L 31.048951 18.539130 L 31.888112 18.539130 L 32.727273 21.527273 L 33.566434 28.508118 L 34.405594 32.092186 L 35.244755 27.516327 L 36.083916 24.626087 L 36.923077 24.626087 L 37.762238 25.128367 L 38.601399 25.681727 L 39.440559 24.877227 L 40.279720 27.495044 L 41.118881 27.597203 L 41.958042 27.060870 L 42.797203 30.104348 L 43.636364 30.713043 L 44.475524 30.713043 L 45.314685 30.713043 L 46.153846 30.713043 L 46.993007 30.713043 L 47.832168 30.189480 L 48.671329 30.713043 L 49.510490 30.559805 L 50.349650 27.669565 L 51.188811 27.060870 L 52.027972 27.060870 L 52.867133 27.060870 L 53.706294 27.060870 L 54.545455 27.060870 L 55.384615 27.060870 L 56.223776 25.932867 L 57.062937 27.060870 L 57.902098 27.669565 L 58.741259 27.669565 L 59.580420 27.669565 L 60.419580 28.448525 L 61.258741 27.060870 L 62.097902 27.669565 L 62.937063 26.230830 L 63.776224 22.191304 L 64.615385 22.191304 L 65.454545 26.894862 L 66.293706 29.716996 L 67.132867 22.421161 L 67.972028 23.208635 L 68.811189 21.944421 L 69.650350 17.692064 L 70.489510 21.118638 L 71.328671 20.973913 L 72.167832 20.973913 L 73.006993 20.973913 L 73.846154 27.060870 L 74.685315 27.669565 L 75.524476 21.582609 L 76.363636 23.796047 L 77.202797 20.731286 L 78.041958 21.591122 L 78.881119 23.945029 L 79.720280 27.060870 L 80.559441 25.494436 L 81.398601 26.635208 L 82.237762 25.843478 L 83.076923 25.749833 L 83.916084 27.060870 L 84.755245 27.137489 L 85.594406 27.669565 L 86.433566 27.669565 L 87.272727 27.669565 L 88.111888 27.669565 L 88.951049 24.626087 L 89.790210 24.626087 L 90.629371 24.626087 L 91.468531 24.626087 L 92.307692 24.626087 L 93.146853 25.903071 L 93.986014 27.060870 L 94.825175 25.102828 L 95.664336 25.200730 L 96.503497 25.945637 L 97.342657 26.252113 L 98.181818 26.009486 L 99.020979 25.537002 L 99.860140 26.103132 L 100.699301 25.630648 L 101.538462 29.917057 L 102.377622 27.099179 L 103.216783 27.546123 L 104.055944 27.669565 L 104.895105 25.698753 L 105.734266 23.651323 L 106.573427 24.481362 L 107.412587 28.648586 L 108.251748 8.800000 L 109.090909 30.713043 L 109.930070 36.191304 L 110.769231 36.191304 L 111.608392 36.191304 L 112.447552 36.800000 L 113.286713 36.800000 L 114.125874 29.495652 L 114.965035 29.495652 L 115.804196 29.495652 L 116.643357 29.495652 L 117.482517 29.495652 L 118.321678 30.713043 L 119.160839 33.671389 L 120.000000 36.191304 L 120 40 Z"></path>
    </g>
  </svg>