<svg xmlns="http://www.w3.org/2000/svg" viewBox="0 0 120 40" width="120" height="40">
    <defs>
      <linearGradient id="color_grad" x1="0%" x2="0%" y1="0%" y2="100%">
        <stop offset="0%" style="stop-color:#16C784;stop-opacity:0.4;"></stop>
        <stop offset="100%" style="stop-color:#16C784;stop-opacity:0.0;"></stop>
      </linearGradient>
    </defs>
    <g>
      <path stroke="#16C784" stroke-width="2" stroke-linecap="round" stroke-linejoin="round" fill="none" d="M 0.000000 36.800000 L 0.839161 29.899520 L 1.678322 31.228553 L 2.517483 32.515128 L 3.356643 32.818833 L 4.195804 34.352746 L 5.034965 33.603682 L 5.874126 24.080919 L 6.713287 27.570003 L 7.552448 24.697600 L 8.391608 29.870410 L 9.230769 28.452193 L 10.069930 32.683853 L 10.909091 32.393868 L 11.748252 32.865556 L 12.587413 33.375996 L 13.426573 33.678032 L 14.265734 32.641393 L 15.104895 29.701685 L 15.944056 28.319438 L 16.783217 27.524206 L 17.622378 26.415257 L 18.461538 25.488753 L 19.300699 25.696414 L 20.139860 25.868662 L 20.979021 25.096235 L 21.818182 24.548157 L 22.657343 24.583015 L 23.496503 25.069536 L 24.335664 25.505254 L 25.174825 26.385220 L 26.013986 30.490243 L 26.853147 31.643691 L 27.692308 21.721736 L 28.531469 24.390372 L 29.370629 25.212118 L 30.209790 24.471397 L 31.048951 30.506003 L 31.888112 30.596669 L 32.727273 32.646956 L 33.566434 30.983253 L 34.405594 34.545760 L 35.244755 30.890176 L 36.083916 28.623329 L 36.923077 28.215608 L 37.762238 26.741211 L 38.601399 24.512002 L 39.440559 24.434685 L 40.279720 26.122677 L 41.118881 25.461868 L 41.958042 24.526279 L 42.797203 24.478628 L 43.636364 22.586127 L 44.475524 22.270370 L 45.314685 20.686581 L 46.153846 20.618349 L 46.993007 22.420183 L 47.832168 22.402198 L 48.671329 21.467351 L 49.510490 21.851896 L 50.349650 21.881005 L 51.188811 22.613197 L 52.027972 19.344939 L 52.867133 18.934437 L 53.706294 20.211926 L 54.545455 20.703639 L 55.384615 19.288574 L 56.223776 18.969851 L 57.062937 20.218601 L 57.902098 23.734569 L 58.741259 27.580015 L 59.580420 27.594107 L 60.419580 29.479005 L 61.258741 27.108698 L 62.097902 28.253061 L 62.937063 23.605523 L 63.776224 26.724895 L 64.615385 30.234745 L 65.454545 31.200742 L 66.293706 31.063537 L 67.132867 26.414144 L 67.972028 25.821567 L 68.811189 21.918088 L 69.650350 25.333377 L 70.489510 25.285541 L 71.328671 29.653293 L 72.167832 29.614727 L 73.006993 29.614727 L 73.846154 31.701169 L 74.685315 29.551131 L 75.524476 29.192544 L 76.363636 25.854571 L 77.202797 29.133583 L 78.041958 32.629341 L 78.881119 28.850459 L 79.720280 29.031421 L 80.559441 28.301453 L 81.398601 29.772883 L 82.237762 18.428448 L 83.076923 13.375969 L 83.916084 13.824481 L 84.755245 8.800000 L 85.594406 9.234606 L 86.433566 10.149243 L 87.272727 9.579843 L 88.111888 19.318425 L 88.951049 17.920789 L 89.790210 17.730371 L 90.629371 18.014237 L 91.468531 18.134199 L 92.307692 17.775241 L 93.146853 17.212330 L 93.986014 16.746019 L 94.825175 15.653385 L 95.664336 16.160117 L 96.503497 17.143727 L 97.342657 18.050949 L 98.181818 19.459895 L 99.020979 14.299507 L 99.860140 17.246446 L 100.699301 16.692064 L 101.538462 21.770685 L 102.377622 20.821932 L 103.216783 21.549488 L 104.055944 22.874258 L 104.895105 22.317094 L 105.734266 15.177989 L 106.573427 16.594166 L 107.412587 17.689210 L 108.251748 20.193014 L 109.090909 22.897063 L 109.930070 21.643307 L 110.769231 24.295626 L 111.608392 19.309896 L 112.447552 15.379903 L 113.286713 16.232798 L 114.125874 16.405788 L 114.965035 17.593908 L 115.804196 18.176658 L 116.643357 19.088885 L 117.482517 18.761077 L 118.321678 23.660961 L 119.160839 23.404165 L 120.000000 25.239930"></path>
      <path stroke="none" fill-opacity="0.6" fill="url(#color_grad)" d="M 0 40 L 0.000000 36.800000 L 0.839161 29.899520 L 1.678322 31.228553 L 2.517483 32.515128 L 3.356643 32.818833 L 4.195804 34.352746 L 5.034965 33.603682 L 5.874126 24.080919 L 6.713287 27.570003 L 7.552448 24.697600 L 8.391608 29.870410 L 9.230769 28.452193 L 10.069930 32.683853 L 10.909091 32.393868 L 11.748252 32.865556 L 12.587413 33.375996 L 13.426573 33.678032 L 14.265734 32.641393 L 15.104895 29.701685 L 15.944056 28.319438 L 16.783217 27.524206 L 17.622378 26.415257 L 18.461538 25.488753 L 19.300699 25.696414 L 20.139860 25.868662 L 20.979021 25.096235 L 21.818182 24.548157 L 22.657343 24.583015 L 23.496503 25.069536 L 24.335664 25.505254 L 25.174825 26.385220 L 26.013986 30.490243 L 26.853147 31.643691 L 27.692308 21.721736 L 28.531469 24.390372 L 29.370629 25.212118 L 30.209790 24.471397 L 31.048951 30.506003 L 31.888112 30.596669 L 32.727273 32.646956 L 33.566434 30.983253 L 34.405594 34.545760 L 35.244755 30.890176 L 36.083916 28.623329 L 36.923077 28.215608 L 37.762238 26.741211 L 38.601399 24.512002 L 39.440559 24.434685 L 40.279720 26.122677 L 41.118881 25.461868 L 41.958042 24.526279 L 42.797203 24.478628 L 43.636364 22.586127 L 44.475524 22.270370 L 45.314685 20.686581 L 46.153846 20.618349 L 46.993007 22.420183 L 47.832168 22.402198 L 48.671329 21.467351 L 49.510490 21.851896 L 50.349650 21.881005 L 51.188811 22.613197 L 52.027972 19.344939 L 52.867133 18.934437 L 53.706294 20.211926 L 54.545455 20.703639 L 55.384615 19.288574 L 56.223776 18.969851 L 57.062937 20.218601 L 57.902098 23.734569 L 58.741259 27.580015 L 59.580420 27.594107 L 60.419580 29.479005 L 61.258741 27.108698 L 62.097902 28.253061 L 62.937063 23.605523 L 63.776224 26.724895 L 64.615385 30.234745 L 65.454545 31.200742 L 66.293706 31.063537 L 67.132867 26.414144 L 67.972028 25.821567 L 68.811189 21.918088 L 69.650350 25.333377 L 70.489510 25.285541 L 71.328671 29.653293 L 72.167832 29.614727 L 73.006993 29.614727 L 73.846154 31.701169 L 74.685315 29.551131 L 75.524476 29.192544 L 76.363636 25.854571 L 77.202797 29.133583 L 78.041958 32.629341 L 78.881119 28.850459 L 79.720280 29.031421 L 80.559441 28.301453 L 81.398601 29.772883 L 82.237762 18.428448 L 83.076923 13.375969 L 83.916084 13.824481 L 84.755245 8.800000 L 85.594406 9.234606 L 86.433566 10.149243 L 87.272727 9.579843 L 88.111888 19.318425 L 88.951049 17.920789 L 89.790210 17.730371 L 90.629371 18.014237 L 91.468531 18.134199 L 92.307692 17.775241 L 93.146853 17.212330 L 93.986014 16.746019 L 94.825175 15.653385 L 95.664336 16.160117 L 96.503497 17.143727 L 97.342657 18.050949 L 98.181818 19.459895 L 99.020979 14.299507 L 99.860140 17.246446 L 100.699301 16.692064 L 101.538462 21.770685 L 102.377622 20.821932 L 103.216783 21.549488 L 104.055944 22.874258 L 104.895105 22.317094 L 105.734266 15.177989 L 106.573427 16.594166 L 107.412587 17.689210 L 108.251748 20.193014 L 109.090909 22.897063 L 109.930070 21.643307 L 110.769231 24.295626 L 111.608392 19.309896 L 112.447552 15.379903 L 113.286713 16.232798 L 114.125874 16.405788 L 114.965035 17.593908 L 115.804196 18.176658 L 116.643357 19.088885 L 117.482517 18.761077 L 118.321678 23.660961 L 119.160839 23.404165 L 120.000000 25.239930 L 120 40 Z"></path>
    </g>
  </svg>