<svg xmlns="http://www.w3.org/2000/svg" viewBox="0 0 120 40" width="120" height="40">
    <defs>
      <linearGradient id="color_grad" x1="0%" x2="0%" y1="0%" y2="100%">
        <stop offset="0%" style="stop-color:#EA3943;stop-opacity:0.4;"></stop>
        <stop offset="100%" style="stop-color:#EA3943;stop-opacity:0.0;"></stop>
      </linearGradient>
    </defs>
    <g>
      <path stroke="#EA3943" stroke-width="2" stroke-linecap="round" stroke-linejoin="round" fill="none" d="M 0.000000 28.935218 L 0.839161 21.104856 L 1.678322 21.104856 L 2.517483 22.223479 L 3.356643 21.104856 L 4.195804 23.342102 L 5.034965 23.342102 L 5.874126 10.317573 L 6.713287 12.820786 L 7.552448 9.707415 L 8.391608 16.192300 L 9.230769 16.200123 L 10.069930 19.986232 L 10.909091 21.104856 L 11.748252 21.104856 L 12.587413 21.104856 L 13.426573 21.104856 L 14.265734 21.104856 L 15.104895 18.963044 L 15.944056 16.965950 L 16.783217 16.965950 L 17.622378 16.965950 L 18.461538 16.965950 L 19.300699 16.965950 L 20.139860 16.965950 L 20.979021 15.735464 L 21.818182 15.735464 L 22.657343 15.735464 L 23.496503 15.735464 L 24.335664 15.735464 L 25.174825 15.735464 L 26.013986 19.986232 L 26.853147 22.645896 L 27.692308 9.918623 L 28.531469 14.311762 L 29.370629 15.735464 L 30.209790 15.735464 L 31.048951 19.986232 L 31.888112 19.986232 L 32.727273 21.715014 L 33.566434 21.769771 L 34.405594 27.151679 L 35.244755 21.104856 L 36.083916 22.223479 L 36.923077 22.395575 L 37.762238 24.460725 L 38.601399 23.342102 L 39.440559 23.342102 L 40.279720 22.544203 L 41.118881 22.223479 L 41.958042 22.223479 L 42.797203 20.956227 L 43.636364 19.986232 L 44.475524 19.986232 L 45.314685 19.986232 L 46.153846 19.986232 L 46.993007 19.986232 L 47.832168 19.986232 L 48.671329 19.986232 L 49.510490 19.986232 L 50.349650 19.986232 L 51.188811 19.986232 L 52.027972 19.986232 L 52.867133 19.986232 L 53.706294 19.986232 L 54.545455 19.986232 L 55.384615 19.986232 L 56.223776 19.986232 L 57.062937 19.986232 L 57.902098 23.623713 L 58.741259 26.697972 L 59.580420 26.697972 L 60.419580 32.291088 L 61.258741 32.291088 L 62.097902 32.291088 L 62.937063 26.697972 L 63.776224 29.928681 L 64.615385 32.032944 L 65.454545 31.274158 L 66.293706 31.172465 L 67.132867 26.697972 L 67.972028 24.492015 L 68.811189 20.510343 L 69.650350 20.424295 L 70.489510 19.986232 L 71.328671 27.592870 L 72.167832 27.592870 L 73.006993 27.592870 L 73.846154 27.592870 L 74.685315 27.592870 L 75.524476 27.592870 L 76.363636 27.592870 L 77.202797 27.592870 L 78.041958 27.592870 L 78.881119 27.592870 L 79.720280 27.592870 L 80.559441 27.592870 L 81.398601 27.592870 L 82.237762 16.096865 L 83.076923 9.677689 L 83.916084 8.846935 L 84.755245 8.800000 L 85.594406 8.800000 L 86.433566 8.800000 L 87.272727 8.800000 L 88.111888 19.986232 L 88.951049 19.986232 L 89.790210 19.986232 L 90.629371 19.986232 L 91.468531 19.986232 L 92.307692 19.986232 L 93.146853 19.986232 L 93.986014 19.986232 L 94.825175 19.986232 L 95.664336 19.986232 L 96.503497 21.104856 L 97.342657 23.842745 L 98.181818 25.579348 L 99.020979 21.660256 L 99.860140 25.422898 L 100.699301 28.692719 L 101.538462 28.935218 L 102.377622 27.816595 L 103.216783 28.935218 L 104.055944 29.318523 L 104.895105 30.053841 L 105.734266 25.454188 L 106.573427 25.579348 L 107.412587 25.579348 L 108.251748 31.172465 L 109.090909 31.172465 L 109.930070 31.172465 L 110.769231 36.800000 L 111.608392 34.472012 L 112.447552 31.172465 L 113.286713 31.172465 L 114.125874 31.172465 L 114.965035 31.172465 L 115.804196 31.172465 L 116.643357 31.172465 L 117.482517 32.291088 L 118.321678 35.646958 L 119.160839 35.646958 L 120.000000 35.646958"></path>
      <path stroke="none" fill-opacity="0.6" fill="url(#color_grad)" d="M 0 40 L 0.000000 28.935218 L 0.839161 21.104856 L 1.678322 21.104856 L 2.517483 22.223479 L 3.356643 21.104856 L 4.195804 23.342102 L 5.034965 23.342102 L 5.874126 10.317573 L 6.713287 12.820786 L 7.552448 9.707415 L 8.391608 16.192300 L 9.230769 16.200123 L 10.069930 19.986232 L 10.909091 21.104856 L 11.748252 21.104856 L 12.587413 21.104856 L 13.426573 21.104856 L 14.265734 21.104856 L 15.104895 18.963044 L 15.944056 16.965950 L 16.783217 16.965950 L 17.622378 16.965950 L 18.461538 16.965950 L 19.300699 16.965950 L 20.139860 16.965950 L 20.979021 15.735464 L 21.818182 15.735464 L 22.657343 15.735464 L 23.496503 15.735464 L 24.335664 15.735464 L 25.174825 15.735464 L 26.013986 19.986232 L 26.853147 22.645896 L 27.692308 9.918623 L 28.531469 14.311762 L 29.370629 15.735464 L 30.209790 15.735464 L 31.048951 19.986232 L 31.888112 19.986232 L 32.727273 21.715014 L 33.566434 21.769771 L 34.405594 27.151679 L 35.244755 21.104856 L 36.083916 22.223479 L 36.923077 22.395575 L 37.762238 24.460725 L 38.601399 23.342102 L 39.440559 23.342102 L 40.279720 22.544203 L 41.118881 22.223479 L 41.958042 22.223479 L 42.797203 20.956227 L 43.636364 19.986232 L 44.475524 19.986232 L 45.314685 19.986232 L 46.153846 19.986232 L 46.993007 19.986232 L 47.832168 19.986232 L 48.671329 19.986232 L 49.510490 19.986232 L 50.349650 19.986232 L 51.188811 19.986232 L 52.027972 19.986232 L 52.867133 19.986232 L 53.706294 19.986232 L 54.545455 19.986232 L 55.384615 19.986232 L 56.223776 19.986232 L 57.062937 19.986232 L 57.902098 23.623713 L 58.741259 26.697972 L 59.580420 26.697972 L 60.419580 32.291088 L 61.258741 32.291088 L 62.097902 32.291088 L 62.937063 26.697972 L 63.776224 29.928681 L 64.615385 32.032944 L 65.454545 31.274158 L 66.293706 31.172465 L 67.132867 26.697972 L 67.972028 24.492015 L 68.811189 20.510343 L 69.650350 20.424295 L 70.489510 19.986232 L 71.328671 27.592870 L 72.167832 27.592870 L 73.006993 27.592870 L 73.846154 27.592870 L 74.685315 27.592870 L 75.524476 27.592870 L 76.363636 27.592870 L 77.202797 27.592870 L 78.041958 27.592870 L 78.881119 27.592870 L 79.720280 27.592870 L 80.559441 27.592870 L 81.398601 27.592870 L 82.237762 16.096865 L 83.076923 9.677689 L 83.916084 8.846935 L 84.755245 8.800000 L 85.594406 8.800000 L 86.433566 8.800000 L 87.272727 8.800000 L 88.111888 19.986232 L 88.951049 19.986232 L 89.790210 19.986232 L 90.629371 19.986232 L 91.468531 19.986232 L 92.307692 19.986232 L 93.146853 19.986232 L 93.986014 19.986232 L 94.825175 19.986232 L 95.664336 19.986232 L 96.503497 21.104856 L 97.342657 23.842745 L 98.181818 25.579348 L 99.020979 21.660256 L 99.860140 25.422898 L 100.699301 28.692719 L 101.538462 28.935218 L 102.377622 27.816595 L 103.216783 28.935218 L 104.055944 29.318523 L 104.895105 30.053841 L 105.734266 25.454188 L 106.573427 25.579348 L 107.412587 25.579348 L 108.251748 31.172465 L 109.090909 31.172465 L 109.930070 31.172465 L 110.769231 36.800000 L 111.608392 34.472012 L 112.447552 31.172465 L 113.286713 31.172465 L 114.125874 31.172465 L 114.965035 31.172465 L 115.804196 31.172465 L 116.643357 31.172465 L 117.482517 32.291088 L 118.321678 35.646958 L 119.160839 35.646958 L 120.000000 35.646958 L 120 40 Z"></path>
    </g>
  </svg>