<svg xmlns="http://www.w3.org/2000/svg" viewBox="0 0 120 40" width="120" height="40">
    <defs>
      <linearGradient id="color_grad" x1="0%" x2="0%" y1="0%" y2="100%">
        <stop offset="0%" style="stop-color:#EA3943;stop-opacity:0.4;"></stop>
        <stop offset="100%" style="stop-color:#EA3943;stop-opacity:0.0;"></stop>
      </linearGradient>
    </defs>
    <g>
      <path stroke="#EA3943" stroke-width="2" stroke-linecap="round" stroke-linejoin="round" fill="none" d="M 0.000000 31.078226 L 0.839161 30.947381 L 1.678322 32.070173 L 2.517483 31.860462 L 3.356643 31.801666 L 4.195804 31.974002 L 5.034965 32.805836 L 5.874126 32.306710 L 6.713287 29.989207 L 7.552448 31.693015 L 8.391608 32.264767 L 9.230769 32.572709 L 10.069930 32.836906 L 10.909091 32.606931 L 11.748252 31.233837 L 12.587413 31.916943 L 13.426573 33.077688 L 14.265734 33.549474 L 15.104895 33.294540 L 15.944056 31.543193 L 16.783217 31.377097 L 17.622378 31.990920 L 18.461538 30.957224 L 19.300699 31.604563 L 20.139860 31.354389 L 20.979021 30.755361 L 21.818182 29.145601 L 22.657343 29.452063 L 23.496503 29.855467 L 24.335664 30.246778 L 25.174825 30.730465 L 26.013986 32.393811 L 26.853147 30.429086 L 27.692308 30.398208 L 28.531469 32.272423 L 29.370629 30.795502 L 30.209790 30.642142 L 31.048951 32.140227 L 31.888112 30.939662 L 32.727273 31.750589 L 33.566434 32.393875 L 34.405594 32.692939 L 35.244755 30.280422 L 36.083916 28.662493 L 36.923077 28.560532 L 37.762238 28.665709 L 38.601399 27.848221 L 39.440559 30.179877 L 40.279720 30.484087 L 41.118881 28.640300 L 41.958042 28.985037 L 42.797203 29.521023 L 43.636364 32.116876 L 44.475524 31.133291 L 45.314685 29.650645 L 46.153846 30.398208 L 46.993007 30.138320 L 47.832168 30.756004 L 48.671329 31.500608 L 49.510490 32.195743 L 50.349650 31.269861 L 51.188811 31.750138 L 52.027972 31.076425 L 52.867133 30.939469 L 53.706294 31.516240 L 54.545455 32.001470 L 55.384615 31.701635 L 56.223776 31.873585 L 57.062937 31.883813 L 57.902098 31.888381 L 58.741259 32.270686 L 59.580420 31.960686 L 60.419580 31.633961 L 61.258741 30.945130 L 62.097902 29.917737 L 62.937063 30.204193 L 63.776224 29.276703 L 64.615385 28.046804 L 65.454545 27.806729 L 66.293706 26.393236 L 67.132867 29.231158 L 67.972028 29.377827 L 68.811189 29.185613 L 69.650350 28.522064 L 70.489510 28.589737 L 71.328671 28.503344 L 72.167832 28.530105 L 73.006993 28.530105 L 73.846154 29.314850 L 74.685315 28.589673 L 75.524476 29.664926 L 76.363636 27.386921 L 77.202797 28.728494 L 78.041958 29.201374 L 78.881119 29.953440 L 79.720280 30.259515 L 80.559441 28.506753 L 81.398601 29.956592 L 82.237762 25.553362 L 83.076923 28.161437 L 83.916084 29.253287 L 84.755245 28.544514 L 85.594406 28.361499 L 86.433566 29.170560 L 87.272727 29.577117 L 88.111888 29.056956 L 88.951049 27.945743 L 89.790210 28.230719 L 90.629371 28.346382 L 91.468531 28.631294 L 92.307692 28.549918 L 93.146853 28.774039 L 93.986014 29.296580 L 94.825175 28.296913 L 95.664336 29.399249 L 96.503497 27.940661 L 97.342657 28.020429 L 98.181818 28.705722 L 99.020979 29.639838 L 99.860140 29.228971 L 100.699301 28.252655 L 101.538462 29.128747 L 102.377622 29.225883 L 103.216783 29.085775 L 104.055944 32.501239 L 104.895105 32.425975 L 105.734266 32.614651 L 106.573427 33.614897 L 107.412587 33.196889 L 108.251748 8.800000 L 109.090909 32.228936 L 109.930070 32.917574 L 110.769231 34.212252 L 111.608392 33.583504 L 112.447552 32.731021 L 113.286713 34.300833 L 114.125874 34.575323 L 114.965035 34.520322 L 115.804196 34.570177 L 116.643357 34.445637 L 117.482517 35.582388 L 118.321678 36.193638 L 119.160839 36.476942 L 120.000000 36.800000"></path>
      <path stroke="none" fill-opacity="0.6" fill="url(#color_grad)" d="M 0 40 L 0.000000 31.078226 L 0.839161 30.947381 L 1.678322 32.070173 L 2.517483 31.860462 L 3.356643 31.801666 L 4.195804 31.974002 L 5.034965 32.805836 L 5.874126 32.306710 L 6.713287 29.989207 L 7.552448 31.693015 L 8.391608 32.264767 L 9.230769 32.572709 L 10.069930 32.836906 L 10.909091 32.606931 L 11.748252 31.233837 L 12.587413 31.916943 L 13.426573 33.077688 L 14.265734 33.549474 L 15.104895 33.294540 L 15.944056 31.543193 L 16.783217 31.377097 L 17.622378 31.990920 L 18.461538 30.957224 L 19.300699 31.604563 L 20.139860 31.354389 L 20.979021 30.755361 L 21.818182 29.145601 L 22.657343 29.452063 L 23.496503 29.855467 L 24.335664 30.246778 L 25.174825 30.730465 L 26.013986 32.393811 L 26.853147 30.429086 L 27.692308 30.398208 L 28.531469 32.272423 L 29.370629 30.795502 L 30.209790 30.642142 L 31.048951 32.140227 L 31.888112 30.939662 L 32.727273 31.750589 L 33.566434 32.393875 L 34.405594 32.692939 L 35.244755 30.280422 L 36.083916 28.662493 L 36.923077 28.560532 L 37.762238 28.665709 L 38.601399 27.848221 L 39.440559 30.179877 L 40.279720 30.484087 L 41.118881 28.640300 L 41.958042 28.985037 L 42.797203 29.521023 L 43.636364 32.116876 L 44.475524 31.133291 L 45.314685 29.650645 L 46.153846 30.398208 L 46.993007 30.138320 L 47.832168 30.756004 L 48.671329 31.500608 L 49.510490 32.195743 L 50.349650 31.269861 L 51.188811 31.750138 L 52.027972 31.076425 L 52.867133 30.939469 L 53.706294 31.516240 L 54.545455 32.001470 L 55.384615 31.701635 L 56.223776 31.873585 L 57.062937 31.883813 L 57.902098 31.888381 L 58.741259 32.270686 L 59.580420 31.960686 L 60.419580 31.633961 L 61.258741 30.945130 L 62.097902 29.917737 L 62.937063 30.204193 L 63.776224 29.276703 L 64.615385 28.046804 L 65.454545 27.806729 L 66.293706 26.393236 L 67.132867 29.231158 L 67.972028 29.377827 L 68.811189 29.185613 L 69.650350 28.522064 L 70.489510 28.589737 L 71.328671 28.503344 L 72.167832 28.530105 L 73.006993 28.530105 L 73.846154 29.314850 L 74.685315 28.589673 L 75.524476 29.664926 L 76.363636 27.386921 L 77.202797 28.728494 L 78.041958 29.201374 L 78.881119 29.953440 L 79.720280 30.259515 L 80.559441 28.506753 L 81.398601 29.956592 L 82.237762 25.553362 L 83.076923 28.161437 L 83.916084 29.253287 L 84.755245 28.544514 L 85.594406 28.361499 L 86.433566 29.170560 L 87.272727 29.577117 L 88.111888 29.056956 L 88.951049 27.945743 L 89.790210 28.230719 L 90.629371 28.346382 L 91.468531 28.631294 L 92.307692 28.549918 L 93.146853 28.774039 L 93.986014 29.296580 L 94.825175 28.296913 L 95.664336 29.399249 L 96.503497 27.940661 L 97.342657 28.020429 L 98.181818 28.705722 L 99.020979 29.639838 L 99.860140 29.228971 L 100.699301 28.252655 L 101.538462 29.128747 L 102.377622 29.225883 L 103.216783 29.085775 L 104.055944 32.501239 L 104.895105 32.425975 L 105.734266 32.614651 L 106.573427 33.614897 L 107.412587 33.196889 L 108.251748 8.800000 L 109.090909 32.228936 L 109.930070 32.917574 L 110.769231 34.212252 L 111.608392 33.583504 L 112.447552 32.731021 L 113.286713 34.300833 L 114.125874 34.575323 L 114.965035 34.520322 L 115.804196 34.570177 L 116.643357 34.445637 L 117.482517 35.582388 L 118.321678 36.193638 L 119.160839 36.476942 L 120.000000 36.800000 L 120 40 Z"></path>
    </g>
  </svg>