<svg xmlns="http://www.w3.org/2000/svg" viewBox="0 0 120 40" width="120" height="40">
    <defs>
      <linearGradient id="color_grad" x1="0%" x2="0%" y1="0%" y2="100%">
        <stop offset="0%" style="stop-color:#EA3943;stop-opacity:0.4;"></stop>
        <stop offset="100%" style="stop-color:#EA3943;stop-opacity:0.0;"></stop>
      </linearGradient>
    </defs>
    <g>
      <path stroke="#EA3943" stroke-width="2" stroke-linecap="round" stroke-linejoin="round" fill="none" d="M 0.000000 27.247059 L 0.839161 27.293130 L 1.678322 28.235294 L 2.517483 27.905882 L 3.356643 27.576471 L 4.195804 27.806828 L 5.034965 28.894118 L 5.874126 28.242205 L 6.713287 25.309749 L 7.552448 27.332291 L 8.391608 27.905882 L 9.230769 28.564706 L 10.069930 28.564706 L 10.909091 28.564706 L 11.748252 26.931469 L 12.587413 27.576471 L 13.426573 28.799671 L 14.265734 29.552941 L 15.104895 29.552941 L 15.944056 27.576471 L 16.783217 27.576471 L 17.622378 28.502509 L 18.461538 27.576471 L 19.300699 28.235294 L 20.139860 27.928918 L 20.979021 27.235541 L 21.818182 25.600000 L 22.657343 25.929412 L 23.496503 26.258824 L 24.335664 26.588235 L 25.174825 26.917647 L 26.013986 28.564706 L 26.853147 26.604360 L 27.692308 26.588235 L 28.531469 28.813492 L 29.370629 27.247059 L 30.209790 27.247059 L 31.048951 28.276759 L 31.888112 26.936076 L 32.727273 27.666310 L 33.566434 28.760510 L 34.405594 29.223529 L 35.244755 26.344056 L 36.083916 25.316660 L 36.923077 25.321267 L 37.762238 26.162073 L 38.601399 25.600000 L 39.440559 28.090169 L 40.279720 27.905882 L 41.118881 26.026162 L 41.958042 26.602057 L 42.797203 26.961415 L 43.636364 29.972193 L 44.475524 28.988564 L 45.314685 27.758453 L 46.153846 28.564706 L 46.993007 27.905882 L 47.832168 28.564706 L 48.671329 29.552941 L 49.510490 30.211765 L 50.349650 29.223529 L 51.188811 29.573673 L 52.027972 29.552941 L 52.867133 29.490745 L 53.706294 29.833978 L 54.545455 30.241711 L 55.384615 30.211765 L 56.223776 30.455944 L 57.062937 30.211765 L 57.902098 30.096586 L 58.741259 30.211765 L 59.580420 29.882353 L 60.419580 30.096586 L 61.258741 29.882353 L 62.097902 28.564706 L 62.937063 28.887207 L 63.776224 27.809132 L 64.615385 26.106787 L 65.454545 25.480214 L 66.293706 24.001316 L 67.132867 27.247059 L 67.972028 27.138791 L 68.811189 27.092719 L 69.650350 25.600000 L 70.489510 25.600000 L 71.328671 25.892555 L 72.167832 25.929412 L 73.006993 25.929412 L 73.846154 26.284163 L 74.685315 26.007733 L 75.524476 27.247059 L 76.363636 25.600000 L 77.202797 26.258824 L 78.041958 25.940930 L 78.881119 27.624846 L 79.720280 27.905882 L 80.559441 26.210448 L 81.398601 27.422131 L 82.237762 23.236528 L 83.076923 25.828054 L 83.916084 26.903826 L 84.755245 27.205594 L 85.594406 26.917647 L 86.433566 27.576471 L 87.272727 28.115508 L 88.111888 27.435952 L 88.951049 26.588235 L 89.790210 26.917647 L 90.629371 26.986754 L 91.468531 27.247059 L 92.307692 27.247059 L 93.146853 27.592596 L 93.986014 28.235294 L 94.825175 27.433649 L 95.664336 28.472563 L 96.503497 26.945290 L 97.342657 27.320773 L 98.181818 28.025668 L 99.020979 29.380173 L 99.860140 29.011600 L 100.699301 28.707528 L 101.538462 28.564706 L 102.377622 28.668367 L 103.216783 28.564706 L 104.055944 31.858824 L 104.895105 32.017770 L 105.734266 32.847059 L 106.573427 33.616454 L 107.412587 32.976059 L 108.251748 8.800000 L 109.090909 31.888770 L 109.930070 32.835541 L 110.769231 34.544796 L 111.608392 34.164706 L 112.447552 33.835294 L 113.286713 35.231263 L 114.125874 35.475442 L 114.965035 35.205923 L 115.804196 35.152941 L 116.643357 34.862690 L 117.482517 36.226409 L 118.321678 36.470588 L 119.160839 36.800000 L 120.000000 36.800000"></path>
      <path stroke="none" fill-opacity="0.6" fill="url(#color_grad)" d="M 0 40 L 0.000000 27.247059 L 0.839161 27.293130 L 1.678322 28.235294 L 2.517483 27.905882 L 3.356643 27.576471 L 4.195804 27.806828 L 5.034965 28.894118 L 5.874126 28.242205 L 6.713287 25.309749 L 7.552448 27.332291 L 8.391608 27.905882 L 9.230769 28.564706 L 10.069930 28.564706 L 10.909091 28.564706 L 11.748252 26.931469 L 12.587413 27.576471 L 13.426573 28.799671 L 14.265734 29.552941 L 15.104895 29.552941 L 15.944056 27.576471 L 16.783217 27.576471 L 17.622378 28.502509 L 18.461538 27.576471 L 19.300699 28.235294 L 20.139860 27.928918 L 20.979021 27.235541 L 21.818182 25.600000 L 22.657343 25.929412 L 23.496503 26.258824 L 24.335664 26.588235 L 25.174825 26.917647 L 26.013986 28.564706 L 26.853147 26.604360 L 27.692308 26.588235 L 28.531469 28.813492 L 29.370629 27.247059 L 30.209790 27.247059 L 31.048951 28.276759 L 31.888112 26.936076 L 32.727273 27.666310 L 33.566434 28.760510 L 34.405594 29.223529 L 35.244755 26.344056 L 36.083916 25.316660 L 36.923077 25.321267 L 37.762238 26.162073 L 38.601399 25.600000 L 39.440559 28.090169 L 40.279720 27.905882 L 41.118881 26.026162 L 41.958042 26.602057 L 42.797203 26.961415 L 43.636364 29.972193 L 44.475524 28.988564 L 45.314685 27.758453 L 46.153846 28.564706 L 46.993007 27.905882 L 47.832168 28.564706 L 48.671329 29.552941 L 49.510490 30.211765 L 50.349650 29.223529 L 51.188811 29.573673 L 52.027972 29.552941 L 52.867133 29.490745 L 53.706294 29.833978 L 54.545455 30.241711 L 55.384615 30.211765 L 56.223776 30.455944 L 57.062937 30.211765 L 57.902098 30.096586 L 58.741259 30.211765 L 59.580420 29.882353 L 60.419580 30.096586 L 61.258741 29.882353 L 62.097902 28.564706 L 62.937063 28.887207 L 63.776224 27.809132 L 64.615385 26.106787 L 65.454545 25.480214 L 66.293706 24.001316 L 67.132867 27.247059 L 67.972028 27.138791 L 68.811189 27.092719 L 69.650350 25.600000 L 70.489510 25.600000 L 71.328671 25.892555 L 72.167832 25.929412 L 73.006993 25.929412 L 73.846154 26.284163 L 74.685315 26.007733 L 75.524476 27.247059 L 76.363636 25.600000 L 77.202797 26.258824 L 78.041958 25.940930 L 78.881119 27.624846 L 79.720280 27.905882 L 80.559441 26.210448 L 81.398601 27.422131 L 82.237762 23.236528 L 83.076923 25.828054 L 83.916084 26.903826 L 84.755245 27.205594 L 85.594406 26.917647 L 86.433566 27.576471 L 87.272727 28.115508 L 88.111888 27.435952 L 88.951049 26.588235 L 89.790210 26.917647 L 90.629371 26.986754 L 91.468531 27.247059 L 92.307692 27.247059 L 93.146853 27.592596 L 93.986014 28.235294 L 94.825175 27.433649 L 95.664336 28.472563 L 96.503497 26.945290 L 97.342657 27.320773 L 98.181818 28.025668 L 99.020979 29.380173 L 99.860140 29.011600 L 100.699301 28.707528 L 101.538462 28.564706 L 102.377622 28.668367 L 103.216783 28.564706 L 104.055944 31.858824 L 104.895105 32.017770 L 105.734266 32.847059 L 106.573427 33.616454 L 107.412587 32.976059 L 108.251748 8.800000 L 109.090909 31.888770 L 109.930070 32.835541 L 110.769231 34.544796 L 111.608392 34.164706 L 112.447552 33.835294 L 113.286713 35.231263 L 114.125874 35.475442 L 114.965035 35.205923 L 115.804196 35.152941 L 116.643357 34.862690 L 117.482517 36.226409 L 118.321678 36.470588 L 119.160839 36.800000 L 120.000000 36.800000 L 120 40 Z"></path>
    </g>
  </svg>